<svg width="200" height="200" viewBox="0 0 200 200" fill="none" xmlns="http://www.w3.org/2000/svg">
<g stroke="black" stroke-width="2" stroke-linecap="round" stroke-linejoin="round">
	<path d="M35.5 67.499C35.1 85.899 46 97.499 51.5 100.999C79 108.666 137.4 123.099 151 119.499C168 114.999 168.639 92.999 166.5 87.499C160.9 73.099 162.833 51.499 164.5 42.499C158 40.499 150.5 40.999 137 40.499C123.5 39.999 126 27.9993 106 22.9998C96.1064 20.5266 83 23.9996 77.5 27.999C70.5 28.999 36 44.499 35.5 67.499Z" fill="#88673A"/>
	<path d="M56.5 152C45.5 138.5 48.0002 119.5 48.5002 113.5C47.0002 107.667 43.9002 93 43.5002 81C43.1002 69 47.6668 59.6669 50 56.5004C69.5 65.5004 81 20 112 34.5004C114 49.0004 120.5 53.0004 129 65.5004C137.5 78.0004 128 97.5 137 103C144 98.5004 140.5 96.0004 148 86.0004C155.5 76.0004 164.5 83.0004 160 104.5C156.4 121.7 148 125.5 140.5 122C142 126.5 143 133.358 139 142.5C128.5 166.5 96.5 175.5 83 178.5C71.7518 181 66.7826 164.62 56.5 152Z" fill="#FACC9E"/>
	<path d="M49.9999 56.5004C69.4999 65.5004 80.9999 20 112 34.5004C111 26 98.5 23.5 88.5 24.5C65.0036 26.8496 64.1667 13 63.5 4.5C57 7.33333 43.3999 16.8 40.9999 32C38.5999 47.2 45.9999 54.6669 49.9999 56.5004Z" fill="#BA945E"/>
	<path d="M145 52C146.833 53 151.6 55.2 156 56"/>
	<path d="M130.5 39.0002C120.5 33.8002 114 33.8338 112 34.5006C111.166 37.3338 109.6 44.2002 110 49.0002C110.5 55.0002 134 70.0002 158.5 70.0002C144.5 60.5002 155 51.7402 130.5 39.0002Z" fill="#BA945E"/>
	<path d="M89 126C89.8333 128.166 89.9354 132.626 86 133.5C79.5 134.944 78.5 139 73 140C68.5726 140.805 64.3945 136.5 65.4998 129.5C66.9998 120 67.5 113 68 108C68.5 103 57.5 98.0001 51.5 100C49.9346 100.522 48.0076 100.956 46 102M80.5 95.4998C82.8333 93.4998 89.3 89.5998 96.5 89.9998C103.7 90.3998 108.833 91.1666 110.5 91.5"/>
	<path d="M67.6179 106C67.9265 106.655 68.0672 107.328 68 108C67 108.667 64.5 111.5 60 111.5C55.98 111.5 52.3333 108.667 51 107.5C51.5 105.667 52.8143 103.041 57.5 102C62 101 64.8333 102.697 65 103.046C66.1946 103.94 67.1226 104.948 67.6179 106Z" fill="white"/>
	<path d="M99 96.5C93 96.5 88.5 100.833 87 103C89 105.5 92.5 107 99.5 107C105.1 107 109.5 103.333 111 101.5C109.5 99.8333 105 96.5 99 96.5Z" fill="white"/>
	<path d="M65.5 148C67.3333 149.167 72.4 151.4 78 151C83.6 150.6 95.3333 147.833 100.5 146.5"/>
	<path d="M109.5 139C106.7 134.2 102 132.5 98 132C94 131.5 91.5 129.5 89.5 128.5"/>
	<path d="M98.5 142.5C100.5 143.5 102 147 102 149.5"/>
	<path d="M67 145.5C65.5 146.5 64.5 148 64 149.5"/>
	<path d="M71.5 156.5C74.8333 157.167 83 159 92.5 155.5"/>
	<path d="M145 101C146.667 99.1664 150.1 96.5998 150.5 101C151 106.5 148 112.5 146 109"/>
	<path d="M150 90.4999C152 88.3333 156 85.6999 156 92.4999C156 99.2999 155.333 103.333 155 104.5"/>
	<path d="M64.5 135.5C63.5 136 61.2 137.7 60 140.5"/>
	<path d="M119.5 47C121 49.6667 127 56 139 60"/>
	<path d="M125 43C126.333 44.8333 130.8 48.8 134 50"/>
	<path d="M138 88C138.333 89.8333 139.6 94.1 142 96.5"/>
	<path d="M54.5 26C57.5 30.5 69.3 38.5 88.5 34.5"/>
	<path d="M140.5 75C140.833 77.1667 142.6 82.2 147 85"/>
	<path d="M49.5 37C51 42.8333 59.4 51.8 77 43"/>
	<path d="M59 94.5001C57.0534 93.9012 51.9363 93.1677 46 96.2883"/>
	<path d="M77 126.5C77.6667 124.833 79.5 121.2 81.5 120"/>
</g>
<circle cx="100" cy="100" r="4" fill="black"/>
<circle cx="61" cy="105" r="4" fill="black"/>
<circle cx="101" cy="99" r="1" fill="white"/>
<circle cx="62" cy="104" r="1" fill="white"/>
</svg>
