<svg width="901" height="187" viewBox="0 0 901 187" fill="none" xmlns="http://www.w3.org/2000/svg">
<rect y="42" width="901" height="103" rx="2" fill="black" fill-opacity="0.1"/>
<path d="M38.104 93.736C37.544 93.344 36.984 92.784 36.984 91.72C36.984 90.544 37.544 90.096 38.104 89.704L59.888 74.528C60.336 74.192 60.896 74.024 61.456 74.024C62.968 74.024 63.752 74.864 63.752 76.152C63.752 76.936 63.584 77.72 62.912 78.168L42.976 91.72L62.912 105.272C63.584 105.72 63.752 106.504 63.752 107.288C63.752 108.464 62.744 109.416 61.456 109.416C60.896 109.416 60.336 109.248 59.888 108.912L38.104 93.736ZM84.7192 73.968V72.512C84.7192 70.944 86.0072 69.712 87.5192 69.712H88.9192C90.4312 69.712 91.7192 70.944 91.7192 72.512V73.968C91.7192 75.536 90.4312 76.768 88.9192 76.768H87.5192C86.0072 76.768 84.7192 75.536 84.7192 73.968ZM76.4312 85.336C76.4312 83.824 77.6632 83.096 79.2312 83.096H87.6312C90.3192 83.096 91.5512 84.328 91.5512 87.016V110.704C91.5512 112.272 90.8232 113.504 89.3112 113.504C87.7992 113.504 87.0712 112.216 87.0712 110.704V87.576H79.2312C77.7192 87.576 76.4312 86.848 76.4312 85.336ZM108.43 110.928V85.784C108.43 84.216 109.27 82.984 110.782 82.984C111.734 82.984 112.462 83.488 113.134 85.224C113.974 83.936 115.71 82.816 117.67 82.816C119.966 82.816 122.038 84.048 123.158 85.448C124.67 84.104 127.246 82.816 129.542 82.816C133.798 82.816 137.382 86.288 137.382 92.448V110.928C137.382 112.44 136.654 113.728 135.142 113.728C133.63 113.728 132.902 112.496 132.902 110.928V92.504C132.902 89.032 131.558 87.296 129.318 87.296C126.798 87.296 125.174 88.92 125.174 92.448V110.928C125.174 112.44 124.446 113.728 122.934 113.728C121.422 113.728 120.694 112.496 120.694 110.928V92.504C120.694 88.92 119.07 87.296 116.83 87.296C114.814 87.296 112.91 88.808 112.91 92.56V110.928C112.91 112.44 112.182 113.728 110.67 113.728C109.158 113.728 108.43 112.496 108.43 110.928ZM150.566 97.936C150.566 102.304 153.422 107.456 158.574 107.456C162.942 107.456 165.406 104.88 166.862 102.192V92.056C165.07 89.424 162.438 87.576 158.798 87.296C153.142 87.296 150.566 92.56 150.566 97.936ZM146.086 97.936C146.086 89.424 151.014 82.816 158.742 82.816C161.542 82.816 165.35 84.384 166.862 86.12C166.974 84.16 167.702 82.984 169.102 82.984C170.614 82.984 171.342 84.272 171.342 85.784V111.264C171.342 119.216 166.47 123.808 159.302 123.808C154.15 123.808 147.318 120.784 147.318 118.376C147.318 117.032 148.046 116.024 149.334 116.024C152.19 116.024 153.59 119.16 159.302 119.16C164.062 119.16 166.862 116.36 166.862 111.488V108.296C165.798 109.92 162.83 111.936 158.574 111.936C151.182 111.936 146.086 105.552 146.086 97.936ZM220.388 107.456C220.388 106.336 220.948 105.216 222.46 105.216C225.204 105.216 225.428 109.584 231.756 109.584C236.796 109.584 239.148 107.848 239.148 105.16C239.148 102.472 236.46 100.904 231.252 100.064C226.156 99.224 221.228 97.152 221.228 91.216C221.228 86.064 225.54 82.536 232.092 82.536C238.924 82.536 243.068 86.624 243.068 89.312C243.068 90.824 242.564 91.832 241.052 91.832C239.708 91.832 238.532 90.768 238.028 89.592C237.356 88.024 235.396 86.904 231.756 86.904C227.892 86.904 225.764 88.416 225.764 90.88C225.764 93.4 227.612 95.024 232.82 95.696C239.148 96.536 243.628 99.168 243.628 104.768C243.628 109.752 240.772 113.896 231.532 113.896C225.652 113.896 220.388 109.696 220.388 107.456ZM260.115 110.928V85.784C260.115 84.272 260.843 83.04 262.355 83.04C263.923 83.04 264.595 84.216 264.595 86.904C266.219 84.888 269.915 82.816 272.715 82.816C277.643 82.816 281.451 86.792 281.507 90.544C281.507 92.112 280.779 93.4 279.267 93.4C277.867 93.4 277.251 92.168 277.027 91.216C276.467 89.088 275.123 87.296 272.099 87.296C269.467 87.296 266.387 89.704 264.595 92.336V110.928C264.595 112.496 263.867 113.728 262.355 113.728C260.843 113.728 260.115 112.44 260.115 110.928ZM293.29 98.216C293.29 88.08 300.122 82.872 306.506 82.872C312.218 82.872 315.522 86.848 315.522 88.696C315.522 90.264 314.57 90.992 313.394 90.992C310.594 90.992 310.93 87.352 306.394 87.352C301.41 87.352 297.77 91.496 297.77 98.216C297.77 105.16 301.466 109.528 306.114 109.528C311.602 109.528 311.826 104.992 314.626 104.992C315.69 104.992 316.586 105.72 316.586 107.008C316.586 109.584 312.442 114.008 306.394 114.008C299.282 114.008 293.29 108.688 293.29 98.216ZM327.194 85.336C327.194 83.768 328.426 83.096 329.994 83.096H352.394C353.962 83.096 355.194 83.824 355.194 85.336C355.194 86.848 353.906 87.576 352.394 87.576H329.994C328.482 87.576 327.194 86.904 327.194 85.336ZM327.194 98.104C327.194 96.536 328.482 95.864 329.994 95.864H352.394C353.906 95.864 355.194 96.592 355.194 98.104C355.194 99.616 353.962 100.344 352.394 100.344H329.994C328.426 100.344 327.194 99.672 327.194 98.104ZM383.273 85L382.545 72.68C382.433 71.168 383.945 69.88 385.625 69.88C387.473 69.88 388.705 71.112 388.705 72.4C388.705 72.512 388.649 72.568 387.753 85.392C387.585 86.624 387.025 87.8 385.513 87.8C384.057 87.8 383.385 86.456 383.273 85ZM367.033 85L366.305 72.68C366.193 71.168 367.705 69.88 369.385 69.88C371.233 69.88 372.465 71.112 372.465 72.4C372.465 72.512 372.409 72.568 371.513 85.392C371.345 86.624 370.785 87.8 369.273 87.8C367.817 87.8 367.145 86.456 367.033 85ZM401.608 97.656C401.608 89.312 407.824 82.536 414.88 82.536C423.392 82.536 426.92 89.592 426.92 95.528C426.92 97.936 426.136 99.224 423.728 99.224H406.2C406.704 105.888 410.344 109.36 415.608 109.36C420.872 109.36 422.328 106.168 424.232 106.168C425.352 106.168 426.304 106.84 426.304 108.184C426.304 110.816 420.424 113.84 416.056 113.84C406.704 113.84 401.608 107.12 401.608 97.656ZM406.48 94.744H421.992C421.656 90.04 419.584 87.016 414.712 87.016C409.616 87.016 407.432 90.712 406.48 94.744ZM459.759 113.728C458.975 113.728 458.135 113.224 456.511 111.04L450.239 102.528L443.911 111.04C442.287 113.224 441.447 113.728 440.663 113.728C439.655 113.728 438.479 112.944 438.479 111.656C438.479 110.648 439.263 109.248 440.159 108.016L447.159 98.44L439.879 88.64C438.927 87.352 438.479 86.12 438.479 85.168C438.479 84.16 439.543 83.04 440.775 83.04C442.063 83.04 442.903 84.16 443.911 85.504L450.239 94.184L456.511 85.504C457.519 84.16 458.359 83.04 459.647 83.04C460.879 83.04 461.943 84.16 461.943 85.168C461.943 86.12 461.495 87.352 460.543 88.64L453.263 98.44L460.263 108.016C461.159 109.248 461.943 110.648 461.943 111.656C461.943 112.944 460.767 113.728 459.759 113.728ZM479.27 104.712C479.27 108.128 482.294 109.304 484.198 109.416C488.846 109.416 491.758 106.448 493.55 103.536V99.448C484.366 99.448 479.27 100.456 479.27 104.712ZM474.79 105.272C474.79 98.16 480.166 95.528 493.55 95.472C493.774 89.312 491.086 87.016 486.102 87.016C481.286 87.016 480.39 90.264 478.43 90.264C477.03 90.264 476.246 89.592 476.246 88.024C476.246 85.504 480.782 82.536 486.102 82.536C493.998 82.536 498.03 87.744 498.03 93.568V110.928C498.03 112.44 497.302 113.728 495.79 113.728C494.278 113.728 493.55 112.44 493.55 109.36C492.094 112.048 488.286 113.784 484.758 113.784C479.998 113.784 474.79 110.76 474.79 105.272ZM508.469 110.928V85.784C508.469 84.216 509.309 82.984 510.821 82.984C511.773 82.984 512.501 83.488 513.173 85.224C514.013 83.936 515.749 82.816 517.709 82.816C520.005 82.816 522.077 84.048 523.197 85.448C524.709 84.104 527.285 82.816 529.581 82.816C533.837 82.816 537.421 86.288 537.421 92.448V110.928C537.421 112.44 536.693 113.728 535.181 113.728C533.669 113.728 532.941 112.496 532.941 110.928V92.504C532.941 89.032 531.597 87.296 529.357 87.296C526.837 87.296 525.213 88.92 525.213 92.448V110.928C525.213 112.44 524.485 113.728 522.973 113.728C521.461 113.728 520.733 112.496 520.733 110.928V92.504C520.733 88.92 519.109 87.296 516.869 87.296C514.853 87.296 512.949 88.808 512.949 92.56V110.928C512.949 112.44 512.221 113.728 510.709 113.728C509.197 113.728 508.469 112.496 508.469 110.928ZM559.901 87.184C556.653 87.184 553.349 89.928 552.005 93.176V103.536C553.797 107.12 556.765 109.472 560.573 109.472C565.389 109.472 568.189 105.216 568.189 98.44C568.189 90.88 564.997 87.184 559.901 87.184ZM547.525 124.144V85.728C547.525 84.216 548.253 82.928 549.765 82.928C551.277 82.928 552.005 84.16 552.005 85.728V86.512C553.629 84.608 556.877 82.76 560.237 82.76C566.733 82.76 572.669 87.968 572.669 98.44C572.669 107.624 567.797 113.84 560.741 113.84C557.493 113.84 554.469 112.552 552.005 110.2V124.144C552.005 125.712 551.277 126.944 549.765 126.944C548.253 126.944 547.525 125.656 547.525 124.144ZM589.604 100.232V72.568C589.604 71 590.332 69.712 591.9 69.712C593.412 69.712 594.084 71 594.084 72.568V100.232C594.084 105.048 595.932 108.912 602.988 108.912C605.284 108.912 606.572 109.64 606.572 111.152C606.572 112.664 605.284 113.392 602.82 113.392C593.636 113.392 589.604 109.36 589.604 100.232ZM619.811 97.656C619.811 89.312 626.027 82.536 633.083 82.536C641.595 82.536 645.123 89.592 645.123 95.528C645.123 97.936 644.339 99.224 641.931 99.224H624.403C624.907 105.888 628.547 109.36 633.811 109.36C639.075 109.36 640.531 106.168 642.435 106.168C643.555 106.168 644.507 106.84 644.507 108.184C644.507 110.816 638.627 113.84 634.259 113.84C624.907 113.84 619.811 107.12 619.811 97.656ZM624.683 94.744H640.195C639.859 90.04 637.787 87.016 632.915 87.016C627.819 87.016 625.635 90.712 624.683 94.744ZM664.466 110.2V108.688C664.466 106.616 665.754 105.328 667.826 105.328H669.114C671.186 105.328 672.474 106.56 672.474 108.688V110.2C672.474 112.328 671.186 113.56 669.114 113.56H667.826C665.754 113.56 664.466 112.272 664.466 110.2ZM705.369 87.184C702.121 87.184 698.817 89.928 697.473 93.176V103.536C699.265 107.12 702.233 109.472 706.041 109.472C710.857 109.472 713.657 105.216 713.657 98.44C713.657 90.88 710.465 87.184 705.369 87.184ZM692.993 124.144V85.728C692.993 84.216 693.721 82.928 695.233 82.928C696.745 82.928 697.473 84.16 697.473 85.728V86.512C699.097 84.608 702.345 82.76 705.705 82.76C712.201 82.76 718.137 87.968 718.137 98.44C718.137 107.624 713.265 113.84 706.209 113.84C702.961 113.84 699.937 112.552 697.473 110.2V124.144C697.473 125.712 696.745 126.944 695.233 126.944C693.721 126.944 692.993 125.656 692.993 124.144ZM730.873 110.928V85.784C730.873 84.272 731.601 83.04 733.113 83.04C734.625 83.04 735.353 84.272 735.353 85.784V86.848C737.201 84.776 740.169 82.816 743.417 82.816C750.137 82.816 752.825 88.64 752.825 96.984V110.928C752.825 112.44 752.041 113.728 750.585 113.728C749.073 113.728 748.345 112.496 748.345 110.928V96.984C748.345 91.944 747.897 87.184 742.801 87.184C739.721 87.184 737.313 89.872 735.353 92.112V110.928C735.353 112.44 734.625 113.728 733.113 113.728C731.601 113.728 730.873 112.44 730.873 110.928ZM768.808 97.936C768.808 102.304 771.664 107.456 776.816 107.456C781.184 107.456 783.648 104.88 785.104 102.192V92.056C783.312 89.424 780.68 87.576 777.04 87.296C771.384 87.296 768.808 92.56 768.808 97.936ZM764.328 97.936C764.328 89.424 769.256 82.816 776.984 82.816C779.784 82.816 783.592 84.384 785.104 86.12C785.216 84.16 785.944 82.984 787.344 82.984C788.856 82.984 789.584 84.272 789.584 85.784V111.264C789.584 119.216 784.712 123.808 777.544 123.808C772.392 123.808 765.56 120.784 765.56 118.376C765.56 117.032 766.288 116.024 767.576 116.024C770.432 116.024 771.832 119.16 777.544 119.16C782.304 119.16 785.104 116.36 785.104 111.488V108.296C784.04 109.92 781.072 111.936 776.816 111.936C769.424 111.936 764.328 105.552 764.328 97.936ZM819.679 85L818.951 72.68C818.839 71.168 820.351 69.88 822.031 69.88C823.879 69.88 825.111 71.112 825.111 72.4C825.111 72.512 825.055 72.568 824.159 85.392C823.991 86.624 823.431 87.8 821.919 87.8C820.463 87.8 819.791 86.456 819.679 85ZM803.439 85L802.711 72.68C802.599 71.168 804.111 69.88 805.791 69.88C807.639 69.88 808.871 71.112 808.871 72.4C808.871 72.512 808.815 72.568 807.919 85.392C807.751 86.624 807.191 87.8 805.679 87.8C804.223 87.8 803.551 86.456 803.439 85ZM867.918 89.704C868.478 90.096 869.038 90.656 869.038 91.72C869.038 92.896 868.478 93.344 867.918 93.736L846.134 108.912C845.686 109.248 845.126 109.416 844.566 109.416C843.054 109.416 842.27 108.576 842.27 107.288C842.27 106.504 842.438 105.72 843.11 105.272L863.046 91.72L843.11 78.168C842.438 77.72 842.27 76.936 842.27 76.152C842.27 74.976 843.278 74.024 844.566 74.024C845.126 74.024 845.686 74.192 846.134 74.528L867.918 89.704Z" fill="black"/>
<path d="M89.1101 3.70374C89.1101 4.14642 88.7526 4.4983 88.3156 4.4983H83.7526V18C83.7526 18.437 83.395 18.7946 82.958 18.7946C82.521 18.7946 82.1635 18.437 82.1635 18L82.1578 4.4983H77.5891C77.1464 4.4983 76.7946 4.13507 76.7946 3.70374V3.69807C76.7946 3.26107 77.1521 2.90352 77.5891 2.90352H88.3156C88.7526 2.90352 89.1101 3.26107 89.1101 3.69807V3.70374ZM98.0562 11.7571C98.0562 10.9058 97.3752 10.0545 96.2117 10.0545C95.0199 10.0545 94.6567 10.5312 94.4978 10.798C94.4013 10.9625 94.3218 11.1669 94.2651 11.4279C94.1856 11.7855 93.8678 12.0522 93.4875 12.0522C93.0505 12.0522 92.693 11.6947 92.693 11.2577C92.693 11.2009 92.6987 11.1442 92.71 11.0874C93.0222 9.68558 94.004 8.46538 96.2117 8.46538C98.2265 8.46538 99.6453 9.99773 99.6453 11.7571V13.0341V13.0851V16.4109C99.6453 16.8252 99.7077 17.0749 99.7645 17.2054C99.7815 17.2452 99.8156 17.3076 99.8496 17.3417C100.15 17.336 100.519 17.2849 100.519 17.2849C100.548 17.2792 100.587 17.2736 100.639 17.2736C101.076 17.2736 101.433 17.6311 101.433 18.0681C101.433 18.4654 101.138 18.7946 100.758 18.8513C100.735 18.857 100.287 18.9308 99.8156 18.9308C99.5829 18.9308 98.9983 18.8627 98.5443 18.2554C98.2946 18.4257 97.8746 18.6583 97.239 18.8002C96.9041 18.874 96.5749 18.9081 96.2685 18.9081C95.7236 18.9081 95.1391 18.8229 94.5886 18.6243C94.0097 18.4143 93.1754 17.9659 92.8349 17.0409C92.7384 16.7855 92.693 16.5017 92.693 16.2123C92.693 15.5426 92.8519 14.3961 94.0778 13.5278C94.6396 13.1305 95.3491 12.8411 96.2458 12.6027C96.7452 12.4665 97.3468 12.3757 98.0562 12.3246V11.7571ZM94.2821 16.2123C94.2821 16.4563 94.3729 16.6209 94.5034 16.7571C94.634 16.8933 94.8496 17.0295 95.1277 17.1317C95.4739 17.2565 95.8939 17.319 96.2685 17.319C96.5579 17.319 96.9325 17.2622 97.2446 17.1487C98.0392 16.8536 98.0505 16.3882 98.0505 16.2123C98.0505 16.2123 98.0562 15.0545 98.0562 13.9194C97.6306 13.9535 97.0971 14.0159 96.6544 14.1351C94.7872 14.6345 94.2821 15.2701 94.2821 16.2123ZM110.433 12.0919C110.433 13.8059 109.196 15.151 107.641 15.151C107.238 15.151 106.858 15.0545 106.506 14.8956C106.205 15.0885 106.001 15.4291 106.001 15.8093C106.001 16.0931 106.114 16.3485 106.29 16.5414C106.716 16.4449 107.17 16.3939 107.658 16.3939C108.384 16.3939 109.327 16.5074 110.206 16.8763C110.66 17.0636 111.058 17.3076 111.381 17.6198C111.739 17.9603 112.034 18.4257 112.034 18.9989C112.034 19.6856 111.58 20.5255 110.218 20.9512C109.701 21.1158 109.117 21.1952 108.487 21.1952C107.76 21.1952 106.818 21.0817 105.938 20.7128C105.484 20.5255 105.087 20.2815 104.764 19.9694C104.406 19.6288 104.111 19.1635 104.111 18.5902C104.111 18.2838 104.202 17.7106 104.809 17.2111C104.554 16.8025 104.412 16.3258 104.412 15.8093C104.412 15.0375 104.741 14.3394 105.269 13.8513C105.025 13.5051 104.656 12.8127 104.656 11.8706C104.656 10.2815 105.728 8.98751 107.153 8.8286C107.42 8.05108 108.163 7.48922 109.031 7.48922C109.207 7.48922 109.378 7.51192 109.542 7.55732C109.883 7.64813 110.133 7.9546 110.133 8.3235C110.133 8.7605 109.775 9.11805 109.338 9.11805C109.179 9.11805 109.134 9.07832 109.031 9.07832C108.941 9.07832 108.85 9.11237 108.782 9.16345C108.787 9.16913 108.799 9.16913 108.804 9.1748C109.82 9.75369 110.433 10.8888 110.433 12.0919ZM107.658 17.983C107.176 17.983 106.744 18.0454 106.404 18.1532C106.341 18.1759 105.859 18.3348 105.717 18.5505C105.711 18.5619 105.7 18.5789 105.7 18.5902C105.7 18.5902 105.717 18.7491 106.058 18.9818C106.251 19.118 106.886 19.4869 108.004 19.5834C108.169 19.6005 108.328 19.6061 108.487 19.6061C108.969 19.6061 109.4 19.5437 109.741 19.4359C109.803 19.4132 110.286 19.2543 110.428 19.0386C110.433 19.0272 110.445 19.0102 110.445 18.9989C110.445 18.9989 110.428 18.84 110.087 18.6073C109.894 18.4711 109.259 18.1022 108.14 18.0057C107.976 17.9886 107.817 17.983 107.658 17.983ZM107.448 10.4007C106.739 10.4007 106.245 11.0931 106.245 11.8706C106.245 12.7957 106.915 13.5619 107.641 13.5619C108.35 13.5619 108.844 12.8695 108.844 12.0919C108.844 11.1669 108.175 10.4007 107.448 10.4007Z" fill="black" fill-opacity="0.5"/>
<path d="M77.5 26H169.5" stroke="black" stroke-opacity="0.5" stroke-width="1.5" stroke-linecap="round"/>
<path d="M226.674 5.30987L224.285 12.4381H229.058L226.674 5.30987ZM232.548 18C232.548 18.437 232.191 18.7946 231.754 18.7946C231.402 18.7946 231.107 18.5675 230.999 18.2554V18.2497L229.58 14.0272H223.763L222.344 18.2554C222.236 18.5675 221.941 18.7946 221.589 18.7946C221.152 18.7946 220.795 18.437 220.795 18C220.795 17.9092 220.806 17.8297 220.834 17.7503L225.619 3.44835C225.726 3.12486 226.033 2.90352 226.373 2.90352H226.969C227.31 2.90352 227.616 3.11918 227.724 3.44268L232.509 17.7503C232.537 17.8297 232.548 17.9092 232.548 18ZM230.999 18.2497V18.2554V18.2497ZM241.093 16.0988C241.093 15.6617 241.45 15.3042 241.887 15.3042C242.324 15.3042 242.682 15.6617 242.682 16.0988V16.4109C242.682 17.7276 241.615 18.7946 240.298 18.7946C238.981 18.7946 237.914 17.7276 237.914 16.4109V10.1964L236.325 10.1907C235.888 10.1907 235.531 9.83314 235.531 9.39614C235.531 8.95914 235.888 8.60159 236.325 8.60159H237.914V6.87628C237.914 6.43927 238.272 6.08172 238.709 6.08172C239.146 6.08172 239.503 6.43927 239.503 6.87628V8.59591L241.887 8.60159C242.324 8.60159 242.682 8.95914 242.682 9.39614C242.682 9.83314 242.324 10.1907 241.887 10.1907H239.503V16.4109C239.503 16.8536 239.855 17.2054 240.298 17.2054C240.741 17.2054 241.093 16.8536 241.093 16.4109V16.0988ZM251.229 16.0988C251.229 15.6617 251.587 15.3042 252.024 15.3042C252.461 15.3042 252.818 15.6617 252.818 16.0988V16.4109C252.818 17.7276 251.751 18.7946 250.435 18.7946C249.118 18.7946 248.051 17.7276 248.051 16.4109V10.1964L246.462 10.1907C246.025 10.1907 245.667 9.83314 245.667 9.39614C245.667 8.95914 246.025 8.60159 246.462 8.60159H248.051V6.87628C248.051 6.43927 248.409 6.08172 248.846 6.08172C249.283 6.08172 249.64 6.43927 249.64 6.87628V8.59591L252.024 8.60159C252.461 8.60159 252.818 8.95914 252.818 9.39614C252.818 9.83314 252.461 10.1907 252.024 10.1907H249.64V16.4109C249.64 16.8536 249.992 17.2054 250.435 17.2054C250.877 17.2054 251.229 16.8536 251.229 16.4109V16.0988ZM259.578 8.46538C261.332 8.46538 262.756 9.8899 262.756 11.6436V11.9557C262.756 12.3927 262.399 12.7503 261.962 12.7503C261.525 12.7503 261.167 12.3927 261.167 11.9557V11.6436C261.167 10.7639 260.458 10.0545 259.578 10.0545C258.704 10.0545 257.995 10.7639 257.995 11.6436C257.995 11.6776 257.995 11.706 257.989 11.7401V18C257.989 18.437 257.632 18.7946 257.195 18.7946C256.758 18.7946 256.4 18.437 256.4 18V9.39614C256.4 8.95914 256.758 8.60159 257.195 8.60159C257.478 8.60159 257.722 8.74915 257.864 8.97049C258.358 8.65267 258.948 8.46538 259.578 8.46538ZM265.714 4.69126C265.714 4.084 266.202 3.59591 266.804 3.59591C267.179 3.59591 267.513 3.78888 267.712 4.084C267.791 4.1975 267.899 4.40749 267.899 4.69126C267.899 5.29285 267.411 5.78661 266.804 5.78661C266.202 5.78661 265.714 5.29852 265.714 4.69126ZM267.598 18C267.598 18.437 267.241 18.7946 266.804 18.7946C266.367 18.7946 266.009 18.437 266.009 18V9.39614C266.009 8.95914 266.367 8.60159 266.804 8.60159C267.241 8.60159 267.598 8.95914 267.598 9.39614V18ZM274.344 18.9308C273.952 18.9308 273.317 18.8513 272.647 18.403C272.511 18.6413 272.255 18.8002 271.96 18.8002C271.523 18.8002 271.166 18.4427 271.166 18.0057V3.69807C271.166 3.26107 271.523 2.90352 271.96 2.90352C272.397 2.90352 272.755 3.26107 272.755 3.69807V8.94211C273.22 8.64132 273.754 8.46538 274.344 8.46538C276.449 8.46538 278.118 10.7866 278.118 13.6981C278.118 16.6095 276.449 18.9308 274.344 18.9308ZM272.755 16.1839C273.095 16.7968 273.634 17.3417 274.344 17.3417C275.49 17.3417 276.529 15.7185 276.529 13.6981C276.529 11.6833 275.49 10.0545 274.344 10.0545C273.805 10.0545 273.209 10.4291 272.755 11.2577V16.1839ZM288.64 18C288.64 18.437 288.282 18.7946 287.845 18.7946C287.522 18.7946 287.244 18.6016 287.119 18.3292C286.562 18.7094 285.893 18.9308 285.166 18.9308C283.248 18.9308 281.693 17.3757 281.693 15.4574V9.39614C281.693 8.95914 282.051 8.60159 282.488 8.60159C282.925 8.60159 283.282 8.95914 283.282 9.39614V15.4574C283.282 16.5017 284.122 17.3417 285.166 17.3417C286.211 17.3417 287.045 16.5017 287.045 15.4574L287.051 9.39614C287.051 8.95914 287.408 8.60159 287.845 8.60159C288.282 8.60159 288.64 8.95914 288.64 9.39614V18ZM297.186 16.0988C297.186 15.6617 297.544 15.3042 297.981 15.3042C298.418 15.3042 298.775 15.6617 298.775 16.0988V16.4109C298.775 17.7276 297.708 18.7946 296.392 18.7946C295.075 18.7946 294.008 17.7276 294.008 16.4109V10.1964L292.419 10.1907C291.982 10.1907 291.624 9.83314 291.624 9.39614C291.624 8.95914 291.982 8.60159 292.419 8.60159H294.008V6.87628C294.008 6.43927 294.366 6.08172 294.803 6.08172C295.24 6.08172 295.597 6.43927 295.597 6.87628V8.59591L297.981 8.60159C298.418 8.60159 298.775 8.95914 298.775 9.39614C298.775 9.83314 298.418 10.1907 297.981 10.1907H295.597V16.4109C295.597 16.8536 295.949 17.2054 296.392 17.2054C296.834 17.2054 297.186 16.8536 297.186 16.4109V16.0988ZM303.946 13.8229C303.969 15.7866 305.013 17.3417 306.131 17.3417C307.022 17.3417 307.8 16.5528 308.14 15.3269C308.231 14.9921 308.543 14.748 308.906 14.748C309.343 14.748 309.701 15.1056 309.701 15.5426C309.701 15.6163 309.69 15.6901 309.673 15.7582C309.587 16.0704 309.162 17.5687 307.851 18.4143C307.34 18.7435 306.75 18.9308 306.131 18.9308C304.037 18.9308 302.357 16.6322 302.357 13.7548C302.357 13.2157 302.408 12.0919 302.93 10.9228C303.22 10.2758 303.617 9.70829 304.111 9.27128C304.667 8.7832 305.359 8.46538 306.131 8.46538C307.539 8.46538 308.804 9.521 309.463 11.3825C309.536 11.5982 309.701 12.109 309.701 12.6197C309.701 12.756 309.695 13.1135 309.48 13.42C309.423 13.4994 309.343 13.5846 309.241 13.6583C309.088 13.7662 308.895 13.8229 308.713 13.8229H303.946ZM308.061 12.2338C307.902 11.5414 307.232 10.0545 306.131 10.0545C305.808 10.0545 305.479 10.1793 305.155 10.4631C304.786 10.7866 304.383 11.3655 304.145 12.2338H308.061Z" fill="black" fill-opacity="0.5"/>
<path d="M220 26H825" stroke="black" stroke-opacity="0.5" stroke-width="1.5" stroke-linecap="round"/>
<path d="M221.5 161H315.5" stroke="black" stroke-opacity="0.5" stroke-width="1.5" stroke-linecap="round"/>
<path d="M231.635 183C231.635 183.437 231.277 183.795 230.84 183.795H230.244C229.96 183.795 229.694 183.641 229.552 183.392L222.384 170.667V183C222.384 183.437 222.026 183.795 221.589 183.795C221.152 183.795 220.795 183.437 220.795 183V168.698C220.795 168.261 221.152 167.904 221.589 167.904H222.185C222.469 167.904 222.736 168.057 222.877 168.306L230.045 181.031V168.698C230.045 168.261 230.403 167.904 230.84 167.904C231.277 167.904 231.635 168.261 231.635 168.698V183ZM240.572 176.757C240.572 175.906 239.891 175.054 238.727 175.054C237.536 175.054 237.172 175.531 237.013 175.798C236.917 175.963 236.837 176.167 236.781 176.428C236.701 176.785 236.383 177.052 236.003 177.052C235.566 177.052 235.209 176.695 235.209 176.258C235.209 176.201 235.214 176.144 235.226 176.087C235.538 174.686 236.52 173.465 238.727 173.465C240.742 173.465 242.161 174.998 242.161 176.757V178.034V178.085V181.411C242.161 181.825 242.223 182.075 242.28 182.205C242.297 182.245 242.331 182.308 242.365 182.342C242.666 182.336 243.035 182.285 243.035 182.285C243.063 182.279 243.103 182.274 243.154 182.274C243.591 182.274 243.949 182.631 243.949 183.068C243.949 183.465 243.654 183.795 243.273 183.851C243.251 183.857 242.802 183.931 242.331 183.931C242.099 183.931 241.514 183.863 241.06 183.255C240.81 183.426 240.39 183.658 239.755 183.8C239.42 183.874 239.091 183.908 238.784 183.908C238.239 183.908 237.655 183.823 237.104 183.624C236.525 183.414 235.691 182.966 235.35 182.041C235.254 181.785 235.209 181.502 235.209 181.212C235.209 180.543 235.368 179.396 236.593 178.528C237.155 178.131 237.865 177.841 238.761 177.603C239.261 177.467 239.862 177.376 240.572 177.325V176.757ZM236.798 181.212C236.798 181.456 236.889 181.621 237.019 181.757C237.15 181.893 237.365 182.03 237.643 182.132C237.99 182.257 238.41 182.319 238.784 182.319C239.074 182.319 239.448 182.262 239.76 182.149C240.555 181.854 240.566 181.388 240.566 181.212C240.566 181.212 240.572 180.054 240.572 178.919C240.146 178.953 239.613 179.016 239.17 179.135C237.303 179.635 236.798 180.27 236.798 181.212ZM249.998 175.054C249.18 175.054 248.522 175.906 248.522 176.939L248.516 183C248.516 183.437 248.159 183.795 247.722 183.795C247.285 183.795 246.927 183.437 246.927 183V174.396C246.927 173.959 247.285 173.602 247.722 173.602C248.006 173.602 248.255 173.755 248.397 173.976C248.732 173.743 249.283 173.465 249.998 173.465C250.588 173.465 251.138 173.653 251.598 173.97C251.854 174.146 252.086 174.362 252.279 174.606C252.472 174.362 252.705 174.146 252.96 173.97C253.42 173.653 253.97 173.465 254.561 173.465C256.252 173.465 257.625 175.003 257.625 176.939L257.62 183C257.62 183.437 257.262 183.795 256.825 183.795C256.388 183.795 256.031 183.437 256.031 183L256.036 176.939C256.036 175.906 255.378 175.054 254.561 175.054C253.743 175.054 253.074 175.906 253.074 176.939L253.068 183C253.068 183.437 252.711 183.795 252.274 183.795C251.837 183.795 251.479 183.437 251.479 183V176.939C251.479 175.906 250.815 175.054 249.998 175.054ZM262.794 178.823C262.817 180.787 263.861 182.342 264.979 182.342C265.87 182.342 266.647 181.553 266.988 180.327C267.079 179.992 267.391 179.748 267.754 179.748C268.191 179.748 268.549 180.106 268.549 180.543C268.549 180.616 268.537 180.69 268.52 180.758C268.435 181.07 268.009 182.569 266.698 183.414C266.188 183.743 265.597 183.931 264.979 183.931C262.885 183.931 261.205 181.632 261.205 178.755C261.205 178.216 261.256 177.092 261.778 175.923C262.067 175.276 262.465 174.708 262.958 174.271C263.515 173.783 264.207 173.465 264.979 173.465C266.386 173.465 267.652 174.521 268.31 176.383C268.384 176.598 268.549 177.109 268.549 177.62C268.549 177.756 268.543 178.114 268.327 178.42C268.271 178.499 268.191 178.585 268.089 178.658C267.936 178.766 267.743 178.823 267.561 178.823H262.794ZM266.908 177.234C266.75 176.541 266.08 175.054 264.979 175.054C264.655 175.054 264.326 175.179 264.003 175.463C263.634 175.787 263.231 176.365 262.992 177.234H266.908Z" fill="black" fill-opacity="0.5"/>
<path d="M401 161H790" stroke="black" stroke-opacity="0.5" stroke-width="1.5" stroke-linecap="round"/>
<path d="M401.795 168.698C401.795 168.261 402.152 167.904 402.589 167.904C402.941 167.904 403.236 168.131 403.344 168.448L407.674 181.388L411.999 168.448C412.107 168.131 412.402 167.904 412.754 167.904C413.191 167.904 413.548 168.261 413.548 168.698C413.548 168.789 413.537 168.868 413.509 168.948L408.724 183.255C408.616 183.579 408.31 183.795 407.969 183.795H407.373C407.033 183.795 406.726 183.573 406.619 183.25L401.834 168.948C401.806 168.868 401.795 168.789 401.795 168.698ZM422.49 176.757C422.49 175.906 421.809 175.054 420.645 175.054C419.453 175.054 419.09 175.531 418.931 175.798C418.835 175.963 418.755 176.167 418.699 176.428C418.619 176.785 418.301 177.052 417.921 177.052C417.484 177.052 417.127 176.695 417.127 176.258C417.127 176.201 417.132 176.144 417.144 176.087C417.456 174.686 418.438 173.465 420.645 173.465C422.66 173.465 424.079 174.998 424.079 176.757V178.034V178.085V181.411C424.079 181.825 424.141 182.075 424.198 182.205C424.215 182.245 424.249 182.308 424.283 182.342C424.584 182.336 424.953 182.285 424.953 182.285C424.981 182.279 425.021 182.274 425.072 182.274C425.509 182.274 425.867 182.631 425.867 183.068C425.867 183.465 425.572 183.795 425.191 183.851C425.169 183.857 424.72 183.931 424.249 183.931C424.016 183.931 423.432 183.863 422.978 183.255C422.728 183.426 422.308 183.658 421.673 183.8C421.338 183.874 421.009 183.908 420.702 183.908C420.157 183.908 419.573 183.823 419.022 183.624C418.443 183.414 417.609 182.966 417.268 182.041C417.172 181.785 417.127 181.502 417.127 181.212C417.127 180.543 417.285 179.396 418.511 178.528C419.073 178.131 419.783 177.841 420.679 177.603C421.179 177.467 421.78 177.376 422.49 177.325V176.757ZM418.716 181.212C418.716 181.456 418.806 181.621 418.937 181.757C419.068 181.893 419.283 182.03 419.561 182.132C419.908 182.257 420.327 182.319 420.702 182.319C420.992 182.319 421.366 182.262 421.678 182.149C422.473 181.854 422.484 181.388 422.484 181.212C422.484 181.212 422.49 180.054 422.49 178.919C422.064 178.953 421.531 179.016 421.088 179.135C419.221 179.635 418.716 180.27 418.716 181.212ZM429.646 167.904C430.088 167.904 430.44 168.267 430.44 168.698V183C430.44 183.431 430.088 183.795 429.646 183.795H429.64C429.203 183.795 428.845 183.443 428.845 183V168.698C428.845 168.261 429.203 167.904 429.64 167.904H429.646ZM440.948 183C440.948 183.437 440.591 183.795 440.154 183.795C439.83 183.795 439.552 183.602 439.427 183.329C438.871 183.709 438.201 183.931 437.475 183.931C435.557 183.931 434.002 182.376 434.002 180.457V174.396C434.002 173.959 434.359 173.602 434.796 173.602C435.233 173.602 435.591 173.959 435.591 174.396V180.457C435.591 181.502 436.431 182.342 437.475 182.342C438.519 182.342 439.353 181.502 439.353 180.457L439.359 174.396C439.359 173.959 439.717 173.602 440.154 173.602C440.591 173.602 440.948 173.959 440.948 174.396V183ZM446.118 178.823C446.141 180.787 447.185 182.342 448.303 182.342C449.194 182.342 449.972 181.553 450.312 180.327C450.403 179.992 450.715 179.748 451.078 179.748C451.515 179.748 451.873 180.106 451.873 180.543C451.873 180.616 451.862 180.69 451.844 180.758C451.759 181.07 451.334 182.569 450.023 183.414C449.512 183.743 448.922 183.931 448.303 183.931C446.209 183.931 444.529 181.632 444.529 178.755C444.529 178.216 444.58 177.092 445.102 175.923C445.392 175.276 445.789 174.708 446.283 174.271C446.839 173.783 447.531 173.465 448.303 173.465C449.711 173.465 450.976 174.521 451.634 176.383C451.708 176.598 451.873 177.109 451.873 177.62C451.873 177.756 451.867 178.114 451.652 178.42C451.595 178.499 451.515 178.585 451.413 178.658C451.26 178.766 451.067 178.823 450.885 178.823H446.118ZM450.233 177.234C450.074 176.541 449.404 175.054 448.303 175.054C447.98 175.054 447.65 175.179 447.327 175.463C446.958 175.787 446.555 176.365 446.317 177.234H450.233Z" fill="black" fill-opacity="0.5"/>
</svg>
