<svg fill="none" height="166" viewBox="0 0 683 166" width="683" xmlns="http://www.w3.org/2000/svg"><path d="m24.9141 69.8594-16.12504 8.9297v.4218l16.12504 8.9297v4.4766l-20.15629-11.8828v-3.4688l20.15629-11.8828zm239.6949 5.7422h-24.797v-3.8672h24.797zm0 10.6875h-24.797v-3.8672h24.797zm392.93-16.4297v-4.4766l20.156 11.8828v3.4688l-20.156 11.8828v-4.4766l16.102-8.9297v-.4218z" fill="#f0f6fb"/><path d="m44.9531 62.3359c-1.875 0-3.3047-1.4062-3.3047-3.2812 0-1.8516 1.4297-3.2578 3.3047-3.2578s3.3047 1.4062 3.3047 3.2578c0 1.875-1.4297 3.2812-3.3047 3.2812zm10.6641 31.6641h-21.0703v-3.3047h8.7187v-18.8203h-8.6484v-3.3047h12.5859v22.125h8.4141zm30.8203-18.7266v18.7266h-3.5859v-17.5547c0-3.0937-1.125-4.7109-3.2578-4.7109-2.2266 0-3.586 1.9453-3.586 5.1094v17.1562h-3.5625v-17.5781c0-3.0703-1.125-4.6875-3.2812-4.6875-2.25 0-3.6563 1.9453-3.6563 5.1094v17.1562h-3.5859v-25.4297h3.5625v3.5859h.4218c.6329-2.5546 2.461-4.0546 4.8516-4.0546s4.0781 1.4765 4.6172 3.9843h.4219c.6562-2.4375 2.6953-3.9843 5.25-3.9843 3.539 0 5.3906 2.4609 5.3906 7.1718zm16.6645 28.2656c-5.8832 0-9.8208-2.578-10.3364-6.7968h3.9375c.5157 2.1094 3.0703 3.4918 6.4689 3.4918 4.453 0 6.914-2.2496 6.914-6.3278v-3.9609h-.422c-1.125 2.6719-3.937 4.2891-7.641 4.2891-5.8824 0-9.7496-4.2422-9.7496-10.7578v-4.5704c0-6.539 3.8907-10.7578 9.8436-10.7578 3.68 0 6.469 1.6172 7.571 4.3594h.445v-3.9375h3.937v25.4297c0 5.9766-4.078 9.539-10.968 9.539zm-6.8208-20.6249c0 4.664 2.7188 7.7109 6.9378 7.7109 4.195 0 6.89-3.0234 6.89-7.7109v-3.4922c0-4.6875-2.695-7.6875-6.89-7.6875-4.219 0-6.9378 3.0234-6.9378 7.6875z" fill="#7ee687"/><path d="m153.938 75.4375c0-4.4063 3.75-7.3594 9.351-7.3594 5.297 0 8.883 2.6485 9.352 6.8907h-3.844c-.469-2.2266-2.602-3.586-5.578-3.586-3.235 0-5.321 1.5-5.321 3.8203 0 1.9453 1.313 3.0469 4.5 3.75l3.586.8203c4.946 1.125 7.196 3.2813 7.196 6.961 0 4.6875-3.914 7.7344-9.938 7.7344-5.765 0-9.586-2.6954-10.031-7.0547h4.055c.586 2.3437 2.836 3.7031 6.117 3.7031 3.469 0 5.672-1.5703 5.672-4.0078 0-2.0156-1.243-3.0938-4.477-3.8203l-3.773-.8672c-4.594-1.0547-6.867-3.375-6.867-6.9844zm37.921 7.1719v8.2031h7.875v3.1875h-16.898v-3.1875h5.133v-19.0547h-5.649v-3.1875h9.492v6.4922h.516c.938-4.7109 4.102-7.1484 9-7.1484 1.453 0 2.836.2109 3.68.5625v4.4765c-1.172-.4219-2.813-.7031-4.196-.7031-5.624 0-8.953 3.8906-8.953 10.3594zm41.274-6.1172h-3.938c-.492-2.9766-2.976-4.8516-6.257-4.8516-4.43 0-6.891 3.0235-6.891 8.4844v2.2969c0 5.4609 2.461 8.4609 6.891 8.4609 3.281 0 5.765-1.8516 6.257-4.7578h3.938c-.633 5.1797-4.5 8.3438-10.125 8.3438-6.914 0-10.946-4.2422-10.946-11.5313v-3.3281c0-7.2891 4.032-11.5313 10.946-11.5313 5.625 0 9.469 3.1875 10.125 8.4141z" fill="#79c0ff"/><path d="m279.445 75.2734h-4.289v-15.0937h4.289zm9.164 0h-4.312v-15.0937h4.312zm29.813 12.1641h3.867c-.773 4.1953-4.805 7.0313-10.148 7.0313-6.985 0-11.039-4.1954-11.039-11.4376v-3.8203c0-6.7031 4.289-11.1093 10.757-11.1093 6.61 0 10.5 4.3828 10.5 11.7422v2.4843h-17.32v1.0313c0 4.664 2.766 7.664 7.102 7.664 3.211 0 5.578-1.3593 6.281-3.5859zm-6.586-15.9141c-4.242 0-6.797 2.9063-6.797 7.7813h13.383c0-4.8516-2.484-7.7813-6.586-7.7813zm29.484 12.6797h-.304l-6.422 9.7969h-4.406l8.718-12.7266-8.789-12.7031h4.711l6.328 9.6328h.328l6.305-9.6328h4.477l-8.696 12.5391 8.766 12.8906h-4.617zm27 10.2422c-4.851 0-8.086-3.0469-8.086-7.6641 0-4.5 3.235-7.1718 9.024-7.4765l6.984-.3516v-2.2969c0-3.1874-1.945-4.9453-5.484-4.9453-2.93 0-4.992 1.2422-5.649 3.4219h-3.914c.469-4.0781 4.407-6.8672 9.61-6.8672 5.976 0 9.398 3.0469 9.398 8.3438v17.414h-3.797v-3.8203h-.398c-1.219 2.7188-3.985 4.2422-7.688 4.2422zm1.149-3.4922c3.843 0 6.773-2.5547 6.773-5.9531v-3l-6.539.3047c-3.562.1641-5.437 1.6875-5.437 4.3359 0 2.6719 1.992 4.3125 5.203 4.3125zm43.359-15.6797v18.7266h-3.586v-17.5547c0-3.0937-1.125-4.7109-3.258-4.7109-2.226 0-3.586 1.9453-3.586 5.1094v17.1562h-3.562v-17.5781c0-3.0703-1.125-4.6875-3.281-4.6875-2.25 0-3.657 1.9453-3.657 5.1094v17.1562h-3.586v-25.4297h3.563v3.5859h.422c.633-2.5546 2.461-4.0546 4.851-4.0546 2.391 0 4.079 1.4765 4.618 3.9843h.422c.656-2.4375 2.695-3.9843 5.25-3.9843 3.539 0 5.39 2.4609 5.39 7.1718zm19.008-7.125c5.883 0 9.726 4.2422 9.726 10.7813v4.7344c0 6.5156-3.843 10.7578-9.726 10.7578-3.68 0-6.375-1.5703-7.477-4.3594h-.445v12.5155h-4.055v-34.0077h3.938v3.8906h.422c1.336-2.8125 3.984-4.3125 7.617-4.3125zm-1.148 3.6563c-4.196 0-6.868 3-6.868 7.6875v3.6562c0 4.711 2.672 7.711 6.868 7.711 4.195 0 6.867-3.0235 6.867-7.711v-3.6562c0-4.6875-2.672-7.6875-6.867-7.6875zm40.335 22.1953h-21.07v-3.3047h8.695v-28.8047h-8.625v-3.3047h12.61v32.1094h8.39zm25.43-6.5625h3.867c-.773 4.1953-4.804 7.0313-10.148 7.0313-6.984 0-11.039-4.1954-11.039-11.4376v-3.8203c0-6.7031 4.289-11.1093 10.758-11.1093 6.609 0 10.5 4.3828 10.5 11.7422v2.4843h-17.321v1.0313c0 4.664 2.766 7.664 7.102 7.664 3.211 0 5.578-1.3593 6.281-3.5859zm-6.586-15.9141c-4.242 0-6.797 2.9063-6.797 7.7813h13.383c0-4.8516-2.484-7.7813-6.586-7.7813zm29.391 22.6172c-2.32 0-4.242-1.9453-4.242-4.3359 0-2.3672 1.922-4.3125 4.242-4.3125s4.242 1.9453 4.242 4.3125c0 2.3906-1.922 4.3359-4.242 4.3359zm31.265-25.9922c5.883 0 9.727 4.2422 9.727 10.7813v4.7344c0 6.5156-3.844 10.7578-9.727 10.7578-3.679 0-6.375-1.5703-7.476-4.3594h-.445v12.5155h-4.055v-34.0077h3.937v3.8906h.422c1.336-2.8125 3.985-4.3125 7.617-4.3125zm-1.148 3.6563c-4.195 0-6.867 3-6.867 7.6875v3.6562c0 4.711 2.672 7.711 6.867 7.711s6.867-3.0235 6.867-7.711v-3.6562c0-4.6875-2.672-7.6875-6.867-7.6875zm18.82 22.1953v-25.4297h3.821v4.4766h.328c1.359-3.1641 4.265-4.9453 8.133-4.9453 5.531 0 8.531 3.3046 8.531 9.3984v16.5h-3.985v-15.4922c0-4.5937-1.875-6.75-5.835-6.75-4.196 0-7.008 2.9297-7.008 7.2656v14.9766zm39.328 9.539c-5.882 0-9.82-2.578-10.335-6.7968h3.937c.516 2.1094 3.07 3.4918 6.469 3.4918 4.453 0 6.914-2.2496 6.914-6.3278v-3.9609h-.422c-1.125 2.6719-3.938 4.2891-7.641 4.2891-5.883 0-9.75-4.2422-9.75-10.7578v-4.5704c0-6.539 3.891-10.7578 9.844-10.7578 3.68 0 6.469 1.6172 7.57 4.3594h.446v-3.9375h3.937v25.4297c0 5.9766-4.078 9.539-10.969 9.539zm-6.82-20.6249c0 4.664 2.719 7.7109 6.938 7.7109 4.195 0 6.89-3.0234 6.89-7.7109v-3.4922c0-4.6875-2.695-7.6875-6.89-7.6875-4.219 0-6.938 3.0234-6.938 7.6875zm34.805-7.6407h-4.289v-15.0937h4.289zm9.164 0h-4.313v-15.0937h4.313z" fill="#a5d6ff"/><path d="m39.28 6.052h-5.236v-1.76h12.562v1.76h-5.236v13.948h-2.09zm16.3876 13.904c-.3227.1907-.77.286-1.342.286-.484 0-.8727-.132-1.166-.396-.2787-.2787-.418-.726-.418-1.342-.5133.616-1.1147 1.0633-1.804 1.342-.6747.264-1.408.396-2.2.396-.5133 0-1.0047-.0587-1.474-.176-.4547-.1173-.8507-.3007-1.188-.55s-.6087-.572-.814-.968c-.1907-.4107-.286-.902-.286-1.474 0-.6453.11-1.1733.33-1.584s.506-.7407.858-.99c.3667-.264.7773-.462 1.232-.594.4693-.132.946-.242 1.43-.33.5133-.1027.9973-.176 1.452-.22.4693-.0587.88-.132 1.232-.22.352-.1027.6307-.242.836-.418.2053-.1907.308-.462.308-.814 0-.4107-.0807-.7407-.242-.99-.1467-.2493-.3447-.44-.594-.572-.2347-.132-.506-.22-.814-.264-.2933-.044-.5867-.066-.88-.066-.792 0-1.452.154-1.98.462-.528.2933-.814.858-.858 1.694h-1.87c.0293-.704.176-1.298.44-1.782s.616-.87267 1.056-1.166c.44-.308.9387-.528 1.496-.66.572-.132 1.1807-.198 1.826-.198.5133 0 1.0193.03667 1.518.11.5133.07333.9753.22733 1.386.462.4107.22.7407.53533.99.946.2493.4107.374.946.374 1.606v5.852c0 .44.022.7627.066.968.0587.2053.2347.308.528.308.1613 0 .352-.0367.572-.11zm-3.036-5.83c-.2347.176-.5427.308-.924.396-.3813.0733-.7847.1393-1.21.198-.4107.044-.8287.1027-1.254.176-.4253.0587-.8067.1613-1.144.308s-.616.3593-.836.638c-.2053.264-.308.6307-.308 1.1 0 .308.0587.572.176.792.132.2053.2933.374.484.506.2053.132.44.2273.704.286s.5427.088.836.088c.616 0 1.144-.0807 1.584-.242.44-.176.7993-.3887 1.078-.638.2787-.264.484-.5427.616-.836.132-.308.198-.594.198-.858zm14.5884 4.906c0 1.8627-.4253 3.256-1.276 4.18s-2.1853 1.386-4.004 1.386c-.528 0-1.0707-.0587-1.628-.176-.5427-.1173-1.0413-.308-1.496-.572-.44-.264-.8067-.6087-1.1-1.034s-.4547-.946-.484-1.562h1.87c.0147.3373.1173.6233.308.858.2053.2347.4473.4253.726.572.2933.1467.6087.2493.946.308.3373.0733.66.11.968.11.616 0 1.1367-.11 1.562-.33.4253-.2053.7773-.4987 1.056-.88.2787-.3667.4767-.814.594-1.342.132-.528.198-1.1073.198-1.738v-.748h-.044c-.3227.704-.814 1.2247-1.474 1.562-.6453.3227-1.3347.484-2.068.484-.8507 0-1.5913-.154-2.222-.462s-1.1587-.7187-1.584-1.232c-.4253-.528-.748-1.1367-.968-1.826-.2053-.704-.308-1.4447-.308-2.222 0-.6747.088-1.364.264-2.068.176-.7187.4693-1.364.88-1.936.4107-.58667.9533-1.06333 1.628-1.43.6747-.38133 1.5033-.572 2.486-.572.7187 0 1.3787.16133 1.98.484.6013.308 1.0707.77733 1.408 1.408h.022v-1.628h1.76zm-5.236-.55c.616 0 1.1367-.1247 1.562-.374.44-.264.792-.6013 1.056-1.012.264-.4253.4547-.902.572-1.43.132-.528.198-1.056.198-1.584 0-.4987-.0587-.99-.176-1.474s-.308-.9167-.572-1.298c-.2493-.396-.5793-.7113-.99-.946s-.9093-.352-1.496-.352c-.6013 0-1.1147.1173-1.54.352-.4253.22-.7773.5207-1.056.902-.264.3813-.462.8213-.594 1.32-.1173.4987-.176 1.0193-.176 1.562 0 .5133.0513 1.0267.154 1.54s.2787.9827.528 1.408c.2493.4107.5793.748.99 1.012.4107.2493.924.374 1.54.374z" fill="#fff" fill-opacity=".333333"/><path d="m35.5 28h77" stroke="#fff" stroke-opacity=".333333" stroke-width="1.5"/><path d="m157.422 13.51h5.324l-2.618-7.326h-.044zm1.562-9.218h2.31l6.138 15.708h-2.31l-1.716-4.73h-6.644l-1.76 4.73h-2.134zm12.286 4.334h2.266v1.65h-2.266v7.062c0 .22.014.396.044.528.044.132.117.2347.22.308.102.0733.242.1247.418.154.19.0147.432.022.726.022h.858v1.65h-1.43c-.484 0-.902-.0293-1.254-.088-.338-.0733-.616-.198-.836-.374-.206-.176-.36-.4253-.462-.748-.103-.3227-.154-.748-.154-1.276v-7.238h-1.936v-1.65h1.936v-3.41h1.87zm6.939 0h2.266v1.65h-2.266v7.062c0 .22.015.396.044.528.044.132.117.2347.22.308s.242.1247.418.154c.191.0147.433.022.726.022h.858v1.65h-1.43c-.484 0-.902-.0293-1.254-.088-.337-.0733-.616-.198-.836-.374-.205-.176-.359-.4253-.462-.748s-.154-.748-.154-1.276v-7.238h-1.936v-1.65h1.936v-3.41h1.87zm4.278 0h1.76v2.398h.044c.454-.924 1.012-1.606 1.672-2.046s1.496-.64533 2.508-.616v1.98c-.748 0-1.386.1027-1.914.308s-.954.506-1.276.902c-.323.396-.558.88-.704 1.452-.147.5573-.22 1.2027-.22 1.936v5.06h-1.87zm9.372-2.046h-1.87v-2.288h1.87zm-1.87 2.046h1.87v11.374h-1.87zm4.833-4.334h1.87v5.874h.044c.308-.63067.792-1.08533 1.452-1.364.66-.29333 1.386-.44 2.178-.44.88 0 1.642.16133 2.288.484.66.32267 1.202.76267 1.628 1.32.44.5427.77 1.1733.99 1.892s.33 1.4813.33 2.288-.11 1.5693-.33 2.288c-.206.7187-.528 1.3493-.968 1.892-.426.528-.968.946-1.628 1.254-.646.308-1.401.462-2.266.462-.279 0-.594-.0293-.946-.088-.338-.0587-.675-.154-1.012-.286-.338-.132-.66-.308-.968-.528-.294-.2347-.543-.5207-.748-.858h-.044v1.518h-1.87zm8.8 9.922c0-.528-.074-1.0413-.22-1.54-.132-.5133-.345-.968-.638-1.364-.279-.396-.646-.7113-1.1-.946-.44-.2347-.961-.352-1.562-.352-.631 0-1.166.1247-1.606.374s-.8.5793-1.078.99c-.279.396-.484.8507-.616 1.364-.118.5133-.176 1.034-.176 1.562 0 .5573.066 1.1.198 1.628.132.5133.337.968.616 1.364.293.396.667.7187 1.122.968.454.2347 1.004.352 1.65.352.645 0 1.18-.1247 1.606-.374.44-.2493.792-.5793 1.056-.99s.454-.88.572-1.408c.117-.528.176-1.0707.176-1.628zm13.591 5.786h-1.76v-1.804h-.044c-.396.704-.902 1.2247-1.518 1.562-.616.3227-1.342.484-2.178.484-.748 0-1.372-.0953-1.87-.286-.499-.2053-.902-.4913-1.21-.858s-.528-.7993-.66-1.298c-.118-.5133-.176-1.078-.176-1.694v-7.48h1.87v7.7c0 .704.205 1.2613.616 1.672.41.4107.975.616 1.694.616.572 0 1.063-.088 1.474-.264.425-.176.777-.4253 1.056-.748.278-.3227.484-.6967.616-1.122.146-.44.22-.9167.22-1.43v-6.424h1.87zm5.404-11.374h2.266v1.65h-2.266v7.062c0 .22.015.396.044.528.044.132.118.2347.22.308.103.0733.242.1247.418.154.191.0147.433.022.726.022h.858v1.65h-1.43c-.484 0-.902-.0293-1.254-.088-.337-.0733-.616-.198-.836-.374-.205-.176-.359-.4253-.462-.748-.102-.3227-.154-.748-.154-1.276v-7.238h-1.936v-1.65h1.936v-3.41h1.87zm12.242 4.598c-.03-.44-.132-.858-.308-1.254-.162-.396-.389-.7333-.682-1.012-.279-.2933-.616-.5207-1.012-.682-.382-.176-.807-.264-1.276-.264-.484 0-.924.088-1.32.264-.382.1613-.712.3887-.99.682-.279.2933-.499.638-.66 1.034-.162.3813-.257.792-.286 1.232zm1.804 3.168c-.25 1.276-.8 2.2367-1.65 2.882-.851.6453-1.922.968-3.212.968-.91 0-1.702-.1467-2.376-.44-.66-.2933-1.218-.704-1.672-1.232-.455-.528-.8-1.1587-1.034-1.892-.22-.7333-.345-1.5327-.374-2.398 0-.8653.132-1.6573.396-2.376s.63-1.342 1.1-1.87c.484-.528 1.048-.93867 1.694-1.232.66-.29333 1.378-.44 2.156-.44 1.012 0 1.848.21267 2.508.638.674.41067 1.21.93867 1.606 1.584.41.6453.689 1.3493.836 2.112.161.7627.227 1.4887.198 2.178h-8.514c-.015.4987.044.9753.176 1.43.132.44.344.836.638 1.188.293.3373.667.6087 1.122.814.454.2053.99.308 1.606.308.792 0 1.437-.1833 1.936-.55.513-.3667.85-.924 1.012-1.672z" fill="#fff" fill-opacity=".333333"/><path d="m153 28h492" stroke="#fff" stroke-opacity=".333333" stroke-width="1.5"/><path d="m154.5 134h78" stroke="#fff" stroke-opacity=".333333" stroke-width="1.5"/><path d="m154.694 142.292h2.222l8.272 12.738h.044v-12.738h1.98v15.708h-2.288l-8.206-12.606h-.044v12.606h-1.98zm25.667 15.664c-.323.191-.77.286-1.342.286-.484 0-.873-.132-1.166-.396-.279-.279-.418-.726-.418-1.342-.513.616-1.115 1.063-1.804 1.342-.675.264-1.408.396-2.2.396-.513 0-1.005-.059-1.474-.176-.455-.117-.851-.301-1.188-.55s-.609-.572-.814-.968c-.191-.411-.286-.902-.286-1.474 0-.645.11-1.173.33-1.584s.506-.741.858-.99c.367-.264.777-.462 1.232-.594.469-.132.946-.242 1.43-.33.513-.103.997-.176 1.452-.22.469-.059.88-.132 1.232-.22.352-.103.631-.242.836-.418.205-.191.308-.462.308-.814 0-.411-.081-.741-.242-.99-.147-.249-.345-.44-.594-.572-.235-.132-.506-.22-.814-.264-.293-.044-.587-.066-.88-.066-.792 0-1.452.154-1.98.462-.528.293-.814.858-.858 1.694h-1.87c.029-.704.176-1.298.44-1.782s.616-.873 1.056-1.166c.44-.308.939-.528 1.496-.66.572-.132 1.181-.198 1.826-.198.513 0 1.019.037 1.518.11.513.073.975.227 1.386.462.411.22.741.535.99.946s.374.946.374 1.606v5.852c0 .44.022.763.066.968.059.205.235.308.528.308.161 0 .352-.037.572-.11zm-3.036-5.83c-.235.176-.543.308-.924.396-.381.073-.785.139-1.21.198-.411.044-.829.103-1.254.176-.425.059-.807.161-1.144.308s-.616.359-.836.638c-.205.264-.308.631-.308 1.1 0 .308.059.572.176.792.132.205.293.374.484.506.205.132.44.227.704.286s.543.088.836.088c.616 0 1.144-.081 1.584-.242.44-.176.799-.389 1.078-.638.279-.264.484-.543.616-.836.132-.308.198-.594.198-.858zm4.776-5.5h1.76v1.672h.044c.851-1.291 2.076-1.936 3.674-1.936.704 0 1.342.147 1.914.44s.976.792 1.21 1.496c.382-.616.88-1.093 1.496-1.43.631-.337 1.32-.506 2.068-.506.572 0 1.086.066 1.54.198.47.117.866.308 1.188.572.338.264.594.609.77 1.034.191.411.286.909.286 1.496v8.338h-1.87v-7.458c0-.352-.029-.682-.088-.99-.058-.308-.168-.572-.33-.792-.161-.235-.388-.418-.682-.55-.278-.132-.645-.198-1.1-.198-.924 0-1.65.264-2.178.792s-.792 1.232-.792 2.112v7.084h-1.87v-7.458c0-.367-.036-.704-.11-1.012-.058-.308-.168-.572-.33-.792-.161-.235-.381-.411-.66-.528-.264-.132-.608-.198-1.034-.198-.542 0-1.012.11-1.408.33-.381.22-.696.484-.946.792-.234.308-.41.631-.528.968-.102.323-.154.594-.154.814v7.084h-1.87zm26.654 4.598c-.029-.44-.132-.858-.308-1.254-.161-.396-.388-.733-.682-1.012-.278-.293-.616-.521-1.012-.682-.381-.176-.806-.264-1.276-.264-.484 0-.924.088-1.32.264-.381.161-.711.389-.99.682-.278.293-.498.638-.66 1.034-.161.381-.256.792-.286 1.232zm1.804 3.168c-.249 1.276-.799 2.237-1.65 2.882-.85.645-1.921.968-3.212.968-.909 0-1.701-.147-2.376-.44-.66-.293-1.217-.704-1.672-1.232-.454-.528-.799-1.159-1.034-1.892-.22-.733-.344-1.533-.374-2.398 0-.865.132-1.657.396-2.376s.631-1.342 1.1-1.87c.484-.528 1.049-.939 1.694-1.232.66-.293 1.379-.44 2.156-.44 1.012 0 1.848.213 2.508.638.675.411 1.21.939 1.606 1.584.411.645.69 1.349.836 2.112.162.763.228 1.489.198 2.178h-8.514c-.014.499.044.975.176 1.43.132.44.345.836.638 1.188.294.337.668.609 1.122.814.455.205.99.308 1.606.308.792 0 1.438-.183 1.936-.55.514-.367.851-.924 1.012-1.672z" fill="#fff" fill-opacity=".333333"/><path d="m301 134h317" stroke="#fff" stroke-opacity=".333333" stroke-width="1.5"/><path d="m308.898 158h-2.376l-5.522-15.708h2.244l4.488 13.618h.044l4.532-13.618h2.178zm15.832-.044c-.323.191-.77.286-1.342.286-.484 0-.873-.132-1.166-.396-.279-.279-.418-.726-.418-1.342-.513.616-1.115 1.063-1.804 1.342-.675.264-1.408.396-2.2.396-.513 0-1.005-.059-1.474-.176-.455-.117-.851-.301-1.188-.55s-.609-.572-.814-.968c-.191-.411-.286-.902-.286-1.474 0-.645.11-1.173.33-1.584s.506-.741.858-.99c.367-.264.777-.462 1.232-.594.469-.132.946-.242 1.43-.33.513-.103.997-.176 1.452-.22.469-.059.88-.132 1.232-.22.352-.103.631-.242.836-.418.205-.191.308-.462.308-.814 0-.411-.081-.741-.242-.99-.147-.249-.345-.44-.594-.572-.235-.132-.506-.22-.814-.264-.293-.044-.587-.066-.88-.066-.792 0-1.452.154-1.98.462-.528.293-.814.858-.858 1.694h-1.87c.029-.704.176-1.298.44-1.782s.616-.873 1.056-1.166c.44-.308.939-.528 1.496-.66.572-.132 1.181-.198 1.826-.198.513 0 1.019.037 1.518.11.513.073.975.227 1.386.462.411.22.741.535.99.946s.374.946.374 1.606v5.852c0 .44.022.763.066.968.059.205.235.308.528.308.161 0 .352-.037.572-.11zm-3.036-5.83c-.235.176-.543.308-.924.396-.381.073-.785.139-1.21.198-.411.044-.829.103-1.254.176-.425.059-.807.161-1.144.308s-.616.359-.836.638c-.205.264-.308.631-.308 1.1 0 .308.059.572.176.792.132.205.293.374.484.506.205.132.44.227.704.286s.543.088.836.088c.616 0 1.144-.081 1.584-.242.44-.176.799-.389 1.078-.638.279-.264.484-.543.616-.836.132-.308.198-.594.198-.858zm4.887-9.834h1.87v15.708h-1.87zm14.182 15.708h-1.76v-1.804h-.044c-.396.704-.902 1.225-1.518 1.562-.616.323-1.342.484-2.178.484-.748 0-1.371-.095-1.87-.286-.498-.205-.902-.491-1.21-.858s-.528-.799-.66-1.298c-.117-.513-.176-1.078-.176-1.694v-7.48h1.87v7.7c0 .704.206 1.261.616 1.672.411.411.976.616 1.694.616.572 0 1.064-.088 1.474-.264.426-.176.778-.425 1.056-.748.279-.323.484-.697.616-1.122.147-.44.22-.917.22-1.43v-6.424h1.87zm10.707-6.776c-.029-.44-.132-.858-.308-1.254-.161-.396-.389-.733-.682-1.012-.279-.293-.616-.521-1.012-.682-.381-.176-.807-.264-1.276-.264-.484 0-.924.088-1.32.264-.381.161-.711.389-.99.682s-.499.638-.66 1.034c-.161.381-.257.792-.286 1.232zm1.804 3.168c-.249 1.276-.799 2.237-1.65 2.882s-1.921.968-3.212.968c-.909 0-1.701-.147-2.376-.44-.66-.293-1.217-.704-1.672-1.232s-.799-1.159-1.034-1.892c-.22-.733-.345-1.533-.374-2.398 0-.865.132-1.657.396-2.376s.631-1.342 1.1-1.87c.484-.528 1.049-.939 1.694-1.232.66-.293 1.379-.44 2.156-.44 1.012 0 1.848.213 2.508.638.675.411 1.21.939 1.606 1.584.411.645.689 1.349.836 2.112.161.763.227 1.489.198 2.178h-8.514c-.015.499.044.975.176 1.43.132.44.345.836.638 1.188.293.337.667.609 1.122.814s.99.308 1.606.308c.792 0 1.437-.183 1.936-.55.513-.367.851-.924 1.012-1.672z" fill="#fff" fill-opacity=".333333"/></svg>