<svg fill="none" height="532" viewBox="0 0 470 532" width="470" xmlns="http://www.w3.org/2000/svg"><rect fill="#1a1919" height="532" rx="4" width="470"/><path d="m28.8808 23.3949-5.7479 3.183v.1504l5.7479 3.1831v1.5957l-7.1848-4.2357v-1.2365l7.1848-4.2357zm6.1573-3.4504h1.6625l-.142 8.3043h-1.3868zm.8271 12.2142c-.635 0-1.1446-.5263-1.1446-1.1863s.5096-1.1863 1.1446-1.1863c.6349 0 1.1445.5263 1.1445 1.1863s-.5096 1.1863-1.1445 1.1863zm10.0087-.0083c-2.097 0-3.4672-1.5122-3.4672-3.8431v-1.6876c0-2.3225 1.3702-3.8347 3.4672-3.8347 1.3116 0 2.2807.5597 2.6734 1.5539h.1504v-4.9625h1.4453v12.6236h-1.3952v-1.3868h-.1587c-.4679 1.0025-1.4203 1.5372-2.7152 1.5372zm.4177-1.295c1.4871 0 2.4479-1.0693 2.4479-2.7486v-1.3033c0-1.6709-.9608-2.7403-2.4479-2.7403-1.4955 0-2.4562 1.0694-2.4562 2.7403v1.3033c0 1.6709.9607 2.7486 2.4562 2.7486zm10.7272 1.3117c-2.3978 0-3.9267-1.5623-3.9267-4.0102v-1.3701c0-2.4479 1.5289-4.0102 3.9267-4.0102 2.3977 0 3.9266 1.5623 3.9266 4.0102v1.3701c0 2.4479-1.5289 4.0102-3.9266 4.0102zm0-8.1373c-1.554 0-2.5231 1.1028-2.5231 2.8823v1.1112c0 1.7878.9691 2.8823 2.5231 2.8823 1.5539 0 2.523-1.0945 2.523-2.8823v-1.1112c0-1.7795-.9691-2.8823-2.523-2.8823zm14.353 1.7294h-1.4036c-.1754-1.061-1.061-1.7294-2.2306-1.7294-1.579 0-2.4562 1.0777-2.4562 3.0243v.8188c0 1.9466.8772 3.016 2.4562 3.016 1.1696 0 2.0552-.6601 2.2306-1.696h1.4036c-.2256 1.8463-1.6041 2.9742-3.6092 2.9742-2.4645 0-3.9015-1.5122-3.9015-4.1104v-1.1864c0-2.5982 1.437-4.1104 3.9015-4.1104 2.0051 0 3.3753 1.1362 3.6092 2.9993zm5.255-5.255h1.4035v2.4562h3.676v1.2114h-3.6593v5.113c0 .9858.6934 1.5205 1.9717 1.5205.5096 0 1.4202-.0251 1.6625-.0501v1.203c-.2255.0418-1.3283.0836-1.7628.0836-2.2473 0-3.2916-.8522-3.2916-2.7403v-5.1297h-2.4145v-1.2114h2.4145zm9.5826 14.7206c-.2089 0-.4846-.0083-.6099-.025v-1.2448c.1086.025.3676.0334.5012.0334.8522 0 1.3201-.3843 1.696-1.437l.1587-.4929-3.3334-9.1231h1.5456l2.5397 7.5859h.1087l2.5314-7.5859h1.5121l-3.417 9.3988c-.7936 2.2306-1.5539 2.8906-3.2331 2.8906zm13.6846-12.4398c2.097 0 3.467 1.5122 3.467 3.8431v1.6876c0 2.3225-1.37 3.8347-3.467 3.8347-1.3116 0-2.2724-.5598-2.6651-1.554h-.1587v4.4613h-1.4453v-12.1223h1.4035v1.3868h.1504c.4762-1.0025 1.4203-1.5372 2.7152-1.5372zm-.4094 1.3033c-1.4954 0-2.4478 1.0694-2.4478 2.7403v1.3033c0 1.6792.9524 2.7486 2.4478 2.7486s2.4484-1.0777 2.4484-2.7486v-1.3033c0-1.6709-.953-2.7403-2.4484-2.7403zm12.8664 5.5724h1.378c-.276 1.4955-1.713 2.5064-3.617 2.5064-2.49 0-3.935-1.4955-3.935-4.077v-1.3618c0-2.3894 1.528-3.96 3.834-3.96 2.356 0 3.743 1.5623 3.743 4.1856v.8856h-6.174v.3676c0 1.6625.986 2.7319 2.532 2.7319 1.144 0 1.988-.4846 2.239-1.2783zm-2.348-5.6727c-1.512 0-2.423 1.036-2.423 2.7737h4.771c0-1.7293-.886-2.7737-2.348-2.7737zm17.336 8.012v-12.6236h1.37v5.163h.117c.476-1.1278 1.52-1.7628 2.907-1.7628 1.972 0 3.041 1.1864 3.041 3.3502v5.8732h-1.42v-5.514c0-1.6291-.669-2.4061-2.089-2.4061-1.495 0-2.506 1.0444-2.506 2.5899v5.3302zm12.748-11.4958h1.404v2.4562h3.676v1.2114h-3.659v5.113c0 .9858.693 1.5205 1.971 1.5205.51 0 1.421-.0251 1.663-.0501v1.203c-.226.0418-1.328.0836-1.763.0836-2.247 0-3.292-.8522-3.292-2.7403v-5.1297h-2.414v-1.2114h2.414zm16.492 4.8206v6.6752h-1.278v-6.2575c0-1.1028-.401-1.6793-1.161-1.6793-.794 0-1.279.6935-1.279 1.8213v6.1155h-1.269v-6.2659c0-1.0944-.401-1.6709-1.17-1.6709-.802 0-1.303.6935-1.303 1.8213v6.1155h-1.279v-9.0646h1.27v1.2782h.151c.225-.9106.877-1.4453 1.729-1.4453s1.454.5263 1.646 1.4202h.15c.234-.8688.961-1.4202 1.872-1.4202 1.261 0 1.921.8772 1.921 2.5565zm10.168 6.6752h-7.511v-1.178h3.099v-10.2677h-3.074v-1.1779h4.495v11.4456h2.991zm3.024-8.6051v-1.5957l7.185 4.2357v1.2365l-7.185 4.2357v-1.5957l5.74-3.1831v-.1504z" fill="#79c0ff"/><path d="m28.8808 55.3949-5.7479 3.183v.1504l5.7479 3.1831v1.5957l-7.1848-4.2357v-1.2365l7.1848-4.2357zm45.6991 0v-1.5957l7.1849 4.2357v1.2365l-7.1849 4.2357v-1.5957l5.7395-3.1831v-.1504z" fill="#f0f6fb"/><path d="m32.1474 64v-12.6236h1.3702v5.163h.1169c.4762-1.1278 1.5205-1.7628 2.9074-1.7628 1.9717 0 3.041 1.1864 3.041 3.3502v5.8732h-1.4202v-5.514c0-1.6291-.6684-2.4061-2.0887-2.4061-1.4954 0-2.5063 1.0444-2.5063 2.5899v5.3302zm12.749-11.4958h1.4035v2.4562h3.676v1.2114h-3.6592v5.113c0 .9858.6934 1.5205 1.9716 1.5205.5096 0 1.4203-.0251 1.6626-.0501v1.203c-.2256.0418-1.3284.0836-1.7628.0836-2.2474 0-3.2917-.8522-3.2917-2.7403v-5.1297h-2.4145v-1.2114h2.4145zm16.4918 4.8206v6.6752h-1.2783v-6.2575c0-1.1028-.401-1.6793-1.1613-1.6793-.7936 0-1.2782.6935-1.2782 1.8213v6.1155h-1.2699v-6.2659c0-1.0944-.401-1.6709-1.1696-1.6709-.802 0-1.3033.6935-1.3033 1.8213v6.1155h-1.2782v-9.0646h1.2698v1.2782h.1504c.2256-.9106.8772-1.4453 1.7294-1.4453s1.4537.5263 1.6458 1.4202h.1504c.2339-.8688.9608-1.4202 1.8714-1.4202 1.2616 0 1.9216.8772 1.9216 2.5565zm10.1674 6.6752h-7.5107v-1.178h3.0995v-10.2677h-3.0745v-1.1779h4.4948v11.4456h2.9909z" fill="#7ee687"/><rect fill="#fff" fill-opacity=".0666" height="132" rx="4" width="430" x="20" y="84"/><path d="m48.8808 103.395-5.7479 3.183v.15l5.7479 3.183v1.596l-7.1848-4.236v-1.236l7.1848-4.236zm45.6991 0v-1.596l7.1851 4.236v1.236l-7.1851 4.236v-1.596l5.7391-3.183v-.15z" fill="#f0f6fb"/><path d="m52.1474 112v-12.6236h1.3702v5.1626h.1169c.4762-1.127 1.5205-1.762 2.9074-1.762 1.9717 0 3.041 1.186 3.041 3.35v5.873h-1.4202v-5.514c0-1.629-.6684-2.406-2.0887-2.406-1.4954 0-2.5063 1.044-2.5063 2.59v5.33zm16.7424-2.339h1.3785c-.2757 1.495-1.7126 2.506-3.6175 2.506-2.4896 0-3.9349-1.495-3.9349-4.077v-1.362c0-2.389 1.5288-3.96 3.8347-3.96 2.3559 0 3.7428 1.563 3.7428 4.186v.885h-6.174v.368c0 1.663.9859 2.732 2.5314 2.732 1.1446 0 1.9884-.485 2.239-1.278zm-2.3476-5.673c-1.5121 0-2.4228 1.036-2.4228 2.774h4.7704c0-1.73-.8855-2.774-2.3476-2.774zm9.5576 8.171c-1.7294 0-2.8823-1.086-2.8823-2.732 0-1.604 1.1529-2.557 3.2164-2.665l2.4897-.126v-.818c0-1.137-.6934-1.763-1.955-1.763-1.0443 0-1.7795.443-2.0134 1.22h-1.3952c.1671-1.454 1.5706-2.448 3.4253-2.448 2.1304 0 3.3502 1.086 3.3502 2.974v6.207h-1.3534v-1.361h-.1421c-.4344.969-1.4202 1.512-2.7402 1.512zm.4093-1.245c1.3702 0 2.4145-.911 2.4145-2.122v-1.07l-2.3309.109c-1.2699.059-1.9383.602-1.9383 1.546 0 .952.7102 1.537 1.8547 1.537zm10.5183 1.236c-2.0969 0-3.4671-1.512-3.4671-3.843v-1.687c0-2.323 1.3702-3.835 3.4671-3.835 1.3117 0 2.2808.56 2.6735 1.554h.1504v-4.9626h1.4453v12.6236h-1.3952v-1.387h-.1587c-.4679 1.003-1.4203 1.537-2.7153 1.537zm.4178-1.295c1.4871 0 2.4478-1.069 2.4478-2.748v-1.303c0-1.671-.9607-2.741-2.4478-2.741-1.4955 0-2.4563 1.07-2.4563 2.741v1.303c0 1.671.9608 2.748 2.4563 2.748z" fill="#7ee687"/><rect fill="#fff" fill-opacity=".0666" height="44" rx="4" width="390" x="40" y="128"/><path d="m68.8808 147.395-5.7479 3.183v.15l5.7479 3.183v1.596l-7.1848-4.236v-1.236l7.1848-4.236zm56.2762 0v-1.596l7.185 4.236v1.236l-7.185 4.236v-1.596l5.739-3.183v-.15zm10.535-3.451h4.01c2.339 0 3.868 1.529 3.868 3.869 0 2.331-1.546 3.859-3.902 3.859h-2.498v4.328h-1.478zm1.478 1.312v5.105h2.164c1.755 0 2.741-.911 2.741-2.548 0-1.646-.986-2.557-2.741-2.557zm11.814 10.903c-1.73 0-2.883-1.086-2.883-2.732 0-1.604 1.153-2.557 3.217-2.665l2.49-.126v-.818c0-1.137-.694-1.763-1.955-1.763-1.045 0-1.78.443-2.014 1.22h-1.395c.167-1.454 1.571-2.448 3.425-2.448 2.131 0 3.35 1.086 3.35 2.974v6.207h-1.353v-1.361h-.142c-.434.969-1.42 1.512-2.74 1.512zm.409-1.245c1.37 0 2.415-.911 2.415-2.122v-1.07l-2.331.109c-1.27.059-1.939.602-1.939 1.546 0 .952.711 1.537 1.855 1.537zm10.819 4.486c-2.097 0-3.5-.919-3.684-2.423h1.403c.184.752 1.095 1.245 2.306 1.245 1.588 0 2.465-.802 2.465-2.255v-1.412h-.151c-.401.952-1.403 1.529-2.723 1.529-2.097 0-3.476-1.513-3.476-3.835v-1.629c0-2.331 1.387-3.835 3.509-3.835 1.312 0 2.306.576 2.699 1.554h.158v-1.404h1.404v9.065c0 2.13-1.454 3.4-3.91 3.4zm-2.431-7.352c0 1.663.969 2.749 2.473 2.749 1.495 0 2.456-1.078 2.456-2.749v-1.244c0-1.671-.961-2.741-2.456-2.741-1.504 0-2.473 1.078-2.473 2.741zm15.723 1.613h1.379c-.276 1.495-1.713 2.506-3.618 2.506-2.489 0-3.935-1.495-3.935-4.077v-1.362c0-2.389 1.529-3.96 3.835-3.96 2.356 0 3.743 1.563 3.743 4.186v.885h-6.174v.368c0 1.663.986 2.732 2.531 2.732 1.145 0 1.989-.485 2.239-1.278zm-2.347-5.673c-1.513 0-2.423 1.036-2.423 2.774h4.77c0-1.73-.885-2.774-2.347-2.774zm19.507-3.484h1.404v2.456h3.676v1.212h-3.659v5.113c0 .986.693 1.52 1.971 1.52.51 0 1.42-.025 1.663-.05v1.203c-.226.042-1.329.084-1.763.084-2.247 0-3.292-.852-3.292-2.741v-5.129h-2.414v-1.212h2.414zm12.281.209c-.668 0-1.178-.501-1.178-1.17 0-.66.51-1.161 1.178-1.161.669 0 1.178.501 1.178 1.161 0 .669-.509 1.17-1.178 1.17zm3.802 11.287h-7.511v-1.178h3.108v-6.709h-3.083v-1.178h4.486v7.887h3zm5.071-11.496h1.403v2.456h3.676v1.212h-3.659v5.113c0 .986.694 1.52 1.972 1.52.509 0 1.42-.025 1.662-.05v1.203c-.225.042-1.328.084-1.762.084-2.248 0-3.292-.852-3.292-2.741v-5.129h-2.415v-1.212h2.415zm16.082 11.496h-7.51v-1.178h3.099v-10.268h-3.074v-1.178h4.494v11.446h2.991zm9.065-2.339h1.378c-.275 1.495-1.712 2.506-3.617 2.506-2.49 0-3.935-1.495-3.935-4.077v-1.362c0-2.389 1.529-3.96 3.835-3.96 2.356 0 3.742 1.563 3.742 4.186v.885h-6.174v.368c0 1.663.986 2.732 2.532 2.732 1.144 0 1.988-.485 2.239-1.278zm-2.348-5.673c-1.512 0-2.423 1.036-2.423 2.774h4.771c0-1.73-.886-2.774-2.348-2.774zm14.069-.593-5.748 3.183v.15l5.748 3.183v1.596l-7.185-4.236v-1.236l7.185-4.236zm4.737 9.75h-1.387l5.874-14.345h1.395zm62.116-9.75v-1.596l7.185 4.236v1.236l-7.185 4.236v-1.596l5.739-3.183v-.15z" fill="#f0f6fb"/><path d="m74.3196 144.504h1.4036v2.456h3.6759v1.212h-3.6592v5.113c0 .986.6934 1.52 1.9716 1.52.5096 0 1.4203-.025 1.6626-.05v1.203c-.2256.042-1.3284.084-1.7628.084-2.2474 0-3.2917-.852-3.2917-2.741v-5.129h-2.4144v-1.212h2.4144zm12.2811.209c-.6684 0-1.178-.501-1.178-1.17 0-.66.5096-1.161 1.178-1.161s1.178.501 1.178 1.161c0 .669-.5096 1.17-1.178 1.17zm3.8013 11.287h-7.5107v-1.178h3.1079v-6.709h-3.0828v-1.178h4.4863v7.887h2.9993zm5.0712-11.496h1.4035v2.456h3.6763v1.212h-3.6596v5.113c0 .986.6935 1.52 1.9717 1.52.5096 0 1.4199-.025 1.6629-.05v1.203c-.226.042-1.3287.084-1.7632.084-2.2473 0-3.2916-.852-3.2916-2.741v-5.129h-2.4145v-1.212h2.4145zm16.0828 11.496h-7.511v-1.178h3.099v-10.268h-3.074v-1.178h4.495v11.446h2.991zm9.064-2.339h1.379c-.276 1.495-1.713 2.506-3.618 2.506-2.489 0-3.935-1.495-3.935-4.077v-1.362c0-2.389 1.529-3.96 3.835-3.96 2.356 0 3.743 1.563 3.743 4.186v.885h-6.174v.368c0 1.663.986 2.732 2.531 2.732 1.145 0 1.989-.485 2.239-1.278zm-2.347-5.673c-1.513 0-2.423 1.036-2.423 2.774h4.77c0-1.73-.885-2.774-2.347-2.774zm146.429-3.484h1.403v2.456h3.676v1.212h-3.659v5.113c0 .986.693 1.52 1.972 1.52.509 0 1.42-.025 1.662-.05v1.203c-.225.042-1.328.084-1.763.084-2.247 0-3.291-.852-3.291-2.741v-5.129h-2.415v-1.212h2.415zm12.281.209c-.668 0-1.178-.501-1.178-1.17 0-.66.51-1.161 1.178-1.161s1.178.501 1.178 1.161c0 .669-.51 1.17-1.178 1.17zm3.801 11.287h-7.51v-1.178h3.107v-6.709h-3.082v-1.178h4.486v7.887h2.999zm5.071-11.496h1.404v2.456h3.676v1.212h-3.659v5.113c0 .986.693 1.52 1.971 1.52.51 0 1.421-.025 1.663-.05v1.203c-.226.042-1.329.084-1.763.084-2.247 0-3.292-.852-3.292-2.741v-5.129h-2.414v-1.212h2.414zm16.083 11.496h-7.511v-1.178h3.1v-10.268h-3.075v-1.178h4.495v11.446h2.991zm9.064-2.339h1.379c-.276 1.495-1.713 2.506-3.618 2.506-2.489 0-3.935-1.495-3.935-4.077v-1.362c0-2.389 1.529-3.96 3.835-3.96 2.356 0 3.743 1.563 3.743 4.186v.885h-6.174v.368c0 1.663.986 2.732 2.531 2.732 1.145 0 1.989-.485 2.239-1.278zm-2.347-5.673c-1.512 0-2.423 1.036-2.423 2.774h4.77c0-1.73-.885-2.774-2.347-2.774z" fill="#7ee687"/><path d="m48.8808 191.395-5.7479 3.183v.15l5.7479 3.183v1.596l-7.1848-4.236v-1.236l7.1848-4.236zm4.737 9.75h-1.3868l5.8732-14.345h1.3952zm51.5392-9.75v-1.596l7.185 4.236v1.236l-7.185 4.236v-1.596l5.739-3.183v-.15z" fill="#f0f6fb"/><path d="m62.7242 200v-12.624h1.3702v5.163h.1169c.4762-1.127 1.5205-1.762 2.9074-1.762 1.9716 0 3.041 1.186 3.041 3.35v5.873h-1.4202v-5.514c0-1.629-.6684-2.406-2.0887-2.406-1.4954 0-2.5063 1.044-2.5063 2.59v5.33zm16.7424-2.339h1.3785c-.2757 1.495-1.7127 2.506-3.6175 2.506-2.4896 0-3.9349-1.495-3.9349-4.077v-1.362c0-2.389 1.5288-3.96 3.8347-3.96 2.3559 0 3.7428 1.563 3.7428 4.186v.885h-6.174v.368c0 1.663.9858 2.732 2.5314 2.732 1.1446 0 1.9884-.485 2.239-1.278zm-2.3476-5.673c-1.5122 0-2.4228 1.036-2.4228 2.774h4.7704c0-1.73-.8856-2.774-2.3476-2.774zm9.5576 8.171c-1.7294 0-2.8823-1.086-2.8823-2.732 0-1.604 1.1529-2.557 3.2164-2.665l2.4897-.126v-.818c0-1.137-.6935-1.763-1.955-1.763-1.0443 0-1.7795.443-2.0134 1.22h-1.3952c.1671-1.454 1.5706-2.448 3.4253-2.448 2.1304 0 3.3502 1.086 3.3502 2.974v6.207h-1.3534v-1.361h-.1421c-.4344.969-1.4202 1.512-2.7402 1.512zm.4093-1.245c1.3702 0 2.4145-.911 2.4145-2.122v-1.07l-2.3309.109c-1.2699.059-1.9383.602-1.9383 1.546 0 .952.7102 1.537 1.8547 1.537zm10.5183 1.236c-2.0969 0-3.4671-1.512-3.4671-3.843v-1.687c0-2.323 1.3702-3.835 3.4671-3.835 1.3117 0 2.2808.56 2.6738 1.554h.15v-4.963h1.445v12.624h-1.395v-1.387h-.159c-.4674 1.003-1.4198 1.537-2.7148 1.537zm.4178-1.295c1.4871 0 2.448-1.069 2.448-2.748v-1.303c0-1.671-.9609-2.741-2.448-2.741-1.4955 0-2.4563 1.07-2.4563 2.741v1.303c0 1.671.9608 2.748 2.4563 2.748z" fill="#7ee687"/><rect fill="#fff" fill-opacity=".0666" height="244" rx="4" width="430" x="20" y="236"/><path d="m48.8808 255.395-5.7479 3.183v.15l5.7479 3.183v1.596l-7.1848-4.236v-1.236l7.1848-4.236zm45.6991 0v-1.596l7.1851 4.236v1.236l-7.1851 4.236v-1.596l5.7391-3.183v-.15z" fill="#f0f6fb"/><path d="m56.4333 264.15c-1.295 0-2.2474-.534-2.7152-1.537h-.1588v1.387h-1.3952v-12.624h1.4454v4.963h.1503c.4011-.994 1.3618-1.554 2.6735-1.554 2.097 0 3.4671 1.512 3.4671 3.835v1.687c0 2.331-1.3701 3.843-3.4671 3.843zm-.4177-1.295c1.5038 0 2.4562-1.077 2.4562-2.748v-1.303c0-1.671-.9524-2.741-2.4562-2.741-1.4871 0-2.4395 1.07-2.4395 2.741v1.303c0 1.679.9524 2.748 2.4395 2.748zm10.4264 1.312c-2.3978 0-3.9266-1.562-3.9266-4.01v-1.37c0-2.448 1.5288-4.01 3.9266-4.01 2.3977 0 3.9266 1.562 3.9266 4.01v1.37c0 2.448-1.5289 4.01-3.9266 4.01zm0-8.137c-1.554 0-2.5231 1.103-2.5231 2.882v1.111c0 1.788.9691 2.883 2.5231 2.883 1.5539 0 2.523-1.095 2.523-2.883v-1.111c0-1.779-.9691-2.882-2.523-2.882zm10.0087 8.12c-2.097 0-3.4672-1.512-3.4672-3.843v-1.687c0-2.323 1.3702-3.835 3.4672-3.835 1.3116 0 2.2807.56 2.6734 1.554h.1504v-4.963h1.4453v12.624h-1.3952v-1.387h-.1587c-.4679 1.003-1.4203 1.537-2.7152 1.537zm.4177-1.295c1.4871 0 2.4478-1.069 2.4478-2.748v-1.303c0-1.671-.9607-2.741-2.4478-2.741-1.4955 0-2.4562 1.07-2.4562 2.741v1.303c0 1.671.9607 2.748 2.4562 2.748zm8.1874 4.37c-.2089 0-.4846-.009-.6099-.025v-1.245c.1086.025.3676.033.5013.033.8521 0 1.32-.384 1.6959-1.437l.1588-.493-3.3335-9.123h1.5456l2.5398 7.586h.1086l2.5314-7.586h1.5122l-3.417 9.399c-.7937 2.231-1.554 2.891-3.2332 2.891z" fill="#7ee687"/><rect fill="#fff" fill-opacity=".0666" height="44" rx="4" width="390" x="40" y="280"/><path d="m68.8808 299.395-5.7479 3.183v.15l5.7479 3.183v1.596l-7.1848-4.236v-1.236l7.1848-4.236zm24.5455 0v-1.596l7.1847 4.236v1.236l-7.1847 4.236v-1.596l5.7396-3.183v-.15zm14.9047 8.605h-1.471v-10.702h-3.642v-1.354h8.755v1.354h-3.642zm6.124 0v-12.624h1.37v5.163h.117c.476-1.127 1.52-1.762 2.907-1.762 1.972 0 3.041 1.186 3.041 3.35v5.873h-1.42v-5.514c0-1.629-.669-2.406-2.089-2.406-1.495 0-2.506 1.044-2.506 2.59v5.33zm14.453-11.287c-.669 0-1.178-.501-1.178-1.17 0-.66.509-1.161 1.178-1.161.668 0 1.178.501 1.178 1.161 0 .669-.51 1.17-1.178 1.17zm3.801 11.287h-7.511v-1.178h3.108v-6.709h-3.082v-1.178h4.486v7.887h2.999zm3.317-6.617c0-1.57 1.337-2.623 3.333-2.623 1.888 0 3.167.944 3.334 2.456h-1.37c-.167-.794-.928-1.278-1.989-1.278-1.153 0-1.896.535-1.896 1.362 0 .693.468 1.086 1.604 1.336l1.278.293c1.763.401 2.565 1.169 2.565 2.481 0 1.671-1.395 2.757-3.542 2.757-2.056 0-3.417-.961-3.576-2.515h1.445c.209.836 1.011 1.32 2.181 1.32 1.236 0 2.022-.559 2.022-1.428 0-.719-.443-1.103-1.596-1.362l-1.345-.309c-1.638-.376-2.448-1.203-2.448-2.49zm24.612-4.67c-.668 0-1.178-.501-1.178-1.17 0-.66.51-1.161 1.178-1.161.669 0 1.178.501 1.178 1.161 0 .669-.509 1.17-1.178 1.17zm3.802 11.287h-7.511v-1.178h3.108v-6.709h-3.083v-1.178h4.486v7.887h3zm3.316-6.617c0-1.57 1.337-2.623 3.334-2.623 1.888 0 3.166.944 3.333 2.456h-1.37c-.167-.794-.927-1.278-1.988-1.278-1.153 0-1.897.535-1.897 1.362 0 .693.468 1.086 1.604 1.336l1.278.293c1.763.401 2.565 1.169 2.565 2.481 0 1.671-1.395 2.757-3.542 2.757-2.055 0-3.417-.961-3.576-2.515h1.446c.208.836 1.01 1.32 2.18 1.32 1.237 0 2.022-.559 2.022-1.428 0-.719-.443-1.103-1.596-1.362l-1.345-.309c-1.637-.376-2.448-1.203-2.448-2.49zm23.535 6.776c-1.73 0-2.882-1.086-2.882-2.732 0-1.604 1.152-2.557 3.216-2.665l2.49-.126v-.818c0-1.137-.694-1.763-1.955-1.763-1.045 0-1.78.443-2.014 1.22h-1.395c.167-1.454 1.571-2.448 3.425-2.448 2.131 0 3.351 1.086 3.351 2.974v6.207h-1.354v-1.361h-.142c-.434.969-1.42 1.512-2.74 1.512zm.409-1.245c1.37 0 2.415-.911 2.415-2.122v-1.07l-2.331.109c-1.27.059-1.938.602-1.938 1.546 0 .952.71 1.537 1.854 1.537zm17.946 1.086v-12.624h1.37v5.163h.117c.476-1.127 1.52-1.762 2.907-1.762 1.972 0 3.041 1.186 3.041 3.35v5.873h-1.42v-5.514c0-1.629-.668-2.406-2.089-2.406-1.495 0-2.506 1.044-2.506 2.59v5.33zm16.742-2.339h1.379c-.276 1.495-1.713 2.506-3.618 2.506-2.49 0-3.935-1.495-3.935-4.077v-1.362c0-2.389 1.529-3.96 3.835-3.96 2.356 0 3.743 1.563 3.743 4.186v.885h-6.174v.368c0 1.663.985 2.732 2.531 2.732 1.145 0 1.988-.485 2.239-1.278zm-2.348-5.673c-1.512 0-2.422 1.036-2.422 2.774h4.77c0-1.73-.885-2.774-2.348-2.774zm9.558 8.171c-1.729 0-2.882-1.086-2.882-2.732 0-1.604 1.153-2.557 3.216-2.665l2.49-.126v-.818c0-1.137-.694-1.763-1.955-1.763-1.044 0-1.78.443-2.014 1.22h-1.395c.167-1.454 1.571-2.448 3.426-2.448 2.13 0 3.35 1.086 3.35 2.974v6.207h-1.354v-1.361h-.142c-.434.969-1.42 1.512-2.74 1.512zm.409-1.245c1.371 0 2.415-.911 2.415-2.122v-1.07l-2.331.109c-1.27.059-1.938.602-1.938 1.546 0 .952.71 1.537 1.854 1.537zm10.519 1.236c-2.097 0-3.467-1.512-3.467-3.843v-1.687c0-2.323 1.37-3.835 3.467-3.835 1.311 0 2.28.56 2.673 1.554h.15v-4.963h1.446v12.624h-1.395v-1.387h-.159c-.468 1.003-1.42 1.537-2.715 1.537zm.417-1.295c1.488 0 2.448-1.069 2.448-2.748v-1.303c0-1.671-.96-2.741-2.448-2.741-1.495 0-2.456 1.07-2.456 2.741v1.303c0 1.671.961 2.748 2.456 2.748zm10.886-10.142c-.668 0-1.178-.501-1.178-1.17 0-.66.51-1.161 1.178-1.161.669 0 1.178.501 1.178 1.161 0 .669-.509 1.17-1.178 1.17zm3.802 11.287h-7.511v-1.178h3.108v-6.709h-3.083v-1.178h4.486v7.887h3zm2.907 0v-9.065h1.362v1.596h.117c.484-1.128 1.52-1.763 2.899-1.763 1.971 0 3.041 1.178 3.041 3.35v5.882h-1.421v-5.522c0-1.638-.668-2.406-2.08-2.406-1.495 0-2.498 1.044-2.498 2.589v5.339zm14.019 3.4c-2.097 0-3.501-.919-3.685-2.423h1.404c.184.752 1.094 1.245 2.306 1.245 1.587 0 2.464-.802 2.464-2.255v-1.412h-.15c-.401.952-1.403 1.529-2.723 1.529-2.097 0-3.476-1.513-3.476-3.835v-1.629c0-2.331 1.387-3.835 3.509-3.835 1.312 0 2.306.576 2.698 1.554h.159v-1.404h1.404v9.065c0 2.13-1.454 3.4-3.91 3.4zm-2.431-7.352c0 1.663.969 2.749 2.473 2.749 1.495 0 2.456-1.078 2.456-2.749v-1.244c0-1.671-.961-2.741-2.456-2.741-1.504 0-2.473 1.078-2.473 2.741zm16.867-4.653-5.748 3.183v.15l5.748 3.183v1.596l-7.184-4.236v-1.236l7.184-4.236zm4.737 9.75h-1.386l5.873-14.345h1.395zm30.386-9.75v-1.596l7.185 4.236v1.236l-7.185 4.236v-1.596l5.739-3.183v-.15z" fill="#f0f6fb"/><path d="m72.1474 308v-12.624h1.3702v5.163h.1169c.4762-1.127 1.5205-1.762 2.9074-1.762 1.9717 0 3.041 1.186 3.041 3.35v5.873h-1.4202v-5.514c0-1.629-.6684-2.406-2.0887-2.406-1.4954 0-2.5063 1.044-2.5063 2.59v5.33zm18.8478 0h-8.4047v-1.295h3.5591v-9.09h-.1337l-3.4504 2.231v-1.571l3.5924-2.331h1.4453v10.761h3.392zm213.8418 0v-12.624h1.37v5.163h.117c.476-1.127 1.52-1.762 2.907-1.762 1.972 0 3.041 1.186 3.041 3.35v5.873h-1.42v-5.514c0-1.629-.668-2.406-2.089-2.406-1.495 0-2.506 1.044-2.506 2.59v5.33zm18.848 0h-8.405v-1.295h3.559v-9.09h-.134l-3.45 2.231v-1.571l3.592-2.331h1.446v10.761h3.392z" fill="#7ee687"/><rect fill="#fff" fill-opacity=".0666" height="44" rx="4" width="390" x="40" y="336"/><path d="m68.8808 355.395-5.7479 3.183v.15l5.7479 3.183v1.596l-7.1848-4.236v-1.236l7.1848-4.236zm13.9687 0v-1.596l7.1849 4.236v1.236l-7.1849 4.236v-1.596l5.7396-3.183v-.15zm14.9045 8.605h-1.4704v-10.702h-3.6426v-1.354h8.756v1.354h-3.643zm6.124 0v-12.624h1.37v5.163h.117c.476-1.127 1.52-1.762 2.907-1.762 1.972 0 3.041 1.186 3.041 3.35v5.873h-1.42v-5.514c0-1.629-.668-2.406-2.089-2.406-1.495 0-2.506 1.044-2.506 2.59v5.33zm14.453-11.287c-.668 0-1.178-.501-1.178-1.17 0-.66.51-1.161 1.178-1.161s1.178.501 1.178 1.161c0 .669-.51 1.17-1.178 1.17zm3.801 11.287h-7.51v-1.178h3.108v-6.709h-3.083v-1.178h4.486v7.887h2.999zm3.317-6.617c0-1.57 1.337-2.623 3.334-2.623 1.888 0 3.166.944 3.333 2.456h-1.37c-.167-.794-.928-1.278-1.989-1.278-1.152 0-1.896.535-1.896 1.362 0 .693.468 1.086 1.604 1.336l1.278.293c1.763.401 2.565 1.169 2.565 2.481 0 1.671-1.395 2.757-3.542 2.757-2.055 0-3.417-.961-3.576-2.515h1.445c.209.836 1.011 1.32 2.181 1.32 1.236 0 2.022-.559 2.022-1.428 0-.719-.443-1.103-1.596-1.362l-1.345-.309c-1.638-.376-2.448-1.203-2.448-2.49zm24.612-4.67c-.668 0-1.178-.501-1.178-1.17 0-.66.51-1.161 1.178-1.161.669 0 1.178.501 1.178 1.161 0 .669-.509 1.17-1.178 1.17zm3.802 11.287h-7.511v-1.178h3.108v-6.709h-3.083v-1.178h4.486v7.887h3zm3.316-6.617c0-1.57 1.337-2.623 3.334-2.623 1.888 0 3.166.944 3.333 2.456h-1.37c-.167-.794-.927-1.278-1.988-1.278-1.153 0-1.897.535-1.897 1.362 0 .693.468 1.086 1.604 1.336l1.279.293c1.762.401 2.565 1.169 2.565 2.481 0 1.671-1.396 2.757-3.543 2.757-2.055 0-3.417-.961-3.576-2.515h1.446c.209.836 1.011 1.32 2.18 1.32 1.237 0 2.022-.559 2.022-1.428 0-.719-.443-1.103-1.596-1.362l-1.345-.309c-1.637-.376-2.448-1.203-2.448-2.49zm23.535 6.776c-1.729 0-2.882-1.086-2.882-2.732 0-1.604 1.153-2.557 3.216-2.665l2.49-.126v-.818c0-1.137-.694-1.763-1.955-1.763-1.044 0-1.78.443-2.014 1.22h-1.395c.167-1.454 1.571-2.448 3.426-2.448 2.13 0 3.35 1.086 3.35 2.974v6.207h-1.354v-1.361h-.142c-.434.969-1.42 1.512-2.74 1.512zm.409-1.245c1.371 0 2.415-.911 2.415-2.122v-1.07l-2.331.109c-1.27.059-1.938.602-1.938 1.546 0 .952.71 1.537 1.854 1.537zm22.232-8.129c2.097 0 3.467 1.512 3.467 3.843v1.688c0 2.322-1.37 3.834-3.467 3.834-1.312 0-2.273-.559-2.665-1.554h-.159v4.462h-1.445v-12.123h1.403v1.387h.151c.476-1.002 1.42-1.537 2.715-1.537zm-.41 1.303c-1.495 0-2.447 1.07-2.447 2.741v1.303c0 1.679.952 2.748 2.447 2.748 1.496 0 2.448-1.077 2.448-2.748v-1.303c0-1.671-.952-2.741-2.448-2.741zm9.499 8.071c-1.729 0-2.882-1.086-2.882-2.732 0-1.604 1.153-2.557 3.217-2.665l2.489-.126v-.818c0-1.137-.693-1.763-1.955-1.763-1.044 0-1.779.443-2.013 1.22h-1.395c.167-1.454 1.57-2.448 3.425-2.448 2.13 0 3.35 1.086 3.35 2.974v6.207h-1.353v-1.361h-.142c-.435.969-1.421 1.512-2.741 1.512zm.41-1.245c1.37 0 2.414-.911 2.414-2.122v-1.07l-2.331.109c-1.27.059-1.938.602-1.938 1.546 0 .952.71 1.537 1.855 1.537zm10.727-2.974v2.924h2.807v1.136h-6.024v-1.136h1.83v-6.792h-2.013v-1.137h3.383v2.315h.184c.334-1.68 1.462-2.549 3.208-2.549.518 0 1.011.076 1.312.201v1.596c-.418-.151-1.003-.251-1.496-.251-2.005 0-3.191 1.387-3.191 3.693zm10.017 4.219c-1.729 0-2.882-1.086-2.882-2.732 0-1.604 1.153-2.557 3.216-2.665l2.49-.126v-.818c0-1.137-.694-1.763-1.955-1.763-1.044 0-1.78.443-2.014 1.22h-1.395c.167-1.454 1.571-2.448 3.426-2.448 2.13 0 3.35 1.086 3.35 2.974v6.207h-1.354v-1.361h-.142c-.434.969-1.42 1.512-2.74 1.512zm.409-1.245c1.371 0 2.415-.911 2.415-2.122v-1.07l-2.331.109c-1.27.059-1.938.602-1.938 1.546 0 .952.71 1.537 1.854 1.537zm10.819 4.486c-2.097 0-3.5-.919-3.684-2.423h1.404c.183.752 1.094 1.245 2.306 1.245 1.587 0 2.464-.802 2.464-2.255v-1.412h-.15c-.401.952-1.404 1.529-2.724 1.529-2.097 0-3.475-1.513-3.475-3.835v-1.629c0-2.331 1.387-3.835 3.509-3.835 1.311 0 2.305.576 2.698 1.554h.159v-1.404h1.403v9.065c0 2.13-1.453 3.4-3.91 3.4zm-2.431-7.352c0 1.663.969 2.749 2.473 2.749 1.496 0 2.456-1.078 2.456-2.749v-1.244c0-1.671-.96-2.741-2.456-2.741-1.504 0-2.473 1.078-2.473 2.741zm12.916-.108v2.924h2.807v1.136h-6.023v-1.136h1.829v-6.792h-2.013v-1.137h3.384v2.315h.183c.335-1.68 1.462-2.549 3.209-2.549.518 0 1.01.076 1.311.201v1.596c-.418-.151-1.002-.251-1.495-.251-2.005 0-3.192 1.387-3.192 3.693zm10.017 4.219c-1.729 0-2.882-1.086-2.882-2.732 0-1.604 1.153-2.557 3.217-2.665l2.489-.126v-.818c0-1.137-.693-1.763-1.955-1.763-1.044 0-1.779.443-2.013 1.22h-1.395c.167-1.454 1.57-2.448 3.425-2.448 2.13 0 3.35 1.086 3.35 2.974v6.207h-1.353v-1.361h-.142c-.435.969-1.421 1.512-2.741 1.512zm.41-1.245c1.37 0 2.414-.911 2.414-2.122v-1.07l-2.331.109c-1.27.059-1.938.602-1.938 1.546 0 .952.71 1.537 1.855 1.537zm11.654-8.129c2.097 0 3.467 1.512 3.467 3.843v1.688c0 2.322-1.37 3.834-3.467 3.834-1.311 0-2.272-.559-2.665-1.554h-.159v4.462h-1.445v-12.123h1.404v1.387h.15c.476-1.002 1.42-1.537 2.715-1.537zm-.409 1.303c-1.496 0-2.448 1.07-2.448 2.741v1.303c0 1.679.952 2.748 2.448 2.748 1.495 0 2.448-1.077 2.448-2.748v-1.303c0-1.671-.953-2.741-2.448-2.741zm6.7 7.912v-12.624h1.37v5.163h.117c.476-1.127 1.521-1.762 2.908-1.762 1.971 0 3.041 1.186 3.041 3.35v5.873h-1.421v-5.514c0-1.629-.668-2.406-2.088-2.406-1.496 0-2.507 1.044-2.507 2.59v5.33zm14.295.05c-.827 0-1.512-.693-1.512-1.545 0-.844.685-1.538 1.512-1.538s1.512.694 1.512 1.538c0 .852-.685 1.545-1.512 1.545zm14.169-8.655-5.748 3.183v.15l5.748 3.183v1.596l-7.185-4.236v-1.236l7.185-4.236zm4.737 9.75h-1.387l5.873-14.345h1.396zm19.808-9.75v-1.596l7.185 4.236v1.236l-7.185 4.236v-1.596l5.74-3.183v-.15z" fill="#f0f6fb"/><path d="m76.4333 354.785c2.097 0 3.4671 1.512 3.4671 3.843v1.688c0 2.322-1.3701 3.834-3.4671 3.834-1.3117 0-2.2724-.559-2.6651-1.554h-.1587v4.462h-1.4454v-12.123h1.4036v1.387h.1504c.4762-1.002 1.4202-1.537 2.7152-1.537zm-.4094 1.303c-1.4954 0-2.4478 1.07-2.4478 2.741v1.303c0 1.679.9524 2.748 2.4478 2.748 1.4955 0 2.4479-1.077 2.4479-2.748v-1.303c0-1.671-.9524-2.741-2.4479-2.741zm254.2521-1.303c2.097 0 3.467 1.512 3.467 3.843v1.688c0 2.322-1.37 3.834-3.467 3.834-1.311 0-2.272-.559-2.665-1.554h-.159v4.462h-1.445v-12.123h1.404v1.387h.15c.476-1.002 1.42-1.537 2.715-1.537zm-.409 1.303c-1.496 0-2.448 1.07-2.448 2.741v1.303c0 1.679.952 2.748 2.448 2.748 1.495 0 2.448-1.077 2.448-2.748v-1.303c0-1.671-.953-2.741-2.448-2.741z" fill="#7ee687"/><rect fill="#fff" fill-opacity=".0666" height="44" rx="4" width="390" x="40" y="392"/><path d="m68.8808 411.395-5.7479 3.183v.15l5.7479 3.183v1.596l-7.1848-4.236v-1.236l7.1848-4.236zm13.9687 0v-1.596l7.1849 4.236v1.236l-7.1849 4.236v-1.596l5.7396-3.183v-.15zm14.9045 8.605h-1.4704v-10.702h-3.6426v-1.354h8.756v1.354h-3.643zm6.124 0v-12.624h1.37v5.163h.117c.476-1.127 1.52-1.762 2.907-1.762 1.972 0 3.041 1.186 3.041 3.35v5.873h-1.42v-5.514c0-1.629-.668-2.406-2.089-2.406-1.495 0-2.506 1.044-2.506 2.59v5.33zm14.453-11.287c-.668 0-1.178-.501-1.178-1.17 0-.66.51-1.161 1.178-1.161s1.178.501 1.178 1.161c0 .669-.51 1.17-1.178 1.17zm3.801 11.287h-7.51v-1.178h3.108v-6.709h-3.083v-1.178h4.486v7.887h2.999zm3.317-6.617c0-1.57 1.337-2.623 3.334-2.623 1.888 0 3.166.944 3.333 2.456h-1.37c-.167-.794-.928-1.278-1.989-1.278-1.152 0-1.896.535-1.896 1.362 0 .693.468 1.086 1.604 1.336l1.278.293c1.763.401 2.565 1.169 2.565 2.481 0 1.671-1.395 2.757-3.542 2.757-2.055 0-3.417-.961-3.576-2.515h1.445c.209.836 1.011 1.32 2.181 1.32 1.236 0 2.022-.559 2.022-1.428 0-.719-.443-1.103-1.596-1.362l-1.345-.309c-1.638-.376-2.448-1.203-2.448-2.49zm24.612-4.67c-.668 0-1.178-.501-1.178-1.17 0-.66.51-1.161 1.178-1.161.669 0 1.178.501 1.178 1.161 0 .669-.509 1.17-1.178 1.17zm3.802 11.287h-7.511v-1.178h3.108v-6.709h-3.083v-1.178h4.486v7.887h3zm3.316-6.617c0-1.57 1.337-2.623 3.334-2.623 1.888 0 3.166.944 3.333 2.456h-1.37c-.167-.794-.927-1.278-1.988-1.278-1.153 0-1.897.535-1.897 1.362 0 .693.468 1.086 1.604 1.336l1.279.293c1.762.401 2.565 1.169 2.565 2.481 0 1.671-1.396 2.757-3.543 2.757-2.055 0-3.417-.961-3.576-2.515h1.446c.209.836 1.011 1.32 2.18 1.32 1.237 0 2.022-.559 2.022-1.428 0-.719-.443-1.103-1.596-1.362l-1.345-.309c-1.637-.376-2.448-1.203-2.448-2.49zm23.535 6.776c-1.729 0-2.882-1.086-2.882-2.732 0-1.604 1.153-2.557 3.216-2.665l2.49-.126v-.818c0-1.137-.694-1.763-1.955-1.763-1.044 0-1.78.443-2.014 1.22h-1.395c.167-1.454 1.571-2.448 3.426-2.448 2.13 0 3.35 1.086 3.35 2.974v6.207h-1.354v-1.361h-.142c-.434.969-1.42 1.512-2.74 1.512zm.409-1.245c1.371 0 2.415-.911 2.415-2.122v-1.07l-2.331.109c-1.27.059-1.938.602-1.938 1.546 0 .952.71 1.537 1.854 1.537zm7.377 1.086v-9.065h1.362v1.596h.117c.485-1.128 1.521-1.763 2.899-1.763 1.972 0 3.041 1.178 3.041 3.35v5.882h-1.42v-5.522c0-1.638-.668-2.406-2.08-2.406-1.496 0-2.498 1.044-2.498 2.589v5.339zm14.287.167c-2.398 0-3.927-1.562-3.927-4.01v-1.37c0-2.448 1.529-4.01 3.927-4.01 2.397 0 3.926 1.562 3.926 4.01v1.37c0 2.448-1.529 4.01-3.926 4.01zm0-8.137c-1.554 0-2.523 1.103-2.523 2.882v1.111c0 1.788.969 2.883 2.523 2.883s2.523-1.095 2.523-2.883v-1.111c0-1.779-.969-2.882-2.523-2.882zm9.031-3.526h1.403v2.456h3.676v1.212h-3.659v5.113c0 .986.694 1.52 1.972 1.52.509 0 1.42-.025 1.662-.05v1.203c-.225.042-1.328.084-1.762.084-2.248 0-3.292-.852-3.292-2.741v-5.129h-2.415v-1.212h2.415zm8.404 11.496v-12.624h1.371v5.163h.117c.476-1.127 1.52-1.762 2.907-1.762 1.972 0 3.041 1.186 3.041 3.35v5.873h-1.42v-5.514c0-1.629-.669-2.406-2.089-2.406-1.495 0-2.506 1.044-2.506 2.59v5.33zm16.743-2.339h1.378c-.275 1.495-1.712 2.506-3.617 2.506-2.49 0-3.935-1.495-3.935-4.077v-1.362c0-2.389 1.529-3.96 3.835-3.96 2.356 0 3.742 1.563 3.742 4.186v.885h-6.174v.368c0 1.663.986 2.732 2.532 2.732 1.144 0 1.988-.485 2.239-1.278zm-2.348-5.673c-1.512 0-2.423 1.036-2.423 2.774h4.771c0-1.73-.886-2.774-2.348-2.774zm10.118 3.952v2.924h2.807v1.136h-6.024v-1.136h1.83v-6.792h-2.014v-1.137h3.384v2.315h.184c.334-1.68 1.462-2.549 3.208-2.549.518 0 1.011.076 1.311.201v1.596c-.417-.151-1.002-.251-1.495-.251-2.005 0-3.191 1.387-3.191 3.693zm22.08-5.155c2.097 0 3.468 1.512 3.468 3.843v1.688c0 2.322-1.371 3.834-3.468 3.834-1.311 0-2.272-.559-2.665-1.554h-.158v4.462h-1.446v-12.123h1.404v1.387h.15c.476-1.002 1.421-1.537 2.715-1.537zm-.409 1.303c-1.495 0-2.448 1.07-2.448 2.741v1.303c0 1.679.953 2.748 2.448 2.748 1.496 0 2.448-1.077 2.448-2.748v-1.303c0-1.671-.952-2.741-2.448-2.741zm9.499 8.071c-1.729 0-2.882-1.086-2.882-2.732 0-1.604 1.153-2.557 3.216-2.665l2.49-.126v-.818c0-1.137-.693-1.763-1.955-1.763-1.044 0-1.779.443-2.013 1.22h-1.396c.167-1.454 1.571-2.448 3.426-2.448 2.13 0 3.35 1.086 3.35 2.974v6.207h-1.354v-1.361h-.142c-.434.969-1.42 1.512-2.74 1.512zm.41-1.245c1.37 0 2.414-.911 2.414-2.122v-1.07l-2.331.109c-1.27.059-1.938.602-1.938 1.546 0 .952.71 1.537 1.855 1.537zm10.727-2.974v2.924h2.807v1.136h-6.024v-1.136h1.83v-6.792h-2.014v-1.137h3.384v2.315h.184c.334-1.68 1.462-2.549 3.208-2.549.518 0 1.011.076 1.312.201v1.596c-.418-.151-1.003-.251-1.496-.251-2.005 0-3.191 1.387-3.191 3.693zm10.017 4.219c-1.73 0-2.883-1.086-2.883-2.732 0-1.604 1.153-2.557 3.217-2.665l2.49-.126v-.818c0-1.137-.694-1.763-1.955-1.763-1.045 0-1.78.443-2.014 1.22h-1.395c.167-1.454 1.571-2.448 3.425-2.448 2.131 0 3.35 1.086 3.35 2.974v6.207h-1.353v-1.361h-.142c-.434.969-1.42 1.512-2.74 1.512zm.409-1.245c1.37 0 2.415-.911 2.415-2.122v-1.07l-2.331.109c-1.27.059-1.939.602-1.939 1.546 0 .952.711 1.537 1.855 1.537zm10.819 4.486c-2.097 0-3.5-.919-3.684-2.423h1.403c.184.752 1.095 1.245 2.306 1.245 1.588 0 2.465-.802 2.465-2.255v-1.412h-.151c-.401.952-1.403 1.529-2.723 1.529-2.097 0-3.476-1.513-3.476-3.835v-1.629c0-2.331 1.387-3.835 3.509-3.835 1.312 0 2.306.576 2.699 1.554h.159v-1.404h1.403v9.065c0 2.13-1.454 3.4-3.91 3.4zm-2.431-7.352c0 1.663.969 2.749 2.473 2.749 1.495 0 2.456-1.078 2.456-2.749v-1.244c0-1.671-.961-2.741-2.456-2.741-1.504 0-2.473 1.078-2.473 2.741zm12.916-.108v2.924h2.807v1.136h-6.023v-1.136h1.829v-6.792h-2.013v-1.137h3.383v2.315h.184c.334-1.68 1.462-2.549 3.208-2.549.518 0 1.011.076 1.312.201v1.596c-.418-.151-1.003-.251-1.496-.251-2.005 0-3.191 1.387-3.191 3.693zm10.017 4.219c-1.729 0-2.882-1.086-2.882-2.732 0-1.604 1.153-2.557 3.216-2.665l2.49-.126v-.818c0-1.137-.693-1.763-1.955-1.763-1.044 0-1.78.443-2.013 1.22h-1.396c.167-1.454 1.571-2.448 3.426-2.448 2.13 0 3.35 1.086 3.35 2.974v6.207h-1.354v-1.361h-.142c-.434.969-1.42 1.512-2.74 1.512zm.409-1.245c1.371 0 2.415-.911 2.415-2.122v-1.07l-2.331.109c-1.27.059-1.938.602-1.938 1.546 0 .952.71 1.537 1.854 1.537zm11.655-8.129c2.097 0 3.467 1.512 3.467 3.843v1.688c0 2.322-1.37 3.834-3.467 3.834-1.312 0-2.272-.559-2.665-1.554h-.159v4.462h-1.445v-12.123h1.403v1.387h.151c.476-1.002 1.42-1.537 2.715-1.537zm-.409 1.303c-1.496 0-2.448 1.07-2.448 2.741v1.303c0 1.679.952 2.748 2.448 2.748 1.495 0 2.447-1.077 2.447-2.748v-1.303c0-1.671-.952-2.741-2.447-2.741zm6.7 7.912v-12.624h1.37v5.163h.117c.476-1.127 1.521-1.762 2.907-1.762 1.972 0 3.041 1.186 3.041 3.35v5.873h-1.42v-5.514c0-1.629-.668-2.406-2.088-2.406-1.496 0-2.507 1.044-2.507 2.59v5.33zm14.294.05c-.827 0-1.512-.693-1.512-1.545 0-.844.685-1.538 1.512-1.538.828 0 1.513.694 1.513 1.538 0 .852-.685 1.545-1.513 1.545zm14.17-8.655-5.748 3.183v.15l5.748 3.183v1.596l-7.185-4.236v-1.236l7.185-4.236zm4.737 9.75h-1.387l5.873-14.345h1.395zm19.808-9.75v-1.596l7.185 4.236v1.236l-7.185 4.236v-1.596l5.74-3.183v-.15z" fill="#f0f6fb"/><path d="m76.4333 410.785c2.097 0 3.4671 1.512 3.4671 3.843v1.688c0 2.322-1.3701 3.834-3.4671 3.834-1.3117 0-2.2724-.559-2.6651-1.554h-.1587v4.462h-1.4454v-12.123h1.4036v1.387h.1504c.4762-1.002 1.4202-1.537 2.7152-1.537zm-.4094 1.303c-1.4954 0-2.4478 1.07-2.4478 2.741v1.303c0 1.679.9524 2.748 2.4478 2.748 1.4955 0 2.4479-1.077 2.4479-2.748v-1.303c0-1.671-.9524-2.741-2.4479-2.741zm317.7131-1.303c2.097 0 3.467 1.512 3.467 3.843v1.688c0 2.322-1.37 3.834-3.467 3.834-1.312 0-2.272-.559-2.665-1.554h-.159v4.462h-1.445v-12.123h1.403v1.387h.151c.476-1.002 1.42-1.537 2.715-1.537zm-.409 1.303c-1.496 0-2.448 1.07-2.448 2.741v1.303c0 1.679.952 2.748 2.448 2.748 1.495 0 2.447-1.077 2.447-2.748v-1.303c0-1.671-.952-2.741-2.447-2.741z" fill="#7ee687"/><path d="m48.8808 455.395-5.7479 3.183v.15l5.7479 3.183v1.596l-7.1848-4.236v-1.236l7.1848-4.236zm4.737 9.75h-1.3868l5.8732-14.345h1.3952zm51.5392-9.75v-1.596l7.185 4.236v1.236l-7.185 4.236v-1.596l5.739-3.183v-.15z" fill="#f0f6fb"/><path d="m67.0101 464.15c-1.295 0-2.2474-.534-2.7152-1.537h-.1588v1.387h-1.3952v-12.624h1.4454v4.963h.1503c.4011-.994 1.3618-1.554 2.6735-1.554 2.097 0 3.4671 1.512 3.4671 3.835v1.687c0 2.331-1.3701 3.843-3.4671 3.843zm-.4177-1.295c1.5038 0 2.4562-1.077 2.4562-2.748v-1.303c0-1.671-.9524-2.741-2.4562-2.741-1.4871 0-2.4396 1.07-2.4396 2.741v1.303c0 1.679.9525 2.748 2.4396 2.748zm10.4264 1.312c-2.3978 0-3.9267-1.562-3.9267-4.01v-1.37c0-2.448 1.5289-4.01 3.9267-4.01 2.3977 0 3.9266 1.562 3.9266 4.01v1.37c0 2.448-1.5289 4.01-3.9266 4.01zm0-8.137c-1.554 0-2.5231 1.103-2.5231 2.882v1.111c0 1.788.9691 2.883 2.5231 2.883 1.5539 0 2.523-1.095 2.523-2.883v-1.111c0-1.779-.9691-2.882-2.523-2.882zm10.0086 8.12c-2.0969 0-3.4671-1.512-3.4671-3.843v-1.687c0-2.323 1.3702-3.835 3.4671-3.835 1.3117 0 2.2808.56 2.6735 1.554h.1504v-4.963h1.4453v12.624h-1.3952v-1.387h-.1587c-.4679 1.003-1.4203 1.537-2.7153 1.537zm.4178-1.295c1.4871 0 2.4478-1.069 2.4478-2.748v-1.303c0-1.671-.9607-2.741-2.4478-2.741-1.4955 0-2.4563 1.07-2.4563 2.741v1.303c0 1.671.9608 2.748 2.4563 2.748zm8.1874 4.37c-.2089 0-.4846-.009-.6099-.025v-1.245c.1086.025.3676.033.5013.033.8521 0 1.32-.384 1.6959-1.437l.1588-.493-3.3335-9.123h1.5456l2.5398 7.586h.1086l2.5318-7.586h1.512l-3.4172 9.399c-.7937 2.231-1.554 2.891-3.2332 2.891z" fill="#7ee687"/><path d="m28.8808 503.395-5.7479 3.183v.15l5.7479 3.183v1.596l-7.1848-4.236v-1.236l7.1848-4.236zm4.737 9.75h-1.3868l5.8732-14.345h1.3952zm51.5389-9.75v-1.596l7.1849 4.236v1.236l-7.1849 4.236v-1.596l5.7395-3.183v-.15z" fill="#f0f6fb"/><path d="m42.7242 512v-12.624h1.3702v5.163h.1169c.4762-1.127 1.5205-1.762 2.9074-1.762 1.9716 0 3.041 1.186 3.041 3.35v5.873h-1.4202v-5.514c0-1.629-.6684-2.406-2.0887-2.406-1.4954 0-2.5063 1.044-2.5063 2.59v5.33zm12.749-11.496h1.4035v2.456h3.676v1.212h-3.6593v5.113c0 .986.6935 1.52 1.9717 1.52.5096 0 1.4203-.025 1.6625-.05v1.203c-.2255.042-1.3283.084-1.7628.084-2.2473 0-3.2916-.852-3.2916-2.741v-5.129h-2.4145v-1.212h2.4145zm16.4917 4.821v6.675h-1.2782v-6.258c0-1.102-.401-1.679-1.1613-1.679-.7936 0-1.2782.694-1.2782 1.822v6.115h-1.2699v-6.266c0-1.094-.401-1.671-1.1696-1.671-.802 0-1.3033.694-1.3033 1.822v6.115h-1.2783v-9.065h1.2699v1.279h.1504c.2256-.911.8772-1.446 1.7294-1.446.8521 0 1.4537.527 1.6458 1.421h.1504c.2339-.869.9608-1.421 1.8714-1.421 1.2615 0 1.9215.878 1.9215 2.557zm10.1675 6.675h-7.5107v-1.178h3.0995v-10.268h-3.0745v-1.178h4.4948v11.446h2.9909z" fill="#7ee687"/></svg>