<svg width="518" height="533" viewBox="0 0 518 533" fill="none" xmlns="http://www.w3.org/2000/svg">
<rect width="518" height="533" rx="2" fill="black" fill-opacity="0.8"/>
<path d="M21.962 24.808C21.782 24.682 21.602 24.502 21.602 24.16C21.602 23.782 21.782 23.638 21.962 23.512L28.964 18.634C29.108 18.526 29.288 18.472 29.468 18.472C29.954 18.472 30.206 18.742 30.206 19.156C30.206 19.408 30.152 19.66 29.936 19.804L23.528 24.16L29.936 28.516C30.152 28.66 30.206 28.912 30.206 29.164C30.206 29.542 29.882 29.848 29.468 29.848C29.288 29.848 29.108 29.794 28.964 29.686L21.962 24.808ZM36.8375 25.078V18.04C36.8375 17.536 37.0715 17.14 37.5575 17.14C38.0435 17.14 38.2775 17.554 38.2775 18.04V25.078C38.2775 25.564 38.0615 25.978 37.5575 25.978C37.0535 25.978 36.8375 25.582 36.8375 25.078ZM36.2615 30.1V29.614C36.2615 28.948 36.6755 28.534 37.3415 28.534H37.7555C38.4215 28.534 38.8355 28.93 38.8355 29.614V30.1C38.8355 30.784 38.4215 31.18 37.7555 31.18H37.3415C36.6755 31.18 36.2615 30.766 36.2615 30.1ZM51.5689 27.94V24.61C50.9929 23.458 50.0389 22.702 48.8149 22.702C47.2669 22.702 46.3669 24.07 46.3669 26.248C46.3669 28.678 47.3929 29.866 49.0309 29.866C50.0749 29.866 51.1369 28.984 51.5689 27.94ZM53.0089 30.334C53.0089 30.82 52.7749 31.234 52.2889 31.234C51.8029 31.234 51.5689 30.838 51.5689 30.334V30.082C51.0469 30.694 50.0029 31.288 48.9229 31.288C46.8349 31.288 44.9269 29.614 44.9269 26.248C44.9269 23.296 46.4929 21.298 48.7609 21.298C49.8049 21.298 50.7769 21.712 51.5689 22.468V17.986C51.5689 17.482 51.8029 17.086 52.2889 17.086C52.7749 17.086 53.0089 17.5 53.0089 17.986V30.334ZM56.5984 26.266C56.5984 23.422 58.3444 21.208 60.9184 21.208C63.4024 21.208 65.2384 23.422 65.2384 26.266C65.2384 29.074 63.4384 31.288 60.9184 31.288C58.3804 31.288 56.5984 29.11 56.5984 26.266ZM58.0384 26.266C58.0384 28.228 59.0644 29.848 60.9184 29.848C62.7724 29.848 63.7984 28.228 63.7984 26.266C63.7984 24.106 62.7364 22.648 60.9184 22.648C59.0824 22.648 58.0384 24.124 58.0384 26.266ZM68.9178 26.248C68.9178 22.99 71.1138 21.316 73.1658 21.316C75.0018 21.316 76.0638 22.594 76.0638 23.188C76.0638 23.692 75.7578 23.926 75.3798 23.926C74.4798 23.926 74.5878 22.756 73.1298 22.756C71.5278 22.756 70.3578 24.088 70.3578 26.248C70.3578 28.48 71.5458 29.884 73.0398 29.884C74.8038 29.884 74.8758 28.426 75.7758 28.426C76.1178 28.426 76.4058 28.66 76.4058 29.074C76.4058 29.902 75.0738 31.324 73.1298 31.324C70.8438 31.324 68.9178 29.614 68.9178 26.248ZM80.0673 22.234C80.0673 21.748 80.4813 21.514 80.9673 21.514H82.4973V19.696C82.4973 19.174 82.7493 18.796 83.2533 18.796C83.7573 18.796 83.9373 19.21 83.9373 19.696V21.514H86.8353C87.3213 21.514 87.7353 21.748 87.7353 22.234C87.7353 22.72 87.3213 22.954 86.8353 22.954H83.9373V27.418C83.9373 28.966 83.9373 29.794 85.3233 29.794C86.4393 29.794 86.6013 29.326 87.1233 29.326C87.6093 29.326 87.7893 29.578 87.7893 30.064C87.7893 30.658 86.5833 31.234 85.4673 31.234C83.2893 31.234 82.4973 30.208 82.4973 27.382V22.954H80.9673C80.4813 22.954 80.0673 22.72 80.0673 22.234ZM91.5047 33.538C91.5047 33.034 91.9187 32.818 92.6927 32.818C92.8727 32.818 93.1967 32.44 93.3227 32.224L95.2667 28.66L92.0807 23.152C92.0087 23.026 91.6307 22.414 91.6307 22.072C91.6307 21.748 91.8647 21.352 92.3507 21.352C92.7827 21.352 93.0527 21.856 93.2327 22.18L96.0947 27.184L98.8667 22.072C99.0647 21.712 99.2807 21.352 99.6947 21.352C100.181 21.352 100.397 21.694 100.397 22C100.397 22.162 100.289 22.558 100.055 22.972L94.4027 33.07C94.0607 33.7 93.6107 34.294 92.7107 34.294C92.1527 34.294 91.5047 34.168 91.5047 33.538ZM107.856 22.702C106.812 22.702 105.75 23.584 105.318 24.628V27.958C105.894 29.11 106.848 29.866 108.072 29.866C109.62 29.866 110.52 28.498 110.52 26.32C110.52 23.89 109.494 22.702 107.856 22.702ZM103.878 34.582V22.234C103.878 21.748 104.112 21.334 104.598 21.334C105.084 21.334 105.318 21.73 105.318 22.234V22.486C105.84 21.874 106.884 21.28 107.964 21.28C110.052 21.28 111.96 22.954 111.96 26.32C111.96 29.272 110.394 31.27 108.126 31.27C107.082 31.27 106.11 30.856 105.318 30.1V34.582C105.318 35.086 105.084 35.482 104.598 35.482C104.112 35.482 103.878 35.068 103.878 34.582ZM115.424 26.068C115.424 23.386 117.422 21.208 119.69 21.208C122.426 21.208 123.56 23.476 123.56 25.384C123.56 26.158 123.308 26.572 122.534 26.572H116.9C117.062 28.714 118.232 29.83 119.924 29.83C121.616 29.83 122.084 28.804 122.696 28.804C123.056 28.804 123.362 29.02 123.362 29.452C123.362 30.298 121.472 31.27 120.068 31.27C117.062 31.27 115.424 29.11 115.424 26.068ZM116.99 25.132H121.976C121.868 23.62 121.202 22.648 119.636 22.648C117.998 22.648 117.296 23.836 116.99 25.132ZM139.163 30.334V17.986C139.163 17.482 139.397 17.086 139.883 17.086C140.369 17.086 140.603 17.5 140.603 17.986V22.378C141.125 21.856 142.115 21.334 143.213 21.334C145.337 21.334 146.435 23.08 146.435 25.672V30.334C146.435 30.82 146.201 31.234 145.715 31.234C145.229 31.234 144.995 30.82 144.995 30.334V25.636C144.995 23.638 144.329 22.738 143.051 22.738C142.061 22.738 141.089 23.296 140.603 24.232V30.334C140.603 30.82 140.369 31.234 139.883 31.234C139.397 31.234 139.163 30.838 139.163 30.334ZM150.204 22.234C150.204 21.748 150.618 21.514 151.104 21.514H152.634V19.696C152.634 19.174 152.886 18.796 153.39 18.796C153.894 18.796 154.074 19.21 154.074 19.696V21.514H156.972C157.458 21.514 157.872 21.748 157.872 22.234C157.872 22.72 157.458 22.954 156.972 22.954H154.074V27.418C154.074 28.966 154.074 29.794 155.46 29.794C156.576 29.794 156.738 29.326 157.26 29.326C157.746 29.326 157.926 29.578 157.926 30.064C157.926 30.658 156.72 31.234 155.604 31.234C153.426 31.234 152.634 30.208 152.634 27.382V22.954H151.104C150.618 22.954 150.204 22.72 150.204 22.234ZM161.461 30.334V22.252C161.461 21.748 161.731 21.352 162.217 21.352C162.523 21.352 162.757 21.514 162.973 22.072C163.243 21.658 163.801 21.298 164.431 21.298C165.169 21.298 165.835 21.694 166.195 22.144C166.681 21.712 167.509 21.298 168.247 21.298C169.615 21.298 170.767 22.414 170.767 24.394V30.334C170.767 30.82 170.533 31.234 170.047 31.234C169.561 31.234 169.327 30.838 169.327 30.334V24.412C169.327 23.296 168.895 22.738 168.175 22.738C167.365 22.738 166.843 23.26 166.843 24.394V30.334C166.843 30.82 166.609 31.234 166.123 31.234C165.637 31.234 165.403 30.838 165.403 30.334V24.412C165.403 23.26 164.881 22.738 164.161 22.738C163.513 22.738 162.901 23.224 162.901 24.43V30.334C162.901 30.82 162.667 31.234 162.181 31.234C161.695 31.234 161.461 30.838 161.461 30.334ZM175.851 26.896V18.004C175.851 17.5 176.085 17.086 176.589 17.086C177.075 17.086 177.291 17.5 177.291 18.004V26.896C177.291 28.444 177.885 29.686 180.153 29.686C180.891 29.686 181.305 29.92 181.305 30.406C181.305 30.892 180.891 31.126 180.099 31.126C177.147 31.126 175.851 29.83 175.851 26.896ZM195.172 23.512C195.352 23.638 195.532 23.818 195.532 24.16C195.532 24.538 195.352 24.682 195.172 24.808L188.17 29.686C188.026 29.794 187.846 29.848 187.666 29.848C187.18 29.848 186.928 29.578 186.928 29.164C186.928 28.912 186.982 28.66 187.198 28.516L193.606 24.16L187.198 19.804C186.982 19.66 186.928 19.408 186.928 19.156C186.928 18.778 187.252 18.472 187.666 18.472C187.846 18.472 188.026 18.526 188.17 18.634L195.172 23.512Z" fill="#1E90FF"/>
<path d="M21.962 55.808C21.782 55.682 21.602 55.502 21.602 55.16C21.602 54.782 21.782 54.638 21.962 54.512L28.964 49.634C29.108 49.526 29.288 49.472 29.468 49.472C29.954 49.472 30.206 49.742 30.206 50.156C30.206 50.408 30.152 50.66 29.936 50.804L23.528 55.16L29.936 59.516C30.152 59.66 30.206 59.912 30.206 60.164C30.206 60.542 29.882 60.848 29.468 60.848C29.288 60.848 29.108 60.794 28.964 60.686L21.962 55.808ZM89.9673 54.512C90.1473 54.638 90.3273 54.818 90.3273 55.16C90.3273 55.538 90.1473 55.682 89.9673 55.808L82.9653 60.686C82.8213 60.794 82.6413 60.848 82.4613 60.848C81.9753 60.848 81.7233 60.578 81.7233 60.164C81.7233 59.912 81.7773 59.66 81.9933 59.516L88.4013 55.16L81.9933 50.804C81.7773 50.66 81.7233 50.408 81.7233 50.156C81.7233 49.778 82.0473 49.472 82.4613 49.472C82.6413 49.472 82.8213 49.526 82.9653 49.634L89.9673 54.512Z" fill="white" fill-opacity="0.66"/>
<path d="M33.9575 61.334V48.986C33.9575 48.482 34.1915 48.086 34.6775 48.086C35.1635 48.086 35.3975 48.5 35.3975 48.986V53.378C35.9195 52.856 36.9095 52.334 38.0075 52.334C40.1315 52.334 41.2295 54.08 41.2295 56.672V61.334C41.2295 61.82 40.9955 62.234 40.5095 62.234C40.0235 62.234 39.7895 61.82 39.7895 61.334V56.636C39.7895 54.638 39.1235 53.738 37.8455 53.738C36.8555 53.738 35.8835 54.296 35.3975 55.232V61.334C35.3975 61.82 35.1635 62.234 34.6775 62.234C34.1915 62.234 33.9575 61.838 33.9575 61.334ZM44.9989 53.234C44.9989 52.748 45.4129 52.514 45.8989 52.514H47.4289V50.696C47.4289 50.174 47.6809 49.796 48.1849 49.796C48.6889 49.796 48.8689 50.21 48.8689 50.696V52.514H51.7669C52.2529 52.514 52.6669 52.748 52.6669 53.234C52.6669 53.72 52.2529 53.954 51.7669 53.954H48.8689V58.418C48.8689 59.966 48.8689 60.794 50.2549 60.794C51.3709 60.794 51.5329 60.326 52.0549 60.326C52.5409 60.326 52.7209 60.578 52.7209 61.064C52.7209 61.658 51.5149 62.234 50.3989 62.234C48.2209 62.234 47.4289 61.208 47.4289 58.382V53.954H45.8989C45.4129 53.954 44.9989 53.72 44.9989 53.234ZM56.2564 61.334V53.252C56.2564 52.748 56.5264 52.352 57.0124 52.352C57.3184 52.352 57.5524 52.514 57.7684 53.072C58.0384 52.658 58.5964 52.298 59.2264 52.298C59.9644 52.298 60.6304 52.694 60.9904 53.144C61.4764 52.712 62.3044 52.298 63.0424 52.298C64.4104 52.298 65.5624 53.414 65.5624 55.394V61.334C65.5624 61.82 65.3284 62.234 64.8424 62.234C64.3564 62.234 64.1224 61.838 64.1224 61.334V55.412C64.1224 54.296 63.6904 53.738 62.9704 53.738C62.1604 53.738 61.6384 54.26 61.6384 55.394V61.334C61.6384 61.82 61.4044 62.234 60.9184 62.234C60.4324 62.234 60.1984 61.838 60.1984 61.334V55.412C60.1984 54.26 59.6764 53.738 58.9564 53.738C58.3084 53.738 57.6964 54.224 57.6964 55.43V61.334C57.6964 61.82 57.4624 62.234 56.9764 62.234C56.4904 62.234 56.2564 61.838 56.2564 61.334ZM70.6458 57.896V49.004C70.6458 48.5 70.8798 48.086 71.3838 48.086C71.8698 48.086 72.0858 48.5 72.0858 49.004V57.896C72.0858 59.444 72.6798 60.686 74.9478 60.686C75.6858 60.686 76.0998 60.92 76.0998 61.406C76.0998 61.892 75.6858 62.126 74.8938 62.126C71.9418 62.126 70.6458 60.83 70.6458 57.896Z" fill="#32CD32"/>
<rect x="20" y="80" width="478" height="135" rx="4" fill="white" fill-opacity="0.0666"/>
<path d="M41.962 102.808C41.782 102.682 41.602 102.502 41.602 102.16C41.602 101.782 41.782 101.638 41.962 101.512L48.964 96.634C49.108 96.526 49.288 96.472 49.468 96.472C49.954 96.472 50.206 96.742 50.206 97.156C50.206 97.408 50.152 97.66 49.936 97.804L43.528 102.16L49.936 106.516C50.152 106.66 50.206 106.912 50.206 107.164C50.206 107.542 49.882 107.848 49.468 107.848C49.288 107.848 49.108 107.794 48.964 107.686L41.962 102.808ZM109.967 101.512C110.147 101.638 110.327 101.818 110.327 102.16C110.327 102.538 110.147 102.682 109.967 102.808L102.965 107.686C102.821 107.794 102.641 107.848 102.461 107.848C101.975 107.848 101.723 107.578 101.723 107.164C101.723 106.912 101.777 106.66 101.993 106.516L108.401 102.16L101.993 97.804C101.777 97.66 101.723 97.408 101.723 97.156C101.723 96.778 102.047 96.472 102.461 96.472C102.641 96.472 102.821 96.526 102.965 96.634L109.967 101.512Z" fill="white" fill-opacity="0.66"/>
<path d="M53.9575 108.334V95.986C53.9575 95.482 54.1915 95.086 54.6775 95.086C55.1635 95.086 55.3975 95.5 55.3975 95.986V100.378C55.9195 99.856 56.9095 99.334 58.0075 99.334C60.1315 99.334 61.2295 101.08 61.2295 103.672V108.334C61.2295 108.82 60.9955 109.234 60.5095 109.234C60.0235 109.234 59.7895 108.82 59.7895 108.334V103.636C59.7895 101.638 59.1235 100.738 57.8455 100.738C56.8555 100.738 55.8835 101.296 55.3975 102.232V108.334C55.3975 108.82 55.1635 109.234 54.6775 109.234C54.1915 109.234 53.9575 108.838 53.9575 108.334ZM65.2869 104.068C65.2869 101.386 67.2849 99.208 69.5529 99.208C72.2889 99.208 73.4229 101.476 73.4229 103.384C73.4229 104.158 73.1709 104.572 72.3969 104.572H66.7629C66.9249 106.714 68.0949 107.83 69.7869 107.83C71.4789 107.83 71.9469 106.804 72.5589 106.804C72.9189 106.804 73.2249 107.02 73.2249 107.452C73.2249 108.298 71.3349 109.27 69.9309 109.27C66.9249 109.27 65.2869 107.11 65.2869 104.068ZM66.8529 103.132H71.8389C71.7309 101.62 71.0649 100.648 69.4989 100.648C67.8609 100.648 67.1589 101.836 66.8529 103.132ZM78.5604 106.336C78.5604 107.434 79.5324 107.812 80.1444 107.848C81.6384 107.848 82.5744 106.894 83.1504 105.958V104.644C80.1984 104.644 78.5604 104.968 78.5604 106.336ZM77.1204 106.516C77.1204 104.23 78.8484 103.384 83.1504 103.366C83.2224 101.386 82.3584 100.648 80.7564 100.648C79.2084 100.648 78.9204 101.692 78.2904 101.692C77.8404 101.692 77.5884 101.476 77.5884 100.972C77.5884 100.162 79.0464 99.208 80.7564 99.208C83.2944 99.208 84.5904 100.882 84.5904 102.754V108.334C84.5904 108.82 84.3564 109.234 83.8704 109.234C83.3844 109.234 83.1504 108.82 83.1504 107.83C82.6824 108.694 81.4584 109.252 80.3244 109.252C78.7944 109.252 77.1204 108.28 77.1204 106.516ZM94.9478 105.94V102.61C94.3718 101.458 93.4178 100.702 92.1938 100.702C90.6458 100.702 89.7458 102.07 89.7458 104.248C89.7458 106.678 90.7718 107.866 92.4098 107.866C93.4538 107.866 94.5158 106.984 94.9478 105.94ZM96.3878 108.334C96.3878 108.82 96.1538 109.234 95.6678 109.234C95.1818 109.234 94.9478 108.838 94.9478 108.334V108.082C94.4258 108.694 93.3818 109.288 92.3018 109.288C90.2138 109.288 88.3058 107.614 88.3058 104.248C88.3058 101.296 89.8718 99.298 92.1398 99.298C93.1838 99.298 94.1558 99.712 94.9478 100.468V95.986C94.9478 95.482 95.1818 95.086 95.6678 95.086C96.1538 95.086 96.3878 95.5 96.3878 95.986V108.334Z" fill="#32CD32"/>
<rect x="40" y="125" width="438" height="45" rx="4" fill="white" fill-opacity="0.0666"/>
<path d="M61.962 147.808C61.782 147.682 61.602 147.502 61.602 147.16C61.602 146.782 61.782 146.638 61.962 146.512L68.964 141.634C69.108 141.526 69.288 141.472 69.468 141.472C69.954 141.472 70.206 141.742 70.206 142.156C70.206 142.408 70.152 142.66 69.936 142.804L63.528 147.16L69.936 151.516C70.152 151.66 70.206 151.912 70.206 152.164C70.206 152.542 69.882 152.848 69.468 152.848C69.288 152.848 69.108 152.794 68.964 152.686L61.962 147.808ZM141.657 146.512C141.837 146.638 142.017 146.818 142.017 147.16C142.017 147.538 141.837 147.682 141.657 147.808L134.655 152.686C134.511 152.794 134.331 152.848 134.151 152.848C133.665 152.848 133.413 152.578 133.413 152.164C133.413 151.912 133.467 151.66 133.683 151.516L140.091 147.16L133.683 142.804C133.467 142.66 133.413 142.408 133.413 142.156C133.413 141.778 133.737 141.472 134.151 141.472C134.331 141.472 134.511 141.526 134.655 141.634L141.657 146.512ZM260.683 147.808C260.503 147.682 260.323 147.502 260.323 147.16C260.323 146.782 260.503 146.638 260.683 146.512L267.685 141.634C267.829 141.526 268.009 141.472 268.189 141.472C268.675 141.472 268.927 141.742 268.927 142.156C268.927 142.408 268.873 142.66 268.657 142.804L262.249 147.16L268.657 151.516C268.873 151.66 268.927 151.912 268.927 152.164C268.927 152.542 268.603 152.848 268.189 152.848C268.009 152.848 267.829 152.794 267.685 152.686L260.683 147.808ZM272.966 153.532C272.966 153.406 273.02 153.1 273.074 152.992L278.078 140.77C278.204 140.464 278.438 140.086 278.798 140.086C279.248 140.086 279.518 140.338 279.518 140.788C279.518 140.914 279.446 141.22 279.392 141.328L274.352 153.676C274.244 153.982 274.01 154.234 273.722 154.234C273.236 154.234 272.966 153.856 272.966 153.532ZM352.067 146.512C352.247 146.638 352.427 146.818 352.427 147.16C352.427 147.538 352.247 147.682 352.067 147.808L345.065 152.686C344.921 152.794 344.741 152.848 344.561 152.848C344.075 152.848 343.823 152.578 343.823 152.164C343.823 151.912 343.877 151.66 344.093 151.516L350.501 147.16L344.093 142.804C343.877 142.66 343.823 142.408 343.823 142.156C343.823 141.778 344.147 141.472 344.561 141.472C344.741 141.472 344.921 141.526 345.065 141.634L352.067 146.512Z" fill="white" fill-opacity="0.66"/>
<path d="M73.3095 145.234C73.3095 144.748 73.7235 144.514 74.2095 144.514H75.7395V142.696C75.7395 142.174 75.9915 141.796 76.4955 141.796C76.9995 141.796 77.1795 142.21 77.1795 142.696V144.514H80.0775C80.5635 144.514 80.9775 144.748 80.9775 145.234C80.9775 145.72 80.5635 145.954 80.0775 145.954H77.1795V150.418C77.1795 151.966 77.1795 152.794 78.5655 152.794C79.6815 152.794 79.8435 152.326 80.3655 152.326C80.8515 152.326 81.0315 152.578 81.0315 153.064C81.0315 153.658 79.8255 154.234 78.7095 154.234C76.5315 154.234 75.7395 153.208 75.7395 150.382V145.954H74.2095C73.7235 145.954 73.3095 145.72 73.3095 145.234ZM88.6349 141.454V140.986C88.6349 140.482 89.0489 140.086 89.5349 140.086H89.9849C90.4709 140.086 90.8849 140.482 90.8849 140.986V141.454C90.8849 141.958 90.4709 142.354 89.9849 142.354H89.5349C89.0489 142.354 88.6349 141.958 88.6349 141.454ZM85.9709 145.108C85.9709 144.622 86.3669 144.388 86.8709 144.388H89.5709C90.4349 144.388 90.8309 144.784 90.8309 145.648V153.262C90.8309 153.766 90.5969 154.162 90.1109 154.162C89.6249 154.162 89.3909 153.748 89.3909 153.262V145.828H86.8709C86.3849 145.828 85.9709 145.594 85.9709 145.108ZM96.6884 145.234C96.6884 144.748 97.1024 144.514 97.5884 144.514H99.1184V142.696C99.1184 142.174 99.3704 141.796 99.8744 141.796C100.378 141.796 100.558 142.21 100.558 142.696V144.514H103.456C103.942 144.514 104.356 144.748 104.356 145.234C104.356 145.72 103.942 145.954 103.456 145.954H100.558V150.418C100.558 151.966 100.558 152.794 101.944 152.794C103.06 152.794 103.222 152.326 103.744 152.326C104.23 152.326 104.41 152.578 104.41 153.064C104.41 153.658 103.204 154.234 102.088 154.234C99.9104 154.234 99.1184 153.208 99.1184 150.382V145.954H97.5884C97.1024 145.954 96.6884 145.72 96.6884 145.234ZM110.646 149.896V141.004C110.646 140.5 110.88 140.086 111.384 140.086C111.87 140.086 112.086 140.5 112.086 141.004V149.896C112.086 151.444 112.68 152.686 114.948 152.686C115.686 152.686 116.1 152.92 116.1 153.406C116.1 153.892 115.686 154.126 114.894 154.126C111.942 154.126 110.646 152.83 110.646 149.896ZM120.355 149.068C120.355 146.386 122.353 144.208 124.621 144.208C127.357 144.208 128.491 146.476 128.491 148.384C128.491 149.158 128.239 149.572 127.465 149.572H121.831C121.993 151.714 123.163 152.83 124.855 152.83C126.547 152.83 127.015 151.804 127.627 151.804C127.987 151.804 128.293 152.02 128.293 152.452C128.293 153.298 126.403 154.27 124.999 154.27C121.993 154.27 120.355 152.11 120.355 149.068ZM121.921 148.132H126.907C126.799 146.62 126.133 145.648 124.567 145.648C122.929 145.648 122.227 146.836 121.921 148.132ZM283.72 145.234C283.72 144.748 284.134 144.514 284.62 144.514H286.15V142.696C286.15 142.174 286.402 141.796 286.906 141.796C287.41 141.796 287.59 142.21 287.59 142.696V144.514H290.488C290.974 144.514 291.388 144.748 291.388 145.234C291.388 145.72 290.974 145.954 290.488 145.954H287.59V150.418C287.59 151.966 287.59 152.794 288.976 152.794C290.092 152.794 290.254 152.326 290.776 152.326C291.262 152.326 291.442 152.578 291.442 153.064C291.442 153.658 290.236 154.234 289.12 154.234C286.942 154.234 286.15 153.208 286.15 150.382V145.954H284.62C284.134 145.954 283.72 145.72 283.72 145.234ZM299.045 141.454V140.986C299.045 140.482 299.459 140.086 299.945 140.086H300.395C300.881 140.086 301.295 140.482 301.295 140.986V141.454C301.295 141.958 300.881 142.354 300.395 142.354H299.945C299.459 142.354 299.045 141.958 299.045 141.454ZM296.381 145.108C296.381 144.622 296.777 144.388 297.281 144.388H299.981C300.845 144.388 301.241 144.784 301.241 145.648V153.262C301.241 153.766 301.007 154.162 300.521 154.162C300.035 154.162 299.801 153.748 299.801 153.262V145.828H297.281C296.795 145.828 296.381 145.594 296.381 145.108ZM307.099 145.234C307.099 144.748 307.513 144.514 307.999 144.514H309.529V142.696C309.529 142.174 309.781 141.796 310.285 141.796C310.789 141.796 310.969 142.21 310.969 142.696V144.514H313.867C314.353 144.514 314.767 144.748 314.767 145.234C314.767 145.72 314.353 145.954 313.867 145.954H310.969V150.418C310.969 151.966 310.969 152.794 312.355 152.794C313.471 152.794 313.633 152.326 314.155 152.326C314.641 152.326 314.821 152.578 314.821 153.064C314.821 153.658 313.615 154.234 312.499 154.234C310.321 154.234 309.529 153.208 309.529 150.382V145.954H307.999C307.513 145.954 307.099 145.72 307.099 145.234ZM321.056 149.896V141.004C321.056 140.5 321.29 140.086 321.794 140.086C322.28 140.086 322.496 140.5 322.496 141.004V149.896C322.496 151.444 323.09 152.686 325.358 152.686C326.096 152.686 326.51 152.92 326.51 153.406C326.51 153.892 326.096 154.126 325.304 154.126C322.352 154.126 321.056 152.83 321.056 149.896ZM330.765 149.068C330.765 146.386 332.763 144.208 335.031 144.208C337.767 144.208 338.901 146.476 338.901 148.384C338.901 149.158 338.649 149.572 337.875 149.572H332.241C332.403 151.714 333.573 152.83 335.265 152.83C336.957 152.83 337.425 151.804 338.037 151.804C338.397 151.804 338.703 152.02 338.703 152.452C338.703 153.298 336.813 154.27 335.409 154.27C332.403 154.27 330.765 152.11 330.765 149.068ZM332.331 148.132H337.317C337.209 146.62 336.543 145.648 334.977 145.648C333.339 145.648 332.637 146.836 332.331 148.132Z" fill="#32CD32"/>
<path d="M143.878 153.28V142.462C143.878 141.796 144.274 141.382 144.958 141.382H147.514C150.07 141.382 151.834 142.786 151.834 145.09C151.834 147.538 149.854 148.654 147.514 148.654H145.318V153.28C145.318 153.784 145.084 154.18 144.598 154.18C144.112 154.18 143.878 153.766 143.878 153.28ZM145.318 147.214H147.514C149.008 147.214 150.322 146.674 150.394 145.09C150.394 143.578 149.224 142.822 147.514 142.822H145.318V147.214ZM157.008 151.336C157.008 152.434 157.98 152.812 158.592 152.848C160.086 152.848 161.022 151.894 161.598 150.958V149.644C158.646 149.644 157.008 149.968 157.008 151.336ZM155.568 151.516C155.568 149.23 157.296 148.384 161.598 148.366C161.67 146.386 160.806 145.648 159.204 145.648C157.656 145.648 157.368 146.692 156.738 146.692C156.288 146.692 156.036 146.476 156.036 145.972C156.036 145.162 157.494 144.208 159.204 144.208C161.742 144.208 163.038 145.882 163.038 147.754V153.334C163.038 153.82 162.804 154.234 162.318 154.234C161.832 154.234 161.598 153.82 161.598 152.83C161.13 153.694 159.906 154.252 158.772 154.252C157.242 154.252 155.568 153.28 155.568 151.516ZM168.247 149.158C168.247 150.562 169.165 152.218 170.821 152.218C172.225 152.218 173.017 151.39 173.485 150.526V147.268C172.909 146.422 172.063 145.828 170.893 145.738C169.075 145.738 168.247 147.43 168.247 149.158ZM166.807 149.158C166.807 146.422 168.391 144.298 170.875 144.298C171.775 144.298 172.999 144.802 173.485 145.36C173.521 144.73 173.755 144.352 174.205 144.352C174.691 144.352 174.925 144.766 174.925 145.252V153.442C174.925 155.998 173.359 157.474 171.055 157.474C169.399 157.474 167.203 156.502 167.203 155.728C167.203 155.296 167.437 154.972 167.851 154.972C168.769 154.972 169.219 155.98 171.055 155.98C172.585 155.98 173.485 155.08 173.485 153.514V152.488C173.143 153.01 172.189 153.658 170.821 153.658C168.445 153.658 166.807 151.606 166.807 149.158ZM178.803 149.068C178.803 146.386 180.801 144.208 183.069 144.208C185.805 144.208 186.939 146.476 186.939 148.384C186.939 149.158 186.687 149.572 185.913 149.572H180.279C180.441 151.714 181.611 152.83 183.303 152.83C184.995 152.83 185.463 151.804 186.075 151.804C186.435 151.804 186.741 152.02 186.741 152.452C186.741 153.298 184.851 154.27 183.447 154.27C180.441 154.27 178.803 152.11 178.803 149.068ZM180.369 148.132H185.355C185.247 146.62 184.581 145.648 183.015 145.648C181.377 145.648 180.675 146.836 180.369 148.132ZM201.893 145.234C201.893 144.748 202.307 144.514 202.793 144.514H204.323V142.696C204.323 142.174 204.575 141.796 205.079 141.796C205.583 141.796 205.763 142.21 205.763 142.696V144.514H208.661C209.147 144.514 209.561 144.748 209.561 145.234C209.561 145.72 209.147 145.954 208.661 145.954H205.763V150.418C205.763 151.966 205.763 152.794 207.149 152.794C208.265 152.794 208.427 152.326 208.949 152.326C209.435 152.326 209.615 152.578 209.615 153.064C209.615 153.658 208.409 154.234 207.293 154.234C205.115 154.234 204.323 153.208 204.323 150.382V145.954H202.793C202.307 145.954 201.893 145.72 201.893 145.234ZM217.219 141.454V140.986C217.219 140.482 217.633 140.086 218.119 140.086H218.569C219.055 140.086 219.469 140.482 219.469 140.986V141.454C219.469 141.958 219.055 142.354 218.569 142.354H218.119C217.633 142.354 217.219 141.958 217.219 141.454ZM214.555 145.108C214.555 144.622 214.951 144.388 215.455 144.388H218.155C219.019 144.388 219.415 144.784 219.415 145.648V153.262C219.415 153.766 219.181 154.162 218.695 154.162C218.209 154.162 217.975 153.748 217.975 153.262V145.828H215.455C214.969 145.828 214.555 145.594 214.555 145.108ZM225.272 145.234C225.272 144.748 225.686 144.514 226.172 144.514H227.702V142.696C227.702 142.174 227.954 141.796 228.458 141.796C228.962 141.796 229.142 142.21 229.142 142.696V144.514H232.04C232.526 144.514 232.94 144.748 232.94 145.234C232.94 145.72 232.526 145.954 232.04 145.954H229.142V150.418C229.142 151.966 229.142 152.794 230.528 152.794C231.644 152.794 231.806 152.326 232.328 152.326C232.814 152.326 232.994 152.578 232.994 153.064C232.994 153.658 231.788 154.234 230.672 154.234C228.494 154.234 227.702 153.208 227.702 150.382V145.954H226.172C225.686 145.954 225.272 145.72 225.272 145.234ZM239.23 149.896V141.004C239.23 140.5 239.464 140.086 239.968 140.086C240.454 140.086 240.67 140.5 240.67 141.004V149.896C240.67 151.444 241.264 152.686 243.532 152.686C244.27 152.686 244.684 152.92 244.684 153.406C244.684 153.892 244.27 154.126 243.478 154.126C240.526 154.126 239.23 152.83 239.23 149.896ZM248.939 149.068C248.939 146.386 250.937 144.208 253.205 144.208C255.941 144.208 257.075 146.476 257.075 148.384C257.075 149.158 256.823 149.572 256.049 149.572H250.415C250.577 151.714 251.747 152.83 253.439 152.83C255.131 152.83 255.599 151.804 256.211 151.804C256.571 151.804 256.877 152.02 256.877 152.452C256.877 153.298 254.987 154.27 253.583 154.27C250.577 154.27 248.939 152.11 248.939 149.068ZM250.505 148.132H255.491C255.383 146.62 254.717 145.648 253.151 145.648C251.513 145.648 250.811 146.836 250.505 148.132Z" fill="white"/>
<path d="M41.962 192.808C41.782 192.682 41.602 192.502 41.602 192.16C41.602 191.782 41.782 191.638 41.962 191.512L48.964 186.634C49.108 186.526 49.288 186.472 49.468 186.472C49.954 186.472 50.206 186.742 50.206 187.156C50.206 187.408 50.152 187.66 49.936 187.804L43.528 192.16L49.936 196.516C50.152 196.66 50.206 196.912 50.206 197.164C50.206 197.542 49.882 197.848 49.468 197.848C49.288 197.848 49.108 197.794 48.964 197.686L41.962 192.808ZM54.2455 198.532C54.2455 198.406 54.2995 198.1 54.3535 197.992L59.3575 185.77C59.4835 185.464 59.7175 185.086 60.0775 185.086C60.5275 185.086 60.7975 185.338 60.7975 185.788C60.7975 185.914 60.7255 186.22 60.6715 186.328L55.6315 198.676C55.5235 198.982 55.2895 199.234 55.0015 199.234C54.5155 199.234 54.2455 198.856 54.2455 198.532ZM121.657 191.512C121.837 191.638 122.017 191.818 122.017 192.16C122.017 192.538 121.837 192.682 121.657 192.808L114.655 197.686C114.511 197.794 114.331 197.848 114.151 197.848C113.665 197.848 113.413 197.578 113.413 197.164C113.413 196.912 113.467 196.66 113.683 196.516L120.091 192.16L113.683 187.804C113.467 187.66 113.413 187.408 113.413 187.156C113.413 186.778 113.737 186.472 114.151 186.472C114.331 186.472 114.511 186.526 114.655 186.634L121.657 191.512Z" fill="white" fill-opacity="0.66"/>
<path d="M65.6469 198.334V185.986C65.6469 185.482 65.8809 185.086 66.3669 185.086C66.8529 185.086 67.0869 185.5 67.0869 185.986V190.378C67.6089 189.856 68.5989 189.334 69.6969 189.334C71.8209 189.334 72.9189 191.08 72.9189 193.672V198.334C72.9189 198.82 72.6849 199.234 72.1989 199.234C71.7129 199.234 71.4789 198.82 71.4789 198.334V193.636C71.4789 191.638 70.8129 190.738 69.5349 190.738C68.5449 190.738 67.5729 191.296 67.0869 192.232V198.334C67.0869 198.82 66.8529 199.234 66.3669 199.234C65.8809 199.234 65.6469 198.838 65.6469 198.334ZM76.9764 194.068C76.9764 191.386 78.9744 189.208 81.2424 189.208C83.9784 189.208 85.1124 191.476 85.1124 193.384C85.1124 194.158 84.8604 194.572 84.0864 194.572H78.4524C78.6144 196.714 79.7844 197.83 81.4764 197.83C83.1684 197.83 83.6364 196.804 84.2484 196.804C84.6084 196.804 84.9144 197.02 84.9144 197.452C84.9144 198.298 83.0244 199.27 81.6204 199.27C78.6144 199.27 76.9764 197.11 76.9764 194.068ZM78.5424 193.132H83.5284C83.4204 191.62 82.7544 190.648 81.1884 190.648C79.5504 190.648 78.8484 191.836 78.5424 193.132ZM90.2498 196.336C90.2498 197.434 91.2218 197.812 91.8338 197.848C93.3278 197.848 94.2638 196.894 94.8398 195.958V194.644C91.8878 194.644 90.2498 194.968 90.2498 196.336ZM88.8098 196.516C88.8098 194.23 90.5378 193.384 94.8398 193.366C94.9118 191.386 94.0478 190.648 92.4458 190.648C90.8978 190.648 90.6098 191.692 89.9798 191.692C89.5298 191.692 89.2778 191.476 89.2778 190.972C89.2778 190.162 90.7358 189.208 92.4458 189.208C94.9838 189.208 96.2798 190.882 96.2798 192.754V198.334C96.2798 198.82 96.0458 199.234 95.5598 199.234C95.0738 199.234 94.8398 198.82 94.8398 197.83C94.3718 198.694 93.1478 199.252 92.0138 199.252C90.4838 199.252 88.8098 198.28 88.8098 196.516ZM106.637 195.94V192.61C106.061 191.458 105.107 190.702 103.883 190.702C102.335 190.702 101.435 192.07 101.435 194.248C101.435 196.678 102.461 197.866 104.099 197.866C105.143 197.866 106.205 196.984 106.637 195.94ZM108.077 198.334C108.077 198.82 107.843 199.234 107.357 199.234C106.871 199.234 106.637 198.838 106.637 198.334V198.082C106.115 198.694 105.071 199.288 103.991 199.288C101.903 199.288 99.9953 197.614 99.9953 194.248C99.9953 191.296 101.561 189.298 103.829 189.298C104.873 189.298 105.845 189.712 106.637 190.468V185.986C106.637 185.482 106.871 185.086 107.357 185.086C107.843 185.086 108.077 185.5 108.077 185.986V198.334Z" fill="#32CD32"/>
<rect x="20" y="235" width="478" height="249" rx="4" fill="white" fill-opacity="0.0666"/>
<path d="M41.962 257.808C41.782 257.682 41.602 257.502 41.602 257.16C41.602 256.782 41.782 256.638 41.962 256.512L48.964 251.634C49.108 251.526 49.288 251.472 49.468 251.472C49.954 251.472 50.206 251.742 50.206 252.156C50.206 252.408 50.152 252.66 49.936 252.804L43.528 257.16L49.936 261.516C50.152 261.66 50.206 261.912 50.206 262.164C50.206 262.542 49.882 262.848 49.468 262.848C49.288 262.848 49.108 262.794 48.964 262.686L41.962 257.808ZM109.967 256.512C110.147 256.638 110.327 256.818 110.327 257.16C110.327 257.538 110.147 257.682 109.967 257.808L102.965 262.686C102.821 262.794 102.641 262.848 102.461 262.848C101.975 262.848 101.723 262.578 101.723 262.164C101.723 261.912 101.777 261.66 101.993 261.516L108.401 257.16L101.993 252.804C101.777 252.66 101.723 252.408 101.723 252.156C101.723 251.778 102.047 251.472 102.461 251.472C102.641 251.472 102.821 251.526 102.965 251.634L109.967 256.512Z" fill="white" fill-opacity="0.66"/>
<path d="M53.7415 263.334V250.986C53.7415 250.5 53.9755 250.086 54.4615 250.086C54.9475 250.086 55.1815 250.482 55.1815 250.986V255.468C55.9735 254.712 56.9455 254.298 57.9895 254.298C60.2575 254.298 61.8235 256.296 61.8235 259.248C61.8235 262.614 59.9155 264.288 57.8275 264.288C56.7475 264.288 55.7035 263.694 55.1815 263.082V263.334C55.1815 263.838 54.9475 264.234 54.4615 264.234C53.9755 264.234 53.7415 263.82 53.7415 263.334ZM55.1815 260.94C55.6135 261.984 56.6755 262.866 57.7195 262.866C59.3575 262.866 60.3835 261.678 60.3835 259.248C60.3835 257.07 59.4835 255.702 57.9355 255.702C56.7115 255.702 55.7575 256.458 55.1815 257.61V260.94ZM64.9089 259.266C64.9089 256.422 66.6549 254.208 69.2289 254.208C71.7129 254.208 73.5489 256.422 73.5489 259.266C73.5489 262.074 71.7489 264.288 69.2289 264.288C66.6909 264.288 64.9089 262.11 64.9089 259.266ZM66.3489 259.266C66.3489 261.228 67.3749 262.848 69.2289 262.848C71.0829 262.848 72.1089 261.228 72.1089 259.266C72.1089 257.106 71.0469 255.648 69.2289 255.648C67.3929 255.648 66.3489 257.124 66.3489 259.266ZM83.2584 260.94V257.61C82.6824 256.458 81.7284 255.702 80.5044 255.702C78.9564 255.702 78.0564 257.07 78.0564 259.248C78.0564 261.678 79.0824 262.866 80.7204 262.866C81.7644 262.866 82.8264 261.984 83.2584 260.94ZM84.6984 263.334C84.6984 263.82 84.4644 264.234 83.9784 264.234C83.4924 264.234 83.2584 263.838 83.2584 263.334V263.082C82.7364 263.694 81.6924 264.288 80.6124 264.288C78.5244 264.288 76.6164 262.614 76.6164 259.248C76.6164 256.296 78.1824 254.298 80.4504 254.298C81.4944 254.298 82.4664 254.712 83.2584 255.468V250.986C83.2584 250.482 83.4924 250.086 83.9784 250.086C84.4644 250.086 84.6984 250.5 84.6984 250.986V263.334ZM88.1258 266.538C88.1258 266.034 88.5398 265.818 89.3138 265.818C89.4938 265.818 89.8178 265.44 89.9438 265.224L91.8878 261.66L88.7018 256.152C88.6298 256.026 88.2518 255.414 88.2518 255.072C88.2518 254.748 88.4858 254.352 88.9718 254.352C89.4038 254.352 89.6738 254.856 89.8538 255.18L92.7158 260.184L95.4878 255.072C95.6858 254.712 95.9018 254.352 96.3158 254.352C96.8018 254.352 97.0178 254.694 97.0178 255C97.0178 255.162 96.9098 255.558 96.6758 255.972L91.0238 266.07C90.6818 266.7 90.2318 267.294 89.3318 267.294C88.7738 267.294 88.1258 267.168 88.1258 266.538Z" fill="#32CD32"/>
<rect x="40" y="280" width="438" height="45" rx="4" fill="white" fill-opacity="0.0666"/>
<path d="M61.962 302.808C61.782 302.682 61.602 302.502 61.602 302.16C61.602 301.782 61.782 301.638 61.962 301.512L68.964 296.634C69.108 296.526 69.288 296.472 69.468 296.472C69.954 296.472 70.206 296.742 70.206 297.156C70.206 297.408 70.152 297.66 69.936 297.804L63.528 302.16L69.936 306.516C70.152 306.66 70.206 306.912 70.206 307.164C70.206 307.542 69.882 307.848 69.468 307.848C69.288 307.848 69.108 307.794 68.964 307.686L61.962 302.808ZM106.588 301.512C106.768 301.638 106.948 301.818 106.948 302.16C106.948 302.538 106.768 302.682 106.588 302.808L99.5864 307.686C99.4424 307.794 99.2624 307.848 99.0824 307.848C98.5964 307.848 98.3444 307.578 98.3444 307.164C98.3444 306.912 98.3984 306.66 98.6144 306.516L105.022 302.16L98.6144 297.804C98.3984 297.66 98.3444 297.408 98.3444 297.156C98.3444 296.778 98.6684 296.472 99.0824 296.472C99.2624 296.472 99.4424 296.526 99.5864 296.634L106.588 301.512ZM307.441 302.808C307.261 302.682 307.081 302.502 307.081 302.16C307.081 301.782 307.261 301.638 307.441 301.512L314.443 296.634C314.587 296.526 314.767 296.472 314.947 296.472C315.433 296.472 315.685 296.742 315.685 297.156C315.685 297.408 315.631 297.66 315.415 297.804L309.007 302.16L315.415 306.516C315.631 306.66 315.685 306.912 315.685 307.164C315.685 307.542 315.361 307.848 314.947 307.848C314.767 307.848 314.587 307.794 314.443 307.686L307.441 302.808ZM319.724 308.532C319.724 308.406 319.778 308.1 319.832 307.992L324.836 295.77C324.962 295.464 325.196 295.086 325.556 295.086C326.006 295.086 326.276 295.338 326.276 295.788C326.276 295.914 326.204 296.22 326.15 296.328L321.11 308.676C321.002 308.982 320.768 309.234 320.48 309.234C319.994 309.234 319.724 308.856 319.724 308.532ZM363.756 301.512C363.936 301.638 364.116 301.818 364.116 302.16C364.116 302.538 363.936 302.682 363.756 302.808L356.754 307.686C356.61 307.794 356.43 307.848 356.25 307.848C355.764 307.848 355.512 307.578 355.512 307.164C355.512 306.912 355.566 306.66 355.782 306.516L362.19 302.16L355.782 297.804C355.566 297.66 355.512 297.408 355.512 297.156C355.512 296.778 355.836 296.472 356.25 296.472C356.43 296.472 356.61 296.526 356.754 296.634L363.756 301.512Z" fill="white" fill-opacity="0.66"/>
<path d="M73.9575 308.334V295.986C73.9575 295.482 74.1915 295.086 74.6775 295.086C75.1635 295.086 75.3975 295.5 75.3975 295.986V300.378C75.9195 299.856 76.9095 299.334 78.0075 299.334C80.1315 299.334 81.2295 301.08 81.2295 303.672V308.334C81.2295 308.82 80.9955 309.234 80.5095 309.234C80.0235 309.234 79.7895 308.82 79.7895 308.334V303.636C79.7895 301.638 79.1235 300.738 77.8455 300.738C76.8555 300.738 75.8835 301.296 75.3975 302.232V308.334C75.3975 308.82 75.1635 309.234 74.6775 309.234C74.1915 309.234 73.9575 308.838 73.9575 308.334ZM85.5749 298.74C85.5749 298.362 85.7189 298.128 86.0609 297.822L88.4189 295.734C88.6709 295.5 89.0489 295.14 89.6969 295.14C90.4529 295.14 90.7409 295.68 90.7409 296.31V308.28C90.7409 308.766 90.5069 309.18 90.0209 309.18C89.5349 309.18 89.3009 308.784 89.3009 308.28V296.886L86.9429 298.974C86.7269 299.154 86.4749 299.334 86.2229 299.334C85.8989 299.334 85.5749 299.046 85.5749 298.74ZM331.125 308.334V295.986C331.125 295.482 331.359 295.086 331.845 295.086C332.331 295.086 332.565 295.5 332.565 295.986V300.378C333.087 299.856 334.077 299.334 335.175 299.334C337.299 299.334 338.397 301.08 338.397 303.672V308.334C338.397 308.82 338.163 309.234 337.677 309.234C337.191 309.234 336.957 308.82 336.957 308.334V303.636C336.957 301.638 336.291 300.738 335.013 300.738C334.023 300.738 333.051 301.296 332.565 302.232V308.334C332.565 308.82 332.331 309.234 331.845 309.234C331.359 309.234 331.125 308.838 331.125 308.334ZM342.743 298.74C342.743 298.362 342.887 298.128 343.229 297.822L345.587 295.734C345.839 295.5 346.217 295.14 346.865 295.14C347.621 295.14 347.909 295.68 347.909 296.31V308.28C347.909 308.766 347.675 309.18 347.189 309.18C346.703 309.18 346.469 308.784 346.469 308.28V296.886L344.111 298.974C343.895 299.154 343.643 299.334 343.391 299.334C343.067 299.334 342.743 299.046 342.743 298.74Z" fill="#32CD32"/>
<path d="M108.126 297.102C108.126 296.598 108.522 296.382 109.026 296.382H116.226C116.73 296.382 117.126 296.616 117.126 297.102C117.126 297.588 116.712 297.822 116.226 297.822H113.346V308.28C113.346 308.766 113.112 309.18 112.626 309.18C112.14 309.18 111.906 308.784 111.906 308.28V297.822H109.026C108.54 297.822 108.126 297.606 108.126 297.102ZM120.715 308.334V295.986C120.715 295.482 120.949 295.086 121.435 295.086C121.921 295.086 122.155 295.5 122.155 295.986V300.378C122.677 299.856 123.667 299.334 124.765 299.334C126.889 299.334 127.987 301.08 127.987 303.672V308.334C127.987 308.82 127.753 309.234 127.267 309.234C126.781 309.234 126.547 308.82 126.547 308.334V303.636C126.547 301.638 125.881 300.738 124.603 300.738C123.613 300.738 122.641 301.296 122.155 302.232V308.334C122.155 308.82 121.921 309.234 121.435 309.234C120.949 309.234 120.715 308.838 120.715 308.334ZM135.393 296.454V295.986C135.393 295.482 135.807 295.086 136.293 295.086H136.743C137.229 295.086 137.643 295.482 137.643 295.986V296.454C137.643 296.958 137.229 297.354 136.743 297.354H136.293C135.807 297.354 135.393 296.958 135.393 296.454ZM132.729 300.108C132.729 299.622 133.125 299.388 133.629 299.388H136.329C137.193 299.388 137.589 299.784 137.589 300.648V308.262C137.589 308.766 137.355 309.162 136.869 309.162C136.383 309.162 136.149 308.748 136.149 308.262V300.828H133.629C133.143 300.828 132.729 300.594 132.729 300.108ZM143.932 307.218C143.932 306.858 144.112 306.498 144.598 306.498C145.48 306.498 145.552 307.902 147.586 307.902C149.206 307.902 149.962 307.344 149.962 306.48C149.962 305.616 149.098 305.112 147.424 304.842C145.786 304.572 144.202 303.906 144.202 301.998C144.202 300.342 145.588 299.208 147.694 299.208C149.89 299.208 151.222 300.522 151.222 301.386C151.222 301.872 151.06 302.196 150.574 302.196C150.142 302.196 149.764 301.854 149.602 301.476C149.386 300.972 148.756 300.612 147.586 300.612C146.344 300.612 145.66 301.098 145.66 301.89C145.66 302.7 146.254 303.222 147.928 303.438C149.962 303.708 151.402 304.554 151.402 306.354C151.402 307.956 150.484 309.288 147.514 309.288C145.624 309.288 143.932 307.938 143.932 307.218ZM170.461 296.454V295.986C170.461 295.482 170.875 295.086 171.361 295.086H171.811C172.297 295.086 172.711 295.482 172.711 295.986V296.454C172.711 296.958 172.297 297.354 171.811 297.354H171.361C170.875 297.354 170.461 296.958 170.461 296.454ZM167.797 300.108C167.797 299.622 168.193 299.388 168.697 299.388H171.397C172.261 299.388 172.657 299.784 172.657 300.648V308.262C172.657 308.766 172.423 309.162 171.937 309.162C171.451 309.162 171.217 308.748 171.217 308.262V300.828H168.697C168.211 300.828 167.797 300.594 167.797 300.108ZM179.001 307.218C179.001 306.858 179.181 306.498 179.667 306.498C180.549 306.498 180.621 307.902 182.655 307.902C184.275 307.902 185.031 307.344 185.031 306.48C185.031 305.616 184.167 305.112 182.493 304.842C180.855 304.572 179.271 303.906 179.271 301.998C179.271 300.342 180.657 299.208 182.763 299.208C184.959 299.208 186.291 300.522 186.291 301.386C186.291 301.872 186.129 302.196 185.643 302.196C185.211 302.196 184.833 301.854 184.671 301.476C184.455 300.972 183.825 300.612 182.655 300.612C181.413 300.612 180.729 301.098 180.729 301.89C180.729 302.7 181.323 303.222 182.997 303.438C185.031 303.708 186.471 304.554 186.471 306.354C186.471 307.956 185.553 309.288 182.583 309.288C180.693 309.288 179.001 307.938 179.001 307.218ZM203.765 306.336C203.765 307.434 204.737 307.812 205.349 307.848C206.843 307.848 207.779 306.894 208.355 305.958V304.644C205.403 304.644 203.765 304.968 203.765 306.336ZM202.325 306.516C202.325 304.23 204.053 303.384 208.355 303.366C208.427 301.386 207.563 300.648 205.961 300.648C204.413 300.648 204.125 301.692 203.495 301.692C203.045 301.692 202.793 301.476 202.793 300.972C202.793 300.162 204.251 299.208 205.961 299.208C208.499 299.208 209.795 300.882 209.795 302.754V308.334C209.795 308.82 209.561 309.234 209.075 309.234C208.589 309.234 208.355 308.82 208.355 307.83C207.887 308.694 206.663 309.252 205.529 309.252C203.999 309.252 202.325 308.28 202.325 306.516ZM225.92 308.334V295.986C225.92 295.482 226.154 295.086 226.64 295.086C227.126 295.086 227.36 295.5 227.36 295.986V300.378C227.882 299.856 228.872 299.334 229.97 299.334C232.094 299.334 233.192 301.08 233.192 303.672V308.334C233.192 308.82 232.958 309.234 232.472 309.234C231.986 309.234 231.752 308.82 231.752 308.334V303.636C231.752 301.638 231.086 300.738 229.808 300.738C228.818 300.738 227.846 301.296 227.36 302.232V308.334C227.36 308.82 227.126 309.234 226.64 309.234C226.154 309.234 225.92 308.838 225.92 308.334ZM237.25 304.068C237.25 301.386 239.248 299.208 241.516 299.208C244.252 299.208 245.386 301.476 245.386 303.384C245.386 304.158 245.134 304.572 244.36 304.572H238.726C238.888 306.714 240.058 307.83 241.75 307.83C243.442 307.83 243.91 306.804 244.522 306.804C244.882 306.804 245.188 307.02 245.188 307.452C245.188 308.298 243.298 309.27 241.894 309.27C238.888 309.27 237.25 307.11 237.25 304.068ZM238.816 303.132H243.802C243.694 301.62 243.028 300.648 241.462 300.648C239.824 300.648 239.122 301.836 238.816 303.132ZM250.523 306.336C250.523 307.434 251.495 307.812 252.107 307.848C253.601 307.848 254.537 306.894 255.113 305.958V304.644C252.161 304.644 250.523 304.968 250.523 306.336ZM249.083 306.516C249.083 304.23 250.811 303.384 255.113 303.366C255.185 301.386 254.321 300.648 252.719 300.648C251.171 300.648 250.883 301.692 250.253 301.692C249.803 301.692 249.551 301.476 249.551 300.972C249.551 300.162 251.009 299.208 252.719 299.208C255.257 299.208 256.553 300.882 256.553 302.754V308.334C256.553 308.82 256.319 309.234 255.833 309.234C255.347 309.234 255.113 308.82 255.113 307.83C254.645 308.694 253.421 309.252 252.287 309.252C250.757 309.252 249.083 308.28 249.083 306.516ZM266.911 305.94V302.61C266.335 301.458 265.381 300.702 264.157 300.702C262.609 300.702 261.709 302.07 261.709 304.248C261.709 306.678 262.735 307.866 264.373 307.866C265.417 307.866 266.479 306.984 266.911 305.94ZM268.351 308.334C268.351 308.82 268.117 309.234 267.631 309.234C267.145 309.234 266.911 308.838 266.911 308.334V308.082C266.389 308.694 265.345 309.288 264.265 309.288C262.177 309.288 260.269 307.614 260.269 304.248C260.269 301.296 261.835 299.298 264.103 299.298C265.147 299.298 266.119 299.712 266.911 300.468V295.986C266.911 295.482 267.145 295.086 267.631 295.086C268.117 295.086 268.351 295.5 268.351 295.986V308.334ZM275.666 296.454V295.986C275.666 295.482 276.08 295.086 276.566 295.086H277.016C277.502 295.086 277.916 295.482 277.916 295.986V296.454C277.916 296.958 277.502 297.354 277.016 297.354H276.566C276.08 297.354 275.666 296.958 275.666 296.454ZM273.002 300.108C273.002 299.622 273.398 299.388 273.902 299.388H276.602C277.466 299.388 277.862 299.784 277.862 300.648V308.262C277.862 308.766 277.628 309.162 277.142 309.162C276.656 309.162 276.422 308.748 276.422 308.262V300.828H273.902C273.416 300.828 273.002 300.594 273.002 300.108ZM284.638 308.334V300.252C284.638 299.766 284.872 299.37 285.358 299.37C285.844 299.37 286.078 299.766 286.078 300.252V300.594C286.672 299.928 287.626 299.298 288.67 299.298C290.83 299.298 291.694 301.17 291.694 303.852V308.334C291.694 308.82 291.442 309.234 290.974 309.234C290.488 309.234 290.254 308.838 290.254 308.334V303.852C290.254 302.232 290.11 300.702 288.472 300.702C287.482 300.702 286.708 301.566 286.078 302.286V308.334C286.078 308.82 285.844 309.234 285.358 309.234C284.872 309.234 284.638 308.82 284.638 308.334ZM296.831 304.158C296.831 305.562 297.749 307.218 299.405 307.218C300.809 307.218 301.601 306.39 302.069 305.526V302.268C301.493 301.422 300.647 300.828 299.477 300.738C297.659 300.738 296.831 302.43 296.831 304.158ZM295.391 304.158C295.391 301.422 296.975 299.298 299.459 299.298C300.359 299.298 301.583 299.802 302.069 300.36C302.105 299.73 302.339 299.352 302.789 299.352C303.275 299.352 303.509 299.766 303.509 300.252V308.442C303.509 310.998 301.943 312.474 299.639 312.474C297.983 312.474 295.787 311.502 295.787 310.728C295.787 310.296 296.021 309.972 296.435 309.972C297.353 309.972 297.803 310.98 299.639 310.98C301.169 310.98 302.069 310.08 302.069 308.514V307.488C301.727 308.01 300.773 308.658 299.405 308.658C297.029 308.658 295.391 306.606 295.391 304.158Z" fill="white"/>
<rect x="40" y="337" width="438" height="45" rx="4" fill="white" fill-opacity="0.0666"/>
<path d="M61.962 359.808C61.782 359.682 61.602 359.502 61.602 359.16C61.602 358.782 61.782 358.638 61.962 358.512L68.964 353.634C69.108 353.526 69.288 353.472 69.468 353.472C69.954 353.472 70.206 353.742 70.206 354.156C70.206 354.408 70.152 354.66 69.936 354.804L63.528 359.16L69.936 363.516C70.152 363.66 70.206 363.912 70.206 364.164C70.206 364.542 69.882 364.848 69.468 364.848C69.288 364.848 69.108 364.794 68.964 364.686L61.962 359.808ZM94.8989 358.512C95.0789 358.638 95.2589 358.818 95.2589 359.16C95.2589 359.538 95.0789 359.682 94.8989 359.808L87.8969 364.686C87.7529 364.794 87.5729 364.848 87.3929 364.848C86.9069 364.848 86.6549 364.578 86.6549 364.164C86.6549 363.912 86.7089 363.66 86.9249 363.516L93.3329 359.16L86.9249 354.804C86.7089 354.66 86.6549 354.408 86.6549 354.156C86.6549 353.778 86.9789 353.472 87.3929 353.472C87.5729 353.472 87.7529 353.526 87.8969 353.634L94.8989 358.512ZM330.819 359.808C330.639 359.682 330.459 359.502 330.459 359.16C330.459 358.782 330.639 358.638 330.819 358.512L337.821 353.634C337.965 353.526 338.145 353.472 338.325 353.472C338.811 353.472 339.063 353.742 339.063 354.156C339.063 354.408 339.009 354.66 338.793 354.804L332.385 359.16L338.793 363.516C339.009 363.66 339.063 363.912 339.063 364.164C339.063 364.542 338.739 364.848 338.325 364.848C338.145 364.848 337.965 364.794 337.821 364.686L330.819 359.808ZM343.103 365.532C343.103 365.406 343.157 365.1 343.211 364.992L348.215 352.77C348.341 352.464 348.575 352.086 348.935 352.086C349.385 352.086 349.655 352.338 349.655 352.788C349.655 352.914 349.583 353.22 349.529 353.328L344.489 365.676C344.381 365.982 344.147 366.234 343.859 366.234C343.373 366.234 343.103 365.856 343.103 365.532ZM375.446 358.512C375.626 358.638 375.806 358.818 375.806 359.16C375.806 359.538 375.626 359.682 375.446 359.808L368.444 364.686C368.3 364.794 368.12 364.848 367.94 364.848C367.454 364.848 367.202 364.578 367.202 364.164C367.202 363.912 367.256 363.66 367.472 363.516L373.88 359.16L367.472 354.804C367.256 354.66 367.202 354.408 367.202 354.156C367.202 353.778 367.526 353.472 367.94 353.472C368.12 353.472 368.3 353.526 368.444 353.634L375.446 358.512Z" fill="white" fill-opacity="0.66"/>
<path d="M77.7195 357.702C76.6755 357.702 75.6135 358.584 75.1815 359.628V362.958C75.7575 364.11 76.7115 364.866 77.9355 364.866C79.4835 364.866 80.3835 363.498 80.3835 361.32C80.3835 358.89 79.3575 357.702 77.7195 357.702ZM73.7415 369.582V357.234C73.7415 356.748 73.9755 356.334 74.4615 356.334C74.9475 356.334 75.1815 356.73 75.1815 357.234V357.486C75.7035 356.874 76.7475 356.28 77.8275 356.28C79.9155 356.28 81.8235 357.954 81.8235 361.32C81.8235 364.272 80.2575 366.27 77.9895 366.27C76.9455 366.27 75.9735 365.856 75.1815 365.1V369.582C75.1815 370.086 74.9475 370.482 74.4615 370.482C73.9755 370.482 73.7415 370.068 73.7415 369.582ZM358.266 357.702C357.222 357.702 356.16 358.584 355.728 359.628V362.958C356.304 364.11 357.258 364.866 358.482 364.866C360.03 364.866 360.93 363.498 360.93 361.32C360.93 358.89 359.904 357.702 358.266 357.702ZM354.288 369.582V357.234C354.288 356.748 354.522 356.334 355.008 356.334C355.494 356.334 355.728 356.73 355.728 357.234V357.486C356.25 356.874 357.294 356.28 358.374 356.28C360.462 356.28 362.37 357.954 362.37 361.32C362.37 364.272 360.804 366.27 358.536 366.27C357.492 366.27 356.52 365.856 355.728 365.1V369.582C355.728 370.086 355.494 370.482 355.008 370.482C354.522 370.482 354.288 370.068 354.288 369.582Z" fill="#32CD32"/>
<path d="M96.4364 354.102C96.4364 353.598 96.8324 353.382 97.3364 353.382H104.536C105.04 353.382 105.436 353.616 105.436 354.102C105.436 354.588 105.022 354.822 104.536 354.822H101.656V365.28C101.656 365.766 101.422 366.18 100.936 366.18C100.45 366.18 100.216 365.784 100.216 365.28V354.822H97.3364C96.8504 354.822 96.4364 354.606 96.4364 354.102ZM109.026 365.334V352.986C109.026 352.482 109.26 352.086 109.746 352.086C110.232 352.086 110.466 352.5 110.466 352.986V357.378C110.988 356.856 111.978 356.334 113.076 356.334C115.2 356.334 116.298 358.08 116.298 360.672V365.334C116.298 365.82 116.064 366.234 115.578 366.234C115.092 366.234 114.858 365.82 114.858 365.334V360.636C114.858 358.638 114.192 357.738 112.914 357.738C111.924 357.738 110.952 358.296 110.466 359.232V365.334C110.466 365.82 110.232 366.234 109.746 366.234C109.26 366.234 109.026 365.838 109.026 365.334ZM123.703 353.454V352.986C123.703 352.482 124.117 352.086 124.603 352.086H125.053C125.539 352.086 125.953 352.482 125.953 352.986V353.454C125.953 353.958 125.539 354.354 125.053 354.354H124.603C124.117 354.354 123.703 353.958 123.703 353.454ZM121.039 357.108C121.039 356.622 121.435 356.388 121.939 356.388H124.639C125.503 356.388 125.899 356.784 125.899 357.648V365.262C125.899 365.766 125.665 366.162 125.179 366.162C124.693 366.162 124.459 365.748 124.459 365.262V357.828H121.939C121.453 357.828 121.039 357.594 121.039 357.108ZM132.243 364.218C132.243 363.858 132.423 363.498 132.909 363.498C133.791 363.498 133.863 364.902 135.897 364.902C137.517 364.902 138.273 364.344 138.273 363.48C138.273 362.616 137.409 362.112 135.735 361.842C134.097 361.572 132.513 360.906 132.513 358.998C132.513 357.342 133.899 356.208 136.005 356.208C138.201 356.208 139.533 357.522 139.533 358.386C139.533 358.872 139.371 359.196 138.885 359.196C138.453 359.196 138.075 358.854 137.913 358.476C137.697 357.972 137.067 357.612 135.897 357.612C134.655 357.612 133.971 358.098 133.971 358.89C133.971 359.7 134.565 360.222 136.239 360.438C138.273 360.708 139.713 361.554 139.713 363.354C139.713 364.956 138.795 366.288 135.825 366.288C133.935 366.288 132.243 364.938 132.243 364.218ZM158.772 353.454V352.986C158.772 352.482 159.186 352.086 159.672 352.086H160.122C160.608 352.086 161.022 352.482 161.022 352.986V353.454C161.022 353.958 160.608 354.354 160.122 354.354H159.672C159.186 354.354 158.772 353.958 158.772 353.454ZM156.108 357.108C156.108 356.622 156.504 356.388 157.008 356.388H159.708C160.572 356.388 160.968 356.784 160.968 357.648V365.262C160.968 365.766 160.734 366.162 160.248 366.162C159.762 366.162 159.528 365.748 159.528 365.262V357.828H157.008C156.522 357.828 156.108 357.594 156.108 357.108ZM167.311 364.218C167.311 363.858 167.491 363.498 167.977 363.498C168.859 363.498 168.931 364.902 170.965 364.902C172.585 364.902 173.341 364.344 173.341 363.48C173.341 362.616 172.477 362.112 170.803 361.842C169.165 361.572 167.581 360.906 167.581 358.998C167.581 357.342 168.967 356.208 171.073 356.208C173.269 356.208 174.601 357.522 174.601 358.386C174.601 358.872 174.439 359.196 173.953 359.196C173.521 359.196 173.143 358.854 172.981 358.476C172.765 357.972 172.135 357.612 170.965 357.612C169.723 357.612 169.039 358.098 169.039 358.89C169.039 359.7 169.633 360.222 171.307 360.438C173.341 360.708 174.781 361.554 174.781 363.354C174.781 364.956 173.863 366.288 170.893 366.288C169.003 366.288 167.311 364.938 167.311 364.218ZM192.076 363.336C192.076 364.434 193.048 364.812 193.66 364.848C195.154 364.848 196.09 363.894 196.666 362.958V361.644C193.714 361.644 192.076 361.968 192.076 363.336ZM190.636 363.516C190.636 361.23 192.364 360.384 196.666 360.366C196.738 358.386 195.874 357.648 194.272 357.648C192.724 357.648 192.436 358.692 191.806 358.692C191.356 358.692 191.104 358.476 191.104 357.972C191.104 357.162 192.562 356.208 194.272 356.208C196.81 356.208 198.106 357.882 198.106 359.754V365.334C198.106 365.82 197.872 366.234 197.386 366.234C196.9 366.234 196.666 365.82 196.666 364.83C196.198 365.694 194.974 366.252 193.84 366.252C192.31 366.252 190.636 365.28 190.636 363.516ZM217.993 357.702C216.949 357.702 215.887 358.584 215.455 359.628V362.958C216.031 364.11 216.985 364.866 218.209 364.866C219.757 364.866 220.657 363.498 220.657 361.32C220.657 358.89 219.631 357.702 217.993 357.702ZM214.015 369.582V357.234C214.015 356.748 214.249 356.334 214.735 356.334C215.221 356.334 215.455 356.73 215.455 357.234V357.486C215.977 356.874 217.021 356.28 218.101 356.28C220.189 356.28 222.097 357.954 222.097 361.32C222.097 364.272 220.531 366.27 218.263 366.27C217.219 366.27 216.247 365.856 215.455 365.1V369.582C215.455 370.086 215.221 370.482 214.735 370.482C214.249 370.482 214.015 370.068 214.015 369.582ZM227.144 363.336C227.144 364.434 228.116 364.812 228.728 364.848C230.222 364.848 231.158 363.894 231.734 362.958V361.644C228.782 361.644 227.144 361.968 227.144 363.336ZM225.704 363.516C225.704 361.23 227.432 360.384 231.734 360.366C231.806 358.386 230.942 357.648 229.34 357.648C227.792 357.648 227.504 358.692 226.874 358.692C226.424 358.692 226.172 358.476 226.172 357.972C226.172 357.162 227.63 356.208 229.34 356.208C231.878 356.208 233.174 357.882 233.174 359.754V365.334C233.174 365.82 232.94 366.234 232.454 366.234C231.968 366.234 231.734 365.82 231.734 364.83C231.266 365.694 230.042 366.252 228.908 366.252C227.378 366.252 225.704 365.28 225.704 363.516ZM238.528 365.334V357.252C238.528 356.766 238.762 356.37 239.248 356.37C239.752 356.37 239.968 356.748 239.968 357.612C240.49 356.964 241.678 356.298 242.578 356.298C244.162 356.298 245.386 357.576 245.404 358.782C245.404 359.286 245.17 359.7 244.684 359.7C244.234 359.7 244.036 359.304 243.964 358.998C243.784 358.314 243.352 357.738 242.38 357.738C241.534 357.738 240.544 358.512 239.968 359.358V365.334C239.968 365.838 239.734 366.234 239.248 366.234C238.762 366.234 238.528 365.82 238.528 365.334ZM250.523 363.336C250.523 364.434 251.495 364.812 252.107 364.848C253.601 364.848 254.537 363.894 255.113 362.958V361.644C252.161 361.644 250.523 361.968 250.523 363.336ZM249.083 363.516C249.083 361.23 250.811 360.384 255.113 360.366C255.185 358.386 254.321 357.648 252.719 357.648C251.171 357.648 250.883 358.692 250.253 358.692C249.803 358.692 249.551 358.476 249.551 357.972C249.551 357.162 251.009 356.208 252.719 356.208C255.257 356.208 256.553 357.882 256.553 359.754V365.334C256.553 365.82 256.319 366.234 255.833 366.234C255.347 366.234 255.113 365.82 255.113 364.83C254.645 365.694 253.421 366.252 252.287 366.252C250.757 366.252 249.083 365.28 249.083 363.516ZM261.763 361.158C261.763 362.562 262.681 364.218 264.337 364.218C265.741 364.218 266.533 363.39 267.001 362.526V359.268C266.425 358.422 265.579 357.828 264.409 357.738C262.591 357.738 261.763 359.43 261.763 361.158ZM260.323 361.158C260.323 358.422 261.907 356.298 264.391 356.298C265.291 356.298 266.515 356.802 267.001 357.36C267.037 356.73 267.271 356.352 267.721 356.352C268.207 356.352 268.441 356.766 268.441 357.252V365.442C268.441 367.998 266.875 369.474 264.571 369.474C262.915 369.474 260.719 368.502 260.719 367.728C260.719 367.296 260.953 366.972 261.367 366.972C262.285 366.972 262.735 367.98 264.571 367.98C266.101 367.98 267.001 367.08 267.001 365.514V364.488C266.659 365.01 265.705 365.658 264.337 365.658C261.961 365.658 260.323 363.606 260.323 361.158ZM273.596 365.334V357.252C273.596 356.766 273.83 356.37 274.316 356.37C274.82 356.37 275.036 356.748 275.036 357.612C275.558 356.964 276.746 356.298 277.646 356.298C279.23 356.298 280.454 357.576 280.472 358.782C280.472 359.286 280.238 359.7 279.752 359.7C279.302 359.7 279.104 359.304 279.032 358.998C278.852 358.314 278.42 357.738 277.448 357.738C276.602 357.738 275.612 358.512 275.036 359.358V365.334C275.036 365.838 274.802 366.234 274.316 366.234C273.83 366.234 273.596 365.82 273.596 365.334ZM285.592 363.336C285.592 364.434 286.564 364.812 287.176 364.848C288.67 364.848 289.606 363.894 290.182 362.958V361.644C287.23 361.644 285.592 361.968 285.592 363.336ZM284.152 363.516C284.152 361.23 285.88 360.384 290.182 360.366C290.254 358.386 289.39 357.648 287.788 357.648C286.24 357.648 285.952 358.692 285.322 358.692C284.872 358.692 284.62 358.476 284.62 357.972C284.62 357.162 286.078 356.208 287.788 356.208C290.326 356.208 291.622 357.882 291.622 359.754V365.334C291.622 365.82 291.388 366.234 290.902 366.234C290.416 366.234 290.182 365.82 290.182 364.83C289.714 365.694 288.49 366.252 287.356 366.252C285.826 366.252 284.152 365.28 284.152 363.516ZM299.819 357.702C298.775 357.702 297.713 358.584 297.281 359.628V362.958C297.857 364.11 298.811 364.866 300.035 364.866C301.583 364.866 302.483 363.498 302.483 361.32C302.483 358.89 301.457 357.702 299.819 357.702ZM295.841 369.582V357.234C295.841 356.748 296.075 356.334 296.561 356.334C297.047 356.334 297.281 356.73 297.281 357.234V357.486C297.803 356.874 298.847 356.28 299.927 356.28C302.015 356.28 303.923 357.954 303.923 361.32C303.923 364.272 302.357 366.27 300.089 366.27C299.045 366.27 298.073 365.856 297.281 365.1V369.582C297.281 370.086 297.047 370.482 296.561 370.482C296.075 370.482 295.841 370.068 295.841 369.582ZM307.747 365.334V352.986C307.747 352.482 307.981 352.086 308.467 352.086C308.953 352.086 309.187 352.5 309.187 352.986V357.378C309.709 356.856 310.699 356.334 311.797 356.334C313.921 356.334 315.019 358.08 315.019 360.672V365.334C315.019 365.82 314.785 366.234 314.299 366.234C313.813 366.234 313.579 365.82 313.579 365.334V360.636C313.579 358.638 312.913 357.738 311.635 357.738C310.645 357.738 309.673 358.296 309.187 359.232V365.334C309.187 365.82 308.953 366.234 308.467 366.234C307.981 366.234 307.747 365.838 307.747 365.334ZM321.74 365.1V364.614C321.74 363.948 322.154 363.534 322.82 363.534H323.234C323.9 363.534 324.314 363.93 324.314 364.614V365.1C324.314 365.784 323.9 366.18 323.234 366.18H322.82C322.154 366.18 321.74 365.766 321.74 365.1Z" fill="white"/>
<rect x="40" y="394" width="438" height="45" rx="4" fill="white" fill-opacity="0.0666"/>
<path d="M61.962 416.808C61.782 416.682 61.602 416.502 61.602 416.16C61.602 415.782 61.782 415.638 61.962 415.512L68.964 410.634C69.108 410.526 69.288 410.472 69.468 410.472C69.954 410.472 70.206 410.742 70.206 411.156C70.206 411.408 70.152 411.66 69.936 411.804L63.528 416.16L69.936 420.516C70.152 420.66 70.206 420.912 70.206 421.164C70.206 421.542 69.882 421.848 69.468 421.848C69.288 421.848 69.108 421.794 68.964 421.686L61.962 416.808ZM94.8989 415.512C95.0789 415.638 95.2589 415.818 95.2589 416.16C95.2589 416.538 95.0789 416.682 94.8989 416.808L87.8969 421.686C87.7529 421.794 87.5729 421.848 87.3929 421.848C86.9069 421.848 86.6549 421.578 86.6549 421.164C86.6549 420.912 86.7089 420.66 86.9249 420.516L93.3329 416.16L86.9249 411.804C86.7089 411.66 86.6549 411.408 86.6549 411.156C86.6549 410.778 86.9789 410.472 87.3929 410.472C87.5729 410.472 87.7529 410.526 87.8969 410.634L94.8989 415.512ZM412.646 416.808C412.466 416.682 412.286 416.502 412.286 416.16C412.286 415.782 412.466 415.638 412.646 415.512L419.648 410.634C419.792 410.526 419.972 410.472 420.152 410.472C420.638 410.472 420.89 410.742 420.89 411.156C420.89 411.408 420.836 411.66 420.62 411.804L414.212 416.16L420.62 420.516C420.836 420.66 420.89 420.912 420.89 421.164C420.89 421.542 420.566 421.848 420.152 421.848C419.972 421.848 419.792 421.794 419.648 421.686L412.646 416.808ZM424.929 422.532C424.929 422.406 424.983 422.1 425.037 421.992L430.041 409.77C430.167 409.464 430.401 409.086 430.761 409.086C431.211 409.086 431.481 409.338 431.481 409.788C431.481 409.914 431.409 410.22 431.355 410.328L426.315 422.676C426.207 422.982 425.973 423.234 425.685 423.234C425.199 423.234 424.929 422.856 424.929 422.532ZM457.272 415.512C457.452 415.638 457.632 415.818 457.632 416.16C457.632 416.538 457.452 416.682 457.272 416.808L450.27 421.686C450.126 421.794 449.946 421.848 449.766 421.848C449.28 421.848 449.028 421.578 449.028 421.164C449.028 420.912 449.082 420.66 449.298 420.516L455.706 416.16L449.298 411.804C449.082 411.66 449.028 411.408 449.028 411.156C449.028 410.778 449.352 410.472 449.766 410.472C449.946 410.472 450.126 410.526 450.27 410.634L457.272 415.512Z" fill="white" fill-opacity="0.66"/>
<path d="M77.7195 414.702C76.6755 414.702 75.6135 415.584 75.1815 416.628V419.958C75.7575 421.11 76.7115 421.866 77.9355 421.866C79.4835 421.866 80.3835 420.498 80.3835 418.32C80.3835 415.89 79.3575 414.702 77.7195 414.702ZM73.7415 426.582V414.234C73.7415 413.748 73.9755 413.334 74.4615 413.334C74.9475 413.334 75.1815 413.73 75.1815 414.234V414.486C75.7035 413.874 76.7475 413.28 77.8275 413.28C79.9155 413.28 81.8235 414.954 81.8235 418.32C81.8235 421.272 80.2575 423.27 77.9895 423.27C76.9455 423.27 75.9735 422.856 75.1815 422.1V426.582C75.1815 427.086 74.9475 427.482 74.4615 427.482C73.9755 427.482 73.7415 427.068 73.7415 426.582ZM440.093 414.702C439.049 414.702 437.987 415.584 437.555 416.628V419.958C438.131 421.11 439.085 421.866 440.309 421.866C441.857 421.866 442.757 420.498 442.757 418.32C442.757 415.89 441.731 414.702 440.093 414.702ZM436.115 426.582V414.234C436.115 413.748 436.349 413.334 436.835 413.334C437.321 413.334 437.555 413.73 437.555 414.234V414.486C438.077 413.874 439.121 413.28 440.201 413.28C442.289 413.28 444.197 414.954 444.197 418.32C444.197 421.272 442.631 423.27 440.363 423.27C439.319 423.27 438.347 422.856 437.555 422.1V426.582C437.555 427.086 437.321 427.482 436.835 427.482C436.349 427.482 436.115 427.068 436.115 426.582Z" fill="#32CD32"/>
<path d="M96.4364 411.102C96.4364 410.598 96.8324 410.382 97.3364 410.382H104.536C105.04 410.382 105.436 410.616 105.436 411.102C105.436 411.588 105.022 411.822 104.536 411.822H101.656V422.28C101.656 422.766 101.422 423.18 100.936 423.18C100.45 423.18 100.216 422.784 100.216 422.28V411.822H97.3364C96.8504 411.822 96.4364 411.606 96.4364 411.102ZM109.026 422.334V409.986C109.026 409.482 109.26 409.086 109.746 409.086C110.232 409.086 110.466 409.5 110.466 409.986V414.378C110.988 413.856 111.978 413.334 113.076 413.334C115.2 413.334 116.298 415.08 116.298 417.672V422.334C116.298 422.82 116.064 423.234 115.578 423.234C115.092 423.234 114.858 422.82 114.858 422.334V417.636C114.858 415.638 114.192 414.738 112.914 414.738C111.924 414.738 110.952 415.296 110.466 416.232V422.334C110.466 422.82 110.232 423.234 109.746 423.234C109.26 423.234 109.026 422.838 109.026 422.334ZM123.703 410.454V409.986C123.703 409.482 124.117 409.086 124.603 409.086H125.053C125.539 409.086 125.953 409.482 125.953 409.986V410.454C125.953 410.958 125.539 411.354 125.053 411.354H124.603C124.117 411.354 123.703 410.958 123.703 410.454ZM121.039 414.108C121.039 413.622 121.435 413.388 121.939 413.388H124.639C125.503 413.388 125.899 413.784 125.899 414.648V422.262C125.899 422.766 125.665 423.162 125.179 423.162C124.693 423.162 124.459 422.748 124.459 422.262V414.828H121.939C121.453 414.828 121.039 414.594 121.039 414.108ZM132.243 421.218C132.243 420.858 132.423 420.498 132.909 420.498C133.791 420.498 133.863 421.902 135.897 421.902C137.517 421.902 138.273 421.344 138.273 420.48C138.273 419.616 137.409 419.112 135.735 418.842C134.097 418.572 132.513 417.906 132.513 415.998C132.513 414.342 133.899 413.208 136.005 413.208C138.201 413.208 139.533 414.522 139.533 415.386C139.533 415.872 139.371 416.196 138.885 416.196C138.453 416.196 138.075 415.854 137.913 415.476C137.697 414.972 137.067 414.612 135.897 414.612C134.655 414.612 133.971 415.098 133.971 415.89C133.971 416.7 134.565 417.222 136.239 417.438C138.273 417.708 139.713 418.554 139.713 420.354C139.713 421.956 138.795 423.288 135.825 423.288C133.935 423.288 132.243 421.938 132.243 421.218ZM158.772 410.454V409.986C158.772 409.482 159.186 409.086 159.672 409.086H160.122C160.608 409.086 161.022 409.482 161.022 409.986V410.454C161.022 410.958 160.608 411.354 160.122 411.354H159.672C159.186 411.354 158.772 410.958 158.772 410.454ZM156.108 414.108C156.108 413.622 156.504 413.388 157.008 413.388H159.708C160.572 413.388 160.968 413.784 160.968 414.648V422.262C160.968 422.766 160.734 423.162 160.248 423.162C159.762 423.162 159.528 422.748 159.528 422.262V414.828H157.008C156.522 414.828 156.108 414.594 156.108 414.108ZM167.311 421.218C167.311 420.858 167.491 420.498 167.977 420.498C168.859 420.498 168.931 421.902 170.965 421.902C172.585 421.902 173.341 421.344 173.341 420.48C173.341 419.616 172.477 419.112 170.803 418.842C169.165 418.572 167.581 417.906 167.581 415.998C167.581 414.342 168.967 413.208 171.073 413.208C173.269 413.208 174.601 414.522 174.601 415.386C174.601 415.872 174.439 416.196 173.953 416.196C173.521 416.196 173.143 415.854 172.981 415.476C172.765 414.972 172.135 414.612 170.965 414.612C169.723 414.612 169.039 415.098 169.039 415.89C169.039 416.7 169.633 417.222 171.307 417.438C173.341 417.708 174.781 418.554 174.781 420.354C174.781 421.956 173.863 423.288 170.893 423.288C169.003 423.288 167.311 421.938 167.311 421.218ZM192.076 420.336C192.076 421.434 193.048 421.812 193.66 421.848C195.154 421.848 196.09 420.894 196.666 419.958V418.644C193.714 418.644 192.076 418.968 192.076 420.336ZM190.636 420.516C190.636 418.23 192.364 417.384 196.666 417.366C196.738 415.386 195.874 414.648 194.272 414.648C192.724 414.648 192.436 415.692 191.806 415.692C191.356 415.692 191.104 415.476 191.104 414.972C191.104 414.162 192.562 413.208 194.272 413.208C196.81 413.208 198.106 414.882 198.106 416.754V422.334C198.106 422.82 197.872 423.234 197.386 423.234C196.9 423.234 196.666 422.82 196.666 421.83C196.198 422.694 194.974 423.252 193.84 423.252C192.31 423.252 190.636 422.28 190.636 420.516ZM203.765 420.336C203.765 421.434 204.737 421.812 205.349 421.848C206.843 421.848 207.779 420.894 208.355 419.958V418.644C205.403 418.644 203.765 418.968 203.765 420.336ZM202.325 420.516C202.325 418.23 204.053 417.384 208.355 417.366C208.427 415.386 207.563 414.648 205.961 414.648C204.413 414.648 204.125 415.692 203.495 415.692C203.045 415.692 202.793 415.476 202.793 414.972C202.793 414.162 204.251 413.208 205.961 413.208C208.499 413.208 209.795 414.882 209.795 416.754V422.334C209.795 422.82 209.561 423.234 209.075 423.234C208.589 423.234 208.355 422.82 208.355 421.83C207.887 422.694 206.663 423.252 205.529 423.252C203.999 423.252 202.325 422.28 202.325 420.516ZM214.501 422.334V414.252C214.501 413.766 214.735 413.37 215.221 413.37C215.707 413.37 215.941 413.766 215.941 414.252V414.594C216.535 413.928 217.489 413.298 218.533 413.298C220.693 413.298 221.557 415.17 221.557 417.852V422.334C221.557 422.82 221.305 423.234 220.837 423.234C220.351 423.234 220.117 422.838 220.117 422.334V417.852C220.117 416.232 219.973 414.702 218.335 414.702C217.345 414.702 216.571 415.566 215.941 416.286V422.334C215.941 422.82 215.707 423.234 215.221 423.234C214.735 423.234 214.501 422.82 214.501 422.334ZM225.182 418.266C225.182 415.422 226.928 413.208 229.502 413.208C231.986 413.208 233.822 415.422 233.822 418.266C233.822 421.074 232.022 423.288 229.502 423.288C226.964 423.288 225.182 421.11 225.182 418.266ZM226.622 418.266C226.622 420.228 227.648 421.848 229.502 421.848C231.356 421.848 232.382 420.228 232.382 418.266C232.382 416.106 231.32 414.648 229.502 414.648C227.666 414.648 226.622 416.124 226.622 418.266ZM236.962 414.234C236.962 413.748 237.376 413.514 237.862 413.514H239.392V411.696C239.392 411.174 239.644 410.796 240.148 410.796C240.652 410.796 240.832 411.21 240.832 411.696V413.514H243.73C244.216 413.514 244.63 413.748 244.63 414.234C244.63 414.72 244.216 414.954 243.73 414.954H240.832V419.418C240.832 420.966 240.832 421.794 242.218 421.794C243.334 421.794 243.496 421.326 244.018 421.326C244.504 421.326 244.684 421.578 244.684 422.064C244.684 422.658 243.478 423.234 242.362 423.234C240.184 423.234 239.392 422.208 239.392 419.382V414.954H237.862C237.376 414.954 236.962 414.72 236.962 414.234ZM249.299 422.334V409.986C249.299 409.482 249.533 409.086 250.019 409.086C250.505 409.086 250.739 409.5 250.739 409.986V414.378C251.261 413.856 252.251 413.334 253.349 413.334C255.473 413.334 256.571 415.08 256.571 417.672V422.334C256.571 422.82 256.337 423.234 255.851 423.234C255.365 423.234 255.131 422.82 255.131 422.334V417.636C255.131 415.638 254.465 414.738 253.187 414.738C252.197 414.738 251.225 415.296 250.739 416.232V422.334C250.739 422.82 250.505 423.234 250.019 423.234C249.533 423.234 249.299 422.838 249.299 422.334ZM260.629 418.068C260.629 415.386 262.627 413.208 264.895 413.208C267.631 413.208 268.765 415.476 268.765 417.384C268.765 418.158 268.513 418.572 267.739 418.572H262.105C262.267 420.714 263.437 421.83 265.129 421.83C266.821 421.83 267.289 420.804 267.901 420.804C268.261 420.804 268.567 421.02 268.567 421.452C268.567 422.298 266.677 423.27 265.273 423.27C262.267 423.27 260.629 421.11 260.629 418.068ZM262.195 417.132H267.181C267.073 415.62 266.407 414.648 264.841 414.648C263.203 414.648 262.501 415.836 262.195 417.132ZM273.596 422.334V414.252C273.596 413.766 273.83 413.37 274.316 413.37C274.82 413.37 275.036 413.748 275.036 414.612C275.558 413.964 276.746 413.298 277.646 413.298C279.23 413.298 280.454 414.576 280.472 415.782C280.472 416.286 280.238 416.7 279.752 416.7C279.302 416.7 279.104 416.304 279.032 415.998C278.852 415.314 278.42 414.738 277.448 414.738C276.602 414.738 275.612 415.512 275.036 416.358V422.334C275.036 422.838 274.802 423.234 274.316 423.234C273.83 423.234 273.596 422.82 273.596 422.334ZM299.819 414.702C298.775 414.702 297.713 415.584 297.281 416.628V419.958C297.857 421.11 298.811 421.866 300.035 421.866C301.583 421.866 302.483 420.498 302.483 418.32C302.483 415.89 301.457 414.702 299.819 414.702ZM295.841 426.582V414.234C295.841 413.748 296.075 413.334 296.561 413.334C297.047 413.334 297.281 413.73 297.281 414.234V414.486C297.803 413.874 298.847 413.28 299.927 413.28C302.015 413.28 303.923 414.954 303.923 418.32C303.923 421.272 302.357 423.27 300.089 423.27C299.045 423.27 298.073 422.856 297.281 422.1V426.582C297.281 427.086 297.047 427.482 296.561 427.482C296.075 427.482 295.841 427.068 295.841 426.582ZM308.971 420.336C308.971 421.434 309.943 421.812 310.555 421.848C312.049 421.848 312.985 420.894 313.561 419.958V418.644C310.609 418.644 308.971 418.968 308.971 420.336ZM307.531 420.516C307.531 418.23 309.259 417.384 313.561 417.366C313.633 415.386 312.769 414.648 311.167 414.648C309.619 414.648 309.331 415.692 308.701 415.692C308.251 415.692 307.999 415.476 307.999 414.972C307.999 414.162 309.457 413.208 311.167 413.208C313.705 413.208 315.001 414.882 315.001 416.754V422.334C315.001 422.82 314.767 423.234 314.281 423.234C313.795 423.234 313.561 422.82 313.561 421.83C313.093 422.694 311.869 423.252 310.735 423.252C309.205 423.252 307.531 422.28 307.531 420.516ZM320.354 422.334V414.252C320.354 413.766 320.588 413.37 321.074 413.37C321.578 413.37 321.794 413.748 321.794 414.612C322.316 413.964 323.504 413.298 324.404 413.298C325.988 413.298 327.212 414.576 327.23 415.782C327.23 416.286 326.996 416.7 326.51 416.7C326.06 416.7 325.862 416.304 325.79 415.998C325.61 415.314 325.178 414.738 324.206 414.738C323.36 414.738 322.37 415.512 321.794 416.358V422.334C321.794 422.838 321.56 423.234 321.074 423.234C320.588 423.234 320.354 422.82 320.354 422.334ZM332.349 420.336C332.349 421.434 333.321 421.812 333.933 421.848C335.427 421.848 336.363 420.894 336.939 419.958V418.644C333.987 418.644 332.349 418.968 332.349 420.336ZM330.909 420.516C330.909 418.23 332.637 417.384 336.939 417.366C337.011 415.386 336.147 414.648 334.545 414.648C332.997 414.648 332.709 415.692 332.079 415.692C331.629 415.692 331.377 415.476 331.377 414.972C331.377 414.162 332.835 413.208 334.545 413.208C337.083 413.208 338.379 414.882 338.379 416.754V422.334C338.379 422.82 338.145 423.234 337.659 423.234C337.173 423.234 336.939 422.82 336.939 421.83C336.471 422.694 335.247 423.252 334.113 423.252C332.583 423.252 330.909 422.28 330.909 420.516ZM343.589 418.158C343.589 419.562 344.507 421.218 346.163 421.218C347.567 421.218 348.359 420.39 348.827 419.526V416.268C348.251 415.422 347.405 414.828 346.235 414.738C344.417 414.738 343.589 416.43 343.589 418.158ZM342.149 418.158C342.149 415.422 343.733 413.298 346.217 413.298C347.117 413.298 348.341 413.802 348.827 414.36C348.863 413.73 349.097 413.352 349.547 413.352C350.033 413.352 350.267 413.766 350.267 414.252V422.442C350.267 424.998 348.701 426.474 346.397 426.474C344.741 426.474 342.545 425.502 342.545 424.728C342.545 424.296 342.779 423.972 343.193 423.972C344.111 423.972 344.561 424.98 346.397 424.98C347.927 424.98 348.827 424.08 348.827 422.514V421.488C348.485 422.01 347.531 422.658 346.163 422.658C343.787 422.658 342.149 420.606 342.149 418.158ZM355.422 422.334V414.252C355.422 413.766 355.656 413.37 356.142 413.37C356.646 413.37 356.862 413.748 356.862 414.612C357.384 413.964 358.572 413.298 359.472 413.298C361.056 413.298 362.28 414.576 362.298 415.782C362.298 416.286 362.064 416.7 361.578 416.7C361.128 416.7 360.93 416.304 360.858 415.998C360.678 415.314 360.246 414.738 359.274 414.738C358.428 414.738 357.438 415.512 356.862 416.358V422.334C356.862 422.838 356.628 423.234 356.142 423.234C355.656 423.234 355.422 422.82 355.422 422.334ZM367.418 420.336C367.418 421.434 368.39 421.812 369.002 421.848C370.496 421.848 371.432 420.894 372.008 419.958V418.644C369.056 418.644 367.418 418.968 367.418 420.336ZM365.978 420.516C365.978 418.23 367.706 417.384 372.008 417.366C372.08 415.386 371.216 414.648 369.614 414.648C368.066 414.648 367.778 415.692 367.148 415.692C366.698 415.692 366.446 415.476 366.446 414.972C366.446 414.162 367.904 413.208 369.614 413.208C372.152 413.208 373.448 414.882 373.448 416.754V422.334C373.448 422.82 373.214 423.234 372.728 423.234C372.242 423.234 372.008 422.82 372.008 421.83C371.54 422.694 370.316 423.252 369.182 423.252C367.652 423.252 365.978 422.28 365.978 420.516ZM381.645 414.702C380.601 414.702 379.539 415.584 379.107 416.628V419.958C379.683 421.11 380.637 421.866 381.861 421.866C383.409 421.866 384.309 420.498 384.309 418.32C384.309 415.89 383.283 414.702 381.645 414.702ZM377.667 426.582V414.234C377.667 413.748 377.901 413.334 378.387 413.334C378.873 413.334 379.107 413.73 379.107 414.234V414.486C379.629 413.874 380.673 413.28 381.753 413.28C383.841 413.28 385.749 414.954 385.749 418.32C385.749 421.272 384.183 423.27 381.915 423.27C380.871 423.27 379.899 422.856 379.107 422.1V426.582C379.107 427.086 378.873 427.482 378.387 427.482C377.901 427.482 377.667 427.068 377.667 426.582ZM389.573 422.334V409.986C389.573 409.482 389.807 409.086 390.293 409.086C390.779 409.086 391.013 409.5 391.013 409.986V414.378C391.535 413.856 392.525 413.334 393.623 413.334C395.747 413.334 396.845 415.08 396.845 417.672V422.334C396.845 422.82 396.611 423.234 396.125 423.234C395.639 423.234 395.405 422.82 395.405 422.334V417.636C395.405 415.638 394.739 414.738 393.461 414.738C392.471 414.738 391.499 415.296 391.013 416.232V422.334C391.013 422.82 390.779 423.234 390.293 423.234C389.807 423.234 389.573 422.838 389.573 422.334ZM403.566 422.1V421.614C403.566 420.948 403.98 420.534 404.646 420.534H405.06C405.726 420.534 406.14 420.93 406.14 421.614V422.1C406.14 422.784 405.726 423.18 405.06 423.18H404.646C403.98 423.18 403.566 422.766 403.566 422.1Z" fill="white"/>
<path d="M41.962 461.808C41.782 461.682 41.602 461.502 41.602 461.16C41.602 460.782 41.782 460.638 41.962 460.512L48.964 455.634C49.108 455.526 49.288 455.472 49.468 455.472C49.954 455.472 50.206 455.742 50.206 456.156C50.206 456.408 50.152 456.66 49.936 456.804L43.528 461.16L49.936 465.516C50.152 465.66 50.206 465.912 50.206 466.164C50.206 466.542 49.882 466.848 49.468 466.848C49.288 466.848 49.108 466.794 48.964 466.686L41.962 461.808ZM54.2455 467.532C54.2455 467.406 54.2995 467.1 54.3535 466.992L59.3575 454.77C59.4835 454.464 59.7175 454.086 60.0775 454.086C60.5275 454.086 60.7975 454.338 60.7975 454.788C60.7975 454.914 60.7255 455.22 60.6715 455.328L55.6315 467.676C55.5235 467.982 55.2895 468.234 55.0015 468.234C54.5155 468.234 54.2455 467.856 54.2455 467.532ZM121.657 460.512C121.837 460.638 122.017 460.818 122.017 461.16C122.017 461.538 121.837 461.682 121.657 461.808L114.655 466.686C114.511 466.794 114.331 466.848 114.151 466.848C113.665 466.848 113.413 466.578 113.413 466.164C113.413 465.912 113.467 465.66 113.683 465.516L120.091 461.16L113.683 456.804C113.467 456.66 113.413 456.408 113.413 456.156C113.413 455.778 113.737 455.472 114.151 455.472C114.331 455.472 114.511 455.526 114.655 455.634L121.657 460.512Z" fill="white" fill-opacity="0.66"/>
<path d="M65.4309 467.334V454.986C65.4309 454.5 65.6649 454.086 66.1509 454.086C66.6369 454.086 66.8709 454.482 66.8709 454.986V459.468C67.6629 458.712 68.6349 458.298 69.6789 458.298C71.9469 458.298 73.5129 460.296 73.5129 463.248C73.5129 466.614 71.6049 468.288 69.5169 468.288C68.4369 468.288 67.3929 467.694 66.8709 467.082V467.334C66.8709 467.838 66.6369 468.234 66.1509 468.234C65.6649 468.234 65.4309 467.82 65.4309 467.334ZM66.8709 464.94C67.3029 465.984 68.3649 466.866 69.4089 466.866C71.0469 466.866 72.0729 465.678 72.0729 463.248C72.0729 461.07 71.1729 459.702 69.6249 459.702C68.4009 459.702 67.4469 460.458 66.8709 461.61V464.94ZM76.5984 463.266C76.5984 460.422 78.3444 458.208 80.9184 458.208C83.4024 458.208 85.2384 460.422 85.2384 463.266C85.2384 466.074 83.4384 468.288 80.9184 468.288C78.3804 468.288 76.5984 466.11 76.5984 463.266ZM78.0384 463.266C78.0384 465.228 79.0644 466.848 80.9184 466.848C82.7724 466.848 83.7984 465.228 83.7984 463.266C83.7984 461.106 82.7364 459.648 80.9184 459.648C79.0824 459.648 78.0384 461.124 78.0384 463.266ZM94.9478 464.94V461.61C94.3718 460.458 93.4178 459.702 92.1938 459.702C90.6458 459.702 89.7458 461.07 89.7458 463.248C89.7458 465.678 90.7718 466.866 92.4098 466.866C93.4538 466.866 94.5158 465.984 94.9478 464.94ZM96.3878 467.334C96.3878 467.82 96.1538 468.234 95.6678 468.234C95.1818 468.234 94.9478 467.838 94.9478 467.334V467.082C94.4258 467.694 93.3818 468.288 92.3018 468.288C90.2138 468.288 88.3058 466.614 88.3058 463.248C88.3058 460.296 89.8718 458.298 92.1398 458.298C93.1838 458.298 94.1558 458.712 94.9478 459.468V454.986C94.9478 454.482 95.1818 454.086 95.6678 454.086C96.1538 454.086 96.3878 454.5 96.3878 454.986V467.334ZM99.8153 470.538C99.8153 470.034 100.229 469.818 101.003 469.818C101.183 469.818 101.507 469.44 101.633 469.224L103.577 465.66L100.391 460.152C100.319 460.026 99.9413 459.414 99.9413 459.072C99.9413 458.748 100.175 458.352 100.661 458.352C101.093 458.352 101.363 458.856 101.543 459.18L104.405 464.184L107.177 459.072C107.375 458.712 107.591 458.352 108.005 458.352C108.491 458.352 108.707 458.694 108.707 459C108.707 459.162 108.599 459.558 108.365 459.972L102.713 470.07C102.371 470.7 101.921 471.294 101.021 471.294C100.463 471.294 99.8153 471.168 99.8153 470.538Z" fill="#32CD32"/>
<path d="M21.962 508.808C21.782 508.682 21.602 508.502 21.602 508.16C21.602 507.782 21.782 507.638 21.962 507.512L28.964 502.634C29.108 502.526 29.288 502.472 29.468 502.472C29.954 502.472 30.206 502.742 30.206 503.156C30.206 503.408 30.152 503.66 29.936 503.804L23.528 508.16L29.936 512.516C30.152 512.66 30.206 512.912 30.206 513.164C30.206 513.542 29.882 513.848 29.468 513.848C29.288 513.848 29.108 513.794 28.964 513.686L21.962 508.808ZM34.2455 514.532C34.2455 514.406 34.2995 514.1 34.3535 513.992L39.3575 501.77C39.4835 501.464 39.7175 501.086 40.0775 501.086C40.5275 501.086 40.7975 501.338 40.7975 501.788C40.7975 501.914 40.7255 502.22 40.6715 502.328L35.6315 514.676C35.5235 514.982 35.2895 515.234 35.0015 515.234C34.5155 515.234 34.2455 514.856 34.2455 514.532ZM101.657 507.512C101.837 507.638 102.017 507.818 102.017 508.16C102.017 508.538 101.837 508.682 101.657 508.808L94.6547 513.686C94.5107 513.794 94.3307 513.848 94.1507 513.848C93.6647 513.848 93.4127 513.578 93.4127 513.164C93.4127 512.912 93.4667 512.66 93.6827 512.516L100.091 508.16L93.6827 503.804C93.4667 503.66 93.4127 503.408 93.4127 503.156C93.4127 502.778 93.7367 502.472 94.1507 502.472C94.3307 502.472 94.5107 502.526 94.6547 502.634L101.657 507.512Z" fill="white" fill-opacity="0.66"/>
<path d="M45.6469 514.334V501.986C45.6469 501.482 45.8809 501.086 46.3669 501.086C46.8529 501.086 47.0869 501.5 47.0869 501.986V506.378C47.6089 505.856 48.5989 505.334 49.6969 505.334C51.8209 505.334 52.9189 507.08 52.9189 509.672V514.334C52.9189 514.82 52.6849 515.234 52.1989 515.234C51.7129 515.234 51.4789 514.82 51.4789 514.334V509.636C51.4789 507.638 50.8129 506.738 49.5349 506.738C48.5449 506.738 47.5729 507.296 47.0869 508.232V514.334C47.0869 514.82 46.8529 515.234 46.3669 515.234C45.8809 515.234 45.6469 514.838 45.6469 514.334ZM56.6884 506.234C56.6884 505.748 57.1024 505.514 57.5884 505.514H59.1184V503.696C59.1184 503.174 59.3704 502.796 59.8744 502.796C60.3784 502.796 60.5584 503.21 60.5584 503.696V505.514H63.4564C63.9424 505.514 64.3564 505.748 64.3564 506.234C64.3564 506.72 63.9424 506.954 63.4564 506.954H60.5584V511.418C60.5584 512.966 60.5584 513.794 61.9444 513.794C63.0604 513.794 63.2224 513.326 63.7444 513.326C64.2304 513.326 64.4104 513.578 64.4104 514.064C64.4104 514.658 63.2044 515.234 62.0884 515.234C59.9104 515.234 59.1184 514.208 59.1184 511.382V506.954H57.5884C57.1024 506.954 56.6884 506.72 56.6884 506.234ZM67.9458 514.334V506.252C67.9458 505.748 68.2158 505.352 68.7018 505.352C69.0078 505.352 69.2418 505.514 69.4578 506.072C69.7278 505.658 70.2858 505.298 70.9158 505.298C71.6538 505.298 72.3198 505.694 72.6798 506.144C73.1658 505.712 73.9938 505.298 74.7318 505.298C76.0998 505.298 77.2518 506.414 77.2518 508.394V514.334C77.2518 514.82 77.0178 515.234 76.5318 515.234C76.0458 515.234 75.8118 514.838 75.8118 514.334V508.412C75.8118 507.296 75.3798 506.738 74.6598 506.738C73.8498 506.738 73.3278 507.26 73.3278 508.394V514.334C73.3278 514.82 73.0938 515.234 72.6078 515.234C72.1218 515.234 71.8878 514.838 71.8878 514.334V508.412C71.8878 507.26 71.3658 506.738 70.6458 506.738C69.9978 506.738 69.3858 507.224 69.3858 508.43V514.334C69.3858 514.82 69.1518 515.234 68.6658 515.234C68.1798 515.234 67.9458 514.838 67.9458 514.334ZM82.3353 510.896V502.004C82.3353 501.5 82.5693 501.086 83.0733 501.086C83.5593 501.086 83.7753 501.5 83.7753 502.004V510.896C83.7753 512.444 84.3693 513.686 86.6373 513.686C87.3753 513.686 87.7893 513.92 87.7893 514.406C87.7893 514.892 87.3753 515.126 86.5833 515.126C83.6313 515.126 82.3353 513.83 82.3353 510.896Z" fill="#32CD32"/>
</svg>
