<svg width="1046" height="208" viewBox="0 0 1046 208" fill="none" xmlns="http://www.w3.org/2000/svg">
<path d="M0 44C0 42.8954 0.895431 42 2 42H1044C1045.1 42 1046 42.8954 1046 44V143C1046 144.105 1045.1 145 1044 145H2.00001C0.895443 145 0 144.105 0 143V44Z" fill="black" fill-opacity="0.1"/>
<path d="M38.104 93.736C37.544 93.344 36.984 92.784 36.984 91.72C36.984 90.544 37.544 90.096 38.104 89.704L59.888 74.528C60.336 74.192 60.896 74.024 61.456 74.024C62.968 74.024 63.752 74.864 63.752 76.152C63.752 76.936 63.584 77.72 62.912 78.168L42.976 91.72L62.912 105.272C63.584 105.72 63.752 106.504 63.752 107.288C63.752 108.464 62.744 109.416 61.456 109.416C60.896 109.416 60.336 109.248 59.888 108.912L38.104 93.736ZM87.1272 87.184C83.8792 87.184 80.5752 89.928 79.2312 93.176V103.536C81.0232 107.12 83.9912 109.472 87.7992 109.472C92.6152 109.472 95.4152 105.216 95.4152 98.44C95.4152 90.88 92.2232 87.184 87.1272 87.184ZM74.7512 124.144V85.728C74.7512 84.216 75.4792 82.928 76.9912 82.928C78.5032 82.928 79.2312 84.16 79.2312 85.728V86.512C80.8552 84.608 84.1032 82.76 87.4632 82.76C93.9592 82.76 99.8952 87.968 99.8952 98.44C99.8952 107.624 95.0232 113.84 87.9672 113.84C84.7192 113.84 81.6952 112.552 79.2312 110.2V124.144C79.2312 125.712 78.5032 126.944 76.9912 126.944C75.4792 126.944 74.7512 125.656 74.7512 124.144ZM140.574 89.704C141.134 90.096 141.694 90.656 141.694 91.72C141.694 92.896 141.134 93.344 140.574 93.736L118.79 108.912C118.342 109.248 117.782 109.416 117.222 109.416C115.71 109.416 114.926 108.576 114.926 107.288C114.926 106.504 115.094 105.72 115.766 105.272L135.702 91.72L115.766 78.168C115.094 77.72 114.926 76.936 114.926 76.152C114.926 74.976 115.934 74.024 117.222 74.024C117.782 74.024 118.342 74.192 118.79 74.528L140.574 89.704ZM145.358 75.984C145.358 74.416 146.59 73.744 148.158 73.744H170.558C172.126 73.744 173.358 74.472 173.358 75.984C173.358 77.496 172.07 78.224 170.558 78.224H161.598V110.76C161.598 112.272 160.87 113.56 159.358 113.56C157.846 113.56 157.118 112.328 157.118 110.76V78.224H148.158C146.646 78.224 145.358 77.552 145.358 75.984ZM184.525 110.928V72.512C184.525 70.944 185.253 69.712 186.765 69.712C188.277 69.712 189.005 71 189.005 72.512V86.176C190.629 84.552 193.709 82.928 197.125 82.928C203.733 82.928 207.149 88.36 207.149 96.424V110.928C207.149 112.44 206.421 113.728 204.909 113.728C203.397 113.728 202.669 112.44 202.669 110.928V96.312C202.669 90.096 200.597 87.296 196.621 87.296C193.541 87.296 190.517 89.032 189.005 91.944V110.928C189.005 112.44 188.277 113.728 186.765 113.728C185.253 113.728 184.525 112.496 184.525 110.928ZM230.188 73.968V72.512C230.188 70.944 231.476 69.712 232.988 69.712H234.388C235.9 69.712 237.188 70.944 237.188 72.512V73.968C237.188 75.536 235.9 76.768 234.388 76.768H232.988C231.476 76.768 230.188 75.536 230.188 73.968ZM221.9 85.336C221.9 83.824 223.132 83.096 224.7 83.096H233.1C235.788 83.096 237.02 84.328 237.02 87.016V110.704C237.02 112.272 236.292 113.504 234.78 113.504C233.268 113.504 232.54 112.216 232.54 110.704V87.576H224.7C223.188 87.576 221.9 86.848 221.9 85.336ZM256.755 107.456C256.755 106.336 257.315 105.216 258.827 105.216C261.571 105.216 261.795 109.584 268.123 109.584C273.163 109.584 275.515 107.848 275.515 105.16C275.515 102.472 272.827 100.904 267.619 100.064C262.523 99.224 257.595 97.152 257.595 91.216C257.595 86.064 261.907 82.536 268.459 82.536C275.291 82.536 279.435 86.624 279.435 89.312C279.435 90.824 278.931 91.832 277.419 91.832C276.075 91.832 274.899 90.768 274.395 89.592C273.723 88.024 271.763 86.904 268.123 86.904C264.259 86.904 262.131 88.416 262.131 90.88C262.131 93.4 263.979 95.024 269.187 95.696C275.515 96.536 279.995 99.168 279.995 104.768C279.995 109.752 277.139 113.896 267.899 113.896C262.019 113.896 256.755 109.696 256.755 107.456ZM339.29 73.968V72.512C339.29 70.944 340.578 69.712 342.09 69.712H343.49C345.002 69.712 346.29 70.944 346.29 72.512V73.968C346.29 75.536 345.002 76.768 343.49 76.768H342.09C340.578 76.768 339.29 75.536 339.29 73.968ZM331.002 85.336C331.002 83.824 332.234 83.096 333.802 83.096H342.202C344.89 83.096 346.122 84.328 346.122 87.016V110.704C346.122 112.272 345.394 113.504 343.882 113.504C342.37 113.504 341.642 112.216 341.642 110.704V87.576H333.802C332.29 87.576 331.002 86.848 331.002 85.336ZM365.857 107.456C365.857 106.336 366.417 105.216 367.929 105.216C370.673 105.216 370.897 109.584 377.225 109.584C382.265 109.584 384.617 107.848 384.617 105.16C384.617 102.472 381.929 100.904 376.721 100.064C371.625 99.224 366.697 97.152 366.697 91.216C366.697 86.064 371.009 82.536 377.561 82.536C384.393 82.536 388.537 86.624 388.537 89.312C388.537 90.824 388.033 91.832 386.521 91.832C385.177 91.832 384.001 90.768 383.497 89.592C382.825 88.024 380.865 86.904 377.225 86.904C373.361 86.904 371.233 88.416 371.233 90.88C371.233 93.4 373.081 95.024 378.289 95.696C384.617 96.536 389.097 99.168 389.097 104.768C389.097 109.752 386.241 113.896 377.001 113.896C371.121 113.896 365.857 109.696 365.857 107.456ZM442.903 104.712C442.903 108.128 445.927 109.304 447.831 109.416C452.479 109.416 455.391 106.448 457.183 103.536V99.448C447.999 99.448 442.903 100.456 442.903 104.712ZM438.423 105.272C438.423 98.16 443.799 95.528 457.183 95.472C457.407 89.312 454.719 87.016 449.735 87.016C444.919 87.016 444.023 90.264 442.063 90.264C440.663 90.264 439.879 89.592 439.879 88.024C439.879 85.504 444.415 82.536 449.735 82.536C457.631 82.536 461.663 87.744 461.663 93.568V110.928C461.663 112.44 460.935 113.728 459.423 113.728C457.911 113.728 457.183 112.44 457.183 109.36C455.727 112.048 451.919 113.784 448.391 113.784C443.631 113.784 438.423 110.76 438.423 105.272ZM523.533 87.184C520.285 87.184 516.981 89.928 515.637 93.176V103.536C517.429 107.12 520.397 109.472 524.205 109.472C529.021 109.472 531.821 105.216 531.821 98.44C531.821 90.88 528.629 87.184 523.533 87.184ZM511.157 124.144V85.728C511.157 84.216 511.885 82.928 513.397 82.928C514.909 82.928 515.637 84.16 515.637 85.728V86.512C517.261 84.608 520.509 82.76 523.869 82.76C530.365 82.76 536.301 87.968 536.301 98.44C536.301 107.624 531.429 113.84 524.373 113.84C521.125 113.84 518.101 112.552 515.637 110.2V124.144C515.637 125.712 514.909 126.944 513.397 126.944C511.885 126.944 511.157 125.656 511.157 124.144ZM552.005 104.712C552.005 108.128 555.029 109.304 556.933 109.416C561.581 109.416 564.493 106.448 566.285 103.536V99.448C557.101 99.448 552.005 100.456 552.005 104.712ZM547.525 105.272C547.525 98.16 552.901 95.528 566.285 95.472C566.509 89.312 563.821 87.016 558.837 87.016C554.021 87.016 553.125 90.264 551.165 90.264C549.765 90.264 548.981 89.592 548.981 88.024C548.981 85.504 553.517 82.536 558.837 82.536C566.733 82.536 570.765 87.744 570.765 93.568V110.928C570.765 112.44 570.037 113.728 568.525 113.728C567.013 113.728 566.285 112.44 566.285 109.36C564.829 112.048 561.021 113.784 557.493 113.784C552.733 113.784 547.525 110.76 547.525 105.272ZM587.42 110.928V85.784C587.42 84.272 588.148 83.04 589.66 83.04C591.228 83.04 591.9 84.216 591.9 86.904C593.524 84.888 597.22 82.816 600.02 82.816C604.948 82.816 608.756 86.792 608.812 90.544C608.812 92.112 608.084 93.4 606.572 93.4C605.172 93.4 604.556 92.168 604.332 91.216C603.772 89.088 602.428 87.296 599.404 87.296C596.772 87.296 593.692 89.704 591.9 92.336V110.928C591.9 112.496 591.172 113.728 589.66 113.728C588.148 113.728 587.42 112.44 587.42 110.928ZM624.739 104.712C624.739 108.128 627.763 109.304 629.667 109.416C634.315 109.416 637.227 106.448 639.019 103.536V99.448C629.835 99.448 624.739 100.456 624.739 104.712ZM620.259 105.272C620.259 98.16 625.635 95.528 639.019 95.472C639.243 89.312 636.555 87.016 631.571 87.016C626.755 87.016 625.859 90.264 623.899 90.264C622.499 90.264 621.715 89.592 621.715 88.024C621.715 85.504 626.251 82.536 631.571 82.536C639.467 82.536 643.499 87.744 643.499 93.568V110.928C643.499 112.44 642.771 113.728 641.259 113.728C639.747 113.728 639.019 112.44 639.019 109.36C637.563 112.048 633.755 113.784 630.227 113.784C625.467 113.784 620.259 110.76 620.259 105.272ZM659.706 97.936C659.706 102.304 662.562 107.456 667.714 107.456C672.082 107.456 674.546 104.88 676.002 102.192V92.056C674.21 89.424 671.578 87.576 667.938 87.296C662.282 87.296 659.706 92.56 659.706 97.936ZM655.226 97.936C655.226 89.424 660.154 82.816 667.882 82.816C670.682 82.816 674.49 84.384 676.002 86.12C676.114 84.16 676.842 82.984 678.242 82.984C679.754 82.984 680.482 84.272 680.482 85.784V111.264C680.482 119.216 675.61 123.808 668.442 123.808C663.29 123.808 656.458 120.784 656.458 118.376C656.458 117.032 657.186 116.024 658.474 116.024C661.33 116.024 662.73 119.16 668.442 119.16C673.202 119.16 676.002 116.36 676.002 111.488V108.296C674.938 109.92 671.97 111.936 667.714 111.936C660.322 111.936 655.226 105.552 655.226 97.936ZM696.521 110.928V85.784C696.521 84.272 697.249 83.04 698.761 83.04C700.329 83.04 701.001 84.216 701.001 86.904C702.625 84.888 706.321 82.816 709.121 82.816C714.049 82.816 717.857 86.792 717.913 90.544C717.913 92.112 717.185 93.4 715.673 93.4C714.273 93.4 713.657 92.168 713.433 91.216C712.873 89.088 711.529 87.296 708.505 87.296C705.873 87.296 702.793 89.704 701.001 92.336V110.928C701.001 112.496 700.273 113.728 698.761 113.728C697.249 113.728 696.521 112.44 696.521 110.928ZM733.841 104.712C733.841 108.128 736.865 109.304 738.769 109.416C743.417 109.416 746.329 106.448 748.121 103.536V99.448C738.937 99.448 733.841 100.456 733.841 104.712ZM729.361 105.272C729.361 98.16 734.737 95.528 748.121 95.472C748.345 89.312 745.657 87.016 740.673 87.016C735.857 87.016 734.961 90.264 733.001 90.264C731.601 90.264 730.817 89.592 730.817 88.024C730.817 85.504 735.353 82.536 740.673 82.536C748.569 82.536 752.601 87.744 752.601 93.568V110.928C752.601 112.44 751.873 113.728 750.361 113.728C748.849 113.728 748.121 112.44 748.121 109.36C746.665 112.048 742.857 113.784 739.329 113.784C734.569 113.784 729.361 110.76 729.361 105.272ZM778.104 87.184C774.856 87.184 771.552 89.928 770.208 93.176V103.536C772 107.12 774.968 109.472 778.776 109.472C783.592 109.472 786.392 105.216 786.392 98.44C786.392 90.88 783.2 87.184 778.104 87.184ZM765.728 124.144V85.728C765.728 84.216 766.456 82.928 767.968 82.928C769.48 82.928 770.208 84.16 770.208 85.728V86.512C771.832 84.608 775.08 82.76 778.44 82.76C784.936 82.76 790.872 87.968 790.872 98.44C790.872 107.624 786 113.84 778.944 113.84C775.696 113.84 772.672 112.552 770.208 110.2V124.144C770.208 125.712 769.48 126.944 767.968 126.944C766.456 126.944 765.728 125.656 765.728 124.144ZM802.767 110.928V72.512C802.767 70.944 803.495 69.712 805.007 69.712C806.519 69.712 807.247 71 807.247 72.512V86.176C808.871 84.552 811.951 82.928 815.367 82.928C821.975 82.928 825.391 88.36 825.391 96.424V110.928C825.391 112.44 824.663 113.728 823.151 113.728C821.639 113.728 820.911 112.44 820.911 110.928V96.312C820.911 90.096 818.839 87.296 814.863 87.296C811.783 87.296 808.759 89.032 807.247 91.944V110.928C807.247 112.44 806.519 113.728 805.007 113.728C803.495 113.728 802.767 112.496 802.767 110.928ZM846.302 110.2V108.688C846.302 106.616 847.59 105.328 849.662 105.328H850.95C853.022 105.328 854.31 106.56 854.31 108.688V110.2C854.31 112.328 853.022 113.56 850.95 113.56H849.662C847.59 113.56 846.302 112.272 846.302 110.2ZM874.549 93.736C873.989 93.344 873.429 92.784 873.429 91.72C873.429 90.544 873.989 90.096 874.549 89.704L896.333 74.528C896.781 74.192 897.341 74.024 897.901 74.024C899.413 74.024 900.197 74.864 900.197 76.152C900.197 76.936 900.029 77.72 899.357 78.168L879.421 91.72L899.357 105.272C900.029 105.72 900.197 106.504 900.197 107.288C900.197 108.464 899.189 109.416 897.901 109.416C897.341 109.416 896.781 109.248 896.333 108.912L874.549 93.736ZM912.765 111.544C912.765 111.152 912.933 110.2 913.101 109.864L928.669 71.84C929.061 70.888 929.789 69.712 930.909 69.712C932.309 69.712 933.149 70.496 933.149 71.896C933.149 72.288 932.925 73.24 932.757 73.576L917.077 111.992C916.741 112.944 916.013 113.728 915.117 113.728C913.605 113.728 912.765 112.552 912.765 111.544ZM959.94 87.184C956.692 87.184 953.388 89.928 952.044 93.176V103.536C953.836 107.12 956.804 109.472 960.612 109.472C965.428 109.472 968.228 105.216 968.228 98.44C968.228 90.88 965.036 87.184 959.94 87.184ZM947.564 124.144V85.728C947.564 84.216 948.292 82.928 949.804 82.928C951.316 82.928 952.044 84.16 952.044 85.728V86.512C953.668 84.608 956.916 82.76 960.276 82.76C966.772 82.76 972.708 87.968 972.708 98.44C972.708 107.624 967.836 113.84 960.78 113.84C957.532 113.84 954.508 112.552 952.044 110.2V124.144C952.044 125.712 951.316 126.944 949.804 126.944C948.292 126.944 947.564 125.656 947.564 124.144ZM1013.39 89.704C1013.95 90.096 1014.51 90.656 1014.51 91.72C1014.51 92.896 1013.95 93.344 1013.39 93.736L991.603 108.912C991.155 109.248 990.595 109.416 990.035 109.416C988.523 109.416 987.739 108.576 987.739 107.288C987.739 106.504 987.907 105.72 988.579 105.272L1008.51 91.72L988.579 78.168C987.907 77.72 987.739 76.936 987.739 76.152C987.739 74.976 988.747 74.024 990.035 74.024C990.595 74.024 991.155 74.192 991.603 74.528L1013.39 89.704Z" fill="black"/>
<path d="M38.5891 18.7946C38.1521 18.7946 37.7946 18.437 37.7946 18V3.69807C37.7946 3.26107 38.1521 2.90352 38.5891 2.90352H47.454C47.891 2.90352 48.2486 3.26107 48.2486 3.69807V3.70374C48.2486 4.14075 47.891 4.4983 47.454 4.4983H39.3893V9.60613H44.8831C45.3201 9.60613 45.6776 9.96368 45.6776 10.4007V10.4064C45.6776 10.849 45.3201 11.2009 44.8831 11.2009H39.3893V17.1998H47.84C48.277 17.1998 48.6345 17.5573 48.6345 17.9943V18C48.6345 18.437 48.277 18.7946 47.84 18.7946H38.5891ZM53.0088 2.90352C53.4515 2.90352 53.8034 3.26674 53.8034 3.69807V18C53.8034 18.4313 53.4515 18.7946 53.0088 18.7946H53.0032C52.5662 18.7946 52.2086 18.4427 52.2086 18V3.69807C52.2086 3.26107 52.5662 2.90352 53.0032 2.90352H53.0088ZM58.954 13.8229C58.9767 15.7866 60.0209 17.3417 61.139 17.3417C62.03 17.3417 62.8075 16.5528 63.1481 15.3269C63.2389 14.9921 63.551 14.748 63.9142 14.748C64.3512 14.748 64.7088 15.1056 64.7088 15.5426C64.7088 15.6163 64.6974 15.6901 64.6804 15.7582C64.5953 16.0704 64.1696 17.5687 62.8586 18.4143C62.3478 18.7435 61.7576 18.9308 61.139 18.9308C59.0448 18.9308 57.3649 16.6322 57.3649 13.7548C57.3649 13.2157 57.4159 12.0919 57.9381 10.9228C58.2275 10.2758 58.6248 9.70829 59.1186 9.27128C59.6747 8.7832 60.3671 8.46538 61.139 8.46538C62.5465 8.46538 63.8121 9.521 64.4704 11.3825C64.5442 11.5982 64.7088 12.109 64.7088 12.6197C64.7088 12.756 64.7031 13.1135 64.4875 13.42C64.4307 13.4994 64.3512 13.5846 64.2491 13.6583C64.0959 13.7662 63.9029 13.8229 63.7213 13.8229H58.954ZM63.0686 12.2338C62.9097 11.5414 62.24 10.0545 61.139 10.0545C60.8155 10.0545 60.4863 10.1793 60.1628 10.4631C59.7939 10.7866 59.391 11.3655 59.1526 12.2338H63.0686ZM71.3532 10.0545C70.536 10.0545 69.8776 10.9058 69.8776 11.9387L69.8719 18C69.8719 18.437 69.5144 18.7946 69.0774 18.7946C68.6404 18.7946 68.2828 18.437 68.2828 18V9.39614C68.2828 8.95914 68.6404 8.60159 69.0774 8.60159C69.3612 8.60159 69.6109 8.75482 69.7528 8.97616C70.0876 8.74347 70.6381 8.46538 71.3532 8.46538C71.9434 8.46538 72.494 8.65267 72.9537 8.97049C73.2091 9.14642 73.4417 9.36209 73.6347 9.60613C73.8277 9.36209 74.0604 9.14642 74.3158 8.97049C74.7755 8.65267 75.326 8.46538 75.9162 8.46538C77.6075 8.46538 78.9809 10.0034 78.9809 11.9387L78.9752 18C78.9752 18.437 78.6177 18.7946 78.1807 18.7946C77.7437 18.7946 77.3861 18.437 77.3861 18L77.3918 11.9387C77.3918 10.9058 76.7335 10.0545 75.9162 10.0545C75.099 10.0545 74.4293 10.9058 74.4293 11.9387L74.4236 18C74.4236 18.437 74.066 18.7946 73.629 18.7946C73.192 18.7946 72.8345 18.437 72.8345 18V11.9387C72.8345 10.9058 72.1705 10.0545 71.3532 10.0545ZM84.1493 13.8229C84.172 15.7866 85.2162 17.3417 86.3343 17.3417C87.2253 17.3417 88.0029 16.5528 88.3434 15.3269C88.4342 14.9921 88.7463 14.748 89.1096 14.748C89.5466 14.748 89.9041 15.1056 89.9041 15.5426C89.9041 15.6163 89.8928 15.6901 89.8757 15.7582C89.7906 16.0704 89.3649 17.5687 88.0539 18.4143C87.5432 18.7435 86.9529 18.9308 86.3343 18.9308C84.2401 18.9308 82.5602 16.6322 82.5602 13.7548C82.5602 13.2157 82.6113 12.0919 83.1334 10.9228C83.4228 10.2758 83.8201 9.70829 84.3139 9.27128C84.8701 8.7832 85.5624 8.46538 86.3343 8.46538C87.7418 8.46538 89.0074 9.521 89.6657 11.3825C89.7395 11.5982 89.9041 12.109 89.9041 12.6197C89.9041 12.756 89.8984 13.1135 89.6828 13.42C89.626 13.4994 89.5466 13.5846 89.4444 13.6583C89.2912 13.7662 89.0982 13.8229 88.9166 13.8229H84.1493ZM88.2639 12.2338C88.105 11.5414 87.4353 10.0545 86.3343 10.0545C86.0108 10.0545 85.6816 10.1793 85.3581 10.4631C84.9892 10.7866 84.5863 11.3655 84.3479 12.2338H88.2639ZM93.4781 9.39614C93.4781 8.95914 93.8357 8.60159 94.2727 8.60159C94.5962 8.60159 94.8743 8.79455 94.9991 9.06697C95.5553 8.68672 96.225 8.46538 96.9515 8.46538C98.8697 8.46538 100.425 10.0204 100.425 11.9387V18C100.425 18.437 100.067 18.7946 99.6302 18.7946C99.1932 18.7946 98.8357 18.437 98.8357 18V11.9387C98.8357 10.8944 97.9957 10.0545 96.9515 10.0545C95.9072 10.0545 95.0729 10.8944 95.0729 11.9387L95.0672 18C95.0672 18.437 94.7097 18.7946 94.2727 18.7946C93.8357 18.7946 93.4781 18.437 93.4781 18V9.39614ZM108.971 16.0988C108.971 15.6617 109.329 15.3042 109.766 15.3042C110.203 15.3042 110.561 15.6617 110.561 16.0988V16.4109C110.561 17.7276 109.494 18.7946 108.177 18.7946C106.86 18.7946 105.793 17.7276 105.793 16.4109V10.1964L104.204 10.1907C103.767 10.1907 103.41 9.83314 103.41 9.39614C103.41 8.95914 103.767 8.60159 104.204 8.60159H105.793V6.87628C105.793 6.43927 106.151 6.08172 106.588 6.08172C107.025 6.08172 107.382 6.43927 107.382 6.87628V8.59591L109.766 8.60159C110.203 8.60159 110.561 8.95914 110.561 9.39614C110.561 9.83314 110.203 10.1907 109.766 10.1907H107.382V16.4109C107.382 16.8536 107.734 17.2054 108.177 17.2054C108.62 17.2054 108.971 16.8536 108.971 16.4109V16.0988Z" fill="black" fill-opacity="0.5"/>
<path d="M38.5 26H1012.5" stroke="black" stroke-opacity="0.5" stroke-width="1.5" stroke-linecap="round"/>
<path d="M38.5 161H142.5" stroke="black" stroke-opacity="0.5" stroke-width="1.5" stroke-linecap="round"/>
<path d="M37.7946 175.849C37.7946 171.445 40.4393 167.904 43.7253 167.904C47.0114 167.904 49.6731 171.451 49.6731 175.849C49.6731 180.253 47.0284 183.795 43.7423 183.795C40.4563 183.795 37.7946 180.247 37.7946 175.849ZM48.084 175.849C48.084 172.353 46.0863 169.493 43.7253 169.493C41.3644 169.493 39.3837 172.353 39.3837 175.849C39.3837 179.345 41.3814 182.205 43.7423 182.205C46.1033 182.205 48.084 179.345 48.084 175.849ZM54.725 173.993C54.9804 173.823 55.5763 173.465 56.422 173.465C58.5275 173.465 60.1961 175.787 60.1961 178.698C60.1961 181.61 58.5275 183.931 56.422 183.931C55.8317 183.931 55.2983 183.755 54.8329 183.454V188.698C54.8329 189.135 54.4753 189.493 54.0383 189.493C53.6013 189.493 53.2438 189.135 53.2438 188.698V174.396C53.2438 173.959 53.6013 173.602 54.0383 173.602C54.3278 173.602 54.5888 173.76 54.725 173.993ZM56.422 175.054C55.7126 175.054 55.1734 175.599 54.8329 176.212V181.138C55.2869 181.967 55.8828 182.342 56.422 182.342C57.5684 182.342 58.607 180.719 58.607 178.698C58.607 176.683 57.5684 175.054 56.422 175.054ZM65.3602 178.823C65.3829 180.787 66.4272 182.342 67.5452 182.342C68.4363 182.342 69.2138 181.553 69.5543 180.327C69.6451 179.992 69.9573 179.748 70.3205 179.748C70.7575 179.748 71.115 180.106 71.115 180.543C71.115 180.616 71.1037 180.69 71.0867 180.758C71.0015 181.07 70.5759 182.569 69.2649 183.414C68.7541 183.743 68.1638 183.931 67.5452 183.931C65.451 183.931 63.7711 181.632 63.7711 178.755C63.7711 178.216 63.8222 177.092 64.3443 175.923C64.6338 175.276 65.031 174.708 65.5248 174.271C66.081 173.783 66.7734 173.465 67.5452 173.465C68.9527 173.465 70.2183 174.521 70.8767 176.383C70.9505 176.598 71.115 177.109 71.115 177.62C71.115 177.756 71.1094 178.114 70.8937 178.42C70.8369 178.499 70.7575 178.585 70.6553 178.658C70.5021 178.766 70.3091 178.823 70.1275 178.823H65.3602ZM69.4749 177.234C69.3159 176.541 68.6463 175.054 67.5452 175.054C67.2217 175.054 66.8926 175.179 66.5691 175.463C66.2002 175.787 65.7972 176.365 65.5589 177.234H69.4749ZM74.6891 174.396C74.6891 173.959 75.0466 173.602 75.4836 173.602C75.8071 173.602 76.0852 173.795 76.2101 174.067C76.7663 173.687 77.436 173.465 78.1624 173.465C80.0807 173.465 81.6357 175.02 81.6357 176.939V183C81.6357 183.437 81.2782 183.795 80.8412 183.795C80.4042 183.795 80.0466 183.437 80.0466 183V176.939C80.0466 175.894 79.2067 175.054 78.1624 175.054C77.1181 175.054 76.2839 175.894 76.2839 176.939L76.2782 183C76.2782 183.437 75.9206 183.795 75.4836 183.795C75.0466 183.795 74.6891 183.437 74.6891 183V174.396ZM84.9213 169.691C84.9213 169.084 85.4094 168.596 86.011 168.596C86.3856 168.596 86.7204 168.789 86.919 169.084C86.9985 169.198 87.1063 169.407 87.1063 169.691C87.1063 170.293 86.6182 170.787 86.011 170.787C85.4094 170.787 84.9213 170.299 84.9213 169.691ZM86.8055 183C86.8055 183.437 86.448 183.795 86.011 183.795C85.574 183.795 85.2164 183.437 85.2164 183V174.396C85.2164 173.959 85.574 173.602 86.011 173.602C86.448 173.602 86.8055 173.959 86.8055 174.396V183ZM90.3727 174.396C90.3727 173.959 90.7302 173.602 91.1672 173.602C91.4907 173.602 91.7688 173.795 91.8937 174.067C92.4499 173.687 93.1196 173.465 93.846 173.465C95.7643 173.465 97.3193 175.02 97.3193 176.939V183C97.3193 183.437 96.9618 183.795 96.5248 183.795C96.0878 183.795 95.7302 183.437 95.7302 183V176.939C95.7302 175.894 94.8903 175.054 93.846 175.054C92.8017 175.054 91.9675 175.894 91.9675 176.939L91.9618 183C91.9618 183.437 91.6042 183.795 91.1672 183.795C90.7302 183.795 90.3727 183.437 90.3727 183V174.396ZM106.922 177.092C106.922 178.806 105.684 180.151 104.129 180.151C103.726 180.151 103.346 180.054 102.994 179.896C102.693 180.089 102.489 180.429 102.489 180.809C102.489 181.093 102.603 181.348 102.779 181.541C103.204 181.445 103.658 181.394 104.146 181.394C104.873 181.394 105.815 181.507 106.695 181.876C107.149 182.064 107.546 182.308 107.869 182.62C108.227 182.96 108.522 183.426 108.522 183.999C108.522 184.686 108.068 185.526 106.706 185.951C106.189 186.116 105.605 186.195 104.975 186.195C104.248 186.195 103.306 186.082 102.427 185.713C101.973 185.526 101.575 185.281 101.252 184.969C100.894 184.629 100.599 184.163 100.599 183.59C100.599 183.284 100.69 182.711 101.297 182.211C101.042 181.802 100.9 181.326 100.9 180.809C100.9 180.037 101.229 179.339 101.757 178.851C101.513 178.505 101.144 177.813 101.144 176.871C101.144 175.281 102.217 173.988 103.641 173.829C103.908 173.051 104.651 172.489 105.52 172.489C105.696 172.489 105.866 172.512 106.031 172.557C106.371 172.648 106.621 172.955 106.621 173.323C106.621 173.76 106.263 174.118 105.826 174.118C105.667 174.118 105.622 174.078 105.52 174.078C105.429 174.078 105.338 174.112 105.27 174.163C105.276 174.169 105.287 174.169 105.293 174.175C106.309 174.754 106.922 175.889 106.922 177.092ZM104.146 182.983C103.664 182.983 103.233 183.045 102.892 183.153C102.83 183.176 102.347 183.335 102.205 183.551C102.2 183.562 102.188 183.579 102.188 183.59C102.188 183.59 102.205 183.749 102.546 183.982C102.739 184.118 103.374 184.487 104.493 184.583C104.657 184.6 104.816 184.606 104.975 184.606C105.457 184.606 105.889 184.544 106.229 184.436C106.292 184.413 106.774 184.254 106.916 184.039C106.922 184.027 106.933 184.01 106.933 183.999C106.933 183.999 106.916 183.84 106.575 183.607C106.382 183.471 105.747 183.102 104.629 183.006C104.464 182.989 104.305 182.983 104.146 182.983ZM103.936 175.401C103.227 175.401 102.733 176.093 102.733 176.871C102.733 177.796 103.403 178.562 104.129 178.562C104.839 178.562 105.332 177.869 105.332 177.092C105.332 176.167 104.663 175.401 103.936 175.401ZM42.7605 202.099C42.7605 201.662 43.118 201.304 43.5551 201.304C43.9921 201.304 44.3496 201.662 44.3496 202.099V202.411C44.3496 203.728 43.2826 204.795 41.9659 204.795C40.6493 204.795 39.5823 203.728 39.5823 202.411V196.196L37.9932 196.191C37.5562 196.191 37.1986 195.833 37.1986 195.396C37.1986 194.959 37.5562 194.602 37.9932 194.602H39.5823V192.876C39.5823 192.439 39.9398 192.082 40.3768 192.082C40.8138 192.082 41.1714 192.439 41.1714 192.876V194.596L43.5551 194.602C43.9921 194.602 44.3496 194.959 44.3496 195.396C44.3496 195.833 43.9921 196.191 43.5551 196.191H41.1714V202.411C41.1714 202.854 41.5233 203.205 41.9659 203.205C42.4086 203.205 42.7605 202.854 42.7605 202.411V202.099ZM53.2945 197.757C53.2945 196.906 52.6134 196.054 51.45 196.054C50.2582 196.054 49.8949 196.531 49.736 196.798C49.6396 196.963 49.5601 197.167 49.5033 197.428C49.4239 197.785 49.1061 198.052 48.7258 198.052C48.2888 198.052 47.9313 197.695 47.9313 197.258C47.9313 197.201 47.9369 197.144 47.9483 197.087C48.2604 195.686 49.2423 194.465 51.45 194.465C53.4648 194.465 54.8836 195.998 54.8836 197.757V199.034V199.085V202.411C54.8836 202.825 54.946 203.075 55.0028 203.205C55.0198 203.245 55.0539 203.308 55.0879 203.342C55.3887 203.336 55.7576 203.285 55.7576 203.285C55.786 203.279 55.8257 203.274 55.8768 203.274C56.3138 203.274 56.6713 203.631 56.6713 204.068C56.6713 204.465 56.3762 204.795 55.996 204.851C55.9733 204.857 55.5249 204.931 55.0539 204.931C54.8212 204.931 54.2366 204.863 53.7826 204.255C53.5329 204.426 53.1129 204.658 52.4772 204.8C52.1424 204.874 51.8132 204.908 51.5068 204.908C50.9619 204.908 50.3774 204.823 49.8268 204.624C49.248 204.414 48.4137 203.966 48.0732 203.041C47.9767 202.785 47.9313 202.502 47.9313 202.212C47.9313 201.543 48.0902 200.396 49.3161 199.528C49.8779 199.131 50.5873 198.841 51.4841 198.603C51.9835 198.467 52.5851 198.376 53.2945 198.325V197.757ZM49.5204 202.212C49.5204 202.456 49.6112 202.621 49.7417 202.757C49.8722 202.893 50.0879 203.03 50.366 203.132C50.7122 203.257 51.1322 203.319 51.5068 203.319C51.7962 203.319 52.1708 203.262 52.4829 203.149C53.2775 202.854 53.2888 202.388 53.2888 202.212C53.2888 202.212 53.2945 201.054 53.2945 199.919C52.8688 199.953 52.3354 200.016 51.8927 200.135C50.0255 200.635 49.5204 201.27 49.5204 202.212ZM65.6716 198.092C65.6716 199.806 64.4344 201.151 62.8793 201.151C62.4764 201.151 62.0961 201.054 61.7442 200.896C61.4434 201.089 61.2391 201.429 61.2391 201.809C61.2391 202.093 61.3526 202.348 61.5286 202.541C61.9542 202.445 62.4082 202.394 62.8963 202.394C63.6228 202.394 64.5649 202.507 65.4446 202.876C65.8986 203.064 66.2959 203.308 66.6194 203.62C66.9769 203.96 67.272 204.426 67.272 204.999C67.272 205.686 66.818 206.526 65.4559 206.951C64.9395 207.116 64.3549 207.195 63.7249 207.195C62.9985 207.195 62.0564 207.082 61.1767 206.713C60.7227 206.526 60.3254 206.281 60.0019 205.969C59.6443 205.629 59.3492 205.163 59.3492 204.59C59.3492 204.284 59.44 203.711 60.0473 203.211C59.7919 202.802 59.65 202.326 59.65 201.809C59.65 201.037 59.9792 200.339 60.507 199.851C60.263 199.505 59.8941 198.813 59.8941 197.871C59.8941 196.281 60.9667 194.988 62.3912 194.829C62.658 194.051 63.4014 193.489 64.2698 193.489C64.4457 193.489 64.616 193.512 64.7806 193.557C65.1211 193.648 65.3708 193.955 65.3708 194.323C65.3708 194.76 65.0132 195.118 64.5762 195.118C64.4173 195.118 64.3719 195.078 64.2698 195.078C64.179 195.078 64.0882 195.112 64.0201 195.163C64.0257 195.169 64.0371 195.169 64.0428 195.175C65.0586 195.754 65.6716 196.889 65.6716 198.092ZM62.8963 203.983C62.4139 203.983 61.9826 204.045 61.6421 204.153C61.5796 204.176 61.0972 204.335 60.9554 204.551C60.9497 204.562 60.9383 204.579 60.9383 204.59C60.9383 204.59 60.9554 204.749 61.2959 204.982C61.4888 205.118 62.1245 205.487 63.2425 205.583C63.4071 205.6 63.566 205.606 63.7249 205.606C64.2073 205.606 64.6387 205.544 64.9792 205.436C65.0416 205.413 65.524 205.254 65.6659 205.039C65.6716 205.027 65.6829 205.01 65.6829 204.999C65.6829 204.999 65.6659 204.84 65.3254 204.607C65.1324 204.471 64.4968 204.102 63.3787 204.006C63.2142 203.989 63.0552 203.983 62.8963 203.983ZM62.6863 196.401C61.9769 196.401 61.4832 197.093 61.4832 197.871C61.4832 198.796 62.1529 199.562 62.8793 199.562C63.5887 199.562 64.0825 198.869 64.0825 198.092C64.0825 197.167 63.4128 196.401 62.6863 196.401Z" fill="black" fill-opacity="0.5"/>
<path d="M155.5 161H861.5" stroke="black" stroke-opacity="0.5" stroke-width="1.5" stroke-linecap="round"/>
<path d="M156.384 175.849C156.384 179.345 158.364 182.205 160.725 182.205C162.82 182.205 164.295 180.565 164.465 178.619C164.499 178.21 164.84 177.892 165.254 177.892C165.691 177.892 166.049 178.25 166.049 178.687C166.049 178.698 166.049 178.721 166.043 178.755C165.964 179.669 165.68 180.531 165.22 181.275C164.812 181.939 164.267 182.512 163.614 182.943C162.797 183.482 161.809 183.795 160.725 183.795C157.439 183.795 154.795 180.253 154.795 175.849C154.795 171.445 157.439 167.904 160.725 167.904C161.77 167.904 162.706 168.21 163.472 168.732C164.085 169.152 164.59 169.697 164.976 170.321C165.396 170.991 165.697 171.78 165.85 172.648C165.856 172.694 165.862 172.739 165.862 172.784C165.862 173.221 165.504 173.579 165.067 173.579C164.675 173.579 164.352 173.295 164.284 172.921C163.977 171.167 162.791 169.493 160.725 169.493C158.364 169.493 156.384 172.353 156.384 175.849ZM173.393 183.931C171.299 183.931 169.619 181.632 169.619 178.755C169.619 178.216 169.67 177.092 170.192 175.923C170.481 175.276 170.879 174.708 171.372 174.271C171.929 173.783 172.621 173.465 173.393 173.465C175.498 173.465 177.167 175.787 177.167 178.698C177.167 181.61 175.498 183.931 173.393 183.931ZM175.578 178.698C175.578 176.683 174.539 175.054 173.393 175.054C172.235 175.054 171.208 176.723 171.208 178.755C171.208 180.747 172.258 182.342 173.393 182.342C174.539 182.342 175.578 180.719 175.578 178.698ZM180.771 174.396C180.771 173.959 181.129 173.602 181.566 173.602C181.889 173.602 182.167 173.795 182.292 174.067C182.848 173.687 183.518 173.465 184.244 173.465C186.163 173.465 187.718 175.02 187.718 176.939V183C187.718 183.437 187.36 183.795 186.923 183.795C186.486 183.795 186.129 183.437 186.129 183V176.939C186.129 175.894 185.289 175.054 184.244 175.054C183.2 175.054 182.366 175.894 182.366 176.939L182.36 183C182.36 183.437 182.003 183.795 181.566 183.795C181.129 183.795 180.771 183.437 180.771 183V174.396ZM196.264 181.099C196.264 180.662 196.622 180.304 197.059 180.304C197.496 180.304 197.854 180.662 197.854 181.099V181.411C197.854 182.728 196.787 183.795 195.47 183.795C194.153 183.795 193.086 182.728 193.086 181.411V175.196L191.497 175.191C191.06 175.191 190.703 174.833 190.703 174.396C190.703 173.959 191.06 173.602 191.497 173.602H193.086V171.876C193.086 171.439 193.444 171.082 193.881 171.082C194.318 171.082 194.675 171.439 194.675 171.876V173.596L197.059 173.602C197.496 173.602 197.854 173.959 197.854 174.396C197.854 174.833 197.496 175.191 197.059 175.191H194.675V181.411C194.675 181.854 195.027 182.205 195.47 182.205C195.913 182.205 196.264 181.854 196.264 181.411V181.099ZM203.024 178.823C203.047 180.787 204.091 182.342 205.209 182.342C206.1 182.342 206.878 181.553 207.218 180.327C207.309 179.992 207.621 179.748 207.985 179.748C208.422 179.748 208.779 180.106 208.779 180.543C208.779 180.616 208.768 180.69 208.751 180.758C208.666 181.07 208.24 182.569 206.929 183.414C206.418 183.743 205.828 183.931 205.209 183.931C203.115 183.931 201.435 181.632 201.435 178.755C201.435 178.216 201.486 177.092 202.008 175.923C202.298 175.276 202.695 174.708 203.189 174.271C203.745 173.783 204.437 173.465 205.209 173.465C206.617 173.465 207.882 174.521 208.541 176.383C208.615 176.598 208.779 177.109 208.779 177.62C208.779 177.756 208.773 178.114 208.558 178.42C208.501 178.499 208.422 178.585 208.319 178.658C208.166 178.766 207.973 178.823 207.792 178.823H203.024ZM207.139 177.234C206.98 176.541 206.31 175.054 205.209 175.054C204.886 175.054 204.557 175.179 204.233 175.463C203.864 175.787 203.461 176.365 203.223 177.234H207.139ZM212.353 174.396C212.353 173.959 212.711 173.602 213.148 173.602C213.471 173.602 213.749 173.795 213.874 174.067C214.43 173.687 215.1 173.465 215.826 173.465C217.745 173.465 219.3 175.02 219.3 176.939V183C219.3 183.437 218.942 183.795 218.505 183.795C218.068 183.795 217.711 183.437 217.711 183V176.939C217.711 175.894 216.871 175.054 215.826 175.054C214.782 175.054 213.948 175.894 213.948 176.939L213.942 183C213.942 183.437 213.585 183.795 213.148 183.795C212.711 183.795 212.353 183.437 212.353 183V174.396ZM227.846 181.099C227.846 180.662 228.204 180.304 228.641 180.304C229.078 180.304 229.436 180.662 229.436 181.099V181.411C229.436 182.728 228.369 183.795 227.052 183.795C225.735 183.795 224.668 182.728 224.668 181.411V175.196L223.079 175.191C222.642 175.191 222.285 174.833 222.285 174.396C222.285 173.959 222.642 173.602 223.079 173.602H224.668V171.876C224.668 171.439 225.026 171.082 225.463 171.082C225.9 171.082 226.257 171.439 226.257 171.876V173.596L228.641 173.602C229.078 173.602 229.436 173.959 229.436 174.396C229.436 174.833 229.078 175.191 228.641 175.191H226.257V181.411C226.257 181.854 226.609 182.205 227.052 182.205C227.495 182.205 227.846 181.854 227.846 181.411V181.099Z" fill="black" fill-opacity="0.5"/>
<path d="M874.5 161H1012.5" stroke="black" stroke-opacity="0.5" stroke-width="1.5" stroke-linecap="round"/>
<path d="M875.384 175.849C875.384 179.345 877.364 182.205 879.725 182.205C881.82 182.205 883.295 180.565 883.465 178.619C883.499 178.21 883.84 177.892 884.254 177.892C884.691 177.892 885.049 178.25 885.049 178.687C885.049 178.698 885.049 178.721 885.043 178.755C884.964 179.669 884.68 180.531 884.22 181.275C883.812 181.939 883.267 182.512 882.614 182.943C881.797 183.482 880.809 183.795 879.725 183.795C876.439 183.795 873.795 180.253 873.795 175.849C873.795 171.445 876.439 167.904 879.725 167.904C880.77 167.904 881.706 168.21 882.472 168.732C883.085 169.152 883.59 169.697 883.976 170.321C884.396 170.991 884.697 171.78 884.85 172.648C884.856 172.694 884.862 172.739 884.862 172.784C884.862 173.221 884.504 173.579 884.067 173.579C883.675 173.579 883.352 173.295 883.284 172.921C882.977 171.167 881.791 169.493 879.725 169.493C877.364 169.493 875.384 172.353 875.384 175.849ZM889.419 167.904C889.862 167.904 890.214 168.267 890.214 168.698V183C890.214 183.431 889.862 183.795 889.419 183.795H889.413C888.976 183.795 888.619 183.443 888.619 183V168.698C888.619 168.261 888.976 167.904 889.413 167.904H889.419ZM897.549 183.931C895.455 183.931 893.775 181.632 893.775 178.755C893.775 178.216 893.826 177.092 894.348 175.923C894.638 175.276 895.035 174.708 895.529 174.271C896.085 173.783 896.777 173.465 897.549 173.465C899.655 173.465 901.323 175.787 901.323 178.698C901.323 181.61 899.655 183.931 897.549 183.931ZM899.734 178.698C899.734 176.683 898.696 175.054 897.549 175.054C896.391 175.054 895.364 176.723 895.364 178.755C895.364 180.747 896.414 182.342 897.549 182.342C898.696 182.342 899.734 180.719 899.734 178.698ZM905.166 176.479C905.166 174.833 906.692 173.465 908.406 173.465C909.07 173.465 909.649 173.658 910.12 173.965C910.535 174.237 910.858 174.578 911.102 174.941C911.397 175.372 911.602 175.849 911.698 176.314C911.709 176.365 911.715 176.422 911.715 176.479C911.715 176.916 911.358 177.274 910.921 177.274C910.54 177.274 910.217 177.001 910.143 176.644C910.058 176.252 909.78 175.639 909.258 175.299C909.025 175.145 908.753 175.054 908.406 175.054C907.566 175.054 906.755 175.73 906.755 176.479C906.755 176.638 906.789 176.837 906.959 177.052C907.084 177.211 907.277 177.364 907.521 177.495C907.827 177.659 908.202 177.784 908.565 177.847C909.286 177.972 911.142 178.386 911.806 179.799C911.953 180.111 912.039 180.469 912.039 180.849C912.039 182.398 910.79 183.931 908.406 183.931C907.72 183.931 907.118 183.715 906.63 183.397C906.199 183.114 905.858 182.756 905.591 182.381C905.364 182.064 905.075 181.558 904.944 180.957C904.933 180.906 904.927 180.849 904.927 180.792C904.927 180.355 905.285 179.998 905.722 179.998C906.102 179.998 906.426 180.27 906.499 180.628C906.619 181.178 907.26 182.342 908.406 182.342C909.11 182.342 909.587 182.16 909.893 181.927C910.274 181.644 910.449 181.246 910.449 180.849C910.449 180.656 910.398 180.446 910.194 180.225C909.837 179.844 909.116 179.561 908.293 179.413C907.339 179.243 906.324 178.806 905.716 178.04C905.529 177.801 905.166 177.274 905.166 176.479ZM915.316 169.691C915.316 169.084 915.804 168.596 916.406 168.596C916.78 168.596 917.115 168.789 917.314 169.084C917.393 169.198 917.501 169.407 917.501 169.691C917.501 170.293 917.013 170.787 916.406 170.787C915.804 170.787 915.316 170.299 915.316 169.691ZM917.2 183C917.2 183.437 916.843 183.795 916.406 183.795C915.969 183.795 915.611 183.437 915.611 183V174.396C915.611 173.959 915.969 173.602 916.406 173.602C916.843 173.602 917.2 173.959 917.2 174.396V183ZM920.767 174.396C920.767 173.959 921.125 173.602 921.562 173.602C921.885 173.602 922.163 173.795 922.288 174.067C922.844 173.687 923.514 173.465 924.241 173.465C926.159 173.465 927.714 175.02 927.714 176.939V183C927.714 183.437 927.356 183.795 926.919 183.795C926.482 183.795 926.125 183.437 926.125 183V176.939C926.125 175.894 925.285 175.054 924.241 175.054C923.196 175.054 922.362 175.894 922.362 176.939L922.356 183C922.356 183.437 921.999 183.795 921.562 183.795C921.125 183.795 920.767 183.437 920.767 183V174.396ZM937.316 177.092C937.316 178.806 936.079 180.151 934.524 180.151C934.121 180.151 933.741 180.054 933.389 179.896C933.088 180.089 932.884 180.429 932.884 180.809C932.884 181.093 932.997 181.348 933.173 181.541C933.599 181.445 934.053 181.394 934.541 181.394C935.267 181.394 936.209 181.507 937.089 181.876C937.543 182.064 937.94 182.308 938.264 182.62C938.621 182.96 938.917 183.426 938.917 183.999C938.917 184.686 938.463 185.526 937.1 185.951C936.584 186.116 935.999 186.195 935.369 186.195C934.643 186.195 933.701 186.082 932.821 185.713C932.367 185.526 931.97 185.281 931.646 184.969C931.289 184.629 930.994 184.163 930.994 183.59C930.994 183.284 931.085 182.711 931.692 182.211C931.436 181.802 931.295 181.326 931.295 180.809C931.295 180.037 931.624 179.339 932.152 178.851C931.907 178.505 931.539 177.813 931.539 176.871C931.539 175.281 932.611 173.988 934.036 173.829C934.302 173.051 935.046 172.489 935.914 172.489C936.09 172.489 936.26 172.512 936.425 172.557C936.766 172.648 937.015 172.955 937.015 173.323C937.015 173.76 936.658 174.118 936.221 174.118C936.062 174.118 936.016 174.078 935.914 174.078C935.823 174.078 935.733 174.112 935.665 174.163C935.67 174.169 935.682 174.169 935.687 174.175C936.703 174.754 937.316 175.889 937.316 177.092ZM934.541 182.983C934.058 182.983 933.627 183.045 933.287 183.153C933.224 183.176 932.742 183.335 932.6 183.551C932.594 183.562 932.583 183.579 932.583 183.59C932.583 183.59 932.6 183.749 932.94 183.982C933.133 184.118 933.769 184.487 934.887 184.583C935.052 184.6 935.211 184.606 935.369 184.606C935.852 184.606 936.283 184.544 936.624 184.436C936.686 184.413 937.169 184.254 937.31 184.039C937.316 184.027 937.327 184.01 937.327 183.999C937.327 183.999 937.31 183.84 936.97 183.607C936.777 183.471 936.141 183.102 935.023 183.006C934.859 182.989 934.7 182.983 934.541 182.983ZM934.331 175.401C933.621 175.401 933.128 176.093 933.128 176.871C933.128 177.796 933.797 178.562 934.524 178.562C935.233 178.562 935.727 177.869 935.727 177.092C935.727 176.167 935.057 175.401 934.331 175.401ZM956.397 181.099C956.397 180.662 956.755 180.304 957.192 180.304C957.629 180.304 957.986 180.662 957.986 181.099V181.411C957.986 182.728 956.919 183.795 955.603 183.795C954.286 183.795 953.219 182.728 953.219 181.411V175.196L951.63 175.191C951.193 175.191 950.835 174.833 950.835 174.396C950.835 173.959 951.193 173.602 951.63 173.602H953.219V171.876C953.219 171.439 953.577 171.082 954.014 171.082C954.451 171.082 954.808 171.439 954.808 171.876V173.596L957.192 173.602C957.629 173.602 957.986 173.959 957.986 174.396C957.986 174.833 957.629 175.191 957.192 175.191H954.808V181.411C954.808 181.854 955.16 182.205 955.603 182.205C956.045 182.205 956.397 181.854 956.397 181.411V181.099ZM966.931 176.757C966.931 175.906 966.25 175.054 965.087 175.054C963.895 175.054 963.532 175.531 963.373 175.798C963.276 175.963 963.197 176.167 963.14 176.428C963.061 176.785 962.743 177.052 962.363 177.052C961.926 177.052 961.568 176.695 961.568 176.258C961.568 176.201 961.574 176.144 961.585 176.087C961.897 174.686 962.879 173.465 965.087 173.465C967.101 173.465 968.52 174.998 968.52 176.757V178.034V178.085V181.411C968.52 181.825 968.583 182.075 968.639 182.205C968.657 182.245 968.691 182.308 968.725 182.342C969.025 182.336 969.394 182.285 969.394 182.285C969.423 182.279 969.462 182.274 969.514 182.274C969.951 182.274 970.308 182.631 970.308 183.068C970.308 183.465 970.013 183.795 969.633 183.851C969.61 183.857 969.162 183.931 968.691 183.931C968.458 183.931 967.873 183.863 967.419 183.255C967.17 183.426 966.75 183.658 966.114 183.8C965.779 183.874 965.45 183.908 965.143 183.908C964.599 183.908 964.014 183.823 963.464 183.624C962.885 183.414 962.05 182.966 961.71 182.041C961.613 181.785 961.568 181.502 961.568 181.212C961.568 180.543 961.727 179.396 962.953 178.528C963.515 178.131 964.224 177.841 965.121 177.603C965.62 177.467 966.222 177.376 966.931 177.325V176.757ZM963.157 181.212C963.157 181.456 963.248 181.621 963.378 181.757C963.509 181.893 963.725 182.03 964.003 182.132C964.349 182.257 964.769 182.319 965.143 182.319C965.433 182.319 965.807 182.262 966.12 182.149C966.914 181.854 966.926 181.388 966.926 181.212C966.926 181.212 966.931 180.054 966.931 178.919C966.506 178.953 965.972 179.016 965.529 179.135C963.662 179.635 963.157 180.27 963.157 181.212ZM979.308 177.092C979.308 178.806 978.071 180.151 976.516 180.151C976.113 180.151 975.733 180.054 975.381 179.896C975.08 180.089 974.876 180.429 974.876 180.809C974.876 181.093 974.989 181.348 975.165 181.541C975.591 181.445 976.045 181.394 976.533 181.394C977.259 181.394 978.202 181.507 979.081 181.876C979.535 182.064 979.933 182.308 980.256 182.62C980.614 182.96 980.909 183.426 980.909 183.999C980.909 184.686 980.455 185.526 979.093 185.951C978.576 186.116 977.992 186.195 977.362 186.195C976.635 186.195 975.693 186.082 974.813 185.713C974.359 185.526 973.962 185.281 973.639 184.969C973.281 184.629 972.986 184.163 972.986 183.59C972.986 183.284 973.077 182.711 973.684 182.211C973.429 181.802 973.287 181.326 973.287 180.809C973.287 180.037 973.616 179.339 974.144 178.851C973.9 178.505 973.531 177.813 973.531 176.871C973.531 175.281 974.603 173.988 976.028 173.829C976.295 173.051 977.038 172.489 977.906 172.489C978.082 172.489 978.253 172.512 978.417 172.557C978.758 172.648 979.008 172.955 979.008 173.323C979.008 173.76 978.65 174.118 978.213 174.118C978.054 174.118 978.009 174.078 977.906 174.078C977.816 174.078 977.725 174.112 977.657 174.163C977.662 174.169 977.674 174.169 977.679 174.175C978.695 174.754 979.308 175.889 979.308 177.092ZM976.533 182.983C976.051 182.983 975.619 183.045 975.279 183.153C975.216 183.176 974.734 183.335 974.592 183.551C974.586 183.562 974.575 183.579 974.575 183.59C974.575 183.59 974.592 183.749 974.933 183.982C975.126 184.118 975.761 184.487 976.879 184.583C977.044 184.6 977.203 184.606 977.362 184.606C977.844 184.606 978.275 184.544 978.616 184.436C978.678 184.413 979.161 184.254 979.303 184.039C979.308 184.027 979.32 184.01 979.32 183.999C979.32 183.999 979.303 183.84 978.962 183.607C978.769 183.471 978.134 183.102 977.015 183.006C976.851 182.989 976.692 182.983 976.533 182.983ZM976.323 175.401C975.614 175.401 975.12 176.093 975.12 176.871C975.12 177.796 975.79 178.562 976.516 178.562C977.225 178.562 977.719 177.869 977.719 177.092C977.719 176.167 977.05 175.401 976.323 175.401Z" fill="black" fill-opacity="0.5"/>
</svg>
