<svg fill="none" height="189" viewBox="0 0 802 189" width="802" xmlns="http://www.w3.org/2000/svg"><path d="m24.9141 69.8594-16.12504 8.9297v.4218l16.12504 8.9297v4.4766l-20.15629-11.8828v-3.4688l20.15629-11.8828zm39.1875 0v-4.4766l20.1562 11.8828v3.4688l-20.1562 11.8828v-4.4766l16.1015-8.9297v-.4218zm41.8124 24.1406h-4.125v-30.0234h-10.2187v-3.7969h24.5627v3.7969h-10.219zm17.18 0v-35.4141h3.844v14.4844h.328c1.336-3.1641 4.265-4.9453 8.156-4.9453 5.531 0 8.531 3.3281 8.531 9.3984v16.4766h-3.984v-15.4688c0-4.5703-1.875-6.75-5.86-6.75-4.195 0-7.031 2.9297-7.031 7.2657v14.9531zm40.547-31.6641c-1.875 0-3.305-1.4062-3.305-3.2812 0-1.8516 1.43-3.2578 3.305-3.2578s3.304 1.4062 3.304 3.2578c0 1.875-1.429 3.2812-3.304 3.2812zm10.664 31.6641h-21.071v-3.3047h8.719v-18.8203h-8.648v-3.3047h12.586v22.125h8.414zm9.304-18.5625c0-4.4063 3.75-7.3594 9.352-7.3594 5.297 0 8.883 2.6485 9.351 6.8907h-3.843c-.469-2.2266-2.602-3.586-5.578-3.586-3.235 0-5.321 1.5-5.321 3.8203 0 1.9453 1.313 3.0469 4.5 3.75l3.586.8203c4.946 1.125 7.196 3.2813 7.196 6.961 0 4.6875-3.914 7.7344-9.938 7.7344-5.766 0-9.586-2.6954-10.031-7.0547h4.055c.585 2.3437 2.835 3.7031 6.117 3.7031 3.468 0 5.672-1.5703 5.672-4.0078 0-2.0156-1.243-3.0938-4.477-3.8203l-3.773-.8672c-4.594-1.0547-6.868-3.375-6.868-6.9844zm69.047-13.1016c-1.875 0-3.304-1.4062-3.304-3.2812 0-1.8516 1.429-3.2578 3.304-3.2578s3.305 1.4062 3.305 3.2578c0 1.875-1.43 3.2812-3.305 3.2812zm10.664 31.6641h-21.07v-3.3047h8.719v-18.8203h-8.649v-3.3047h12.586v22.125h8.414zm9.305-18.5625c0-4.4063 3.75-7.3594 9.352-7.3594 5.296 0 8.882 2.6485 9.351 6.8907h-3.844c-.468-2.2266-2.601-3.586-5.578-3.586-3.234 0-5.32 1.5-5.32 3.8203 0 1.9453 1.312 3.0469 4.5 3.75l3.586.8203c4.945 1.125 7.195 3.2813 7.195 6.961 0 4.6875-3.914 7.7344-9.937 7.7344-5.766 0-9.586-2.6954-10.032-7.0547h4.055c.586 2.3437 2.836 3.7031 6.117 3.7031 3.469 0 5.672-1.5703 5.672-4.0078 0-2.0156-1.242-3.0938-4.476-3.8203l-3.774-.8672c-4.594-1.0547-6.867-3.375-6.867-6.9844zm66.023 19.0078c-4.851 0-8.086-3.0469-8.086-7.6641 0-4.5 3.235-7.1718 9.024-7.4765l6.984-.3516v-2.2969c0-3.1874-1.945-4.9453-5.484-4.9453-2.93 0-4.992 1.2422-5.648 3.4219h-3.915c.469-4.0781 4.407-6.8672 9.61-6.8672 5.976 0 9.398 3.0469 9.398 8.3438v17.414h-3.797v-3.8203h-.398c-1.219 2.7188-3.984 4.2422-7.688 4.2422zm1.149-3.4922c3.844 0 6.773-2.5547 6.773-5.9531v-3l-6.539.3047c-3.562.1641-5.437 1.6875-5.437 4.3359 0 2.6719 1.992 4.3125 5.203 4.3125zm62.367-22.8047c5.883 0 9.727 4.2422 9.727 10.7813v4.7344c0 6.5156-3.844 10.7578-9.727 10.7578-3.68 0-6.375-1.5703-7.476-4.3594h-.446v12.5155h-4.054v-34.0077h3.937v3.8906h.422c1.336-2.8125 3.984-4.3125 7.617-4.3125zm-1.148 3.6563c-4.196 0-6.868 3-6.868 7.6875v3.6562c0 4.711 2.672 7.711 6.868 7.711 4.195 0 6.867-3.0235 6.867-7.711v-3.6562c0-4.6875-2.672-7.6875-6.867-7.6875zm26.648 22.6406c-4.852 0-8.086-3.0469-8.086-7.6641 0-4.5 3.234-7.1718 9.024-7.4765l6.984-.3516v-2.2969c0-3.1874-1.945-4.9453-5.484-4.9453-2.93 0-4.993 1.2422-5.649 3.4219h-3.914c.469-4.0781 4.406-6.8672 9.609-6.8672 5.977 0 9.399 3.0469 9.399 8.3438v17.414h-3.797v-3.8203h-.398c-1.219 2.7188-3.985 4.2422-7.688 4.2422zm1.148-3.4922c3.844 0 6.774-2.5547 6.774-5.9531v-3l-6.539.3047c-3.563.1641-5.438 1.6875-5.438 4.3359 0 2.6719 1.993 4.3125 5.203 4.3125zm30.094-8.3437v8.2031h7.875v3.1875h-16.898v-3.1875h5.133v-19.0547h-5.649v-3.1875h9.492v6.4922h.516c.937-4.7109 4.102-7.1484 9-7.1484 1.453 0 2.836.2109 3.68.5625v4.4765c-1.172-.4219-2.813-.7031-4.196-.7031-5.625 0-8.953 3.8906-8.953 10.3594zm28.102 11.8359c-4.852 0-8.086-3.0469-8.086-7.6641 0-4.5 3.234-7.1718 9.023-7.4765l6.985-.3516v-2.2969c0-3.1874-1.946-4.9453-5.485-4.9453-2.929 0-4.992 1.2422-5.648 3.4219h-3.914c.469-4.0781 4.406-6.8672 9.609-6.8672 5.977 0 9.399 3.0469 9.399 8.3438v17.414h-3.797v-3.8203h-.399c-1.218 2.7188-3.984 4.2422-7.687 4.2422zm1.148-3.4922c3.844 0 6.774-2.5547 6.774-5.9531v-3l-6.539.3047c-3.563.1641-5.438 1.6875-5.438 4.3359 0 2.6719 1.992 4.3125 5.203 4.3125zm30.352 12.5859c-5.883 0-9.82-2.578-10.336-6.7968h3.937c.516 2.1094 3.071 3.4918 6.469 3.4918 4.453 0 6.914-2.2496 6.914-6.3278v-3.9609h-.422c-1.125 2.6719-3.937 4.2891-7.64 4.2891-5.883 0-9.75-4.2422-9.75-10.7578v-4.5704c0-6.539 3.89-10.7578 9.843-10.7578 3.68 0 6.469 1.6172 7.571 4.3594h.445v-3.9375h3.938v25.4297c0 5.9766-4.079 9.539-10.969 9.539zm-6.82-20.6249c0 4.664 2.718 7.7109 6.937 7.7109 4.195 0 6.891-3.0234 6.891-7.7109v-3.4922c0-4.6875-2.696-7.6875-6.891-7.6875-4.219 0-6.937 3.0234-6.937 7.6875zm36.234-.3047v8.2031h7.875v3.1875h-16.899v-3.1875h5.133v-19.0547h-5.648v-3.1875h9.492v6.4922h.516c.937-4.7109 4.101-7.1484 9-7.1484 1.453 0 2.836.2109 3.679.5625v4.4765c-1.172-.4219-2.812-.7031-4.195-.7031-5.625 0-8.953 3.8906-8.953 10.3594zm28.101 11.8359c-4.851 0-8.085-3.0469-8.085-7.6641 0-4.5 3.234-7.1718 9.023-7.4765l6.984-.3516v-2.2969c0-3.1874-1.945-4.9453-5.484-4.9453-2.93 0-4.992 1.2422-5.649 3.4219h-3.914c.469-4.0781 4.407-6.8672 9.61-6.8672 5.976 0 9.398 3.0469 9.398 8.3438v17.414h-3.797v-3.8203h-.398c-1.219 2.7188-3.984 4.2422-7.688 4.2422zm1.149-3.4922c3.844 0 6.773-2.5547 6.773-5.9531v-3l-6.539.3047c-3.562.1641-5.437 1.6875-5.437 4.3359 0 2.6719 1.992 4.3125 5.203 4.3125zm32.695-22.8047c5.883 0 9.727 4.2422 9.727 10.7813v4.7344c0 6.5156-3.844 10.7578-9.727 10.7578-3.679 0-6.375-1.5703-7.476-4.3594h-.446v12.5155h-4.054v-34.0077h3.937v3.8906h.422c1.336-2.8125 3.984-4.3125 7.617-4.3125zm-1.148 3.6563c-4.196 0-6.867 3-6.867 7.6875v3.6562c0 4.711 2.671 7.711 6.867 7.711 4.195 0 6.867-3.0235 6.867-7.711v-3.6562c0-4.6875-2.672-7.6875-6.867-7.6875zm18.797 22.1953v-35.4141h3.843v14.4844h.329c1.335-3.1641 4.265-4.9453 8.156-4.9453 5.531 0 8.531 3.3281 8.531 9.3984v16.4766h-3.984v-15.4688c0-4.5703-1.875-6.75-5.86-6.75-4.195 0-7.031 2.9297-7.031 7.2657v14.9531zm40.101.1406c-2.32 0-4.242-1.9453-4.242-4.3359 0-2.3672 1.922-4.3125 4.242-4.3125 2.321 0 4.242 1.9453 4.242 4.3125 0 2.3906-1.921 4.3359-4.242 4.3359zm39.75-24.2812-16.125 8.9297v.4218l16.125 8.9297v4.4766l-20.156-11.8828v-3.4688l20.156-11.8828zm13.289 27.3515h-3.89l16.476-40.2421h3.914zm55.571-27.3515v-4.4766l20.156 11.8828v3.4688l-20.156 11.8828v-4.4766l16.101-8.9297v-.4218z" fill="#f0f6fb"/><path d="m46.1016 68.1484c5.8828 0 9.7265 4.2422 9.7265 10.7813v4.7344c0 6.5156-3.8437 10.7578-9.7265 10.7578-3.6797 0-6.375-1.5703-7.4766-4.3594h-.4453v12.5155h-4.0547v-34.0077h3.9375v3.8906h.4219c1.3359-2.8125 3.9844-4.3125 7.6172-4.3125zm-1.1485 3.6563c-4.1953 0-6.8672 3-6.8672 7.6875v3.6562c0 4.711 2.6719 7.711 6.8672 7.711s6.8672-3.0235 6.8672-7.711v-3.6562c0-4.6875-2.6719-7.6875-6.8672-7.6875zm713.2739-3.6563c5.882 0 9.726 4.2422 9.726 10.7813v4.7344c0 6.5156-3.844 10.7578-9.726 10.7578-3.68 0-6.375-1.5703-7.477-4.3594h-.445v12.5155h-4.055v-34.0077h3.938v3.8906h.421c1.336-2.8125 3.985-4.3125 7.618-4.3125zm-1.149 3.6563c-4.195 0-6.867 3-6.867 7.6875v3.6562c0 4.711 2.672 7.711 6.867 7.711s6.867-3.0235 6.867-7.711v-3.6562c0-4.6875-2.672-7.6875-6.867-7.6875z" fill="#7ee687"/><path d="m6.716 4.292h10.846v1.76h-8.756v4.994h8.162v1.76h-8.162v5.434h8.822v1.76h-10.912zm13.2512 0h1.87v15.708h-1.87zm12.665 8.932c-.0294-.44-.132-.858-.308-1.254-.1614-.396-.3887-.7333-.682-1.012-.2787-.2933-.616-.5207-1.012-.682-.3814-.176-.8067-.264-1.276-.264-.484 0-.924.088-1.32.264-.3814.1613-.7114.3887-.99.682-.2787.2933-.4987.638-.66 1.034-.1614.3813-.2567.792-.286 1.232zm1.804 3.168c-.2494 1.276-.7994 2.2367-1.65 2.882-.8507.6453-1.9214.968-3.212.968-.9094 0-1.7014-.1467-2.376-.44-.66-.2933-1.2174-.704-1.672-1.232-.4547-.528-.7994-1.1587-1.034-1.892-.22-.7333-.3447-1.5327-.374-2.398 0-.8653.132-1.6573.396-2.376s.6306-1.342 1.1-1.87c.484-.528 1.0486-.93867 1.694-1.232.66-.29333 1.3786-.44 2.156-.44 1.012 0 1.848.21267 2.508.638.6746.41067 1.21.93867 1.606 1.584.4106.6453.6893 1.3493.836 2.112.1613.7627.2273 1.4887.198 2.178h-8.514c-.0147.4987.044.9753.176 1.43.132.44.3446.836.638 1.188.2933.3373.6673.6087 1.122.814.4546.2053.99.308 1.606.308.792 0 1.4373-.1833 1.936-.55.5133-.3667.8506-.924 1.012-1.672zm2.1144-7.766h1.76v1.672h.044c.8506-1.29067 2.0753-1.936 3.674-1.936.704 0 1.342.14667 1.914.44s.9753.792 1.21 1.496c.3813-.616.88-1.09267 1.496-1.43.6306-.33733 1.32-.506 2.068-.506.572 0 1.0853.066 1.54.198.4693.11733.8653.308 1.188.572.3373.264.594.60867.77 1.034.1906.4107.286.9093.286 1.496v8.338h-1.87v-7.458c0-.352-.0294-.682-.088-.99-.0587-.308-.1687-.572-.33-.792-.1614-.2347-.3887-.418-.682-.55-.2787-.132-.6454-.198-1.1-.198-.924 0-1.65.264-2.178.792s-.792 1.232-.792 2.112v7.084h-1.87v-7.458c0-.3667-.0367-.704-.11-1.012-.0587-.308-.1687-.572-.33-.792-.1614-.2347-.3814-.4107-.66-.528-.264-.132-.6087-.198-1.034-.198-.5427 0-1.012.11-1.408.33-.3814.22-.6967.484-.946.792-.2347.308-.4107.6307-.528.968-.1027.3227-.154.594-.154.814v7.084h-1.87zm26.6538 4.598c-.0293-.44-.132-.858-.308-1.254-.1613-.396-.3886-.7333-.682-1.012-.2786-.2933-.616-.5207-1.012-.682-.3813-.176-.8066-.264-1.276-.264-.484 0-.924.088-1.32.264-.3813.1613-.7113.3887-.99.682-.2786.2933-.4986.638-.66 1.034-.1613.3813-.2566.792-.286 1.232zm1.804 3.168c-.2493 1.276-.7993 2.2367-1.65 2.882-.8506.6453-1.9213.968-3.212.968-.9093 0-1.7013-.1467-2.376-.44-.66-.2933-1.2173-.704-1.672-1.232-.4546-.528-.7993-1.1587-1.034-1.892-.22-.7333-.3446-1.5327-.374-2.398 0-.8653.132-1.6573.396-2.376s.6307-1.342 1.1-1.87c.484-.528 1.0487-.93867 1.694-1.232.66-.29333 1.3787-.44 2.156-.44 1.012 0 1.848.21267 2.508.638.6747.41067 1.21.93867 1.606 1.584.4107.6453.6894 1.3493.836 2.112.1614.7627.2274 1.4887.198 2.178h-8.514c-.0146.4987.044.9753.176 1.43.132.44.3447.836.638 1.188.2934.3373.6674.6087 1.122.814.4547.2053.99.308 1.606.308.792 0 1.4374-.1833 1.936-.55.5134-.3667.8507-.924 1.012-1.672zm2.1144-7.766h1.76v1.804h.044c.7774-1.37867 2.0094-2.068 3.696-2.068.748 0 1.3714.10267 1.87.308.4987.20533.902.49133 1.21.858s.5207.8067.638 1.32c.132.4987.198 1.056.198 1.672v7.48h-1.87v-7.7c0-.704-.2053-1.2613-.616-1.672-.4106-.4107-.9753-.616-1.694-.616-.572 0-1.0706.088-1.496.264-.4106.176-.7553.4253-1.034.748-.2786.3227-.4913.704-.638 1.144-.132.4253-.198.8947-.198 1.408v6.424h-1.87zm14.8207 0h2.266v1.65h-2.266v7.062c0 .22.0146.396.044.528.044.132.1173.2347.22.308.1026.0733.242.1247.418.154.1906.0147.4326.022.726.022h.858v1.65h-1.43c-.484 0-.902-.0293-1.254-.088-.3374-.0733-.616-.198-.836-.374-.2054-.176-.3594-.4253-.462-.748-.1027-.3227-.154-.748-.154-1.276v-7.238h-1.936v-1.65h1.936v-3.41h1.87z" fill="#fff" fill-opacity=".333333"/><path d="m6.5 28h788" stroke="#fff" stroke-opacity=".333333" stroke-width="1.5"/><path d="m6.5 134h81" stroke="#fff" stroke-opacity=".333333" stroke-width="1.5"/><path d="m7.926 150.146c0 .792.10267 1.577.308 2.354.20533.763.528 1.452.968 2.068s1.0047 1.115 1.694 1.496c.6893.367 1.5107.55 2.464.55s1.7747-.183 2.464-.55c.6893-.381 1.254-.88 1.694-1.496s.7627-1.305.968-2.068c.2053-.777.308-1.562.308-2.354s-.1027-1.569-.308-2.332c-.2053-.777-.528-1.474-.968-2.09s-1.0047-1.107-1.694-1.474c-.6893-.381-1.5107-.572-2.464-.572s-1.7747.191-2.464.572c-.6893.367-1.254.858-1.694 1.474s-.76267 1.313-.968 2.09c-.20533.763-.308 1.54-.308 2.332zm-2.09 0c0-1.071.154-2.097.462-3.08.32267-.997.79933-1.877 1.43-2.64s1.41533-1.371 2.354-1.826c.9387-.455 2.0313-.682 3.278-.682s2.3393.227 3.278.682 1.7233 1.063 2.354 1.826 1.1 1.643 1.408 2.64c.3227.983.484 2.009.484 3.08s-.1613 2.105-.484 3.102c-.308.983-.7773 1.855-1.408 2.618s-1.4153 1.371-2.354 1.826c-.9387.44-2.0313.66-3.278.66s-2.3393-.22-3.278-.66c-.93867-.455-1.72333-1.063-2.354-1.826s-1.10733-1.635-1.43-2.618c-.308-.997-.462-2.031-.462-3.102zm17.3528-3.52h1.87v1.54h.044c.308-.631.792-1.085 1.452-1.364.66-.293 1.386-.44 2.178-.44.88 0 1.6427.161 2.288.484.66.323 1.2027.763 1.628 1.32.44.543.77 1.173.99 1.892s.33 1.481.33 2.288-.11 1.569-.33 2.288c-.2053.719-.528 1.349-.968 1.892-.4253.528-.968.946-1.628 1.254-.6453.308-1.4006.462-2.266.462-.2786 0-.594-.029-.946-.088-.3373-.059-.6746-.154-1.012-.286-.3373-.132-.66-.308-.968-.528-.2933-.235-.5426-.521-.748-.858h-.044v5.852h-1.87zm8.8 5.588c0-.528-.0733-1.041-.22-1.54-.132-.513-.3446-.968-.638-1.364-.2786-.396-.6453-.711-1.1-.946-.44-.235-.9606-.352-1.562-.352-.6306 0-1.166.125-1.606.374s-.7993.579-1.078.99c-.2786.396-.484.851-.616 1.364-.1173.513-.176 1.034-.176 1.562 0 .557.066 1.1.198 1.628.132.513.3374.968.616 1.364.2934.396.6674.719 1.122.968.4547.235 1.0047.352 1.65.352.6454 0 1.1807-.125 1.606-.374.44-.249.792-.579 1.056-.99s.4547-.88.572-1.408c.1174-.528.176-1.071.176-1.628zm12.0731-.99c-.0294-.44-.132-.858-.308-1.254-.1614-.396-.3887-.733-.682-1.012-.2787-.293-.616-.521-1.012-.682-.3814-.176-.8067-.264-1.276-.264-.484 0-.924.088-1.32.264-.3814.161-.7114.389-.99.682-.2787.293-.4987.638-.66 1.034-.1614.381-.2567.792-.286 1.232zm1.804 3.168c-.2494 1.276-.7994 2.237-1.65 2.882-.8507.645-1.9214.968-3.212.968-.9094 0-1.7014-.147-2.376-.44-.66-.293-1.2174-.704-1.672-1.232-.4547-.528-.7994-1.159-1.034-1.892-.22-.733-.3447-1.533-.374-2.398 0-.865.132-1.657.396-2.376s.6306-1.342 1.1-1.87c.484-.528 1.0486-.939 1.694-1.232.66-.293 1.3786-.44 2.156-.44 1.012 0 1.848.213 2.508.638.6746.411 1.21.939 1.606 1.584.4106.645.6893 1.349.836 2.112.1613.763.2273 1.489.198 2.178h-8.514c-.0147.499.044.975.176 1.43.132.44.3446.836.638 1.188.2933.337.6673.609 1.122.814.4546.205.99.308 1.606.308.792 0 1.4373-.183 1.936-.55.5133-.367.8506-.924 1.012-1.672zm2.1144-7.766h1.76v1.804h.044c.7773-1.379 2.0093-2.068 3.696-2.068.748 0 1.3713.103 1.87.308.4986.205.902.491 1.21.858s.5206.807.638 1.32c.132.499.198 1.056.198 1.672v7.48h-1.87v-7.7c0-.704-.2054-1.261-.616-1.672-.4107-.411-.9754-.616-1.694-.616-.572 0-1.0707.088-1.496.264-.4107.176-.7554.425-1.034.748-.2787.323-.4914.704-.638 1.144-.132.425-.198.895-.198 1.408v6.424h-1.87zm14.2046-2.046h-1.87v-2.288h1.87zm-1.87 2.046h1.87v11.374h-1.87zm4.7669 0h1.76v1.804h.044c.7774-1.379 2.0094-2.068 3.696-2.068.748 0 1.3714.103 1.87.308.4987.205.902.491 1.21.858s.5207.807.638 1.32c.132.499.198 1.056.198 1.672v7.48h-1.87v-7.7c0-.704-.2053-1.261-.616-1.672-.4106-.411-.9753-.616-1.694-.616-.572 0-1.0706.088-1.496.264-.4106.176-.7553.425-1.034.748-.2786.323-.4913.704-.638 1.144-.132.425-.198.895-.198 1.408v6.424h-1.87zm22.0366 10.406c0 1.863-.4253 3.256-1.276 4.18-.8506.924-2.1853 1.386-4.004 1.386-.528 0-1.0706-.059-1.628-.176-.5426-.117-1.0413-.308-1.496-.572-.44-.264-.8066-.609-1.1-1.034-.2933-.425-.4546-.946-.484-1.562h1.87c.0147.337.1174.623.308.858.2054.235.4474.425.726.572.2934.147.6087.249.946.308.3374.073.66.11.968.11.616 0 1.1367-.11 1.562-.33.4254-.205.7774-.499 1.056-.88.2787-.367.4767-.814.594-1.342.132-.528.198-1.107.198-1.738v-.748h-.044c-.3226.704-.814 1.225-1.474 1.562-.6453.323-1.3346.484-2.068.484-.8506 0-1.5913-.154-2.222-.462-.6306-.308-1.1586-.719-1.584-1.232-.4253-.528-.748-1.137-.968-1.826-.2053-.704-.308-1.445-.308-2.222 0-.675.088-1.364.264-2.068.176-.719.4694-1.364.88-1.936.4107-.587.9534-1.063 1.628-1.43.6747-.381 1.5034-.572 2.486-.572.7187 0 1.3787.161 1.98.484.6014.308 1.0707.777 1.408 1.408h.022v-1.628h1.76zm-5.236-.55c.616 0 1.1367-.125 1.562-.374.44-.264.792-.601 1.056-1.012.264-.425.4547-.902.572-1.43.132-.528.198-1.056.198-1.584 0-.499-.0586-.99-.176-1.474-.1173-.484-.308-.917-.572-1.298-.2493-.396-.5793-.711-.99-.946-.4106-.235-.9093-.352-1.496-.352-.6013 0-1.1146.117-1.54.352-.4253.22-.7773.521-1.056.902-.264.381-.462.821-.594 1.32-.1173.499-.176 1.019-.176 1.562 0 .513.0514 1.027.154 1.54.1027.513.2787.983.528 1.408.2494.411.5794.748.99 1.012.4107.249.924.374 1.54.374zm-72.8784 13.144h2.266v1.65h-2.266v7.062c0 .22.01467.396.044.528.044.132.11733.235.22.308s.242.125.418.154c.19067.015.4327.022.726.022h.858v1.65h-1.43c-.484 0-.902-.029-1.254-.088-.33733-.073-.616-.198-.836-.374-.20533-.176-.35933-.425-.462-.748s-.154-.748-.154-1.276v-7.238h-1.936v-1.65h1.936v-3.41h1.87zm14.4195 11.33c-.3227.191-.77.286-1.342.286-.484 0-.8727-.132-1.166-.396-.2787-.279-.418-.726-.418-1.342-.5134.616-1.1147 1.063-1.804 1.342-.6747.264-1.408.396-2.2.396-.5134 0-1.0047-.059-1.474-.176-.4547-.117-.8507-.301-1.188-.55-.3374-.249-.6087-.572-.814-.968-.1907-.411-.286-.902-.286-1.474 0-.645.11-1.173.33-1.584s.506-.741.858-.99c.3666-.264.7773-.462 1.232-.594.4693-.132.946-.242 1.43-.33.5133-.103.9973-.176 1.452-.22.4693-.059.88-.132 1.232-.22.352-.103.6306-.242.836-.418.2053-.191.308-.462.308-.814 0-.411-.0807-.741-.242-.99-.1467-.249-.3447-.44-.594-.572-.2347-.132-.506-.22-.814-.264-.2934-.044-.5867-.066-.88-.066-.792 0-1.452.154-1.98.462-.528.293-.814.858-.858 1.694h-1.87c.0293-.704.176-1.298.44-1.782s.616-.873 1.056-1.166c.44-.308.9386-.528 1.496-.66.572-.132 1.1806-.198 1.826-.198.5133 0 1.0193.037 1.518.11.5133.073.9753.227 1.386.462.4106.22.7406.535.99.946.2493.411.374.946.374 1.606v5.852c0 .44.022.763.066.968.0586.205.2346.308.528.308.1613 0 .352-.037.572-.11zm-3.036-5.83c-.2347.176-.5427.308-.924.396-.3814.073-.7847.139-1.21.198-.4107.044-.8287.103-1.254.176-.4254.059-.8067.161-1.144.308-.3374.147-.616.359-.836.638-.2054.264-.308.631-.308 1.1 0 .308.0586.572.176.792.132.205.2933.374.484.506.2053.132.44.227.704.286s.5426.088.836.088c.616 0 1.144-.081 1.584-.242.44-.176.7993-.389 1.078-.638.2786-.264.484-.543.616-.836.132-.308.198-.594.198-.858zm14.5884 4.906c0 1.863-.4254 3.256-1.276 4.18-.8507.924-2.1854 1.386-4.004 1.386-.528 0-1.0707-.059-1.628-.176-.5427-.117-1.0414-.308-1.496-.572-.44-.264-.8067-.609-1.1-1.034-.2934-.425-.4547-.946-.484-1.562h1.87c.0146.337.1173.623.308.858.2053.235.4473.425.726.572.2933.147.6086.249.946.308.3373.073.66.11.968.11.616 0 1.1366-.11 1.562-.33.4253-.205.7773-.499 1.056-.88.2786-.367.4766-.814.594-1.342.132-.528.198-1.107.198-1.738v-.748h-.044c-.3227.704-.814 1.225-1.474 1.562-.6454.323-1.3347.484-2.068.484-.8507 0-1.5914-.154-2.222-.462-.6307-.308-1.1587-.719-1.584-1.232-.4254-.528-.748-1.137-.968-1.826-.2054-.704-.308-1.445-.308-2.222 0-.675.088-1.364.264-2.068.176-.719.4693-1.364.88-1.936.4106-.587.9533-1.063 1.628-1.43.6746-.381 1.5033-.572 2.486-.572.7186 0 1.3786.161 1.98.484.6013.308 1.0706.777 1.408 1.408h.022v-1.628h1.76zm-5.236-.55c.616 0 1.1366-.125 1.562-.374.44-.264.792-.601 1.056-1.012.264-.425.4546-.902.572-1.43.132-.528.198-1.056.198-1.584 0-.499-.0587-.99-.176-1.474-.1174-.484-.308-.917-.572-1.298-.2494-.396-.5794-.711-.99-.946-.4107-.235-.9094-.352-1.496-.352-.6014 0-1.1147.117-1.54.352-.4254.22-.7774.521-1.056.902-.264.381-.462.821-.594 1.32-.1174.499-.176 1.019-.176 1.562 0 .513.0513 1.027.154 1.54.1026.513.2786.983.528 1.408.2493.411.5793.748.99 1.012.4106.249.924.374 1.54.374z" fill="#fff" fill-opacity=".333333"/><path d="m100.5 134h575" stroke="#fff" stroke-opacity=".333333" stroke-width="1.5"/><path d="m111.76 147.022c-.235-1.115-.755-1.951-1.562-2.508-.792-.557-1.738-.836-2.838-.836-.939 0-1.745.176-2.42.528-.66.352-1.21.829-1.65 1.43-.425.587-.741 1.261-.946 2.024s-.308 1.555-.308 2.376c0 .895.103 1.745.308 2.552.205.792.521 1.489.946 2.09.44.587.997 1.056 1.672 1.408s1.481.528 2.42.528c.689 0 1.298-.11 1.826-.33.543-.235 1.005-.55 1.386-.946.396-.411.704-.895.924-1.452s.352-1.159.396-1.804h2.09c-.205 1.98-.887 3.52-2.046 4.62s-2.743 1.65-4.752 1.65c-1.217 0-2.281-.205-3.19-.616-.909-.425-1.665-1.005-2.266-1.738s-1.056-1.599-1.364-2.596c-.293-.997-.44-2.068-.44-3.212s.161-2.215.484-3.212c.323-1.012.792-1.892 1.408-2.64.631-.748 1.408-1.335 2.332-1.76.939-.44 2.009-.66 3.212-.66.821 0 1.599.11 2.332.33s1.386.543 1.958.968 1.049.961 1.43 1.606c.381.631.631 1.364.748 2.2zm5.889 5.302c0 .689.088 1.305.264 1.848.191.528.447.975.77 1.342.323.352.697.623 1.122.814.44.191.902.286 1.386.286s.939-.095 1.364-.286c.44-.191.821-.462 1.144-.814.323-.367.572-.814.748-1.342.191-.543.286-1.159.286-1.848s-.095-1.298-.286-1.826c-.176-.543-.425-.997-.748-1.364s-.704-.645-1.144-.836c-.425-.191-.88-.286-1.364-.286s-.946.095-1.386.286c-.425.191-.799.469-1.122.836s-.579.821-.77 1.364c-.176.528-.264 1.137-.264 1.826zm-1.98 0c0-.836.117-1.613.352-2.332.235-.733.587-1.364 1.056-1.892.469-.543 1.049-.968 1.738-1.276s1.481-.462 2.376-.462c.909 0 1.701.154 2.376.462.689.308 1.269.733 1.738 1.276.469.528.821 1.159 1.056 1.892.235.719.352 1.496.352 2.332s-.117 1.613-.352 2.332-.587 1.349-1.056 1.892c-.469.528-1.049.946-1.738 1.254-.675.293-1.467.44-2.376.44-.895 0-1.687-.147-2.376-.44-.689-.308-1.269-.726-1.738-1.254-.469-.543-.821-1.173-1.056-1.892s-.352-1.496-.352-2.332zm13.249-5.698h1.76v1.804h.044c.777-1.379 2.009-2.068 3.696-2.068.748 0 1.371.103 1.87.308.498.205.902.491 1.21.858s.52.807.638 1.32c.132.499.198 1.056.198 1.672v7.48h-1.87v-7.7c0-.704-.206-1.261-.616-1.672-.411-.411-.976-.616-1.694-.616-.572 0-1.071.088-1.496.264-.411.176-.756.425-1.034.748-.279.323-.492.704-.638 1.144-.132.425-.198.895-.198 1.408v6.424h-1.87zm14.82 0h2.266v1.65h-2.266v7.062c0 .22.015.396.044.528.044.132.118.235.22.308.103.073.242.125.418.154.191.015.433.022.726.022h.858v1.65h-1.43c-.484 0-.902-.029-1.254-.088-.337-.073-.616-.198-.836-.374-.205-.176-.359-.425-.462-.748-.102-.323-.154-.748-.154-1.276v-7.238h-1.936v-1.65h1.936v-3.41h1.87zm12.242 4.598c-.03-.44-.132-.858-.308-1.254-.162-.396-.389-.733-.682-1.012-.279-.293-.616-.521-1.012-.682-.382-.176-.807-.264-1.276-.264-.484 0-.924.088-1.32.264-.382.161-.712.389-.99.682-.279.293-.499.638-.66 1.034-.162.381-.257.792-.286 1.232zm1.804 3.168c-.25 1.276-.8 2.237-1.65 2.882-.851.645-1.922.968-3.212.968-.91 0-1.702-.147-2.376-.44-.66-.293-1.218-.704-1.672-1.232-.455-.528-.8-1.159-1.034-1.892-.22-.733-.345-1.533-.374-2.398 0-.865.132-1.657.396-2.376s.63-1.342 1.1-1.87c.484-.528 1.048-.939 1.694-1.232.66-.293 1.378-.44 2.156-.44 1.012 0 1.848.213 2.508.638.674.411 1.21.939 1.606 1.584.41.645.689 1.349.836 2.112.161.763.227 1.489.198 2.178h-8.514c-.015.499.044.975.176 1.43.132.44.344.836.638 1.188.293.337.667.609 1.122.814.454.205.99.308 1.606.308.792 0 1.437-.183 1.936-.55.513-.367.85-.924 1.012-1.672zm2.114-7.766h1.76v1.804h.044c.778-1.379 2.01-2.068 3.696-2.068.748 0 1.372.103 1.87.308.499.205.902.491 1.21.858s.521.807.638 1.32c.132.499.198 1.056.198 1.672v7.48h-1.87v-7.7c0-.704-.205-1.261-.616-1.672-.41-.411-.975-.616-1.694-.616-.572 0-1.07.088-1.496.264-.41.176-.755.425-1.034.748-.278.323-.491.704-.638 1.144-.132.425-.198.895-.198 1.408v6.424h-1.87zm14.821 0h2.266v1.65h-2.266v7.062c0 .22.015.396.044.528.044.132.117.235.22.308s.242.125.418.154c.191.015.433.022.726.022h.858v1.65h-1.43c-.484 0-.902-.029-1.254-.088-.337-.073-.616-.198-.836-.374-.205-.176-.359-.425-.462-.748s-.154-.748-.154-1.276v-7.238h-1.936v-1.65h1.936v-3.41h1.87z" fill="#fff" fill-opacity=".333333"/><path d="m688.5 134h106" stroke="#fff" stroke-opacity=".333333" stroke-width="1.5"/><path d="m699.76 147.022c-.235-1.115-.755-1.951-1.562-2.508-.792-.557-1.738-.836-2.838-.836-.939 0-1.745.176-2.42.528-.66.352-1.21.829-1.65 1.43-.425.587-.741 1.261-.946 2.024s-.308 1.555-.308 2.376c0 .895.103 1.745.308 2.552.205.792.521 1.489.946 2.09.44.587.997 1.056 1.672 1.408s1.481.528 2.42.528c.689 0 1.298-.11 1.826-.33.543-.235 1.005-.55 1.386-.946.396-.411.704-.895.924-1.452s.352-1.159.396-1.804h2.09c-.205 1.98-.887 3.52-2.046 4.62s-2.743 1.65-4.752 1.65c-1.217 0-2.281-.205-3.19-.616-.909-.425-1.665-1.005-2.266-1.738s-1.056-1.599-1.364-2.596c-.293-.997-.44-2.068-.44-3.212s.161-2.215.484-3.212c.323-1.012.792-1.892 1.408-2.64.631-.748 1.408-1.335 2.332-1.76.939-.44 2.009-.66 3.212-.66.821 0 1.599.11 2.332.33s1.386.543 1.958.968 1.049.961 1.43 1.606c.381.631.631 1.364.748 2.2zm4.635-4.73h1.87v15.708h-1.87zm6.131 10.032c0 .689.088 1.305.264 1.848.191.528.447.975.77 1.342.323.352.697.623 1.122.814.44.191.902.286 1.386.286s.939-.095 1.364-.286c.44-.191.821-.462 1.144-.814.323-.367.572-.814.748-1.342.191-.543.286-1.159.286-1.848s-.095-1.298-.286-1.826c-.176-.543-.425-.997-.748-1.364s-.704-.645-1.144-.836c-.425-.191-.88-.286-1.364-.286s-.946.095-1.386.286c-.425.191-.799.469-1.122.836s-.579.821-.77 1.364c-.176.528-.264 1.137-.264 1.826zm-1.98 0c0-.836.117-1.613.352-2.332.235-.733.587-1.364 1.056-1.892.469-.543 1.049-.968 1.738-1.276s1.481-.462 2.376-.462c.909 0 1.701.154 2.376.462.689.308 1.269.733 1.738 1.276.469.528.821 1.159 1.056 1.892.235.719.352 1.496.352 2.332s-.117 1.613-.352 2.332-.587 1.349-1.056 1.892c-.469.528-1.049.946-1.738 1.254-.675.293-1.467.44-2.376.44-.895 0-1.687-.147-2.376-.44-.689-.308-1.269-.726-1.738-1.254-.469-.543-.821-1.173-1.056-1.892s-.352-1.496-.352-2.332zm14.393 2.09c.014.411.11.763.286 1.056.176.279.403.506.682.682.293.161.616.279.968.352.366.073.74.11 1.122.11.293 0 .601-.022.924-.066.322-.044.616-.125.88-.242.278-.117.506-.286.682-.506.176-.235.264-.528.264-.88 0-.484-.184-.851-.55-1.1-.367-.249-.829-.447-1.386-.594-.543-.161-1.137-.301-1.782-.418-.646-.132-1.247-.308-1.804-.528-.543-.235-.998-.557-1.364-.968-.367-.411-.55-.983-.55-1.716 0-.572.124-1.063.374-1.474.264-.411.594-.741.99-.99.41-.264.865-.455 1.364-.572.513-.132 1.019-.198 1.518-.198.645 0 1.239.059 1.782.176.542.103 1.019.293 1.43.572.425.264.762.631 1.012 1.1.249.455.396 1.027.44 1.716h-1.87c-.03-.367-.125-.667-.286-.902-.162-.249-.367-.447-.616-.594-.25-.147-.528-.249-.836-.308-.294-.073-.594-.11-.902-.11-.279 0-.565.022-.858.066-.279.044-.536.125-.77.242-.235.103-.426.249-.572.44-.147.176-.22.411-.22.704 0 .323.11.594.33.814.234.205.528.381.88.528.352.132.748.249 1.188.352.44.088.88.183 1.32.286.469.103.924.227 1.364.374.454.147.85.345 1.188.594.352.235.63.535.836.902.22.367.33.821.33 1.364 0 .689-.147 1.261-.44 1.716-.279.455-.653.821-1.122 1.1-.455.279-.976.469-1.562.572-.572.117-1.144.176-1.716.176-.631 0-1.232-.066-1.804-.198s-1.078-.345-1.518-.638c-.44-.308-.792-.704-1.056-1.188-.264-.499-.411-1.1-.44-1.804zm11.836-9.834h-1.87v-2.288h1.87zm-1.87 2.046h1.87v11.374h-1.87zm4.767 0h1.76v1.804h.044c.777-1.379 2.009-2.068 3.696-2.068.748 0 1.371.103 1.87.308.498.205.902.491 1.21.858s.52.807.638 1.32c.132.499.198 1.056.198 1.672v7.48h-1.87v-7.7c0-.704-.206-1.261-.616-1.672-.411-.411-.976-.616-1.694-.616-.572 0-1.071.088-1.496.264-.411.176-.756.425-1.034.748-.279.323-.492.704-.638 1.144-.132.425-.198.895-.198 1.408v6.424h-1.87zm22.036 10.406c0 1.863-.425 3.256-1.276 4.18-.85.924-2.185 1.386-4.004 1.386-.528 0-1.07-.059-1.628-.176-.542-.117-1.041-.308-1.496-.572-.44-.264-.806-.609-1.1-1.034-.293-.425-.454-.946-.484-1.562h1.87c.015.337.118.623.308.858.206.235.448.425.726.572.294.147.609.249.946.308.338.073.66.11.968.11.616 0 1.137-.11 1.562-.33.426-.205.778-.499 1.056-.88.279-.367.477-.814.594-1.342.132-.528.198-1.107.198-1.738v-.748h-.044c-.322.704-.814 1.225-1.474 1.562-.645.323-1.334.484-2.068.484-.85 0-1.591-.154-2.222-.462-.63-.308-1.158-.719-1.584-1.232-.425-.528-.748-1.137-.968-1.826-.205-.704-.308-1.445-.308-2.222 0-.675.088-1.364.264-2.068.176-.719.47-1.364.88-1.936.411-.587.954-1.063 1.628-1.43.675-.381 1.504-.572 2.486-.572.719 0 1.379.161 1.98.484.602.308 1.071.777 1.408 1.408h.022v-1.628h1.76zm-5.236-.55c.616 0 1.137-.125 1.562-.374.44-.264.792-.601 1.056-1.012.264-.425.455-.902.572-1.43.132-.528.198-1.056.198-1.584 0-.499-.058-.99-.176-1.474-.117-.484-.308-.917-.572-1.298-.249-.396-.579-.711-.99-.946-.41-.235-.909-.352-1.496-.352-.601 0-1.114.117-1.54.352-.425.22-.777.521-1.056.902-.264.381-.462.821-.594 1.32-.117.499-.176 1.019-.176 1.562 0 .513.052 1.027.154 1.54.103.513.279.983.528 1.408.25.411.58.748.99 1.012.411.249.924.374 1.54.374zm-63.468 13.144h2.266v1.65h-2.266v7.062c0 .22.015.396.044.528.044.132.117.235.22.308s.242.125.418.154c.191.015.433.022.726.022h.858v1.65h-1.43c-.484 0-.902-.029-1.254-.088-.337-.073-.616-.198-.836-.374-.205-.176-.359-.425-.462-.748s-.154-.748-.154-1.276v-7.238h-1.936v-1.65h1.936v-3.41h1.87zm14.419 11.33c-.322.191-.77.286-1.342.286-.484 0-.872-.132-1.166-.396-.278-.279-.418-.726-.418-1.342-.513.616-1.114 1.063-1.804 1.342-.674.264-1.408.396-2.2.396-.513 0-1.004-.059-1.474-.176-.454-.117-.85-.301-1.188-.55-.337-.249-.608-.572-.814-.968-.19-.411-.286-.902-.286-1.474 0-.645.11-1.173.33-1.584s.506-.741.858-.99c.367-.264.778-.462 1.232-.594.47-.132.946-.242 1.43-.33.514-.103.998-.176 1.452-.22.47-.059.88-.132 1.232-.22.352-.103.631-.242.836-.418.206-.191.308-.462.308-.814 0-.411-.08-.741-.242-.99-.146-.249-.344-.44-.594-.572-.234-.132-.506-.22-.814-.264-.293-.044-.586-.066-.88-.066-.792 0-1.452.154-1.98.462-.528.293-.814.858-.858 1.694h-1.87c.03-.704.176-1.298.44-1.782s.616-.873 1.056-1.166c.44-.308.939-.528 1.496-.66.572-.132 1.181-.198 1.826-.198.514 0 1.02.037 1.518.11.514.073.976.227 1.386.462.411.22.741.535.99.946.25.411.374.946.374 1.606v5.852c0 .44.022.763.066.968.059.205.235.308.528.308.162 0 .352-.037.572-.11zm-3.036-5.83c-.234.176-.542.308-.924.396-.381.073-.784.139-1.21.198-.41.044-.828.103-1.254.176-.425.059-.806.161-1.144.308-.337.147-.616.359-.836.638-.205.264-.308.631-.308 1.1 0 .308.059.572.176.792.132.205.294.374.484.506.206.132.44.227.704.286s.543.088.836.088c.616 0 1.144-.081 1.584-.242.44-.176.8-.389 1.078-.638.279-.264.484-.543.616-.836.132-.308.198-.594.198-.858zm14.589 4.906c0 1.863-.425 3.256-1.276 4.18s-2.185 1.386-4.004 1.386c-.528 0-1.071-.059-1.628-.176-.543-.117-1.041-.308-1.496-.572-.44-.264-.807-.609-1.1-1.034s-.455-.946-.484-1.562h1.87c.015.337.117.623.308.858.205.235.447.425.726.572.293.147.609.249.946.308.337.073.66.11.968.11.616 0 1.137-.11 1.562-.33.425-.205.777-.499 1.056-.88.279-.367.477-.814.594-1.342.132-.528.198-1.107.198-1.738v-.748h-.044c-.323.704-.814 1.225-1.474 1.562-.645.323-1.335.484-2.068.484-.851 0-1.591-.154-2.222-.462s-1.159-.719-1.584-1.232c-.425-.528-.748-1.137-.968-1.826-.205-.704-.308-1.445-.308-2.222 0-.675.088-1.364.264-2.068.176-.719.469-1.364.88-1.936.411-.587.953-1.063 1.628-1.43.675-.381 1.503-.572 2.486-.572.719 0 1.379.161 1.98.484.601.308 1.071.777 1.408 1.408h.022v-1.628h1.76zm-5.236-.55c.616 0 1.137-.125 1.562-.374.44-.264.792-.601 1.056-1.012.264-.425.455-.902.572-1.43.132-.528.198-1.056.198-1.584 0-.499-.059-.99-.176-1.474s-.308-.917-.572-1.298c-.249-.396-.579-.711-.99-.946s-.909-.352-1.496-.352c-.601 0-1.115.117-1.54.352-.425.22-.777.521-1.056.902-.264.381-.462.821-.594 1.32-.117.499-.176 1.019-.176 1.562 0 .513.051 1.027.154 1.54s.279.983.528 1.408c.249.411.579.748.99 1.012.411.249.924.374 1.54.374z" fill="#fff" fill-opacity=".333333"/></svg>