<svg fill="none" height="488" viewBox="0 0 556 488" width="556" xmlns="http://www.w3.org/2000/svg" xmlns:xlink="http://www.w3.org/1999/xlink"><mask id="a" fill="#fff"><path d="m134 216h72v72h-72z" fill="#fff"/></mask><mask id="b" fill="#fff"><path d="m242 216h72v72h-72z" fill="#fff"/></mask><mask id="c" fill="#fff"><path d="m350 216h72v72h-72z" fill="#fff"/></mask><path d="m482 324v-144" stroke="#fff" stroke-opacity=".333" stroke-width="1.5"/><path d="m507.76 237.522c-.235-1.115-.755-1.951-1.562-2.508-.792-.557-1.738-.836-2.838-.836-.939 0-1.745.176-2.42.528-.66.352-1.21.829-1.65 1.43-.425.587-.741 1.261-.946 2.024s-.308 1.555-.308 2.376c0 .895.103 1.745.308 2.552.205.792.521 1.489.946 2.09.44.587.997 1.056 1.672 1.408s1.481.528 2.42.528c.689 0 1.298-.11 1.826-.33.543-.235 1.005-.55 1.386-.946.396-.411.704-.895.924-1.452s.352-1.159.396-1.804h2.09c-.205 1.98-.887 3.52-2.046 4.62s-2.743 1.65-4.752 1.65c-1.217 0-2.281-.205-3.19-.616-.909-.425-1.665-1.005-2.266-1.738s-1.056-1.599-1.364-2.596c-.293-.997-.44-2.068-.44-3.212s.161-2.215.484-3.212c.323-1.012.792-1.892 1.408-2.64.631-.748 1.408-1.335 2.332-1.76.939-.44 2.009-.66 3.212-.66.821 0 1.599.11 2.332.33s1.386.543 1.958.968 1.049.961 1.43 1.606c.381.631.631 1.364.748 2.2zm4.459-.396h1.76v2.398h.044c.455-.924 1.012-1.606 1.672-2.046s1.496-.645 2.508-.616v1.98c-.748 0-1.386.103-1.914.308s-.953.506-1.276.902-.557.88-.704 1.452c-.147.557-.22 1.203-.22 1.936v5.06h-1.87zm8.369 5.698c0 .689.088 1.305.264 1.848.191.528.448.975.77 1.342.323.352.697.623 1.122.814.44.191.902.286 1.386.286s.939-.095 1.364-.286c.44-.191.822-.462 1.144-.814.323-.367.572-.814.748-1.342.191-.543.286-1.159.286-1.848s-.095-1.298-.286-1.826c-.176-.543-.425-.997-.748-1.364-.322-.367-.704-.645-1.144-.836-.425-.191-.88-.286-1.364-.286s-.946.095-1.386.286c-.425.191-.799.469-1.122.836-.322.367-.579.821-.77 1.364-.176.528-.264 1.137-.264 1.826zm-1.98 0c0-.836.118-1.613.352-2.332.235-.733.587-1.364 1.056-1.892.47-.543 1.049-.968 1.738-1.276.69-.308 1.482-.462 2.376-.462.91 0 1.702.154 2.376.462.69.308 1.269.733 1.738 1.276.47.528.822 1.159 1.056 1.892.235.719.352 1.496.352 2.332s-.117 1.613-.352 2.332c-.234.719-.586 1.349-1.056 1.892-.469.528-1.048.946-1.738 1.254-.674.293-1.466.44-2.376.44-.894 0-1.686-.147-2.376-.44-.689-.308-1.268-.726-1.738-1.254-.469-.543-.821-1.173-1.056-1.892-.234-.719-.352-1.496-.352-2.332zm14.393 2.09c.015.411.11.763.286 1.056.176.279.404.506.682.682.294.161.616.279.968.352.367.073.741.11 1.122.11.294 0 .602-.022.924-.066.323-.044.616-.125.88-.242.279-.117.506-.286.682-.506.176-.235.264-.528.264-.88 0-.484-.183-.851-.55-1.1-.366-.249-.828-.447-1.386-.594-.542-.161-1.136-.301-1.782-.418-.645-.132-1.246-.308-1.804-.528-.542-.235-.997-.557-1.364-.968-.366-.411-.55-.983-.55-1.716 0-.572.125-1.063.374-1.474.264-.411.594-.741.99-.99.411-.264.866-.455 1.364-.572.514-.132 1.02-.198 1.518-.198.646 0 1.24.059 1.782.176.543.103 1.02.293 1.43.572.426.264.763.631 1.012 1.1.25.455.396 1.027.44 1.716h-1.87c-.029-.367-.124-.667-.286-.902-.161-.249-.366-.447-.616-.594-.249-.147-.528-.249-.836-.308-.293-.073-.594-.11-.902-.11-.278 0-.564.022-.858.066-.278.044-.535.125-.77.242-.234.103-.425.249-.572.44-.146.176-.22.411-.22.704 0 .323.11.594.33.814.235.205.528.381.88.528.352.132.748.249 1.188.352.44.088.88.183 1.32.286.47.103.924.227 1.364.374.455.147.851.345 1.188.594.352.235.631.535.836.902.22.367.33.821.33 1.364 0 .689-.146 1.261-.44 1.716-.278.455-.652.821-1.122 1.1-.454.279-.975.469-1.562.572-.572.117-1.144.176-1.716.176-.63 0-1.232-.066-1.804-.198s-1.078-.345-1.518-.638c-.44-.308-.792-.704-1.056-1.188-.264-.499-.41-1.1-.44-1.804zm11 0c.015.411.11.763.286 1.056.176.279.404.506.682.682.294.161.616.279.968.352.367.073.741.11 1.122.11.294 0 .602-.022.924-.066.323-.044.616-.125.88-.242.279-.117.506-.286.682-.506.176-.235.264-.528.264-.88 0-.484-.183-.851-.55-1.1-.366-.249-.828-.447-1.386-.594-.542-.161-1.136-.301-1.782-.418-.645-.132-1.246-.308-1.804-.528-.542-.235-.997-.557-1.364-.968-.366-.411-.55-.983-.55-1.716 0-.572.125-1.063.374-1.474.264-.411.594-.741.99-.99.411-.264.866-.455 1.364-.572.514-.132 1.02-.198 1.518-.198.646 0 1.24.059 1.782.176.543.103 1.02.293 1.43.572.426.264.763.631 1.012 1.1.25.455.396 1.027.44 1.716h-1.87c-.029-.367-.124-.667-.286-.902-.161-.249-.366-.447-.616-.594-.249-.147-.528-.249-.836-.308-.293-.073-.594-.11-.902-.11-.278 0-.564.022-.858.066-.278.044-.535.125-.77.242-.234.103-.425.249-.572.44-.146.176-.22.411-.22.704 0 .323.11.594.33.814.235.205.528.381.88.528.352.132.748.249 1.188.352.44.088.88.183 1.32.286.47.103.924.227 1.364.374.455.147.851.345 1.188.594.352.235.631.535.836.902.22.367.33.821.33 1.364 0 .689-.146 1.261-.44 1.716-.278.455-.652.821-1.122 1.1-.454.279-.975.469-1.562.572-.572.117-1.144.176-1.716.176-.63 0-1.232-.066-1.804-.198s-1.078-.345-1.518-.638c-.44-.308-.792-.704-1.056-1.188-.264-.499-.41-1.1-.44-1.804zm-44.579 20.096h5.324l-2.618-7.326h-.044zm1.562-9.218h2.31l6.138 15.708h-2.31l-1.716-4.73h-6.644l-1.76 4.73h-2.134zm12.748 9.724-3.96-5.39h2.398l2.728 3.982 2.838-3.982h2.244l-3.916 5.236 4.4 6.138h-2.398l-3.168-4.708-3.168 4.708h-2.266zm10.308-7.436h-1.87v-2.288h1.87zm-1.87 2.046h1.87v11.374h-1.87zm5.911 7.788c.015.411.11.763.286 1.056.176.279.404.506.682.682.294.161.616.279.968.352.367.073.741.11 1.122.11.294 0 .602-.022.924-.066.323-.044.616-.125.88-.242.279-.117.506-.286.682-.506.176-.235.264-.528.264-.88 0-.484-.183-.851-.55-1.1-.366-.249-.828-.447-1.386-.594-.542-.161-1.136-.301-1.782-.418-.645-.132-1.246-.308-1.804-.528-.542-.235-.997-.557-1.364-.968-.366-.411-.55-.983-.55-1.716 0-.572.125-1.063.374-1.474.264-.411.594-.741.99-.99.411-.264.866-.455 1.364-.572.514-.132 1.02-.198 1.518-.198.646 0 1.24.059 1.782.176.543.103 1.02.293 1.43.572.426.264.763.631 1.012 1.1.25.455.396 1.027.44 1.716h-1.87c-.029-.367-.124-.667-.286-.902-.161-.249-.366-.447-.616-.594-.249-.147-.528-.249-.836-.308-.293-.073-.594-.11-.902-.11-.278 0-.564.022-.858.066-.278.044-.535.125-.77.242-.234.103-.425.249-.572.44-.146.176-.22.411-.22.704 0 .323.11.594.33.814.235.205.528.381.88.528.352.132.748.249 1.188.352.44.088.88.183 1.32.286.47.103.924.227 1.364.374.455.147.851.345 1.188.594.352.235.631.535.836.902.22.367.33.821.33 1.364 0 .689-.146 1.261-.44 1.716-.278.455-.652.821-1.122 1.1-.454.279-.975.469-1.562.572-.572.117-1.144.176-1.716.176-.63 0-1.232-.066-1.804-.198s-1.078-.345-1.518-.638c-.44-.308-.792-.704-1.056-1.188-.264-.499-.41-1.1-.44-1.804z" fill="#fff" fill-opacity=".333"/><path d="m98 180h360v144h-360z" fill="gold"/><path d="m203.845 188.292h11.044v2.904h-7.59v3.63h6.578v2.684h-6.578v6.49h-3.454zm12.799 0h3.124v15.708h-3.124zm13.24 8.8c-.147-.792-.411-1.393-.792-1.804-.367-.411-.931-.616-1.694-.616-.499 0-.917.088-1.254.264-.323.161-.587.367-.792.616-.191.249-.33.513-.418.792-.073.279-.117.528-.132.748zm-5.082 1.98c.044 1.012.301 1.745.77 2.2s1.144.682 2.024.682c.631 0 1.173-.154 1.628-.462.455-.323.733-.66.836-1.012h2.75c-.44 1.364-1.115 2.339-2.024 2.926s-2.009.88-3.3.88c-.895 0-1.701-.139-2.42-.418-.719-.293-1.327-.704-1.826-1.232s-.887-1.159-1.166-1.892c-.264-.733-.396-1.54-.396-2.42 0-.851.139-1.643.418-2.376s.675-1.364 1.188-1.892c.513-.543 1.122-.968 1.826-1.276.719-.308 1.511-.462 2.376-.462.968 0 1.811.191 2.53.572.719.367 1.305.865 1.76 1.496.469.631.807 1.349 1.012 2.156s.279 1.65.22 2.53zm12.963-1.056-3.74-5.39h3.564l2.002 2.97 1.98-2.97h3.454l-3.74 5.324 4.202 6.05h-3.564l-2.376-3.586-2.376 3.586h-3.498zm25.837-4.444c-.058-.396-.19-.755-.396-1.078-.205-.337-.462-.631-.77-.88s-.66-.44-1.056-.572c-.381-.147-.784-.22-1.21-.22-.777 0-1.437.154-1.98.462-.542.293-.982.697-1.32 1.21-.337.499-.586 1.071-.748 1.716-.146.645-.22 1.313-.22 2.002 0 .66.074 1.305.22 1.936.162.616.411 1.173.748 1.672.338.499.778.902 1.32 1.21.543.293 1.203.44 1.98.44 1.056 0 1.878-.323 2.464-.968.602-.645.968-1.496 1.1-2.552h3.344c-.088.983-.315 1.87-.682 2.662-.366.792-.85 1.467-1.452 2.024-.601.557-1.305.983-2.112 1.276-.806.293-1.694.44-2.662.44-1.202 0-2.288-.205-3.256-.616-.953-.425-1.76-1.005-2.42-1.738s-1.166-1.591-1.518-2.574c-.352-.997-.528-2.068-.528-3.212 0-1.173.176-2.259.528-3.256.352-1.012.858-1.892 1.518-2.64s1.467-1.335 2.42-1.76c.968-.425 2.054-.638 3.256-.638.866 0 1.68.125 2.442.374.778.249 1.467.616 2.068 1.1.616.469 1.122 1.056 1.518 1.76s.646 1.511.748 2.42zm8.277 4.752c0 .455.044.902.132 1.342.088.425.235.814.44 1.166.22.337.506.609.858.814s.792.308 1.32.308.968-.103 1.32-.308c.367-.205.653-.477.858-.814.22-.352.374-.741.462-1.166.088-.44.132-.887.132-1.342s-.044-.902-.132-1.342-.242-.829-.462-1.166c-.205-.337-.491-.609-.858-.814-.352-.22-.792-.33-1.32-.33s-.968.11-1.32.33c-.352.205-.638.477-.858.814-.205.337-.352.726-.44 1.166s-.132.887-.132 1.342zm-3.124 0c0-.909.139-1.731.418-2.464.279-.748.675-1.379 1.188-1.892.513-.528 1.129-.931 1.848-1.21.719-.293 1.525-.44 2.42-.44s1.701.147 2.42.44c.733.279 1.357.682 1.87 1.21.513.513.909 1.144 1.188 1.892.279.733.418 1.555.418 2.464s-.139 1.731-.418 2.464-.675 1.364-1.188 1.892c-.513.513-1.137.909-1.87 1.188-.719.279-1.525.418-2.42.418s-1.701-.139-2.42-.418-1.335-.675-1.848-1.188c-.513-.528-.909-1.159-1.188-1.892s-.418-1.555-.418-2.464zm13.801-5.698h2.97v1.584h.066c.396-.66.909-1.137 1.54-1.43.631-.308 1.276-.462 1.936-.462.836 0 1.518.117 2.046.352.543.22.968.535 1.276.946.308.396.521.887.638 1.474.132.572.198 1.21.198 1.914v6.996h-3.124v-6.424c0-.939-.147-1.635-.44-2.09-.293-.469-.814-.704-1.562-.704-.851 0-1.467.257-1.848.77-.381.499-.572 1.327-.572 2.486v5.962h-3.124zm17.001 0h2.288v2.09h-2.288v5.632c0 .528.088.88.264 1.056s.528.264 1.056.264c.176 0 .345-.007.506-.022.162-.015.316-.037.462-.066v2.42c-.264.044-.557.073-.88.088-.322.015-.638.022-.946.022-.484 0-.946-.037-1.386-.11-.425-.059-.806-.183-1.144-.374-.322-.191-.579-.462-.77-.814-.19-.352-.286-.814-.286-1.386v-6.71h-1.892v-2.09h1.892v-3.41h3.124zm3.643 3.498c.044-.733.227-1.342.55-1.826.322-.484.733-.873 1.232-1.166.498-.293 1.056-.499 1.672-.616.63-.132 1.261-.198 1.892-.198.572 0 1.151.044 1.738.132.586.073 1.122.227 1.606.462s.88.565 1.188.99c.308.411.462.961.462 1.65v5.918c0 .513.029 1.005.088 1.474.058.469.161.821.308 1.056h-3.168c-.059-.176-.11-.352-.154-.528-.03-.191-.052-.381-.066-.572-.499.513-1.086.873-1.76 1.078-.675.205-1.364.308-2.068.308-.543 0-1.049-.066-1.518-.198-.47-.132-.88-.337-1.232-.616s-.631-.631-.836-1.056c-.191-.425-.286-.931-.286-1.518 0-.645.11-1.173.33-1.584.234-.425.528-.763.88-1.012.366-.249.777-.433 1.232-.55.469-.132.938-.235 1.408-.308.469-.073.931-.132 1.386-.176.454-.044.858-.11 1.21-.198s.63-.213.836-.374c.205-.176.3-.425.286-.748 0-.337-.059-.601-.176-.792-.103-.205-.25-.359-.44-.462-.176-.117-.389-.191-.638-.22-.235-.044-.492-.066-.77-.066-.616 0-1.1.132-1.452.396s-.558.704-.616 1.32zm7.216 2.31c-.132.117-.301.213-.506.286-.191.059-.404.11-.638.154-.22.044-.455.081-.704.11-.25.029-.499.066-.748.11-.235.044-.47.103-.704.176-.22.073-.418.176-.594.308-.162.117-.294.271-.396.462-.103.191-.154.433-.154.726 0 .279.051.513.154.704.102.191.242.345.418.462.176.103.381.176.616.22.234.044.476.066.726.066.616 0 1.092-.103 1.43-.308.337-.205.586-.447.748-.726.161-.293.256-.587.286-.88.044-.293.066-.528.066-.704zm8.76-7.568h-3.124v-2.574h3.124zm-3.124 1.76h3.124v11.374h-3.124zm5.584 0h2.97v1.584h.066c.396-.66.91-1.137 1.54-1.43.631-.308 1.276-.462 1.936-.462.836 0 1.518.117 2.046.352.543.22.968.535 1.276.946.308.396.521.887.638 1.474.132.572.198 1.21.198 1.914v6.996h-3.124v-6.424c0-.939-.146-1.635-.44-2.09-.293-.469-.814-.704-1.562-.704-.85 0-1.466.257-1.848.77-.381.499-.572 1.327-.572 2.486v5.962h-3.124zm20.697 4.466c-.146-.792-.41-1.393-.792-1.804-.366-.411-.931-.616-1.694-.616-.498 0-.916.088-1.254.264-.322.161-.586.367-.792.616-.19.249-.33.513-.418.792-.073.279-.117.528-.132.748zm-5.082 1.98c.044 1.012.301 1.745.77 2.2.47.455 1.144.682 2.024.682.631 0 1.174-.154 1.628-.462.455-.323.734-.66.836-1.012h2.75c-.44 1.364-1.114 2.339-2.024 2.926-.909.587-2.009.88-3.3.88-.894 0-1.701-.139-2.42-.418-.718-.293-1.327-.704-1.826-1.232-.498-.528-.887-1.159-1.166-1.892-.264-.733-.396-1.54-.396-2.42 0-.851.14-1.643.418-2.376.279-.733.675-1.364 1.188-1.892.514-.543 1.122-.968 1.826-1.276.719-.308 1.511-.462 2.376-.462.968 0 1.812.191 2.53.572.719.367 1.306.865 1.76 1.496.47.631.807 1.349 1.012 2.156.206.807.279 1.65.22 2.53zm10.059-6.446h2.97v2.112h.044c.147-.352.345-.675.594-.968.249-.308.535-.565.858-.77.323-.22.667-.389 1.034-.506s.748-.176 1.144-.176c.205 0 .433.037.682.11v2.904c-.147-.029-.323-.051-.528-.066-.205-.029-.403-.044-.594-.044-.572 0-1.056.095-1.452.286s-.719.455-.968.792c-.235.323-.403.704-.506 1.144s-.154.917-.154 1.43v5.126h-3.124z" fill="#000"/><path d="m134 216h72v72h-72z" fill="#000"/><path d="m134 216h72v72h-72z" fill="tomato"/><path d="m206 288v2h2v-2zm-2-72v72h4v-72zm2 70h-72v4h72z" fill="#b22222" mask="url(#a)"/><path d="m151.36 230.792h10.318v1.76h-8.228v4.994h7.216v1.76h-7.216v7.194h-2.09zm12.434 0h1.87v15.708h-1.87zm12.665 8.932c-.029-.44-.132-.858-.308-1.254-.161-.396-.388-.733-.682-1.012-.278-.293-.616-.521-1.012-.682-.381-.176-.806-.264-1.276-.264-.484 0-.924.088-1.32.264-.381.161-.711.389-.99.682-.278.293-.498.638-.66 1.034-.161.381-.256.792-.286 1.232zm1.804 3.168c-.249 1.276-.799 2.237-1.65 2.882-.85.645-1.921.968-3.212.968-.909 0-1.701-.147-2.376-.44-.66-.293-1.217-.704-1.672-1.232-.454-.528-.799-1.159-1.034-1.892-.22-.733-.344-1.533-.374-2.398 0-.865.132-1.657.396-2.376s.631-1.342 1.1-1.87c.484-.528 1.049-.939 1.694-1.232.66-.293 1.379-.44 2.156-.44 1.012 0 1.848.213 2.508.638.675.411 1.21.939 1.606 1.584.411.645.69 1.349.836 2.112.162.763.228 1.489.198 2.178h-8.514c-.014.499.044.975.176 1.43.132.44.345.836.638 1.188.294.337.668.609 1.122.814.455.205.99.308 1.606.308.792 0 1.438-.183 1.936-.55.514-.367.851-.924 1.012-1.672zm5.173-2.376-3.96-5.39h2.398l2.728 3.982 2.838-3.982h2.244l-3.916 5.236 4.4 6.138h-2.398l-3.168-4.708-3.168 4.708h-2.266zm-33.235 13.276h2.09v15.708h-2.09zm7.894 4.334h2.266v1.65h-2.266v7.062c0 .22.014.396.044.528.044.132.117.235.22.308.102.073.242.125.418.154.19.015.432.022.726.022h.858v1.65h-1.43c-.484 0-.902-.029-1.254-.088-.338-.073-.616-.198-.836-.374-.206-.176-.36-.425-.462-.748-.103-.323-.154-.748-.154-1.276v-7.238h-1.936v-1.65h1.936v-3.41h1.87zm12.241 4.598c-.029-.44-.132-.858-.308-1.254-.161-.396-.388-.733-.682-1.012-.278-.293-.616-.521-1.012-.682-.381-.176-.806-.264-1.276-.264-.484 0-.924.088-1.32.264-.381.161-.711.389-.99.682-.278.293-.498.638-.66 1.034-.161.381-.256.792-.286 1.232zm1.804 3.168c-.249 1.276-.799 2.237-1.65 2.882-.85.645-1.921.968-3.212.968-.909 0-1.701-.147-2.376-.44-.66-.293-1.217-.704-1.672-1.232-.454-.528-.799-1.159-1.034-1.892-.22-.733-.344-1.533-.374-2.398 0-.865.132-1.657.396-2.376s.631-1.342 1.1-1.87c.484-.528 1.049-.939 1.694-1.232.66-.293 1.379-.44 2.156-.44 1.012 0 1.848.213 2.508.638.675.411 1.21.939 1.606 1.584.411.645.69 1.349.836 2.112.162.763.228 1.489.198 2.178h-8.514c-.014.499.044.975.176 1.43.132.44.345.836.638 1.188.294.337.668.609 1.122.814.455.205.99.308 1.606.308.792 0 1.438-.183 1.936-.55.514-.367.851-.924 1.012-1.672zm2.115-7.766h1.76v1.672h.044c.85-1.291 2.075-1.936 3.674-1.936.704 0 1.342.147 1.914.44s.975.792 1.21 1.496c.381-.616.88-1.093 1.496-1.43.63-.337 1.32-.506 2.068-.506.572 0 1.085.066 1.54.198.469.117.865.308 1.188.572.337.264.594.609.77 1.034.19.411.286.909.286 1.496v8.338h-1.87v-7.458c0-.352-.03-.682-.088-.99-.059-.308-.169-.572-.33-.792-.162-.235-.389-.418-.682-.55-.279-.132-.646-.198-1.1-.198-.924 0-1.65.264-2.178.792s-.792 1.232-.792 2.112v7.084h-1.87v-7.458c0-.367-.037-.704-.11-1.012-.059-.308-.169-.572-.33-.792-.162-.235-.382-.411-.66-.528-.264-.132-.609-.198-1.034-.198-.543 0-1.012.11-1.408.33-.382.22-.697.484-.946.792-.235.308-.411.631-.528.968-.103.323-.154.594-.154.814v7.084h-1.87z" fill="#000"/><path d="m242 216h72v72h-72z" fill="#000"/><path d="m242 216h72v72h-72z" fill="tomato"/><path d="m314 288v2h2v-2zm-2-72v72h4v-72zm2 70h-72v4h72z" fill="#b22222" mask="url(#b)"/><path d="m259.36 230.792h10.318v1.76h-8.228v4.994h7.216v1.76h-7.216v7.194h-2.09zm12.434 0h1.87v15.708h-1.87zm12.665 8.932c-.029-.44-.132-.858-.308-1.254-.161-.396-.388-.733-.682-1.012-.278-.293-.616-.521-1.012-.682-.381-.176-.806-.264-1.276-.264-.484 0-.924.088-1.32.264-.381.161-.711.389-.99.682-.278.293-.498.638-.66 1.034-.161.381-.256.792-.286 1.232zm1.804 3.168c-.249 1.276-.799 2.237-1.65 2.882-.85.645-1.921.968-3.212.968-.909 0-1.701-.147-2.376-.44-.66-.293-1.217-.704-1.672-1.232-.454-.528-.799-1.159-1.034-1.892-.22-.733-.344-1.533-.374-2.398 0-.865.132-1.657.396-2.376s.631-1.342 1.1-1.87c.484-.528 1.049-.939 1.694-1.232.66-.293 1.379-.44 2.156-.44 1.012 0 1.848.213 2.508.638.675.411 1.21.939 1.606 1.584.411.645.69 1.349.836 2.112.162.763.228 1.489.198 2.178h-8.514c-.014.499.044.975.176 1.43.132.44.345.836.638 1.188.294.337.668.609 1.122.814.455.205.99.308 1.606.308.792 0 1.438-.183 1.936-.55.514-.367.851-.924 1.012-1.672zm5.173-2.376-3.96-5.39h2.398l2.728 3.982 2.838-3.982h2.244l-3.916 5.236 4.4 6.138h-2.398l-3.168-4.708-3.168 4.708h-2.266zm-33.235 13.276h2.09v15.708h-2.09zm7.894 4.334h2.266v1.65h-2.266v7.062c0 .22.014.396.044.528.044.132.117.235.22.308.102.073.242.125.418.154.19.015.432.022.726.022h.858v1.65h-1.43c-.484 0-.902-.029-1.254-.088-.338-.073-.616-.198-.836-.374-.206-.176-.36-.425-.462-.748-.103-.323-.154-.748-.154-1.276v-7.238h-1.936v-1.65h1.936v-3.41h1.87zm12.241 4.598c-.029-.44-.132-.858-.308-1.254-.161-.396-.388-.733-.682-1.012-.278-.293-.616-.521-1.012-.682-.381-.176-.806-.264-1.276-.264-.484 0-.924.088-1.32.264-.381.161-.711.389-.99.682-.278.293-.498.638-.66 1.034-.161.381-.256.792-.286 1.232zm1.804 3.168c-.249 1.276-.799 2.237-1.65 2.882-.85.645-1.921.968-3.212.968-.909 0-1.701-.147-2.376-.44-.66-.293-1.217-.704-1.672-1.232-.454-.528-.799-1.159-1.034-1.892-.22-.733-.344-1.533-.374-2.398 0-.865.132-1.657.396-2.376s.631-1.342 1.1-1.87c.484-.528 1.049-.939 1.694-1.232.66-.293 1.379-.44 2.156-.44 1.012 0 1.848.213 2.508.638.675.411 1.21.939 1.606 1.584.411.645.69 1.349.836 2.112.162.763.228 1.489.198 2.178h-8.514c-.014.499.044.975.176 1.43.132.44.345.836.638 1.188.294.337.668.609 1.122.814.455.205.99.308 1.606.308.792 0 1.438-.183 1.936-.55.514-.367.851-.924 1.012-1.672zm2.115-7.766h1.76v1.672h.044c.85-1.291 2.075-1.936 3.674-1.936.704 0 1.342.147 1.914.44s.975.792 1.21 1.496c.381-.616.88-1.093 1.496-1.43.63-.337 1.32-.506 2.068-.506.572 0 1.085.066 1.54.198.469.117.865.308 1.188.572.337.264.594.609.77 1.034.19.411.286.909.286 1.496v8.338h-1.87v-7.458c0-.352-.03-.682-.088-.99-.059-.308-.169-.572-.33-.792-.162-.235-.389-.418-.682-.55-.279-.132-.646-.198-1.1-.198-.924 0-1.65.264-2.178.792s-.792 1.232-.792 2.112v7.084h-1.87v-7.458c0-.367-.037-.704-.11-1.012-.059-.308-.169-.572-.33-.792-.162-.235-.382-.411-.66-.528-.264-.132-.609-.198-1.034-.198-.543 0-1.012.11-1.408.33-.382.22-.697.484-.946.792-.235.308-.411.631-.528.968-.103.323-.154.594-.154.814v7.084h-1.87z" fill="#000"/><path d="m350 216h72v72h-72z" fill="#000"/><path d="m350 216h72v72h-72z" fill="tomato"/><path d="m422 288v2h2v-2zm-2-72v72h4v-72zm2 70h-72v4h72z" fill="#b22222" mask="url(#c)"/><path d="m367.36 230.792h10.318v1.76h-8.228v4.994h7.216v1.76h-7.216v7.194h-2.09zm12.434 0h1.87v15.708h-1.87zm12.665 8.932c-.029-.44-.132-.858-.308-1.254-.161-.396-.388-.733-.682-1.012-.278-.293-.616-.521-1.012-.682-.381-.176-.806-.264-1.276-.264-.484 0-.924.088-1.32.264-.381.161-.711.389-.99.682-.278.293-.498.638-.66 1.034-.161.381-.256.792-.286 1.232zm1.804 3.168c-.249 1.276-.799 2.237-1.65 2.882-.85.645-1.921.968-3.212.968-.909 0-1.701-.147-2.376-.44-.66-.293-1.217-.704-1.672-1.232-.454-.528-.799-1.159-1.034-1.892-.22-.733-.344-1.533-.374-2.398 0-.865.132-1.657.396-2.376s.631-1.342 1.1-1.87c.484-.528 1.049-.939 1.694-1.232.66-.293 1.379-.44 2.156-.44 1.012 0 1.848.213 2.508.638.675.411 1.21.939 1.606 1.584.411.645.69 1.349.836 2.112.162.763.228 1.489.198 2.178h-8.514c-.014.499.044.975.176 1.43.132.44.345.836.638 1.188.294.337.668.609 1.122.814.455.205.99.308 1.606.308.792 0 1.438-.183 1.936-.55.514-.367.851-.924 1.012-1.672zm5.173-2.376-3.96-5.39h2.398l2.728 3.982 2.838-3.982h2.244l-3.916 5.236 4.4 6.138h-2.398l-3.168-4.708-3.168 4.708h-2.266zm-33.235 13.276h2.09v15.708h-2.09zm7.894 4.334h2.266v1.65h-2.266v7.062c0 .22.014.396.044.528.044.132.117.235.22.308.102.073.242.125.418.154.19.015.432.022.726.022h.858v1.65h-1.43c-.484 0-.902-.029-1.254-.088-.338-.073-.616-.198-.836-.374-.206-.176-.36-.425-.462-.748-.103-.323-.154-.748-.154-1.276v-7.238h-1.936v-1.65h1.936v-3.41h1.87zm12.241 4.598c-.029-.44-.132-.858-.308-1.254-.161-.396-.388-.733-.682-1.012-.278-.293-.616-.521-1.012-.682-.381-.176-.806-.264-1.276-.264-.484 0-.924.088-1.32.264-.381.161-.711.389-.99.682-.278.293-.498.638-.66 1.034-.161.381-.256.792-.286 1.232zm1.804 3.168c-.249 1.276-.799 2.237-1.65 2.882-.85.645-1.921.968-3.212.968-.909 0-1.701-.147-2.376-.44-.66-.293-1.217-.704-1.672-1.232-.454-.528-.799-1.159-1.034-1.892-.22-.733-.344-1.533-.374-2.398 0-.865.132-1.657.396-2.376s.631-1.342 1.1-1.87c.484-.528 1.049-.939 1.694-1.232.66-.293 1.379-.44 2.156-.44 1.012 0 1.848.213 2.508.638.675.411 1.21.939 1.606 1.584.411.645.69 1.349.836 2.112.162.763.228 1.489.198 2.178h-8.514c-.014.499.044.975.176 1.43.132.44.345.836.638 1.188.294.337.668.609 1.122.814.455.205.99.308 1.606.308.792 0 1.438-.183 1.936-.55.514-.367.851-.924 1.012-1.672zm2.115-7.766h1.76v1.672h.044c.85-1.291 2.075-1.936 3.674-1.936.704 0 1.342.147 1.914.44s.975.792 1.21 1.496c.381-.616.88-1.093 1.496-1.43.63-.337 1.32-.506 2.068-.506.572 0 1.085.066 1.54.198.469.117.865.308 1.188.572.337.264.594.609.77 1.034.19.411.286.909.286 1.496v8.338h-1.87v-7.458c0-.352-.03-.682-.088-.99-.059-.308-.169-.572-.33-.792-.162-.235-.389-.418-.682-.55-.279-.132-.646-.198-1.1-.198-.924 0-1.65.264-2.178.792s-.792 1.232-.792 2.112v7.084h-1.87v-7.458c0-.367-.037-.704-.11-1.012-.059-.308-.169-.572-.33-.792-.162-.235-.382-.411-.66-.528-.264-.132-.609-.198-1.034-.198-.543 0-1.012.11-1.408.33-.382.22-.697.484-.946.792-.235.308-.411.631-.528.968-.103.323-.154.594-.154.814v7.084h-1.87z" fill="#000"/><path d="m98 348h360" stroke="#fff" stroke-opacity=".333" stroke-width="1.5"/><path d="m231.893 356.292h2.86l4.95 13.2 4.972-13.2h2.86v15.708h-1.98v-13.068h-.044l-4.906 13.068h-1.782l-4.906-13.068h-.044v13.068h-1.98zm28.888 15.664c-.323.191-.77.286-1.342.286-.484 0-.873-.132-1.166-.396-.279-.279-.418-.726-.418-1.342-.513.616-1.115 1.063-1.804 1.342-.675.264-1.408.396-2.2.396-.513 0-1.005-.059-1.474-.176-.455-.117-.851-.301-1.188-.55s-.609-.572-.814-.968c-.191-.411-.286-.902-.286-1.474 0-.645.11-1.173.33-1.584s.506-.741.858-.99c.367-.264.777-.462 1.232-.594.469-.132.946-.242 1.43-.33.513-.103.997-.176 1.452-.22.469-.059.88-.132 1.232-.22.352-.103.631-.242.836-.418.205-.191.308-.462.308-.814 0-.411-.081-.741-.242-.99-.147-.249-.345-.44-.594-.572-.235-.132-.506-.22-.814-.264-.293-.044-.587-.066-.88-.066-.792 0-1.452.154-1.98.462-.528.293-.814.858-.858 1.694h-1.87c.029-.704.176-1.298.44-1.782s.616-.873 1.056-1.166c.44-.308.939-.528 1.496-.66.572-.132 1.181-.198 1.826-.198.513 0 1.019.037 1.518.11.513.073.975.227 1.386.462.411.22.741.535.99.946s.374.946.374 1.606v5.852c0 .44.022.763.066.968.059.205.235.308.528.308.161 0 .352-.037.572-.11zm-3.036-5.83c-.235.176-.543.308-.924.396-.381.073-.785.139-1.21.198-.411.044-.829.103-1.254.176-.425.059-.807.161-1.144.308s-.616.359-.836.638c-.205.264-.308.631-.308 1.1 0 .308.059.572.176.792.132.205.293.374.484.506.205.132.44.227.704.286s.543.088.836.088c.616 0 1.144-.081 1.584-.242.44-.176.799-.389 1.078-.638.279-.264.484-.543.616-.836.132-.308.198-.594.198-.858zm6.756-7.546h-1.87v-2.288h1.87zm-1.87 2.046h1.87v11.374h-1.87zm4.767 0h1.76v1.804h.044c.778-1.379 2.01-2.068 3.696-2.068.748 0 1.372.103 1.87.308.499.205.902.491 1.21.858s.521.807.638 1.32c.132.499.198 1.056.198 1.672v7.48h-1.87v-7.7c0-.704-.205-1.261-.616-1.672-.41-.411-.975-.616-1.694-.616-.572 0-1.07.088-1.496.264-.41.176-.755.425-1.034.748-.278.323-.491.704-.638 1.144-.132.425-.198.895-.198 1.408v6.424h-1.87zm21.362 4.884h5.324l-2.618-7.326h-.044zm1.562-9.218h2.31l6.138 15.708h-2.31l-1.716-4.73h-6.644l-1.76 4.73h-2.134zm12.748 9.724-3.96-5.39h2.398l2.728 3.982 2.838-3.982h2.244l-3.916 5.236 4.4 6.138h-2.398l-3.168-4.708-3.168 4.708h-2.266zm10.308-7.436h-1.87v-2.288h1.87zm-1.87 2.046h1.87v11.374h-1.87zm5.911 7.788c.015.411.11.763.286 1.056.176.279.404.506.682.682.294.161.616.279.968.352.367.073.741.11 1.122.11.294 0 .602-.022.924-.066.323-.044.616-.125.88-.242.279-.117.506-.286.682-.506.176-.235.264-.528.264-.88 0-.484-.183-.851-.55-1.1-.366-.249-.828-.447-1.386-.594-.542-.161-1.136-.301-1.782-.418-.645-.132-1.246-.308-1.804-.528-.542-.235-.997-.557-1.364-.968-.366-.411-.55-.983-.55-1.716 0-.572.125-1.063.374-1.474.264-.411.594-.741.99-.99.411-.264.866-.455 1.364-.572.514-.132 1.02-.198 1.518-.198.646 0 1.24.059 1.782.176.543.103 1.02.293 1.43.572.426.264.763.631 1.012 1.1.25.455.396 1.027.44 1.716h-1.87c-.029-.367-.124-.667-.286-.902-.161-.249-.366-.447-.616-.594-.249-.147-.528-.249-.836-.308-.293-.073-.594-.11-.902-.11-.278 0-.564.022-.858.066-.278.044-.535.125-.77.242-.234.103-.425.249-.572.44-.146.176-.22.411-.22.704 0 .323.11.594.33.814.235.205.528.381.88.528.352.132.748.249 1.188.352.44.088.88.183 1.32.286.47.103.924.227 1.364.374.455.147.851.345 1.188.594.352.235.631.535.836.902.22.367.33.821.33 1.364 0 .689-.146 1.261-.44 1.716-.278.455-.652.821-1.122 1.1-.454.279-.975.469-1.562.572-.572.117-1.144.176-1.716.176-.63 0-1.232-.066-1.804-.198s-1.078-.345-1.518-.638c-.44-.308-.792-.704-1.056-1.188-.264-.499-.41-1.1-.44-1.804z" fill="#fff" fill-opacity=".333"/><path d="m208.653 128.292h11.044v2.904h-7.59v3.63h6.578v2.684h-6.578v6.49h-3.454zm12.579 0h3.124v15.708h-3.124zm13.02 8.8c-.147-.792-.411-1.393-.792-1.804-.367-.411-.931-.616-1.694-.616-.499 0-.917.088-1.254.264-.323.161-.587.367-.792.616-.191.249-.33.513-.418.792-.073.279-.117.528-.132.748zm-5.082 1.98c.044 1.012.301 1.745.77 2.2s1.144.682 2.024.682c.631 0 1.173-.154 1.628-.462.455-.323.733-.66.836-1.012h2.75c-.44 1.364-1.115 2.339-2.024 2.926s-2.009.88-3.3.88c-.895 0-1.701-.139-2.42-.418-.719-.293-1.327-.704-1.826-1.232s-.887-1.159-1.166-1.892c-.264-.733-.396-1.54-.396-2.42 0-.851.139-1.643.418-2.376s.675-1.364 1.188-1.892c.513-.543 1.122-.968 1.826-1.276.719-.308 1.511-.462 2.376-.462.968 0 1.811.191 2.53.572.719.367 1.305.865 1.76 1.496.469.631.807 1.349 1.012 2.156s.279 1.65.22 2.53zm12.743-1.056-3.74-5.39h3.564l2.002 2.97 1.98-2.97h3.454l-3.74 5.324 4.202 6.05h-3.564l-2.376-3.586-2.376 3.586h-3.498zm18.379 3.08h3.08c.499 0 .983-.081 1.452-.242.47-.161.888-.425 1.254-.792.367-.381.66-.873.88-1.474s.33-1.335.33-2.2c0-.792-.08-1.503-.242-2.134-.146-.645-.396-1.195-.748-1.65s-.821-.799-1.408-1.034c-.572-.249-1.283-.374-2.134-.374h-2.464zm-3.454-12.804h6.776c1.012 0 1.951.161 2.816.484.88.323 1.636.807 2.266 1.452.646.645 1.144 1.452 1.496 2.42.367.968.55 2.105.55 3.41 0 1.144-.146 2.2-.44 3.168-.293.968-.74 1.804-1.342 2.508-.586.704-1.327 1.261-2.222 1.672-.88.396-1.921.594-3.124.594h-6.776zm18.969 2.574h-3.124v-2.574h3.124zm-3.124 1.76h3.124v11.374h-3.124zm5.364 0h2.97v2.112h.044c.146-.352.344-.675.594-.968.249-.308.535-.565.858-.77.322-.22.667-.389 1.034-.506.366-.117.748-.176 1.144-.176.205 0 .432.037.682.11v2.904c-.147-.029-.323-.051-.528-.066-.206-.029-.404-.044-.594-.044-.572 0-1.056.095-1.452.286s-.719.455-.968.792c-.235.323-.404.704-.506 1.144-.103.44-.154.917-.154 1.43v5.126h-3.124zm15.6 4.466c-.147-.792-.411-1.393-.792-1.804-.367-.411-.932-.616-1.694-.616-.499 0-.917.088-1.254.264-.323.161-.587.367-.792.616-.191.249-.33.513-.418.792-.074.279-.118.528-.132.748zm-5.082 1.98c.044 1.012.3 1.745.77 2.2.469.455 1.144.682 2.024.682.63 0 1.173-.154 1.628-.462.454-.323.733-.66.836-1.012h2.75c-.44 1.364-1.115 2.339-2.024 2.926-.91.587-2.01.88-3.3.88-.895 0-1.702-.139-2.42-.418-.719-.293-1.328-.704-1.826-1.232-.499-.528-.888-1.159-1.166-1.892-.264-.733-.396-1.54-.396-2.42 0-.851.139-1.643.418-2.376.278-.733.674-1.364 1.188-1.892.513-.543 1.122-.968 1.826-1.276.718-.308 1.51-.462 2.376-.462.968 0 1.811.191 2.53.572.718.367 1.305.865 1.76 1.496.469.631.806 1.349 1.012 2.156.205.807.278 1.65.22 2.53zm17.583-2.442c-.206-1.305-.976-1.958-2.31-1.958-.499 0-.917.117-1.254.352-.338.22-.616.513-.836.88-.206.352-.352.748-.44 1.188-.088.425-.132.851-.132 1.276 0 .411.044.829.132 1.254s.227.814.418 1.166c.205.337.476.616.814.836.337.22.748.33 1.232.33.748 0 1.32-.205 1.716-.616.41-.425.667-.99.77-1.694h3.014c-.206 1.511-.792 2.662-1.76 3.454s-2.208 1.188-3.718 1.188c-.851 0-1.636-.139-2.354-.418-.704-.293-1.306-.697-1.804-1.21-.499-.513-.888-1.122-1.166-1.826-.279-.719-.418-1.503-.418-2.354 0-.88.124-1.694.374-2.442.264-.763.645-1.415 1.144-1.958.498-.557 1.107-.99 1.826-1.298.718-.308 1.54-.462 2.464-.462.674 0 1.32.088 1.936.264.63.176 1.188.447 1.672.814.498.352.902.799 1.21 1.342.308.528.484 1.159.528 1.892zm8.628-4.004h2.288v2.09h-2.288v5.632c0 .528.088.88.264 1.056s.528.264 1.056.264c.176 0 .345-.007.506-.022.162-.015.316-.037.462-.066v2.42c-.264.044-.557.073-.88.088-.322.015-.638.022-.946.022-.484 0-.946-.037-1.386-.11-.425-.059-.806-.183-1.144-.374-.322-.191-.579-.462-.77-.814-.19-.352-.286-.814-.286-1.386v-6.71h-1.892v-2.09h1.892v-3.41h3.124zm6.767-1.76h-3.124v-2.574h3.124zm-3.124 1.76h3.124v11.374h-3.124zm8.136 5.698c0 .455.044.902.132 1.342.088.425.234.814.44 1.166.22.337.506.609.858.814s.792.308 1.32.308.968-.103 1.32-.308c.366-.205.652-.477.858-.814.22-.352.374-.741.462-1.166.088-.44.132-.887.132-1.342s-.044-.902-.132-1.342-.242-.829-.462-1.166c-.206-.337-.492-.609-.858-.814-.352-.22-.792-.33-1.32-.33s-.968.11-1.32.33c-.352.205-.638.477-.858.814-.206.337-.352.726-.44 1.166s-.132.887-.132 1.342zm-3.124 0c0-.909.139-1.731.418-2.464.278-.748.674-1.379 1.188-1.892.513-.528 1.129-.931 1.848-1.21.718-.293 1.525-.44 2.42-.44.894 0 1.701.147 2.42.44.733.279 1.356.682 1.87 1.21.513.513.909 1.144 1.188 1.892.278.733.418 1.555.418 2.464s-.14 1.731-.418 2.464c-.279.733-.675 1.364-1.188 1.892-.514.513-1.137.909-1.87 1.188-.719.279-1.526.418-2.42.418-.895 0-1.702-.139-2.42-.418-.719-.279-1.335-.675-1.848-1.188-.514-.528-.91-1.159-1.188-1.892-.279-.733-.418-1.555-.418-2.464zm13.581-5.698h2.97v1.584h.066c.396-.66.909-1.137 1.54-1.43.631-.308 1.276-.462 1.936-.462.836 0 1.518.117 2.046.352.543.22.968.535 1.276.946.308.396.521.887.638 1.474.132.572.198 1.21.198 1.914v6.996h-3.124v-6.424c0-.939-.147-1.635-.44-2.09-.293-.469-.814-.704-1.562-.704-.851 0-1.467.257-1.848.77-.381.499-.572 1.327-.572 2.486v5.962h-3.124z" fill="#fff"/><path d="m449.5 147.5 8.5 8.5-8.5 8.5" stroke="#fff" stroke-width="3"/><path d="m98 156h360" stroke="#fff" stroke-width="3"/><path d="m250.355 11.097h5.676c1.188 0 2.079-.264 2.673-.792s.891-1.386.891-2.574c0-1.144-.297-1.969-.891-2.475-.594-.528-1.485-.792-2.673-.792h-5.676zm-5.181-10.659002h12.705c1.056 0 2.002.176001 2.838.528002.858.33 1.584.792 2.178 1.386.616.594 1.078 1.287 1.386 2.079.33.77.495 1.606.495 2.508 0 1.386-.297 2.585-.891 3.597-.572 1.012-1.518 1.782-2.838 2.31v.066c.638.176 1.166.451 1.584.825.418.352.759.781 1.023 1.287.264.484.451 1.023.561 1.617.132.594.22 1.188.264 1.782.022.374.044.814.066 1.32s.055 1.023.099 1.551c.066.528.154 1.034.264 1.518.132.462.319.858.561 1.188h-5.181c-.286-.748-.462-1.639-.528-2.673s-.165-2.024-.297-2.97c-.176-1.232-.55-2.134-1.122-2.706s-1.507-.858-2.805-.858h-5.181v9.207h-5.181zm27.148 15.048002c0 .682.066 1.353.198 2.013.132.638.352 1.221.66 1.749.33.506.759.913 1.287 1.221s1.188.462 1.98.462 1.452-.154 1.98-.462c.55-.308.979-.715 1.287-1.221.33-.528.561-1.111.693-1.749.132-.66.198-1.331.198-2.013s-.066-1.353-.198-2.013-.363-1.243-.693-1.749c-.308-.506-.737-.913-1.287-1.221-.528-.33-1.188-.495-1.98-.495s-1.452.165-1.98.495c-.528.308-.957.715-1.287 1.221-.308.506-.528 1.089-.66 1.749s-.198 1.331-.198 2.013zm-4.686 0c0-1.364.209-2.596.627-3.696.418-1.122 1.012-2.068 1.782-2.838.77-.792 1.694-1.397 2.772-1.815 1.078-.44 2.288-.66 3.63-.66s2.552.22 3.63.66c1.1.418 2.035 1.023 2.805 1.815.77.77 1.364 1.716 1.782 2.838.418 1.1.627 2.332.627 3.696s-.209 2.596-.627 3.696-1.012 2.046-1.782 2.838c-.77.77-1.705 1.364-2.805 1.782-1.078.418-2.288.627-3.63.627s-2.552-.209-3.63-.627-2.002-1.012-2.772-1.782c-.77-.792-1.364-1.738-1.782-2.838s-.627-2.332-.627-3.696zm39.875 8.514h-4.818l-3.036-11.451h-.066l-2.904 11.451h-4.851l-5.412-17.061h4.95l3.135 11.583h.066l2.838-11.583h4.554l2.904 11.55h.066l3.135-11.55h4.818z" fill="#fff"/></svg>