<svg fill="none" height="489" viewBox="0 0 556 489" width="556" xmlns="http://www.w3.org/2000/svg" xmlns:xlink="http://www.w3.org/1999/xlink"><mask id="a" fill="#fff"><path d="m242 109h72v72h-72z" fill="#fff"/></mask><mask id="b" fill="#fff"><path d="m242 217h72v72h-72z" fill="#fff"/></mask><mask id="c" fill="#fff"><path d="m242 325h72v72h-72z" fill="#fff"/></mask><path d="m374 433v-360" stroke="#fff" stroke-opacity=".333" stroke-width="1.5"/><path d="m388.893 245.292h2.86l4.95 13.2 4.972-13.2h2.86v15.708h-1.98v-13.068h-.044l-4.906 13.068h-1.782l-4.906-13.068h-.044v13.068h-1.98zm28.888 15.664c-.323.191-.77.286-1.342.286-.484 0-.873-.132-1.166-.396-.279-.279-.418-.726-.418-1.342-.513.616-1.115 1.063-1.804 1.342-.675.264-1.408.396-2.2.396-.513 0-1.005-.059-1.474-.176-.455-.117-.851-.301-1.188-.55s-.609-.572-.814-.968c-.191-.411-.286-.902-.286-1.474 0-.645.11-1.173.33-1.584s.506-.741.858-.99c.367-.264.777-.462 1.232-.594.469-.132.946-.242 1.43-.33.513-.103.997-.176 1.452-.22.469-.059.88-.132 1.232-.22.352-.103.631-.242.836-.418.205-.191.308-.462.308-.814 0-.411-.081-.741-.242-.99-.147-.249-.345-.44-.594-.572-.235-.132-.506-.22-.814-.264-.293-.044-.587-.066-.88-.066-.792 0-1.452.154-1.98.462-.528.293-.814.858-.858 1.694h-1.87c.029-.704.176-1.298.44-1.782s.616-.873 1.056-1.166c.44-.308.939-.528 1.496-.66.572-.132 1.181-.198 1.826-.198.513 0 1.019.037 1.518.11.513.073.975.227 1.386.462.411.22.741.535.99.946s.374.946.374 1.606v5.852c0 .44.022.763.066.968.059.205.235.308.528.308.161 0 .352-.037.572-.11zm-3.036-5.83c-.235.176-.543.308-.924.396-.381.073-.785.139-1.21.198-.411.044-.829.103-1.254.176-.425.059-.807.161-1.144.308s-.616.359-.836.638c-.205.264-.308.631-.308 1.1 0 .308.059.572.176.792.132.205.293.374.484.506.205.132.44.227.704.286s.543.088.836.088c.616 0 1.144-.081 1.584-.242.44-.176.799-.389 1.078-.638.279-.264.484-.543.616-.836.132-.308.198-.594.198-.858zm6.756-7.546h-1.87v-2.288h1.87zm-1.87 2.046h1.87v11.374h-1.87zm4.767 0h1.76v1.804h.044c.778-1.379 2.01-2.068 3.696-2.068.748 0 1.372.103 1.87.308.499.205.902.491 1.21.858s.521.807.638 1.32c.132.499.198 1.056.198 1.672v7.48h-1.87v-7.7c0-.704-.205-1.261-.616-1.672-.41-.411-.975-.616-1.694-.616-.572 0-1.07.088-1.496.264-.41.176-.755.425-1.034.748-.278.323-.491.704-.638 1.144-.132.425-.198.895-.198 1.408v6.424h-1.87zm21.362 4.884h5.324l-2.618-7.326h-.044zm1.562-9.218h2.31l6.138 15.708h-2.31l-1.716-4.73h-6.644l-1.76 4.73h-2.134zm12.748 9.724-3.96-5.39h2.398l2.728 3.982 2.838-3.982h2.244l-3.916 5.236 4.4 6.138h-2.398l-3.168-4.708-3.168 4.708h-2.266zm10.308-7.436h-1.87v-2.288h1.87zm-1.87 2.046h1.87v11.374h-1.87zm5.911 7.788c.015.411.11.763.286 1.056.176.279.404.506.682.682.294.161.616.279.968.352.367.073.741.11 1.122.11.294 0 .602-.022.924-.066.323-.044.616-.125.88-.242.279-.117.506-.286.682-.506.176-.235.264-.528.264-.88 0-.484-.183-.851-.55-1.1-.366-.249-.828-.447-1.386-.594-.542-.161-1.136-.301-1.782-.418-.645-.132-1.246-.308-1.804-.528-.542-.235-.997-.557-1.364-.968-.366-.411-.55-.983-.55-1.716 0-.572.125-1.063.374-1.474.264-.411.594-.741.99-.99.411-.264.866-.455 1.364-.572.514-.132 1.02-.198 1.518-.198.646 0 1.24.059 1.782.176.543.103 1.02.293 1.43.572.426.264.763.631 1.012 1.1.25.455.396 1.027.44 1.716h-1.87c-.029-.367-.124-.667-.286-.902-.161-.249-.366-.447-.616-.594-.249-.147-.528-.249-.836-.308-.293-.073-.594-.11-.902-.11-.278 0-.564.022-.858.066-.278.044-.535.125-.77.242-.234.103-.425.249-.572.44-.146.176-.22.411-.22.704 0 .323.11.594.33.814.235.205.528.381.88.528.352.132.748.249 1.188.352.44.088.88.183 1.32.286.47.103.924.227 1.364.374.455.147.851.345 1.188.594.352.235.631.535.836.902.22.367.33.821.33 1.364 0 .689-.146 1.261-.44 1.716-.278.455-.652.821-1.122 1.1-.454.279-.975.469-1.562.572-.572.117-1.144.176-1.716.176-.63 0-1.232-.066-1.804-.198s-1.078-.345-1.518-.638c-.44-.308-.792-.704-1.056-1.188-.264-.499-.41-1.1-.44-1.804z" fill="#fff" fill-opacity=".333"/><path d="m206 73h144v360h-144z" fill="gold"/><path d="m238.46 86.572c-.059-.396-.191-.7553-.396-1.078-.206-.3373-.462-.6307-.77-.88s-.66-.44-1.056-.572c-.382-.1467-.785-.22-1.21-.22-.778 0-1.438.154-1.98.462-.543.2933-.983.6967-1.32 1.21-.338.4987-.587 1.0707-.748 1.716-.147.6453-.22 1.3127-.22 2.002 0 .66.073 1.3053.22 1.936.161.616.41 1.1733.748 1.672.337.4987.777.902 1.32 1.21.542.2933 1.202.44 1.98.44 1.056 0 1.877-.3227 2.464-.968.601-.6453.968-1.496 1.1-2.552h3.344c-.088.9827-.316 1.87-.682 2.662-.367.792-.851 1.4667-1.452 2.024-.602.5573-1.306.9827-2.112 1.276-.807.2933-1.694.44-2.662.44-1.203 0-2.288-.2053-3.256-.616-.954-.4253-1.76-1.0047-2.42-1.738s-1.166-1.5913-1.518-2.574c-.352-.9973-.528-2.068-.528-3.212 0-1.1733.176-2.2587.528-3.256.352-1.012.858-1.892 1.518-2.64s1.466-1.3347 2.42-1.76c.968-.4253 2.053-.638 3.256-.638.865 0 1.679.1247 2.442.374.777.2493 1.466.616 2.068 1.1.616.4693 1.122 1.056 1.518 1.76s.645 1.5107.748 2.42zm8.276 4.752c0 .4547.044.902.132 1.342.088.4253.235.814.44 1.166.22.3373.506.6087.858.814s.792.308 1.32.308.968-.1027 1.32-.308c.367-.2053.653-.4767.858-.814.22-.352.374-.7407.462-1.166.088-.44.132-.8873.132-1.342s-.044-.902-.132-1.342-.242-.8287-.462-1.166c-.205-.3373-.491-.6087-.858-.814-.352-.22-.792-.33-1.32-.33s-.968.11-1.32.33c-.352.2053-.638.4767-.858.814-.205.3373-.352.726-.44 1.166s-.132.8873-.132 1.342zm-3.124 0c0-.9093.14-1.7307.418-2.464.279-.748.675-1.3787 1.188-1.892.514-.528 1.13-.9313 1.848-1.21.719-.2933 1.526-.44 2.42-.44.895 0 1.702.1467 2.42.44.734.2787 1.357.682 1.87 1.21.514.5133.91 1.144 1.188 1.892.279.7333.418 1.5547.418 2.464s-.139 1.7307-.418 2.464c-.278.7333-.674 1.364-1.188 1.892-.513.5133-1.136.9093-1.87 1.188-.718.2787-1.525.418-2.42.418-.894 0-1.701-.1393-2.42-.418-.718-.2787-1.334-.6747-1.848-1.188-.513-.528-.909-1.1587-1.188-1.892-.278-.7333-.418-1.5547-.418-2.464zm13.802-5.698h2.97v1.584h.066c.396-.66.909-1.1367 1.54-1.43.63-.308 1.276-.462 1.936-.462.836 0 1.518.1173 2.046.352.542.22.968.5353 1.276.946.308.396.52.8873.638 1.474.132.572.198 1.21.198 1.914v6.996h-3.124v-6.424c0-.9387-.147-1.6353-.44-2.09-.294-.4693-.814-.704-1.562-.704-.851 0-1.467.2567-1.848.77-.382.4987-.572 1.3273-.572 2.486v5.962h-3.124zm17.001 0h2.288v2.09h-2.288v5.632c0 .528.088.88.264 1.056s.528.264 1.056.264c.176 0 .344-.0073.506-.022.161-.0147.315-.0367.462-.066v2.42c-.264.044-.558.0733-.88.088-.323.0147-.638.022-.946.022-.484 0-.946-.0367-1.386-.11-.426-.0587-.807-.1833-1.144-.374-.323-.1907-.58-.462-.77-.814-.191-.352-.286-.814-.286-1.386v-6.71h-1.892v-2.09h1.892v-3.41h3.124zm3.642 3.498c.044-.7333.227-1.342.55-1.826s.733-.8727 1.232-1.166 1.056-.4987 1.672-.616c.631-.132 1.261-.198 1.892-.198.572 0 1.151.044 1.738.132.587.0733 1.122.2273 1.606.462s.88.5647 1.188.99c.308.4107.462.9607.462 1.65v5.918c0 .5133.029 1.0047.088 1.474s.161.8213.308 1.056h-3.168c-.059-.176-.11-.352-.154-.528-.029-.1907-.051-.3813-.066-.572-.499.5133-1.085.8727-1.76 1.078s-1.364.308-2.068.308c-.543 0-1.049-.066-1.518-.198s-.88-.3373-1.232-.616-.631-.6307-.836-1.056c-.191-.4253-.286-.9313-.286-1.518 0-.6453.11-1.1733.33-1.584.235-.4253.528-.7627.88-1.012.367-.2493.777-.4327 1.232-.55.469-.132.939-.2347 1.408-.308s.931-.132 1.386-.176.858-.11 1.21-.198.631-.2127.836-.374c.205-.176.301-.4253.286-.748 0-.3373-.059-.6013-.176-.792-.103-.2053-.249-.3593-.44-.462-.176-.1173-.389-.1907-.638-.22-.235-.044-.491-.066-.77-.066-.616 0-1.1.132-1.452.396s-.557.704-.616 1.32zm7.216 2.31c-.132.1173-.301.2127-.506.286-.191.0587-.403.11-.638.154-.22.044-.455.0807-.704.11s-.499.066-.748.11c-.235.044-.469.1027-.704.176-.22.0733-.418.176-.594.308-.161.1173-.293.2713-.396.462s-.154.4327-.154.726c0 .2787.051.5133.154.704s.242.3447.418.462c.176.1027.381.176.616.22s.477.066.726.066c.616 0 1.093-.1027 1.43-.308s.587-.4473.748-.726c.161-.2933.257-.5867.286-.88.044-.2933.066-.528.066-.704zm8.761-7.568h-3.124v-2.574h3.124zm-3.124 1.76h3.124v11.374h-3.124zm5.584 0h2.97v1.584h.066c.396-.66.909-1.1367 1.54-1.43.63-.308 1.276-.462 1.936-.462.836 0 1.518.1173 2.046.352.542.22.968.5353 1.276.946.308.396.52.8873.638 1.474.132.572.198 1.21.198 1.914v6.996h-3.124v-6.424c0-.9387-.147-1.6353-.44-2.09-.294-.4693-.814-.704-1.562-.704-.851 0-1.467.2567-1.848.77-.382.4987-.572 1.3273-.572 2.486v5.962h-3.124zm20.697 4.466c-.147-.792-.411-1.3933-.792-1.804-.367-.4107-.932-.616-1.694-.616-.499 0-.917.088-1.254.264-.323.1613-.587.3667-.792.616-.191.2493-.33.5133-.418.792-.074.2787-.118.528-.132.748zm-5.082 1.98c.044 1.012.3 1.7453.77 2.2.469.4547 1.144.682 2.024.682.63 0 1.173-.154 1.628-.462.454-.3227.733-.66.836-1.012h2.75c-.44 1.364-1.115 2.3393-2.024 2.926-.91.5867-2.01.88-3.3.88-.895 0-1.702-.1393-2.42-.418-.719-.2933-1.328-.704-1.826-1.232-.499-.528-.888-1.1587-1.166-1.892-.264-.7333-.396-1.54-.396-2.42 0-.8507.139-1.6427.418-2.376.278-.7333.674-1.364 1.188-1.892.513-.5427 1.122-.968 1.826-1.276.718-.308 1.51-.462 2.376-.462.968 0 1.811.1907 2.53.572.718.3667 1.305.8653 1.76 1.496.469.6307.806 1.3493 1.012 2.156.205.8067.278 1.65.22 2.53zm10.058-6.446h2.97v2.112h.044c.147-.352.345-.6747.594-.968.25-.308.536-.5647.858-.77.323-.22.668-.3887 1.034-.506.367-.1173.748-.176 1.144-.176.206 0 .433.0367.682.11v2.904c-.146-.0293-.322-.0513-.528-.066-.205-.0293-.403-.044-.594-.044-.572 0-1.056.0953-1.452.286s-.718.4547-.968.792c-.234.3227-.403.704-.506 1.144-.102.44-.154.9167-.154 1.43v5.126h-3.124z" fill="#000"/><path d="m242 109h72v72h-72z" fill="#000"/><path d="m242 109h72v72h-72z" fill="tomato"/><path d="m314 181v2h2v-2zm-2-72v72h4v-72zm2 70h-72v4h72z" fill="#b22222" mask="url(#a)"/><path d="m259.36 123.792h10.318v1.76h-8.228v4.994h7.216v1.76h-7.216v7.194h-2.09zm12.434 0h1.87v15.708h-1.87zm12.665 8.932c-.029-.44-.132-.858-.308-1.254-.161-.396-.388-.733-.682-1.012-.278-.293-.616-.521-1.012-.682-.381-.176-.806-.264-1.276-.264-.484 0-.924.088-1.32.264-.381.161-.711.389-.99.682-.278.293-.498.638-.66 1.034-.161.381-.256.792-.286 1.232zm1.804 3.168c-.249 1.276-.799 2.237-1.65 2.882-.85.645-1.921.968-3.212.968-.909 0-1.701-.147-2.376-.44-.66-.293-1.217-.704-1.672-1.232-.454-.528-.799-1.159-1.034-1.892-.22-.733-.344-1.533-.374-2.398 0-.865.132-1.657.396-2.376s.631-1.342 1.1-1.87c.484-.528 1.049-.939 1.694-1.232.66-.293 1.379-.44 2.156-.44 1.012 0 1.848.213 2.508.638.675.411 1.21.939 1.606 1.584.411.645.69 1.349.836 2.112.162.763.228 1.489.198 2.178h-8.514c-.014.499.044.975.176 1.43.132.44.345.836.638 1.188.294.337.668.609 1.122.814.455.205.99.308 1.606.308.792 0 1.438-.183 1.936-.55.514-.367.851-.924 1.012-1.672zm5.173-2.376-3.96-5.39h2.398l2.728 3.982 2.838-3.982h2.244l-3.916 5.236 4.4 6.138h-2.398l-3.168-4.708-3.168 4.708h-2.266zm-33.235 13.276h2.09v15.708h-2.09zm7.894 4.334h2.266v1.65h-2.266v7.062c0 .22.014.396.044.528.044.132.117.235.22.308.102.073.242.125.418.154.19.015.432.022.726.022h.858v1.65h-1.43c-.484 0-.902-.029-1.254-.088-.338-.073-.616-.198-.836-.374-.206-.176-.36-.425-.462-.748-.103-.323-.154-.748-.154-1.276v-7.238h-1.936v-1.65h1.936v-3.41h1.87zm12.241 4.598c-.029-.44-.132-.858-.308-1.254-.161-.396-.388-.733-.682-1.012-.278-.293-.616-.521-1.012-.682-.381-.176-.806-.264-1.276-.264-.484 0-.924.088-1.32.264-.381.161-.711.389-.99.682-.278.293-.498.638-.66 1.034-.161.381-.256.792-.286 1.232zm1.804 3.168c-.249 1.276-.799 2.237-1.65 2.882-.85.645-1.921.968-3.212.968-.909 0-1.701-.147-2.376-.44-.66-.293-1.217-.704-1.672-1.232-.454-.528-.799-1.159-1.034-1.892-.22-.733-.344-1.533-.374-2.398 0-.865.132-1.657.396-2.376s.631-1.342 1.1-1.87c.484-.528 1.049-.939 1.694-1.232.66-.293 1.379-.44 2.156-.44 1.012 0 1.848.213 2.508.638.675.411 1.21.939 1.606 1.584.411.645.69 1.349.836 2.112.162.763.228 1.489.198 2.178h-8.514c-.014.499.044.975.176 1.43.132.44.345.836.638 1.188.294.337.668.609 1.122.814.455.205.99.308 1.606.308.792 0 1.438-.183 1.936-.55.514-.367.851-.924 1.012-1.672zm2.115-7.766h1.76v1.672h.044c.85-1.291 2.075-1.936 3.674-1.936.704 0 1.342.147 1.914.44s.975.792 1.21 1.496c.381-.616.88-1.093 1.496-1.43.63-.337 1.32-.506 2.068-.506.572 0 1.085.066 1.54.198.469.117.865.308 1.188.572.337.264.594.609.77 1.034.19.411.286.909.286 1.496v8.338h-1.87v-7.458c0-.352-.03-.682-.088-.99-.059-.308-.169-.572-.33-.792-.162-.235-.389-.418-.682-.55-.279-.132-.646-.198-1.1-.198-.924 0-1.65.264-2.178.792s-.792 1.232-.792 2.112v7.084h-1.87v-7.458c0-.367-.037-.704-.11-1.012-.059-.308-.169-.572-.33-.792-.162-.235-.382-.411-.66-.528-.264-.132-.609-.198-1.034-.198-.543 0-1.012.11-1.408.33-.382.22-.697.484-.946.792-.235.308-.411.631-.528.968-.103.323-.154.594-.154.814v7.084h-1.87z" fill="#000"/><path d="m242 217h72v72h-72z" fill="#000"/><path d="m242 217h72v72h-72z" fill="tomato"/><path d="m314 289v2h2v-2zm-2-72v72h4v-72zm2 70h-72v4h72z" fill="#b22222" mask="url(#b)"/><path d="m259.36 231.792h10.318v1.76h-8.228v4.994h7.216v1.76h-7.216v7.194h-2.09zm12.434 0h1.87v15.708h-1.87zm12.665 8.932c-.029-.44-.132-.858-.308-1.254-.161-.396-.388-.733-.682-1.012-.278-.293-.616-.521-1.012-.682-.381-.176-.806-.264-1.276-.264-.484 0-.924.088-1.32.264-.381.161-.711.389-.99.682-.278.293-.498.638-.66 1.034-.161.381-.256.792-.286 1.232zm1.804 3.168c-.249 1.276-.799 2.237-1.65 2.882-.85.645-1.921.968-3.212.968-.909 0-1.701-.147-2.376-.44-.66-.293-1.217-.704-1.672-1.232-.454-.528-.799-1.159-1.034-1.892-.22-.733-.344-1.533-.374-2.398 0-.865.132-1.657.396-2.376s.631-1.342 1.1-1.87c.484-.528 1.049-.939 1.694-1.232.66-.293 1.379-.44 2.156-.44 1.012 0 1.848.213 2.508.638.675.411 1.21.939 1.606 1.584.411.645.69 1.349.836 2.112.162.763.228 1.489.198 2.178h-8.514c-.014.499.044.975.176 1.43.132.44.345.836.638 1.188.294.337.668.609 1.122.814.455.205.99.308 1.606.308.792 0 1.438-.183 1.936-.55.514-.367.851-.924 1.012-1.672zm5.173-2.376-3.96-5.39h2.398l2.728 3.982 2.838-3.982h2.244l-3.916 5.236 4.4 6.138h-2.398l-3.168-4.708-3.168 4.708h-2.266zm-33.235 13.276h2.09v15.708h-2.09zm7.894 4.334h2.266v1.65h-2.266v7.062c0 .22.014.396.044.528.044.132.117.235.22.308.102.073.242.125.418.154.19.015.432.022.726.022h.858v1.65h-1.43c-.484 0-.902-.029-1.254-.088-.338-.073-.616-.198-.836-.374-.206-.176-.36-.425-.462-.748-.103-.323-.154-.748-.154-1.276v-7.238h-1.936v-1.65h1.936v-3.41h1.87zm12.241 4.598c-.029-.44-.132-.858-.308-1.254-.161-.396-.388-.733-.682-1.012-.278-.293-.616-.521-1.012-.682-.381-.176-.806-.264-1.276-.264-.484 0-.924.088-1.32.264-.381.161-.711.389-.99.682-.278.293-.498.638-.66 1.034-.161.381-.256.792-.286 1.232zm1.804 3.168c-.249 1.276-.799 2.237-1.65 2.882-.85.645-1.921.968-3.212.968-.909 0-1.701-.147-2.376-.44-.66-.293-1.217-.704-1.672-1.232-.454-.528-.799-1.159-1.034-1.892-.22-.733-.344-1.533-.374-2.398 0-.865.132-1.657.396-2.376s.631-1.342 1.1-1.87c.484-.528 1.049-.939 1.694-1.232.66-.293 1.379-.44 2.156-.44 1.012 0 1.848.213 2.508.638.675.411 1.21.939 1.606 1.584.411.645.69 1.349.836 2.112.162.763.228 1.489.198 2.178h-8.514c-.014.499.044.975.176 1.43.132.44.345.836.638 1.188.294.337.668.609 1.122.814.455.205.99.308 1.606.308.792 0 1.438-.183 1.936-.55.514-.367.851-.924 1.012-1.672zm2.115-7.766h1.76v1.672h.044c.85-1.291 2.075-1.936 3.674-1.936.704 0 1.342.147 1.914.44s.975.792 1.21 1.496c.381-.616.88-1.093 1.496-1.43.63-.337 1.32-.506 2.068-.506.572 0 1.085.066 1.54.198.469.117.865.308 1.188.572.337.264.594.609.77 1.034.19.411.286.909.286 1.496v8.338h-1.87v-7.458c0-.352-.03-.682-.088-.99-.059-.308-.169-.572-.33-.792-.162-.235-.389-.418-.682-.55-.279-.132-.646-.198-1.1-.198-.924 0-1.65.264-2.178.792s-.792 1.232-.792 2.112v7.084h-1.87v-7.458c0-.367-.037-.704-.11-1.012-.059-.308-.169-.572-.33-.792-.162-.235-.382-.411-.66-.528-.264-.132-.609-.198-1.034-.198-.543 0-1.012.11-1.408.33-.382.22-.697.484-.946.792-.235.308-.411.631-.528.968-.103.323-.154.594-.154.814v7.084h-1.87z" fill="#000"/><path d="m242 325h72v72h-72z" fill="#000"/><path d="m242 325h72v72h-72z" fill="tomato"/><path d="m314 397v2h2v-2zm-2-72v72h4v-72zm2 70h-72v4h72z" fill="#b22222" mask="url(#c)"/><path d="m259.36 339.792h10.318v1.76h-8.228v4.994h7.216v1.76h-7.216v7.194h-2.09zm12.434 0h1.87v15.708h-1.87zm12.665 8.932c-.029-.44-.132-.858-.308-1.254-.161-.396-.388-.733-.682-1.012-.278-.293-.616-.521-1.012-.682-.381-.176-.806-.264-1.276-.264-.484 0-.924.088-1.32.264-.381.161-.711.389-.99.682-.278.293-.498.638-.66 1.034-.161.381-.256.792-.286 1.232zm1.804 3.168c-.249 1.276-.799 2.237-1.65 2.882-.85.645-1.921.968-3.212.968-.909 0-1.701-.147-2.376-.44-.66-.293-1.217-.704-1.672-1.232-.454-.528-.799-1.159-1.034-1.892-.22-.733-.344-1.533-.374-2.398 0-.865.132-1.657.396-2.376s.631-1.342 1.1-1.87c.484-.528 1.049-.939 1.694-1.232.66-.293 1.379-.44 2.156-.44 1.012 0 1.848.213 2.508.638.675.411 1.21.939 1.606 1.584.411.645.69 1.349.836 2.112.162.763.228 1.489.198 2.178h-8.514c-.014.499.044.975.176 1.43.132.44.345.836.638 1.188.294.337.668.609 1.122.814.455.205.99.308 1.606.308.792 0 1.438-.183 1.936-.55.514-.367.851-.924 1.012-1.672zm5.173-2.376-3.96-5.39h2.398l2.728 3.982 2.838-3.982h2.244l-3.916 5.236 4.4 6.138h-2.398l-3.168-4.708-3.168 4.708h-2.266zm-33.235 13.276h2.09v15.708h-2.09zm7.894 4.334h2.266v1.65h-2.266v7.062c0 .22.014.396.044.528.044.132.117.235.22.308.102.073.242.125.418.154.19.015.432.022.726.022h.858v1.65h-1.43c-.484 0-.902-.029-1.254-.088-.338-.073-.616-.198-.836-.374-.206-.176-.36-.425-.462-.748-.103-.323-.154-.748-.154-1.276v-7.238h-1.936v-1.65h1.936v-3.41h1.87zm12.241 4.598c-.029-.44-.132-.858-.308-1.254-.161-.396-.388-.733-.682-1.012-.278-.293-.616-.521-1.012-.682-.381-.176-.806-.264-1.276-.264-.484 0-.924.088-1.32.264-.381.161-.711.389-.99.682-.278.293-.498.638-.66 1.034-.161.381-.256.792-.286 1.232zm1.804 3.168c-.249 1.276-.799 2.237-1.65 2.882-.85.645-1.921.968-3.212.968-.909 0-1.701-.147-2.376-.44-.66-.293-1.217-.704-1.672-1.232-.454-.528-.799-1.159-1.034-1.892-.22-.733-.344-1.533-.374-2.398 0-.865.132-1.657.396-2.376s.631-1.342 1.1-1.87c.484-.528 1.049-.939 1.694-1.232.66-.293 1.379-.44 2.156-.44 1.012 0 1.848.213 2.508.638.675.411 1.21.939 1.606 1.584.411.645.69 1.349.836 2.112.162.763.228 1.489.198 2.178h-8.514c-.014.499.044.975.176 1.43.132.44.345.836.638 1.188.294.337.668.609 1.122.814.455.205.99.308 1.606.308.792 0 1.438-.183 1.936-.55.514-.367.851-.924 1.012-1.672zm2.115-7.766h1.76v1.672h.044c.85-1.291 2.075-1.936 3.674-1.936.704 0 1.342.147 1.914.44s.975.792 1.21 1.496c.381-.616.88-1.093 1.496-1.43.63-.337 1.32-.506 2.068-.506.572 0 1.085.066 1.54.198.469.117.865.308 1.188.572.337.264.594.609.77 1.034.19.411.286.909.286 1.496v8.338h-1.87v-7.458c0-.352-.03-.682-.088-.99-.059-.308-.169-.572-.33-.792-.162-.235-.389-.418-.682-.55-.279-.132-.646-.198-1.1-.198-.924 0-1.65.264-2.178.792s-.792 1.232-.792 2.112v7.084h-1.87v-7.458c0-.367-.037-.704-.11-1.012-.059-.308-.169-.572-.33-.792-.162-.235-.382-.411-.66-.528-.264-.132-.609-.198-1.034-.198-.543 0-1.012.11-1.408.33-.382.22-.697.484-.946.792-.235.308-.411.631-.528.968-.103.323-.154.594-.154.814v7.084h-1.87z" fill="#000"/><path d="m205 457h145" stroke="#fff" stroke-opacity=".333" stroke-width="1.5"/><path d="m237.709 470.022c-.234-1.115-.755-1.951-1.562-2.508-.792-.557-1.738-.836-2.838-.836-.938 0-1.745.176-2.42.528-.66.352-1.21.829-1.65 1.43-.425.587-.74 1.261-.946 2.024-.205.763-.308 1.555-.308 2.376 0 .895.103 1.745.308 2.552.206.792.521 1.489.946 2.09.44.587.998 1.056 1.672 1.408.675.352 1.482.528 2.42.528.69 0 1.298-.11 1.826-.33.543-.235 1.005-.55 1.386-.946.396-.411.704-.895.924-1.452s.352-1.159.396-1.804h2.09c-.205 1.98-.887 3.52-2.046 4.62-1.158 1.1-2.742 1.65-4.752 1.65-1.217 0-2.28-.205-3.19-.616-.909-.425-1.664-1.005-2.266-1.738-.601-.733-1.056-1.599-1.364-2.596-.293-.997-.44-2.068-.44-3.212s.162-2.215.484-3.212c.323-1.012.792-1.892 1.408-2.64.631-.748 1.408-1.335 2.332-1.76.939-.44 2.01-.66 3.212-.66.822 0 1.599.11 2.332.33.734.22 1.386.543 1.958.968s1.049.961 1.43 1.606c.382.631.631 1.364.748 2.2zm4.459-.396h1.76v2.398h.044c.455-.924 1.012-1.606 1.672-2.046s1.496-.645 2.508-.616v1.98c-.748 0-1.386.103-1.914.308s-.953.506-1.276.902c-.322.396-.557.88-.704 1.452-.146.557-.22 1.203-.22 1.936v5.06h-1.87zm8.37 5.698c0 .689.088 1.305.264 1.848.19.528.447.975.77 1.342.322.352.696.623 1.122.814.44.191.902.286 1.386.286s.938-.095 1.364-.286c.44-.191.821-.462 1.144-.814.322-.367.572-.814.748-1.342.19-.543.286-1.159.286-1.848s-.096-1.298-.286-1.826c-.176-.543-.426-.997-.748-1.364-.323-.367-.704-.645-1.144-.836-.426-.191-.88-.286-1.364-.286s-.946.095-1.386.286c-.426.191-.8.469-1.122.836-.323.367-.58.821-.77 1.364-.176.528-.264 1.137-.264 1.826zm-1.98 0c0-.836.117-1.613.352-2.332.234-.733.586-1.364 1.056-1.892.469-.543 1.048-.968 1.738-1.276.689-.308 1.481-.462 2.376-.462.909 0 1.701.154 2.376.462.689.308 1.268.733 1.738 1.276.469.528.821 1.159 1.056 1.892.234.719.352 1.496.352 2.332s-.118 1.613-.352 2.332c-.235.719-.587 1.349-1.056 1.892-.47.528-1.049.946-1.738 1.254-.675.293-1.467.44-2.376.44-.895 0-1.687-.147-2.376-.44-.69-.308-1.269-.726-1.738-1.254-.47-.543-.822-1.173-1.056-1.892-.235-.719-.352-1.496-.352-2.332zm14.392 2.09c.015.411.11.763.286 1.056.176.279.404.506.682.682.294.161.616.279.968.352.367.073.741.11 1.122.11.294 0 .602-.022.924-.066.323-.044.616-.125.88-.242.279-.117.506-.286.682-.506.176-.235.264-.528.264-.88 0-.484-.183-.851-.55-1.1-.366-.249-.828-.447-1.386-.594-.542-.161-1.136-.301-1.782-.418-.645-.132-1.246-.308-1.804-.528-.542-.235-.997-.557-1.364-.968-.366-.411-.55-.983-.55-1.716 0-.572.125-1.063.374-1.474.264-.411.594-.741.99-.99.411-.264.866-.455 1.364-.572.514-.132 1.02-.198 1.518-.198.646 0 1.24.059 1.782.176.543.103 1.02.293 1.43.572.426.264.763.631 1.012 1.1.25.455.396 1.027.44 1.716h-1.87c-.029-.367-.124-.667-.286-.902-.161-.249-.366-.447-.616-.594-.249-.147-.528-.249-.836-.308-.293-.073-.594-.11-.902-.11-.278 0-.564.022-.858.066-.278.044-.535.125-.77.242-.234.103-.425.249-.572.44-.146.176-.22.411-.22.704 0 .323.11.594.33.814.235.205.528.381.88.528.352.132.748.249 1.188.352.44.088.88.183 1.32.286.47.103.924.227 1.364.374.455.147.851.345 1.188.594.352.235.631.535.836.902.22.367.33.821.33 1.364 0 .689-.146 1.261-.44 1.716-.278.455-.652.821-1.122 1.1-.454.279-.975.469-1.562.572-.572.117-1.144.176-1.716.176-.63 0-1.232-.066-1.804-.198s-1.078-.345-1.518-.638c-.44-.308-.792-.704-1.056-1.188-.264-.499-.41-1.1-.44-1.804zm11 0c.015.411.11.763.286 1.056.176.279.404.506.682.682.294.161.616.279.968.352.367.073.741.11 1.122.11.294 0 .602-.022.924-.066.323-.044.616-.125.88-.242.279-.117.506-.286.682-.506.176-.235.264-.528.264-.88 0-.484-.183-.851-.55-1.1-.366-.249-.828-.447-1.386-.594-.542-.161-1.136-.301-1.782-.418-.645-.132-1.246-.308-1.804-.528-.542-.235-.997-.557-1.364-.968-.366-.411-.55-.983-.55-1.716 0-.572.125-1.063.374-1.474.264-.411.594-.741.99-.99.411-.264.866-.455 1.364-.572.514-.132 1.02-.198 1.518-.198.646 0 1.24.059 1.782.176.543.103 1.02.293 1.43.572.426.264.763.631 1.012 1.1.25.455.396 1.027.44 1.716h-1.87c-.029-.367-.124-.667-.286-.902-.161-.249-.366-.447-.616-.594-.249-.147-.528-.249-.836-.308-.293-.073-.594-.11-.902-.11-.278 0-.564.022-.858.066-.278.044-.535.125-.77.242-.234.103-.425.249-.572.44-.146.176-.22.411-.22.704 0 .323.11.594.33.814.235.205.528.381.88.528.352.132.748.249 1.188.352.44.088.88.183 1.32.286.47.103.924.227 1.364.374.455.147.851.345 1.188.594.352.235.631.535.836.902.22.367.33.821.33 1.364 0 .689-.146 1.261-.44 1.716-.278.455-.652.821-1.122 1.1-.454.279-.975.469-1.562.572-.572.117-1.144.176-1.716.176-.63 0-1.232-.066-1.804-.198s-1.078-.345-1.518-.638c-.44-.308-.792-.704-1.056-1.188-.264-.499-.41-1.1-.44-1.804zm18.993-2.904h5.324l-2.618-7.326h-.044zm1.562-9.218h2.31l6.138 15.708h-2.31l-1.716-4.73h-6.644l-1.76 4.73h-2.134zm12.748 9.724-3.96-5.39h2.398l2.728 3.982 2.838-3.982h2.244l-3.916 5.236 4.4 6.138h-2.398l-3.168-4.708-3.168 4.708h-2.266zm10.309-7.436h-1.87v-2.288h1.87zm-1.87 2.046h1.87v11.374h-1.87zm5.911 7.788c.014.411.11.763.286 1.056.176.279.403.506.682.682.293.161.616.279.968.352.366.073.74.11 1.122.11.293 0 .601-.022.924-.066.322-.044.616-.125.88-.242.278-.117.506-.286.682-.506.176-.235.264-.528.264-.88 0-.484-.184-.851-.55-1.1-.367-.249-.829-.447-1.386-.594-.543-.161-1.137-.301-1.782-.418-.646-.132-1.247-.308-1.804-.528-.543-.235-.998-.557-1.364-.968-.367-.411-.55-.983-.55-1.716 0-.572.124-1.063.374-1.474.264-.411.594-.741.99-.99.41-.264.865-.455 1.364-.572.513-.132 1.019-.198 1.518-.198.645 0 1.239.059 1.782.176.542.103 1.019.293 1.43.572.425.264.762.631 1.012 1.1.249.455.396 1.027.44 1.716h-1.87c-.03-.367-.125-.667-.286-.902-.162-.249-.367-.447-.616-.594-.25-.147-.528-.249-.836-.308-.294-.073-.594-.11-.902-.11-.279 0-.565.022-.858.066-.279.044-.536.125-.77.242-.235.103-.426.249-.572.44-.147.176-.22.411-.22.704 0 .323.11.594.33.814.234.205.528.381.88.528.352.132.748.249 1.188.352.44.088.88.183 1.32.286.469.103.924.227 1.364.374.454.147.85.345 1.188.594.352.235.63.535.836.902.22.367.33.821.33 1.364 0 .689-.147 1.261-.44 1.716-.279.455-.653.821-1.122 1.1-.455.279-.976.469-1.562.572-.572.117-1.144.176-1.716.176-.631 0-1.232-.066-1.804-.198s-1.078-.345-1.518-.638c-.44-.308-.792-.704-1.056-1.188-.264-.499-.411-1.1-.44-1.804z" fill="#fff" fill-opacity=".333"/><path d="m29.6531 245.292h11.044v2.904h-7.59v3.63h6.578v2.684h-6.578v6.49h-3.454zm12.579 0h3.124v15.708h-3.124zm13.0199 8.8c-.1467-.792-.4107-1.393-.792-1.804-.3667-.411-.9314-.616-1.694-.616-.4987 0-.9167.088-1.254.264-.3227.161-.5867.367-.792.616-.1907.249-.33.513-.418.792-.0734.279-.1174.528-.132.748zm-5.082 1.98c.044 1.012.3006 1.745.77 2.2.4693.455 1.144.682 2.024.682.6306 0 1.1733-.154 1.628-.462.4546-.323.7333-.66.836-1.012h2.75c-.44 1.364-1.1147 2.339-2.024 2.926-.9094.587-2.0094.88-3.3.88-.8947 0-1.7014-.139-2.42-.418-.7187-.293-1.3274-.704-1.826-1.232-.4987-.528-.8874-1.159-1.166-1.892-.264-.733-.396-1.54-.396-2.42 0-.851.1393-1.643.418-2.376.2786-.733.6746-1.364 1.188-1.892.5133-.543 1.122-.968 1.826-1.276.7186-.308 1.5106-.462 2.376-.462.968 0 1.8113.191 2.53.572.7186.367 1.3053.865 1.76 1.496.4693.631.8066 1.349 1.012 2.156.2053.807.2786 1.65.22 2.53zm12.7428-1.056-3.74-5.39h3.564l2.002 2.97 1.98-2.97h3.454l-3.74 5.324 4.202 6.05h-3.564l-2.376-3.586-2.376 3.586h-3.498zm18.3794 3.08h3.08c.4987 0 .9827-.081 1.452-.242.4694-.161.8874-.425 1.254-.792.3667-.381.66-.873.88-1.474s.33-1.335.33-2.2c0-.792-.0806-1.503-.242-2.134-.1466-.645-.396-1.195-.748-1.65s-.8213-.799-1.408-1.034c-.572-.249-1.2833-.374-2.134-.374h-2.464zm-3.454-12.804h6.776c1.012 0 1.9507.161 2.816.484.88.323 1.6354.807 2.266 1.452.6454.645 1.144 1.452 1.496 2.42.3667.968.55 2.105.55 3.41 0 1.144-.1466 2.2-.44 3.168-.2933.968-.7406 1.804-1.342 2.508-.5866.704-1.3273 1.261-2.222 1.672-.88.396-1.9213.594-3.124.594h-6.776zm18.9687 2.574h-3.124v-2.574h3.124zm-3.124 1.76h3.124v11.374h-3.124zm5.3638 0h2.9703v2.112h.044c.146-.352.344-.675.594-.968.249-.308.535-.565.858-.77.322-.22.667-.389 1.034-.506.366-.117.748-.176 1.144-.176.205 0 .432.037.682.11v2.904c-.147-.029-.323-.051-.528-.066-.206-.029-.404-.044-.594-.044-.572 0-1.056.095-1.452.286s-.719.455-.968.792c-.235.323-.404.704-.506 1.144-.103.44-.154.917-.154 1.43v5.126h-3.1243zm15.6003 4.466c-.147-.792-.411-1.393-.792-1.804-.367-.411-.932-.616-1.694-.616-.499 0-.917.088-1.254.264-.323.161-.587.367-.792.616-.191.249-.33.513-.418.792-.074.279-.118.528-.132.748zm-5.082 1.98c.044 1.012.3 1.745.77 2.2.469.455 1.144.682 2.024.682.63 0 1.173-.154 1.628-.462.454-.323.733-.66.836-1.012h2.75c-.44 1.364-1.115 2.339-2.024 2.926-.91.587-2.01.88-3.3.88-.895 0-1.702-.139-2.42-.418-.719-.293-1.328-.704-1.826-1.232-.499-.528-.888-1.159-1.166-1.892-.264-.733-.396-1.54-.396-2.42 0-.851.139-1.643.418-2.376.278-.733.674-1.364 1.188-1.892.513-.543 1.122-.968 1.826-1.276.718-.308 1.51-.462 2.376-.462.968 0 1.811.191 2.53.572.718.367 1.305.865 1.76 1.496.469.631.806 1.349 1.012 2.156.205.807.278 1.65.22 2.53zm17.583-2.442c-.206-1.305-.976-1.958-2.31-1.958-.499 0-.917.117-1.254.352-.338.22-.616.513-.836.88-.206.352-.352.748-.44 1.188-.088.425-.132.851-.132 1.276 0 .411.044.829.132 1.254s.227.814.418 1.166c.205.337.476.616.814.836.337.22.748.33 1.232.33.748 0 1.32-.205 1.716-.616.41-.425.667-.99.77-1.694h3.014c-.206 1.511-.792 2.662-1.76 3.454s-2.208 1.188-3.718 1.188c-.851 0-1.636-.139-2.354-.418-.704-.293-1.306-.697-1.804-1.21-.499-.513-.888-1.122-1.166-1.826-.279-.719-.418-1.503-.418-2.354 0-.88.124-1.694.374-2.442.264-.763.645-1.415 1.144-1.958.498-.557 1.107-.99 1.826-1.298.718-.308 1.54-.462 2.464-.462.674 0 1.32.088 1.936.264.63.176 1.188.447 1.672.814.498.352.902.799 1.21 1.342.308.528.484 1.159.528 1.892zm8.628-4.004h2.288v2.09h-2.288v5.632c0 .528.088.88.264 1.056s.528.264 1.056.264c.176 0 .345-.007.506-.022.162-.015.316-.037.462-.066v2.42c-.264.044-.557.073-.88.088-.322.015-.638.022-.946.022-.484 0-.946-.037-1.386-.11-.425-.059-.806-.183-1.144-.374-.322-.191-.579-.462-.77-.814-.19-.352-.286-.814-.286-1.386v-6.71h-1.892v-2.09h1.892v-3.41h3.124zm6.767-1.76h-3.124v-2.574h3.124zm-3.124 1.76h3.124v11.374h-3.124zm8.136 5.698c0 .455.044.902.132 1.342.088.425.234.814.44 1.166.22.337.506.609.858.814s.792.308 1.32.308.968-.103 1.32-.308c.366-.205.652-.477.858-.814.22-.352.374-.741.462-1.166.088-.44.132-.887.132-1.342s-.044-.902-.132-1.342-.242-.829-.462-1.166c-.206-.337-.492-.609-.858-.814-.352-.22-.792-.33-1.32-.33s-.968.11-1.32.33c-.352.205-.638.477-.858.814-.206.337-.352.726-.44 1.166s-.132.887-.132 1.342zm-3.124 0c0-.909.139-1.731.418-2.464.278-.748.674-1.379 1.188-1.892.513-.528 1.129-.931 1.848-1.21.718-.293 1.525-.44 2.42-.44.894 0 1.701.147 2.42.44.733.279 1.356.682 1.87 1.21.513.513.909 1.144 1.188 1.892.278.733.418 1.555.418 2.464s-.14 1.731-.418 2.464c-.279.733-.675 1.364-1.188 1.892-.514.513-1.137.909-1.87 1.188-.719.279-1.526.418-2.42.418-.895 0-1.702-.139-2.42-.418-.719-.279-1.335-.675-1.848-1.188-.514-.528-.91-1.159-1.188-1.892-.279-.733-.418-1.555-.418-2.464zm13.581-5.698h2.97v1.584h.066c.396-.66.909-1.137 1.54-1.43.631-.308 1.276-.462 1.936-.462.836 0 1.518.117 2.046.352.543.22.968.535 1.276.946.308.396.521.887.638 1.474.132.572.198 1.21.198 1.914v6.996h-3.124v-6.424c0-.939-.147-1.635-.44-2.09-.293-.469-.814-.704-1.562-.704-.851 0-1.467.257-1.848.77-.381.499-.572 1.327-.572 2.486v5.962h-3.124z" fill="#fff"/><path d="m190.5 424.5-8.5 8.5-8.5-8.5" stroke="#fff" stroke-width="3"/><path d="m182 73v360" stroke="#fff" stroke-width="3"/><path d="m235.725 9.358c-.088-.594-.286-1.133-.594-1.617-.308-.506-.693-.946-1.155-1.32s-.99-.66-1.584-.858c-.572-.22-1.177-.33-1.815-.33-1.166 0-2.156.231-2.97.693-.814.44-1.474 1.045-1.98 1.815-.506.748-.88 1.606-1.122 2.574-.22.968-.33 1.969-.33 3.003 0 .99.11 1.958.33 2.904.242.924.616 1.76 1.122 2.508s1.166 1.353 1.98 1.815c.814.44 1.804.66 2.97.66 1.584 0 2.816-.484 3.696-1.452.902-.968 1.452-2.244 1.65-3.828h5.016c-.132 1.474-.473 2.805-1.023 3.993s-1.276 2.2-2.178 3.036-1.958 1.474-3.168 1.914-2.541.66-3.993.66c-1.804 0-3.432-.308-4.884-.924-1.43-.638-2.64-1.507-3.63-2.607s-1.749-2.387-2.277-3.861c-.528-1.496-.792-3.102-.792-4.818 0-1.76.264-3.388.792-4.884.528-1.518 1.287-2.838 2.277-3.96s2.2-2.002 3.63-2.64c1.452-.638 3.08-.957 4.884-.957 1.298 0 2.519.187 3.663.561 1.166.374 2.2.924 3.102 1.65.924.704 1.683 1.584 2.277 2.64s.968 2.266 1.122 3.63zm12.085 7.128c0 .682.066 1.353.198 2.013.132.638.352 1.221.66 1.749.33.506.759.913 1.287 1.221s1.188.462 1.98.462 1.452-.154 1.98-.462c.55-.308.979-.715 1.287-1.221.33-.528.561-1.111.693-1.749.132-.66.198-1.331.198-2.013s-.066-1.353-.198-2.013-.363-1.243-.693-1.749c-.308-.506-.737-.913-1.287-1.221-.528-.33-1.188-.495-1.98-.495s-1.452.165-1.98.495c-.528.308-.957.715-1.287 1.221-.308.506-.528 1.089-.66 1.749s-.198 1.331-.198 2.013zm-4.686 0c0-1.364.209-2.596.627-3.696.418-1.122 1.012-2.068 1.782-2.838.77-.792 1.694-1.397 2.772-1.815 1.078-.44 2.288-.66 3.63-.66s2.552.22 3.63.66c1.1.418 2.035 1.023 2.805 1.815.77.77 1.364 1.716 1.782 2.838.418 1.1.627 2.332.627 3.696s-.209 2.596-.627 3.696-1.012 2.046-1.782 2.838c-.77.77-1.705 1.364-2.805 1.782-1.078.418-2.288.627-3.63.627s-2.552-.209-3.63-.627-2.002-1.012-2.772-1.782c-.77-.792-1.364-1.738-1.782-2.838s-.627-2.332-.627-3.696zm20.503-15.048h4.686v23.562h-4.686zm24.051 23.562h-4.455v-2.376h-.099c-.594.99-1.364 1.705-2.31 2.145s-1.914.66-2.904.66c-1.254 0-2.288-.165-3.102-.495-.792-.33-1.419-.792-1.881-1.386-.462-.616-.792-1.353-.99-2.211-.176-.88-.264-1.848-.264-2.904v-10.494h4.686v9.636c0 1.408.22 2.464.66 3.168.44.682 1.221 1.023 2.343 1.023 1.276 0 2.2-.374 2.772-1.122.572-.77.858-2.024.858-3.762v-8.943h4.686zm3.359-17.061h4.422v2.31h.066c.616-.88 1.353-1.562 2.211-2.046.88-.484 1.881-.726 3.003-.726 1.078 0 2.057.209 2.937.627.902.418 1.584 1.155 2.046 2.211.506-.748 1.188-1.408 2.046-1.98.88-.572 1.914-.858 3.102-.858.902 0 1.738.11 2.508.33s1.43.572 1.98 1.056.979 1.122 1.287 1.914c.308.77.462 1.705.462 2.805v11.418h-4.686v-9.669c0-.572-.022-1.111-.066-1.617s-.165-.946-.363-1.32-.495-.671-.891-.891c-.374-.22-.891-.33-1.551-.33s-1.199.132-1.617.396c-.396.242-.715.572-.957.99-.22.396-.374.858-.462 1.386-.066.506-.099 1.023-.099 1.551v9.504h-4.686v-9.57c0-.506-.011-1.001-.033-1.485-.022-.506-.121-.968-.297-1.386-.154-.418-.429-.748-.825-.99-.374-.264-.935-.396-1.683-.396-.22 0-.517.055-.891.165-.352.088-.704.275-1.056.561-.33.264-.616.66-.858 1.188-.242.506-.363 1.177-.363 2.013v9.9h-4.686zm29.444 0h4.455v2.376h.099c.594-.99 1.364-1.705 2.31-2.145.946-.462 1.914-.693 2.904-.693 1.254 0 2.277.176 3.069.528.814.33 1.452.803 1.914 1.419.462.594.781 1.331.957 2.211.198.858.297 1.815.297 2.871v10.494h-4.686v-9.636c0-1.408-.22-2.453-.66-3.135-.44-.704-1.221-1.056-2.343-1.056-1.276 0-2.2.385-2.772 1.155-.572.748-.858 1.991-.858 3.729v8.943h-4.686z" fill="#fff"/></svg>