<svg width="556" height="514" viewBox="0 0 556 514" fill="none" xmlns="http://www.w3.org/2000/svg">
<path d="M482 350V206" stroke="black" stroke-opacity="0.5" stroke-width="1.5" stroke-linecap="round"/>
<path d="M497.679 267.349C497.679 270.788 499.614 273.603 501.918 273.603C503.961 273.603 505.392 272.003 505.556 270.107C505.596 269.648 505.982 269.29 506.447 269.29C506.941 269.29 507.344 269.693 507.344 270.187C507.344 270.198 507.344 270.226 507.338 270.266C507.259 271.191 506.964 272.065 506.498 272.826C506.084 273.501 505.528 274.086 504.858 274.523C504.024 275.073 503.019 275.397 501.918 275.397C498.575 275.397 495.885 271.81 495.885 267.349C495.885 262.888 498.575 259.301 501.918 259.301C502.98 259.301 503.939 259.614 504.722 260.147C505.346 260.573 505.863 261.135 506.254 261.764C506.68 262.446 506.986 263.251 507.14 264.131C507.151 264.182 507.157 264.233 507.157 264.284C507.157 264.778 506.754 265.181 506.26 265.181C505.817 265.181 505.454 264.858 505.38 264.438C505.182 263.308 504.62 262.241 503.717 261.628C503.224 261.293 502.628 261.095 501.918 261.095C499.614 261.095 497.679 263.91 497.679 267.349ZM514.185 264.863C515.996 264.863 517.466 266.333 517.466 268.144V268.456C517.466 268.949 517.063 269.347 516.569 269.347C516.075 269.347 515.672 268.949 515.672 268.456V268.144C515.672 267.321 515.008 266.657 514.185 266.657C513.362 266.657 512.704 267.315 512.704 268.144C512.704 268.178 512.704 268.212 512.698 268.246V274.5C512.698 274.994 512.295 275.397 511.802 275.397C511.308 275.397 510.905 274.994 510.905 274.5V265.896C510.905 265.402 511.308 264.999 511.802 264.999C512.08 264.999 512.335 265.13 512.5 265.334C512.993 265.039 513.567 264.863 514.185 264.863ZM524.586 275.533C522.435 275.533 520.71 273.189 520.71 270.255C520.71 269.511 520.817 268.45 521.294 267.383C521.589 266.725 521.992 266.146 522.497 265.698C523.071 265.198 523.786 264.863 524.586 264.863C525.386 264.863 526.107 265.192 526.68 265.692C527.191 266.135 527.588 266.725 527.883 267.383C528.252 268.212 528.462 269.171 528.462 270.198C528.462 271.225 528.252 272.184 527.883 273.013C527.588 273.671 527.191 274.262 526.68 274.704C526.107 275.204 525.386 275.533 524.586 275.533ZM526.669 270.198C526.669 268.229 525.664 266.657 524.586 266.657C524.285 266.657 523.984 266.764 523.678 267.037C522.997 267.633 522.497 268.853 522.497 270.255C522.497 272.196 523.519 273.74 524.586 273.74C525.664 273.74 526.669 272.167 526.669 270.198ZM532.296 267.979C532.296 266.276 533.873 264.863 535.638 264.863C536.319 264.863 536.921 265.068 537.403 265.38C537.835 265.658 538.17 266.021 538.419 266.39C538.828 266.991 538.97 267.536 539.027 267.792C539.038 267.848 539.044 267.917 539.044 267.979C539.044 268.473 538.646 268.876 538.153 268.876C537.721 268.876 537.364 268.569 537.279 268.166C537.199 267.803 536.932 267.207 536.433 266.884C536.217 266.742 535.968 266.657 535.638 266.657C534.85 266.657 534.089 267.287 534.089 267.979C534.089 268.121 534.117 268.297 534.271 268.49C534.384 268.632 534.566 268.785 534.804 268.91C535.099 269.069 535.462 269.188 535.814 269.25C536.535 269.375 538.436 269.789 539.129 271.254C539.282 271.583 539.367 271.952 539.367 272.349C539.367 273.949 538.084 275.533 535.638 275.533C534.935 275.533 534.31 275.312 533.811 274.982C533.363 274.693 533.011 274.318 532.738 273.938C532.545 273.666 532.216 273.132 532.08 272.48C532.069 272.417 532.057 272.355 532.057 272.292C532.057 271.799 532.46 271.396 532.954 271.396C533.385 271.396 533.743 271.702 533.828 272.105C533.913 272.502 534.254 273.132 534.787 273.484C535.037 273.649 535.309 273.74 535.638 273.74C536.955 273.74 537.579 273.075 537.579 272.349C537.579 272.179 537.54 271.991 537.352 271.793C537.018 271.435 536.325 271.152 535.508 271.01C534.532 270.839 533.504 270.391 532.874 269.602C532.687 269.364 532.296 268.808 532.296 267.979ZM543.175 267.979C543.175 266.276 544.752 264.863 546.517 264.863C547.198 264.863 547.8 265.068 548.282 265.38C548.714 265.658 549.049 266.021 549.298 266.39C549.707 266.991 549.849 267.536 549.905 267.792C549.917 267.848 549.923 267.917 549.923 267.979C549.923 268.473 549.525 268.876 549.031 268.876C548.6 268.876 548.243 268.569 548.157 268.166C548.078 267.803 547.811 267.207 547.312 266.884C547.096 266.742 546.846 266.657 546.517 266.657C545.728 266.657 544.968 267.287 544.968 267.979C544.968 268.121 544.996 268.297 545.15 268.49C545.263 268.632 545.445 268.785 545.683 268.91C545.978 269.069 546.341 269.188 546.693 269.25C547.414 269.375 549.315 269.789 550.008 271.254C550.161 271.583 550.246 271.952 550.246 272.349C550.246 273.949 548.963 275.533 546.517 275.533C545.814 275.533 545.189 275.312 544.69 274.982C544.241 274.693 543.89 274.318 543.617 273.938C543.424 273.666 543.095 273.132 542.959 272.48C542.947 272.417 542.936 272.355 542.936 272.292C542.936 271.799 543.339 271.396 543.833 271.396C544.264 271.396 544.622 271.702 544.707 272.105C544.792 272.502 545.133 273.132 545.666 273.484C545.916 273.649 546.188 273.74 546.517 273.74C547.834 273.74 548.458 273.075 548.458 272.349C548.458 272.179 548.419 271.991 548.231 271.793C547.896 271.435 547.204 271.152 546.387 271.01C545.411 270.839 544.383 270.391 543.753 269.602C543.566 269.364 543.175 268.808 543.175 267.979ZM501.867 283.128L499.62 289.842H504.109L501.867 283.128ZM507.838 295.5C507.838 295.994 507.44 296.397 506.947 296.397C506.555 296.397 506.22 296.136 506.101 295.784L504.705 291.629H499.024L497.628 295.784C497.509 296.136 497.174 296.397 496.782 296.397C496.288 296.397 495.885 295.994 495.885 295.5C495.885 295.398 495.908 295.307 495.936 295.216L500.721 280.914C500.84 280.551 501.186 280.307 501.566 280.307L502.162 280.301C502.543 280.301 502.889 280.551 503.008 280.914L507.792 295.216C507.821 295.307 507.838 295.404 507.838 295.5ZM519.404 295.5C519.404 295.994 519.001 296.391 518.507 296.391C518.206 296.391 517.934 296.238 517.775 296.011L515.408 292.628L513.042 296.011C512.883 296.238 512.61 296.391 512.309 296.391C511.816 296.391 511.418 295.994 511.418 295.5C511.418 295.307 511.475 295.137 511.577 294.989L514.318 291.068L511.765 287.407C511.662 287.259 511.6 287.083 511.6 286.896C511.6 286.402 512.003 286.005 512.497 286.005C512.797 286.005 513.07 286.158 513.229 286.385C515.414 289.512 515.414 289.507 515.414 289.507L517.599 286.385C517.758 286.153 518.03 285.999 518.331 285.999C518.825 285.999 519.222 286.402 519.222 286.896C519.222 287.083 519.165 287.259 519.063 287.407L516.504 291.068L519.245 294.989C519.347 295.137 519.404 295.313 519.404 295.5ZM522.661 282.191C522.661 281.533 523.188 280.999 523.852 280.999C524.255 280.999 524.63 281.204 524.846 281.527C524.919 281.635 525.044 281.868 525.044 282.191C525.044 282.85 524.516 283.383 523.852 283.383C523.194 283.383 522.661 282.855 522.661 282.191ZM524.749 295.5C524.749 295.994 524.346 296.397 523.852 296.397C523.359 296.397 522.956 295.994 522.956 295.5V286.896C522.956 286.402 523.359 285.999 523.852 285.999C524.346 285.999 524.749 286.402 524.749 286.896V295.5ZM528.546 288.979C528.546 287.276 530.123 285.863 531.888 285.863C532.569 285.863 533.171 286.068 533.653 286.38C534.085 286.658 534.42 287.021 534.669 287.39C535.078 287.991 535.22 288.536 535.277 288.792C535.288 288.848 535.294 288.917 535.294 288.979C535.294 289.473 534.896 289.876 534.403 289.876C533.971 289.876 533.614 289.569 533.529 289.166C533.449 288.803 533.182 288.207 532.683 287.884C532.467 287.742 532.218 287.657 531.888 287.657C531.1 287.657 530.339 288.287 530.339 288.979C530.339 289.121 530.367 289.297 530.521 289.49C530.634 289.632 530.816 289.785 531.054 289.91C531.349 290.069 531.712 290.188 532.064 290.25C532.785 290.375 534.686 290.789 535.379 292.254C535.532 292.583 535.617 292.952 535.617 293.349C535.617 294.949 534.334 296.533 531.888 296.533C531.185 296.533 530.56 296.312 530.061 295.982C529.613 295.693 529.261 295.318 528.988 294.938C528.795 294.666 528.466 294.132 528.33 293.48C528.319 293.417 528.307 293.355 528.307 293.292C528.307 292.799 528.71 292.396 529.204 292.396C529.635 292.396 529.993 292.702 530.078 293.105C530.163 293.502 530.504 294.132 531.037 294.484C531.287 294.649 531.559 294.74 531.888 294.74C533.205 294.74 533.829 294.075 533.829 293.349C533.829 293.179 533.79 292.991 533.602 292.793C533.268 292.435 532.575 292.152 531.758 292.01C530.782 291.839 529.754 291.391 529.124 290.602C528.937 290.364 528.546 289.808 528.546 288.979Z" fill="black" fill-opacity="0.5"/>
<rect width="360" height="144" transform="translate(98 206)" fill="#FFD700"/>
<path opacity="0.5" d="M191.225 228.28V217.282C191.225 216.796 191.621 216.382 192.125 216.382H197.057C197.561 216.382 197.957 216.778 197.957 217.282C197.957 217.786 197.543 218.182 197.057 218.182H193.025V221.512H196.247C196.715 221.512 197.147 221.926 197.147 222.412C197.147 222.898 196.733 223.312 196.247 223.312H193.025V228.28C193.025 228.766 192.611 229.18 192.125 229.18C191.639 229.18 191.225 228.766 191.225 228.28ZM205.007 224.896L205.115 215.986C205.115 215.482 205.529 215.086 206.015 215.086C206.501 215.086 206.915 215.5 206.915 215.986L206.789 224.896C206.789 226.174 206.987 227.128 208.157 227.29C208.409 227.326 209.093 227.326 209.561 227.326C210.047 227.326 210.461 227.74 210.461 228.226C210.461 228.712 210.047 229.126 209.561 229.126C207.725 229.126 206.537 228.964 205.763 227.902C205.115 227.11 205.007 226.174 205.007 224.896ZM215.747 224.068C215.747 221.386 217.277 219.262 219.977 219.208H220.085C222.821 219.208 224.243 221.188 224.243 223.852C224.243 224.338 223.829 224.752 223.343 224.752H217.583C217.745 226.372 218.555 227.488 220.265 227.488C220.463 227.488 220.661 227.488 220.877 227.452C221.255 227.362 221.543 227.254 221.777 227.02C221.939 226.858 222.155 226.768 222.389 226.768C222.893 226.768 223.307 227.164 223.307 227.668C223.307 228.856 221.795 229.27 220.391 229.27C219.743 229.27 219.131 229.18 218.681 229.036C216.755 228.388 215.747 226.534 215.747 224.068ZM217.673 222.952H222.299C222.047 221.728 221.579 221.008 220.013 221.008C218.735 221.008 217.979 221.836 217.673 222.952ZM229.115 228.334C229.115 228.154 229.169 227.974 229.277 227.812L231.797 224.212L229.475 220.756C229.385 220.612 229.331 220.432 229.331 220.252C229.331 219.748 229.745 219.352 230.231 219.352C230.465 219.352 230.753 219.424 230.879 219.604L233.003 222.754L235.127 219.604C235.289 219.442 235.541 219.352 235.775 219.352C236.261 219.352 236.675 219.766 236.675 220.252C236.675 220.432 236.621 220.612 236.531 220.756L234.191 224.212L236.711 227.812C236.819 227.974 236.891 228.154 236.891 228.334C236.891 228.82 236.459 229.234 235.991 229.234C235.739 229.234 235.487 229.198 235.325 228.982L233.003 225.652L230.663 228.982C230.501 229.162 230.249 229.234 230.015 229.234C229.529 229.234 229.115 228.82 229.115 228.334ZM255.382 222.844V222.646C255.382 219.352 256.3 216.202 259.504 216.112C261.106 216.112 262.366 217.066 262.672 218.434V218.614C262.672 219.1 262.276 219.514 261.79 219.514C260.908 219.514 261.034 218.578 260.53 218.2C260.242 217.984 259.9 217.912 259.54 217.912C257.56 218.038 257.182 220.378 257.182 222.484V222.808C257.218 224.86 257.47 227.434 259.63 227.434C260.278 227.434 260.8 227.128 260.908 226.57C260.98 226.174 261.358 225.832 261.79 225.832C262.276 225.832 262.672 226.246 262.672 226.732V226.894C262.438 228.262 261.214 229.234 259.63 229.234C256.3 229.234 255.418 226.066 255.382 222.844ZM267.526 224.266C267.526 221.422 269.092 219.208 272.026 219.208C274.87 219.208 276.526 221.422 276.526 224.266C276.526 227.074 274.906 229.288 272.026 229.288C269.128 229.288 267.526 227.11 267.526 224.266ZM269.326 224.266C269.326 226.048 270.172 227.488 272.026 227.488C273.88 227.488 274.726 226.048 274.726 224.266C274.726 222.466 273.844 221.008 272.026 221.008C270.19 221.008 269.326 222.484 269.326 224.266ZM280.786 228.334V220.252C280.786 219.766 281.2 219.37 281.686 219.37C282.172 219.37 282.586 219.766 282.586 220.252V220.414C283.342 219.748 284.314 219.298 285.538 219.298C288.238 219.298 289.282 221.17 289.282 223.852V228.334C289.282 228.82 288.85 229.234 288.382 229.234C287.896 229.234 287.482 228.838 287.482 228.334V223.852C287.482 222.232 287.176 221.098 285.538 221.098C284.008 221.098 283.036 222.376 282.586 223.528V228.334C282.586 228.82 282.172 229.234 281.686 229.234C281.2 229.234 280.786 228.82 280.786 228.334ZM293.794 220.414C293.794 219.928 294.208 219.514 294.694 219.514H296.08L296.116 217.696C296.116 217.174 296.512 216.796 297.016 216.796C297.52 216.796 297.916 217.21 297.916 217.696L297.88 219.514H300.562C301.048 219.514 301.462 219.928 301.462 220.414C301.462 220.9 301.048 221.314 300.562 221.314H297.844L297.79 225.418C297.79 226.624 297.79 227.434 299.032 227.434C299.428 227.416 299.824 227.326 300.166 227.164C300.292 227.11 300.418 227.074 300.562 227.074C301.048 227.074 301.462 227.488 301.462 227.974C301.462 228.892 300.256 229.234 299.14 229.234C298.6 229.234 298.06 229.144 297.718 229.018C296.404 228.514 295.99 227.308 295.99 225.598V225.382L296.044 221.314H294.694C294.208 221.314 293.794 220.9 293.794 220.414ZM306.802 226.228C306.802 223.132 309.952 222.916 313.084 222.898C313.03 222.358 312.94 221.8 312.544 221.44C312.148 221.062 311.59 221.008 311.05 221.008C310.33 221.008 309.646 221.242 309.088 221.692C308.926 221.818 308.728 221.872 308.53 221.872C308.026 221.872 307.63 221.476 307.63 220.972C307.63 220.72 307.756 220.378 307.972 220.27C308.854 219.586 309.934 219.208 311.05 219.208C312.04 219.208 313.048 219.442 313.768 220.108C314.488 220.792 314.884 221.764 314.884 222.754V228.334C314.884 228.82 314.47 229.234 313.984 229.234C313.498 229.234 313.084 228.838 313.084 228.334V228.19C312.31 228.82 311.356 229.288 310.204 229.288H309.952C308.44 229.162 306.802 228.028 306.802 226.228ZM308.602 226.228C308.602 227.002 309.466 227.452 310.078 227.488H310.222C311.572 227.488 312.508 226.336 313.084 225.4V224.68C312.688 224.662 312.274 224.644 311.842 224.644C310.222 224.644 308.602 224.878 308.602 226.228ZM320.781 220.468C320.781 219.982 321.177 219.568 321.681 219.568H324.921C325.425 219.568 325.821 219.964 325.821 220.468V228.334C325.821 228.838 325.407 229.234 324.921 229.234C324.435 229.234 324.021 228.82 324.021 228.334V221.368H321.681C321.195 221.368 320.781 220.954 320.781 220.468ZM323.265 216.814V215.986C323.265 215.482 323.679 215.086 324.165 215.086H324.975C325.461 215.086 325.875 215.482 325.875 215.986V216.814C325.875 217.318 325.461 217.714 324.975 217.714H324.165C323.679 217.714 323.265 217.318 323.265 216.814ZM332.817 228.334V220.252C332.817 219.766 333.231 219.37 333.717 219.37C334.203 219.37 334.617 219.766 334.617 220.252V220.414C335.373 219.748 336.345 219.298 337.569 219.298C340.269 219.298 341.313 221.17 341.313 223.852V228.334C341.313 228.82 340.881 229.234 340.413 229.234C339.927 229.234 339.513 228.838 339.513 228.334V223.852C339.513 222.232 339.207 221.098 337.569 221.098C336.039 221.098 335.067 222.376 334.617 223.528V228.334C334.617 228.82 334.203 229.234 333.717 229.234C333.231 229.234 332.817 228.82 332.817 228.334ZM345.825 224.068C345.825 221.386 347.355 219.262 350.055 219.208H350.163C352.899 219.208 354.321 221.188 354.321 223.852C354.321 224.338 353.907 224.752 353.421 224.752H347.661C347.823 226.372 348.633 227.488 350.343 227.488C350.541 227.488 350.739 227.488 350.955 227.452C351.333 227.362 351.621 227.254 351.855 227.02C352.017 226.858 352.233 226.768 352.467 226.768C352.971 226.768 353.385 227.164 353.385 227.668C353.385 228.856 351.873 229.27 350.469 229.27C349.821 229.27 349.209 229.18 348.759 229.036C346.833 228.388 345.825 226.534 345.825 224.068ZM347.751 222.952H352.377C352.125 221.728 351.657 221.008 350.091 221.008C348.813 221.008 348.057 221.836 347.751 222.952ZM360.219 228.334V220.252C360.219 219.766 360.633 219.37 361.119 219.37C361.623 219.37 362.019 219.748 362.019 220.252C362.685 219.658 363.549 219.298 364.629 219.298C366.213 219.298 367.257 220.432 367.275 221.8C367.275 222.286 366.861 222.7 366.375 222.7C365.889 222.7 365.475 222.304 365.475 221.8C365.457 221.476 365.241 221.224 364.917 221.152C364.827 221.152 364.719 221.098 364.629 221.098C364.503 221.098 364.377 221.152 364.251 221.152C362.811 221.35 362.019 222.952 362.019 224.302V228.334C362.019 228.838 361.605 229.234 361.119 229.234C360.633 229.234 360.219 228.82 360.219 228.334Z" fill="black"/>
<mask id="path-4-inside-1_392_2" fill="white">
<path d="M134 242H206V314H134V242Z"/>
</mask>
<path d="M134 242H206V314H134V242Z" fill="black"/>
<path d="M134 242H206V314H134V242Z" fill="#FF6347"/>
<path d="M206 314V316H208V314H206ZM206 242H204V314H206H208V242H206ZM206 314V312H134V314V316H206V314Z" fill="#B22222" mask="url(#path-4-inside-1_392_2)"/>
<path opacity="0.5" d="M147.764 269.28V258.282C147.764 257.796 148.16 257.382 148.664 257.382H153.596C154.1 257.382 154.496 257.778 154.496 258.282C154.496 258.786 154.082 259.182 153.596 259.182H149.564V262.512H152.786C153.254 262.512 153.686 262.926 153.686 263.412C153.686 263.898 153.272 264.312 152.786 264.312H149.564V269.28C149.564 269.766 149.15 270.18 148.664 270.18C148.178 270.18 147.764 269.766 147.764 269.28ZM161.546 265.896L161.654 256.986C161.654 256.482 162.068 256.086 162.554 256.086C163.04 256.086 163.454 256.5 163.454 256.986L163.328 265.896C163.328 267.174 163.526 268.128 164.696 268.29C164.948 268.326 165.632 268.326 166.1 268.326C166.586 268.326 167 268.74 167 269.226C167 269.712 166.586 270.126 166.1 270.126C164.264 270.126 163.076 269.964 162.302 268.902C161.654 268.11 161.546 267.174 161.546 265.896ZM172.286 265.068C172.286 262.386 173.816 260.262 176.516 260.208H176.624C179.36 260.208 180.782 262.188 180.782 264.852C180.782 265.338 180.368 265.752 179.882 265.752H174.122C174.284 267.372 175.094 268.488 176.804 268.488C177.002 268.488 177.2 268.488 177.416 268.452C177.794 268.362 178.082 268.254 178.316 268.02C178.478 267.858 178.694 267.768 178.928 267.768C179.432 267.768 179.846 268.164 179.846 268.668C179.846 269.856 178.334 270.27 176.93 270.27C176.282 270.27 175.67 270.18 175.22 270.036C173.294 269.388 172.286 267.534 172.286 265.068ZM174.212 263.952H178.838C178.586 262.728 178.118 262.008 176.552 262.008C175.274 262.008 174.518 262.836 174.212 263.952ZM185.654 269.334C185.654 269.154 185.708 268.974 185.816 268.812L188.336 265.212L186.014 261.756C185.924 261.612 185.87 261.432 185.87 261.252C185.87 260.748 186.284 260.352 186.77 260.352C187.004 260.352 187.292 260.424 187.418 260.604L189.542 263.754L191.666 260.604C191.828 260.442 192.08 260.352 192.314 260.352C192.8 260.352 193.214 260.766 193.214 261.252C193.214 261.432 193.16 261.612 193.07 261.756L190.73 265.212L193.25 268.812C193.358 268.974 193.43 269.154 193.43 269.334C193.43 269.82 192.998 270.234 192.53 270.234C192.278 270.234 192.026 270.198 191.864 269.982L189.542 266.652L187.202 269.982C187.04 270.162 186.788 270.234 186.554 270.234C186.068 270.234 185.654 269.82 185.654 269.334ZM147.044 294.082C147.044 293.596 147.44 293.182 147.944 293.182H149.618V284.182H148.304C147.818 284.182 147.404 283.768 147.404 283.282C147.404 282.796 147.8 282.382 148.304 282.382H152.732C153.236 282.382 153.632 282.796 153.632 283.282C153.632 283.768 153.218 284.182 152.732 284.182H151.418V293.182H153.092C153.596 293.182 153.992 293.596 153.992 294.082C153.992 294.568 153.578 294.982 153.092 294.982H147.944C147.458 294.982 147.044 294.568 147.044 294.082ZM159.278 286.414C159.278 285.928 159.692 285.514 160.178 285.514H161.564L161.6 283.696C161.6 283.174 161.996 282.796 162.5 282.796C163.004 282.796 163.4 283.21 163.4 283.696L163.364 285.514H166.046C166.532 285.514 166.946 285.928 166.946 286.414C166.946 286.9 166.532 287.314 166.046 287.314H163.328L163.274 291.418C163.274 292.624 163.274 293.434 164.516 293.434C164.912 293.416 165.308 293.326 165.65 293.164C165.776 293.11 165.902 293.074 166.046 293.074C166.532 293.074 166.946 293.488 166.946 293.974C166.946 294.892 165.74 295.234 164.624 295.234C164.084 295.234 163.544 295.144 163.202 295.018C161.888 294.514 161.474 293.308 161.474 291.598V291.382L161.528 287.314H160.178C159.692 287.314 159.278 286.9 159.278 286.414ZM172.286 290.068C172.286 287.386 173.816 285.262 176.516 285.208H176.624C179.36 285.208 180.782 287.188 180.782 289.852C180.782 290.338 180.368 290.752 179.882 290.752H174.122C174.284 292.372 175.094 293.488 176.804 293.488C177.002 293.488 177.2 293.488 177.416 293.452C177.794 293.362 178.082 293.254 178.316 293.02C178.478 292.858 178.694 292.768 178.928 292.768C179.432 292.768 179.846 293.164 179.846 293.668C179.846 294.856 178.334 295.27 176.93 295.27C176.282 295.27 175.67 295.18 175.22 295.036C173.294 294.388 172.286 292.534 172.286 290.068ZM174.212 288.952H178.838C178.586 287.728 178.118 287.008 176.552 287.008C175.274 287.008 174.518 287.836 174.212 288.952ZM185.042 294.334V286.252C185.042 285.748 185.456 285.352 185.942 285.352C186.248 285.352 186.518 285.514 186.68 285.766C187.076 285.478 187.544 285.298 188.102 285.298C188.84 285.298 189.47 285.64 189.884 286.144C190.352 285.64 190.982 285.298 191.702 285.298C193.07 285.298 194.042 286.468 194.042 287.728V294.334C194.042 294.82 193.628 295.234 193.142 295.234C192.656 295.234 192.242 294.838 192.242 294.334V287.872C192.224 287.548 192.098 287.098 191.702 287.098C190.928 287.098 190.442 288.61 190.442 289.33V294.334C190.442 294.82 190.028 295.234 189.542 295.234C189.056 295.234 188.642 294.838 188.642 294.334V287.872C188.624 287.548 188.498 287.098 188.102 287.098C187.31 287.098 186.896 288.628 186.842 289.33V294.334C186.842 294.82 186.428 295.234 185.942 295.234C185.456 295.234 185.042 294.838 185.042 294.334Z" fill="black"/>
<mask id="path-7-inside-2_392_2" fill="white">
<path d="M242 242H314V314H242V242Z"/>
</mask>
<path d="M242 242H314V314H242V242Z" fill="black"/>
<path d="M242 242H314V314H242V242Z" fill="#FF6347"/>
<path d="M314 314V316H316V314H314ZM314 242H312V314H314H316V242H314ZM314 314V312H242V314V316H314V314Z" fill="#B22222" mask="url(#path-7-inside-2_392_2)"/>
<path opacity="0.5" d="M255.764 269.28V258.282C255.764 257.796 256.16 257.382 256.664 257.382H261.596C262.1 257.382 262.496 257.778 262.496 258.282C262.496 258.786 262.082 259.182 261.596 259.182H257.564V262.512H260.786C261.254 262.512 261.686 262.926 261.686 263.412C261.686 263.898 261.272 264.312 260.786 264.312H257.564V269.28C257.564 269.766 257.15 270.18 256.664 270.18C256.178 270.18 255.764 269.766 255.764 269.28ZM269.546 265.896L269.654 256.986C269.654 256.482 270.068 256.086 270.554 256.086C271.04 256.086 271.454 256.5 271.454 256.986L271.328 265.896C271.328 267.174 271.526 268.128 272.696 268.29C272.948 268.326 273.632 268.326 274.1 268.326C274.586 268.326 275 268.74 275 269.226C275 269.712 274.586 270.126 274.1 270.126C272.264 270.126 271.076 269.964 270.302 268.902C269.654 268.11 269.546 267.174 269.546 265.896ZM280.286 265.068C280.286 262.386 281.816 260.262 284.516 260.208H284.624C287.36 260.208 288.782 262.188 288.782 264.852C288.782 265.338 288.368 265.752 287.882 265.752H282.122C282.284 267.372 283.094 268.488 284.804 268.488C285.002 268.488 285.2 268.488 285.416 268.452C285.794 268.362 286.082 268.254 286.316 268.02C286.478 267.858 286.694 267.768 286.928 267.768C287.432 267.768 287.846 268.164 287.846 268.668C287.846 269.856 286.334 270.27 284.93 270.27C284.282 270.27 283.67 270.18 283.22 270.036C281.294 269.388 280.286 267.534 280.286 265.068ZM282.212 263.952H286.838C286.586 262.728 286.118 262.008 284.552 262.008C283.274 262.008 282.518 262.836 282.212 263.952ZM293.654 269.334C293.654 269.154 293.708 268.974 293.816 268.812L296.336 265.212L294.014 261.756C293.924 261.612 293.87 261.432 293.87 261.252C293.87 260.748 294.284 260.352 294.77 260.352C295.004 260.352 295.292 260.424 295.418 260.604L297.542 263.754L299.666 260.604C299.828 260.442 300.08 260.352 300.314 260.352C300.8 260.352 301.214 260.766 301.214 261.252C301.214 261.432 301.16 261.612 301.07 261.756L298.73 265.212L301.25 268.812C301.358 268.974 301.43 269.154 301.43 269.334C301.43 269.82 300.998 270.234 300.53 270.234C300.278 270.234 300.026 270.198 299.864 269.982L297.542 266.652L295.202 269.982C295.04 270.162 294.788 270.234 294.554 270.234C294.068 270.234 293.654 269.82 293.654 269.334ZM255.044 294.082C255.044 293.596 255.44 293.182 255.944 293.182H257.618V284.182H256.304C255.818 284.182 255.404 283.768 255.404 283.282C255.404 282.796 255.8 282.382 256.304 282.382H260.732C261.236 282.382 261.632 282.796 261.632 283.282C261.632 283.768 261.218 284.182 260.732 284.182H259.418V293.182H261.092C261.596 293.182 261.992 293.596 261.992 294.082C261.992 294.568 261.578 294.982 261.092 294.982H255.944C255.458 294.982 255.044 294.568 255.044 294.082ZM267.278 286.414C267.278 285.928 267.692 285.514 268.178 285.514H269.564L269.6 283.696C269.6 283.174 269.996 282.796 270.5 282.796C271.004 282.796 271.4 283.21 271.4 283.696L271.364 285.514H274.046C274.532 285.514 274.946 285.928 274.946 286.414C274.946 286.9 274.532 287.314 274.046 287.314H271.328L271.274 291.418C271.274 292.624 271.274 293.434 272.516 293.434C272.912 293.416 273.308 293.326 273.65 293.164C273.776 293.11 273.902 293.074 274.046 293.074C274.532 293.074 274.946 293.488 274.946 293.974C274.946 294.892 273.74 295.234 272.624 295.234C272.084 295.234 271.544 295.144 271.202 295.018C269.888 294.514 269.474 293.308 269.474 291.598V291.382L269.528 287.314H268.178C267.692 287.314 267.278 286.9 267.278 286.414ZM280.286 290.068C280.286 287.386 281.816 285.262 284.516 285.208H284.624C287.36 285.208 288.782 287.188 288.782 289.852C288.782 290.338 288.368 290.752 287.882 290.752H282.122C282.284 292.372 283.094 293.488 284.804 293.488C285.002 293.488 285.2 293.488 285.416 293.452C285.794 293.362 286.082 293.254 286.316 293.02C286.478 292.858 286.694 292.768 286.928 292.768C287.432 292.768 287.846 293.164 287.846 293.668C287.846 294.856 286.334 295.27 284.93 295.27C284.282 295.27 283.67 295.18 283.22 295.036C281.294 294.388 280.286 292.534 280.286 290.068ZM282.212 288.952H286.838C286.586 287.728 286.118 287.008 284.552 287.008C283.274 287.008 282.518 287.836 282.212 288.952ZM293.042 294.334V286.252C293.042 285.748 293.456 285.352 293.942 285.352C294.248 285.352 294.518 285.514 294.68 285.766C295.076 285.478 295.544 285.298 296.102 285.298C296.84 285.298 297.47 285.64 297.884 286.144C298.352 285.64 298.982 285.298 299.702 285.298C301.07 285.298 302.042 286.468 302.042 287.728V294.334C302.042 294.82 301.628 295.234 301.142 295.234C300.656 295.234 300.242 294.838 300.242 294.334V287.872C300.224 287.548 300.098 287.098 299.702 287.098C298.928 287.098 298.442 288.61 298.442 289.33V294.334C298.442 294.82 298.028 295.234 297.542 295.234C297.056 295.234 296.642 294.838 296.642 294.334V287.872C296.624 287.548 296.498 287.098 296.102 287.098C295.31 287.098 294.896 288.628 294.842 289.33V294.334C294.842 294.82 294.428 295.234 293.942 295.234C293.456 295.234 293.042 294.838 293.042 294.334Z" fill="black"/>
<mask id="path-10-inside-3_392_2" fill="white">
<path d="M350 242H422V314H350V242Z"/>
</mask>
<path d="M350 242H422V314H350V242Z" fill="black"/>
<path d="M350 242H422V314H350V242Z" fill="#FF6347"/>
<path d="M422 314V316H424V314H422ZM422 242H420V314H422H424V242H422ZM422 314V312H350V314V316H422V314Z" fill="#B22222" mask="url(#path-10-inside-3_392_2)"/>
<path opacity="0.5" d="M363.764 269.28V258.282C363.764 257.796 364.16 257.382 364.664 257.382H369.596C370.1 257.382 370.496 257.778 370.496 258.282C370.496 258.786 370.082 259.182 369.596 259.182H365.564V262.512H368.786C369.254 262.512 369.686 262.926 369.686 263.412C369.686 263.898 369.272 264.312 368.786 264.312H365.564V269.28C365.564 269.766 365.15 270.18 364.664 270.18C364.178 270.18 363.764 269.766 363.764 269.28ZM377.546 265.896L377.654 256.986C377.654 256.482 378.068 256.086 378.554 256.086C379.04 256.086 379.454 256.5 379.454 256.986L379.328 265.896C379.328 267.174 379.526 268.128 380.696 268.29C380.948 268.326 381.632 268.326 382.1 268.326C382.586 268.326 383 268.74 383 269.226C383 269.712 382.586 270.126 382.1 270.126C380.264 270.126 379.076 269.964 378.302 268.902C377.654 268.11 377.546 267.174 377.546 265.896ZM388.286 265.068C388.286 262.386 389.816 260.262 392.516 260.208H392.624C395.36 260.208 396.782 262.188 396.782 264.852C396.782 265.338 396.368 265.752 395.882 265.752H390.122C390.284 267.372 391.094 268.488 392.804 268.488C393.002 268.488 393.2 268.488 393.416 268.452C393.794 268.362 394.082 268.254 394.316 268.02C394.478 267.858 394.694 267.768 394.928 267.768C395.432 267.768 395.846 268.164 395.846 268.668C395.846 269.856 394.334 270.27 392.93 270.27C392.282 270.27 391.67 270.18 391.22 270.036C389.294 269.388 388.286 267.534 388.286 265.068ZM390.212 263.952H394.838C394.586 262.728 394.118 262.008 392.552 262.008C391.274 262.008 390.518 262.836 390.212 263.952ZM401.654 269.334C401.654 269.154 401.708 268.974 401.816 268.812L404.336 265.212L402.014 261.756C401.924 261.612 401.87 261.432 401.87 261.252C401.87 260.748 402.284 260.352 402.77 260.352C403.004 260.352 403.292 260.424 403.418 260.604L405.542 263.754L407.666 260.604C407.828 260.442 408.08 260.352 408.314 260.352C408.8 260.352 409.214 260.766 409.214 261.252C409.214 261.432 409.16 261.612 409.07 261.756L406.73 265.212L409.25 268.812C409.358 268.974 409.43 269.154 409.43 269.334C409.43 269.82 408.998 270.234 408.53 270.234C408.278 270.234 408.026 270.198 407.864 269.982L405.542 266.652L403.202 269.982C403.04 270.162 402.788 270.234 402.554 270.234C402.068 270.234 401.654 269.82 401.654 269.334ZM363.044 294.082C363.044 293.596 363.44 293.182 363.944 293.182H365.618V284.182H364.304C363.818 284.182 363.404 283.768 363.404 283.282C363.404 282.796 363.8 282.382 364.304 282.382H368.732C369.236 282.382 369.632 282.796 369.632 283.282C369.632 283.768 369.218 284.182 368.732 284.182H367.418V293.182H369.092C369.596 293.182 369.992 293.596 369.992 294.082C369.992 294.568 369.578 294.982 369.092 294.982H363.944C363.458 294.982 363.044 294.568 363.044 294.082ZM375.278 286.414C375.278 285.928 375.692 285.514 376.178 285.514H377.564L377.6 283.696C377.6 283.174 377.996 282.796 378.5 282.796C379.004 282.796 379.4 283.21 379.4 283.696L379.364 285.514H382.046C382.532 285.514 382.946 285.928 382.946 286.414C382.946 286.9 382.532 287.314 382.046 287.314H379.328L379.274 291.418C379.274 292.624 379.274 293.434 380.516 293.434C380.912 293.416 381.308 293.326 381.65 293.164C381.776 293.11 381.902 293.074 382.046 293.074C382.532 293.074 382.946 293.488 382.946 293.974C382.946 294.892 381.74 295.234 380.624 295.234C380.084 295.234 379.544 295.144 379.202 295.018C377.888 294.514 377.474 293.308 377.474 291.598V291.382L377.528 287.314H376.178C375.692 287.314 375.278 286.9 375.278 286.414ZM388.286 290.068C388.286 287.386 389.816 285.262 392.516 285.208H392.624C395.36 285.208 396.782 287.188 396.782 289.852C396.782 290.338 396.368 290.752 395.882 290.752H390.122C390.284 292.372 391.094 293.488 392.804 293.488C393.002 293.488 393.2 293.488 393.416 293.452C393.794 293.362 394.082 293.254 394.316 293.02C394.478 292.858 394.694 292.768 394.928 292.768C395.432 292.768 395.846 293.164 395.846 293.668C395.846 294.856 394.334 295.27 392.93 295.27C392.282 295.27 391.67 295.18 391.22 295.036C389.294 294.388 388.286 292.534 388.286 290.068ZM390.212 288.952H394.838C394.586 287.728 394.118 287.008 392.552 287.008C391.274 287.008 390.518 287.836 390.212 288.952ZM401.042 294.334V286.252C401.042 285.748 401.456 285.352 401.942 285.352C402.248 285.352 402.518 285.514 402.68 285.766C403.076 285.478 403.544 285.298 404.102 285.298C404.84 285.298 405.47 285.64 405.884 286.144C406.352 285.64 406.982 285.298 407.702 285.298C409.07 285.298 410.042 286.468 410.042 287.728V294.334C410.042 294.82 409.628 295.234 409.142 295.234C408.656 295.234 408.242 294.838 408.242 294.334V287.872C408.224 287.548 408.098 287.098 407.702 287.098C406.928 287.098 406.442 288.61 406.442 289.33V294.334C406.442 294.82 406.028 295.234 405.542 295.234C405.056 295.234 404.642 294.838 404.642 294.334V287.872C404.624 287.548 404.498 287.098 404.102 287.098C403.31 287.098 402.896 288.628 402.842 289.33V294.334C402.842 294.82 402.428 295.234 401.942 295.234C401.456 295.234 401.042 294.838 401.042 294.334Z" fill="black"/>
<path d="M98 374H458" stroke="black" stroke-opacity="0.5" stroke-width="1.5" stroke-linecap="round"/>
<path d="M242.265 396.897C241.771 396.897 241.368 396.494 241.368 396V385.319L237.69 395.989C237.566 396.346 237.225 396.59 236.845 396.59H236.544C236.164 396.59 235.829 396.346 235.704 395.989L232.026 385.308V396C232.026 396.494 231.623 396.897 231.13 396.897C230.636 396.897 230.233 396.494 230.233 396V381.698C230.233 381.204 230.636 380.801 231.13 380.801H231.726C232.106 380.801 232.446 381.051 232.571 381.409L236.697 393.389L240.823 381.409C240.948 381.051 241.289 380.807 241.669 380.807L242.259 380.801C242.753 380.801 243.15 381.204 243.15 381.698L243.156 396C243.156 396.494 242.759 396.897 242.265 396.897ZM252.086 389.757C252.086 388.963 251.451 388.157 250.338 388.157C249.18 388.157 248.851 388.616 248.715 388.849C248.624 389.002 248.545 389.201 248.488 389.451C248.397 389.854 248.04 390.154 247.614 390.154C247.12 390.154 246.717 389.751 246.717 389.258C246.717 389.19 246.723 389.127 246.74 389.065C246.91 388.299 247.535 386.363 250.338 386.363C252.404 386.363 253.868 387.941 253.868 389.757V391.028C253.868 391.045 253.874 391.068 253.874 391.085C253.874 394.411 253.868 394.411 253.868 394.411C253.868 394.547 253.88 395.024 254.022 395.24C254.305 395.234 254.629 395.183 254.629 395.183C254.663 395.177 254.703 395.171 254.765 395.171C255.259 395.171 255.662 395.574 255.662 396.068C255.662 396.516 255.333 396.885 254.901 396.953C254.879 396.959 254.425 397.033 253.942 397.033C253.687 397.033 253.119 396.959 252.654 396.392C251.961 396.834 251.099 397.01 250.395 397.01C249.839 397.01 249.249 396.919 248.681 396.715C248.233 396.551 247.784 396.312 247.415 395.932C247.092 395.597 246.717 395.035 246.717 394.212C246.717 393.565 246.859 392.351 248.148 391.443C248.761 391.011 249.515 390.728 250.344 390.506C250.838 390.376 251.411 390.285 252.081 390.234C252.081 389.939 252.086 389.757 252.086 389.757ZM248.511 394.212C248.511 394.428 248.585 394.57 248.698 394.689C249.022 395.024 249.725 395.217 250.395 395.217C250.673 395.217 251.036 395.171 251.337 395.058C252.075 394.785 252.075 394.365 252.075 394.212C252.075 394.212 252.081 393.128 252.081 392.027C251.678 392.061 251.207 392.124 250.809 392.232C248.936 392.731 248.511 393.35 248.511 394.212ZM258.336 382.691C258.336 382.033 258.864 381.499 259.528 381.499C259.931 381.499 260.306 381.704 260.521 382.027C260.595 382.135 260.72 382.368 260.72 382.691C260.72 383.35 260.192 383.883 259.528 383.883C258.87 383.883 258.336 383.355 258.336 382.691ZM260.425 396C260.425 396.494 260.022 396.897 259.528 396.897C259.034 396.897 258.631 396.494 258.631 396V387.396C258.631 386.902 259.034 386.499 259.528 386.499C260.022 386.499 260.425 386.902 260.425 387.396V396ZM263.983 387.396C263.983 386.902 264.386 386.499 264.88 386.499C265.198 386.499 265.481 386.67 265.64 386.925C266.196 386.573 266.849 386.363 267.558 386.363C269.534 386.363 271.134 387.964 271.134 389.939V396C271.134 396.494 270.731 396.897 270.237 396.897C269.744 396.897 269.341 396.494 269.341 396V389.939C269.341 388.951 268.546 388.157 267.558 388.157C266.571 388.157 265.776 388.946 265.776 389.939L265.771 396C265.771 396.494 265.373 396.897 264.88 396.897C264.386 396.897 263.983 396.494 263.983 396V387.396ZM290.219 383.628L287.971 390.342H292.461L290.219 383.628ZM296.189 396C296.189 396.494 295.792 396.897 295.298 396.897C294.907 396.897 294.572 396.636 294.453 396.284L293.056 392.129H287.375L285.979 396.284C285.86 396.636 285.525 396.897 285.134 396.897C284.64 396.897 284.237 396.494 284.237 396C284.237 395.898 284.26 395.807 284.288 395.716L289.072 381.414C289.192 381.051 289.538 380.807 289.918 380.807L290.514 380.801C290.894 380.801 291.24 381.051 291.36 381.414L296.144 395.716C296.172 395.807 296.189 395.904 296.189 396ZM307.755 396C307.755 396.494 307.352 396.891 306.858 396.891C306.558 396.891 306.285 396.738 306.126 396.511L303.76 393.128L301.393 396.511C301.234 396.738 300.962 396.891 300.661 396.891C300.167 396.891 299.77 396.494 299.77 396C299.77 395.807 299.827 395.637 299.929 395.489L302.67 391.568L300.116 387.907C300.014 387.759 299.952 387.583 299.952 387.396C299.952 386.902 300.355 386.505 300.848 386.505C301.149 386.505 301.421 386.658 301.58 386.885C303.765 390.012 303.765 390.007 303.765 390.007L305.95 386.885C306.109 386.653 306.382 386.499 306.683 386.499C307.176 386.499 307.574 386.902 307.574 387.396C307.574 387.583 307.517 387.759 307.415 387.907L304.855 391.568L307.596 395.489C307.698 395.637 307.755 395.813 307.755 396ZM311.012 382.691C311.012 382.033 311.54 381.499 312.204 381.499C312.607 381.499 312.981 381.704 313.197 382.027C313.271 382.135 313.396 382.368 313.396 382.691C313.396 383.35 312.868 383.883 312.204 383.883C311.546 383.883 311.012 383.355 311.012 382.691ZM313.101 396C313.101 396.494 312.698 396.897 312.204 396.897C311.71 396.897 311.307 396.494 311.307 396V387.396C311.307 386.902 311.71 386.499 312.204 386.499C312.698 386.499 313.101 386.902 313.101 387.396V396ZM316.897 389.479C316.897 387.776 318.475 386.363 320.24 386.363C320.921 386.363 321.523 386.568 322.005 386.88C322.436 387.158 322.771 387.521 323.021 387.89C323.43 388.491 323.571 389.036 323.628 389.292C323.639 389.348 323.645 389.417 323.645 389.479C323.645 389.973 323.248 390.376 322.754 390.376C322.323 390.376 321.965 390.069 321.88 389.666C321.801 389.303 321.534 388.707 321.035 388.384C320.819 388.242 320.569 388.157 320.24 388.157C319.451 388.157 318.691 388.787 318.691 389.479C318.691 389.621 318.719 389.797 318.872 389.99C318.986 390.132 319.167 390.285 319.406 390.41C319.701 390.569 320.064 390.688 320.416 390.75C321.137 390.875 323.038 391.289 323.73 392.754C323.884 393.083 323.969 393.452 323.969 393.849C323.969 395.449 322.686 397.033 320.24 397.033C319.536 397.033 318.912 396.812 318.412 396.482C317.964 396.193 317.612 395.818 317.34 395.438C317.147 395.166 316.818 394.632 316.681 393.98C316.67 393.917 316.659 393.855 316.659 393.792C316.659 393.299 317.062 392.896 317.556 392.896C317.987 392.896 318.344 393.202 318.43 393.605C318.515 394.002 318.855 394.632 319.389 394.984C319.638 395.149 319.911 395.24 320.24 395.24C321.557 395.24 322.181 394.575 322.181 393.849C322.181 393.679 322.141 393.491 321.954 393.293C321.619 392.935 320.927 392.652 320.109 392.51C319.133 392.339 318.106 391.891 317.476 391.102C317.289 390.864 316.897 390.308 316.897 389.479Z" fill="black" fill-opacity="0.5"/>
<path d="M183.059 155.698C183.059 155.034 183.598 154.506 184.251 154.506H193.116C193.774 154.506 194.308 155.04 194.308 155.698V155.704C194.308 156.362 193.774 156.896 193.116 156.896H185.448V161.209H190.545C191.203 161.209 191.737 161.742 191.737 162.401V162.406C191.737 163.059 191.203 163.598 190.545 163.598H185.448V170C185.448 170.664 184.909 171.192 184.257 171.192H184.251C183.638 171.192 183.121 170.726 183.065 170.108C183.059 170.074 183.059 170.034 183.059 170V155.698ZM209.518 170C209.518 170.658 208.984 171.192 208.326 171.192H199.075C198.462 171.192 197.946 170.726 197.889 170.108C197.883 170.074 197.883 170.034 197.883 170V155.698C197.883 155.034 198.422 154.506 199.075 154.506H199.081C199.739 154.506 200.273 155.04 200.273 155.698V168.802H208.326C208.984 168.802 209.518 169.336 209.518 169.994V170ZM213.098 155.698C213.098 155.034 213.637 154.506 214.29 154.506H223.155C223.813 154.506 224.347 155.04 224.347 155.698V155.704C224.347 156.362 223.813 156.896 223.155 156.896H215.487V161.209H220.584C221.242 161.209 221.776 161.742 221.776 162.401V162.406C221.776 163.059 221.242 163.598 220.584 163.598H215.487V168.802H223.541C224.199 168.802 224.733 169.336 224.733 169.994V170C224.733 170.658 224.199 171.192 223.541 171.192H214.29C213.677 171.192 213.161 170.726 213.104 170.108C213.098 170.074 213.098 170.034 213.098 170V155.698ZM239.147 154.506C239.806 154.506 240.339 155.045 240.339 155.698C240.339 155.846 240.311 156.107 240.135 156.362L235.992 162.509L240.594 169.336C240.725 169.523 240.799 169.756 240.799 170C240.799 170.658 240.265 171.192 239.607 171.192C239.193 171.192 238.829 170.988 238.619 170.67L234.556 164.642L230.492 170.67C230.282 170.988 229.919 171.192 229.505 171.192C228.846 171.192 228.313 170.658 228.313 170C228.313 169.756 228.387 169.523 228.517 169.336L233.12 162.509C231.741 160.46 230.356 158.411 228.977 156.362C228.892 156.237 228.773 156.01 228.773 155.698C228.773 155.045 229.306 154.506 229.964 154.506H229.97C230.367 154.506 230.736 154.705 230.958 155.034L234.556 160.375L238.154 155.034C238.375 154.705 238.744 154.506 239.142 154.506H239.147ZM262.996 162.849C262.996 161.561 262.713 160.375 262.253 159.41C261.884 158.638 261.407 158.019 260.891 157.599C260.306 157.123 259.688 156.89 259.052 156.89H256.283V168.808H259.052C259.688 168.808 260.306 168.575 260.891 168.099C262.122 167.094 262.996 165.125 262.996 162.849ZM255.091 154.501H255.096C255.096 154.501 256.22 154.506 259.052 154.506C260.306 154.506 261.453 154.983 262.395 155.749C264.2 157.225 265.38 159.858 265.38 162.849C265.38 167.48 262.559 171.192 259.052 171.192H255.091C254.478 171.192 253.961 170.726 253.905 170.108C253.899 170.074 253.899 170.034 253.899 170V155.687C253.899 155.028 254.432 154.501 255.091 154.501ZM270.149 171.192C269.497 171.192 268.957 170.664 268.957 170V155.698C268.957 155.034 269.497 154.506 270.149 154.506H270.155C270.813 154.506 271.347 155.04 271.347 155.698V170C271.347 170.664 270.808 171.192 270.155 171.192H270.149ZM286.816 159.052C286.816 160.982 285.488 162.645 283.603 163.303L286.691 169.467C286.77 169.625 286.816 169.807 286.816 170C286.816 170.658 286.282 171.192 285.624 171.192C285.159 171.192 284.75 170.919 284.557 170.533L281.089 163.604H277.298V170C277.298 170.658 276.765 171.192 276.106 171.192C275.448 171.192 274.914 170.658 274.914 170V155.698C274.914 155.034 275.454 154.506 276.106 154.506H281.827C284.591 154.506 286.816 156.549 286.816 159.052ZM284.432 159.052C284.432 157.86 283.252 156.89 281.827 156.89H277.298V161.215H281.827C283.252 161.215 284.432 160.244 284.432 159.052ZM290.383 155.698C290.383 155.034 290.922 154.506 291.575 154.506H300.44C301.098 154.506 301.632 155.04 301.632 155.698V155.704C301.632 156.362 301.098 156.896 300.44 156.896H292.773V161.209H297.869C298.527 161.209 299.061 161.742 299.061 162.401V162.406C299.061 163.059 298.527 163.598 297.869 163.598H292.773V168.802H300.826C301.484 168.802 302.018 169.336 302.018 169.994V170C302.018 170.658 301.484 171.192 300.826 171.192H291.575C290.962 171.192 290.446 170.726 290.389 170.108C290.383 170.074 290.383 170.034 290.383 170V155.698ZM316.455 164.495C317.113 164.495 317.647 165.028 317.647 165.687C317.647 165.704 317.647 165.743 317.641 165.795C317.556 166.765 317.255 167.679 316.762 168.479C316.325 169.188 315.734 169.807 315.031 170.272C314.151 170.851 313.084 171.192 311.926 171.192C310.672 171.192 309.525 170.715 308.583 169.949C306.779 168.473 305.598 165.84 305.598 162.849C305.598 158.218 308.419 154.506 311.926 154.506C313.05 154.506 314.06 154.835 314.894 155.403C315.558 155.857 316.098 156.447 316.512 157.111C316.96 157.826 317.278 158.661 317.443 159.58C317.454 159.648 317.46 159.711 317.46 159.784C317.46 160.443 316.926 160.976 316.268 160.976C315.683 160.976 315.189 160.556 315.093 159.994C314.985 159.393 314.775 158.831 314.486 158.365C314.071 157.701 313.288 156.89 311.926 156.89C311.29 156.89 310.672 157.123 310.087 157.599C308.856 158.604 307.982 160.573 307.982 162.849C307.982 164.137 308.266 165.323 308.725 166.288C309.094 167.06 309.571 167.679 310.087 168.099C310.672 168.575 311.29 168.808 311.926 168.808C312.619 168.808 313.214 168.61 313.72 168.28C314.611 167.69 315.172 166.68 315.269 165.579C315.32 164.966 315.831 164.495 316.455 164.495ZM321.223 155.698C321.223 155.034 321.762 154.506 322.415 154.506H333.141C333.794 154.506 334.333 155.034 334.333 155.698V155.704C334.333 156.362 333.8 156.896 333.141 156.896H328.976V170C328.976 170.658 328.442 171.192 327.784 171.192C327.125 171.192 326.592 170.658 326.592 170L326.586 156.896H322.415C321.757 156.896 321.223 156.362 321.223 155.704V155.698ZM339.095 171.192C338.442 171.192 337.903 170.664 337.903 170V155.698C337.903 155.034 338.442 154.506 339.095 154.506H339.1C339.759 154.506 340.292 155.04 340.292 155.698V170C340.292 170.664 339.753 171.192 339.1 171.192H339.095ZM350.205 171.192C346.692 171.192 343.86 167.48 343.86 162.849C343.86 158.218 346.68 154.506 350.188 154.506C353.701 154.506 356.533 158.218 356.533 162.849C356.533 167.48 353.712 171.192 350.205 171.192ZM350.188 156.89C349.552 156.89 348.934 157.123 348.349 157.599C347.117 158.604 346.243 160.573 346.243 162.849C346.243 164.132 346.522 165.323 346.987 166.288C347.356 167.06 347.838 167.673 348.36 168.099C348.945 168.575 349.569 168.808 350.205 168.808C350.841 168.808 351.459 168.575 352.044 168.099C353.275 167.094 354.149 165.125 354.149 162.849C354.149 161.566 353.871 160.375 353.406 159.41C353.037 158.638 352.554 158.025 352.032 157.599C351.448 157.123 350.823 156.89 350.188 156.89ZM360.11 155.698C360.11 155.034 360.649 154.506 361.302 154.506H361.898C362.329 154.506 362.726 154.739 362.936 155.114L369.361 166.515V155.698C369.361 155.04 369.894 154.506 370.552 154.506C371.211 154.506 371.744 155.04 371.744 155.698V170C371.744 170.658 371.211 171.192 370.552 171.192H369.957C369.525 171.192 369.128 170.959 368.918 170.585L362.493 159.183V170C362.493 170.658 361.96 171.192 361.302 171.192C360.643 171.192 360.11 170.658 360.11 170V155.698Z" fill="black"/>
<path d="M98.0065 180.75C97.3161 180.75 96.7536 181.31 96.75 182C96.7464 182.69 97.3031 183.25 97.9935 183.25L98 182L98.0065 180.75ZM458.879 182.884C459.37 182.396 459.374 181.604 458.888 181.116L450.975 173.161C450.489 172.673 449.698 172.673 449.207 173.161C448.716 173.649 448.712 174.441 449.198 174.929L456.232 182L449.124 189.071C448.634 189.559 448.63 190.351 449.115 190.839C449.601 191.327 450.392 191.327 450.883 190.839L458.879 182.884ZM98 182L97.9935 183.25L457.993 183.25L458 182L458.006 180.75L98.0065 180.75L98 182Z" fill="black"/>
<path d="M257.739 7.48354C257.739 10.5528 255.506 13.1498 252.409 13.9943L257.594 24.3644C257.694 24.5551 257.749 24.773 257.749 25C257.749 25.79 257.104 26.4347 256.314 26.4347C255.751 26.4347 255.27 26.1078 255.033 25.6447L249.358 14.2849H242.52V25C242.52 25.79 241.876 26.4347 241.086 26.4347C240.296 26.4347 239.651 25.79 239.651 25V2.11691C239.651 1.3269 240.296 0.682178 241.086 0.682178H250.239C254.389 0.682178 257.739 3.74234 257.739 7.48354ZM254.888 7.48354C254.888 5.31328 252.791 3.55165 250.239 3.55165H242.52V11.4154H250.239C252.791 11.4154 254.888 9.6538 254.888 7.48354ZM263.463 13.5585C263.463 6.42111 267.768 0.682178 273.116 0.682178C278.465 0.682178 282.787 6.43019 282.787 13.5585C282.787 20.6958 278.492 26.4347 273.143 26.4347C267.795 26.4347 263.463 20.6867 263.463 13.5585ZM279.936 13.5585C279.936 8.04654 276.794 3.55165 273.116 3.55165C269.429 3.55165 266.333 8.05562 266.333 13.5585C266.333 19.0704 269.466 23.5653 273.143 23.5653C276.83 23.5653 279.936 19.0613 279.936 13.5585ZM288.495 2.11691C288.495 1.3269 289.139 0.682178 289.929 0.682178C290.62 0.682178 291.192 1.17253 291.328 1.81725L295.278 20.3689L299.119 2.29852C299.255 1.64472 299.845 1.17253 300.517 1.17253H301.471C302.143 1.17253 302.733 1.64472 302.869 2.29852L306.71 20.3689L310.651 1.84449C310.788 1.19977 311.36 0.709419 312.05 0.709419C312.84 0.709419 313.484 1.35414 313.484 2.14415C313.484 2.24404 313.466 2.35301 313.448 2.44381L308.581 25.2997C308.445 25.9535 307.855 26.4347 307.183 26.4347L306.229 26.4257C305.557 26.4257 304.967 25.9535 304.831 25.2997L300.99 7.22928L297.149 25.2997C297.012 25.9535 296.422 26.4347 295.75 26.4347L294.797 26.4257C294.125 26.4257 293.534 25.9535 293.398 25.2997L288.531 2.41657C288.513 2.32577 288.495 2.2168 288.495 2.11691Z" fill="black"/>
</svg>
