<svg width="556" height="514" viewBox="0 0 556 514" fill="none" xmlns="http://www.w3.org/2000/svg">
<path d="M374 458V98" stroke="black" stroke-opacity="0.5" stroke-width="1.5" stroke-linecap="round"/>
<path d="M399.917 285.897C399.423 285.897 399.02 285.494 399.02 285V274.319L395.343 284.989C395.218 285.346 394.877 285.59 394.497 285.59H394.196C393.816 285.59 393.481 285.346 393.356 284.989L389.679 274.308V285C389.679 285.494 389.276 285.897 388.782 285.897C388.288 285.897 387.885 285.494 387.885 285V270.698C387.885 270.204 388.288 269.801 388.782 269.801H389.378C389.758 269.801 390.099 270.051 390.224 270.409L394.35 282.389L398.476 270.409C398.6 270.051 398.941 269.807 399.321 269.807L399.911 269.801C400.405 269.801 400.802 270.204 400.802 270.698L400.808 285C400.808 285.494 400.411 285.897 399.917 285.897ZM409.739 278.757C409.739 277.963 409.103 277.157 407.991 277.157C406.833 277.157 406.504 277.616 406.367 277.849C406.277 278.002 406.197 278.201 406.14 278.451C406.05 278.854 405.692 279.154 405.266 279.154C404.773 279.154 404.37 278.751 404.37 278.258C404.37 278.19 404.375 278.127 404.392 278.065C404.563 277.299 405.187 275.363 407.991 275.363C410.056 275.363 411.521 276.941 411.521 278.757V280.028C411.521 280.045 411.526 280.068 411.526 280.085C411.526 283.411 411.521 283.411 411.521 283.411C411.521 283.547 411.532 284.024 411.674 284.24C411.958 284.234 412.281 284.183 412.281 284.183C412.315 284.177 412.355 284.171 412.417 284.171C412.911 284.171 413.314 284.574 413.314 285.068C413.314 285.516 412.985 285.885 412.554 285.953C412.531 285.959 412.077 286.033 411.594 286.033C411.339 286.033 410.772 285.959 410.306 285.392C409.614 285.834 408.751 286.01 408.047 286.01C407.491 286.01 406.901 285.919 406.333 285.715C405.885 285.551 405.437 285.312 405.068 284.932C404.744 284.597 404.37 284.035 404.37 283.212C404.37 282.565 404.512 281.351 405.8 280.443C406.413 280.011 407.168 279.728 407.996 279.506C408.49 279.376 409.063 279.285 409.733 279.234C409.733 278.939 409.739 278.757 409.739 278.757ZM406.163 283.212C406.163 283.428 406.237 283.57 406.35 283.689C406.674 284.024 407.378 284.217 408.047 284.217C408.325 284.217 408.689 284.171 408.989 284.058C409.727 283.785 409.727 283.365 409.727 283.212C409.727 283.212 409.733 282.128 409.733 281.027C409.33 281.061 408.859 281.124 408.462 281.232C406.589 281.731 406.163 282.35 406.163 283.212ZM415.989 271.691C415.989 271.033 416.516 270.499 417.181 270.499C417.583 270.499 417.958 270.704 418.174 271.027C418.247 271.135 418.372 271.368 418.372 271.691C418.372 272.35 417.845 272.883 417.181 272.883C416.522 272.883 415.989 272.355 415.989 271.691ZM418.077 285C418.077 285.494 417.674 285.897 417.181 285.897C416.687 285.897 416.284 285.494 416.284 285V276.396C416.284 275.902 416.687 275.499 417.181 275.499C417.674 275.499 418.077 275.902 418.077 276.396V285ZM421.635 276.396C421.635 275.902 422.038 275.499 422.532 275.499C422.85 275.499 423.134 275.67 423.293 275.925C423.849 275.573 424.501 275.363 425.211 275.363C427.186 275.363 428.786 276.964 428.786 278.939V285C428.786 285.494 428.383 285.897 427.89 285.897C427.396 285.897 426.993 285.494 426.993 285V278.939C426.993 277.951 426.198 277.157 425.211 277.157C424.223 277.157 423.429 277.946 423.429 278.939L423.423 285C423.423 285.494 423.026 285.897 422.532 285.897C422.038 285.897 421.635 285.494 421.635 285V276.396ZM447.871 272.628L445.624 279.342H450.113L447.871 272.628ZM453.842 285C453.842 285.494 453.444 285.897 452.951 285.897C452.559 285.897 452.224 285.636 452.105 285.284L450.709 281.129H445.028L443.632 285.284C443.512 285.636 443.178 285.897 442.786 285.897C442.292 285.897 441.889 285.494 441.889 285C441.889 284.898 441.912 284.807 441.94 284.716L446.725 270.414C446.844 270.051 447.19 269.807 447.57 269.807L448.166 269.801C448.546 269.801 448.893 270.051 449.012 270.414L453.796 284.716C453.825 284.807 453.842 284.904 453.842 285ZM465.408 285C465.408 285.494 465.005 285.891 464.511 285.891C464.21 285.891 463.938 285.738 463.779 285.511L461.412 282.128L459.045 285.511C458.887 285.738 458.614 285.891 458.313 285.891C457.82 285.891 457.422 285.494 457.422 285C457.422 284.807 457.479 284.637 457.581 284.489L460.322 280.568L457.768 276.907C457.666 276.759 457.604 276.583 457.604 276.396C457.604 275.902 458.007 275.505 458.501 275.505C458.801 275.505 459.074 275.658 459.233 275.885C461.418 279.012 461.418 279.007 461.418 279.007L463.603 275.885C463.762 275.653 464.034 275.499 464.335 275.499C464.829 275.499 465.226 275.902 465.226 276.396C465.226 276.583 465.169 276.759 465.067 276.907L462.507 280.568L465.249 284.489C465.351 284.637 465.408 284.813 465.408 285ZM468.664 271.691C468.664 271.033 469.192 270.499 469.856 270.499C470.259 270.499 470.634 270.704 470.849 271.027C470.923 271.135 471.048 271.368 471.048 271.691C471.048 272.35 470.52 272.883 469.856 272.883C469.198 272.883 468.664 272.355 468.664 271.691ZM470.753 285C470.753 285.494 470.35 285.897 469.856 285.897C469.363 285.897 468.96 285.494 468.96 285V276.396C468.96 275.902 469.363 275.499 469.856 275.499C470.35 275.499 470.753 275.902 470.753 276.396V285ZM474.55 278.479C474.55 276.776 476.127 275.363 477.892 275.363C478.573 275.363 479.175 275.568 479.657 275.88C480.089 276.158 480.424 276.521 480.673 276.89C481.082 277.491 481.224 278.036 481.28 278.292C481.292 278.348 481.298 278.417 481.298 278.479C481.298 278.973 480.9 279.376 480.406 279.376C479.975 279.376 479.618 279.069 479.532 278.666C479.453 278.303 479.186 277.707 478.687 277.384C478.471 277.242 478.221 277.157 477.892 277.157C477.103 277.157 476.343 277.787 476.343 278.479C476.343 278.621 476.371 278.797 476.525 278.99C476.638 279.132 476.82 279.285 477.058 279.41C477.353 279.569 477.716 279.688 478.068 279.75C478.789 279.875 480.69 280.289 481.383 281.754C481.536 282.083 481.621 282.452 481.621 282.849C481.621 284.449 480.338 286.033 477.892 286.033C477.189 286.033 476.564 285.812 476.065 285.482C475.616 285.193 475.265 284.818 474.992 284.438C474.799 284.166 474.47 283.632 474.334 282.98C474.322 282.917 474.311 282.855 474.311 282.792C474.311 282.299 474.714 281.896 475.208 281.896C475.639 281.896 475.997 282.202 476.082 282.605C476.167 283.002 476.508 283.632 477.041 283.984C477.291 284.149 477.563 284.24 477.892 284.24C479.209 284.24 479.833 283.575 479.833 282.849C479.833 282.679 479.794 282.491 479.606 282.293C479.271 281.935 478.579 281.652 477.762 281.51C476.786 281.339 475.758 280.891 475.128 280.102C474.941 279.864 474.55 279.308 474.55 278.479Z" fill="black" fill-opacity="0.5"/>
<rect width="144" height="360" transform="translate(206 98)" fill="#FFD700"/>
<path opacity="0.5" d="M222.363 114.844V114.646C222.363 111.352 223.281 108.202 226.485 108.112C228.087 108.112 229.347 109.066 229.653 110.434V110.614C229.653 111.1 229.257 111.514 228.771 111.514C227.889 111.514 228.015 110.578 227.511 110.2C227.223 109.984 226.881 109.912 226.521 109.912C224.541 110.038 224.163 112.378 224.163 114.484V114.808C224.199 116.86 224.451 119.434 226.611 119.434C227.259 119.434 227.781 119.128 227.889 118.57C227.961 118.174 228.339 117.832 228.771 117.832C229.257 117.832 229.653 118.246 229.653 118.732V118.894C229.419 120.262 228.195 121.234 226.611 121.234C223.281 121.234 222.399 118.066 222.363 114.844ZM234.507 116.266C234.507 113.422 236.073 111.208 239.007 111.208C241.851 111.208 243.507 113.422 243.507 116.266C243.507 119.074 241.887 121.288 239.007 121.288C236.109 121.288 234.507 119.11 234.507 116.266ZM236.307 116.266C236.307 118.048 237.153 119.488 239.007 119.488C240.861 119.488 241.707 118.048 241.707 116.266C241.707 114.466 240.825 113.008 239.007 113.008C237.171 113.008 236.307 114.484 236.307 116.266ZM247.766 120.334V112.252C247.766 111.766 248.18 111.37 248.666 111.37C249.152 111.37 249.566 111.766 249.566 112.252V112.414C250.322 111.748 251.294 111.298 252.518 111.298C255.218 111.298 256.262 113.17 256.262 115.852V120.334C256.262 120.82 255.83 121.234 255.362 121.234C254.876 121.234 254.462 120.838 254.462 120.334V115.852C254.462 114.232 254.156 113.098 252.518 113.098C250.988 113.098 250.016 114.376 249.566 115.528V120.334C249.566 120.82 249.152 121.234 248.666 121.234C248.18 121.234 247.766 120.82 247.766 120.334ZM260.774 112.414C260.774 111.928 261.188 111.514 261.674 111.514H263.06L263.096 109.696C263.096 109.174 263.492 108.796 263.996 108.796C264.5 108.796 264.896 109.21 264.896 109.696L264.86 111.514H267.542C268.028 111.514 268.442 111.928 268.442 112.414C268.442 112.9 268.028 113.314 267.542 113.314H264.824L264.77 117.418C264.77 118.624 264.77 119.434 266.012 119.434C266.408 119.416 266.804 119.326 267.146 119.164C267.272 119.11 267.398 119.074 267.542 119.074C268.028 119.074 268.442 119.488 268.442 119.974C268.442 120.892 267.236 121.234 266.12 121.234C265.58 121.234 265.04 121.144 264.698 121.018C263.384 120.514 262.97 119.308 262.97 117.598V117.382L263.024 113.314H261.674C261.188 113.314 260.774 112.9 260.774 112.414ZM273.782 118.228C273.782 115.132 276.932 114.916 280.064 114.898C280.01 114.358 279.92 113.8 279.524 113.44C279.128 113.062 278.57 113.008 278.03 113.008C277.31 113.008 276.626 113.242 276.068 113.692C275.906 113.818 275.708 113.872 275.51 113.872C275.006 113.872 274.61 113.476 274.61 112.972C274.61 112.72 274.736 112.378 274.952 112.27C275.834 111.586 276.914 111.208 278.03 111.208C279.02 111.208 280.028 111.442 280.748 112.108C281.468 112.792 281.864 113.764 281.864 114.754V120.334C281.864 120.82 281.45 121.234 280.964 121.234C280.478 121.234 280.064 120.838 280.064 120.334V120.19C279.29 120.82 278.336 121.288 277.184 121.288H276.932C275.42 121.162 273.782 120.028 273.782 118.228ZM275.582 118.228C275.582 119.002 276.446 119.452 277.058 119.488H277.202C278.552 119.488 279.488 118.336 280.064 117.4V116.68C279.668 116.662 279.254 116.644 278.822 116.644C277.202 116.644 275.582 116.878 275.582 118.228ZM287.762 112.468C287.762 111.982 288.158 111.568 288.662 111.568H291.902C292.406 111.568 292.802 111.964 292.802 112.468V120.334C292.802 120.838 292.388 121.234 291.902 121.234C291.416 121.234 291.002 120.82 291.002 120.334V113.368H288.662C288.176 113.368 287.762 112.954 287.762 112.468ZM290.246 108.814V107.986C290.246 107.482 290.66 107.086 291.146 107.086H291.956C292.442 107.086 292.856 107.482 292.856 107.986V108.814C292.856 109.318 292.442 109.714 291.956 109.714H291.146C290.66 109.714 290.246 109.318 290.246 108.814ZM299.798 120.334V112.252C299.798 111.766 300.212 111.37 300.698 111.37C301.184 111.37 301.598 111.766 301.598 112.252V112.414C302.354 111.748 303.326 111.298 304.55 111.298C307.25 111.298 308.294 113.17 308.294 115.852V120.334C308.294 120.82 307.862 121.234 307.394 121.234C306.908 121.234 306.494 120.838 306.494 120.334V115.852C306.494 114.232 306.188 113.098 304.55 113.098C303.02 113.098 302.048 114.376 301.598 115.528V120.334C301.598 120.82 301.184 121.234 300.698 121.234C300.212 121.234 299.798 120.82 299.798 120.334ZM312.806 116.068C312.806 113.386 314.336 111.262 317.036 111.208H317.144C319.88 111.208 321.302 113.188 321.302 115.852C321.302 116.338 320.888 116.752 320.402 116.752H314.642C314.804 118.372 315.614 119.488 317.324 119.488C317.522 119.488 317.72 119.488 317.936 119.452C318.314 119.362 318.602 119.254 318.836 119.02C318.998 118.858 319.214 118.768 319.448 118.768C319.952 118.768 320.366 119.164 320.366 119.668C320.366 120.856 318.854 121.27 317.45 121.27C316.802 121.27 316.19 121.18 315.74 121.036C313.814 120.388 312.806 118.534 312.806 116.068ZM314.732 114.952H319.358C319.106 113.728 318.638 113.008 317.072 113.008C315.794 113.008 315.038 113.836 314.732 114.952ZM327.199 120.334V112.252C327.199 111.766 327.613 111.37 328.099 111.37C328.603 111.37 328.999 111.748 328.999 112.252C329.665 111.658 330.529 111.298 331.609 111.298C333.193 111.298 334.237 112.432 334.255 113.8C334.255 114.286 333.841 114.7 333.355 114.7C332.869 114.7 332.455 114.304 332.455 113.8C332.437 113.476 332.221 113.224 331.897 113.152C331.807 113.152 331.699 113.098 331.609 113.098C331.483 113.098 331.357 113.152 331.231 113.152C329.791 113.35 328.999 114.952 328.999 116.302V120.334C328.999 120.838 328.585 121.234 328.099 121.234C327.613 121.234 327.199 120.82 327.199 120.334Z" fill="black"/>
<mask id="path-4-inside-1_392_45" fill="white">
<path d="M242 134H314V206H242V134Z"/>
</mask>
<path d="M242 134H314V206H242V134Z" fill="black"/>
<path d="M242 134H314V206H242V134Z" fill="#FF6347"/>
<path d="M314 206V208H316V206H314ZM314 134H312V206H314H316V134H314ZM314 206V204H242V206V208H314V206Z" fill="#B22222" mask="url(#path-4-inside-1_392_45)"/>
<path opacity="0.5" d="M255.764 161.28V150.282C255.764 149.796 256.16 149.382 256.664 149.382H261.596C262.1 149.382 262.496 149.778 262.496 150.282C262.496 150.786 262.082 151.182 261.596 151.182H257.564V154.512H260.786C261.254 154.512 261.686 154.926 261.686 155.412C261.686 155.898 261.272 156.312 260.786 156.312H257.564V161.28C257.564 161.766 257.15 162.18 256.664 162.18C256.178 162.18 255.764 161.766 255.764 161.28ZM269.546 157.896L269.654 148.986C269.654 148.482 270.068 148.086 270.554 148.086C271.04 148.086 271.454 148.5 271.454 148.986L271.328 157.896C271.328 159.174 271.526 160.128 272.696 160.29C272.948 160.326 273.632 160.326 274.1 160.326C274.586 160.326 275 160.74 275 161.226C275 161.712 274.586 162.126 274.1 162.126C272.264 162.126 271.076 161.964 270.302 160.902C269.654 160.11 269.546 159.174 269.546 157.896ZM280.286 157.068C280.286 154.386 281.816 152.262 284.516 152.208H284.624C287.36 152.208 288.782 154.188 288.782 156.852C288.782 157.338 288.368 157.752 287.882 157.752H282.122C282.284 159.372 283.094 160.488 284.804 160.488C285.002 160.488 285.2 160.488 285.416 160.452C285.794 160.362 286.082 160.254 286.316 160.02C286.478 159.858 286.694 159.768 286.928 159.768C287.432 159.768 287.846 160.164 287.846 160.668C287.846 161.856 286.334 162.27 284.93 162.27C284.282 162.27 283.67 162.18 283.22 162.036C281.294 161.388 280.286 159.534 280.286 157.068ZM282.212 155.952H286.838C286.586 154.728 286.118 154.008 284.552 154.008C283.274 154.008 282.518 154.836 282.212 155.952ZM293.654 161.334C293.654 161.154 293.708 160.974 293.816 160.812L296.336 157.212L294.014 153.756C293.924 153.612 293.87 153.432 293.87 153.252C293.87 152.748 294.284 152.352 294.77 152.352C295.004 152.352 295.292 152.424 295.418 152.604L297.542 155.754L299.666 152.604C299.828 152.442 300.08 152.352 300.314 152.352C300.8 152.352 301.214 152.766 301.214 153.252C301.214 153.432 301.16 153.612 301.07 153.756L298.73 157.212L301.25 160.812C301.358 160.974 301.43 161.154 301.43 161.334C301.43 161.82 300.998 162.234 300.53 162.234C300.278 162.234 300.026 162.198 299.864 161.982L297.542 158.652L295.202 161.982C295.04 162.162 294.788 162.234 294.554 162.234C294.068 162.234 293.654 161.82 293.654 161.334ZM255.044 186.082C255.044 185.596 255.44 185.182 255.944 185.182H257.618V176.182H256.304C255.818 176.182 255.404 175.768 255.404 175.282C255.404 174.796 255.8 174.382 256.304 174.382H260.732C261.236 174.382 261.632 174.796 261.632 175.282C261.632 175.768 261.218 176.182 260.732 176.182H259.418V185.182H261.092C261.596 185.182 261.992 185.596 261.992 186.082C261.992 186.568 261.578 186.982 261.092 186.982H255.944C255.458 186.982 255.044 186.568 255.044 186.082ZM267.278 178.414C267.278 177.928 267.692 177.514 268.178 177.514H269.564L269.6 175.696C269.6 175.174 269.996 174.796 270.5 174.796C271.004 174.796 271.4 175.21 271.4 175.696L271.364 177.514H274.046C274.532 177.514 274.946 177.928 274.946 178.414C274.946 178.9 274.532 179.314 274.046 179.314H271.328L271.274 183.418C271.274 184.624 271.274 185.434 272.516 185.434C272.912 185.416 273.308 185.326 273.65 185.164C273.776 185.11 273.902 185.074 274.046 185.074C274.532 185.074 274.946 185.488 274.946 185.974C274.946 186.892 273.74 187.234 272.624 187.234C272.084 187.234 271.544 187.144 271.202 187.018C269.888 186.514 269.474 185.308 269.474 183.598V183.382L269.528 179.314H268.178C267.692 179.314 267.278 178.9 267.278 178.414ZM280.286 182.068C280.286 179.386 281.816 177.262 284.516 177.208H284.624C287.36 177.208 288.782 179.188 288.782 181.852C288.782 182.338 288.368 182.752 287.882 182.752H282.122C282.284 184.372 283.094 185.488 284.804 185.488C285.002 185.488 285.2 185.488 285.416 185.452C285.794 185.362 286.082 185.254 286.316 185.02C286.478 184.858 286.694 184.768 286.928 184.768C287.432 184.768 287.846 185.164 287.846 185.668C287.846 186.856 286.334 187.27 284.93 187.27C284.282 187.27 283.67 187.18 283.22 187.036C281.294 186.388 280.286 184.534 280.286 182.068ZM282.212 180.952H286.838C286.586 179.728 286.118 179.008 284.552 179.008C283.274 179.008 282.518 179.836 282.212 180.952ZM293.042 186.334V178.252C293.042 177.748 293.456 177.352 293.942 177.352C294.248 177.352 294.518 177.514 294.68 177.766C295.076 177.478 295.544 177.298 296.102 177.298C296.84 177.298 297.47 177.64 297.884 178.144C298.352 177.64 298.982 177.298 299.702 177.298C301.07 177.298 302.042 178.468 302.042 179.728V186.334C302.042 186.82 301.628 187.234 301.142 187.234C300.656 187.234 300.242 186.838 300.242 186.334V179.872C300.224 179.548 300.098 179.098 299.702 179.098C298.928 179.098 298.442 180.61 298.442 181.33V186.334C298.442 186.82 298.028 187.234 297.542 187.234C297.056 187.234 296.642 186.838 296.642 186.334V179.872C296.624 179.548 296.498 179.098 296.102 179.098C295.31 179.098 294.896 180.628 294.842 181.33V186.334C294.842 186.82 294.428 187.234 293.942 187.234C293.456 187.234 293.042 186.838 293.042 186.334Z" fill="black"/>
<mask id="path-7-inside-2_392_45" fill="white">
<path d="M242 242H314V314H242V242Z"/>
</mask>
<path d="M242 242H314V314H242V242Z" fill="black"/>
<path d="M242 242H314V314H242V242Z" fill="#FF6347"/>
<path d="M314 314V316H316V314H314ZM314 242H312V314H314H316V242H314ZM314 314V312H242V314V316H314V314Z" fill="#B22222" mask="url(#path-7-inside-2_392_45)"/>
<path opacity="0.5" d="M255.764 269.28V258.282C255.764 257.796 256.16 257.382 256.664 257.382H261.596C262.1 257.382 262.496 257.778 262.496 258.282C262.496 258.786 262.082 259.182 261.596 259.182H257.564V262.512H260.786C261.254 262.512 261.686 262.926 261.686 263.412C261.686 263.898 261.272 264.312 260.786 264.312H257.564V269.28C257.564 269.766 257.15 270.18 256.664 270.18C256.178 270.18 255.764 269.766 255.764 269.28ZM269.546 265.896L269.654 256.986C269.654 256.482 270.068 256.086 270.554 256.086C271.04 256.086 271.454 256.5 271.454 256.986L271.328 265.896C271.328 267.174 271.526 268.128 272.696 268.29C272.948 268.326 273.632 268.326 274.1 268.326C274.586 268.326 275 268.74 275 269.226C275 269.712 274.586 270.126 274.1 270.126C272.264 270.126 271.076 269.964 270.302 268.902C269.654 268.11 269.546 267.174 269.546 265.896ZM280.286 265.068C280.286 262.386 281.816 260.262 284.516 260.208H284.624C287.36 260.208 288.782 262.188 288.782 264.852C288.782 265.338 288.368 265.752 287.882 265.752H282.122C282.284 267.372 283.094 268.488 284.804 268.488C285.002 268.488 285.2 268.488 285.416 268.452C285.794 268.362 286.082 268.254 286.316 268.02C286.478 267.858 286.694 267.768 286.928 267.768C287.432 267.768 287.846 268.164 287.846 268.668C287.846 269.856 286.334 270.27 284.93 270.27C284.282 270.27 283.67 270.18 283.22 270.036C281.294 269.388 280.286 267.534 280.286 265.068ZM282.212 263.952H286.838C286.586 262.728 286.118 262.008 284.552 262.008C283.274 262.008 282.518 262.836 282.212 263.952ZM293.654 269.334C293.654 269.154 293.708 268.974 293.816 268.812L296.336 265.212L294.014 261.756C293.924 261.612 293.87 261.432 293.87 261.252C293.87 260.748 294.284 260.352 294.77 260.352C295.004 260.352 295.292 260.424 295.418 260.604L297.542 263.754L299.666 260.604C299.828 260.442 300.08 260.352 300.314 260.352C300.8 260.352 301.214 260.766 301.214 261.252C301.214 261.432 301.16 261.612 301.07 261.756L298.73 265.212L301.25 268.812C301.358 268.974 301.43 269.154 301.43 269.334C301.43 269.82 300.998 270.234 300.53 270.234C300.278 270.234 300.026 270.198 299.864 269.982L297.542 266.652L295.202 269.982C295.04 270.162 294.788 270.234 294.554 270.234C294.068 270.234 293.654 269.82 293.654 269.334ZM255.044 294.082C255.044 293.596 255.44 293.182 255.944 293.182H257.618V284.182H256.304C255.818 284.182 255.404 283.768 255.404 283.282C255.404 282.796 255.8 282.382 256.304 282.382H260.732C261.236 282.382 261.632 282.796 261.632 283.282C261.632 283.768 261.218 284.182 260.732 284.182H259.418V293.182H261.092C261.596 293.182 261.992 293.596 261.992 294.082C261.992 294.568 261.578 294.982 261.092 294.982H255.944C255.458 294.982 255.044 294.568 255.044 294.082ZM267.278 286.414C267.278 285.928 267.692 285.514 268.178 285.514H269.564L269.6 283.696C269.6 283.174 269.996 282.796 270.5 282.796C271.004 282.796 271.4 283.21 271.4 283.696L271.364 285.514H274.046C274.532 285.514 274.946 285.928 274.946 286.414C274.946 286.9 274.532 287.314 274.046 287.314H271.328L271.274 291.418C271.274 292.624 271.274 293.434 272.516 293.434C272.912 293.416 273.308 293.326 273.65 293.164C273.776 293.11 273.902 293.074 274.046 293.074C274.532 293.074 274.946 293.488 274.946 293.974C274.946 294.892 273.74 295.234 272.624 295.234C272.084 295.234 271.544 295.144 271.202 295.018C269.888 294.514 269.474 293.308 269.474 291.598V291.382L269.528 287.314H268.178C267.692 287.314 267.278 286.9 267.278 286.414ZM280.286 290.068C280.286 287.386 281.816 285.262 284.516 285.208H284.624C287.36 285.208 288.782 287.188 288.782 289.852C288.782 290.338 288.368 290.752 287.882 290.752H282.122C282.284 292.372 283.094 293.488 284.804 293.488C285.002 293.488 285.2 293.488 285.416 293.452C285.794 293.362 286.082 293.254 286.316 293.02C286.478 292.858 286.694 292.768 286.928 292.768C287.432 292.768 287.846 293.164 287.846 293.668C287.846 294.856 286.334 295.27 284.93 295.27C284.282 295.27 283.67 295.18 283.22 295.036C281.294 294.388 280.286 292.534 280.286 290.068ZM282.212 288.952H286.838C286.586 287.728 286.118 287.008 284.552 287.008C283.274 287.008 282.518 287.836 282.212 288.952ZM293.042 294.334V286.252C293.042 285.748 293.456 285.352 293.942 285.352C294.248 285.352 294.518 285.514 294.68 285.766C295.076 285.478 295.544 285.298 296.102 285.298C296.84 285.298 297.47 285.64 297.884 286.144C298.352 285.64 298.982 285.298 299.702 285.298C301.07 285.298 302.042 286.468 302.042 287.728V294.334C302.042 294.82 301.628 295.234 301.142 295.234C300.656 295.234 300.242 294.838 300.242 294.334V287.872C300.224 287.548 300.098 287.098 299.702 287.098C298.928 287.098 298.442 288.61 298.442 289.33V294.334C298.442 294.82 298.028 295.234 297.542 295.234C297.056 295.234 296.642 294.838 296.642 294.334V287.872C296.624 287.548 296.498 287.098 296.102 287.098C295.31 287.098 294.896 288.628 294.842 289.33V294.334C294.842 294.82 294.428 295.234 293.942 295.234C293.456 295.234 293.042 294.838 293.042 294.334Z" fill="black"/>
<mask id="path-10-inside-3_392_45" fill="white">
<path d="M242 350H314V422H242V350Z"/>
</mask>
<path d="M242 350H314V422H242V350Z" fill="black"/>
<path d="M242 350H314V422H242V350Z" fill="#FF6347"/>
<path d="M314 422V424H316V422H314ZM314 350H312V422H314H316V350H314ZM314 422V420H242V422V424H314V422Z" fill="#B22222" mask="url(#path-10-inside-3_392_45)"/>
<path opacity="0.5" d="M255.764 377.28V366.282C255.764 365.796 256.16 365.382 256.664 365.382H261.596C262.1 365.382 262.496 365.778 262.496 366.282C262.496 366.786 262.082 367.182 261.596 367.182H257.564V370.512H260.786C261.254 370.512 261.686 370.926 261.686 371.412C261.686 371.898 261.272 372.312 260.786 372.312H257.564V377.28C257.564 377.766 257.15 378.18 256.664 378.18C256.178 378.18 255.764 377.766 255.764 377.28ZM269.546 373.896L269.654 364.986C269.654 364.482 270.068 364.086 270.554 364.086C271.04 364.086 271.454 364.5 271.454 364.986L271.328 373.896C271.328 375.174 271.526 376.128 272.696 376.29C272.948 376.326 273.632 376.326 274.1 376.326C274.586 376.326 275 376.74 275 377.226C275 377.712 274.586 378.126 274.1 378.126C272.264 378.126 271.076 377.964 270.302 376.902C269.654 376.11 269.546 375.174 269.546 373.896ZM280.286 373.068C280.286 370.386 281.816 368.262 284.516 368.208H284.624C287.36 368.208 288.782 370.188 288.782 372.852C288.782 373.338 288.368 373.752 287.882 373.752H282.122C282.284 375.372 283.094 376.488 284.804 376.488C285.002 376.488 285.2 376.488 285.416 376.452C285.794 376.362 286.082 376.254 286.316 376.02C286.478 375.858 286.694 375.768 286.928 375.768C287.432 375.768 287.846 376.164 287.846 376.668C287.846 377.856 286.334 378.27 284.93 378.27C284.282 378.27 283.67 378.18 283.22 378.036C281.294 377.388 280.286 375.534 280.286 373.068ZM282.212 371.952H286.838C286.586 370.728 286.118 370.008 284.552 370.008C283.274 370.008 282.518 370.836 282.212 371.952ZM293.654 377.334C293.654 377.154 293.708 376.974 293.816 376.812L296.336 373.212L294.014 369.756C293.924 369.612 293.87 369.432 293.87 369.252C293.87 368.748 294.284 368.352 294.77 368.352C295.004 368.352 295.292 368.424 295.418 368.604L297.542 371.754L299.666 368.604C299.828 368.442 300.08 368.352 300.314 368.352C300.8 368.352 301.214 368.766 301.214 369.252C301.214 369.432 301.16 369.612 301.07 369.756L298.73 373.212L301.25 376.812C301.358 376.974 301.43 377.154 301.43 377.334C301.43 377.82 300.998 378.234 300.53 378.234C300.278 378.234 300.026 378.198 299.864 377.982L297.542 374.652L295.202 377.982C295.04 378.162 294.788 378.234 294.554 378.234C294.068 378.234 293.654 377.82 293.654 377.334ZM255.044 402.082C255.044 401.596 255.44 401.182 255.944 401.182H257.618V392.182H256.304C255.818 392.182 255.404 391.768 255.404 391.282C255.404 390.796 255.8 390.382 256.304 390.382H260.732C261.236 390.382 261.632 390.796 261.632 391.282C261.632 391.768 261.218 392.182 260.732 392.182H259.418V401.182H261.092C261.596 401.182 261.992 401.596 261.992 402.082C261.992 402.568 261.578 402.982 261.092 402.982H255.944C255.458 402.982 255.044 402.568 255.044 402.082ZM267.278 394.414C267.278 393.928 267.692 393.514 268.178 393.514H269.564L269.6 391.696C269.6 391.174 269.996 390.796 270.5 390.796C271.004 390.796 271.4 391.21 271.4 391.696L271.364 393.514H274.046C274.532 393.514 274.946 393.928 274.946 394.414C274.946 394.9 274.532 395.314 274.046 395.314H271.328L271.274 399.418C271.274 400.624 271.274 401.434 272.516 401.434C272.912 401.416 273.308 401.326 273.65 401.164C273.776 401.11 273.902 401.074 274.046 401.074C274.532 401.074 274.946 401.488 274.946 401.974C274.946 402.892 273.74 403.234 272.624 403.234C272.084 403.234 271.544 403.144 271.202 403.018C269.888 402.514 269.474 401.308 269.474 399.598V399.382L269.528 395.314H268.178C267.692 395.314 267.278 394.9 267.278 394.414ZM280.286 398.068C280.286 395.386 281.816 393.262 284.516 393.208H284.624C287.36 393.208 288.782 395.188 288.782 397.852C288.782 398.338 288.368 398.752 287.882 398.752H282.122C282.284 400.372 283.094 401.488 284.804 401.488C285.002 401.488 285.2 401.488 285.416 401.452C285.794 401.362 286.082 401.254 286.316 401.02C286.478 400.858 286.694 400.768 286.928 400.768C287.432 400.768 287.846 401.164 287.846 401.668C287.846 402.856 286.334 403.27 284.93 403.27C284.282 403.27 283.67 403.18 283.22 403.036C281.294 402.388 280.286 400.534 280.286 398.068ZM282.212 396.952H286.838C286.586 395.728 286.118 395.008 284.552 395.008C283.274 395.008 282.518 395.836 282.212 396.952ZM293.042 402.334V394.252C293.042 393.748 293.456 393.352 293.942 393.352C294.248 393.352 294.518 393.514 294.68 393.766C295.076 393.478 295.544 393.298 296.102 393.298C296.84 393.298 297.47 393.64 297.884 394.144C298.352 393.64 298.982 393.298 299.702 393.298C301.07 393.298 302.042 394.468 302.042 395.728V402.334C302.042 402.82 301.628 403.234 301.142 403.234C300.656 403.234 300.242 402.838 300.242 402.334V395.872C300.224 395.548 300.098 395.098 299.702 395.098C298.928 395.098 298.442 396.61 298.442 397.33V402.334C298.442 402.82 298.028 403.234 297.542 403.234C297.056 403.234 296.642 402.838 296.642 402.334V395.872C296.624 395.548 296.498 395.098 296.102 395.098C295.31 395.098 294.896 396.628 294.842 397.33V402.334C294.842 402.82 294.428 403.234 293.942 403.234C293.456 403.234 293.042 402.838 293.042 402.334Z" fill="black"/>
<path d="M205 482H350" stroke="black" stroke-opacity="0.5" stroke-width="1.5" stroke-linecap="round"/>
<path d="M224.798 496.849C224.798 500.288 226.733 503.103 229.037 503.103C231.081 503.103 232.511 501.503 232.675 499.607C232.715 499.148 233.101 498.79 233.566 498.79C234.06 498.79 234.463 499.193 234.463 499.687C234.463 499.698 234.463 499.726 234.457 499.766C234.378 500.691 234.083 501.565 233.617 502.326C233.203 503.001 232.647 503.586 231.977 504.023C231.143 504.573 230.138 504.897 229.037 504.897C225.695 504.897 223.004 501.31 223.004 496.849C223.004 492.388 225.695 488.801 229.037 488.801C230.099 488.801 231.058 489.114 231.841 489.647C232.465 490.073 232.982 490.635 233.373 491.264C233.799 491.946 234.106 492.751 234.259 493.631C234.27 493.682 234.276 493.733 234.276 493.784C234.276 494.278 233.873 494.681 233.379 494.681C232.936 494.681 232.573 494.358 232.499 493.938C232.301 492.808 231.739 491.741 230.837 491.128C230.343 490.793 229.747 490.595 229.037 490.595C226.733 490.595 224.798 493.41 224.798 496.849ZM241.304 494.363C243.115 494.363 244.585 495.833 244.585 497.644V497.956C244.585 498.449 244.182 498.847 243.688 498.847C243.194 498.847 242.791 498.449 242.791 497.956V497.644C242.791 496.821 242.127 496.157 241.304 496.157C240.481 496.157 239.823 496.815 239.823 497.644C239.823 497.678 239.823 497.712 239.817 497.746V504C239.817 504.494 239.414 504.897 238.921 504.897C238.427 504.897 238.024 504.494 238.024 504V495.396C238.024 494.902 238.427 494.499 238.921 494.499C239.199 494.499 239.454 494.63 239.619 494.834C240.113 494.539 240.686 494.363 241.304 494.363ZM251.705 505.033C249.554 505.033 247.829 502.689 247.829 499.755C247.829 499.011 247.937 497.95 248.413 496.883C248.708 496.225 249.111 495.646 249.616 495.198C250.19 494.698 250.905 494.363 251.705 494.363C252.505 494.363 253.226 494.692 253.799 495.192C254.31 495.635 254.707 496.225 255.002 496.883C255.371 497.712 255.581 498.671 255.581 499.698C255.581 500.725 255.371 501.684 255.002 502.513C254.707 503.171 254.31 503.762 253.799 504.204C253.226 504.704 252.505 505.033 251.705 505.033ZM253.788 499.698C253.788 497.729 252.783 496.157 251.705 496.157C251.404 496.157 251.103 496.264 250.797 496.537C250.116 497.133 249.616 498.353 249.616 499.755C249.616 501.696 250.638 503.24 251.705 503.24C252.783 503.24 253.788 501.667 253.788 499.698ZM259.415 497.479C259.415 495.776 260.992 494.363 262.758 494.363C263.439 494.363 264.04 494.568 264.523 494.88C264.954 495.158 265.289 495.521 265.538 495.89C265.947 496.491 266.089 497.036 266.146 497.292C266.157 497.348 266.163 497.417 266.163 497.479C266.163 497.973 265.765 498.376 265.272 498.376C264.84 498.376 264.483 498.069 264.398 497.666C264.318 497.303 264.052 496.707 263.552 496.384C263.336 496.242 263.087 496.157 262.758 496.157C261.969 496.157 261.208 496.787 261.208 497.479C261.208 497.621 261.237 497.797 261.39 497.99C261.503 498.132 261.685 498.285 261.923 498.41C262.218 498.569 262.582 498.688 262.933 498.75C263.654 498.875 265.555 499.289 266.248 500.754C266.401 501.083 266.486 501.452 266.486 501.849C266.486 503.449 265.204 505.033 262.758 505.033C262.054 505.033 261.429 504.812 260.93 504.482C260.482 504.193 260.13 503.818 259.857 503.438C259.664 503.166 259.335 502.632 259.199 501.98C259.188 501.917 259.176 501.855 259.176 501.792C259.176 501.299 259.579 500.896 260.073 500.896C260.504 500.896 260.862 501.202 260.947 501.605C261.032 502.002 261.373 502.632 261.906 502.984C262.156 503.149 262.428 503.24 262.758 503.24C264.074 503.24 264.699 502.575 264.699 501.849C264.699 501.679 264.659 501.491 264.471 501.293C264.137 500.935 263.444 500.652 262.627 500.51C261.651 500.339 260.624 499.891 259.994 499.102C259.806 498.864 259.415 498.308 259.415 497.479ZM270.294 497.479C270.294 495.776 271.871 494.363 273.636 494.363C274.317 494.363 274.919 494.568 275.401 494.88C275.833 495.158 276.168 495.521 276.417 495.89C276.826 496.491 276.968 497.036 277.025 497.292C277.036 497.348 277.042 497.417 277.042 497.479C277.042 497.973 276.644 498.376 276.151 498.376C275.719 498.376 275.362 498.069 275.277 497.666C275.197 497.303 274.93 496.707 274.431 496.384C274.215 496.242 273.966 496.157 273.636 496.157C272.848 496.157 272.087 496.787 272.087 497.479C272.087 497.621 272.115 497.797 272.269 497.99C272.382 498.132 272.564 498.285 272.802 498.41C273.097 498.569 273.461 498.688 273.812 498.75C274.533 498.875 276.434 499.289 277.127 500.754C277.28 501.083 277.365 501.452 277.365 501.849C277.365 503.449 276.083 505.033 273.636 505.033C272.933 505.033 272.308 504.812 271.809 504.482C271.361 504.193 271.009 503.818 270.736 503.438C270.543 503.166 270.214 502.632 270.078 501.98C270.067 501.917 270.055 501.855 270.055 501.792C270.055 501.299 270.458 500.896 270.952 500.896C271.383 500.896 271.741 501.202 271.826 501.605C271.911 502.002 272.252 502.632 272.785 502.984C273.035 503.149 273.307 503.24 273.636 503.24C274.953 503.24 275.577 502.575 275.577 501.849C275.577 501.679 275.538 501.491 275.35 501.293C275.016 500.935 274.323 500.652 273.506 500.51C272.53 500.339 271.502 499.891 270.873 499.102C270.685 498.864 270.294 498.308 270.294 497.479ZM296.447 491.628L294.2 498.342H298.689L296.447 491.628ZM302.418 504C302.418 504.494 302.02 504.897 301.527 504.897C301.135 504.897 300.8 504.636 300.681 504.284L299.285 500.129H293.604L292.208 504.284C292.089 504.636 291.754 504.897 291.362 504.897C290.868 504.897 290.465 504.494 290.465 504C290.465 503.898 290.488 503.807 290.517 503.716L295.301 489.414C295.42 489.051 295.766 488.807 296.146 488.807L296.742 488.801C297.123 488.801 297.469 489.051 297.588 489.414L302.372 503.716C302.401 503.807 302.418 503.904 302.418 504ZM313.984 504C313.984 504.494 313.581 504.891 313.087 504.891C312.786 504.891 312.514 504.738 312.355 504.511L309.988 501.128L307.622 504.511C307.463 504.738 307.19 504.891 306.889 504.891C306.396 504.891 305.998 504.494 305.998 504C305.998 503.807 306.055 503.637 306.157 503.489L308.899 499.568L306.345 495.907C306.242 495.759 306.18 495.583 306.18 495.396C306.18 494.902 306.583 494.505 307.077 494.505C307.378 494.505 307.65 494.658 307.809 494.885C309.994 498.012 309.994 498.007 309.994 498.007L312.179 494.885C312.338 494.653 312.61 494.499 312.911 494.499C313.405 494.499 313.802 494.902 313.802 495.396C313.802 495.583 313.745 495.759 313.643 495.907L311.084 499.568L313.825 503.489C313.927 503.637 313.984 503.813 313.984 504ZM317.241 490.691C317.241 490.033 317.768 489.499 318.432 489.499C318.835 489.499 319.21 489.704 319.426 490.027C319.499 490.135 319.624 490.368 319.624 490.691C319.624 491.35 319.096 491.883 318.432 491.883C317.774 491.883 317.241 491.355 317.241 490.691ZM319.329 504C319.329 504.494 318.926 504.897 318.432 504.897C317.939 504.897 317.536 504.494 317.536 504V495.396C317.536 494.902 317.939 494.499 318.432 494.499C318.926 494.499 319.329 494.902 319.329 495.396V504ZM323.126 497.479C323.126 495.776 324.703 494.363 326.468 494.363C327.15 494.363 327.751 494.568 328.234 494.88C328.665 495.158 329 495.521 329.249 495.89C329.658 496.491 329.8 497.036 329.857 497.292C329.868 497.348 329.874 497.417 329.874 497.479C329.874 497.973 329.476 498.376 328.983 498.376C328.551 498.376 328.194 498.069 328.109 497.666C328.029 497.303 327.762 496.707 327.263 496.384C327.047 496.242 326.798 496.157 326.468 496.157C325.68 496.157 324.919 496.787 324.919 497.479C324.919 497.621 324.947 497.797 325.101 497.99C325.214 498.132 325.396 498.285 325.634 498.41C325.929 498.569 326.293 498.688 326.644 498.75C327.365 498.875 329.266 499.289 329.959 500.754C330.112 501.083 330.197 501.452 330.197 501.849C330.197 503.449 328.915 505.033 326.468 505.033C325.765 505.033 325.14 504.812 324.641 504.482C324.193 504.193 323.841 503.818 323.568 503.438C323.375 503.166 323.046 502.632 322.91 501.98C322.899 501.917 322.887 501.855 322.887 501.792C322.887 501.299 323.29 500.896 323.784 500.896C324.215 500.896 324.573 501.202 324.658 501.605C324.743 502.002 325.084 502.632 325.617 502.984C325.867 503.149 326.139 503.24 326.468 503.24C327.785 503.24 328.409 502.575 328.409 501.849C328.409 501.679 328.37 501.491 328.182 501.293C327.848 500.935 327.155 500.652 326.338 500.51C325.362 500.339 324.335 499.891 323.705 499.102C323.517 498.864 323.126 498.308 323.126 497.479Z" fill="black" fill-opacity="0.5"/>
<path d="M109.883 260.198C109.883 259.534 110.422 259.006 111.075 259.006H119.94C120.598 259.006 121.132 259.54 121.132 260.198V260.204C121.132 260.862 120.598 261.396 119.94 261.396H112.273V265.709H117.369C118.027 265.709 118.561 266.242 118.561 266.901V266.906C118.561 267.559 118.027 268.098 117.369 268.098H112.273V274.5C112.273 275.164 111.733 275.692 111.081 275.692H111.075C110.462 275.692 109.946 275.226 109.889 274.608C109.883 274.574 109.883 274.534 109.883 274.5V260.198ZM136.342 274.5C136.342 275.158 135.808 275.692 135.15 275.692H125.899C125.286 275.692 124.77 275.226 124.713 274.608C124.707 274.574 124.707 274.534 124.707 274.5V260.198C124.707 259.534 125.247 259.006 125.899 259.006H125.905C126.563 259.006 127.097 259.54 127.097 260.198V273.302H135.15C135.808 273.302 136.342 273.836 136.342 274.494V274.5ZM139.922 260.198C139.922 259.534 140.461 259.006 141.114 259.006H149.979C150.637 259.006 151.171 259.54 151.171 260.198V260.204C151.171 260.862 150.637 261.396 149.979 261.396H142.312V265.709H147.408C148.066 265.709 148.6 266.242 148.6 266.901V266.906C148.6 267.559 148.066 268.098 147.408 268.098H142.312V273.302H150.365C151.023 273.302 151.557 273.836 151.557 274.494V274.5C151.557 275.158 151.023 275.692 150.365 275.692H141.114C140.501 275.692 139.985 275.226 139.928 274.608C139.922 274.574 139.922 274.534 139.922 274.5V260.198ZM165.971 259.006C166.63 259.006 167.163 259.545 167.163 260.198C167.163 260.346 167.135 260.607 166.959 260.862L162.816 267.009L167.419 273.836C167.549 274.023 167.623 274.256 167.623 274.5C167.623 275.158 167.089 275.692 166.431 275.692C166.017 275.692 165.654 275.488 165.444 275.17L161.38 269.142L157.316 275.17C157.106 275.488 156.743 275.692 156.329 275.692C155.671 275.692 155.137 275.158 155.137 274.5C155.137 274.256 155.211 274.023 155.341 273.836L159.944 267.009C158.565 264.96 157.18 262.911 155.801 260.862C155.716 260.737 155.597 260.51 155.597 260.198C155.597 259.545 156.13 259.006 156.789 259.006H156.794C157.192 259.006 157.561 259.205 157.782 259.534L161.38 264.875L164.978 259.534C165.2 259.205 165.568 259.006 165.966 259.006H165.971ZM58.8637 288.349C58.8637 287.061 58.5799 285.875 58.1202 284.91C57.7513 284.138 57.2746 283.519 56.7581 283.099C56.1735 282.623 55.5549 282.39 54.9193 282.39H52.1497V294.308H54.9193C55.5549 294.308 56.1735 294.075 56.7581 293.599C57.9897 292.594 58.8637 290.625 58.8637 288.349ZM50.9579 280.001H50.9635C50.9635 280.001 52.0873 280.006 54.9193 280.006C56.1735 280.006 57.32 280.483 58.2621 281.249C60.0668 282.725 61.2473 285.358 61.2473 288.349C61.2473 292.98 58.4267 296.692 54.9193 296.692H50.9579C50.3449 296.692 49.8285 296.226 49.7717 295.608C49.766 295.574 49.766 295.534 49.766 295.5V281.187C49.766 280.528 50.2995 280.001 50.9579 280.001ZM66.0165 296.692C65.3638 296.692 64.8246 296.164 64.8246 295.5V281.198C64.8246 280.534 65.3638 280.006 66.0165 280.006H66.0221C66.6805 280.006 67.214 280.54 67.214 281.198V295.5C67.214 296.164 66.6748 296.692 66.0221 296.692H66.0165ZM82.6829 284.552C82.6829 286.482 81.3549 288.145 79.4707 288.803L82.5581 294.967C82.6375 295.125 82.6829 295.307 82.6829 295.5C82.6829 296.158 82.1494 296.692 81.4911 296.692C81.0257 296.692 80.6171 296.419 80.4241 296.033L76.9565 289.104H73.1653V295.5C73.1653 296.158 72.6318 296.692 71.9735 296.692C71.3152 296.692 70.7817 296.158 70.7817 295.5V281.198C70.7817 280.534 71.3208 280.006 71.9735 280.006H77.6943C80.4582 280.006 82.6829 282.049 82.6829 284.552ZM80.2993 284.552C80.2993 283.36 79.1188 282.39 77.6943 282.39H73.1653V286.715H77.6943C79.1188 286.715 80.2993 285.744 80.2993 284.552ZM86.2504 281.198C86.2504 280.534 86.7896 280.006 87.4422 280.006H96.3072C96.9655 280.006 97.499 280.54 97.499 281.198V281.204C97.499 281.862 96.9655 282.396 96.3072 282.396H88.6398V286.709H93.7362C94.3946 286.709 94.9281 287.242 94.9281 287.901V287.906C94.9281 288.559 94.3946 289.098 93.7362 289.098H88.6398V294.302H96.6931C97.3514 294.302 97.8849 294.836 97.8849 295.494V295.5C97.8849 296.158 97.3514 296.692 96.6931 296.692H87.4422C86.8293 296.692 86.3129 296.226 86.2561 295.608C86.2504 295.574 86.2504 295.534 86.2504 295.5V281.198ZM112.322 289.995C112.981 289.995 113.514 290.528 113.514 291.187C113.514 291.204 113.514 291.243 113.508 291.295C113.423 292.265 113.122 293.179 112.629 293.979C112.192 294.688 111.601 295.307 110.898 295.772C110.018 296.351 108.951 296.692 107.793 296.692C106.539 296.692 105.393 296.215 104.451 295.449C102.646 293.973 101.465 291.34 101.465 288.349C101.465 283.718 104.286 280.006 107.793 280.006C108.917 280.006 109.927 280.335 110.762 280.903C111.426 281.357 111.965 281.947 112.379 282.611C112.827 283.326 113.145 284.161 113.31 285.08C113.321 285.148 113.327 285.211 113.327 285.284C113.327 285.943 112.793 286.476 112.135 286.476C111.55 286.476 111.057 286.056 110.96 285.494C110.852 284.893 110.642 284.331 110.353 283.865C109.939 283.201 109.155 282.39 107.793 282.39C107.158 282.39 106.539 282.623 105.954 283.099C104.723 284.104 103.849 286.073 103.849 288.349C103.849 289.637 104.133 290.823 104.592 291.788C104.961 292.56 105.438 293.179 105.954 293.599C106.539 294.075 107.158 294.308 107.793 294.308C108.486 294.308 109.082 294.11 109.587 293.78C110.478 293.19 111.04 292.18 111.136 291.079C111.187 290.466 111.698 289.995 112.322 289.995ZM117.09 281.198C117.09 280.534 117.629 280.006 118.282 280.006H129.009C129.661 280.006 130.2 280.534 130.2 281.198V281.204C130.2 281.862 129.667 282.396 129.009 282.396H124.843V295.5C124.843 296.158 124.309 296.692 123.651 296.692C122.993 296.692 122.459 296.158 122.459 295.5L122.453 282.396H118.282C117.624 282.396 117.09 281.862 117.09 281.204V281.198ZM134.962 296.692C134.309 296.692 133.77 296.164 133.77 295.5V281.198C133.77 280.534 134.309 280.006 134.962 280.006H134.967C135.626 280.006 136.159 280.54 136.159 281.198V295.5C136.159 296.164 135.62 296.692 134.967 296.692H134.962ZM146.072 296.692C142.559 296.692 139.727 292.98 139.727 288.349C139.727 283.718 142.548 280.006 146.055 280.006C149.568 280.006 152.4 283.718 152.4 288.349C152.4 292.98 149.579 296.692 146.072 296.692ZM146.055 282.39C145.419 282.39 144.801 282.623 144.216 283.099C142.985 284.104 142.111 286.073 142.111 288.349C142.111 289.632 142.389 290.823 142.854 291.788C143.223 292.56 143.705 293.173 144.228 293.599C144.812 294.075 145.436 294.308 146.072 294.308C146.708 294.308 147.326 294.075 147.911 293.599C149.142 292.594 150.016 290.625 150.016 288.349C150.016 287.066 149.738 285.875 149.273 284.91C148.904 284.138 148.422 283.525 147.9 283.099C147.315 282.623 146.691 282.39 146.055 282.39ZM155.977 281.198C155.977 280.534 156.516 280.006 157.169 280.006H157.765C158.196 280.006 158.593 280.239 158.803 280.614L165.228 292.015V281.198C165.228 280.54 165.761 280.006 166.42 280.006C167.078 280.006 167.611 280.54 167.611 281.198V295.5C167.611 296.158 167.078 296.692 166.42 296.692H165.824C165.392 296.692 164.995 296.459 164.785 296.085L158.361 284.683V295.5C158.361 296.158 157.827 296.692 157.169 296.692C156.51 296.692 155.977 296.158 155.977 295.5V281.198Z" fill="black"/>
<path d="M183.25 98.0065C183.25 97.3161 182.69 96.7536 182 96.75C181.31 96.7464 180.75 97.3031 180.75 97.9935L182 98L183.25 98.0065ZM181.116 458.879C181.604 459.37 182.396 459.374 182.884 458.888L190.839 450.975C191.327 450.489 191.327 449.698 190.839 449.207C190.351 448.716 189.559 448.712 189.071 449.198L182 456.232L174.929 449.124C174.441 448.634 173.649 448.63 173.161 449.115C172.673 449.601 172.673 450.392 173.161 450.883L181.116 458.879ZM182 98L180.75 97.9935L180.75 457.993L182 458L183.25 458.006L183.25 98.0065L182 98Z" fill="black"/>
<path d="M209.505 13.5585C209.505 19.0613 212.601 23.5653 216.288 23.5653C219.557 23.5653 221.845 21.0045 222.109 17.9716C222.172 17.2361 222.79 16.664 223.534 16.664C224.324 16.664 224.969 17.3087 224.969 18.0988C224.969 18.1169 224.969 18.1623 224.96 18.2259C224.833 19.706 224.361 21.1044 223.616 22.3212C222.953 23.4018 222.063 24.3371 220.992 25.0363C219.657 25.9171 218.05 26.4347 216.288 26.4347C210.94 26.4347 206.635 20.6958 206.635 13.5585C206.635 6.42111 210.94 0.682178 216.288 0.682178C217.986 0.682178 219.521 1.18161 220.774 2.03519C221.773 2.71623 222.599 3.61521 223.226 4.62315C223.907 5.71283 224.397 7.00227 224.642 8.40976C224.66 8.49149 224.669 8.57321 224.669 8.65494C224.669 9.44495 224.025 10.0897 223.235 10.0897C222.526 10.0897 221.945 9.57208 221.827 8.90011C221.509 7.09307 220.61 5.38592 219.167 4.40522C218.377 3.86946 217.423 3.55165 216.288 3.55165C212.601 3.55165 209.505 8.05562 209.505 13.5585ZM230.667 13.5585C230.667 6.42111 234.971 0.682178 240.319 0.682178C245.668 0.682178 249.99 6.43019 249.99 13.5585C249.99 20.6958 245.695 26.4347 240.346 26.4347C234.998 26.4347 230.667 20.6867 230.667 13.5585ZM247.139 13.5585C247.139 8.04654 243.997 3.55165 240.319 3.55165C236.633 3.55165 233.536 8.05562 233.536 13.5585C233.536 19.0704 236.669 23.5653 240.346 23.5653C244.033 23.5653 247.139 19.0613 247.139 13.5585ZM257.133 26.4347C256.352 26.4347 255.698 25.7991 255.698 25V2.11691C255.698 1.3269 256.343 0.682178 257.133 0.682178H257.142C257.941 0.682178 258.576 1.33598 258.576 2.11691V23.5653H271.934C272.724 23.5653 273.36 24.2009 273.36 24.9909L273.369 25C273.369 25.79 272.724 26.4257 271.934 26.4257L257.133 26.4347ZM287.908 26.4347C283.014 26.4347 279.073 23.0477 279.073 18.8706V2.11691C279.073 1.3269 279.718 0.682178 280.508 0.682178C281.298 0.682178 281.942 1.3269 281.942 2.11691V18.8706C281.942 21.4586 284.63 23.5653 287.908 23.5653C291.186 23.5653 293.874 21.4586 293.874 18.8706V2.11691C293.874 1.3269 294.519 0.682178 295.309 0.682178C296.099 0.682178 296.744 1.3269 296.744 2.11691V18.8706C296.744 23.0477 292.803 26.4347 287.908 26.4347ZM321.699 26.4347C320.909 26.4347 320.264 25.79 320.264 25V7.91033L314.38 24.9818C314.18 25.5539 313.635 25.9444 313.027 25.9444H312.545C311.937 25.9444 311.401 25.5539 311.202 24.9818L305.317 7.89217V25C305.317 25.79 304.673 26.4347 303.883 26.4347C303.093 26.4347 302.448 25.79 302.448 25V2.11691C302.448 1.3269 303.093 0.682178 303.883 0.682178H304.836C305.444 0.682178 305.989 1.08172 306.189 1.6538L312.791 20.8229L319.392 1.6538C319.592 1.08172 320.137 0.691259 320.745 0.691259L321.69 0.682178C322.48 0.682178 323.115 1.3269 323.115 2.11691L323.124 25C323.124 25.79 322.489 26.4347 321.699 26.4347ZM346.485 25C346.485 25.79 345.849 26.4347 345.059 26.4347L344.105 26.4257C343.588 26.4257 343.116 26.1442 342.861 25.6992L331.692 5.87628V25C331.692 25.79 331.048 26.4347 330.258 26.4347C329.468 26.4347 328.823 25.79 328.823 25V2.11691C328.823 1.3269 329.468 0.682178 330.258 0.682178H331.211C331.729 0.682178 332.201 0.972757 332.455 1.41771L343.624 21.2406V2.11691C343.624 1.3269 344.269 0.682178 345.059 0.682178C345.849 0.682178 346.494 1.3269 346.494 2.11691L346.485 25Z" fill="black"/>
</svg>
