<svg width="556" height="514" viewBox="0 0 556 514" fill="none" xmlns="http://www.w3.org/2000/svg">
<path d="M376.884 97.1207C376.396 96.63 375.604 96.6259 375.116 97.1115L367.161 105.025C366.673 105.511 366.673 106.302 367.161 106.793C367.649 107.284 368.441 107.288 368.929 106.802L376 99.7678L383.071 106.876C383.559 107.366 384.351 107.37 384.839 106.885C385.327 106.399 385.327 105.608 384.839 105.117L376.884 97.1207ZM375.116 458.879C375.604 459.37 376.396 459.374 376.884 458.888L384.839 450.975C385.327 450.489 385.327 449.698 384.839 449.207C384.351 448.716 383.559 448.712 383.071 449.198L376 456.232L368.929 449.124C368.441 448.634 367.649 448.63 367.161 449.115C366.673 449.601 366.673 450.392 367.161 450.883L375.116 458.879ZM376 98L374.75 97.9935L374.75 457.993L376 458L377.25 458.006L377.25 98.0065L376 98Z" fill="black"/>
<path d="M393.948 283.808C394.907 283.808 395.957 282.98 396.082 281.935V270.698C396.082 270.04 396.615 269.506 397.274 269.506C397.932 269.506 398.465 270.04 398.465 270.698V281.998C398.465 282.037 398.465 282.072 398.46 282.106C398.25 284.398 396.156 286.192 393.948 286.192C391.519 286.192 389.538 284.387 389.328 282.111L389.198 280.687C389.198 280.664 389.192 280.624 389.192 280.573C389.192 279.915 389.725 279.381 390.384 279.381C391.002 279.381 391.513 279.852 391.57 280.46L391.7 281.884C391.797 282.968 392.779 283.808 393.948 283.808ZM407.861 286.192C404.631 286.192 402.043 283.939 402.043 281.169V270.698C402.043 270.04 402.577 269.506 403.235 269.506C403.894 269.506 404.427 270.04 404.427 270.698V281.169C404.427 282.616 405.982 283.808 407.861 283.808C409.739 283.808 411.294 282.616 411.294 281.169V270.698C411.294 270.04 411.828 269.506 412.486 269.506C413.144 269.506 413.678 270.04 413.678 270.698V281.169C413.678 283.939 411.09 286.192 407.861 286.192ZM429.409 281.175C429.409 283.933 426.77 286.192 423.263 286.192C422.332 286.192 421.492 286.022 420.76 285.715C419.841 285.329 419.108 284.733 418.558 284.052C418.127 283.519 417.4 282.406 417.264 280.846C417.258 280.812 417.258 280.778 417.258 280.743C417.258 280.085 417.792 279.552 418.45 279.552C419.074 279.552 419.579 280.028 419.636 280.636C419.665 280.982 419.806 281.805 420.414 282.56C420.93 283.195 421.799 283.808 423.263 283.808C425.38 283.808 427.026 282.616 427.026 281.175C427.026 280.278 426.668 279.711 425.822 279.274C425.175 278.939 424.279 278.706 423.104 278.547C421.407 278.314 419.279 277.883 418.32 276.078C418.002 275.482 417.848 274.79 417.848 274.03C417.848 271.532 420.255 269.506 423.263 269.506C424.018 269.506 424.784 269.648 425.51 269.949C425.919 270.119 427.411 270.783 428.115 272.554C428.268 272.934 428.388 273.383 428.444 273.905C428.45 273.944 428.45 273.99 428.45 274.03C428.45 274.688 427.917 275.221 427.258 275.221C426.64 275.221 426.135 274.75 426.072 274.149C425.885 272.333 424.25 271.89 423.263 271.89C421.6 271.89 420.232 272.883 420.232 274.03C420.232 274.904 420.55 275.301 421.112 275.596C421.64 275.874 422.4 276.044 423.433 276.186C425.283 276.442 427.355 276.941 428.53 278.456C429.018 279.086 429.409 279.966 429.409 281.175ZM432.981 270.698C432.981 270.034 433.52 269.506 434.173 269.506H444.899C445.552 269.506 446.091 270.034 446.091 270.698V270.704C446.091 271.362 445.558 271.896 444.899 271.896H440.733V285C440.733 285.658 440.2 286.192 439.542 286.192C438.883 286.192 438.35 285.658 438.35 285L438.344 271.896H434.173C433.514 271.896 432.981 271.362 432.981 270.704V270.698ZM450.852 286.192C450.2 286.192 449.661 285.664 449.661 285V270.698C449.661 270.034 450.2 269.506 450.852 269.506H450.858C451.516 269.506 452.05 270.04 452.05 270.698V285C452.05 285.664 451.511 286.192 450.858 286.192H450.852ZM455.618 270.698C455.618 270.034 456.157 269.506 456.809 269.506H465.674C466.333 269.506 466.866 270.04 466.866 270.698V270.704C466.866 271.362 466.333 271.896 465.674 271.896H458.007V276.209H463.103C463.762 276.209 464.295 276.742 464.295 277.401V277.406C464.295 278.059 463.762 278.598 463.103 278.598H458.007V285C458.007 285.664 457.468 286.192 456.815 286.192H456.809C456.196 286.192 455.68 285.726 455.623 285.108C455.618 285.074 455.618 285.034 455.618 285V270.698ZM477.525 285C477.525 285.653 476.997 286.192 476.333 286.192H476.327C475.669 286.192 475.135 285.658 475.135 285V277.775L470.657 271.379C470.521 271.186 470.442 270.953 470.442 270.698C470.442 270.04 470.975 269.506 471.634 269.506C472.037 269.506 472.394 269.705 472.61 270.011L476.327 275.323L480.045 270.011C480.26 269.705 480.618 269.506 481.021 269.506C481.679 269.506 482.213 270.04 482.213 270.698C482.213 270.953 482.133 271.186 481.997 271.379L477.525 277.775V285Z" fill="black"/>
<rect width="144" height="360" transform="translate(206 98)" fill="#FFD700"/>
<path opacity="0.5" d="M222.363 114.844V114.646C222.363 111.352 223.281 108.202 226.485 108.112C228.087 108.112 229.347 109.066 229.653 110.434V110.614C229.653 111.1 229.257 111.514 228.771 111.514C227.889 111.514 228.015 110.578 227.511 110.2C227.223 109.984 226.881 109.912 226.521 109.912C224.541 110.038 224.163 112.378 224.163 114.484V114.808C224.199 116.86 224.451 119.434 226.611 119.434C227.259 119.434 227.781 119.128 227.889 118.57C227.961 118.174 228.339 117.832 228.771 117.832C229.257 117.832 229.653 118.246 229.653 118.732V118.894C229.419 120.262 228.195 121.234 226.611 121.234C223.281 121.234 222.399 118.066 222.363 114.844ZM234.507 116.266C234.507 113.422 236.073 111.208 239.007 111.208C241.851 111.208 243.507 113.422 243.507 116.266C243.507 119.074 241.887 121.288 239.007 121.288C236.109 121.288 234.507 119.11 234.507 116.266ZM236.307 116.266C236.307 118.048 237.153 119.488 239.007 119.488C240.861 119.488 241.707 118.048 241.707 116.266C241.707 114.466 240.825 113.008 239.007 113.008C237.171 113.008 236.307 114.484 236.307 116.266ZM247.766 120.334V112.252C247.766 111.766 248.18 111.37 248.666 111.37C249.152 111.37 249.566 111.766 249.566 112.252V112.414C250.322 111.748 251.294 111.298 252.518 111.298C255.218 111.298 256.262 113.17 256.262 115.852V120.334C256.262 120.82 255.83 121.234 255.362 121.234C254.876 121.234 254.462 120.838 254.462 120.334V115.852C254.462 114.232 254.156 113.098 252.518 113.098C250.988 113.098 250.016 114.376 249.566 115.528V120.334C249.566 120.82 249.152 121.234 248.666 121.234C248.18 121.234 247.766 120.82 247.766 120.334ZM260.774 112.414C260.774 111.928 261.188 111.514 261.674 111.514H263.06L263.096 109.696C263.096 109.174 263.492 108.796 263.996 108.796C264.5 108.796 264.896 109.21 264.896 109.696L264.86 111.514H267.542C268.028 111.514 268.442 111.928 268.442 112.414C268.442 112.9 268.028 113.314 267.542 113.314H264.824L264.77 117.418C264.77 118.624 264.77 119.434 266.012 119.434C266.408 119.416 266.804 119.326 267.146 119.164C267.272 119.11 267.398 119.074 267.542 119.074C268.028 119.074 268.442 119.488 268.442 119.974C268.442 120.892 267.236 121.234 266.12 121.234C265.58 121.234 265.04 121.144 264.698 121.018C263.384 120.514 262.97 119.308 262.97 117.598V117.382L263.024 113.314H261.674C261.188 113.314 260.774 112.9 260.774 112.414ZM273.782 118.228C273.782 115.132 276.932 114.916 280.064 114.898C280.01 114.358 279.92 113.8 279.524 113.44C279.128 113.062 278.57 113.008 278.03 113.008C277.31 113.008 276.626 113.242 276.068 113.692C275.906 113.818 275.708 113.872 275.51 113.872C275.006 113.872 274.61 113.476 274.61 112.972C274.61 112.72 274.736 112.378 274.952 112.27C275.834 111.586 276.914 111.208 278.03 111.208C279.02 111.208 280.028 111.442 280.748 112.108C281.468 112.792 281.864 113.764 281.864 114.754V120.334C281.864 120.82 281.45 121.234 280.964 121.234C280.478 121.234 280.064 120.838 280.064 120.334V120.19C279.29 120.82 278.336 121.288 277.184 121.288H276.932C275.42 121.162 273.782 120.028 273.782 118.228ZM275.582 118.228C275.582 119.002 276.446 119.452 277.058 119.488H277.202C278.552 119.488 279.488 118.336 280.064 117.4V116.68C279.668 116.662 279.254 116.644 278.822 116.644C277.202 116.644 275.582 116.878 275.582 118.228ZM287.762 112.468C287.762 111.982 288.158 111.568 288.662 111.568H291.902C292.406 111.568 292.802 111.964 292.802 112.468V120.334C292.802 120.838 292.388 121.234 291.902 121.234C291.416 121.234 291.002 120.82 291.002 120.334V113.368H288.662C288.176 113.368 287.762 112.954 287.762 112.468ZM290.246 108.814V107.986C290.246 107.482 290.66 107.086 291.146 107.086H291.956C292.442 107.086 292.856 107.482 292.856 107.986V108.814C292.856 109.318 292.442 109.714 291.956 109.714H291.146C290.66 109.714 290.246 109.318 290.246 108.814ZM299.798 120.334V112.252C299.798 111.766 300.212 111.37 300.698 111.37C301.184 111.37 301.598 111.766 301.598 112.252V112.414C302.354 111.748 303.326 111.298 304.55 111.298C307.25 111.298 308.294 113.17 308.294 115.852V120.334C308.294 120.82 307.862 121.234 307.394 121.234C306.908 121.234 306.494 120.838 306.494 120.334V115.852C306.494 114.232 306.188 113.098 304.55 113.098C303.02 113.098 302.048 114.376 301.598 115.528V120.334C301.598 120.82 301.184 121.234 300.698 121.234C300.212 121.234 299.798 120.82 299.798 120.334ZM312.806 116.068C312.806 113.386 314.336 111.262 317.036 111.208H317.144C319.88 111.208 321.302 113.188 321.302 115.852C321.302 116.338 320.888 116.752 320.402 116.752H314.642C314.804 118.372 315.614 119.488 317.324 119.488C317.522 119.488 317.72 119.488 317.936 119.452C318.314 119.362 318.602 119.254 318.836 119.02C318.998 118.858 319.214 118.768 319.448 118.768C319.952 118.768 320.366 119.164 320.366 119.668C320.366 120.856 318.854 121.27 317.45 121.27C316.802 121.27 316.19 121.18 315.74 121.036C313.814 120.388 312.806 118.534 312.806 116.068ZM314.732 114.952H319.358C319.106 113.728 318.638 113.008 317.072 113.008C315.794 113.008 315.038 113.836 314.732 114.952ZM327.199 120.334V112.252C327.199 111.766 327.613 111.37 328.099 111.37C328.603 111.37 328.999 111.748 328.999 112.252C329.665 111.658 330.529 111.298 331.609 111.298C333.193 111.298 334.237 112.432 334.255 113.8C334.255 114.286 333.841 114.7 333.355 114.7C332.869 114.7 332.455 114.304 332.455 113.8C332.437 113.476 332.221 113.224 331.897 113.152C331.807 113.152 331.699 113.098 331.609 113.098C331.483 113.098 331.357 113.152 331.231 113.152C329.791 113.35 328.999 114.952 328.999 116.302V120.334C328.999 120.838 328.585 121.234 328.099 121.234C327.613 121.234 327.199 120.82 327.199 120.334Z" fill="black"/>
<mask id="path-4-inside-1_392_65" fill="white">
<path d="M242 134H314V206H242V134Z"/>
</mask>
<path d="M242 134H314V206H242V134Z" fill="black"/>
<path d="M242 134H314V206H242V134Z" fill="#FF6347"/>
<path d="M314 206V208H316V206H314ZM314 134H312V206H314H316V134H314ZM314 206V204H242V206V208H314V206Z" fill="#B22222" mask="url(#path-4-inside-1_392_65)"/>
<path opacity="0.5" d="M255.764 161.28V150.282C255.764 149.796 256.16 149.382 256.664 149.382H261.596C262.1 149.382 262.496 149.778 262.496 150.282C262.496 150.786 262.082 151.182 261.596 151.182H257.564V154.512H260.786C261.254 154.512 261.686 154.926 261.686 155.412C261.686 155.898 261.272 156.312 260.786 156.312H257.564V161.28C257.564 161.766 257.15 162.18 256.664 162.18C256.178 162.18 255.764 161.766 255.764 161.28ZM269.546 157.896L269.654 148.986C269.654 148.482 270.068 148.086 270.554 148.086C271.04 148.086 271.454 148.5 271.454 148.986L271.328 157.896C271.328 159.174 271.526 160.128 272.696 160.29C272.948 160.326 273.632 160.326 274.1 160.326C274.586 160.326 275 160.74 275 161.226C275 161.712 274.586 162.126 274.1 162.126C272.264 162.126 271.076 161.964 270.302 160.902C269.654 160.11 269.546 159.174 269.546 157.896ZM280.286 157.068C280.286 154.386 281.816 152.262 284.516 152.208H284.624C287.36 152.208 288.782 154.188 288.782 156.852C288.782 157.338 288.368 157.752 287.882 157.752H282.122C282.284 159.372 283.094 160.488 284.804 160.488C285.002 160.488 285.2 160.488 285.416 160.452C285.794 160.362 286.082 160.254 286.316 160.02C286.478 159.858 286.694 159.768 286.928 159.768C287.432 159.768 287.846 160.164 287.846 160.668C287.846 161.856 286.334 162.27 284.93 162.27C284.282 162.27 283.67 162.18 283.22 162.036C281.294 161.388 280.286 159.534 280.286 157.068ZM282.212 155.952H286.838C286.586 154.728 286.118 154.008 284.552 154.008C283.274 154.008 282.518 154.836 282.212 155.952ZM293.654 161.334C293.654 161.154 293.708 160.974 293.816 160.812L296.336 157.212L294.014 153.756C293.924 153.612 293.87 153.432 293.87 153.252C293.87 152.748 294.284 152.352 294.77 152.352C295.004 152.352 295.292 152.424 295.418 152.604L297.542 155.754L299.666 152.604C299.828 152.442 300.08 152.352 300.314 152.352C300.8 152.352 301.214 152.766 301.214 153.252C301.214 153.432 301.16 153.612 301.07 153.756L298.73 157.212L301.25 160.812C301.358 160.974 301.43 161.154 301.43 161.334C301.43 161.82 300.998 162.234 300.53 162.234C300.278 162.234 300.026 162.198 299.864 161.982L297.542 158.652L295.202 161.982C295.04 162.162 294.788 162.234 294.554 162.234C294.068 162.234 293.654 161.82 293.654 161.334ZM255.044 186.082C255.044 185.596 255.44 185.182 255.944 185.182H257.618V176.182H256.304C255.818 176.182 255.404 175.768 255.404 175.282C255.404 174.796 255.8 174.382 256.304 174.382H260.732C261.236 174.382 261.632 174.796 261.632 175.282C261.632 175.768 261.218 176.182 260.732 176.182H259.418V185.182H261.092C261.596 185.182 261.992 185.596 261.992 186.082C261.992 186.568 261.578 186.982 261.092 186.982H255.944C255.458 186.982 255.044 186.568 255.044 186.082ZM267.278 178.414C267.278 177.928 267.692 177.514 268.178 177.514H269.564L269.6 175.696C269.6 175.174 269.996 174.796 270.5 174.796C271.004 174.796 271.4 175.21 271.4 175.696L271.364 177.514H274.046C274.532 177.514 274.946 177.928 274.946 178.414C274.946 178.9 274.532 179.314 274.046 179.314H271.328L271.274 183.418C271.274 184.624 271.274 185.434 272.516 185.434C272.912 185.416 273.308 185.326 273.65 185.164C273.776 185.11 273.902 185.074 274.046 185.074C274.532 185.074 274.946 185.488 274.946 185.974C274.946 186.892 273.74 187.234 272.624 187.234C272.084 187.234 271.544 187.144 271.202 187.018C269.888 186.514 269.474 185.308 269.474 183.598V183.382L269.528 179.314H268.178C267.692 179.314 267.278 178.9 267.278 178.414ZM280.286 182.068C280.286 179.386 281.816 177.262 284.516 177.208H284.624C287.36 177.208 288.782 179.188 288.782 181.852C288.782 182.338 288.368 182.752 287.882 182.752H282.122C282.284 184.372 283.094 185.488 284.804 185.488C285.002 185.488 285.2 185.488 285.416 185.452C285.794 185.362 286.082 185.254 286.316 185.02C286.478 184.858 286.694 184.768 286.928 184.768C287.432 184.768 287.846 185.164 287.846 185.668C287.846 186.856 286.334 187.27 284.93 187.27C284.282 187.27 283.67 187.18 283.22 187.036C281.294 186.388 280.286 184.534 280.286 182.068ZM282.212 180.952H286.838C286.586 179.728 286.118 179.008 284.552 179.008C283.274 179.008 282.518 179.836 282.212 180.952ZM293.042 186.334V178.252C293.042 177.748 293.456 177.352 293.942 177.352C294.248 177.352 294.518 177.514 294.68 177.766C295.076 177.478 295.544 177.298 296.102 177.298C296.84 177.298 297.47 177.64 297.884 178.144C298.352 177.64 298.982 177.298 299.702 177.298C301.07 177.298 302.042 178.468 302.042 179.728V186.334C302.042 186.82 301.628 187.234 301.142 187.234C300.656 187.234 300.242 186.838 300.242 186.334V179.872C300.224 179.548 300.098 179.098 299.702 179.098C298.928 179.098 298.442 180.61 298.442 181.33V186.334C298.442 186.82 298.028 187.234 297.542 187.234C297.056 187.234 296.642 186.838 296.642 186.334V179.872C296.624 179.548 296.498 179.098 296.102 179.098C295.31 179.098 294.896 180.628 294.842 181.33V186.334C294.842 186.82 294.428 187.234 293.942 187.234C293.456 187.234 293.042 186.838 293.042 186.334Z" fill="black"/>
<mask id="path-7-inside-2_392_65" fill="white">
<path d="M242 242H314V314H242V242Z"/>
</mask>
<path d="M242 242H314V314H242V242Z" fill="black"/>
<path d="M242 242H314V314H242V242Z" fill="#FF6347"/>
<path d="M314 314V316H316V314H314ZM314 242H312V314H314H316V242H314ZM314 314V312H242V314V316H314V314Z" fill="#B22222" mask="url(#path-7-inside-2_392_65)"/>
<path opacity="0.5" d="M255.764 269.28V258.282C255.764 257.796 256.16 257.382 256.664 257.382H261.596C262.1 257.382 262.496 257.778 262.496 258.282C262.496 258.786 262.082 259.182 261.596 259.182H257.564V262.512H260.786C261.254 262.512 261.686 262.926 261.686 263.412C261.686 263.898 261.272 264.312 260.786 264.312H257.564V269.28C257.564 269.766 257.15 270.18 256.664 270.18C256.178 270.18 255.764 269.766 255.764 269.28ZM269.546 265.896L269.654 256.986C269.654 256.482 270.068 256.086 270.554 256.086C271.04 256.086 271.454 256.5 271.454 256.986L271.328 265.896C271.328 267.174 271.526 268.128 272.696 268.29C272.948 268.326 273.632 268.326 274.1 268.326C274.586 268.326 275 268.74 275 269.226C275 269.712 274.586 270.126 274.1 270.126C272.264 270.126 271.076 269.964 270.302 268.902C269.654 268.11 269.546 267.174 269.546 265.896ZM280.286 265.068C280.286 262.386 281.816 260.262 284.516 260.208H284.624C287.36 260.208 288.782 262.188 288.782 264.852C288.782 265.338 288.368 265.752 287.882 265.752H282.122C282.284 267.372 283.094 268.488 284.804 268.488C285.002 268.488 285.2 268.488 285.416 268.452C285.794 268.362 286.082 268.254 286.316 268.02C286.478 267.858 286.694 267.768 286.928 267.768C287.432 267.768 287.846 268.164 287.846 268.668C287.846 269.856 286.334 270.27 284.93 270.27C284.282 270.27 283.67 270.18 283.22 270.036C281.294 269.388 280.286 267.534 280.286 265.068ZM282.212 263.952H286.838C286.586 262.728 286.118 262.008 284.552 262.008C283.274 262.008 282.518 262.836 282.212 263.952ZM293.654 269.334C293.654 269.154 293.708 268.974 293.816 268.812L296.336 265.212L294.014 261.756C293.924 261.612 293.87 261.432 293.87 261.252C293.87 260.748 294.284 260.352 294.77 260.352C295.004 260.352 295.292 260.424 295.418 260.604L297.542 263.754L299.666 260.604C299.828 260.442 300.08 260.352 300.314 260.352C300.8 260.352 301.214 260.766 301.214 261.252C301.214 261.432 301.16 261.612 301.07 261.756L298.73 265.212L301.25 268.812C301.358 268.974 301.43 269.154 301.43 269.334C301.43 269.82 300.998 270.234 300.53 270.234C300.278 270.234 300.026 270.198 299.864 269.982L297.542 266.652L295.202 269.982C295.04 270.162 294.788 270.234 294.554 270.234C294.068 270.234 293.654 269.82 293.654 269.334ZM255.044 294.082C255.044 293.596 255.44 293.182 255.944 293.182H257.618V284.182H256.304C255.818 284.182 255.404 283.768 255.404 283.282C255.404 282.796 255.8 282.382 256.304 282.382H260.732C261.236 282.382 261.632 282.796 261.632 283.282C261.632 283.768 261.218 284.182 260.732 284.182H259.418V293.182H261.092C261.596 293.182 261.992 293.596 261.992 294.082C261.992 294.568 261.578 294.982 261.092 294.982H255.944C255.458 294.982 255.044 294.568 255.044 294.082ZM267.278 286.414C267.278 285.928 267.692 285.514 268.178 285.514H269.564L269.6 283.696C269.6 283.174 269.996 282.796 270.5 282.796C271.004 282.796 271.4 283.21 271.4 283.696L271.364 285.514H274.046C274.532 285.514 274.946 285.928 274.946 286.414C274.946 286.9 274.532 287.314 274.046 287.314H271.328L271.274 291.418C271.274 292.624 271.274 293.434 272.516 293.434C272.912 293.416 273.308 293.326 273.65 293.164C273.776 293.11 273.902 293.074 274.046 293.074C274.532 293.074 274.946 293.488 274.946 293.974C274.946 294.892 273.74 295.234 272.624 295.234C272.084 295.234 271.544 295.144 271.202 295.018C269.888 294.514 269.474 293.308 269.474 291.598V291.382L269.528 287.314H268.178C267.692 287.314 267.278 286.9 267.278 286.414ZM280.286 290.068C280.286 287.386 281.816 285.262 284.516 285.208H284.624C287.36 285.208 288.782 287.188 288.782 289.852C288.782 290.338 288.368 290.752 287.882 290.752H282.122C282.284 292.372 283.094 293.488 284.804 293.488C285.002 293.488 285.2 293.488 285.416 293.452C285.794 293.362 286.082 293.254 286.316 293.02C286.478 292.858 286.694 292.768 286.928 292.768C287.432 292.768 287.846 293.164 287.846 293.668C287.846 294.856 286.334 295.27 284.93 295.27C284.282 295.27 283.67 295.18 283.22 295.036C281.294 294.388 280.286 292.534 280.286 290.068ZM282.212 288.952H286.838C286.586 287.728 286.118 287.008 284.552 287.008C283.274 287.008 282.518 287.836 282.212 288.952ZM293.042 294.334V286.252C293.042 285.748 293.456 285.352 293.942 285.352C294.248 285.352 294.518 285.514 294.68 285.766C295.076 285.478 295.544 285.298 296.102 285.298C296.84 285.298 297.47 285.64 297.884 286.144C298.352 285.64 298.982 285.298 299.702 285.298C301.07 285.298 302.042 286.468 302.042 287.728V294.334C302.042 294.82 301.628 295.234 301.142 295.234C300.656 295.234 300.242 294.838 300.242 294.334V287.872C300.224 287.548 300.098 287.098 299.702 287.098C298.928 287.098 298.442 288.61 298.442 289.33V294.334C298.442 294.82 298.028 295.234 297.542 295.234C297.056 295.234 296.642 294.838 296.642 294.334V287.872C296.624 287.548 296.498 287.098 296.102 287.098C295.31 287.098 294.896 288.628 294.842 289.33V294.334C294.842 294.82 294.428 295.234 293.942 295.234C293.456 295.234 293.042 294.838 293.042 294.334Z" fill="black"/>
<mask id="path-10-inside-3_392_65" fill="white">
<path d="M242 350H314V422H242V350Z"/>
</mask>
<path d="M242 350H314V422H242V350Z" fill="black"/>
<path d="M242 350H314V422H242V350Z" fill="#FF6347"/>
<path d="M314 422V424H316V422H314ZM314 350H312V422H314H316V350H314ZM314 422V420H242V422V424H314V422Z" fill="#B22222" mask="url(#path-10-inside-3_392_65)"/>
<path opacity="0.5" d="M255.764 377.28V366.282C255.764 365.796 256.16 365.382 256.664 365.382H261.596C262.1 365.382 262.496 365.778 262.496 366.282C262.496 366.786 262.082 367.182 261.596 367.182H257.564V370.512H260.786C261.254 370.512 261.686 370.926 261.686 371.412C261.686 371.898 261.272 372.312 260.786 372.312H257.564V377.28C257.564 377.766 257.15 378.18 256.664 378.18C256.178 378.18 255.764 377.766 255.764 377.28ZM269.546 373.896L269.654 364.986C269.654 364.482 270.068 364.086 270.554 364.086C271.04 364.086 271.454 364.5 271.454 364.986L271.328 373.896C271.328 375.174 271.526 376.128 272.696 376.29C272.948 376.326 273.632 376.326 274.1 376.326C274.586 376.326 275 376.74 275 377.226C275 377.712 274.586 378.126 274.1 378.126C272.264 378.126 271.076 377.964 270.302 376.902C269.654 376.11 269.546 375.174 269.546 373.896ZM280.286 373.068C280.286 370.386 281.816 368.262 284.516 368.208H284.624C287.36 368.208 288.782 370.188 288.782 372.852C288.782 373.338 288.368 373.752 287.882 373.752H282.122C282.284 375.372 283.094 376.488 284.804 376.488C285.002 376.488 285.2 376.488 285.416 376.452C285.794 376.362 286.082 376.254 286.316 376.02C286.478 375.858 286.694 375.768 286.928 375.768C287.432 375.768 287.846 376.164 287.846 376.668C287.846 377.856 286.334 378.27 284.93 378.27C284.282 378.27 283.67 378.18 283.22 378.036C281.294 377.388 280.286 375.534 280.286 373.068ZM282.212 371.952H286.838C286.586 370.728 286.118 370.008 284.552 370.008C283.274 370.008 282.518 370.836 282.212 371.952ZM293.654 377.334C293.654 377.154 293.708 376.974 293.816 376.812L296.336 373.212L294.014 369.756C293.924 369.612 293.87 369.432 293.87 369.252C293.87 368.748 294.284 368.352 294.77 368.352C295.004 368.352 295.292 368.424 295.418 368.604L297.542 371.754L299.666 368.604C299.828 368.442 300.08 368.352 300.314 368.352C300.8 368.352 301.214 368.766 301.214 369.252C301.214 369.432 301.16 369.612 301.07 369.756L298.73 373.212L301.25 376.812C301.358 376.974 301.43 377.154 301.43 377.334C301.43 377.82 300.998 378.234 300.53 378.234C300.278 378.234 300.026 378.198 299.864 377.982L297.542 374.652L295.202 377.982C295.04 378.162 294.788 378.234 294.554 378.234C294.068 378.234 293.654 377.82 293.654 377.334ZM255.044 402.082C255.044 401.596 255.44 401.182 255.944 401.182H257.618V392.182H256.304C255.818 392.182 255.404 391.768 255.404 391.282C255.404 390.796 255.8 390.382 256.304 390.382H260.732C261.236 390.382 261.632 390.796 261.632 391.282C261.632 391.768 261.218 392.182 260.732 392.182H259.418V401.182H261.092C261.596 401.182 261.992 401.596 261.992 402.082C261.992 402.568 261.578 402.982 261.092 402.982H255.944C255.458 402.982 255.044 402.568 255.044 402.082ZM267.278 394.414C267.278 393.928 267.692 393.514 268.178 393.514H269.564L269.6 391.696C269.6 391.174 269.996 390.796 270.5 390.796C271.004 390.796 271.4 391.21 271.4 391.696L271.364 393.514H274.046C274.532 393.514 274.946 393.928 274.946 394.414C274.946 394.9 274.532 395.314 274.046 395.314H271.328L271.274 399.418C271.274 400.624 271.274 401.434 272.516 401.434C272.912 401.416 273.308 401.326 273.65 401.164C273.776 401.11 273.902 401.074 274.046 401.074C274.532 401.074 274.946 401.488 274.946 401.974C274.946 402.892 273.74 403.234 272.624 403.234C272.084 403.234 271.544 403.144 271.202 403.018C269.888 402.514 269.474 401.308 269.474 399.598V399.382L269.528 395.314H268.178C267.692 395.314 267.278 394.9 267.278 394.414ZM280.286 398.068C280.286 395.386 281.816 393.262 284.516 393.208H284.624C287.36 393.208 288.782 395.188 288.782 397.852C288.782 398.338 288.368 398.752 287.882 398.752H282.122C282.284 400.372 283.094 401.488 284.804 401.488C285.002 401.488 285.2 401.488 285.416 401.452C285.794 401.362 286.082 401.254 286.316 401.02C286.478 400.858 286.694 400.768 286.928 400.768C287.432 400.768 287.846 401.164 287.846 401.668C287.846 402.856 286.334 403.27 284.93 403.27C284.282 403.27 283.67 403.18 283.22 403.036C281.294 402.388 280.286 400.534 280.286 398.068ZM282.212 396.952H286.838C286.586 395.728 286.118 395.008 284.552 395.008C283.274 395.008 282.518 395.836 282.212 396.952ZM293.042 402.334V394.252C293.042 393.748 293.456 393.352 293.942 393.352C294.248 393.352 294.518 393.514 294.68 393.766C295.076 393.478 295.544 393.298 296.102 393.298C296.84 393.298 297.47 393.64 297.884 394.144C298.352 393.64 298.982 393.298 299.702 393.298C301.07 393.298 302.042 394.468 302.042 395.728V402.334C302.042 402.82 301.628 403.234 301.142 403.234C300.656 403.234 300.242 402.838 300.242 402.334V395.872C300.224 395.548 300.098 395.098 299.702 395.098C298.928 395.098 298.442 396.61 298.442 397.33V402.334C298.442 402.82 298.028 403.234 297.542 403.234C297.056 403.234 296.642 402.838 296.642 402.334V395.872C296.624 395.548 296.498 395.098 296.102 395.098C295.31 395.098 294.896 396.628 294.842 397.33V402.334C294.842 402.82 294.428 403.234 293.942 403.234C293.456 403.234 293.042 402.838 293.042 402.334Z" fill="black"/>
<path d="M205.118 481.116C204.629 481.604 204.627 482.396 205.114 482.884L213.053 490.839C213.54 491.327 214.331 491.327 214.82 490.839C215.31 490.351 215.311 489.559 214.824 489.071L207.768 482L214.854 474.929C215.343 474.441 215.344 473.649 214.857 473.161C214.37 472.673 213.579 472.673 213.089 473.161L205.118 481.116ZM350.882 482.884C351.371 482.396 351.373 481.604 350.886 481.116L342.947 473.161C342.46 472.673 341.669 472.673 341.18 473.161C340.69 473.649 340.689 474.441 341.176 474.929L348.232 482L341.146 489.071C340.657 489.559 340.656 490.351 341.143 490.839C341.63 491.327 342.421 491.327 342.911 490.839L350.882 482.884ZM206 482L205.997 483.25H349.997L350 482L350.003 480.75H206.003L206 482Z" fill="black"/>
<path d="M251.719 496.564L249.886 502.041H253.546L251.719 496.564ZM257.99 508C257.99 508.658 257.457 509.192 256.798 509.192C256.27 509.192 255.828 508.851 255.669 508.38L254.341 504.425H249.091L247.763 508.38C247.604 508.851 247.161 509.192 246.634 509.192C245.975 509.192 245.442 508.658 245.442 508C245.442 507.869 245.465 507.739 245.504 507.62L250.289 493.318C250.453 492.835 250.907 492.506 251.418 492.506H252.014C252.525 492.506 252.979 492.835 253.143 493.318L257.928 507.62C257.967 507.739 257.99 507.869 257.99 508ZM273.209 508C273.209 508.658 272.676 509.192 272.017 509.192H262.766C262.154 509.192 261.637 508.726 261.58 508.108C261.575 508.074 261.575 508.034 261.575 508V493.698C261.575 493.034 262.114 492.506 262.766 492.506H262.772C263.43 492.506 263.964 493.04 263.964 493.698V506.802H272.017C272.676 506.802 273.209 507.336 273.209 507.994V508ZM277.981 509.192C277.329 509.192 276.789 508.664 276.789 508V493.698C276.789 493.034 277.329 492.506 277.981 492.506H277.987C278.645 492.506 279.179 493.04 279.179 493.698V508C279.179 508.664 278.64 509.192 277.987 509.192H277.981ZM289.557 503.159C288.899 503.159 288.365 502.625 288.365 501.967C288.365 501.309 288.899 500.775 289.557 500.775H292.974C293.632 500.775 294.165 501.309 294.165 501.967L294.16 505.509C294.16 505.73 294.097 505.946 293.984 506.133V506.138C292.894 507.904 291.152 509.192 289.075 509.192C287.82 509.192 286.674 508.715 285.732 507.949C283.927 506.473 282.747 503.84 282.747 500.849C282.747 496.218 285.567 492.506 289.075 492.506C290.431 492.506 291.663 493.068 292.644 493.942C293.223 494.459 293.706 495.327 294.12 496.882C294.148 496.978 294.16 497.081 294.16 497.188C294.16 497.847 293.626 498.38 292.968 498.38C292.417 498.38 291.952 498.006 291.816 497.495C291.651 496.882 291.475 496.417 291.322 496.116C291.197 495.872 291.089 495.747 291.055 495.719C290.431 495.162 289.756 494.89 289.075 494.89C288.439 494.89 287.82 495.123 287.236 495.599C286.004 496.604 285.13 498.573 285.13 500.849C285.13 502.137 285.414 503.323 285.874 504.288C286.243 505.06 286.719 505.679 287.236 506.099C287.82 506.575 288.439 506.808 289.075 506.808C290.028 506.808 291.004 506.258 291.776 505.151L291.782 503.159H289.557ZM297.727 493.698C297.727 493.034 298.266 492.506 298.919 492.506H299.515C299.946 492.506 300.343 492.739 300.553 493.114L306.978 504.515V493.698C306.978 493.04 307.511 492.506 308.17 492.506C308.828 492.506 309.361 493.04 309.361 493.698V508C309.361 508.658 308.828 509.192 308.17 509.192H307.574C307.142 509.192 306.745 508.959 306.535 508.585L300.111 497.183V508C300.111 508.658 299.577 509.192 298.919 509.192C298.26 509.192 297.727 508.658 297.727 508V493.698Z" fill="black"/>
<path d="M367.782 488.897C367.294 488.897 366.885 488.499 366.885 488V473.698C366.885 473.204 367.288 472.801 367.782 472.801H376.647C377.141 472.801 377.538 473.204 377.538 473.698V473.704C377.538 474.198 377.141 474.595 376.647 474.595H368.679V479.51H374.076C374.57 479.51 374.967 479.907 374.967 480.401V480.406C374.967 480.9 374.57 481.303 374.076 481.303H368.679V487.103H377.033C377.527 487.103 377.924 487.501 377.924 487.994L377.93 488C377.93 488.494 377.527 488.891 377.033 488.891L367.782 488.897ZM381.495 479.396C381.495 478.902 381.898 478.499 382.391 478.499C382.709 478.499 382.993 478.67 383.152 478.925C383.708 478.573 384.361 478.363 385.07 478.363C387.045 478.363 388.646 479.964 388.646 481.939V488C388.646 488.494 388.243 488.897 387.749 488.897C387.255 488.897 386.852 488.494 386.852 488V481.939C386.852 480.951 386.058 480.157 385.07 480.157C384.083 480.157 383.288 480.946 383.288 481.939L383.282 488C383.282 488.494 382.885 488.897 382.391 488.897C381.898 488.897 381.495 488.494 381.495 488V479.396ZM397.762 488.539C397.376 488.783 396.809 489.033 396.094 489.033C395.293 489.033 394.573 488.704 393.999 488.204C393.489 487.762 393.091 487.171 392.796 486.513C392.427 485.684 392.217 484.725 392.217 483.698C392.217 482.671 392.427 481.712 392.796 480.883C393.091 480.225 393.489 479.635 393.999 479.192C394.573 478.692 395.293 478.363 396.094 478.363C396.485 478.363 397.019 478.443 397.586 478.766V473.698C397.586 473.204 397.984 472.801 398.477 472.801C398.971 472.801 399.368 473.204 399.368 473.698V488.006C399.368 488.499 398.971 488.897 398.477 488.897C398.182 488.897 397.927 488.755 397.762 488.539ZM397.586 481.286C397.382 480.917 396.86 480.157 396.094 480.157C395.015 480.157 394.011 481.729 394.011 483.698C394.011 485.667 395.015 487.24 396.094 487.24C396.86 487.24 397.359 486.558 397.586 486.156V481.286Z" fill="black" fill-opacity="0.5"/>
<path d="M144.94 484.175C144.94 486.774 142.426 488.897 139.095 488.897C138.204 488.897 137.404 488.726 136.705 488.437C135.837 488.074 135.145 487.512 134.623 486.865C134.191 486.331 133.522 485.287 133.391 483.823C133.391 483.8 133.385 483.772 133.385 483.743C133.385 483.25 133.788 482.847 134.282 482.847C134.747 482.847 135.133 483.21 135.173 483.664C135.236 484.351 135.514 485.123 136.013 485.747C136.552 486.417 137.494 487.103 139.095 487.103C141.382 487.103 143.153 485.787 143.153 484.175C143.153 483.034 142.636 482.132 140.673 481.587C140.15 481.445 139.572 481.331 138.976 481.252C137.273 481.019 135.292 480.605 134.413 478.942C134.123 478.392 133.981 477.75 133.981 477.03C133.981 474.697 136.257 472.801 139.095 472.801C139.81 472.801 140.536 472.932 141.223 473.221C141.83 473.477 142.409 473.857 142.88 474.379C143.436 474.998 143.868 475.855 143.981 476.939C143.987 476.967 143.987 476.995 143.987 477.03C143.987 477.523 143.584 477.921 143.09 477.921C142.631 477.921 142.245 477.574 142.199 477.12C142.131 476.439 141.887 475.951 141.552 475.577C141.28 475.276 140.934 475.037 140.536 474.873C140.088 474.686 139.583 474.595 139.095 474.595C137.267 474.595 135.769 475.707 135.769 477.03C135.769 478.023 136.149 478.516 136.808 478.857C137.443 479.186 138.329 479.356 139.225 479.481C141.053 479.731 143.028 480.225 144.129 481.644C144.594 482.245 144.94 483.062 144.94 484.175ZM153.474 486.099C153.474 485.605 153.871 485.208 154.365 485.208C154.859 485.208 155.256 485.605 155.256 486.099V486.411C155.256 487.784 154.15 488.897 152.776 488.897C151.403 488.897 150.296 487.784 150.296 486.411V480.293L148.803 480.287C148.31 480.287 147.912 479.89 147.912 479.396C147.912 478.902 148.31 478.499 148.803 478.499H150.296V476.876C150.296 476.383 150.693 475.98 151.187 475.98C151.681 475.98 152.078 476.383 152.078 476.876V478.499L154.365 478.505C154.859 478.505 155.256 478.902 155.256 479.396C155.256 479.89 154.859 480.293 154.365 480.293H152.078V486.411C152.078 486.797 152.39 487.103 152.776 487.103C153.162 487.103 153.474 486.797 153.474 486.411V486.099ZM164.203 481.757C164.203 480.963 163.568 480.157 162.455 480.157C161.298 480.157 160.969 480.616 160.832 480.849C160.742 481.002 160.662 481.201 160.605 481.451C160.514 481.854 160.157 482.154 159.731 482.154C159.238 482.154 158.835 481.751 158.835 481.258C158.835 481.19 158.84 481.127 158.857 481.065C159.028 480.299 159.652 478.363 162.455 478.363C164.521 478.363 165.986 479.941 165.986 481.757V483.028C165.986 483.045 165.991 483.068 165.991 483.085C165.991 486.411 165.986 486.411 165.986 486.411C165.986 486.547 165.997 487.024 166.139 487.24C166.423 487.234 166.746 487.183 166.746 487.183C166.78 487.177 166.82 487.171 166.882 487.171C167.376 487.171 167.779 487.574 167.779 488.068C167.779 488.516 167.45 488.885 167.018 488.953C166.996 488.959 166.542 489.033 166.059 489.033C165.804 489.033 165.236 488.959 164.771 488.392C164.079 488.834 163.216 489.01 162.512 489.01C161.956 489.01 161.366 488.919 160.798 488.715C160.35 488.551 159.902 488.312 159.533 487.932C159.209 487.597 158.835 487.035 158.835 486.212C158.835 485.565 158.976 484.351 160.265 483.443C160.878 483.011 161.633 482.728 162.461 482.506C162.955 482.376 163.528 482.285 164.198 482.234C164.198 481.939 164.203 481.757 164.203 481.757ZM160.628 486.212C160.628 486.428 160.702 486.57 160.815 486.689C161.139 487.024 161.843 487.217 162.512 487.217C162.79 487.217 163.154 487.171 163.454 487.058C164.192 486.785 164.192 486.365 164.192 486.212C164.192 486.212 164.198 485.128 164.198 484.027C163.795 484.061 163.324 484.124 162.927 484.232C161.054 484.731 160.628 485.35 160.628 486.212ZM174.029 478.363C175.839 478.363 177.309 479.833 177.309 481.644V481.956C177.309 482.449 176.906 482.847 176.413 482.847C175.919 482.847 175.516 482.449 175.516 481.956V481.644C175.516 480.821 174.852 480.157 174.029 480.157C173.206 480.157 172.548 480.815 172.548 481.644C172.548 481.678 172.548 481.712 172.542 481.746V488C172.542 488.494 172.139 488.897 171.645 488.897C171.152 488.897 170.749 488.494 170.749 488V479.396C170.749 478.902 171.152 478.499 171.645 478.499C171.923 478.499 172.179 478.63 172.343 478.834C172.837 478.539 173.41 478.363 174.029 478.363ZM185.525 486.099C185.525 485.605 185.922 485.208 186.416 485.208C186.91 485.208 187.307 485.605 187.307 486.099V486.411C187.307 487.784 186.2 488.897 184.827 488.897C183.453 488.897 182.347 487.784 182.347 486.411V480.293L180.854 480.287C180.36 480.287 179.963 479.89 179.963 479.396C179.963 478.902 180.36 478.499 180.854 478.499H182.347V476.876C182.347 476.383 182.744 475.98 183.238 475.98C183.732 475.98 184.129 476.383 184.129 476.876V478.499L186.416 478.505C186.91 478.505 187.307 478.902 187.307 479.396C187.307 479.89 186.91 480.293 186.416 480.293H184.129V486.411C184.129 486.797 184.441 487.103 184.827 487.103C185.213 487.103 185.525 486.797 185.525 486.411V486.099Z" fill="black" fill-opacity="0.5"/>
<path d="M378.44 76.1748C378.44 78.7741 375.926 80.8967 372.595 80.8967C371.704 80.8967 370.904 80.7264 370.205 80.437C369.337 80.0738 368.645 79.5119 368.123 78.8649C367.691 78.3314 367.022 77.2872 366.891 75.8229C366.891 75.8002 366.885 75.7719 366.885 75.7435C366.885 75.2497 367.288 74.8468 367.782 74.8468C368.247 74.8468 368.633 75.21 368.673 75.664C368.736 76.3507 369.014 77.1226 369.513 77.7469C370.052 78.4166 370.994 79.1033 372.595 79.1033C374.882 79.1033 376.653 77.7866 376.653 76.1748C376.653 75.0341 376.136 74.1317 374.173 73.5868C373.65 73.4449 373.072 73.3314 372.476 73.252C370.773 73.0193 368.792 72.605 367.913 70.9421C367.623 70.3916 367.481 69.7503 367.481 69.0295C367.481 66.6969 369.757 64.8014 372.595 64.8014C373.31 64.8014 374.036 64.9319 374.723 65.2213C375.33 65.4767 375.909 65.857 376.38 66.3791C376.936 66.9977 377.368 67.8547 377.481 68.9387C377.487 68.9671 377.487 68.9955 377.487 69.0295C377.487 69.5233 377.084 69.9205 376.59 69.9205C376.131 69.9205 375.745 69.5743 375.699 69.1203C375.631 68.4393 375.387 67.9512 375.052 67.5766C374.78 67.2758 374.434 67.0375 374.036 66.8729C373.588 66.6856 373.083 66.5948 372.595 66.5948C370.767 66.5948 369.269 67.7071 369.269 69.0295C369.269 70.0227 369.649 70.5165 370.308 70.857C370.943 71.1862 371.829 71.3564 372.725 71.4813C374.553 71.731 376.528 72.2247 377.629 73.6436C378.094 74.2452 378.44 75.0624 378.44 76.1748ZM386.974 78.0988C386.974 77.605 387.371 77.2077 387.865 77.2077C388.359 77.2077 388.756 77.605 388.756 78.0988V78.4109C388.756 79.7843 387.65 80.8967 386.276 80.8967C384.903 80.8967 383.796 79.7843 383.796 78.4109V72.2928L382.303 72.2872C381.81 72.2872 381.412 71.8899 381.412 71.3961C381.412 70.9024 381.81 70.4994 382.303 70.4994H383.796V68.8763C383.796 68.3825 384.193 67.9796 384.687 67.9796C385.181 67.9796 385.578 68.3825 385.578 68.8763V70.4994L387.865 70.5051C388.359 70.5051 388.756 70.9024 388.756 71.3961C388.756 71.8899 388.359 72.2928 387.865 72.2928H385.578V78.4109C385.578 78.7968 385.89 79.1033 386.276 79.1033C386.662 79.1033 386.974 78.7968 386.974 78.4109V78.0988ZM397.703 73.7571C397.703 72.9625 397.068 72.1566 395.955 72.1566C394.798 72.1566 394.469 72.6163 394.332 72.849C394.242 73.0023 394.162 73.2009 394.105 73.4506C394.014 73.8536 393.657 74.1544 393.231 74.1544C392.738 74.1544 392.335 73.7514 392.335 73.2577C392.335 73.1896 392.34 73.1271 392.357 73.0647C392.528 72.2985 393.152 70.3632 395.955 70.3632C398.021 70.3632 399.486 71.941 399.486 73.7571V75.0284C399.486 75.0454 399.491 75.0681 399.491 75.0851C399.491 78.4109 399.486 78.4109 399.486 78.4109C399.486 78.5471 399.497 79.0238 399.639 79.2395C399.923 79.2338 400.246 79.1827 400.246 79.1827C400.28 79.1771 400.32 79.1714 400.382 79.1714C400.876 79.1714 401.279 79.5743 401.279 80.0681C401.279 80.5165 400.95 80.8854 400.518 80.9535C400.496 80.9591 400.042 81.0329 399.559 81.0329C399.304 81.0329 398.736 80.9591 398.271 80.3916C397.579 80.8343 396.716 81.0102 396.012 81.0102C395.456 81.0102 394.866 80.9194 394.298 80.7151C393.85 80.5505 393.402 80.3121 393.033 79.9319C392.709 79.597 392.335 79.0352 392.335 78.2123C392.335 77.5653 392.476 76.3507 393.765 75.4427C394.378 75.0114 395.133 74.7276 395.961 74.5062C396.455 74.3757 397.028 74.2849 397.698 74.2338C397.698 73.9387 397.703 73.7571 397.703 73.7571ZM394.128 78.2123C394.128 78.4279 394.202 78.5698 394.315 78.689C394.639 79.0238 395.343 79.2168 396.012 79.2168C396.29 79.2168 396.654 79.1714 396.954 79.0579C397.692 78.7855 397.692 78.3655 397.692 78.2123C397.692 78.2123 397.698 77.1283 397.698 76.0272C397.295 76.0613 396.824 76.1237 396.427 76.2316C394.554 76.731 394.128 77.3496 394.128 78.2123ZM407.529 70.3632C409.339 70.3632 410.809 71.8331 410.809 73.6436V73.9557C410.809 74.4495 410.406 74.8468 409.913 74.8468C409.419 74.8468 409.016 74.4495 409.016 73.9557V73.6436C409.016 72.8207 408.352 72.1566 407.529 72.1566C406.706 72.1566 406.048 72.815 406.048 73.6436C406.048 73.6776 406.048 73.7117 406.042 73.7457V80C406.042 80.4938 405.639 80.8967 405.145 80.8967C404.652 80.8967 404.249 80.4938 404.249 80V71.3961C404.249 70.9024 404.652 70.4994 405.145 70.4994C405.423 70.4994 405.679 70.63 405.843 70.8343C406.337 70.5392 406.91 70.3632 407.529 70.3632ZM419.025 78.0988C419.025 77.605 419.422 77.2077 419.916 77.2077C420.41 77.2077 420.807 77.605 420.807 78.0988V78.4109C420.807 79.7843 419.7 80.8967 418.327 80.8967C416.953 80.8967 415.847 79.7843 415.847 78.4109V72.2928L414.354 72.2872C413.86 72.2872 413.463 71.8899 413.463 71.3961C413.463 70.9024 413.86 70.4994 414.354 70.4994H415.847V68.8763C415.847 68.3825 416.244 67.9796 416.738 67.9796C417.232 67.9796 417.629 68.3825 417.629 68.8763V70.4994L419.916 70.5051C420.41 70.5051 420.807 70.9024 420.807 71.3961C420.807 71.8899 420.41 72.2928 419.916 72.2928H417.629V78.4109C417.629 78.7968 417.941 79.1033 418.327 79.1033C418.713 79.1033 419.025 78.7968 419.025 78.4109V78.0988Z" fill="black" fill-opacity="0.5"/>
<path d="M209.505 13.5585C209.505 19.0613 212.601 23.5653 216.288 23.5653C219.557 23.5653 221.845 21.0045 222.109 17.9716C222.172 17.2361 222.79 16.664 223.534 16.664C224.324 16.664 224.969 17.3087 224.969 18.0988C224.969 18.1169 224.969 18.1623 224.96 18.2259C224.833 19.706 224.361 21.1044 223.616 22.3212C222.953 23.4018 222.063 24.3371 220.992 25.0363C219.657 25.9171 218.05 26.4347 216.288 26.4347C210.94 26.4347 206.635 20.6958 206.635 13.5585C206.635 6.42111 210.94 0.682178 216.288 0.682178C217.986 0.682178 219.521 1.18161 220.774 2.03519C221.773 2.71623 222.599 3.61521 223.226 4.62315C223.907 5.71283 224.397 7.00227 224.642 8.40976C224.66 8.49149 224.669 8.57321 224.669 8.65494C224.669 9.44495 224.025 10.0897 223.235 10.0897C222.526 10.0897 221.945 9.57208 221.827 8.90011C221.509 7.09307 220.61 5.38592 219.167 4.40522C218.377 3.86946 217.423 3.55165 216.288 3.55165C212.601 3.55165 209.505 8.05562 209.505 13.5585ZM230.667 13.5585C230.667 6.42111 234.971 0.682178 240.319 0.682178C245.668 0.682178 249.99 6.43019 249.99 13.5585C249.99 20.6958 245.695 26.4347 240.346 26.4347C234.998 26.4347 230.667 20.6867 230.667 13.5585ZM247.139 13.5585C247.139 8.04654 243.997 3.55165 240.319 3.55165C236.633 3.55165 233.536 8.05562 233.536 13.5585C233.536 19.0704 236.669 23.5653 240.346 23.5653C244.033 23.5653 247.139 19.0613 247.139 13.5585ZM257.133 26.4347C256.352 26.4347 255.698 25.7991 255.698 25V2.11691C255.698 1.3269 256.343 0.682178 257.133 0.682178H257.142C257.941 0.682178 258.576 1.33598 258.576 2.11691V23.5653H271.934C272.724 23.5653 273.36 24.2009 273.36 24.9909L273.369 25C273.369 25.79 272.724 26.4257 271.934 26.4257L257.133 26.4347ZM287.908 26.4347C283.014 26.4347 279.073 23.0477 279.073 18.8706V2.11691C279.073 1.3269 279.718 0.682178 280.508 0.682178C281.298 0.682178 281.942 1.3269 281.942 2.11691V18.8706C281.942 21.4586 284.63 23.5653 287.908 23.5653C291.186 23.5653 293.874 21.4586 293.874 18.8706V2.11691C293.874 1.3269 294.519 0.682178 295.309 0.682178C296.099 0.682178 296.744 1.3269 296.744 2.11691V18.8706C296.744 23.0477 292.803 26.4347 287.908 26.4347ZM321.699 26.4347C320.909 26.4347 320.264 25.79 320.264 25V7.91033L314.38 24.9818C314.18 25.5539 313.635 25.9444 313.027 25.9444H312.545C311.937 25.9444 311.401 25.5539 311.202 24.9818L305.317 7.89217V25C305.317 25.79 304.673 26.4347 303.883 26.4347C303.093 26.4347 302.448 25.79 302.448 25V2.11691C302.448 1.3269 303.093 0.682178 303.883 0.682178H304.836C305.444 0.682178 305.989 1.08172 306.189 1.6538L312.791 20.8229L319.392 1.6538C319.592 1.08172 320.137 0.691259 320.745 0.691259L321.69 0.682178C322.48 0.682178 323.115 1.3269 323.115 2.11691L323.124 25C323.124 25.79 322.489 26.4347 321.699 26.4347ZM346.485 25C346.485 25.79 345.849 26.4347 345.059 26.4347L344.105 26.4257C343.588 26.4257 343.116 26.1442 342.861 25.6992L331.692 5.87628V25C331.692 25.79 331.048 26.4347 330.258 26.4347C329.468 26.4347 328.823 25.79 328.823 25V2.11691C328.823 1.3269 329.468 0.682178 330.258 0.682178H331.211C331.729 0.682178 332.201 0.972757 332.455 1.41771L343.624 21.2406V2.11691C343.624 1.3269 344.269 0.682178 345.059 0.682178C345.849 0.682178 346.494 1.3269 346.494 2.11691L346.485 25Z" fill="black"/>
</svg>
