<svg width="562" height="514" viewBox="0 0 562 514" fill="none" xmlns="http://www.w3.org/2000/svg">
<path d="M482.884 205.118C482.396 204.629 481.604 204.627 481.116 205.114L473.161 213.053C472.673 213.54 472.673 214.331 473.161 214.82C473.649 215.31 474.441 215.311 474.929 214.824L482 207.768L489.071 214.854C489.559 215.343 490.351 215.344 490.839 214.857C491.327 214.37 491.327 213.579 490.839 213.089L482.884 205.118ZM481.116 350.882C481.604 351.371 482.396 351.373 482.884 350.886L490.839 342.947C491.327 342.46 491.327 341.669 490.839 341.18C490.351 340.69 489.559 340.689 489.071 341.176L482 348.232L474.929 341.146C474.441 340.657 473.649 340.656 473.161 341.143C472.673 341.63 472.673 342.421 473.161 342.911L481.116 350.882ZM482 206L480.75 205.997V349.997L482 350L483.25 350.003V206.003L482 206Z" fill="black"/>
<path d="M501.469 273.564L499.636 279.041H503.296L501.469 273.564ZM507.74 285C507.74 285.658 507.207 286.192 506.548 286.192C506.02 286.192 505.578 285.851 505.419 285.38L504.091 281.425H498.841L497.513 285.38C497.354 285.851 496.911 286.192 496.384 286.192C495.725 286.192 495.192 285.658 495.192 285C495.192 284.869 495.215 284.739 495.254 284.62L500.039 270.318C500.203 269.835 500.657 269.506 501.168 269.506H501.764C502.275 269.506 502.729 269.835 502.893 270.318L507.678 284.62C507.717 284.739 507.74 284.869 507.74 285ZM522.959 285C522.959 285.658 522.426 286.192 521.767 286.192H512.516C511.904 286.192 511.387 285.726 511.33 285.108C511.325 285.074 511.325 285.034 511.325 285V270.698C511.325 270.034 511.864 269.506 512.516 269.506H512.522C513.18 269.506 513.714 270.04 513.714 270.698V283.802H521.767C522.426 283.802 522.959 284.336 522.959 284.994V285ZM527.731 286.192C527.079 286.192 526.539 285.664 526.539 285V270.698C526.539 270.034 527.079 269.506 527.731 269.506H527.737C528.395 269.506 528.929 270.04 528.929 270.698V285C528.929 285.664 528.39 286.192 527.737 286.192H527.731ZM539.307 280.159C538.649 280.159 538.115 279.625 538.115 278.967C538.115 278.309 538.649 277.775 539.307 277.775H542.724C543.382 277.775 543.915 278.309 543.915 278.967L543.91 282.509C543.91 282.73 543.847 282.946 543.734 283.133V283.138C542.644 284.904 540.902 286.192 538.825 286.192C537.57 286.192 536.424 285.715 535.482 284.949C533.677 283.473 532.497 280.84 532.497 277.849C532.497 273.218 535.317 269.506 538.825 269.506C540.181 269.506 541.413 270.068 542.394 270.942C542.973 271.459 543.456 272.327 543.87 273.882C543.898 273.978 543.91 274.081 543.91 274.188C543.91 274.847 543.376 275.38 542.718 275.38C542.167 275.38 541.702 275.006 541.566 274.495C541.401 273.882 541.225 273.417 541.072 273.116C540.947 272.872 540.839 272.747 540.805 272.719C540.181 272.162 539.506 271.89 538.825 271.89C538.189 271.89 537.57 272.123 536.986 272.599C535.754 273.604 534.88 275.573 534.88 277.849C534.88 279.137 535.164 280.323 535.624 281.288C535.993 282.06 536.469 282.679 536.986 283.099C537.57 283.575 538.189 283.808 538.825 283.808C539.778 283.808 540.754 283.258 541.526 282.151L541.532 280.159H539.307ZM547.477 270.698C547.477 270.034 548.016 269.506 548.669 269.506H549.265C549.696 269.506 550.093 269.739 550.303 270.114L556.728 281.515V270.698C556.728 270.04 557.261 269.506 557.92 269.506C558.578 269.506 559.111 270.04 559.111 270.698V285C559.111 285.658 558.578 286.192 557.92 286.192H557.324C556.892 286.192 556.495 285.959 556.285 285.585L549.861 274.183V285C549.861 285.658 549.327 286.192 548.669 286.192C548.01 286.192 547.477 285.658 547.477 285V270.698Z" fill="black"/>
<rect width="360" height="144" transform="translate(98 206)" fill="#FFD700"/>
<path opacity="0.5" d="M189.725 228.28V217.282C189.725 216.796 190.121 216.382 190.625 216.382H195.557C196.061 216.382 196.457 216.778 196.457 217.282C196.457 217.786 196.043 218.182 195.557 218.182H191.525V221.512H194.747C195.215 221.512 195.647 221.926 195.647 222.412C195.647 222.898 195.233 223.312 194.747 223.312H191.525V228.28C191.525 228.766 191.111 229.18 190.625 229.18C190.139 229.18 189.725 228.766 189.725 228.28ZM203.507 224.896L203.615 215.986C203.615 215.482 204.029 215.086 204.515 215.086C205.001 215.086 205.415 215.5 205.415 215.986L205.289 224.896C205.289 226.174 205.487 227.128 206.657 227.29C206.909 227.326 207.593 227.326 208.061 227.326C208.547 227.326 208.961 227.74 208.961 228.226C208.961 228.712 208.547 229.126 208.061 229.126C206.225 229.126 205.037 228.964 204.263 227.902C203.615 227.11 203.507 226.174 203.507 224.896ZM214.247 224.068C214.247 221.386 215.777 219.262 218.477 219.208H218.585C221.321 219.208 222.743 221.188 222.743 223.852C222.743 224.338 222.329 224.752 221.843 224.752H216.083C216.245 226.372 217.055 227.488 218.765 227.488C218.963 227.488 219.161 227.488 219.377 227.452C219.755 227.362 220.043 227.254 220.277 227.02C220.439 226.858 220.655 226.768 220.889 226.768C221.393 226.768 221.807 227.164 221.807 227.668C221.807 228.856 220.295 229.27 218.891 229.27C218.243 229.27 217.631 229.18 217.181 229.036C215.255 228.388 214.247 226.534 214.247 224.068ZM216.173 222.952H220.799C220.547 221.728 220.079 221.008 218.513 221.008C217.235 221.008 216.479 221.836 216.173 222.952ZM227.615 228.334C227.615 228.154 227.669 227.974 227.777 227.812L230.297 224.212L227.975 220.756C227.885 220.612 227.831 220.432 227.831 220.252C227.831 219.748 228.245 219.352 228.731 219.352C228.965 219.352 229.253 219.424 229.379 219.604L231.503 222.754L233.627 219.604C233.789 219.442 234.041 219.352 234.275 219.352C234.761 219.352 235.175 219.766 235.175 220.252C235.175 220.432 235.121 220.612 235.031 220.756L232.691 224.212L235.211 227.812C235.319 227.974 235.391 228.154 235.391 228.334C235.391 228.82 234.959 229.234 234.491 229.234C234.239 229.234 233.987 229.198 233.825 228.982L231.503 225.652L229.163 228.982C229.001 229.162 228.749 229.234 228.515 229.234C228.029 229.234 227.615 228.82 227.615 228.334ZM253.882 222.844V222.646C253.882 219.352 254.8 216.202 258.004 216.112C259.606 216.112 260.866 217.066 261.172 218.434V218.614C261.172 219.1 260.776 219.514 260.29 219.514C259.408 219.514 259.534 218.578 259.03 218.2C258.742 217.984 258.4 217.912 258.04 217.912C256.06 218.038 255.682 220.378 255.682 222.484V222.808C255.718 224.86 255.97 227.434 258.13 227.434C258.778 227.434 259.3 227.128 259.408 226.57C259.48 226.174 259.858 225.832 260.29 225.832C260.776 225.832 261.172 226.246 261.172 226.732V226.894C260.938 228.262 259.714 229.234 258.13 229.234C254.8 229.234 253.918 226.066 253.882 222.844ZM266.026 224.266C266.026 221.422 267.592 219.208 270.526 219.208C273.37 219.208 275.026 221.422 275.026 224.266C275.026 227.074 273.406 229.288 270.526 229.288C267.628 229.288 266.026 227.11 266.026 224.266ZM267.826 224.266C267.826 226.048 268.672 227.488 270.526 227.488C272.38 227.488 273.226 226.048 273.226 224.266C273.226 222.466 272.344 221.008 270.526 221.008C268.69 221.008 267.826 222.484 267.826 224.266ZM279.286 228.334V220.252C279.286 219.766 279.7 219.37 280.186 219.37C280.672 219.37 281.086 219.766 281.086 220.252V220.414C281.842 219.748 282.814 219.298 284.038 219.298C286.738 219.298 287.782 221.17 287.782 223.852V228.334C287.782 228.82 287.35 229.234 286.882 229.234C286.396 229.234 285.982 228.838 285.982 228.334V223.852C285.982 222.232 285.676 221.098 284.038 221.098C282.508 221.098 281.536 222.376 281.086 223.528V228.334C281.086 228.82 280.672 229.234 280.186 229.234C279.7 229.234 279.286 228.82 279.286 228.334ZM292.294 220.414C292.294 219.928 292.708 219.514 293.194 219.514H294.58L294.616 217.696C294.616 217.174 295.012 216.796 295.516 216.796C296.02 216.796 296.416 217.21 296.416 217.696L296.38 219.514H299.062C299.548 219.514 299.962 219.928 299.962 220.414C299.962 220.9 299.548 221.314 299.062 221.314H296.344L296.29 225.418C296.29 226.624 296.29 227.434 297.532 227.434C297.928 227.416 298.324 227.326 298.666 227.164C298.792 227.11 298.918 227.074 299.062 227.074C299.548 227.074 299.962 227.488 299.962 227.974C299.962 228.892 298.756 229.234 297.64 229.234C297.1 229.234 296.56 229.144 296.218 229.018C294.904 228.514 294.49 227.308 294.49 225.598V225.382L294.544 221.314H293.194C292.708 221.314 292.294 220.9 292.294 220.414ZM305.302 226.228C305.302 223.132 308.452 222.916 311.584 222.898C311.53 222.358 311.44 221.8 311.044 221.44C310.648 221.062 310.09 221.008 309.55 221.008C308.83 221.008 308.146 221.242 307.588 221.692C307.426 221.818 307.228 221.872 307.03 221.872C306.526 221.872 306.13 221.476 306.13 220.972C306.13 220.72 306.256 220.378 306.472 220.27C307.354 219.586 308.434 219.208 309.55 219.208C310.54 219.208 311.548 219.442 312.268 220.108C312.988 220.792 313.384 221.764 313.384 222.754V228.334C313.384 228.82 312.97 229.234 312.484 229.234C311.998 229.234 311.584 228.838 311.584 228.334V228.19C310.81 228.82 309.856 229.288 308.704 229.288H308.452C306.94 229.162 305.302 228.028 305.302 226.228ZM307.102 226.228C307.102 227.002 307.966 227.452 308.578 227.488H308.722C310.072 227.488 311.008 226.336 311.584 225.4V224.68C311.188 224.662 310.774 224.644 310.342 224.644C308.722 224.644 307.102 224.878 307.102 226.228ZM319.281 220.468C319.281 219.982 319.677 219.568 320.181 219.568H323.421C323.925 219.568 324.321 219.964 324.321 220.468V228.334C324.321 228.838 323.907 229.234 323.421 229.234C322.935 229.234 322.521 228.82 322.521 228.334V221.368H320.181C319.695 221.368 319.281 220.954 319.281 220.468ZM321.765 216.814V215.986C321.765 215.482 322.179 215.086 322.665 215.086H323.475C323.961 215.086 324.375 215.482 324.375 215.986V216.814C324.375 217.318 323.961 217.714 323.475 217.714H322.665C322.179 217.714 321.765 217.318 321.765 216.814ZM331.317 228.334V220.252C331.317 219.766 331.731 219.37 332.217 219.37C332.703 219.37 333.117 219.766 333.117 220.252V220.414C333.873 219.748 334.845 219.298 336.069 219.298C338.769 219.298 339.813 221.17 339.813 223.852V228.334C339.813 228.82 339.381 229.234 338.913 229.234C338.427 229.234 338.013 228.838 338.013 228.334V223.852C338.013 222.232 337.707 221.098 336.069 221.098C334.539 221.098 333.567 222.376 333.117 223.528V228.334C333.117 228.82 332.703 229.234 332.217 229.234C331.731 229.234 331.317 228.82 331.317 228.334ZM344.325 224.068C344.325 221.386 345.855 219.262 348.555 219.208H348.663C351.399 219.208 352.821 221.188 352.821 223.852C352.821 224.338 352.407 224.752 351.921 224.752H346.161C346.323 226.372 347.133 227.488 348.843 227.488C349.041 227.488 349.239 227.488 349.455 227.452C349.833 227.362 350.121 227.254 350.355 227.02C350.517 226.858 350.733 226.768 350.967 226.768C351.471 226.768 351.885 227.164 351.885 227.668C351.885 228.856 350.373 229.27 348.969 229.27C348.321 229.27 347.709 229.18 347.259 229.036C345.333 228.388 344.325 226.534 344.325 224.068ZM346.251 222.952H350.877C350.625 221.728 350.157 221.008 348.591 221.008C347.313 221.008 346.557 221.836 346.251 222.952ZM358.719 228.334V220.252C358.719 219.766 359.133 219.37 359.619 219.37C360.123 219.37 360.519 219.748 360.519 220.252C361.185 219.658 362.049 219.298 363.129 219.298C364.713 219.298 365.757 220.432 365.775 221.8C365.775 222.286 365.361 222.7 364.875 222.7C364.389 222.7 363.975 222.304 363.975 221.8C363.957 221.476 363.741 221.224 363.417 221.152C363.327 221.152 363.219 221.098 363.129 221.098C363.003 221.098 362.877 221.152 362.751 221.152C361.311 221.35 360.519 222.952 360.519 224.302V228.334C360.519 228.838 360.105 229.234 359.619 229.234C359.133 229.234 358.719 228.82 358.719 228.334Z" fill="black"/>
<mask id="path-4-inside-1_392_22" fill="white">
<path d="M134 242H206V314H134V242Z"/>
</mask>
<path d="M134 242H206V314H134V242Z" fill="black"/>
<path d="M134 242H206V314H134V242Z" fill="#FF6347"/>
<path d="M206 314V316H208V314H206ZM206 242H204V314H206H208V242H206ZM206 314V312H134V314V316H206V314Z" fill="#B22222" mask="url(#path-4-inside-1_392_22)"/>
<path opacity="0.5" d="M147.764 269.28V258.282C147.764 257.796 148.16 257.382 148.664 257.382H153.596C154.1 257.382 154.496 257.778 154.496 258.282C154.496 258.786 154.082 259.182 153.596 259.182H149.564V262.512H152.786C153.254 262.512 153.686 262.926 153.686 263.412C153.686 263.898 153.272 264.312 152.786 264.312H149.564V269.28C149.564 269.766 149.15 270.18 148.664 270.18C148.178 270.18 147.764 269.766 147.764 269.28ZM161.546 265.896L161.654 256.986C161.654 256.482 162.068 256.086 162.554 256.086C163.04 256.086 163.454 256.5 163.454 256.986L163.328 265.896C163.328 267.174 163.526 268.128 164.696 268.29C164.948 268.326 165.632 268.326 166.1 268.326C166.586 268.326 167 268.74 167 269.226C167 269.712 166.586 270.126 166.1 270.126C164.264 270.126 163.076 269.964 162.302 268.902C161.654 268.11 161.546 267.174 161.546 265.896ZM172.286 265.068C172.286 262.386 173.816 260.262 176.516 260.208H176.624C179.36 260.208 180.782 262.188 180.782 264.852C180.782 265.338 180.368 265.752 179.882 265.752H174.122C174.284 267.372 175.094 268.488 176.804 268.488C177.002 268.488 177.2 268.488 177.416 268.452C177.794 268.362 178.082 268.254 178.316 268.02C178.478 267.858 178.694 267.768 178.928 267.768C179.432 267.768 179.846 268.164 179.846 268.668C179.846 269.856 178.334 270.27 176.93 270.27C176.282 270.27 175.67 270.18 175.22 270.036C173.294 269.388 172.286 267.534 172.286 265.068ZM174.212 263.952H178.838C178.586 262.728 178.118 262.008 176.552 262.008C175.274 262.008 174.518 262.836 174.212 263.952ZM185.654 269.334C185.654 269.154 185.708 268.974 185.816 268.812L188.336 265.212L186.014 261.756C185.924 261.612 185.87 261.432 185.87 261.252C185.87 260.748 186.284 260.352 186.77 260.352C187.004 260.352 187.292 260.424 187.418 260.604L189.542 263.754L191.666 260.604C191.828 260.442 192.08 260.352 192.314 260.352C192.8 260.352 193.214 260.766 193.214 261.252C193.214 261.432 193.16 261.612 193.07 261.756L190.73 265.212L193.25 268.812C193.358 268.974 193.43 269.154 193.43 269.334C193.43 269.82 192.998 270.234 192.53 270.234C192.278 270.234 192.026 270.198 191.864 269.982L189.542 266.652L187.202 269.982C187.04 270.162 186.788 270.234 186.554 270.234C186.068 270.234 185.654 269.82 185.654 269.334ZM147.044 294.082C147.044 293.596 147.44 293.182 147.944 293.182H149.618V284.182H148.304C147.818 284.182 147.404 283.768 147.404 283.282C147.404 282.796 147.8 282.382 148.304 282.382H152.732C153.236 282.382 153.632 282.796 153.632 283.282C153.632 283.768 153.218 284.182 152.732 284.182H151.418V293.182H153.092C153.596 293.182 153.992 293.596 153.992 294.082C153.992 294.568 153.578 294.982 153.092 294.982H147.944C147.458 294.982 147.044 294.568 147.044 294.082ZM159.278 286.414C159.278 285.928 159.692 285.514 160.178 285.514H161.564L161.6 283.696C161.6 283.174 161.996 282.796 162.5 282.796C163.004 282.796 163.4 283.21 163.4 283.696L163.364 285.514H166.046C166.532 285.514 166.946 285.928 166.946 286.414C166.946 286.9 166.532 287.314 166.046 287.314H163.328L163.274 291.418C163.274 292.624 163.274 293.434 164.516 293.434C164.912 293.416 165.308 293.326 165.65 293.164C165.776 293.11 165.902 293.074 166.046 293.074C166.532 293.074 166.946 293.488 166.946 293.974C166.946 294.892 165.74 295.234 164.624 295.234C164.084 295.234 163.544 295.144 163.202 295.018C161.888 294.514 161.474 293.308 161.474 291.598V291.382L161.528 287.314H160.178C159.692 287.314 159.278 286.9 159.278 286.414ZM172.286 290.068C172.286 287.386 173.816 285.262 176.516 285.208H176.624C179.36 285.208 180.782 287.188 180.782 289.852C180.782 290.338 180.368 290.752 179.882 290.752H174.122C174.284 292.372 175.094 293.488 176.804 293.488C177.002 293.488 177.2 293.488 177.416 293.452C177.794 293.362 178.082 293.254 178.316 293.02C178.478 292.858 178.694 292.768 178.928 292.768C179.432 292.768 179.846 293.164 179.846 293.668C179.846 294.856 178.334 295.27 176.93 295.27C176.282 295.27 175.67 295.18 175.22 295.036C173.294 294.388 172.286 292.534 172.286 290.068ZM174.212 288.952H178.838C178.586 287.728 178.118 287.008 176.552 287.008C175.274 287.008 174.518 287.836 174.212 288.952ZM185.042 294.334V286.252C185.042 285.748 185.456 285.352 185.942 285.352C186.248 285.352 186.518 285.514 186.68 285.766C187.076 285.478 187.544 285.298 188.102 285.298C188.84 285.298 189.47 285.64 189.884 286.144C190.352 285.64 190.982 285.298 191.702 285.298C193.07 285.298 194.042 286.468 194.042 287.728V294.334C194.042 294.82 193.628 295.234 193.142 295.234C192.656 295.234 192.242 294.838 192.242 294.334V287.872C192.224 287.548 192.098 287.098 191.702 287.098C190.928 287.098 190.442 288.61 190.442 289.33V294.334C190.442 294.82 190.028 295.234 189.542 295.234C189.056 295.234 188.642 294.838 188.642 294.334V287.872C188.624 287.548 188.498 287.098 188.102 287.098C187.31 287.098 186.896 288.628 186.842 289.33V294.334C186.842 294.82 186.428 295.234 185.942 295.234C185.456 295.234 185.042 294.838 185.042 294.334Z" fill="black"/>
<mask id="path-7-inside-2_392_22" fill="white">
<path d="M242 242H314V314H242V242Z"/>
</mask>
<path d="M242 242H314V314H242V242Z" fill="black"/>
<path d="M242 242H314V314H242V242Z" fill="#FF6347"/>
<path d="M314 314V316H316V314H314ZM314 242H312V314H314H316V242H314ZM314 314V312H242V314V316H314V314Z" fill="#B22222" mask="url(#path-7-inside-2_392_22)"/>
<path opacity="0.5" d="M255.764 269.28V258.282C255.764 257.796 256.16 257.382 256.664 257.382H261.596C262.1 257.382 262.496 257.778 262.496 258.282C262.496 258.786 262.082 259.182 261.596 259.182H257.564V262.512H260.786C261.254 262.512 261.686 262.926 261.686 263.412C261.686 263.898 261.272 264.312 260.786 264.312H257.564V269.28C257.564 269.766 257.15 270.18 256.664 270.18C256.178 270.18 255.764 269.766 255.764 269.28ZM269.546 265.896L269.654 256.986C269.654 256.482 270.068 256.086 270.554 256.086C271.04 256.086 271.454 256.5 271.454 256.986L271.328 265.896C271.328 267.174 271.526 268.128 272.696 268.29C272.948 268.326 273.632 268.326 274.1 268.326C274.586 268.326 275 268.74 275 269.226C275 269.712 274.586 270.126 274.1 270.126C272.264 270.126 271.076 269.964 270.302 268.902C269.654 268.11 269.546 267.174 269.546 265.896ZM280.286 265.068C280.286 262.386 281.816 260.262 284.516 260.208H284.624C287.36 260.208 288.782 262.188 288.782 264.852C288.782 265.338 288.368 265.752 287.882 265.752H282.122C282.284 267.372 283.094 268.488 284.804 268.488C285.002 268.488 285.2 268.488 285.416 268.452C285.794 268.362 286.082 268.254 286.316 268.02C286.478 267.858 286.694 267.768 286.928 267.768C287.432 267.768 287.846 268.164 287.846 268.668C287.846 269.856 286.334 270.27 284.93 270.27C284.282 270.27 283.67 270.18 283.22 270.036C281.294 269.388 280.286 267.534 280.286 265.068ZM282.212 263.952H286.838C286.586 262.728 286.118 262.008 284.552 262.008C283.274 262.008 282.518 262.836 282.212 263.952ZM293.654 269.334C293.654 269.154 293.708 268.974 293.816 268.812L296.336 265.212L294.014 261.756C293.924 261.612 293.87 261.432 293.87 261.252C293.87 260.748 294.284 260.352 294.77 260.352C295.004 260.352 295.292 260.424 295.418 260.604L297.542 263.754L299.666 260.604C299.828 260.442 300.08 260.352 300.314 260.352C300.8 260.352 301.214 260.766 301.214 261.252C301.214 261.432 301.16 261.612 301.07 261.756L298.73 265.212L301.25 268.812C301.358 268.974 301.43 269.154 301.43 269.334C301.43 269.82 300.998 270.234 300.53 270.234C300.278 270.234 300.026 270.198 299.864 269.982L297.542 266.652L295.202 269.982C295.04 270.162 294.788 270.234 294.554 270.234C294.068 270.234 293.654 269.82 293.654 269.334ZM255.044 294.082C255.044 293.596 255.44 293.182 255.944 293.182H257.618V284.182H256.304C255.818 284.182 255.404 283.768 255.404 283.282C255.404 282.796 255.8 282.382 256.304 282.382H260.732C261.236 282.382 261.632 282.796 261.632 283.282C261.632 283.768 261.218 284.182 260.732 284.182H259.418V293.182H261.092C261.596 293.182 261.992 293.596 261.992 294.082C261.992 294.568 261.578 294.982 261.092 294.982H255.944C255.458 294.982 255.044 294.568 255.044 294.082ZM267.278 286.414C267.278 285.928 267.692 285.514 268.178 285.514H269.564L269.6 283.696C269.6 283.174 269.996 282.796 270.5 282.796C271.004 282.796 271.4 283.21 271.4 283.696L271.364 285.514H274.046C274.532 285.514 274.946 285.928 274.946 286.414C274.946 286.9 274.532 287.314 274.046 287.314H271.328L271.274 291.418C271.274 292.624 271.274 293.434 272.516 293.434C272.912 293.416 273.308 293.326 273.65 293.164C273.776 293.11 273.902 293.074 274.046 293.074C274.532 293.074 274.946 293.488 274.946 293.974C274.946 294.892 273.74 295.234 272.624 295.234C272.084 295.234 271.544 295.144 271.202 295.018C269.888 294.514 269.474 293.308 269.474 291.598V291.382L269.528 287.314H268.178C267.692 287.314 267.278 286.9 267.278 286.414ZM280.286 290.068C280.286 287.386 281.816 285.262 284.516 285.208H284.624C287.36 285.208 288.782 287.188 288.782 289.852C288.782 290.338 288.368 290.752 287.882 290.752H282.122C282.284 292.372 283.094 293.488 284.804 293.488C285.002 293.488 285.2 293.488 285.416 293.452C285.794 293.362 286.082 293.254 286.316 293.02C286.478 292.858 286.694 292.768 286.928 292.768C287.432 292.768 287.846 293.164 287.846 293.668C287.846 294.856 286.334 295.27 284.93 295.27C284.282 295.27 283.67 295.18 283.22 295.036C281.294 294.388 280.286 292.534 280.286 290.068ZM282.212 288.952H286.838C286.586 287.728 286.118 287.008 284.552 287.008C283.274 287.008 282.518 287.836 282.212 288.952ZM293.042 294.334V286.252C293.042 285.748 293.456 285.352 293.942 285.352C294.248 285.352 294.518 285.514 294.68 285.766C295.076 285.478 295.544 285.298 296.102 285.298C296.84 285.298 297.47 285.64 297.884 286.144C298.352 285.64 298.982 285.298 299.702 285.298C301.07 285.298 302.042 286.468 302.042 287.728V294.334C302.042 294.82 301.628 295.234 301.142 295.234C300.656 295.234 300.242 294.838 300.242 294.334V287.872C300.224 287.548 300.098 287.098 299.702 287.098C298.928 287.098 298.442 288.61 298.442 289.33V294.334C298.442 294.82 298.028 295.234 297.542 295.234C297.056 295.234 296.642 294.838 296.642 294.334V287.872C296.624 287.548 296.498 287.098 296.102 287.098C295.31 287.098 294.896 288.628 294.842 289.33V294.334C294.842 294.82 294.428 295.234 293.942 295.234C293.456 295.234 293.042 294.838 293.042 294.334Z" fill="black"/>
<mask id="path-10-inside-3_392_22" fill="white">
<path d="M350 242H422V314H350V242Z"/>
</mask>
<path d="M350 242H422V314H350V242Z" fill="black"/>
<path d="M350 242H422V314H350V242Z" fill="#FF6347"/>
<path d="M422 314V316H424V314H422ZM422 242H420V314H422H424V242H422ZM422 314V312H350V314V316H422V314Z" fill="#B22222" mask="url(#path-10-inside-3_392_22)"/>
<path opacity="0.5" d="M363.764 269.28V258.282C363.764 257.796 364.16 257.382 364.664 257.382H369.596C370.1 257.382 370.496 257.778 370.496 258.282C370.496 258.786 370.082 259.182 369.596 259.182H365.564V262.512H368.786C369.254 262.512 369.686 262.926 369.686 263.412C369.686 263.898 369.272 264.312 368.786 264.312H365.564V269.28C365.564 269.766 365.15 270.18 364.664 270.18C364.178 270.18 363.764 269.766 363.764 269.28ZM377.546 265.896L377.654 256.986C377.654 256.482 378.068 256.086 378.554 256.086C379.04 256.086 379.454 256.5 379.454 256.986L379.328 265.896C379.328 267.174 379.526 268.128 380.696 268.29C380.948 268.326 381.632 268.326 382.1 268.326C382.586 268.326 383 268.74 383 269.226C383 269.712 382.586 270.126 382.1 270.126C380.264 270.126 379.076 269.964 378.302 268.902C377.654 268.11 377.546 267.174 377.546 265.896ZM388.286 265.068C388.286 262.386 389.816 260.262 392.516 260.208H392.624C395.36 260.208 396.782 262.188 396.782 264.852C396.782 265.338 396.368 265.752 395.882 265.752H390.122C390.284 267.372 391.094 268.488 392.804 268.488C393.002 268.488 393.2 268.488 393.416 268.452C393.794 268.362 394.082 268.254 394.316 268.02C394.478 267.858 394.694 267.768 394.928 267.768C395.432 267.768 395.846 268.164 395.846 268.668C395.846 269.856 394.334 270.27 392.93 270.27C392.282 270.27 391.67 270.18 391.22 270.036C389.294 269.388 388.286 267.534 388.286 265.068ZM390.212 263.952H394.838C394.586 262.728 394.118 262.008 392.552 262.008C391.274 262.008 390.518 262.836 390.212 263.952ZM401.654 269.334C401.654 269.154 401.708 268.974 401.816 268.812L404.336 265.212L402.014 261.756C401.924 261.612 401.87 261.432 401.87 261.252C401.87 260.748 402.284 260.352 402.77 260.352C403.004 260.352 403.292 260.424 403.418 260.604L405.542 263.754L407.666 260.604C407.828 260.442 408.08 260.352 408.314 260.352C408.8 260.352 409.214 260.766 409.214 261.252C409.214 261.432 409.16 261.612 409.07 261.756L406.73 265.212L409.25 268.812C409.358 268.974 409.43 269.154 409.43 269.334C409.43 269.82 408.998 270.234 408.53 270.234C408.278 270.234 408.026 270.198 407.864 269.982L405.542 266.652L403.202 269.982C403.04 270.162 402.788 270.234 402.554 270.234C402.068 270.234 401.654 269.82 401.654 269.334ZM363.044 294.082C363.044 293.596 363.44 293.182 363.944 293.182H365.618V284.182H364.304C363.818 284.182 363.404 283.768 363.404 283.282C363.404 282.796 363.8 282.382 364.304 282.382H368.732C369.236 282.382 369.632 282.796 369.632 283.282C369.632 283.768 369.218 284.182 368.732 284.182H367.418V293.182H369.092C369.596 293.182 369.992 293.596 369.992 294.082C369.992 294.568 369.578 294.982 369.092 294.982H363.944C363.458 294.982 363.044 294.568 363.044 294.082ZM375.278 286.414C375.278 285.928 375.692 285.514 376.178 285.514H377.564L377.6 283.696C377.6 283.174 377.996 282.796 378.5 282.796C379.004 282.796 379.4 283.21 379.4 283.696L379.364 285.514H382.046C382.532 285.514 382.946 285.928 382.946 286.414C382.946 286.9 382.532 287.314 382.046 287.314H379.328L379.274 291.418C379.274 292.624 379.274 293.434 380.516 293.434C380.912 293.416 381.308 293.326 381.65 293.164C381.776 293.11 381.902 293.074 382.046 293.074C382.532 293.074 382.946 293.488 382.946 293.974C382.946 294.892 381.74 295.234 380.624 295.234C380.084 295.234 379.544 295.144 379.202 295.018C377.888 294.514 377.474 293.308 377.474 291.598V291.382L377.528 287.314H376.178C375.692 287.314 375.278 286.9 375.278 286.414ZM388.286 290.068C388.286 287.386 389.816 285.262 392.516 285.208H392.624C395.36 285.208 396.782 287.188 396.782 289.852C396.782 290.338 396.368 290.752 395.882 290.752H390.122C390.284 292.372 391.094 293.488 392.804 293.488C393.002 293.488 393.2 293.488 393.416 293.452C393.794 293.362 394.082 293.254 394.316 293.02C394.478 292.858 394.694 292.768 394.928 292.768C395.432 292.768 395.846 293.164 395.846 293.668C395.846 294.856 394.334 295.27 392.93 295.27C392.282 295.27 391.67 295.18 391.22 295.036C389.294 294.388 388.286 292.534 388.286 290.068ZM390.212 288.952H394.838C394.586 287.728 394.118 287.008 392.552 287.008C391.274 287.008 390.518 287.836 390.212 288.952ZM401.042 294.334V286.252C401.042 285.748 401.456 285.352 401.942 285.352C402.248 285.352 402.518 285.514 402.68 285.766C403.076 285.478 403.544 285.298 404.102 285.298C404.84 285.298 405.47 285.64 405.884 286.144C406.352 285.64 406.982 285.298 407.702 285.298C409.07 285.298 410.042 286.468 410.042 287.728V294.334C410.042 294.82 409.628 295.234 409.142 295.234C408.656 295.234 408.242 294.838 408.242 294.334V287.872C408.224 287.548 408.098 287.098 407.702 287.098C406.928 287.098 406.442 288.61 406.442 289.33V294.334C406.442 294.82 406.028 295.234 405.542 295.234C405.056 295.234 404.642 294.838 404.642 294.334V287.872C404.624 287.548 404.498 287.098 404.102 287.098C403.31 287.098 402.896 288.628 402.842 289.33V294.334C402.842 294.82 402.428 295.234 401.942 295.234C401.456 295.234 401.042 294.838 401.042 294.334Z" fill="black"/>
<path d="M97.1207 373.116C96.63 373.604 96.6259 374.396 97.1115 374.884L105.025 382.839C105.511 383.327 106.302 383.327 106.793 382.839C107.284 382.351 107.288 381.559 106.802 381.071L99.7678 374L106.876 366.929C107.366 366.441 107.37 365.649 106.885 365.161C106.399 364.673 105.608 364.673 105.117 365.161L97.1207 373.116ZM458.879 374.884C459.37 374.396 459.374 373.604 458.888 373.116L450.975 365.161C450.489 364.673 449.698 364.673 449.207 365.161C448.716 365.649 448.712 366.441 449.198 366.929L456.232 374L449.124 381.071C448.634 381.559 448.63 382.351 449.115 382.839C449.601 383.327 450.392 383.327 450.883 382.839L458.879 374.884ZM98 374L97.9935 375.25H457.993L458 374L458.006 372.75H98.0065L98 374Z" fill="black"/>
<path d="M235.647 398.808C236.606 398.808 237.656 397.98 237.781 396.935V385.698C237.781 385.04 238.314 384.506 238.973 384.506C239.631 384.506 240.165 385.04 240.165 385.698V396.998C240.165 397.037 240.165 397.072 240.159 397.106C239.949 399.398 237.855 401.192 235.647 401.192C233.218 401.192 231.237 399.387 231.027 397.111L230.897 395.687C230.897 395.664 230.891 395.624 230.891 395.573C230.891 394.915 231.425 394.381 232.083 394.381C232.701 394.381 233.212 394.852 233.269 395.46L233.4 396.884C233.496 397.968 234.478 398.808 235.647 398.808ZM249.56 401.192C246.331 401.192 243.743 398.939 243.743 396.169V385.698C243.743 385.04 244.276 384.506 244.934 384.506C245.593 384.506 246.126 385.04 246.126 385.698V396.169C246.126 397.616 247.681 398.808 249.56 398.808C251.438 398.808 252.993 397.616 252.993 396.169V385.698C252.993 385.04 253.527 384.506 254.185 384.506C254.844 384.506 255.377 385.04 255.377 385.698V396.169C255.377 398.939 252.789 401.192 249.56 401.192ZM271.108 396.175C271.108 398.933 268.469 401.192 264.962 401.192C264.031 401.192 263.191 401.022 262.459 400.715C261.54 400.329 260.808 399.733 260.257 399.052C259.826 398.519 259.099 397.406 258.963 395.846C258.957 395.812 258.957 395.778 258.957 395.743C258.957 395.085 259.491 394.552 260.149 394.552C260.774 394.552 261.279 395.028 261.335 395.636C261.364 395.982 261.506 396.805 262.113 397.56C262.629 398.195 263.498 398.808 264.962 398.808C267.079 398.808 268.725 397.616 268.725 396.175C268.725 395.278 268.367 394.711 267.522 394.274C266.875 393.939 265.978 393.706 264.803 393.547C263.106 393.314 260.978 392.883 260.019 391.078C259.701 390.482 259.548 389.79 259.548 389.03C259.548 386.532 261.954 384.506 264.962 384.506C265.717 384.506 266.483 384.648 267.209 384.949C267.618 385.119 269.111 385.783 269.814 387.554C269.968 387.934 270.087 388.383 270.144 388.905C270.149 388.944 270.149 388.99 270.149 389.03C270.149 389.688 269.616 390.221 268.957 390.221C268.339 390.221 267.834 389.75 267.771 389.149C267.584 387.333 265.95 386.89 264.962 386.89C263.299 386.89 261.931 387.883 261.931 389.03C261.931 389.904 262.249 390.301 262.811 390.596C263.339 390.874 264.099 391.044 265.132 391.186C266.982 391.442 269.054 391.941 270.229 393.456C270.717 394.086 271.108 394.966 271.108 396.175ZM274.68 385.698C274.68 385.034 275.219 384.506 275.872 384.506H286.598C287.251 384.506 287.79 385.034 287.79 385.698V385.704C287.79 386.362 287.257 386.896 286.598 386.896H282.433V400C282.433 400.658 281.899 401.192 281.241 401.192C280.582 401.192 280.049 400.658 280.049 400L280.043 386.896H275.872C275.214 386.896 274.68 386.362 274.68 385.704V385.698ZM292.552 401.192C291.899 401.192 291.36 400.664 291.36 400V385.698C291.36 385.034 291.899 384.506 292.552 384.506H292.557C293.216 384.506 293.749 385.04 293.749 385.698V400C293.749 400.664 293.21 401.192 292.557 401.192H292.552ZM297.317 385.698C297.317 385.034 297.856 384.506 298.509 384.506H307.374C308.032 384.506 308.565 385.04 308.565 385.698V385.704C308.565 386.362 308.032 386.896 307.374 386.896H299.706V391.209H304.803C305.461 391.209 305.994 391.742 305.994 392.401V392.406C305.994 393.059 305.461 393.598 304.803 393.598H299.706V400C299.706 400.664 299.167 401.192 298.514 401.192H298.509C297.896 401.192 297.379 400.726 297.323 400.108C297.317 400.074 297.317 400.034 297.317 400V385.698ZM319.224 400C319.224 400.653 318.696 401.192 318.032 401.192H318.026C317.368 401.192 316.835 400.658 316.835 400V392.775L312.357 386.379C312.221 386.186 312.141 385.953 312.141 385.698C312.141 385.04 312.675 384.506 313.333 384.506C313.736 384.506 314.093 384.705 314.309 385.011L318.026 390.323L321.744 385.011C321.959 384.705 322.317 384.506 322.72 384.506C323.378 384.506 323.912 385.04 323.912 385.698C323.912 385.953 323.832 386.186 323.696 386.379L319.224 392.775V400Z" fill="black"/>
<path d="M475.782 380.897C475.294 380.897 474.885 380.499 474.885 380V365.698C474.885 365.204 475.288 364.801 475.782 364.801H484.647C485.141 364.801 485.538 365.204 485.538 365.698V365.704C485.538 366.198 485.141 366.595 484.647 366.595H476.679V371.51H482.076C482.57 371.51 482.967 371.907 482.967 372.401V372.406C482.967 372.9 482.57 373.303 482.076 373.303H476.679V379.103H485.033C485.527 379.103 485.924 379.501 485.924 379.994L485.93 380C485.93 380.494 485.527 380.891 485.033 380.891L475.782 380.897ZM489.495 371.396C489.495 370.902 489.898 370.499 490.391 370.499C490.709 370.499 490.993 370.67 491.152 370.925C491.708 370.573 492.361 370.363 493.07 370.363C495.045 370.363 496.646 371.964 496.646 373.939V380C496.646 380.494 496.243 380.897 495.749 380.897C495.255 380.897 494.852 380.494 494.852 380V373.939C494.852 372.951 494.058 372.157 493.07 372.157C492.083 372.157 491.288 372.946 491.288 373.939L491.282 380C491.282 380.494 490.885 380.897 490.391 380.897C489.898 380.897 489.495 380.494 489.495 380V371.396ZM505.762 380.539C505.376 380.783 504.809 381.033 504.094 381.033C503.293 381.033 502.573 380.704 501.999 380.204C501.489 379.762 501.091 379.171 500.796 378.513C500.427 377.684 500.217 376.725 500.217 375.698C500.217 374.671 500.427 373.712 500.796 372.883C501.091 372.225 501.489 371.635 501.999 371.192C502.573 370.692 503.293 370.363 504.094 370.363C504.485 370.363 505.019 370.443 505.586 370.766V365.698C505.586 365.204 505.984 364.801 506.477 364.801C506.971 364.801 507.368 365.204 507.368 365.698V380.006C507.368 380.499 506.971 380.897 506.477 380.897C506.182 380.897 505.927 380.755 505.762 380.539ZM505.586 373.286C505.382 372.917 504.86 372.157 504.094 372.157C503.015 372.157 502.011 373.729 502.011 375.698C502.011 377.667 503.015 379.24 504.094 379.24C504.86 379.24 505.359 378.558 505.586 378.156V373.286Z" fill="black" fill-opacity="0.5"/>
<path d="M486.44 184.175C486.44 186.774 483.926 188.897 480.595 188.897C479.704 188.897 478.904 188.726 478.205 188.437C477.337 188.074 476.645 187.512 476.123 186.865C475.691 186.331 475.022 185.287 474.891 183.823C474.891 183.8 474.885 183.772 474.885 183.743C474.885 183.25 475.288 182.847 475.782 182.847C476.247 182.847 476.633 183.21 476.673 183.664C476.736 184.351 477.014 185.123 477.513 185.747C478.052 186.417 478.994 187.103 480.595 187.103C482.882 187.103 484.653 185.787 484.653 184.175C484.653 183.034 484.136 182.132 482.173 181.587C481.65 181.445 481.072 181.331 480.476 181.252C478.773 181.019 476.792 180.605 475.913 178.942C475.623 178.392 475.481 177.75 475.481 177.03C475.481 174.697 477.757 172.801 480.595 172.801C481.31 172.801 482.036 172.932 482.723 173.221C483.33 173.477 483.909 173.857 484.38 174.379C484.936 174.998 485.368 175.855 485.481 176.939C485.487 176.967 485.487 176.995 485.487 177.03C485.487 177.523 485.084 177.921 484.59 177.921C484.131 177.921 483.745 177.574 483.699 177.12C483.631 176.439 483.387 175.951 483.052 175.577C482.78 175.276 482.434 175.037 482.036 174.873C481.588 174.686 481.083 174.595 480.595 174.595C478.767 174.595 477.269 175.707 477.269 177.03C477.269 178.023 477.649 178.516 478.308 178.857C478.943 179.186 479.829 179.356 480.725 179.481C482.553 179.731 484.528 180.225 485.629 181.644C486.094 182.245 486.44 183.062 486.44 184.175ZM494.974 186.099C494.974 185.605 495.371 185.208 495.865 185.208C496.359 185.208 496.756 185.605 496.756 186.099V186.411C496.756 187.784 495.65 188.897 494.276 188.897C492.903 188.897 491.796 187.784 491.796 186.411V180.293L490.303 180.287C489.81 180.287 489.412 179.89 489.412 179.396C489.412 178.902 489.81 178.499 490.303 178.499H491.796V176.876C491.796 176.383 492.193 175.98 492.687 175.98C493.181 175.98 493.578 176.383 493.578 176.876V178.499L495.865 178.505C496.359 178.505 496.756 178.902 496.756 179.396C496.756 179.89 496.359 180.293 495.865 180.293H493.578V186.411C493.578 186.797 493.89 187.103 494.276 187.103C494.662 187.103 494.974 186.797 494.974 186.411V186.099ZM505.703 181.757C505.703 180.963 505.068 180.157 503.955 180.157C502.798 180.157 502.469 180.616 502.332 180.849C502.242 181.002 502.162 181.201 502.105 181.451C502.014 181.854 501.657 182.154 501.231 182.154C500.738 182.154 500.335 181.751 500.335 181.258C500.335 181.19 500.34 181.127 500.357 181.065C500.528 180.299 501.152 178.363 503.955 178.363C506.021 178.363 507.486 179.941 507.486 181.757V183.028C507.486 183.045 507.491 183.068 507.491 183.085C507.491 186.411 507.486 186.411 507.486 186.411C507.486 186.547 507.497 187.024 507.639 187.24C507.923 187.234 508.246 187.183 508.246 187.183C508.28 187.177 508.32 187.171 508.382 187.171C508.876 187.171 509.279 187.574 509.279 188.068C509.279 188.516 508.95 188.885 508.518 188.953C508.496 188.959 508.042 189.033 507.559 189.033C507.304 189.033 506.736 188.959 506.271 188.392C505.579 188.834 504.716 189.01 504.012 189.01C503.456 189.01 502.866 188.919 502.298 188.715C501.85 188.551 501.402 188.312 501.033 187.932C500.709 187.597 500.335 187.035 500.335 186.212C500.335 185.565 500.476 184.351 501.765 183.443C502.378 183.011 503.133 182.728 503.961 182.506C504.455 182.376 505.028 182.285 505.698 182.234C505.698 181.939 505.703 181.757 505.703 181.757ZM502.128 186.212C502.128 186.428 502.202 186.57 502.315 186.689C502.639 187.024 503.343 187.217 504.012 187.217C504.29 187.217 504.654 187.171 504.954 187.058C505.692 186.785 505.692 186.365 505.692 186.212C505.692 186.212 505.698 185.128 505.698 184.027C505.295 184.061 504.824 184.124 504.427 184.232C502.554 184.731 502.128 185.35 502.128 186.212ZM515.529 178.363C517.339 178.363 518.809 179.833 518.809 181.644V181.956C518.809 182.449 518.406 182.847 517.913 182.847C517.419 182.847 517.016 182.449 517.016 181.956V181.644C517.016 180.821 516.352 180.157 515.529 180.157C514.706 180.157 514.048 180.815 514.048 181.644C514.048 181.678 514.048 181.712 514.042 181.746V188C514.042 188.494 513.639 188.897 513.145 188.897C512.652 188.897 512.249 188.494 512.249 188V179.396C512.249 178.902 512.652 178.499 513.145 178.499C513.423 178.499 513.679 178.63 513.843 178.834C514.337 178.539 514.91 178.363 515.529 178.363ZM527.025 186.099C527.025 185.605 527.422 185.208 527.916 185.208C528.41 185.208 528.807 185.605 528.807 186.099V186.411C528.807 187.784 527.7 188.897 526.327 188.897C524.953 188.897 523.847 187.784 523.847 186.411V180.293L522.354 180.287C521.86 180.287 521.463 179.89 521.463 179.396C521.463 178.902 521.86 178.499 522.354 178.499H523.847V176.876C523.847 176.383 524.244 175.98 524.738 175.98C525.232 175.98 525.629 176.383 525.629 176.876V178.499L527.916 178.505C528.41 178.505 528.807 178.902 528.807 179.396C528.807 179.89 528.41 180.293 527.916 180.293H525.629V186.411C525.629 186.797 525.941 187.103 526.327 187.103C526.713 187.103 527.025 186.797 527.025 186.411V186.099Z" fill="black" fill-opacity="0.5"/>
<path d="M36.9404 376.175C36.9404 378.774 34.4262 380.897 31.0948 380.897C30.2037 380.897 29.4035 380.726 28.7054 380.437C27.8371 380.074 27.1447 379.512 26.6226 378.865C26.1913 378.331 25.5216 377.287 25.391 375.823C25.391 375.8 25.3854 375.772 25.3854 375.743C25.3854 375.25 25.7883 374.847 26.2821 374.847C26.7474 374.847 27.1334 375.21 27.1731 375.664C27.2355 376.351 27.5136 377.123 28.0131 377.747C28.5522 378.417 29.4943 379.103 31.0948 379.103C33.382 379.103 35.1527 377.787 35.1527 376.175C35.1527 375.034 34.6362 374.132 32.6725 373.587C32.1504 373.445 31.5715 373.331 30.9756 373.252C29.273 373.019 27.2923 372.605 26.4126 370.942C26.1232 370.392 25.9813 369.75 25.9813 369.03C25.9813 366.697 28.2571 364.801 31.0948 364.801C31.8099 364.801 32.5363 364.932 33.223 365.221C33.8303 365.477 34.4092 365.857 34.8803 366.379C35.4364 366.998 35.8678 367.855 35.9813 368.939C35.9869 368.967 35.9869 368.995 35.9869 369.03C35.9869 369.523 35.584 369.921 35.0902 369.921C34.6305 369.921 34.2446 369.574 34.1992 369.12C34.1311 368.439 33.8871 367.951 33.5522 367.577C33.2798 367.276 32.9336 367.037 32.5363 366.873C32.088 366.686 31.5829 366.595 31.0948 366.595C29.2673 366.595 27.769 367.707 27.769 369.03C27.769 370.023 28.1493 370.516 28.8076 370.857C29.4432 371.186 30.3286 371.356 31.2253 371.481C33.0528 371.731 35.0278 372.225 36.1288 373.644C36.5942 374.245 36.9404 375.062 36.9404 376.175ZM45.4742 378.099C45.4742 377.605 45.8714 377.208 46.3652 377.208C46.859 377.208 47.2562 377.605 47.2562 378.099V378.411C47.2562 379.784 46.1495 380.897 44.7761 380.897C43.4027 380.897 42.296 379.784 42.296 378.411V372.293L40.8033 372.287C40.3096 372.287 39.9123 371.89 39.9123 371.396C39.9123 370.902 40.3096 370.499 40.8033 370.499H42.296V368.876C42.296 368.383 42.6932 367.98 43.187 367.98C43.6808 367.98 44.078 368.383 44.078 368.876V370.499L46.3652 370.505C46.859 370.505 47.2562 370.902 47.2562 371.396C47.2562 371.89 46.859 372.293 46.3652 372.293H44.078V378.411C44.078 378.797 44.3902 379.103 44.7761 379.103C45.162 379.103 45.4742 378.797 45.4742 378.411V378.099ZM56.2035 373.757C56.2035 372.963 55.5678 372.157 54.4555 372.157C53.2977 372.157 52.9685 372.616 52.8323 372.849C52.7415 373.002 52.662 373.201 52.6053 373.451C52.5145 373.854 52.1569 374.154 51.7313 374.154C51.2375 374.154 50.8346 373.751 50.8346 373.258C50.8346 373.19 50.8403 373.127 50.8573 373.065C51.0275 372.299 51.6518 370.363 54.4555 370.363C56.5213 370.363 57.9855 371.941 57.9855 373.757V375.028C57.9855 375.045 57.9912 375.068 57.9912 375.085C57.9912 378.411 57.9855 378.411 57.9855 378.411C57.9855 378.547 57.9969 379.024 58.1388 379.24C58.4225 379.234 58.746 379.183 58.746 379.183C58.7801 379.177 58.8198 379.171 58.8822 379.171C59.376 379.171 59.779 379.574 59.779 380.068C59.779 380.516 59.4498 380.885 59.0185 380.953C58.9958 380.959 58.5417 381.033 58.0593 381.033C57.8039 381.033 57.2364 380.959 56.771 380.392C56.0786 380.834 55.216 381.01 54.5122 381.01C53.956 381.01 53.3658 380.919 52.7983 380.715C52.3499 380.551 51.9015 380.312 51.5326 379.932C51.2092 379.597 50.8346 379.035 50.8346 378.212C50.8346 377.565 50.9765 376.351 52.2648 375.443C52.8777 375.011 53.6325 374.728 54.4611 374.506C54.9549 374.376 55.5281 374.285 56.1978 374.234C56.1978 373.939 56.2035 373.757 56.2035 373.757ZM52.628 378.212C52.628 378.428 52.7018 378.57 52.8153 378.689C53.1388 379.024 53.8425 379.217 54.5122 379.217C54.7903 379.217 55.1535 379.171 55.4543 379.058C56.1921 378.785 56.1921 378.365 56.1921 378.212C56.1921 378.212 56.1978 377.128 56.1978 376.027C55.7948 376.061 55.3238 376.124 54.9265 376.232C53.0536 376.731 52.628 377.35 52.628 378.212ZM66.029 370.363C67.8394 370.363 69.3094 371.833 69.3094 373.644V373.956C69.3094 374.449 68.9064 374.847 68.4127 374.847C67.9189 374.847 67.5159 374.449 67.5159 373.956V373.644C67.5159 372.821 66.8519 372.157 66.029 372.157C65.2061 372.157 64.5477 372.815 64.5477 373.644C64.5477 373.678 64.5477 373.712 64.5421 373.746V380C64.5421 380.494 64.1391 380.897 63.6453 380.897C63.1516 380.897 62.7486 380.494 62.7486 380V371.396C62.7486 370.902 63.1516 370.499 63.6453 370.499C63.9234 370.499 64.1788 370.63 64.3434 370.834C64.8372 370.539 65.4104 370.363 66.029 370.363ZM77.525 378.099C77.525 377.605 77.9222 377.208 78.416 377.208C78.9097 377.208 79.307 377.605 79.307 378.099V378.411C79.307 379.784 78.2003 380.897 76.8269 380.897C75.4534 380.897 74.3467 379.784 74.3467 378.411V372.293L72.8541 372.287C72.3604 372.287 71.9631 371.89 71.9631 371.396C71.9631 370.902 72.3604 370.499 72.8541 370.499H74.3467V368.876C74.3467 368.383 74.744 367.98 75.2378 367.98C75.7315 367.98 76.1288 368.383 76.1288 368.876V370.499L78.416 370.505C78.9097 370.505 79.307 370.902 79.307 371.396C79.307 371.89 78.9097 372.293 78.416 372.293H76.1288V378.411C76.1288 378.797 76.441 379.103 76.8269 379.103C77.2128 379.103 77.525 378.797 77.525 378.411V378.099Z" fill="black" fill-opacity="0.5"/>
<path d="M257.739 7.48354C257.739 10.5528 255.506 13.1498 252.409 13.9943L257.594 24.3644C257.694 24.5551 257.749 24.773 257.749 25C257.749 25.79 257.104 26.4347 256.314 26.4347C255.751 26.4347 255.27 26.1078 255.033 25.6447L249.358 14.2849H242.52V25C242.52 25.79 241.876 26.4347 241.086 26.4347C240.296 26.4347 239.651 25.79 239.651 25V2.11691C239.651 1.3269 240.296 0.682178 241.086 0.682178H250.239C254.389 0.682178 257.739 3.74234 257.739 7.48354ZM254.888 7.48354C254.888 5.31328 252.791 3.55165 250.239 3.55165H242.52V11.4154H250.239C252.791 11.4154 254.888 9.6538 254.888 7.48354ZM263.463 13.5585C263.463 6.42111 267.768 0.682178 273.116 0.682178C278.465 0.682178 282.787 6.43019 282.787 13.5585C282.787 20.6958 278.492 26.4347 273.143 26.4347C267.795 26.4347 263.463 20.6867 263.463 13.5585ZM279.936 13.5585C279.936 8.04654 276.794 3.55165 273.116 3.55165C269.429 3.55165 266.333 8.05562 266.333 13.5585C266.333 19.0704 269.466 23.5653 273.143 23.5653C276.83 23.5653 279.936 19.0613 279.936 13.5585ZM288.495 2.11691C288.495 1.3269 289.139 0.682178 289.929 0.682178C290.62 0.682178 291.192 1.17253 291.328 1.81725L295.278 20.3689L299.119 2.29852C299.255 1.64472 299.845 1.17253 300.517 1.17253H301.471C302.143 1.17253 302.733 1.64472 302.869 2.29852L306.71 20.3689L310.651 1.84449C310.788 1.19977 311.36 0.709419 312.05 0.709419C312.84 0.709419 313.484 1.35414 313.484 2.14415C313.484 2.24404 313.466 2.35301 313.448 2.44381L308.581 25.2997C308.445 25.9535 307.855 26.4347 307.183 26.4347L306.229 26.4257C305.557 26.4257 304.967 25.9535 304.831 25.2997L300.99 7.22928L297.149 25.2997C297.012 25.9535 296.422 26.4347 295.75 26.4347L294.797 26.4257C294.125 26.4257 293.534 25.9535 293.398 25.2997L288.531 2.41657C288.513 2.32577 288.495 2.2168 288.495 2.11691Z" fill="black"/>
</svg>
