<svg fill="none" height="489" viewBox="0 0 556 489" width="556" xmlns="http://www.w3.org/2000/svg" xmlns:xlink="http://www.w3.org/1999/xlink"><mask id="a" fill="#fff"><path d="m242 109h72v72h-72z" fill="#fff"/></mask><mask id="b" fill="#fff"><path d="m242 217h72v72h-72z" fill="#fff"/></mask><mask id="c" fill="#fff"><path d="m242 325h72v72h-72z" fill="#fff"/></mask><g stroke="#fff" stroke-width="3"><path d="m382.5 424.5-8.5 8.5-8.5-8.5"/><path d="m365.5 81.5 8.5-8.5 8.5 8.5"/><path d="m374 73v360"/></g><path d="m396.763 256.05c0 .513-.052 1.078-.154 1.694-.103.616-.338 1.195-.704 1.738-.367.528-.895.975-1.584 1.342-.69.352-1.621.528-2.794.528-.66 0-1.298-.095-1.914-.286-.616-.176-1.166-.455-1.65-.836-.484-.396-.873-.895-1.166-1.496-.294-.616-.44-1.357-.44-2.222v-1.364h3.124v.704c0 .381.029.733.088 1.056.058.323.161.601.308.836.146.22.344.396.594.528.264.132.601.198 1.012.198.454 0 .806-.081 1.056-.242.249-.161.425-.367.528-.616.117-.264.183-.543.198-.836.029-.308.044-.601.044-.88v-10.604h3.454zm13.148 4.95h-2.97v-1.584h-.066c-.396.66-.909 1.137-1.54 1.43-.63.293-1.276.44-1.936.44-.836 0-1.525-.11-2.068-.33-.528-.22-.946-.528-1.254-.924-.308-.411-.528-.902-.66-1.474-.117-.587-.176-1.232-.176-1.936v-6.996h3.124v6.424c0 .939.147 1.643.44 2.112.294.455.814.682 1.562.682.851 0 1.467-.249 1.848-.748.382-.513.572-1.349.572-2.508v-5.962h3.124zm4.571-3.696c0 .337.066.631.198.88.147.235.33.433.55.594.22.147.47.257.748.33.294.073.594.11.902.11.22 0 .448-.022.682-.066.25-.059.47-.139.66-.242.206-.117.374-.264.506-.44.132-.191.198-.425.198-.704 0-.469-.315-.821-.946-1.056-.616-.235-1.481-.469-2.596-.704-.454-.103-.902-.22-1.342-.352-.425-.147-.806-.33-1.144-.55-.337-.235-.608-.521-.814-.858-.205-.352-.308-.777-.308-1.276 0-.733.14-1.335.418-1.804.294-.469.675-.836 1.144-1.1.47-.279.998-.469 1.584-.572.587-.117 1.188-.176 1.804-.176s1.21.059 1.782.176c.587.117 1.108.315 1.562.594.455.279.829.653 1.122 1.122.308.455.492 1.034.55 1.738h-2.97c-.044-.601-.271-1.005-.682-1.21-.41-.22-.894-.33-1.452-.33-.176 0-.366.015-.572.044-.205.015-.396.059-.572.132-.161.073-.3.183-.418.33-.117.132-.176.315-.176.55 0 .279.103.506.308.682.206.176.47.323.792.44.338.103.719.198 1.144.286.426.088.858.183 1.298.286.455.103.895.227 1.32.374.44.147.829.345 1.166.594.338.235.609.535.814.902.206.352.308.792.308 1.32 0 .748-.154 1.379-.462 1.892-.293.499-.682.902-1.166 1.21s-1.041.521-1.672.638c-.616.132-1.246.198-1.892.198-.66 0-1.305-.066-1.936-.198-.63-.132-1.195-.352-1.694-.66-.484-.308-.887-.711-1.21-1.21-.308-.513-.476-1.151-.506-1.914zm13.137-7.678h2.288v2.09h-2.288v5.632c0 .528.088.88.264 1.056s.528.264 1.056.264c.176 0 .344-.007.506-.022.161-.015.315-.037.462-.066v2.42c-.264.044-.558.073-.88.088-.323.015-.638.022-.946.022-.484 0-.946-.037-1.386-.11-.426-.059-.807-.183-1.144-.374-.323-.191-.58-.462-.77-.814-.191-.352-.286-.814-.286-1.386v-6.71h-1.892v-2.09h1.892v-3.41h3.124zm6.766-1.76h-3.124v-2.574h3.124zm-3.124 1.76h3.124v11.374h-3.124zm6.046 2.09h-1.87v-2.09h1.87v-.88c0-1.012.315-1.841.946-2.486s1.584-.968 2.86-.968c.279 0 .557.015.836.044.279.015.55.029.814.044v2.332c-.367-.044-.748-.066-1.144-.066-.425 0-.733.103-.924.308-.176.191-.264.521-.264.99v.682h2.156v2.09h-2.156v9.284h-3.124zm12.034 10.692c-.337.924-.807 1.584-1.408 1.98s-1.437.594-2.508.594c-.323 0-.645-.015-.968-.044-.308-.015-.623-.037-.946-.066v-2.574c.293.029.594.059.902.088s.616.037.924.022c.411-.044.711-.205.902-.484.205-.279.308-.587.308-.924 0-.249-.044-.484-.132-.704l-3.982-10.67h3.322l2.574 7.788h.044l2.486-7.788h3.234z" fill="#fff"/><path d="m206 73h144v360h-144z" fill="#ffd700"/><path d="m238.46 86.572c-.059-.396-.191-.7553-.396-1.078-.206-.3373-.462-.6307-.77-.88s-.66-.44-1.056-.572c-.382-.1467-.785-.22-1.21-.22-.778 0-1.438.154-1.98.462-.543.2933-.983.6967-1.32 1.21-.338.4987-.587 1.0707-.748 1.716-.147.6453-.22 1.3127-.22 2.002 0 .66.073 1.3053.22 1.936.161.616.41 1.1733.748 1.672.337.4987.777.902 1.32 1.21.542.2933 1.202.44 1.98.44 1.056 0 1.877-.3227 2.464-.968.601-.6453.968-1.496 1.1-2.552h3.344c-.088.9827-.316 1.87-.682 2.662-.367.792-.851 1.4667-1.452 2.024-.602.5573-1.306.9827-2.112 1.276-.807.2933-1.694.44-2.662.44-1.203 0-2.288-.2053-3.256-.616-.954-.4253-1.76-1.0047-2.42-1.738s-1.166-1.5913-1.518-2.574c-.352-.9973-.528-2.068-.528-3.212 0-1.1733.176-2.2587.528-3.256.352-1.012.858-1.892 1.518-2.64s1.466-1.3347 2.42-1.76c.968-.4253 2.053-.638 3.256-.638.865 0 1.679.1247 2.442.374.777.2493 1.466.616 2.068 1.1.616.4693 1.122 1.056 1.518 1.76s.645 1.5107.748 2.42zm8.276 4.752c0 .4547.044.902.132 1.342.088.4253.235.814.44 1.166.22.3373.506.6087.858.814s.792.308 1.32.308.968-.1027 1.32-.308c.367-.2053.653-.4767.858-.814.22-.352.374-.7407.462-1.166.088-.44.132-.8873.132-1.342s-.044-.902-.132-1.342-.242-.8287-.462-1.166c-.205-.3373-.491-.6087-.858-.814-.352-.22-.792-.33-1.32-.33s-.968.11-1.32.33c-.352.2053-.638.4767-.858.814-.205.3373-.352.726-.44 1.166s-.132.8873-.132 1.342zm-3.124 0c0-.9093.14-1.7307.418-2.464.279-.748.675-1.3787 1.188-1.892.514-.528 1.13-.9313 1.848-1.21.719-.2933 1.526-.44 2.42-.44.895 0 1.702.1467 2.42.44.734.2787 1.357.682 1.87 1.21.514.5133.91 1.144 1.188 1.892.279.7333.418 1.5547.418 2.464s-.139 1.7307-.418 2.464c-.278.7333-.674 1.364-1.188 1.892-.513.5133-1.136.9093-1.87 1.188-.718.2787-1.525.418-2.42.418-.894 0-1.701-.1393-2.42-.418-.718-.2787-1.334-.6747-1.848-1.188-.513-.528-.909-1.1587-1.188-1.892-.278-.7333-.418-1.5547-.418-2.464zm13.802-5.698h2.97v1.584h.066c.396-.66.909-1.1367 1.54-1.43.63-.308 1.276-.462 1.936-.462.836 0 1.518.1173 2.046.352.542.22.968.5353 1.276.946.308.396.52.8873.638 1.474.132.572.198 1.21.198 1.914v6.996h-3.124v-6.424c0-.9387-.147-1.6353-.44-2.09-.294-.4693-.814-.704-1.562-.704-.851 0-1.467.2567-1.848.77-.382.4987-.572 1.3273-.572 2.486v5.962h-3.124zm17.001 0h2.288v2.09h-2.288v5.632c0 .528.088.88.264 1.056s.528.264 1.056.264c.176 0 .344-.0073.506-.022.161-.0147.315-.0367.462-.066v2.42c-.264.044-.558.0733-.88.088-.323.0147-.638.022-.946.022-.484 0-.946-.0367-1.386-.11-.426-.0587-.807-.1833-1.144-.374-.323-.1907-.58-.462-.77-.814-.191-.352-.286-.814-.286-1.386v-6.71h-1.892v-2.09h1.892v-3.41h3.124zm3.642 3.498c.044-.7333.227-1.342.55-1.826s.733-.8727 1.232-1.166 1.056-.4987 1.672-.616c.631-.132 1.261-.198 1.892-.198.572 0 1.151.044 1.738.132.587.0733 1.122.2273 1.606.462s.88.5647 1.188.99c.308.4107.462.9607.462 1.65v5.918c0 .5133.029 1.0047.088 1.474s.161.8213.308 1.056h-3.168c-.059-.176-.11-.352-.154-.528-.029-.1907-.051-.3813-.066-.572-.499.5133-1.085.8727-1.76 1.078s-1.364.308-2.068.308c-.543 0-1.049-.066-1.518-.198s-.88-.3373-1.232-.616-.631-.6307-.836-1.056c-.191-.4253-.286-.9313-.286-1.518 0-.6453.11-1.1733.33-1.584.235-.4253.528-.7627.88-1.012.367-.2493.777-.4327 1.232-.55.469-.132.939-.2347 1.408-.308s.931-.132 1.386-.176.858-.11 1.21-.198.631-.2127.836-.374c.205-.176.301-.4253.286-.748 0-.3373-.059-.6013-.176-.792-.103-.2053-.249-.3593-.44-.462-.176-.1173-.389-.1907-.638-.22-.235-.044-.491-.066-.77-.066-.616 0-1.1.132-1.452.396s-.557.704-.616 1.32zm7.216 2.31c-.132.1173-.301.2127-.506.286-.191.0587-.403.11-.638.154-.22.044-.455.0807-.704.11s-.499.066-.748.11c-.235.044-.469.1027-.704.176-.22.0733-.418.176-.594.308-.161.1173-.293.2713-.396.462s-.154.4327-.154.726c0 .2787.051.5133.154.704s.242.3447.418.462c.176.1027.381.176.616.22s.477.066.726.066c.616 0 1.093-.1027 1.43-.308s.587-.4473.748-.726c.161-.2933.257-.5867.286-.88.044-.2933.066-.528.066-.704zm8.761-7.568h-3.124v-2.574h3.124zm-3.124 1.76h3.124v11.374h-3.124zm5.584 0h2.97v1.584h.066c.396-.66.909-1.1367 1.54-1.43.63-.308 1.276-.462 1.936-.462.836 0 1.518.1173 2.046.352.542.22.968.5353 1.276.946.308.396.52.8873.638 1.474.132.572.198 1.21.198 1.914v6.996h-3.124v-6.424c0-.9387-.147-1.6353-.44-2.09-.294-.4693-.814-.704-1.562-.704-.851 0-1.467.2567-1.848.77-.382.4987-.572 1.3273-.572 2.486v5.962h-3.124zm20.697 4.466c-.147-.792-.411-1.3933-.792-1.804-.367-.4107-.932-.616-1.694-.616-.499 0-.917.088-1.254.264-.323.1613-.587.3667-.792.616-.191.2493-.33.5133-.418.792-.074.2787-.118.528-.132.748zm-5.082 1.98c.044 1.012.3 1.7453.77 2.2.469.4547 1.144.682 2.024.682.63 0 1.173-.154 1.628-.462.454-.3227.733-.66.836-1.012h2.75c-.44 1.364-1.115 2.3393-2.024 2.926-.91.5867-2.01.88-3.3.88-.895 0-1.702-.1393-2.42-.418-.719-.2933-1.328-.704-1.826-1.232-.499-.528-.888-1.1587-1.166-1.892-.264-.7333-.396-1.54-.396-2.42 0-.8507.139-1.6427.418-2.376.278-.7333.674-1.364 1.188-1.892.513-.5427 1.122-.968 1.826-1.276.718-.308 1.51-.462 2.376-.462.968 0 1.811.1907 2.53.572.718.3667 1.305.8653 1.76 1.496.469.6307.806 1.3493 1.012 2.156.205.8067.278 1.65.22 2.53zm10.058-6.446h2.97v2.112h.044c.147-.352.345-.6747.594-.968.25-.308.536-.5647.858-.77.323-.22.668-.3887 1.034-.506.367-.1173.748-.176 1.144-.176.206 0 .433.0367.682.11v2.904c-.146-.0293-.322-.0513-.528-.066-.205-.0293-.403-.044-.594-.044-.572 0-1.056.0953-1.452.286s-.718.4547-.968.792c-.234.3227-.403.704-.506 1.144-.102.44-.154.9167-.154 1.43v5.126h-3.124z" fill="#000"/><path d="m242 109h72v72h-72z" fill="#000"/><path d="m242 109h72v72h-72z" fill="#ff6347"/><path d="m314 181v2h2v-2zm-2-72v72h4v-72zm2 70h-72v4h72z" fill="#b22222" mask="url(#a)"/><path d="m259.36 123.792h10.318v1.76h-8.228v4.994h7.216v1.76h-7.216v7.194h-2.09zm12.434 0h1.87v15.708h-1.87zm12.665 8.932c-.029-.44-.132-.858-.308-1.254-.161-.396-.388-.733-.682-1.012-.278-.293-.616-.521-1.012-.682-.381-.176-.806-.264-1.276-.264-.484 0-.924.088-1.32.264-.381.161-.711.389-.99.682-.278.293-.498.638-.66 1.034-.161.381-.256.792-.286 1.232zm1.804 3.168c-.249 1.276-.799 2.237-1.65 2.882-.85.645-1.921.968-3.212.968-.909 0-1.701-.147-2.376-.44-.66-.293-1.217-.704-1.672-1.232-.454-.528-.799-1.159-1.034-1.892-.22-.733-.344-1.533-.374-2.398 0-.865.132-1.657.396-2.376s.631-1.342 1.1-1.87c.484-.528 1.049-.939 1.694-1.232.66-.293 1.379-.44 2.156-.44 1.012 0 1.848.213 2.508.638.675.411 1.21.939 1.606 1.584.411.645.69 1.349.836 2.112.162.763.228 1.489.198 2.178h-8.514c-.014.499.044.975.176 1.43.132.44.345.836.638 1.188.294.337.668.609 1.122.814.455.205.99.308 1.606.308.792 0 1.438-.183 1.936-.55.514-.367.851-.924 1.012-1.672zm5.173-2.376-3.96-5.39h2.398l2.728 3.982 2.838-3.982h2.244l-3.916 5.236 4.4 6.138h-2.398l-3.168-4.708-3.168 4.708h-2.266zm-33.235 13.276h2.09v15.708h-2.09zm7.894 4.334h2.266v1.65h-2.266v7.062c0 .22.014.396.044.528.044.132.117.235.22.308.102.073.242.125.418.154.19.015.432.022.726.022h.858v1.65h-1.43c-.484 0-.902-.029-1.254-.088-.338-.073-.616-.198-.836-.374-.206-.176-.36-.425-.462-.748-.103-.323-.154-.748-.154-1.276v-7.238h-1.936v-1.65h1.936v-3.41h1.87zm12.241 4.598c-.029-.44-.132-.858-.308-1.254-.161-.396-.388-.733-.682-1.012-.278-.293-.616-.521-1.012-.682-.381-.176-.806-.264-1.276-.264-.484 0-.924.088-1.32.264-.381.161-.711.389-.99.682-.278.293-.498.638-.66 1.034-.161.381-.256.792-.286 1.232zm1.804 3.168c-.249 1.276-.799 2.237-1.65 2.882-.85.645-1.921.968-3.212.968-.909 0-1.701-.147-2.376-.44-.66-.293-1.217-.704-1.672-1.232-.454-.528-.799-1.159-1.034-1.892-.22-.733-.344-1.533-.374-2.398 0-.865.132-1.657.396-2.376s.631-1.342 1.1-1.87c.484-.528 1.049-.939 1.694-1.232.66-.293 1.379-.44 2.156-.44 1.012 0 1.848.213 2.508.638.675.411 1.21.939 1.606 1.584.411.645.69 1.349.836 2.112.162.763.228 1.489.198 2.178h-8.514c-.014.499.044.975.176 1.43.132.44.345.836.638 1.188.294.337.668.609 1.122.814.455.205.99.308 1.606.308.792 0 1.438-.183 1.936-.55.514-.367.851-.924 1.012-1.672zm2.115-7.766h1.76v1.672h.044c.85-1.291 2.075-1.936 3.674-1.936.704 0 1.342.147 1.914.44s.975.792 1.21 1.496c.381-.616.88-1.093 1.496-1.43.63-.337 1.32-.506 2.068-.506.572 0 1.085.066 1.54.198.469.117.865.308 1.188.572.337.264.594.609.77 1.034.19.411.286.909.286 1.496v8.338h-1.87v-7.458c0-.352-.03-.682-.088-.99-.059-.308-.169-.572-.33-.792-.162-.235-.389-.418-.682-.55-.279-.132-.646-.198-1.1-.198-.924 0-1.65.264-2.178.792s-.792 1.232-.792 2.112v7.084h-1.87v-7.458c0-.367-.037-.704-.11-1.012-.059-.308-.169-.572-.33-.792-.162-.235-.382-.411-.66-.528-.264-.132-.609-.198-1.034-.198-.543 0-1.012.11-1.408.33-.382.22-.697.484-.946.792-.235.308-.411.631-.528.968-.103.323-.154.594-.154.814v7.084h-1.87z" fill="#000"/><path d="m242 217h72v72h-72z" fill="#000"/><path d="m242 217h72v72h-72z" fill="#ff6347"/><path d="m314 289v2h2v-2zm-2-72v72h4v-72zm2 70h-72v4h72z" fill="#b22222" mask="url(#b)"/><path d="m259.36 231.792h10.318v1.76h-8.228v4.994h7.216v1.76h-7.216v7.194h-2.09zm12.434 0h1.87v15.708h-1.87zm12.665 8.932c-.029-.44-.132-.858-.308-1.254-.161-.396-.388-.733-.682-1.012-.278-.293-.616-.521-1.012-.682-.381-.176-.806-.264-1.276-.264-.484 0-.924.088-1.32.264-.381.161-.711.389-.99.682-.278.293-.498.638-.66 1.034-.161.381-.256.792-.286 1.232zm1.804 3.168c-.249 1.276-.799 2.237-1.65 2.882-.85.645-1.921.968-3.212.968-.909 0-1.701-.147-2.376-.44-.66-.293-1.217-.704-1.672-1.232-.454-.528-.799-1.159-1.034-1.892-.22-.733-.344-1.533-.374-2.398 0-.865.132-1.657.396-2.376s.631-1.342 1.1-1.87c.484-.528 1.049-.939 1.694-1.232.66-.293 1.379-.44 2.156-.44 1.012 0 1.848.213 2.508.638.675.411 1.21.939 1.606 1.584.411.645.69 1.349.836 2.112.162.763.228 1.489.198 2.178h-8.514c-.014.499.044.975.176 1.43.132.44.345.836.638 1.188.294.337.668.609 1.122.814.455.205.99.308 1.606.308.792 0 1.438-.183 1.936-.55.514-.367.851-.924 1.012-1.672zm5.173-2.376-3.96-5.39h2.398l2.728 3.982 2.838-3.982h2.244l-3.916 5.236 4.4 6.138h-2.398l-3.168-4.708-3.168 4.708h-2.266zm-33.235 13.276h2.09v15.708h-2.09zm7.894 4.334h2.266v1.65h-2.266v7.062c0 .22.014.396.044.528.044.132.117.235.22.308.102.073.242.125.418.154.19.015.432.022.726.022h.858v1.65h-1.43c-.484 0-.902-.029-1.254-.088-.338-.073-.616-.198-.836-.374-.206-.176-.36-.425-.462-.748-.103-.323-.154-.748-.154-1.276v-7.238h-1.936v-1.65h1.936v-3.41h1.87zm12.241 4.598c-.029-.44-.132-.858-.308-1.254-.161-.396-.388-.733-.682-1.012-.278-.293-.616-.521-1.012-.682-.381-.176-.806-.264-1.276-.264-.484 0-.924.088-1.32.264-.381.161-.711.389-.99.682-.278.293-.498.638-.66 1.034-.161.381-.256.792-.286 1.232zm1.804 3.168c-.249 1.276-.799 2.237-1.65 2.882-.85.645-1.921.968-3.212.968-.909 0-1.701-.147-2.376-.44-.66-.293-1.217-.704-1.672-1.232-.454-.528-.799-1.159-1.034-1.892-.22-.733-.344-1.533-.374-2.398 0-.865.132-1.657.396-2.376s.631-1.342 1.1-1.87c.484-.528 1.049-.939 1.694-1.232.66-.293 1.379-.44 2.156-.44 1.012 0 1.848.213 2.508.638.675.411 1.21.939 1.606 1.584.411.645.69 1.349.836 2.112.162.763.228 1.489.198 2.178h-8.514c-.014.499.044.975.176 1.43.132.44.345.836.638 1.188.294.337.668.609 1.122.814.455.205.99.308 1.606.308.792 0 1.438-.183 1.936-.55.514-.367.851-.924 1.012-1.672zm2.115-7.766h1.76v1.672h.044c.85-1.291 2.075-1.936 3.674-1.936.704 0 1.342.147 1.914.44s.975.792 1.21 1.496c.381-.616.88-1.093 1.496-1.43.63-.337 1.32-.506 2.068-.506.572 0 1.085.066 1.54.198.469.117.865.308 1.188.572.337.264.594.609.77 1.034.19.411.286.909.286 1.496v8.338h-1.87v-7.458c0-.352-.03-.682-.088-.99-.059-.308-.169-.572-.33-.792-.162-.235-.389-.418-.682-.55-.279-.132-.646-.198-1.1-.198-.924 0-1.65.264-2.178.792s-.792 1.232-.792 2.112v7.084h-1.87v-7.458c0-.367-.037-.704-.11-1.012-.059-.308-.169-.572-.33-.792-.162-.235-.382-.411-.66-.528-.264-.132-.609-.198-1.034-.198-.543 0-1.012.11-1.408.33-.382.22-.697.484-.946.792-.235.308-.411.631-.528.968-.103.323-.154.594-.154.814v7.084h-1.87z" fill="#000"/><path d="m242 325h72v72h-72z" fill="#000"/><path d="m242 325h72v72h-72z" fill="#ff6347"/><path d="m314 397v2h2v-2zm-2-72v72h4v-72zm2 70h-72v4h72z" fill="#b22222" mask="url(#c)"/><path d="m259.36 339.792h10.318v1.76h-8.228v4.994h7.216v1.76h-7.216v7.194h-2.09zm12.434 0h1.87v15.708h-1.87zm12.665 8.932c-.029-.44-.132-.858-.308-1.254-.161-.396-.388-.733-.682-1.012-.278-.293-.616-.521-1.012-.682-.381-.176-.806-.264-1.276-.264-.484 0-.924.088-1.32.264-.381.161-.711.389-.99.682-.278.293-.498.638-.66 1.034-.161.381-.256.792-.286 1.232zm1.804 3.168c-.249 1.276-.799 2.237-1.65 2.882-.85.645-1.921.968-3.212.968-.909 0-1.701-.147-2.376-.44-.66-.293-1.217-.704-1.672-1.232-.454-.528-.799-1.159-1.034-1.892-.22-.733-.344-1.533-.374-2.398 0-.865.132-1.657.396-2.376s.631-1.342 1.1-1.87c.484-.528 1.049-.939 1.694-1.232.66-.293 1.379-.44 2.156-.44 1.012 0 1.848.213 2.508.638.675.411 1.21.939 1.606 1.584.411.645.69 1.349.836 2.112.162.763.228 1.489.198 2.178h-8.514c-.014.499.044.975.176 1.43.132.44.345.836.638 1.188.294.337.668.609 1.122.814.455.205.99.308 1.606.308.792 0 1.438-.183 1.936-.55.514-.367.851-.924 1.012-1.672zm5.173-2.376-3.96-5.39h2.398l2.728 3.982 2.838-3.982h2.244l-3.916 5.236 4.4 6.138h-2.398l-3.168-4.708-3.168 4.708h-2.266zm-33.235 13.276h2.09v15.708h-2.09zm7.894 4.334h2.266v1.65h-2.266v7.062c0 .22.014.396.044.528.044.132.117.235.22.308.102.073.242.125.418.154.19.015.432.022.726.022h.858v1.65h-1.43c-.484 0-.902-.029-1.254-.088-.338-.073-.616-.198-.836-.374-.206-.176-.36-.425-.462-.748-.103-.323-.154-.748-.154-1.276v-7.238h-1.936v-1.65h1.936v-3.41h1.87zm12.241 4.598c-.029-.44-.132-.858-.308-1.254-.161-.396-.388-.733-.682-1.012-.278-.293-.616-.521-1.012-.682-.381-.176-.806-.264-1.276-.264-.484 0-.924.088-1.32.264-.381.161-.711.389-.99.682-.278.293-.498.638-.66 1.034-.161.381-.256.792-.286 1.232zm1.804 3.168c-.249 1.276-.799 2.237-1.65 2.882-.85.645-1.921.968-3.212.968-.909 0-1.701-.147-2.376-.44-.66-.293-1.217-.704-1.672-1.232-.454-.528-.799-1.159-1.034-1.892-.22-.733-.344-1.533-.374-2.398 0-.865.132-1.657.396-2.376s.631-1.342 1.1-1.87c.484-.528 1.049-.939 1.694-1.232.66-.293 1.379-.44 2.156-.44 1.012 0 1.848.213 2.508.638.675.411 1.21.939 1.606 1.584.411.645.69 1.349.836 2.112.162.763.228 1.489.198 2.178h-8.514c-.014.499.044.975.176 1.43.132.44.345.836.638 1.188.294.337.668.609 1.122.814.455.205.99.308 1.606.308.792 0 1.438-.183 1.936-.55.514-.367.851-.924 1.012-1.672zm2.115-7.766h1.76v1.672h.044c.85-1.291 2.075-1.936 3.674-1.936.704 0 1.342.147 1.914.44s.975.792 1.21 1.496c.381-.616.88-1.093 1.496-1.43.63-.337 1.32-.506 2.068-.506.572 0 1.085.066 1.54.198.469.117.865.308 1.188.572.337.264.594.609.77 1.034.19.411.286.909.286 1.496v8.338h-1.87v-7.458c0-.352-.03-.682-.088-.99-.059-.308-.169-.572-.33-.792-.162-.235-.389-.418-.682-.55-.279-.132-.646-.198-1.1-.198-.924 0-1.65.264-2.178.792s-.792 1.232-.792 2.112v7.084h-1.87v-7.458c0-.367-.037-.704-.11-1.012-.059-.308-.169-.572-.33-.792-.162-.235-.382-.411-.66-.528-.264-.132-.609-.198-1.034-.198-.543 0-1.012.11-1.408.33-.382.22-.697.484-.946.792-.235.308-.411.631-.528.968-.103.323-.154.594-.154.814v7.084h-1.87z" fill="#000"/><path d="m341.5 448.5 8.5 8.5-8.5 8.5" stroke="#fff" stroke-width="3"/><path d="m215 465.5-8.5-8.5 8.5-8.5" stroke="#fff" stroke-width="3"/><path d="m206 457h144" stroke="#fff" stroke-width="3"/><g fill="#fff"><path d="m257.471 474.928h4.07l-1.98-5.764h-.044zm.33-9.636h3.542l5.874 15.708h-3.586l-1.188-3.498h-5.874l-1.232 3.498h-3.476zm10.308 0h3.124v15.708h-3.124zm8.576 2.574h-3.124v-2.574h3.124zm-3.124 1.76h3.124v11.374h-3.124zm10.666 8.69c.44 0 .829-.088 1.166-.264s.616-.411.836-.704.381-.623.484-.99c.117-.381.176-.777.176-1.188 0-.469-.044-.909-.132-1.32-.088-.425-.235-.799-.44-1.122s-.477-.579-.814-.77-.763-.286-1.276-.286c-.44 0-.821.088-1.144.264-.308.176-.572.418-.792.726-.205.293-.359.638-.462 1.034-.088.381-.132.785-.132 1.21 0 .411.037.821.11 1.232.088.396.227.755.418 1.078.205.323.469.587.792.792s.726.308 1.21.308zm5.632 1.958c0 .455-.066.975-.198 1.562-.117.587-.381 1.129-.792 1.628-.411.513-1.005.946-1.782 1.298s-1.819.528-3.124.528c-.557 0-1.129-.073-1.716-.22-.572-.132-1.1-.345-1.584-.638-.469-.293-.865-.675-1.188-1.144-.308-.455-.484-1.005-.528-1.65h3.102c.147.587.433.99.858 1.21.425.235.917.352 1.474.352.88 0 1.518-.264 1.914-.792.411-.528.609-1.195.594-2.002v-1.496h-.044c-.337.601-.821 1.049-1.452 1.342-.616.279-1.269.418-1.958.418-.851 0-1.584-.147-2.2-.44-.616-.308-1.122-.719-1.518-1.232-.396-.528-.689-1.137-.88-1.826-.176-.704-.264-1.445-.264-2.222 0-.733.103-1.437.308-2.112.22-.689.535-1.291.946-1.804.411-.528.917-.946 1.518-1.254.616-.308 1.32-.462 2.112-.462.748 0 1.401.139 1.958.418.572.279 1.049.748 1.43 1.408h.044v-1.518h2.97zm2.295-10.648h2.97v1.584h.066c.396-.66.91-1.137 1.54-1.43.631-.308 1.276-.462 1.936-.462.836 0 1.518.117 2.046.352.543.22.968.535 1.276.946.308.396.521.887.638 1.474.132.572.198 1.21.198 1.914v6.996h-3.124v-6.424c0-.939-.146-1.635-.44-2.09-.293-.469-.814-.704-1.562-.704-.85 0-1.466.257-1.848.77-.381.499-.572 1.327-.572 2.486v5.962h-3.124z"/><g fill-opacity=".333333"><path d="m367.716 449.292h10.846v1.76h-8.756v4.994h8.162v1.76h-8.162v5.434h8.822v1.76h-10.912zm13.141 4.334h1.76v1.804h.044c.778-1.379 2.01-2.068 3.696-2.068.748 0 1.372.103 1.87.308.499.205.902.491 1.21.858s.521.807.638 1.32c.132.499.198 1.056.198 1.672v7.48h-1.87v-7.7c0-.704-.205-1.261-.616-1.672-.41-.411-.975-.616-1.694-.616-.572 0-1.07.088-1.496.264-.41.176-.755.425-1.034.748-.278.323-.491.704-.638 1.144-.132.425-.198.895-.198 1.408v6.424h-1.87zm13.589 5.786c0 .528.066 1.049.198 1.562.146.499.359.946.638 1.342.293.396.66.711 1.1.946.454.235.982.352 1.584.352.63 0 1.166-.125 1.606-.374s.799-.572 1.078-.968c.278-.411.476-.873.594-1.386.132-.513.198-1.034.198-1.562 0-.557-.066-1.093-.198-1.606-.132-.528-.345-.99-.638-1.386-.279-.396-.646-.711-1.1-.946-.455-.249-1.005-.374-1.65-.374-.631 0-1.166.125-1.606.374s-.792.579-1.056.99-.455.88-.572 1.408c-.118.528-.176 1.071-.176 1.628zm8.8 5.588h-1.87v-1.54h-.044c-.308.631-.792 1.085-1.452 1.364s-1.386.418-2.178.418c-.88 0-1.65-.161-2.31-.484-.646-.323-1.188-.755-1.628-1.298-.426-.543-.748-1.173-.968-1.892s-.33-1.481-.33-2.288.102-1.569.308-2.288c.22-.719.542-1.342.968-1.87.44-.543.982-.968 1.628-1.276.66-.323 1.422-.484 2.288-.484.293 0 .608.029.946.088.337.059.674.161 1.012.308.337.132.652.315.946.55.308.22.564.499.77.836h.044v-5.852h1.87z"/><path d="m153.158 453.89c-.117-1.129-.528-1.943-1.232-2.442-.689-.513-1.576-.77-2.662-.77-.44 0-.872.044-1.298.132-.425.088-.806.235-1.144.44-.322.205-.586.484-.792.836-.19.337-.286.763-.286 1.276 0 .484.14.88.418 1.188.294.293.675.535 1.144.726.484.191 1.027.352 1.628.484.602.117 1.21.249 1.826.396.631.147 1.247.323 1.848.528.602.191 1.137.455 1.606.792.484.337.866.763 1.144 1.276.294.513.44 1.159.44 1.936 0 .836-.19 1.555-.572 2.156-.366.587-.843 1.071-1.43 1.452-.586.367-1.246.631-1.98.792-.718.176-1.437.264-2.156.264-.88 0-1.716-.11-2.508-.33-.777-.22-1.466-.55-2.068-.99-.586-.455-1.056-1.027-1.408-1.716-.337-.704-.506-1.533-.506-2.486h1.98c0 .66.125 1.232.374 1.716.264.469.602.858 1.012 1.166.426.308.917.535 1.474.682.558.147 1.13.22 1.716.22.47 0 .939-.044 1.408-.132.484-.088.917-.235 1.298-.44.382-.22.69-.513.924-.88.235-.367.352-.836.352-1.408 0-.543-.146-.983-.44-1.32-.278-.337-.66-.609-1.144-.814-.469-.22-1.004-.396-1.606-.528-.601-.132-1.217-.264-1.848-.396-.616-.147-1.224-.308-1.826-.484-.601-.191-1.144-.433-1.628-.726-.469-.308-.85-.697-1.144-1.166-.278-.484-.418-1.085-.418-1.804 0-.792.162-1.474.484-2.046.323-.587.748-1.063 1.276-1.43.543-.381 1.152-.66 1.826-.836.69-.191 1.394-.286 2.112-.286.807 0 1.555.095 2.244.286.69.191 1.291.491 1.804.902.528.411.939.931 1.232 1.562.308.616.477 1.357.506 2.222zm7.468-.264h2.266v1.65h-2.266v7.062c0 .22.015.396.044.528.044.132.117.235.22.308s.242.125.418.154c.191.015.433.022.726.022h.858v1.65h-1.43c-.484 0-.902-.029-1.254-.088-.337-.073-.616-.198-.836-.374-.205-.176-.359-.425-.462-.748s-.154-.748-.154-1.276v-7.238h-1.936v-1.65h1.936v-3.41h1.87zm14.42 11.33c-.323.191-.77.286-1.342.286-.484 0-.873-.132-1.166-.396-.279-.279-.418-.726-.418-1.342-.514.616-1.115 1.063-1.804 1.342-.675.264-1.408.396-2.2.396-.514 0-1.005-.059-1.474-.176-.455-.117-.851-.301-1.188-.55-.338-.249-.609-.572-.814-.968-.191-.411-.286-.902-.286-1.474 0-.645.11-1.173.33-1.584s.506-.741.858-.99c.366-.264.777-.462 1.232-.594.469-.132.946-.242 1.43-.33.513-.103.997-.176 1.452-.22.469-.059.88-.132 1.232-.22.352-.103.63-.242.836-.418.205-.191.308-.462.308-.814 0-.411-.081-.741-.242-.99-.147-.249-.345-.44-.594-.572-.235-.132-.506-.22-.814-.264-.294-.044-.587-.066-.88-.066-.792 0-1.452.154-1.98.462-.528.293-.814.858-.858 1.694h-1.87c.029-.704.176-1.298.44-1.782s.616-.873 1.056-1.166c.44-.308.938-.528 1.496-.66.572-.132 1.18-.198 1.826-.198.513 0 1.019.037 1.518.11.513.073.975.227 1.386.462.41.22.74.535.99.946.249.411.374.946.374 1.606v5.852c0 .44.022.763.066.968.058.205.234.308.528.308.161 0 .352-.037.572-.11zm-3.036-5.83c-.235.176-.543.308-.924.396-.382.073-.785.139-1.21.198-.411.044-.829.103-1.254.176-.426.059-.807.161-1.144.308-.338.147-.616.359-.836.638-.206.264-.308.631-.308 1.1 0 .308.058.572.176.792.132.205.293.374.484.506.205.132.44.227.704.286s.542.088.836.088c.616 0 1.144-.081 1.584-.242.44-.176.799-.389 1.078-.638.278-.264.484-.543.616-.836.132-.308.198-.594.198-.858zm4.71-5.5h1.76v2.398h.044c.455-.924 1.012-1.606 1.672-2.046s1.496-.645 2.508-.616v1.98c-.748 0-1.386.103-1.914.308s-.953.506-1.276.902-.557.88-.704 1.452c-.147.557-.22 1.203-.22 1.936v5.06h-1.87zm9.988 0h2.266v1.65h-2.266v7.062c0 .22.015.396.044.528.044.132.117.235.22.308s.242.125.418.154c.191.015.433.022.726.022h.858v1.65h-1.43c-.484 0-.902-.029-1.254-.088-.337-.073-.616-.198-.836-.374-.205-.176-.359-.425-.462-.748s-.154-.748-.154-1.276v-7.238h-1.936v-1.65h1.936v-3.41h1.87z"/><path d="m376.802 45.89c-.117-1.1293-.528-1.9433-1.232-2.442-.689-.5133-1.577-.77-2.662-.77-.44 0-.873.044-1.298.132s-.807.2347-1.144.44c-.323.2053-.587.484-.792.836-.191.3373-.286.7627-.286 1.276 0 .484.139.88.418 1.188.293.2933.675.5353 1.144.726.484.1907 1.027.352 1.628.484.601.1173 1.21.2493 1.826.396.631.1467 1.247.3227 1.848.528.601.1907 1.137.4547 1.606.792.484.3373.865.7627 1.144 1.276.293.5133.44 1.1587.44 1.936 0 .836-.191 1.5547-.572 2.156-.367.5867-.843 1.0707-1.43 1.452-.587.3667-1.247.6307-1.98.792-.719.176-1.437.264-2.156.264-.88 0-1.716-.11-2.508-.33-.777-.22-1.467-.55-2.068-.99-.587-.4547-1.056-1.0267-1.408-1.716-.337-.704-.506-1.5327-.506-2.486h1.98c0 .66.125 1.232.374 1.716.264.4693.601.858 1.012 1.166.425.308.917.5353 1.474.682s1.129.22 1.716.22c.469 0 .939-.044 1.408-.132.484-.088.917-.2347 1.298-.44.381-.22.689-.5133.924-.88s.352-.836.352-1.408c0-.5427-.147-.9827-.44-1.32-.279-.3373-.66-.6087-1.144-.814-.469-.22-1.005-.396-1.606-.528s-1.217-.264-1.848-.396c-.616-.1467-1.225-.308-1.826-.484-.601-.1907-1.144-.4327-1.628-.726-.469-.308-.851-.6967-1.144-1.166-.279-.484-.418-1.0853-.418-1.804 0-.792.161-1.474.484-2.046.323-.5867.748-1.0633 1.276-1.43.543-.3813 1.151-.66 1.826-.836.689-.1907 1.393-.286 2.112-.286.807 0 1.555.0953 2.244.286s1.291.4913 1.804.902c.528.4107.939.9313 1.232 1.562.308.616.477 1.3567.506 2.222zm7.468-.264h2.266v1.65h-2.266v7.062c0 .22.014.396.044.528.044.132.117.2347.22.308.102.0733.242.1247.418.154.19.0147.432.022.726.022h.858v1.65h-1.43c-.484 0-.902-.0293-1.254-.088-.338-.0733-.616-.198-.836-.374-.206-.176-.36-.4253-.462-.748-.103-.3227-.154-.748-.154-1.276v-7.238h-1.936v-1.65h1.936v-3.41h1.87zm14.419 11.33c-.323.1907-.77.286-1.342.286-.484 0-.873-.132-1.166-.396-.279-.2787-.418-.726-.418-1.342-.513.616-1.115 1.0633-1.804 1.342-.675.264-1.408.396-2.2.396-.513 0-1.005-.0587-1.474-.176-.455-.1173-.851-.3007-1.188-.55s-.609-.572-.814-.968c-.191-.4107-.286-.902-.286-1.474 0-.6453.11-1.1733.33-1.584s.506-.7407.858-.99c.367-.264.777-.462 1.232-.594.469-.132.946-.242 1.43-.33.513-.1027.997-.176 1.452-.22.469-.0587.88-.132 1.232-.22.352-.1027.631-.242.836-.418.205-.1907.308-.462.308-.814 0-.4107-.081-.7407-.242-.99-.147-.2493-.345-.44-.594-.572-.235-.132-.506-.22-.814-.264-.293-.044-.587-.066-.88-.066-.792 0-1.452.154-1.98.462-.528.2933-.814.858-.858 1.694h-1.87c.029-.704.176-1.298.44-1.782s.616-.8727 1.056-1.166c.44-.308.939-.528 1.496-.66.572-.132 1.181-.198 1.826-.198.513 0 1.019.0367 1.518.11.513.0733.975.2273 1.386.462.411.22.741.5353.99.946s.374.946.374 1.606v5.852c0 .44.022.7627.066.968.059.2053.235.308.528.308.161 0 .352-.0367.572-.11zm-3.036-5.83c-.235.176-.543.308-.924.396-.381.0733-.785.1393-1.21.198-.411.044-.829.1027-1.254.176-.425.0587-.807.1613-1.144.308s-.616.3593-.836.638c-.205.264-.308.6307-.308 1.1 0 .308.059.572.176.792.132.2053.293.374.484.506.205.132.44.2273.704.286s.543.088.836.088c.616 0 1.144-.0807 1.584-.242.44-.176.799-.3887 1.078-.638.279-.264.484-.5427.616-.836.132-.308.198-.594.198-.858zm4.71-5.5h1.76v2.398h.044c.455-.924 1.012-1.606 1.672-2.046s1.496-.6453 2.508-.616v1.98c-.748 0-1.386.1027-1.914.308s-.953.506-1.276.902c-.322.396-.557.88-.704 1.452-.146.5573-.22 1.2027-.22 1.936v5.06h-1.87zm9.989 0h2.266v1.65h-2.266v7.062c0 .22.014.396.044.528.044.132.117.2347.22.308.102.0733.242.1247.418.154.19.0147.432.022.726.022h.858v1.65h-1.43c-.484 0-.902-.0293-1.254-.088-.338-.0733-.616-.198-.836-.374-.206-.176-.36-.4253-.462-.748-.103-.3227-.154-.748-.154-1.276v-7.238h-1.936v-1.65h1.936v-3.41h1.87z"/></g><path d="m235.725 9.358c-.088-.594-.286-1.133-.594-1.617-.308-.506-.693-.946-1.155-1.32s-.99-.66-1.584-.858c-.572-.22-1.177-.33-1.815-.33-1.166 0-2.156.231-2.97.693-.814.44-1.474 1.045-1.98 1.815-.506.748-.88 1.606-1.122 2.574-.22.968-.33 1.969-.33 3.003 0 .99.11 1.958.33 2.904.242.924.616 1.76 1.122 2.508s1.166 1.353 1.98 1.815c.814.44 1.804.66 2.97.66 1.584 0 2.816-.484 3.696-1.452.902-.968 1.452-2.244 1.65-3.828h5.016c-.132 1.474-.473 2.805-1.023 3.993s-1.276 2.2-2.178 3.036-1.958 1.474-3.168 1.914-2.541.66-3.993.66c-1.804 0-3.432-.308-4.884-.924-1.43-.638-2.64-1.507-3.63-2.607s-1.749-2.387-2.277-3.861c-.528-1.496-.792-3.102-.792-4.818 0-1.76.264-3.388.792-4.884.528-1.518 1.287-2.838 2.277-3.96s2.2-2.002 3.63-2.64c1.452-.638 3.08-.957 4.884-.957 1.298 0 2.519.187 3.663.561 1.166.374 2.2.924 3.102 1.65.924.704 1.683 1.584 2.277 2.64s.968 2.266 1.122 3.63zm12.085 7.128c0 .682.066 1.353.198 2.013.132.638.352 1.221.66 1.749.33.506.759.913 1.287 1.221s1.188.462 1.98.462 1.452-.154 1.98-.462c.55-.308.979-.715 1.287-1.221.33-.528.561-1.111.693-1.749.132-.66.198-1.331.198-2.013s-.066-1.353-.198-2.013-.363-1.243-.693-1.749c-.308-.506-.737-.913-1.287-1.221-.528-.33-1.188-.495-1.98-.495s-1.452.165-1.98.495c-.528.308-.957.715-1.287 1.221-.308.506-.528 1.089-.66 1.749s-.198 1.331-.198 2.013zm-4.686 0c0-1.364.209-2.596.627-3.696.418-1.122 1.012-2.068 1.782-2.838.77-.792 1.694-1.397 2.772-1.815 1.078-.44 2.288-.66 3.63-.66s2.552.22 3.63.66c1.1.418 2.035 1.023 2.805 1.815.77.77 1.364 1.716 1.782 2.838.418 1.1.627 2.332.627 3.696s-.209 2.596-.627 3.696-1.012 2.046-1.782 2.838c-.77.77-1.705 1.364-2.805 1.782-1.078.418-2.288.627-3.63.627s-2.552-.209-3.63-.627-2.002-1.012-2.772-1.782c-.77-.792-1.364-1.738-1.782-2.838s-.627-2.332-.627-3.696zm20.503-15.048h4.686v23.562h-4.686zm24.051 23.562h-4.455v-2.376h-.099c-.594.99-1.364 1.705-2.31 2.145s-1.914.66-2.904.66c-1.254 0-2.288-.165-3.102-.495-.792-.33-1.419-.792-1.881-1.386-.462-.616-.792-1.353-.99-2.211-.176-.88-.264-1.848-.264-2.904v-10.494h4.686v9.636c0 1.408.22 2.464.66 3.168.44.682 1.221 1.023 2.343 1.023 1.276 0 2.2-.374 2.772-1.122.572-.77.858-2.024.858-3.762v-8.943h4.686zm3.359-17.061h4.422v2.31h.066c.616-.88 1.353-1.562 2.211-2.046.88-.484 1.881-.726 3.003-.726 1.078 0 2.057.209 2.937.627.902.418 1.584 1.155 2.046 2.211.506-.748 1.188-1.408 2.046-1.98.88-.572 1.914-.858 3.102-.858.902 0 1.738.11 2.508.33s1.43.572 1.98 1.056.979 1.122 1.287 1.914c.308.77.462 1.705.462 2.805v11.418h-4.686v-9.669c0-.572-.022-1.111-.066-1.617s-.165-.946-.363-1.32-.495-.671-.891-.891c-.374-.22-.891-.33-1.551-.33s-1.199.132-1.617.396c-.396.242-.715.572-.957.99-.22.396-.374.858-.462 1.386-.066.506-.099 1.023-.099 1.551v9.504h-4.686v-9.57c0-.506-.011-1.001-.033-1.485-.022-.506-.121-.968-.297-1.386-.154-.418-.429-.748-.825-.99-.374-.264-.935-.396-1.683-.396-.22 0-.517.055-.891.165-.352.088-.704.275-1.056.561-.33.264-.616.66-.858 1.188-.242.506-.363 1.177-.363 2.013v9.9h-4.686zm29.444 0h4.455v2.376h.099c.594-.99 1.364-1.705 2.31-2.145.946-.462 1.914-.693 2.904-.693 1.254 0 2.277.176 3.069.528.814.33 1.452.803 1.914 1.419.462.594.781 1.331.957 2.211.198.858.297 1.815.297 2.871v10.494h-4.686v-9.636c0-1.408-.22-2.453-.66-3.135-.44-.704-1.221-1.056-2.343-1.056-1.276 0-2.2.385-2.772 1.155-.572.748-.858 1.991-.858 3.729v8.943h-4.686z"/></g></svg>