<svg fill="none" height="488" viewBox="0 0 556 488" width="556" xmlns="http://www.w3.org/2000/svg" xmlns:xlink="http://www.w3.org/1999/xlink"><mask id="a" fill="#fff"><path d="m134 216h72v72h-72z" fill="#fff"/></mask><mask id="b" fill="#fff"><path d="m242 216h72v72h-72z" fill="#fff"/></mask><mask id="c" fill="#fff"><path d="m350 216h72v72h-72z" fill="#fff"/></mask><g stroke="#fff" stroke-width="3"><path d="m490.5 315.5-8.5 8.5-8.5-8.5"/><path d="m473.5 189 8.5-8.5 8.5 8.5"/><path d="m482 180v144"/></g><path d="m499.971 253.928h4.07l-1.98-5.764h-.044zm.33-9.636h3.542l5.874 15.708h-3.586l-1.188-3.498h-5.874l-1.232 3.498h-3.476zm10.308 0h3.124v15.708h-3.124zm8.576 2.574h-3.124v-2.574h3.124zm-3.124 1.76h3.124v11.374h-3.124zm10.666 8.69c.44 0 .829-.088 1.166-.264s.616-.411.836-.704.381-.623.484-.99c.117-.381.176-.777.176-1.188 0-.469-.044-.909-.132-1.32-.088-.425-.235-.799-.44-1.122s-.477-.579-.814-.77-.763-.286-1.276-.286c-.44 0-.821.088-1.144.264-.308.176-.572.418-.792.726-.205.293-.359.638-.462 1.034-.088.381-.132.785-.132 1.21 0 .411.037.821.11 1.232.088.396.227.755.418 1.078.205.323.469.587.792.792s.726.308 1.21.308zm5.632 1.958c0 .455-.066.975-.198 1.562-.117.587-.381 1.129-.792 1.628-.411.513-1.005.946-1.782 1.298s-1.819.528-3.124.528c-.557 0-1.129-.073-1.716-.22-.572-.132-1.1-.345-1.584-.638-.469-.293-.865-.675-1.188-1.144-.308-.455-.484-1.005-.528-1.65h3.102c.147.587.433.99.858 1.21.425.235.917.352 1.474.352.88 0 1.518-.264 1.914-.792.411-.528.609-1.195.594-2.002v-1.496h-.044c-.337.601-.821 1.049-1.452 1.342-.616.279-1.269.418-1.958.418-.851 0-1.584-.147-2.2-.44-.616-.308-1.122-.719-1.518-1.232-.396-.528-.689-1.137-.88-1.826-.176-.704-.264-1.445-.264-2.222 0-.733.103-1.437.308-2.112.22-.689.535-1.291.946-1.804.411-.528.917-.946 1.518-1.254.616-.308 1.32-.462 2.112-.462.748 0 1.401.139 1.958.418.572.279 1.049.748 1.43 1.408h.044v-1.518h2.97zm2.295-10.648h2.97v1.584h.066c.396-.66.91-1.137 1.54-1.43.631-.308 1.276-.462 1.936-.462.836 0 1.518.117 2.046.352.543.22.968.535 1.276.946.308.396.521.887.638 1.474.132.572.198 1.21.198 1.914v6.996h-3.124v-6.424c0-.939-.146-1.635-.44-2.09-.293-.469-.814-.704-1.562-.704-.85 0-1.466.257-1.848.77-.381.499-.572 1.327-.572 2.486v5.962h-3.124z" fill="#fff"/><path d="m98 180h360v144h-360z" fill="#ffd700"/><path d="m203.845 188.292h11.044v2.904h-7.59v3.63h6.578v2.684h-6.578v6.49h-3.454zm12.799 0h3.124v15.708h-3.124zm13.24 8.8c-.147-.792-.411-1.393-.792-1.804-.367-.411-.931-.616-1.694-.616-.499 0-.917.088-1.254.264-.323.161-.587.367-.792.616-.191.249-.33.513-.418.792-.073.279-.117.528-.132.748zm-5.082 1.98c.044 1.012.301 1.745.77 2.2s1.144.682 2.024.682c.631 0 1.173-.154 1.628-.462.455-.323.733-.66.836-1.012h2.75c-.44 1.364-1.115 2.339-2.024 2.926s-2.009.88-3.3.88c-.895 0-1.701-.139-2.42-.418-.719-.293-1.327-.704-1.826-1.232s-.887-1.159-1.166-1.892c-.264-.733-.396-1.54-.396-2.42 0-.851.139-1.643.418-2.376s.675-1.364 1.188-1.892c.513-.543 1.122-.968 1.826-1.276.719-.308 1.511-.462 2.376-.462.968 0 1.811.191 2.53.572.719.367 1.305.865 1.76 1.496.469.631.807 1.349 1.012 2.156s.279 1.65.22 2.53zm12.963-1.056-3.74-5.39h3.564l2.002 2.97 1.98-2.97h3.454l-3.74 5.324 4.202 6.05h-3.564l-2.376-3.586-2.376 3.586h-3.498zm25.837-4.444c-.058-.396-.19-.755-.396-1.078-.205-.337-.462-.631-.77-.88s-.66-.44-1.056-.572c-.381-.147-.784-.22-1.21-.22-.777 0-1.437.154-1.98.462-.542.293-.982.697-1.32 1.21-.337.499-.586 1.071-.748 1.716-.146.645-.22 1.313-.22 2.002 0 .66.074 1.305.22 1.936.162.616.411 1.173.748 1.672.338.499.778.902 1.32 1.21.543.293 1.203.44 1.98.44 1.056 0 1.878-.323 2.464-.968.602-.645.968-1.496 1.1-2.552h3.344c-.088.983-.315 1.87-.682 2.662-.366.792-.85 1.467-1.452 2.024-.601.557-1.305.983-2.112 1.276-.806.293-1.694.44-2.662.44-1.202 0-2.288-.205-3.256-.616-.953-.425-1.76-1.005-2.42-1.738s-1.166-1.591-1.518-2.574c-.352-.997-.528-2.068-.528-3.212 0-1.173.176-2.259.528-3.256.352-1.012.858-1.892 1.518-2.64s1.467-1.335 2.42-1.76c.968-.425 2.054-.638 3.256-.638.866 0 1.68.125 2.442.374.778.249 1.467.616 2.068 1.1.616.469 1.122 1.056 1.518 1.76s.646 1.511.748 2.42zm8.277 4.752c0 .455.044.902.132 1.342.088.425.235.814.44 1.166.22.337.506.609.858.814s.792.308 1.32.308.968-.103 1.32-.308c.367-.205.653-.477.858-.814.22-.352.374-.741.462-1.166.088-.44.132-.887.132-1.342s-.044-.902-.132-1.342-.242-.829-.462-1.166c-.205-.337-.491-.609-.858-.814-.352-.22-.792-.33-1.32-.33s-.968.11-1.32.33c-.352.205-.638.477-.858.814-.205.337-.352.726-.44 1.166s-.132.887-.132 1.342zm-3.124 0c0-.909.139-1.731.418-2.464.279-.748.675-1.379 1.188-1.892.513-.528 1.129-.931 1.848-1.21.719-.293 1.525-.44 2.42-.44s1.701.147 2.42.44c.733.279 1.357.682 1.87 1.21.513.513.909 1.144 1.188 1.892.279.733.418 1.555.418 2.464s-.139 1.731-.418 2.464-.675 1.364-1.188 1.892c-.513.513-1.137.909-1.87 1.188-.719.279-1.525.418-2.42.418s-1.701-.139-2.42-.418-1.335-.675-1.848-1.188c-.513-.528-.909-1.159-1.188-1.892s-.418-1.555-.418-2.464zm13.801-5.698h2.97v1.584h.066c.396-.66.909-1.137 1.54-1.43.631-.308 1.276-.462 1.936-.462.836 0 1.518.117 2.046.352.543.22.968.535 1.276.946.308.396.521.887.638 1.474.132.572.198 1.21.198 1.914v6.996h-3.124v-6.424c0-.939-.147-1.635-.44-2.09-.293-.469-.814-.704-1.562-.704-.851 0-1.467.257-1.848.77-.381.499-.572 1.327-.572 2.486v5.962h-3.124zm17.001 0h2.288v2.09h-2.288v5.632c0 .528.088.88.264 1.056s.528.264 1.056.264c.176 0 .345-.007.506-.022.162-.015.316-.037.462-.066v2.42c-.264.044-.557.073-.88.088-.322.015-.638.022-.946.022-.484 0-.946-.037-1.386-.11-.425-.059-.806-.183-1.144-.374-.322-.191-.579-.462-.77-.814-.19-.352-.286-.814-.286-1.386v-6.71h-1.892v-2.09h1.892v-3.41h3.124zm3.643 3.498c.044-.733.227-1.342.55-1.826.322-.484.733-.873 1.232-1.166.498-.293 1.056-.499 1.672-.616.63-.132 1.261-.198 1.892-.198.572 0 1.151.044 1.738.132.586.073 1.122.227 1.606.462s.88.565 1.188.99c.308.411.462.961.462 1.65v5.918c0 .513.029 1.005.088 1.474.058.469.161.821.308 1.056h-3.168c-.059-.176-.11-.352-.154-.528-.03-.191-.052-.381-.066-.572-.499.513-1.086.873-1.76 1.078-.675.205-1.364.308-2.068.308-.543 0-1.049-.066-1.518-.198-.47-.132-.88-.337-1.232-.616s-.631-.631-.836-1.056c-.191-.425-.286-.931-.286-1.518 0-.645.11-1.173.33-1.584.234-.425.528-.763.88-1.012.366-.249.777-.433 1.232-.55.469-.132.938-.235 1.408-.308.469-.073.931-.132 1.386-.176.454-.044.858-.11 1.21-.198s.63-.213.836-.374c.205-.176.3-.425.286-.748 0-.337-.059-.601-.176-.792-.103-.205-.25-.359-.44-.462-.176-.117-.389-.191-.638-.22-.235-.044-.492-.066-.77-.066-.616 0-1.1.132-1.452.396s-.558.704-.616 1.32zm7.216 2.31c-.132.117-.301.213-.506.286-.191.059-.404.11-.638.154-.22.044-.455.081-.704.11-.25.029-.499.066-.748.11-.235.044-.47.103-.704.176-.22.073-.418.176-.594.308-.162.117-.294.271-.396.462-.103.191-.154.433-.154.726 0 .279.051.513.154.704.102.191.242.345.418.462.176.103.381.176.616.22.234.044.476.066.726.066.616 0 1.092-.103 1.43-.308.337-.205.586-.447.748-.726.161-.293.256-.587.286-.88.044-.293.066-.528.066-.704zm8.76-7.568h-3.124v-2.574h3.124zm-3.124 1.76h3.124v11.374h-3.124zm5.584 0h2.97v1.584h.066c.396-.66.91-1.137 1.54-1.43.631-.308 1.276-.462 1.936-.462.836 0 1.518.117 2.046.352.543.22.968.535 1.276.946.308.396.521.887.638 1.474.132.572.198 1.21.198 1.914v6.996h-3.124v-6.424c0-.939-.146-1.635-.44-2.09-.293-.469-.814-.704-1.562-.704-.85 0-1.466.257-1.848.77-.381.499-.572 1.327-.572 2.486v5.962h-3.124zm20.697 4.466c-.146-.792-.41-1.393-.792-1.804-.366-.411-.931-.616-1.694-.616-.498 0-.916.088-1.254.264-.322.161-.586.367-.792.616-.19.249-.33.513-.418.792-.073.279-.117.528-.132.748zm-5.082 1.98c.044 1.012.301 1.745.77 2.2.47.455 1.144.682 2.024.682.631 0 1.174-.154 1.628-.462.455-.323.734-.66.836-1.012h2.75c-.44 1.364-1.114 2.339-2.024 2.926-.909.587-2.009.88-3.3.88-.894 0-1.701-.139-2.42-.418-.718-.293-1.327-.704-1.826-1.232-.498-.528-.887-1.159-1.166-1.892-.264-.733-.396-1.54-.396-2.42 0-.851.14-1.643.418-2.376.279-.733.675-1.364 1.188-1.892.514-.543 1.122-.968 1.826-1.276.719-.308 1.511-.462 2.376-.462.968 0 1.812.191 2.53.572.719.367 1.306.865 1.76 1.496.47.631.807 1.349 1.012 2.156.206.807.279 1.65.22 2.53zm10.059-6.446h2.97v2.112h.044c.147-.352.345-.675.594-.968.249-.308.535-.565.858-.77.323-.22.667-.389 1.034-.506s.748-.176 1.144-.176c.205 0 .433.037.682.11v2.904c-.147-.029-.323-.051-.528-.066-.205-.029-.403-.044-.594-.044-.572 0-1.056.095-1.452.286s-.719.455-.968.792c-.235.323-.403.704-.506 1.144s-.154.917-.154 1.43v5.126h-3.124z" fill="#000"/><path d="m134 216h72v72h-72z" fill="#000"/><path d="m134 216h72v72h-72z" fill="#ff6347"/><path d="m206 288v2h2v-2zm-2-72v72h4v-72zm2 70h-72v4h72z" fill="#b22222" mask="url(#a)"/><path d="m151.36 230.792h10.318v1.76h-8.228v4.994h7.216v1.76h-7.216v7.194h-2.09zm12.434 0h1.87v15.708h-1.87zm12.665 8.932c-.029-.44-.132-.858-.308-1.254-.161-.396-.388-.733-.682-1.012-.278-.293-.616-.521-1.012-.682-.381-.176-.806-.264-1.276-.264-.484 0-.924.088-1.32.264-.381.161-.711.389-.99.682-.278.293-.498.638-.66 1.034-.161.381-.256.792-.286 1.232zm1.804 3.168c-.249 1.276-.799 2.237-1.65 2.882-.85.645-1.921.968-3.212.968-.909 0-1.701-.147-2.376-.44-.66-.293-1.217-.704-1.672-1.232-.454-.528-.799-1.159-1.034-1.892-.22-.733-.344-1.533-.374-2.398 0-.865.132-1.657.396-2.376s.631-1.342 1.1-1.87c.484-.528 1.049-.939 1.694-1.232.66-.293 1.379-.44 2.156-.44 1.012 0 1.848.213 2.508.638.675.411 1.21.939 1.606 1.584.411.645.69 1.349.836 2.112.162.763.228 1.489.198 2.178h-8.514c-.014.499.044.975.176 1.43.132.44.345.836.638 1.188.294.337.668.609 1.122.814.455.205.99.308 1.606.308.792 0 1.438-.183 1.936-.55.514-.367.851-.924 1.012-1.672zm5.173-2.376-3.96-5.39h2.398l2.728 3.982 2.838-3.982h2.244l-3.916 5.236 4.4 6.138h-2.398l-3.168-4.708-3.168 4.708h-2.266zm-33.235 13.276h2.09v15.708h-2.09zm7.894 4.334h2.266v1.65h-2.266v7.062c0 .22.014.396.044.528.044.132.117.235.22.308.102.073.242.125.418.154.19.015.432.022.726.022h.858v1.65h-1.43c-.484 0-.902-.029-1.254-.088-.338-.073-.616-.198-.836-.374-.206-.176-.36-.425-.462-.748-.103-.323-.154-.748-.154-1.276v-7.238h-1.936v-1.65h1.936v-3.41h1.87zm12.241 4.598c-.029-.44-.132-.858-.308-1.254-.161-.396-.388-.733-.682-1.012-.278-.293-.616-.521-1.012-.682-.381-.176-.806-.264-1.276-.264-.484 0-.924.088-1.32.264-.381.161-.711.389-.99.682-.278.293-.498.638-.66 1.034-.161.381-.256.792-.286 1.232zm1.804 3.168c-.249 1.276-.799 2.237-1.65 2.882-.85.645-1.921.968-3.212.968-.909 0-1.701-.147-2.376-.44-.66-.293-1.217-.704-1.672-1.232-.454-.528-.799-1.159-1.034-1.892-.22-.733-.344-1.533-.374-2.398 0-.865.132-1.657.396-2.376s.631-1.342 1.1-1.87c.484-.528 1.049-.939 1.694-1.232.66-.293 1.379-.44 2.156-.44 1.012 0 1.848.213 2.508.638.675.411 1.21.939 1.606 1.584.411.645.69 1.349.836 2.112.162.763.228 1.489.198 2.178h-8.514c-.014.499.044.975.176 1.43.132.44.345.836.638 1.188.294.337.668.609 1.122.814.455.205.99.308 1.606.308.792 0 1.438-.183 1.936-.55.514-.367.851-.924 1.012-1.672zm2.115-7.766h1.76v1.672h.044c.85-1.291 2.075-1.936 3.674-1.936.704 0 1.342.147 1.914.44s.975.792 1.21 1.496c.381-.616.88-1.093 1.496-1.43.63-.337 1.32-.506 2.068-.506.572 0 1.085.066 1.54.198.469.117.865.308 1.188.572.337.264.594.609.77 1.034.19.411.286.909.286 1.496v8.338h-1.87v-7.458c0-.352-.03-.682-.088-.99-.059-.308-.169-.572-.33-.792-.162-.235-.389-.418-.682-.55-.279-.132-.646-.198-1.1-.198-.924 0-1.65.264-2.178.792s-.792 1.232-.792 2.112v7.084h-1.87v-7.458c0-.367-.037-.704-.11-1.012-.059-.308-.169-.572-.33-.792-.162-.235-.382-.411-.66-.528-.264-.132-.609-.198-1.034-.198-.543 0-1.012.11-1.408.33-.382.22-.697.484-.946.792-.235.308-.411.631-.528.968-.103.323-.154.594-.154.814v7.084h-1.87z" fill="#000"/><path d="m242 216h72v72h-72z" fill="#000"/><path d="m242 216h72v72h-72z" fill="#ff6347"/><path d="m314 288v2h2v-2zm-2-72v72h4v-72zm2 70h-72v4h72z" fill="#b22222" mask="url(#b)"/><path d="m259.36 230.792h10.318v1.76h-8.228v4.994h7.216v1.76h-7.216v7.194h-2.09zm12.434 0h1.87v15.708h-1.87zm12.665 8.932c-.029-.44-.132-.858-.308-1.254-.161-.396-.388-.733-.682-1.012-.278-.293-.616-.521-1.012-.682-.381-.176-.806-.264-1.276-.264-.484 0-.924.088-1.32.264-.381.161-.711.389-.99.682-.278.293-.498.638-.66 1.034-.161.381-.256.792-.286 1.232zm1.804 3.168c-.249 1.276-.799 2.237-1.65 2.882-.85.645-1.921.968-3.212.968-.909 0-1.701-.147-2.376-.44-.66-.293-1.217-.704-1.672-1.232-.454-.528-.799-1.159-1.034-1.892-.22-.733-.344-1.533-.374-2.398 0-.865.132-1.657.396-2.376s.631-1.342 1.1-1.87c.484-.528 1.049-.939 1.694-1.232.66-.293 1.379-.44 2.156-.44 1.012 0 1.848.213 2.508.638.675.411 1.21.939 1.606 1.584.411.645.69 1.349.836 2.112.162.763.228 1.489.198 2.178h-8.514c-.014.499.044.975.176 1.43.132.44.345.836.638 1.188.294.337.668.609 1.122.814.455.205.99.308 1.606.308.792 0 1.438-.183 1.936-.55.514-.367.851-.924 1.012-1.672zm5.173-2.376-3.96-5.39h2.398l2.728 3.982 2.838-3.982h2.244l-3.916 5.236 4.4 6.138h-2.398l-3.168-4.708-3.168 4.708h-2.266zm-33.235 13.276h2.09v15.708h-2.09zm7.894 4.334h2.266v1.65h-2.266v7.062c0 .22.014.396.044.528.044.132.117.235.22.308.102.073.242.125.418.154.19.015.432.022.726.022h.858v1.65h-1.43c-.484 0-.902-.029-1.254-.088-.338-.073-.616-.198-.836-.374-.206-.176-.36-.425-.462-.748-.103-.323-.154-.748-.154-1.276v-7.238h-1.936v-1.65h1.936v-3.41h1.87zm12.241 4.598c-.029-.44-.132-.858-.308-1.254-.161-.396-.388-.733-.682-1.012-.278-.293-.616-.521-1.012-.682-.381-.176-.806-.264-1.276-.264-.484 0-.924.088-1.32.264-.381.161-.711.389-.99.682-.278.293-.498.638-.66 1.034-.161.381-.256.792-.286 1.232zm1.804 3.168c-.249 1.276-.799 2.237-1.65 2.882-.85.645-1.921.968-3.212.968-.909 0-1.701-.147-2.376-.44-.66-.293-1.217-.704-1.672-1.232-.454-.528-.799-1.159-1.034-1.892-.22-.733-.344-1.533-.374-2.398 0-.865.132-1.657.396-2.376s.631-1.342 1.1-1.87c.484-.528 1.049-.939 1.694-1.232.66-.293 1.379-.44 2.156-.44 1.012 0 1.848.213 2.508.638.675.411 1.21.939 1.606 1.584.411.645.69 1.349.836 2.112.162.763.228 1.489.198 2.178h-8.514c-.014.499.044.975.176 1.43.132.44.345.836.638 1.188.294.337.668.609 1.122.814.455.205.99.308 1.606.308.792 0 1.438-.183 1.936-.55.514-.367.851-.924 1.012-1.672zm2.115-7.766h1.76v1.672h.044c.85-1.291 2.075-1.936 3.674-1.936.704 0 1.342.147 1.914.44s.975.792 1.21 1.496c.381-.616.88-1.093 1.496-1.43.63-.337 1.32-.506 2.068-.506.572 0 1.085.066 1.54.198.469.117.865.308 1.188.572.337.264.594.609.77 1.034.19.411.286.909.286 1.496v8.338h-1.87v-7.458c0-.352-.03-.682-.088-.99-.059-.308-.169-.572-.33-.792-.162-.235-.389-.418-.682-.55-.279-.132-.646-.198-1.1-.198-.924 0-1.65.264-2.178.792s-.792 1.232-.792 2.112v7.084h-1.87v-7.458c0-.367-.037-.704-.11-1.012-.059-.308-.169-.572-.33-.792-.162-.235-.382-.411-.66-.528-.264-.132-.609-.198-1.034-.198-.543 0-1.012.11-1.408.33-.382.22-.697.484-.946.792-.235.308-.411.631-.528.968-.103.323-.154.594-.154.814v7.084h-1.87z" fill="#000"/><path d="m350 216h72v72h-72z" fill="#000"/><path d="m350 216h72v72h-72z" fill="#ff6347"/><path d="m422 288v2h2v-2zm-2-72v72h4v-72zm2 70h-72v4h72z" fill="#b22222" mask="url(#c)"/><path d="m367.36 230.792h10.318v1.76h-8.228v4.994h7.216v1.76h-7.216v7.194h-2.09zm12.434 0h1.87v15.708h-1.87zm12.665 8.932c-.029-.44-.132-.858-.308-1.254-.161-.396-.388-.733-.682-1.012-.278-.293-.616-.521-1.012-.682-.381-.176-.806-.264-1.276-.264-.484 0-.924.088-1.32.264-.381.161-.711.389-.99.682-.278.293-.498.638-.66 1.034-.161.381-.256.792-.286 1.232zm1.804 3.168c-.249 1.276-.799 2.237-1.65 2.882-.85.645-1.921.968-3.212.968-.909 0-1.701-.147-2.376-.44-.66-.293-1.217-.704-1.672-1.232-.454-.528-.799-1.159-1.034-1.892-.22-.733-.344-1.533-.374-2.398 0-.865.132-1.657.396-2.376s.631-1.342 1.1-1.87c.484-.528 1.049-.939 1.694-1.232.66-.293 1.379-.44 2.156-.44 1.012 0 1.848.213 2.508.638.675.411 1.21.939 1.606 1.584.411.645.69 1.349.836 2.112.162.763.228 1.489.198 2.178h-8.514c-.014.499.044.975.176 1.43.132.44.345.836.638 1.188.294.337.668.609 1.122.814.455.205.99.308 1.606.308.792 0 1.438-.183 1.936-.55.514-.367.851-.924 1.012-1.672zm5.173-2.376-3.96-5.39h2.398l2.728 3.982 2.838-3.982h2.244l-3.916 5.236 4.4 6.138h-2.398l-3.168-4.708-3.168 4.708h-2.266zm-33.235 13.276h2.09v15.708h-2.09zm7.894 4.334h2.266v1.65h-2.266v7.062c0 .22.014.396.044.528.044.132.117.235.22.308.102.073.242.125.418.154.19.015.432.022.726.022h.858v1.65h-1.43c-.484 0-.902-.029-1.254-.088-.338-.073-.616-.198-.836-.374-.206-.176-.36-.425-.462-.748-.103-.323-.154-.748-.154-1.276v-7.238h-1.936v-1.65h1.936v-3.41h1.87zm12.241 4.598c-.029-.44-.132-.858-.308-1.254-.161-.396-.388-.733-.682-1.012-.278-.293-.616-.521-1.012-.682-.381-.176-.806-.264-1.276-.264-.484 0-.924.088-1.32.264-.381.161-.711.389-.99.682-.278.293-.498.638-.66 1.034-.161.381-.256.792-.286 1.232zm1.804 3.168c-.249 1.276-.799 2.237-1.65 2.882-.85.645-1.921.968-3.212.968-.909 0-1.701-.147-2.376-.44-.66-.293-1.217-.704-1.672-1.232-.454-.528-.799-1.159-1.034-1.892-.22-.733-.344-1.533-.374-2.398 0-.865.132-1.657.396-2.376s.631-1.342 1.1-1.87c.484-.528 1.049-.939 1.694-1.232.66-.293 1.379-.44 2.156-.44 1.012 0 1.848.213 2.508.638.675.411 1.21.939 1.606 1.584.411.645.69 1.349.836 2.112.162.763.228 1.489.198 2.178h-8.514c-.014.499.044.975.176 1.43.132.44.345.836.638 1.188.294.337.668.609 1.122.814.455.205.99.308 1.606.308.792 0 1.438-.183 1.936-.55.514-.367.851-.924 1.012-1.672zm2.115-7.766h1.76v1.672h.044c.85-1.291 2.075-1.936 3.674-1.936.704 0 1.342.147 1.914.44s.975.792 1.21 1.496c.381-.616.88-1.093 1.496-1.43.63-.337 1.32-.506 2.068-.506.572 0 1.085.066 1.54.198.469.117.865.308 1.188.572.337.264.594.609.77 1.034.19.411.286.909.286 1.496v8.338h-1.87v-7.458c0-.352-.03-.682-.088-.99-.059-.308-.169-.572-.33-.792-.162-.235-.389-.418-.682-.55-.279-.132-.646-.198-1.1-.198-.924 0-1.65.264-2.178.792s-.792 1.232-.792 2.112v7.084h-1.87v-7.458c0-.367-.037-.704-.11-1.012-.059-.308-.169-.572-.33-.792-.162-.235-.382-.411-.66-.528-.264-.132-.609-.198-1.034-.198-.543 0-1.012.11-1.408.33-.382.22-.697.484-.946.792-.235.308-.411.631-.528.968-.103.323-.154.594-.154.814v7.084h-1.87z" fill="#000"/><path d="m449.5 339.5 8.5 8.5-8.5 8.5" stroke="#fff" stroke-width="3"/><path d="m107 356.5-8.5-8.5 8.5-8.5" stroke="#fff" stroke-width="3"/><path d="m98 348h360" stroke="#fff" stroke-width="3"/><g fill="#fff"><path d="m254.763 367.05c0 .513-.052 1.078-.154 1.694-.103.616-.338 1.195-.704 1.738-.367.528-.895.975-1.584 1.342-.69.352-1.621.528-2.794.528-.66 0-1.298-.095-1.914-.286-.616-.176-1.166-.455-1.65-.836-.484-.396-.873-.895-1.166-1.496-.294-.616-.44-1.357-.44-2.222v-1.364h3.124v.704c0 .381.029.733.088 1.056.058.323.161.601.308.836.146.22.344.396.594.528.264.132.601.198 1.012.198.454 0 .806-.081 1.056-.242.249-.161.425-.367.528-.616.117-.264.183-.543.198-.836.029-.308.044-.601.044-.88v-10.604h3.454zm13.148 4.95h-2.97v-1.584h-.066c-.396.66-.909 1.137-1.54 1.43-.63.293-1.276.44-1.936.44-.836 0-1.525-.11-2.068-.33-.528-.22-.946-.528-1.254-.924-.308-.411-.528-.902-.66-1.474-.117-.587-.176-1.232-.176-1.936v-6.996h3.124v6.424c0 .939.147 1.643.44 2.112.294.455.814.682 1.562.682.851 0 1.467-.249 1.848-.748.382-.513.572-1.349.572-2.508v-5.962h3.124zm4.571-3.696c0 .337.066.631.198.88.147.235.33.433.55.594.22.147.47.257.748.33.294.073.594.11.902.11.22 0 .448-.022.682-.066.25-.059.47-.139.66-.242.206-.117.374-.264.506-.44.132-.191.198-.425.198-.704 0-.469-.315-.821-.946-1.056-.616-.235-1.481-.469-2.596-.704-.454-.103-.902-.22-1.342-.352-.425-.147-.806-.33-1.144-.55-.337-.235-.608-.521-.814-.858-.205-.352-.308-.777-.308-1.276 0-.733.14-1.335.418-1.804.294-.469.675-.836 1.144-1.1.47-.279.998-.469 1.584-.572.587-.117 1.188-.176 1.804-.176s1.21.059 1.782.176c.587.117 1.108.315 1.562.594.455.279.829.653 1.122 1.122.308.455.492 1.034.55 1.738h-2.97c-.044-.601-.271-1.005-.682-1.21-.41-.22-.894-.33-1.452-.33-.176 0-.366.015-.572.044-.205.015-.396.059-.572.132-.161.073-.3.183-.418.33-.117.132-.176.315-.176.55 0 .279.103.506.308.682.206.176.47.323.792.44.338.103.719.198 1.144.286.426.088.858.183 1.298.286.455.103.895.227 1.32.374.44.147.829.345 1.166.594.338.235.609.535.814.902.206.352.308.792.308 1.32 0 .748-.154 1.379-.462 1.892-.293.499-.682.902-1.166 1.21s-1.041.521-1.672.638c-.616.132-1.246.198-1.892.198-.66 0-1.305-.066-1.936-.198-.63-.132-1.195-.352-1.694-.66-.484-.308-.887-.711-1.21-1.21-.308-.513-.476-1.151-.506-1.914zm13.137-7.678h2.288v2.09h-2.288v5.632c0 .528.088.88.264 1.056s.528.264 1.056.264c.176 0 .344-.007.506-.022.161-.015.315-.037.462-.066v2.42c-.264.044-.558.073-.88.088-.323.015-.638.022-.946.022-.484 0-.946-.037-1.386-.11-.426-.059-.807-.183-1.144-.374-.323-.191-.58-.462-.77-.814-.191-.352-.286-.814-.286-1.386v-6.71h-1.892v-2.09h1.892v-3.41h3.124zm6.766-1.76h-3.124v-2.574h3.124zm-3.124 1.76h3.124v11.374h-3.124zm6.046 2.09h-1.87v-2.09h1.87v-.88c0-1.012.315-1.841.946-2.486s1.584-.968 2.86-.968c.279 0 .557.015.836.044.279.015.55.029.814.044v2.332c-.367-.044-.748-.066-1.144-.066-.425 0-.733.103-.924.308-.176.191-.264.521-.264.99v.682h2.156v2.09h-2.156v9.284h-3.124zm12.034 10.692c-.337.924-.807 1.584-1.408 1.98s-1.437.594-2.508.594c-.323 0-.645-.015-.968-.044-.308-.015-.623-.037-.946-.066v-2.574c.293.029.594.059.902.088s.616.037.924.022c.411-.044.711-.205.902-.484.205-.279.308-.587.308-.924 0-.249-.044-.484-.132-.704l-3.982-10.67h3.322l2.574 7.788h.044l2.486-7.788h3.234z"/><g fill-opacity=".333333"><path d="m475.716 340.292h10.846v1.76h-8.756v4.994h8.162v1.76h-8.162v5.434h8.822v1.76h-10.912zm13.141 4.334h1.76v1.804h.044c.778-1.379 2.01-2.068 3.696-2.068.748 0 1.372.103 1.87.308.499.205.902.491 1.21.858s.521.807.638 1.32c.132.499.198 1.056.198 1.672v7.48h-1.87v-7.7c0-.704-.205-1.261-.616-1.672-.41-.411-.975-.616-1.694-.616-.572 0-1.07.088-1.496.264-.41.176-.755.425-1.034.748-.278.323-.491.704-.638 1.144-.132.425-.198.895-.198 1.408v6.424h-1.87zm13.589 5.786c0 .528.066 1.049.198 1.562.146.499.359.946.638 1.342.293.396.66.711 1.1.946.454.235.982.352 1.584.352.63 0 1.166-.125 1.606-.374s.799-.572 1.078-.968c.278-.411.476-.873.594-1.386.132-.513.198-1.034.198-1.562 0-.557-.066-1.093-.198-1.606-.132-.528-.345-.99-.638-1.386-.279-.396-.646-.711-1.1-.946-.455-.249-1.005-.374-1.65-.374-.631 0-1.166.125-1.606.374s-.792.579-1.056.99-.455.88-.572 1.408c-.118.528-.176 1.071-.176 1.628zm8.8 5.588h-1.87v-1.54h-.044c-.308.631-.792 1.085-1.452 1.364s-1.386.418-2.178.418c-.88 0-1.65-.161-2.31-.484-.646-.323-1.188-.755-1.628-1.298-.426-.543-.748-1.173-.968-1.892s-.33-1.481-.33-2.288.102-1.569.308-2.288c.22-.719.542-1.342.968-1.87.44-.543.982-.968 1.628-1.276.66-.323 1.422-.484 2.288-.484.293 0 .608.029.946.088.337.059.674.161 1.012.308.337.132.652.315.946.55.308.22.564.499.77.836h.044v-5.852h1.87z"/><path d="m484.802 152.89c-.117-1.129-.528-1.943-1.232-2.442-.689-.513-1.577-.77-2.662-.77-.44 0-.873.044-1.298.132s-.807.235-1.144.44c-.323.205-.587.484-.792.836-.191.337-.286.763-.286 1.276 0 .484.139.88.418 1.188.293.293.675.535 1.144.726.484.191 1.027.352 1.628.484.601.117 1.21.249 1.826.396.631.147 1.247.323 1.848.528.601.191 1.137.455 1.606.792.484.337.865.763 1.144 1.276.293.513.44 1.159.44 1.936 0 .836-.191 1.555-.572 2.156-.367.587-.843 1.071-1.43 1.452-.587.367-1.247.631-1.98.792-.719.176-1.437.264-2.156.264-.88 0-1.716-.11-2.508-.33-.777-.22-1.467-.55-2.068-.99-.587-.455-1.056-1.027-1.408-1.716-.337-.704-.506-1.533-.506-2.486h1.98c0 .66.125 1.232.374 1.716.264.469.601.858 1.012 1.166.425.308.917.535 1.474.682s1.129.22 1.716.22c.469 0 .939-.044 1.408-.132.484-.088.917-.235 1.298-.44.381-.22.689-.513.924-.88s.352-.836.352-1.408c0-.543-.147-.983-.44-1.32-.279-.337-.66-.609-1.144-.814-.469-.22-1.005-.396-1.606-.528s-1.217-.264-1.848-.396c-.616-.147-1.225-.308-1.826-.484-.601-.191-1.144-.433-1.628-.726-.469-.308-.851-.697-1.144-1.166-.279-.484-.418-1.085-.418-1.804 0-.792.161-1.474.484-2.046.323-.587.748-1.063 1.276-1.43.543-.381 1.151-.66 1.826-.836.689-.191 1.393-.286 2.112-.286.807 0 1.555.095 2.244.286s1.291.491 1.804.902c.528.411.939.931 1.232 1.562.308.616.477 1.357.506 2.222zm7.468-.264h2.266v1.65h-2.266v7.062c0 .22.014.396.044.528.044.132.117.235.22.308.102.073.242.125.418.154.19.015.432.022.726.022h.858v1.65h-1.43c-.484 0-.902-.029-1.254-.088-.338-.073-.616-.198-.836-.374-.206-.176-.36-.425-.462-.748-.103-.323-.154-.748-.154-1.276v-7.238h-1.936v-1.65h1.936v-3.41h1.87zm14.419 11.33c-.323.191-.77.286-1.342.286-.484 0-.873-.132-1.166-.396-.279-.279-.418-.726-.418-1.342-.513.616-1.115 1.063-1.804 1.342-.675.264-1.408.396-2.2.396-.513 0-1.005-.059-1.474-.176-.455-.117-.851-.301-1.188-.55s-.609-.572-.814-.968c-.191-.411-.286-.902-.286-1.474 0-.645.11-1.173.33-1.584s.506-.741.858-.99c.367-.264.777-.462 1.232-.594.469-.132.946-.242 1.43-.33.513-.103.997-.176 1.452-.22.469-.059.88-.132 1.232-.22.352-.103.631-.242.836-.418.205-.191.308-.462.308-.814 0-.411-.081-.741-.242-.99-.147-.249-.345-.44-.594-.572-.235-.132-.506-.22-.814-.264-.293-.044-.587-.066-.88-.066-.792 0-1.452.154-1.98.462-.528.293-.814.858-.858 1.694h-1.87c.029-.704.176-1.298.44-1.782s.616-.873 1.056-1.166c.44-.308.939-.528 1.496-.66.572-.132 1.181-.198 1.826-.198.513 0 1.019.037 1.518.11.513.073.975.227 1.386.462.411.22.741.535.99.946s.374.946.374 1.606v5.852c0 .44.022.763.066.968.059.205.235.308.528.308.161 0 .352-.037.572-.11zm-3.036-5.83c-.235.176-.543.308-.924.396-.381.073-.785.139-1.21.198-.411.044-.829.103-1.254.176-.425.059-.807.161-1.144.308s-.616.359-.836.638c-.205.264-.308.631-.308 1.1 0 .308.059.572.176.792.132.205.293.374.484.506.205.132.44.227.704.286s.543.088.836.088c.616 0 1.144-.081 1.584-.242.44-.176.799-.389 1.078-.638.279-.264.484-.543.616-.836.132-.308.198-.594.198-.858zm4.71-5.5h1.76v2.398h.044c.455-.924 1.012-1.606 1.672-2.046s1.496-.645 2.508-.616v1.98c-.748 0-1.386.103-1.914.308s-.953.506-1.276.902c-.322.396-.557.88-.704 1.452-.146.557-.22 1.203-.22 1.936v5.06h-1.87zm9.989 0h2.266v1.65h-2.266v7.062c0 .22.014.396.044.528.044.132.117.235.22.308.102.073.242.125.418.154.19.015.432.022.726.022h.858v1.65h-1.43c-.484 0-.902-.029-1.254-.088-.338-.073-.616-.198-.836-.374-.206-.176-.36-.425-.462-.748-.103-.323-.154-.748-.154-1.276v-7.238h-1.936v-1.65h1.936v-3.41h1.87z"/><path d="m45.1584 344.89c-.1173-1.129-.528-1.943-1.232-2.442-.6893-.513-1.5766-.77-2.662-.77-.44 0-.8726.044-1.298.132-.4253.088-.8066.235-1.144.44-.3226.205-.5866.484-.792.836-.1906.337-.286.763-.286 1.276 0 .484.1394.88.418 1.188.2934.293.6747.535 1.144.726.484.191 1.0267.352 1.628.484.6014.117 1.21.249 1.826.396.6307.147 1.2467.323 1.848.528.6014.191 1.1367.455 1.606.792.484.337.8654.763 1.144 1.276.2934.513.44 1.159.44 1.936 0 .836-.1906 1.555-.572 2.156-.3666.587-.8433 1.071-1.43 1.452-.5866.367-1.2466.631-1.98.792-.7186.176-1.4373.264-2.156.264-.88 0-1.716-.11-2.508-.33-.7773-.22-1.4666-.55-2.068-.99-.5866-.455-1.056-1.027-1.408-1.716-.3373-.704-.506-1.533-.506-2.486h1.98c0 .66.1247 1.232.374 1.716.264.469.6014.858 1.012 1.166.4254.308.9167.535 1.474.682.5574.147 1.1294.22 1.716.22.4694 0 .9387-.044 1.408-.132.484-.088.9167-.235 1.298-.44.3814-.22.6894-.513.924-.88.2347-.367.352-.836.352-1.408 0-.543-.1466-.983-.44-1.32-.2786-.337-.66-.609-1.144-.814-.4693-.22-1.0046-.396-1.606-.528-.6013-.132-1.2173-.264-1.848-.396-.616-.147-1.2246-.308-1.826-.484-.6013-.191-1.144-.433-1.628-.726-.4693-.308-.8506-.697-1.144-1.166-.2786-.484-.418-1.085-.418-1.804 0-.792.1614-1.474.484-2.046.3227-.587.748-1.063 1.276-1.43.5427-.381 1.1514-.66 1.826-.836.6894-.191 1.3934-.286 2.112-.286.8067 0 1.5547.095 2.244.286.6894.191 1.2907.491 1.804.902.528.411.9387.931 1.232 1.562.308.616.4767 1.357.506 2.222zm7.4677-.264h2.266v1.65h-2.266v7.062c0 .22.0146.396.044.528.044.132.1173.235.22.308.1026.073.242.125.418.154.1906.015.4326.022.726.022h.858v1.65h-1.43c-.484 0-.902-.029-1.254-.088-.3374-.073-.616-.198-.836-.374-.2054-.176-.3594-.425-.462-.748-.1027-.323-.154-.748-.154-1.276v-7.238h-1.936v-1.65h1.936v-3.41h1.87zm14.4194 11.33c-.3226.191-.77.286-1.342.286-.484 0-.8726-.132-1.166-.396-.2786-.279-.418-.726-.418-1.342-.5133.616-1.1146 1.063-1.804 1.342-.6746.264-1.408.396-2.2.396-.5133 0-1.0046-.059-1.474-.176-.4546-.117-.8506-.301-1.188-.55-.3373-.249-.6086-.572-.814-.968-.1906-.411-.286-.902-.286-1.474 0-.645.11-1.173.33-1.584s.506-.741.858-.99c.3667-.264.7774-.462 1.232-.594.4694-.132.946-.242 1.43-.33.5134-.103.9974-.176 1.452-.22.4694-.059.88-.132 1.232-.22.352-.103.6307-.242.836-.418.2054-.191.308-.462.308-.814 0-.411-.0806-.741-.242-.99-.1466-.249-.3446-.44-.594-.572-.2346-.132-.506-.22-.814-.264-.2933-.044-.5866-.066-.88-.066-.792 0-1.452.154-1.98.462-.528.293-.814.858-.858 1.694h-1.87c.0294-.704.176-1.298.44-1.782s.616-.873 1.056-1.166c.44-.308.9387-.528 1.496-.66.572-.132 1.1807-.198 1.826-.198.5134 0 1.0194.037 1.518.11.5134.073.9754.227 1.386.462.4107.22.7407.535.99.946.2494.411.374.946.374 1.606v5.852c0 .44.022.763.066.968.0587.205.2347.308.528.308.1614 0 .352-.037.572-.11zm-3.036-5.83c-.2346.176-.5426.308-.924.396-.3813.073-.7846.139-1.21.198-.4106.044-.8286.103-1.254.176-.4253.059-.8066.161-1.144.308-.3373.147-.616.359-.836.638-.2053.264-.308.631-.308 1.1 0 .308.0587.572.176.792.132.205.2934.374.484.506.2054.132.44.227.704.286s.5427.088.836.088c.616 0 1.144-.081 1.584-.242.44-.176.7994-.389 1.078-.638.2787-.264.484-.543.616-.836.132-.308.198-.594.198-.858zm4.7104-5.5h1.76v2.398h.044c.4547-.924 1.012-1.606 1.672-2.046s1.496-.645 2.508-.616v1.98c-.748 0-1.386.103-1.914.308s-.9533.506-1.276.902c-.3226.396-.5573.88-.704 1.452-.1466.557-.22 1.203-.22 1.936v5.06h-1.87zm9.9882 0h2.266v1.65h-2.266v7.062c0 .22.0147.396.044.528.044.132.1173.235.22.308s.242.125.418.154c.1907.015.4327.022.726.022h.858v1.65h-1.43c-.484 0-.902-.029-1.254-.088-.3373-.073-.616-.198-.836-.374-.2053-.176-.3593-.425-.462-.748s-.154-.748-.154-1.276v-7.238h-1.936v-1.65h1.936v-3.41h1.87z"/></g><path d="m250.355 11.097h5.676c1.188 0 2.079-.264 2.673-.792s.891-1.386.891-2.574c0-1.144-.297-1.969-.891-2.475-.594-.528-1.485-.792-2.673-.792h-5.676zm-5.181-10.659002h12.705c1.056 0 2.002.176001 2.838.528002.858.33 1.584.792 2.178 1.386.616.594 1.078 1.287 1.386 2.079.33.77.495 1.606.495 2.508 0 1.386-.297 2.585-.891 3.597-.572 1.012-1.518 1.782-2.838 2.31v.066c.638.176 1.166.451 1.584.825.418.352.759.781 1.023 1.287.264.484.451 1.023.561 1.617.132.594.22 1.188.264 1.782.022.374.044.814.066 1.32s.055 1.023.099 1.551c.066.528.154 1.034.264 1.518.132.462.319.858.561 1.188h-5.181c-.286-.748-.462-1.639-.528-2.673s-.165-2.024-.297-2.97c-.176-1.232-.55-2.134-1.122-2.706s-1.507-.858-2.805-.858h-5.181v9.207h-5.181zm27.148 15.048002c0 .682.066 1.353.198 2.013.132.638.352 1.221.66 1.749.33.506.759.913 1.287 1.221s1.188.462 1.98.462 1.452-.154 1.98-.462c.55-.308.979-.715 1.287-1.221.33-.528.561-1.111.693-1.749.132-.66.198-1.331.198-2.013s-.066-1.353-.198-2.013-.363-1.243-.693-1.749c-.308-.506-.737-.913-1.287-1.221-.528-.33-1.188-.495-1.98-.495s-1.452.165-1.98.495c-.528.308-.957.715-1.287 1.221-.308.506-.528 1.089-.66 1.749s-.198 1.331-.198 2.013zm-4.686 0c0-1.364.209-2.596.627-3.696.418-1.122 1.012-2.068 1.782-2.838.77-.792 1.694-1.397 2.772-1.815 1.078-.44 2.288-.66 3.63-.66s2.552.22 3.63.66c1.1.418 2.035 1.023 2.805 1.815.77.77 1.364 1.716 1.782 2.838.418 1.1.627 2.332.627 3.696s-.209 2.596-.627 3.696-1.012 2.046-1.782 2.838c-.77.77-1.705 1.364-2.805 1.782-1.078.418-2.288.627-3.63.627s-2.552-.209-3.63-.627-2.002-1.012-2.772-1.782c-.77-.792-1.364-1.738-1.782-2.838s-.627-2.332-.627-3.696zm39.875 8.514h-4.818l-3.036-11.451h-.066l-2.904 11.451h-4.851l-5.412-17.061h4.95l3.135 11.583h.066l2.838-11.583h4.554l2.904 11.55h.066l3.135-11.55h4.818z"/></g></svg>