<svg width="648" height="772" viewBox="0 0 648 772" fill="none" xmlns="http://www.w3.org/2000/svg">
<path d="M9.71623 7.49489C9.71623 5.91146 8.57548 4.59478 7.17367 4.59478H2.67877V10.395H7.17367C8.57548 10.395 9.71623 9.07832 9.71623 7.49489ZM11.4983 7.49489C11.4983 10.0999 9.54597 12.1884 7.17367 12.1884H2.67877V18C2.67877 18.4938 2.27582 18.8967 1.78207 18.8967C1.28831 18.8967 0.885358 18.4938 0.885358 18V3.69807C0.885358 3.20431 1.28831 2.80136 1.78207 2.80136H7.17367C9.54597 2.80136 11.4983 4.8899 11.4983 7.49489ZM15.065 3.69807C15.065 3.20431 15.468 2.80136 15.9618 2.80136C16.4555 2.80136 16.8585 3.20431 16.8585 3.69807V8.84563C17.3806 8.53916 17.9879 8.36322 18.6405 8.36322C20.6156 8.36322 22.216 9.96368 22.216 11.9387V18C22.216 18.4938 21.8131 18.8967 21.3193 18.8967C20.8255 18.8967 20.4226 18.4938 20.4226 18V11.9387C20.4226 10.9512 19.628 10.1566 18.6405 10.1566C17.653 10.1566 16.8585 10.9455 16.8585 11.9387L16.8528 18C16.8528 18.4938 16.4555 18.8967 15.9618 18.8967C15.468 18.8967 15.065 18.4938 15.065 18V3.69807ZM29.664 19.0329C27.513 19.0329 25.7877 16.689 25.7877 13.7548C25.7877 13.0114 25.8955 11.9501 26.3723 10.8831C26.6674 10.2247 27.0703 9.64586 27.5754 9.1975C28.1487 8.69807 28.8638 8.36322 29.664 8.36322C30.4642 8.36322 31.185 8.69239 31.7582 9.19183C32.269 9.63451 32.6662 10.2247 32.9614 10.8831C33.3303 11.7117 33.5403 12.6708 33.5403 13.6981C33.5403 14.7253 33.3303 15.6844 32.9614 16.5131C32.6662 17.1714 32.269 17.7616 31.7582 18.2043C31.185 18.7037 30.4642 19.0329 29.664 19.0329ZM31.7468 13.6981C31.7468 11.7287 30.7423 10.1566 29.664 10.1566C29.3632 10.1566 29.0624 10.2645 28.7559 10.5369C28.0749 11.1328 27.5754 12.353 27.5754 13.7548C27.5754 15.6958 28.597 17.2395 29.664 17.2395C30.7423 17.2395 31.7468 15.6674 31.7468 13.6981ZM37.1354 9.39614C37.1354 8.90238 37.5383 8.49943 38.0321 8.49943C38.3499 8.49943 38.6337 8.66969 38.7926 8.92508C39.3488 8.57321 40.0014 8.36322 40.7108 8.36322C42.6859 8.36322 44.2863 9.96368 44.2863 11.9387V18C44.2863 18.4938 43.8834 18.8967 43.3896 18.8967C42.8959 18.8967 42.4929 18.4938 42.4929 18V11.9387C42.4929 10.9512 41.6984 10.1566 40.7108 10.1566C39.7233 10.1566 38.9288 10.9455 38.9288 11.9387L38.9231 18C38.9231 18.4938 38.5258 18.8967 38.0321 18.8967C37.5383 18.8967 37.1354 18.4938 37.1354 18V9.39614ZM49.6514 13.9251C49.7082 15.7923 50.7014 17.2395 51.7343 17.2395C52.5799 17.2395 53.3177 16.479 53.6469 15.3042C53.7547 14.9296 54.1009 14.6459 54.5095 14.6459C55.0033 14.6459 55.4063 15.0488 55.4063 15.5426C55.4063 15.6277 55.3949 15.7015 55.3722 15.7809C55.1679 16.5187 54.6628 17.756 53.505 18.4994C52.9772 18.84 52.3756 19.0329 51.7343 19.0329C49.5833 19.0329 47.858 16.689 47.858 13.7548C47.858 13.0114 47.9658 11.9501 48.4426 10.8831C48.7377 10.2247 49.1406 9.64586 49.6458 9.1975C50.219 8.69807 50.9341 8.36322 51.7343 8.36322C53.1929 8.36322 54.4982 9.45857 55.1622 11.3485C55.1963 11.4506 55.4006 12.0352 55.4006 12.6197C55.4006 13.017 55.2984 13.4711 54.9011 13.7435C54.782 13.8229 54.5833 13.9251 54.3166 13.9251H49.6514ZM53.5334 12.1317C53.3631 11.5074 52.7445 10.1566 51.7343 10.1566C51.4335 10.1566 51.1327 10.2645 50.8262 10.5369C50.5027 10.8207 50.1282 11.3371 49.8841 12.1317H53.5334ZM59.868 19.6913C59.3742 19.6913 58.9713 19.2883 58.9713 18.7946C58.9713 18.63 59.0167 18.4767 59.0962 18.3462L68.347 2.45516C68.5002 2.18842 68.7897 2.00681 69.1189 2.00681C69.6126 2.00681 70.0156 2.40976 70.0156 2.90352C70.0156 3.0681 69.9702 3.21566 69.8907 3.35187L60.6399 19.2429C60.4866 19.5096 60.1972 19.6913 59.868 19.6913ZM85.6125 18.8967C85.1187 18.8967 84.7157 18.4938 84.7157 18V7.31895L81.0381 17.9886C80.9132 18.3462 80.5727 18.5902 80.1925 18.5902H79.8917C79.5114 18.5902 79.1766 18.3462 79.0517 17.9886L75.3741 7.30761V18C75.3741 18.4938 74.9711 18.8967 74.4774 18.8967C73.9836 18.8967 73.5807 18.4938 73.5807 18V3.69807C73.5807 3.20431 73.9836 2.80136 74.4774 2.80136H75.0733C75.4535 2.80136 75.7941 3.05108 75.9189 3.40863L80.0449 15.3893L84.1709 3.40863C84.2958 3.05108 84.6363 2.80704 85.0165 2.80704L85.6068 2.80136C86.1005 2.80136 86.4978 3.20431 86.4978 3.69807L86.5035 18C86.5035 18.4938 86.1062 18.8967 85.6125 18.8967ZM93.9413 19.0329C91.7904 19.0329 90.065 16.689 90.065 13.7548C90.065 13.0114 90.1729 11.9501 90.6496 10.8831C90.9447 10.2247 91.3477 9.64586 91.8528 9.1975C92.426 8.69807 93.1411 8.36322 93.9413 8.36322C94.7415 8.36322 95.4623 8.69239 96.0355 9.19183C96.5463 9.63451 96.9436 10.2247 97.2387 10.8831C97.6076 11.7117 97.8176 12.6708 97.8176 13.6981C97.8176 14.7253 97.6076 15.6844 97.2387 16.5131C96.9436 17.1714 96.5463 17.7616 96.0355 18.2043C95.4623 18.7037 94.7415 19.0329 93.9413 19.0329ZM96.0242 13.6981C96.0242 11.7287 95.0196 10.1566 93.9413 10.1566C93.6405 10.1566 93.3397 10.2645 93.0333 10.5369C92.3522 11.1328 91.8528 12.353 91.8528 13.7548C91.8528 15.6958 92.8744 17.2395 93.9413 17.2395C95.0196 17.2395 96.0242 15.6674 96.0242 13.6981ZM104.693 19.0329C104.188 19.0329 103.603 18.9024 103.025 18.5392C102.86 18.7548 102.605 18.8967 102.309 18.8967C101.816 18.8967 101.413 18.4994 101.413 18.0057V3.69807C101.413 3.20431 101.816 2.80136 102.309 2.80136C102.803 2.80136 103.206 3.20431 103.206 3.69807V8.76617C103.49 8.60159 104.006 8.36322 104.693 8.36322C105.493 8.36322 106.214 8.69239 106.787 9.19183C107.298 9.63451 107.695 10.2247 107.99 10.8831C108.359 11.7117 108.564 12.6708 108.564 13.6981C108.564 14.7253 108.359 15.6844 107.99 16.5131C107.695 17.1714 107.298 17.7616 106.787 18.2043C106.214 18.7037 105.493 19.0329 104.693 19.0329ZM103.206 16.1555C103.433 16.5585 103.927 17.2395 104.693 17.2395C105.771 17.2395 106.782 15.6674 106.782 13.6981C106.782 11.7287 105.771 10.1566 104.693 10.1566C104.069 10.1566 103.552 10.6674 103.206 11.286V16.1555ZM111.84 4.69126C111.84 4.03292 112.368 3.49943 113.032 3.49943C113.435 3.49943 113.81 3.70374 114.025 4.02724C114.099 4.13507 114.224 4.36776 114.224 4.69126C114.224 5.3496 113.696 5.88309 113.032 5.88309C112.374 5.88309 111.84 5.35528 111.84 4.69126ZM113.929 18C113.929 18.4938 113.526 18.8967 113.032 18.8967C112.538 18.8967 112.135 18.4938 112.135 18V9.39614C112.135 8.90238 112.538 8.49943 113.032 8.49943C113.526 8.49943 113.929 8.90238 113.929 9.39614V18ZM118.389 2.80136C118.889 2.80136 119.28 3.20999 119.28 3.69807V18C119.28 18.4994 118.877 18.8967 118.389 18.8967H118.384C117.89 18.8967 117.487 18.4938 117.487 18V3.69807C117.487 3.20431 117.89 2.80136 118.384 2.80136H118.389ZM124.632 13.9251C124.689 15.7923 125.682 17.2395 126.715 17.2395C127.56 17.2395 128.298 16.479 128.627 15.3042C128.735 14.9296 129.081 14.6459 129.49 14.6459C129.984 14.6459 130.387 15.0488 130.387 15.5426C130.387 15.6277 130.375 15.7015 130.353 15.7809C130.148 16.5187 129.643 17.756 128.485 18.4994C127.958 18.84 127.356 19.0329 126.715 19.0329C124.564 19.0329 122.838 16.689 122.838 13.7548C122.838 13.0114 122.946 11.9501 123.423 10.8831C123.718 10.2247 124.121 9.64586 124.626 9.1975C125.199 8.69807 125.915 8.36322 126.715 8.36322C128.173 8.36322 129.479 9.45857 130.143 11.3485C130.177 11.4506 130.381 12.0352 130.381 12.6197C130.381 13.017 130.279 13.4711 129.882 13.7435C129.762 13.8229 129.564 13.9251 129.297 13.9251H124.632ZM128.514 12.1317C128.344 11.5074 127.725 10.1566 126.715 10.1566C126.414 10.1566 126.113 10.2645 125.807 10.5369C125.483 10.8207 125.109 11.3371 124.865 12.1317H128.514Z" fill="black" fill-opacity="0.5"/>
<rect width="152" height="52" transform="translate(0 42)" fill="#DCDCDC" fill-opacity="0.75"/>
<path d="M26.2368 67.808C26.0748 67.646 26.0028 67.394 26.0028 67.16C26.0028 66.926 26.0748 66.674 26.2368 66.512L33.5988 61.634C33.7428 61.526 33.9228 61.472 34.1028 61.472C34.5888 61.472 35.0028 61.886 35.0028 62.372C35.0028 62.624 34.9128 62.84 34.7328 63.02L28.5228 67.16L34.7328 71.3C34.9128 71.48 35.0028 71.696 35.0028 71.948C35.0028 72.434 34.5888 72.848 34.1028 72.848C33.9228 72.848 33.7428 72.794 33.5988 72.686L26.2368 67.808ZM39.7846 73.334V60.986C39.7846 60.482 40.1986 60.086 40.6846 60.086C41.1706 60.086 41.5846 60.5 41.5846 60.986V65.198C42.2146 64.676 43.0246 64.298 44.1226 64.298C45.6346 64.298 46.6966 65.288 47.0566 66.566C47.2366 67.232 47.2366 68.078 47.2366 68.852V73.334C47.2366 73.82 46.8226 74.234 46.3366 74.234C45.8506 74.234 45.4366 73.82 45.4366 73.334V68.852V68.636C45.4366 67.34 45.4006 66.098 44.1226 66.098C42.7726 66.098 42.0886 67.16 41.5846 68.096V73.334C41.5846 73.82 41.1706 74.234 40.6846 74.234C40.1986 74.234 39.7846 73.838 39.7846 73.334ZM52.2704 69.068C52.2704 66.386 53.8004 64.262 56.5004 64.208H56.6084C59.3444 64.208 60.7664 66.188 60.7664 68.852C60.7664 69.338 60.3524 69.752 59.8664 69.752H54.1064C54.2684 71.372 55.0784 72.488 56.7884 72.488C56.9864 72.488 57.1844 72.488 57.4004 72.452C57.7784 72.362 58.0664 72.254 58.3004 72.02C58.4624 71.858 58.6784 71.768 58.9124 71.768C59.4164 71.768 59.8304 72.164 59.8304 72.668C59.8304 73.856 58.3184 74.27 56.9144 74.27C56.2664 74.27 55.6544 74.18 55.2044 74.036C53.2784 73.388 52.2704 71.534 52.2704 69.068ZM54.1964 67.952H58.8224C58.5704 66.728 58.1024 66.008 56.5364 66.008C55.2584 66.008 54.5024 66.836 54.1964 67.952ZM65.2782 71.228C65.2782 68.132 68.4282 67.916 71.5602 67.898C71.5062 67.358 71.4162 66.8 71.0202 66.44C70.6242 66.062 70.0662 66.008 69.5262 66.008C68.8062 66.008 68.1222 66.242 67.5642 66.692C67.4022 66.818 67.2042 66.872 67.0062 66.872C66.5022 66.872 66.1062 66.476 66.1062 65.972C66.1062 65.72 66.2322 65.378 66.4482 65.27C67.3302 64.586 68.4102 64.208 69.5262 64.208C70.5162 64.208 71.5242 64.442 72.2442 65.108C72.9642 65.792 73.3602 66.764 73.3602 67.754V73.334C73.3602 73.82 72.9462 74.234 72.4602 74.234C71.9742 74.234 71.5602 73.838 71.5602 73.334V73.19C70.7862 73.82 69.8322 74.288 68.6802 74.288H68.4282C66.9162 74.162 65.2782 73.028 65.2782 71.228ZM67.0782 71.228C67.0782 72.002 67.9422 72.452 68.5542 72.488H68.6982C70.0482 72.488 70.9842 71.336 71.5602 70.4V69.68C71.1642 69.662 70.7502 69.644 70.3182 69.644C68.6982 69.644 67.0782 69.878 67.0782 71.228ZM78.034 69.158C78.034 66.692 79.24 64.982 81.274 64.442C81.616 64.334 81.976 64.298 82.3 64.298C83.38 64.298 84.352 64.766 85.018 65.27V60.986C85.018 60.5 85.432 60.086 85.918 60.086C86.404 60.086 86.818 60.482 86.818 60.986V73.352C86.818 73.856 86.404 74.234 85.918 74.234C85.45 74.234 85.036 73.838 85.018 73.352C84.28 73.91 83.362 74.27 82.3 74.27C81.976 74.27 81.616 74.234 81.274 74.162C79.096 73.64 78.034 71.75 78.034 69.158ZM79.834 69.158C79.834 70.832 80.59 72.542 82.138 72.542C82.462 72.542 82.822 72.47 83.2 72.308C84.01 71.966 84.73 71.282 85.018 70.4V68.096C84.55 67.124 83.488 66.08 82.282 66.08C81.85 66.08 81.4 66.224 80.95 66.53C80.14 67.052 79.834 67.97 79.834 69.158ZM91.2938 69.068C91.2938 66.386 92.8238 64.262 95.5238 64.208H95.6318C98.3678 64.208 99.7898 66.188 99.7898 68.852C99.7898 69.338 99.3758 69.752 98.8898 69.752H93.1298C93.2918 71.372 94.1018 72.488 95.8118 72.488C96.0098 72.488 96.2078 72.488 96.4238 72.452C96.8018 72.362 97.0898 72.254 97.3238 72.02C97.4858 71.858 97.7018 71.768 97.9358 71.768C98.4398 71.768 98.8538 72.164 98.8538 72.668C98.8538 73.856 97.3418 74.27 95.9378 74.27C95.2898 74.27 94.6778 74.18 94.2278 74.036C92.3018 73.388 91.2938 71.534 91.2938 69.068ZM93.2198 67.952H97.8458C97.5938 66.728 97.1258 66.008 95.5598 66.008C94.2818 66.008 93.5258 66.836 93.2198 67.952ZM105.688 73.334V65.252C105.688 64.766 106.102 64.37 106.588 64.37C107.092 64.37 107.488 64.748 107.488 65.252C108.154 64.658 109.018 64.298 110.098 64.298C111.682 64.298 112.726 65.432 112.744 66.8C112.744 67.286 112.33 67.7 111.844 67.7C111.358 67.7 110.944 67.304 110.944 66.8C110.926 66.476 110.71 66.224 110.386 66.152C110.296 66.152 110.188 66.098 110.098 66.098C109.972 66.098 109.846 66.152 109.72 66.152C108.28 66.35 107.488 67.952 107.488 69.302V73.334C107.488 73.838 107.074 74.234 106.588 74.234C106.102 74.234 105.688 73.82 105.688 73.334ZM117.057 71.948C117.057 71.696 117.147 71.48 117.309 71.3L123.519 67.16L117.309 63.02C117.147 62.84 117.057 62.624 117.057 62.372C117.057 61.868 117.471 61.472 117.957 61.472C118.137 61.472 118.299 61.526 118.461 61.634L125.805 66.512C125.985 66.674 126.057 66.926 126.057 67.16C126.057 67.394 126.003 67.682 125.805 67.808L118.461 72.686C118.299 72.794 118.137 72.848 117.957 72.848C117.471 72.848 117.057 72.452 117.057 71.948Z" fill="black"/>
<rect width="152" height="226" transform="translate(0 102)" fill="#6495ED" fill-opacity="0.75"/>
<path d="M39.2446 127.808C39.0826 127.646 39.0106 127.394 39.0106 127.16C39.0106 126.926 39.0826 126.674 39.2446 126.512L46.6066 121.634C46.7506 121.526 46.9306 121.472 47.1106 121.472C47.5966 121.472 48.0106 121.886 48.0106 122.372C48.0106 122.624 47.9206 122.84 47.7406 123.02L41.5306 127.16L47.7406 131.3C47.9206 131.48 48.0106 131.696 48.0106 131.948C48.0106 132.434 47.5966 132.848 47.1106 132.848C46.9306 132.848 46.7506 132.794 46.6066 132.686L39.2446 127.808ZM52.0184 133.334V125.252C52.0184 124.748 52.4324 124.352 52.9184 124.352C53.2244 124.352 53.4944 124.514 53.6564 124.766C54.0524 124.478 54.5204 124.298 55.0784 124.298C55.8164 124.298 56.4464 124.64 56.8604 125.144C57.3284 124.64 57.9584 124.298 58.6784 124.298C60.0464 124.298 61.0184 125.468 61.0184 126.728V133.334C61.0184 133.82 60.6044 134.234 60.1184 134.234C59.6324 134.234 59.2184 133.838 59.2184 133.334V126.872C59.2004 126.548 59.0744 126.098 58.6784 126.098C57.9044 126.098 57.4184 127.61 57.4184 128.33V133.334C57.4184 133.82 57.0044 134.234 56.5184 134.234C56.0324 134.234 55.6184 133.838 55.6184 133.334V126.872C55.6004 126.548 55.4744 126.098 55.0784 126.098C54.2864 126.098 53.8724 127.628 53.8184 128.33V133.334C53.8184 133.82 53.4044 134.234 52.9184 134.234C52.4324 134.234 52.0184 133.838 52.0184 133.334ZM65.2782 131.228C65.2782 128.132 68.4282 127.916 71.5602 127.898C71.5062 127.358 71.4162 126.8 71.0202 126.44C70.6242 126.062 70.0662 126.008 69.5262 126.008C68.8062 126.008 68.1222 126.242 67.5642 126.692C67.4022 126.818 67.2042 126.872 67.0062 126.872C66.5022 126.872 66.1062 126.476 66.1062 125.972C66.1062 125.72 66.2322 125.378 66.4482 125.27C67.3302 124.586 68.4102 124.208 69.5262 124.208C70.5162 124.208 71.5242 124.442 72.2442 125.108C72.9642 125.792 73.3602 126.764 73.3602 127.754V133.334C73.3602 133.82 72.9462 134.234 72.4602 134.234C71.9742 134.234 71.5602 133.838 71.5602 133.334V133.19C70.7862 133.82 69.8322 134.288 68.6802 134.288H68.4282C66.9162 134.162 65.2782 133.028 65.2782 131.228ZM67.0782 131.228C67.0782 132.002 67.9422 132.452 68.5542 132.488H68.6982C70.0482 132.488 70.9842 131.336 71.5602 130.4V129.68C71.1642 129.662 70.7502 129.644 70.3182 129.644C68.6982 129.644 67.0782 129.878 67.0782 131.228ZM79.258 125.468C79.258 124.982 79.654 124.568 80.158 124.568H83.398C83.902 124.568 84.298 124.964 84.298 125.468V133.334C84.298 133.838 83.884 134.234 83.398 134.234C82.912 134.234 82.498 133.82 82.498 133.334V126.368H80.158C79.672 126.368 79.258 125.954 79.258 125.468ZM81.742 121.814V120.986C81.742 120.482 82.156 120.086 82.642 120.086H83.452C83.938 120.086 84.352 120.482 84.352 120.986V121.814C84.352 122.318 83.938 122.714 83.452 122.714H82.642C82.156 122.714 81.742 122.318 81.742 121.814ZM91.2938 133.334V125.252C91.2938 124.766 91.7078 124.37 92.1938 124.37C92.6798 124.37 93.0938 124.766 93.0938 125.252V125.414C93.8498 124.748 94.8218 124.298 96.0458 124.298C98.7458 124.298 99.7898 126.17 99.7898 128.852V133.334C99.7898 133.82 99.3578 134.234 98.8898 134.234C98.4038 134.234 97.9898 133.838 97.9898 133.334V128.852C97.9898 127.232 97.6838 126.098 96.0458 126.098C94.5158 126.098 93.5438 127.376 93.0938 128.528V133.334C93.0938 133.82 92.6798 134.234 92.1938 134.234C91.7078 134.234 91.2938 133.82 91.2938 133.334ZM104.05 131.948C104.05 131.696 104.14 131.48 104.302 131.3L110.512 127.16L104.302 123.02C104.14 122.84 104.05 122.624 104.05 122.372C104.05 121.868 104.464 121.472 104.95 121.472C105.13 121.472 105.292 121.526 105.454 121.634L112.798 126.512C112.978 126.674 113.05 126.926 113.05 127.16C113.05 127.394 112.996 127.682 112.798 127.808L105.454 132.686C105.292 132.794 105.13 132.848 104.95 132.848C104.464 132.848 104.05 132.452 104.05 131.948Z" fill="black"/>
<rect width="152" height="126" transform="translate(0 336)" fill="#98FB98" fill-opacity="0.75"/>
<path d="M32.7407 361.808C32.5787 361.646 32.5067 361.394 32.5067 361.16C32.5067 360.926 32.5787 360.674 32.7407 360.512L40.1027 355.634C40.2467 355.526 40.4267 355.472 40.6067 355.472C41.0927 355.472 41.5067 355.886 41.5067 356.372C41.5067 356.624 41.4167 356.84 41.2367 357.02L35.0267 361.16L41.2367 365.3C41.4167 365.48 41.5067 365.696 41.5067 365.948C41.5067 366.434 41.0927 366.848 40.6067 366.848C40.4267 366.848 40.2467 366.794 40.1027 366.686L32.7407 361.808ZM45.7665 365.228C45.7665 362.132 48.9165 361.916 52.0485 361.898C51.9945 361.358 51.9045 360.8 51.5085 360.44C51.1125 360.062 50.5545 360.008 50.0145 360.008C49.2945 360.008 48.6105 360.242 48.0525 360.692C47.8905 360.818 47.6925 360.872 47.4945 360.872C46.9905 360.872 46.5945 360.476 46.5945 359.972C46.5945 359.72 46.7205 359.378 46.9365 359.27C47.8185 358.586 48.8985 358.208 50.0145 358.208C51.0045 358.208 52.0125 358.442 52.7325 359.108C53.4525 359.792 53.8485 360.764 53.8485 361.754V367.334C53.8485 367.82 53.4345 368.234 52.9485 368.234C52.4625 368.234 52.0485 367.838 52.0485 367.334V367.19C51.2745 367.82 50.3205 368.288 49.1685 368.288H48.9165C47.4045 368.162 45.7665 367.028 45.7665 365.228ZM47.5665 365.228C47.5665 366.002 48.4305 366.452 49.0425 366.488H49.1865C50.5365 366.488 51.4725 365.336 52.0485 364.4V363.68C51.6525 363.662 51.2385 363.644 50.8065 363.644C49.1865 363.644 47.5665 363.878 47.5665 365.228ZM59.2423 366.254C59.2423 365.75 59.6563 365.354 60.1423 365.354C60.7903 365.354 60.9523 366.02 61.3843 366.254C61.8343 366.47 62.4103 366.488 63.0223 366.488C63.9403 366.434 65.1103 366.308 65.1103 365.318C65.1103 364.652 64.3543 364.472 63.8143 364.328C61.8343 363.806 59.3503 363.5 59.3503 360.998C59.3503 358.982 61.0963 358.208 63.0223 358.208H63.5803C64.8943 358.28 66.1903 358.928 66.5143 360.152C66.5323 360.242 66.5503 360.314 66.5503 360.386C66.5503 360.872 66.1363 361.286 65.6503 361.286C65.2183 361.286 64.8583 360.998 64.7683 360.62C64.6423 360.116 64.0303 360.044 63.4903 360.008H63.0223C62.1943 360.008 61.1503 360.08 61.1503 360.998C61.1503 361.682 61.7083 361.916 62.2483 362.06C64.2463 362.582 66.9103 362.816 66.9103 365.318C66.9103 367.442 65.0923 368.234 63.0223 368.288H62.8423C61.1683 368.288 60.0163 367.802 59.3503 366.722C59.2603 366.578 59.2423 366.416 59.2423 366.254ZM72.7541 359.468C72.7541 358.982 73.1501 358.568 73.6541 358.568H76.8941C77.3981 358.568 77.7941 358.964 77.7941 359.468V367.334C77.7941 367.838 77.3801 368.234 76.8941 368.234C76.4081 368.234 75.9941 367.82 75.9941 367.334V360.368H73.6541C73.1681 360.368 72.7541 359.954 72.7541 359.468ZM75.2381 355.814V354.986C75.2381 354.482 75.6521 354.086 76.1381 354.086H76.9481C77.4341 354.086 77.8481 354.482 77.8481 354.986V355.814C77.8481 356.318 77.4341 356.714 76.9481 356.714H76.1381C75.6521 356.714 75.2381 356.318 75.2381 355.814ZM84.5379 363.158C84.5379 360.692 85.7439 358.982 87.7779 358.442C88.1199 358.334 88.4799 358.298 88.8039 358.298C89.8839 358.298 90.8559 358.766 91.5219 359.27V354.986C91.5219 354.5 91.9359 354.086 92.4219 354.086C92.9079 354.086 93.3219 354.482 93.3219 354.986V367.352C93.3219 367.856 92.9079 368.234 92.4219 368.234C91.9539 368.234 91.5399 367.838 91.5219 367.352C90.7839 367.91 89.8659 368.27 88.8039 368.27C88.4799 368.27 88.1199 368.234 87.7779 368.162C85.5999 367.64 84.5379 365.75 84.5379 363.158ZM86.3379 363.158C86.3379 364.832 87.0939 366.542 88.6419 366.542C88.9659 366.542 89.3259 366.47 89.7039 366.308C90.5139 365.966 91.2339 365.282 91.5219 364.4V362.096C91.0539 361.124 89.9919 360.08 88.7859 360.08C88.3539 360.08 87.9039 360.224 87.4539 360.53C86.6439 361.052 86.3379 361.97 86.3379 363.158ZM97.7977 363.068C97.7977 360.386 99.3277 358.262 102.028 358.208H102.136C104.872 358.208 106.294 360.188 106.294 362.852C106.294 363.338 105.88 363.752 105.394 363.752H99.6337C99.7957 365.372 100.606 366.488 102.316 366.488C102.514 366.488 102.712 366.488 102.928 366.452C103.306 366.362 103.594 366.254 103.828 366.02C103.99 365.858 104.206 365.768 104.44 365.768C104.944 365.768 105.358 366.164 105.358 366.668C105.358 367.856 103.846 368.27 102.442 368.27C101.794 368.27 101.182 368.18 100.732 368.036C98.8057 367.388 97.7977 365.534 97.7977 363.068ZM99.7237 361.952H104.35C104.098 360.728 103.63 360.008 102.064 360.008C100.786 360.008 100.03 360.836 99.7237 361.952ZM110.554 365.948C110.554 365.696 110.644 365.48 110.806 365.3L117.016 361.16L110.806 357.02C110.644 356.84 110.554 356.624 110.554 356.372C110.554 355.868 110.968 355.472 111.454 355.472C111.634 355.472 111.796 355.526 111.958 355.634L119.302 360.512C119.482 360.674 119.554 360.926 119.554 361.16C119.554 361.394 119.5 361.682 119.302 361.808L111.958 366.686C111.796 366.794 111.634 366.848 111.454 366.848C110.968 366.848 110.554 366.452 110.554 365.948Z" fill="black"/>
<rect width="152" height="74" transform="translate(0 470)" fill="#FF6347" fill-opacity="0.75"/>
<path d="M19.7328 495.808C19.5708 495.646 19.4988 495.394 19.4988 495.16C19.4988 494.926 19.5708 494.674 19.7328 494.512L27.0948 489.634C27.2388 489.526 27.4188 489.472 27.5988 489.472C28.0848 489.472 28.4988 489.886 28.4988 490.372C28.4988 490.624 28.4088 490.84 28.2288 491.02L22.0188 495.16L28.2288 499.3C28.4088 499.48 28.4988 499.696 28.4988 499.948C28.4988 500.434 28.0848 500.848 27.5988 500.848C27.4188 500.848 27.2388 500.794 27.0948 500.686L19.7328 495.808ZM33.2267 500.254C33.2267 499.75 33.6407 499.354 34.1267 499.354C34.7747 499.354 34.9367 500.02 35.3687 500.254C35.8187 500.47 36.3947 500.488 37.0067 500.488C37.9247 500.434 39.0947 500.308 39.0947 499.318C39.0947 498.652 38.3387 498.472 37.7987 498.328C35.8187 497.806 33.3347 497.5 33.3347 494.998C33.3347 492.982 35.0807 492.208 37.0067 492.208H37.5647C38.8787 492.28 40.1747 492.928 40.4987 494.152C40.5167 494.242 40.5347 494.314 40.5347 494.386C40.5347 494.872 40.1207 495.286 39.6347 495.286C39.2027 495.286 38.8427 494.998 38.7527 494.62C38.6267 494.116 38.0147 494.044 37.4747 494.008H37.0067C36.1787 494.008 35.1347 494.08 35.1347 494.998C35.1347 495.682 35.6927 495.916 36.2327 496.06C38.2307 496.582 40.8947 496.816 40.8947 499.318C40.8947 501.442 39.0767 502.234 37.0067 502.288H36.8267C35.1527 502.288 34.0007 501.802 33.3347 500.722C33.2447 500.578 33.2267 500.416 33.2267 500.254ZM45.7665 497.068C45.7665 494.386 47.2965 492.262 49.9965 492.208H50.1045C52.8405 492.208 54.2625 494.188 54.2625 496.852C54.2625 497.338 53.8485 497.752 53.3625 497.752H47.6025C47.7645 499.372 48.5745 500.488 50.2845 500.488C50.4825 500.488 50.6805 500.488 50.8965 500.452C51.2745 500.362 51.5625 500.254 51.7965 500.02C51.9585 499.858 52.1745 499.768 52.4085 499.768C52.9125 499.768 53.3265 500.164 53.3265 500.668C53.3265 501.856 51.8145 502.27 50.4105 502.27C49.7625 502.27 49.1505 502.18 48.7005 502.036C46.7745 501.388 45.7665 499.534 45.7665 497.068ZM47.6925 495.952H52.3185C52.0665 494.728 51.5985 494.008 50.0325 494.008C48.7545 494.008 47.9985 494.836 47.6925 495.952ZM59.4943 497.068C59.4943 494.35 60.6463 492.316 63.3463 492.316C63.5983 492.316 63.8683 492.334 64.1563 492.37C65.3083 492.496 66.2983 493.18 66.5683 494.278V494.494C66.5683 494.998 66.1903 495.394 65.6863 495.394C65.2543 495.394 64.9123 495.088 64.8223 494.692C64.6603 494.278 64.0843 494.116 63.5083 494.116C63.0943 494.116 62.6803 494.206 62.3743 494.332C61.5463 494.728 61.2943 495.88 61.2943 497.068C61.2943 498.76 61.6183 500.524 63.2563 500.524C63.4363 500.524 63.6523 500.506 63.8683 500.452C64.3543 500.344 64.8043 500.038 64.9123 499.534C65.0383 499.174 65.3443 498.832 65.7943 498.832C66.2803 498.832 66.6763 499.246 66.6763 499.732V499.948C66.3343 501.316 64.9483 502.324 63.3643 502.324C62.7703 502.324 62.1583 502.18 61.5643 501.874C60.0703 501.028 59.4943 499.354 59.4943 497.068ZM71.7821 493.414C71.7821 492.928 72.1961 492.514 72.6821 492.514H74.0681L74.1041 490.696C74.1041 490.174 74.5001 489.796 75.0041 489.796C75.5081 489.796 75.9041 490.21 75.9041 490.696L75.8681 492.514H78.5501C79.0361 492.514 79.4501 492.928 79.4501 493.414C79.4501 493.9 79.0361 494.314 78.5501 494.314H75.8321L75.7781 498.418C75.7781 499.624 75.7781 500.434 77.0201 500.434C77.4161 500.416 77.8121 500.326 78.1541 500.164C78.2801 500.11 78.4061 500.074 78.5501 500.074C79.0361 500.074 79.4501 500.488 79.4501 500.974C79.4501 501.892 78.2441 502.234 77.1281 502.234C76.5881 502.234 76.0481 502.144 75.7061 502.018C74.3921 501.514 73.9781 500.308 73.9781 498.598V498.382L74.0321 494.314H72.6821C72.1961 494.314 71.7821 493.9 71.7821 493.414ZM85.7619 493.468C85.7619 492.982 86.1579 492.568 86.6619 492.568H89.9019C90.4059 492.568 90.8019 492.964 90.8019 493.468V501.334C90.8019 501.838 90.3879 502.234 89.9019 502.234C89.4159 502.234 89.0019 501.82 89.0019 501.334V494.368H86.6619C86.1759 494.368 85.7619 493.954 85.7619 493.468ZM88.2459 489.814V488.986C88.2459 488.482 88.6599 488.086 89.1459 488.086H89.9559C90.4419 488.086 90.8559 488.482 90.8559 488.986V489.814C90.8559 490.318 90.4419 490.714 89.9559 490.714H89.1459C88.6599 490.714 88.2459 490.318 88.2459 489.814ZM97.5457 497.266C97.5457 494.422 99.1117 492.208 102.046 492.208C104.89 492.208 106.546 494.422 106.546 497.266C106.546 500.074 104.926 502.288 102.046 502.288C99.1477 502.288 97.5457 500.11 97.5457 497.266ZM99.3457 497.266C99.3457 499.048 100.192 500.488 102.046 500.488C103.9 500.488 104.746 499.048 104.746 497.266C104.746 495.466 103.864 494.008 102.046 494.008C100.21 494.008 99.3457 495.484 99.3457 497.266ZM110.806 501.334V493.252C110.806 492.766 111.22 492.37 111.706 492.37C112.192 492.37 112.606 492.766 112.606 493.252V493.414C113.362 492.748 114.334 492.298 115.558 492.298C118.258 492.298 119.302 494.17 119.302 496.852V501.334C119.302 501.82 118.87 502.234 118.402 502.234C117.916 502.234 117.502 501.838 117.502 501.334V496.852C117.502 495.232 117.196 494.098 115.558 494.098C114.028 494.098 113.056 495.376 112.606 496.528V501.334C112.606 501.82 112.192 502.234 111.706 502.234C111.22 502.234 110.806 501.82 110.806 501.334ZM123.561 499.948C123.561 499.696 123.651 499.48 123.813 499.3L130.023 495.16L123.813 491.02C123.651 490.84 123.561 490.624 123.561 490.372C123.561 489.868 123.975 489.472 124.461 489.472C124.641 489.472 124.803 489.526 124.965 489.634L132.309 494.512C132.489 494.674 132.561 494.926 132.561 495.16C132.561 495.394 132.507 495.682 132.309 495.808L124.965 500.686C124.803 500.794 124.641 500.848 124.461 500.848C123.975 500.848 123.561 500.452 123.561 499.948Z" fill="black"/>
<rect width="152" height="74" transform="translate(0 552)" fill="#FF6347" fill-opacity="0.75"/>
<path d="M19.7328 577.808C19.5708 577.646 19.4988 577.394 19.4988 577.16C19.4988 576.926 19.5708 576.674 19.7328 576.512L27.0948 571.634C27.2388 571.526 27.4188 571.472 27.5988 571.472C28.0848 571.472 28.4988 571.886 28.4988 572.372C28.4988 572.624 28.4088 572.84 28.2288 573.02L22.0188 577.16L28.2288 581.3C28.4088 581.48 28.4988 581.696 28.4988 581.948C28.4988 582.434 28.0848 582.848 27.5988 582.848C27.4188 582.848 27.2388 582.794 27.0948 582.686L19.7328 577.808ZM33.2267 582.254C33.2267 581.75 33.6407 581.354 34.1267 581.354C34.7747 581.354 34.9367 582.02 35.3687 582.254C35.8187 582.47 36.3947 582.488 37.0067 582.488C37.9247 582.434 39.0947 582.308 39.0947 581.318C39.0947 580.652 38.3387 580.472 37.7987 580.328C35.8187 579.806 33.3347 579.5 33.3347 576.998C33.3347 574.982 35.0807 574.208 37.0067 574.208H37.5647C38.8787 574.28 40.1747 574.928 40.4987 576.152C40.5167 576.242 40.5347 576.314 40.5347 576.386C40.5347 576.872 40.1207 577.286 39.6347 577.286C39.2027 577.286 38.8427 576.998 38.7527 576.62C38.6267 576.116 38.0147 576.044 37.4747 576.008H37.0067C36.1787 576.008 35.1347 576.08 35.1347 576.998C35.1347 577.682 35.6927 577.916 36.2327 578.06C38.2307 578.582 40.8947 578.816 40.8947 581.318C40.8947 583.442 39.0767 584.234 37.0067 584.288H36.8267C35.1527 584.288 34.0007 583.802 33.3347 582.722C33.2447 582.578 33.2267 582.416 33.2267 582.254ZM45.7665 579.068C45.7665 576.386 47.2965 574.262 49.9965 574.208H50.1045C52.8405 574.208 54.2625 576.188 54.2625 578.852C54.2625 579.338 53.8485 579.752 53.3625 579.752H47.6025C47.7645 581.372 48.5745 582.488 50.2845 582.488C50.4825 582.488 50.6805 582.488 50.8965 582.452C51.2745 582.362 51.5625 582.254 51.7965 582.02C51.9585 581.858 52.1745 581.768 52.4085 581.768C52.9125 581.768 53.3265 582.164 53.3265 582.668C53.3265 583.856 51.8145 584.27 50.4105 584.27C49.7625 584.27 49.1505 584.18 48.7005 584.036C46.7745 583.388 45.7665 581.534 45.7665 579.068ZM47.6925 577.952H52.3185C52.0665 576.728 51.5985 576.008 50.0325 576.008C48.7545 576.008 47.9985 576.836 47.6925 577.952ZM59.4943 579.068C59.4943 576.35 60.6463 574.316 63.3463 574.316C63.5983 574.316 63.8683 574.334 64.1563 574.37C65.3083 574.496 66.2983 575.18 66.5683 576.278V576.494C66.5683 576.998 66.1903 577.394 65.6863 577.394C65.2543 577.394 64.9123 577.088 64.8223 576.692C64.6603 576.278 64.0843 576.116 63.5083 576.116C63.0943 576.116 62.6803 576.206 62.3743 576.332C61.5463 576.728 61.2943 577.88 61.2943 579.068C61.2943 580.76 61.6183 582.524 63.2563 582.524C63.4363 582.524 63.6523 582.506 63.8683 582.452C64.3543 582.344 64.8043 582.038 64.9123 581.534C65.0383 581.174 65.3443 580.832 65.7943 580.832C66.2803 580.832 66.6763 581.246 66.6763 581.732V581.948C66.3343 583.316 64.9483 584.324 63.3643 584.324C62.7703 584.324 62.1583 584.18 61.5643 583.874C60.0703 583.028 59.4943 581.354 59.4943 579.068ZM71.7821 575.414C71.7821 574.928 72.1961 574.514 72.6821 574.514H74.0681L74.1041 572.696C74.1041 572.174 74.5001 571.796 75.0041 571.796C75.5081 571.796 75.9041 572.21 75.9041 572.696L75.8681 574.514H78.5501C79.0361 574.514 79.4501 574.928 79.4501 575.414C79.4501 575.9 79.0361 576.314 78.5501 576.314H75.8321L75.7781 580.418C75.7781 581.624 75.7781 582.434 77.0201 582.434C77.4161 582.416 77.8121 582.326 78.1541 582.164C78.2801 582.11 78.4061 582.074 78.5501 582.074C79.0361 582.074 79.4501 582.488 79.4501 582.974C79.4501 583.892 78.2441 584.234 77.1281 584.234C76.5881 584.234 76.0481 584.144 75.7061 584.018C74.3921 583.514 73.9781 582.308 73.9781 580.598V580.382L74.0321 576.314H72.6821C72.1961 576.314 71.7821 575.9 71.7821 575.414ZM85.7619 575.468C85.7619 574.982 86.1579 574.568 86.6619 574.568H89.9019C90.4059 574.568 90.8019 574.964 90.8019 575.468V583.334C90.8019 583.838 90.3879 584.234 89.9019 584.234C89.4159 584.234 89.0019 583.82 89.0019 583.334V576.368H86.6619C86.1759 576.368 85.7619 575.954 85.7619 575.468ZM88.2459 571.814V570.986C88.2459 570.482 88.6599 570.086 89.1459 570.086H89.9559C90.4419 570.086 90.8559 570.482 90.8559 570.986V571.814C90.8559 572.318 90.4419 572.714 89.9559 572.714H89.1459C88.6599 572.714 88.2459 572.318 88.2459 571.814ZM97.5457 579.266C97.5457 576.422 99.1117 574.208 102.046 574.208C104.89 574.208 106.546 576.422 106.546 579.266C106.546 582.074 104.926 584.288 102.046 584.288C99.1477 584.288 97.5457 582.11 97.5457 579.266ZM99.3457 579.266C99.3457 581.048 100.192 582.488 102.046 582.488C103.9 582.488 104.746 581.048 104.746 579.266C104.746 577.466 103.864 576.008 102.046 576.008C100.21 576.008 99.3457 577.484 99.3457 579.266ZM110.806 583.334V575.252C110.806 574.766 111.22 574.37 111.706 574.37C112.192 574.37 112.606 574.766 112.606 575.252V575.414C113.362 574.748 114.334 574.298 115.558 574.298C118.258 574.298 119.302 576.17 119.302 578.852V583.334C119.302 583.82 118.87 584.234 118.402 584.234C117.916 584.234 117.502 583.838 117.502 583.334V578.852C117.502 577.232 117.196 576.098 115.558 576.098C114.028 576.098 113.056 577.376 112.606 578.528V583.334C112.606 583.82 112.192 584.234 111.706 584.234C111.22 584.234 110.806 583.82 110.806 583.334ZM123.561 581.948C123.561 581.696 123.651 581.48 123.813 581.3L130.023 577.16L123.813 573.02C123.651 572.84 123.561 572.624 123.561 572.372C123.561 571.868 123.975 571.472 124.461 571.472C124.641 571.472 124.803 571.526 124.965 571.634L132.309 576.512C132.489 576.674 132.561 576.926 132.561 577.16C132.561 577.394 132.507 577.682 132.309 577.808L124.965 582.686C124.803 582.794 124.641 582.848 124.461 582.848C123.975 582.848 123.561 582.452 123.561 581.948Z" fill="black"/>
<rect width="152" height="74" transform="translate(0 634)" fill="#FF6347" fill-opacity="0.75"/>
<path d="M19.7328 659.808C19.5708 659.646 19.4988 659.394 19.4988 659.16C19.4988 658.926 19.5708 658.674 19.7328 658.512L27.0948 653.634C27.2388 653.526 27.4188 653.472 27.5988 653.472C28.0848 653.472 28.4988 653.886 28.4988 654.372C28.4988 654.624 28.4088 654.84 28.2288 655.02L22.0188 659.16L28.2288 663.3C28.4088 663.48 28.4988 663.696 28.4988 663.948C28.4988 664.434 28.0848 664.848 27.5988 664.848C27.4188 664.848 27.2388 664.794 27.0948 664.686L19.7328 659.808ZM33.2267 664.254C33.2267 663.75 33.6407 663.354 34.1267 663.354C34.7747 663.354 34.9367 664.02 35.3687 664.254C35.8187 664.47 36.3947 664.488 37.0067 664.488C37.9247 664.434 39.0947 664.308 39.0947 663.318C39.0947 662.652 38.3387 662.472 37.7987 662.328C35.8187 661.806 33.3347 661.5 33.3347 658.998C33.3347 656.982 35.0807 656.208 37.0067 656.208H37.5647C38.8787 656.28 40.1747 656.928 40.4987 658.152C40.5167 658.242 40.5347 658.314 40.5347 658.386C40.5347 658.872 40.1207 659.286 39.6347 659.286C39.2027 659.286 38.8427 658.998 38.7527 658.62C38.6267 658.116 38.0147 658.044 37.4747 658.008H37.0067C36.1787 658.008 35.1347 658.08 35.1347 658.998C35.1347 659.682 35.6927 659.916 36.2327 660.06C38.2307 660.582 40.8947 660.816 40.8947 663.318C40.8947 665.442 39.0767 666.234 37.0067 666.288H36.8267C35.1527 666.288 34.0007 665.802 33.3347 664.722C33.2447 664.578 33.2267 664.416 33.2267 664.254ZM45.7665 661.068C45.7665 658.386 47.2965 656.262 49.9965 656.208H50.1045C52.8405 656.208 54.2625 658.188 54.2625 660.852C54.2625 661.338 53.8485 661.752 53.3625 661.752H47.6025C47.7645 663.372 48.5745 664.488 50.2845 664.488C50.4825 664.488 50.6805 664.488 50.8965 664.452C51.2745 664.362 51.5625 664.254 51.7965 664.02C51.9585 663.858 52.1745 663.768 52.4085 663.768C52.9125 663.768 53.3265 664.164 53.3265 664.668C53.3265 665.856 51.8145 666.27 50.4105 666.27C49.7625 666.27 49.1505 666.18 48.7005 666.036C46.7745 665.388 45.7665 663.534 45.7665 661.068ZM47.6925 659.952H52.3185C52.0665 658.728 51.5985 658.008 50.0325 658.008C48.7545 658.008 47.9985 658.836 47.6925 659.952ZM59.4943 661.068C59.4943 658.35 60.6463 656.316 63.3463 656.316C63.5983 656.316 63.8683 656.334 64.1563 656.37C65.3083 656.496 66.2983 657.18 66.5683 658.278V658.494C66.5683 658.998 66.1903 659.394 65.6863 659.394C65.2543 659.394 64.9123 659.088 64.8223 658.692C64.6603 658.278 64.0843 658.116 63.5083 658.116C63.0943 658.116 62.6803 658.206 62.3743 658.332C61.5463 658.728 61.2943 659.88 61.2943 661.068C61.2943 662.76 61.6183 664.524 63.2563 664.524C63.4363 664.524 63.6523 664.506 63.8683 664.452C64.3543 664.344 64.8043 664.038 64.9123 663.534C65.0383 663.174 65.3443 662.832 65.7943 662.832C66.2803 662.832 66.6763 663.246 66.6763 663.732V663.948C66.3343 665.316 64.9483 666.324 63.3643 666.324C62.7703 666.324 62.1583 666.18 61.5643 665.874C60.0703 665.028 59.4943 663.354 59.4943 661.068ZM71.7821 657.414C71.7821 656.928 72.1961 656.514 72.6821 656.514H74.0681L74.1041 654.696C74.1041 654.174 74.5001 653.796 75.0041 653.796C75.5081 653.796 75.9041 654.21 75.9041 654.696L75.8681 656.514H78.5501C79.0361 656.514 79.4501 656.928 79.4501 657.414C79.4501 657.9 79.0361 658.314 78.5501 658.314H75.8321L75.7781 662.418C75.7781 663.624 75.7781 664.434 77.0201 664.434C77.4161 664.416 77.8121 664.326 78.1541 664.164C78.2801 664.11 78.4061 664.074 78.5501 664.074C79.0361 664.074 79.4501 664.488 79.4501 664.974C79.4501 665.892 78.2441 666.234 77.1281 666.234C76.5881 666.234 76.0481 666.144 75.7061 666.018C74.3921 665.514 73.9781 664.308 73.9781 662.598V662.382L74.0321 658.314H72.6821C72.1961 658.314 71.7821 657.9 71.7821 657.414ZM85.7619 657.468C85.7619 656.982 86.1579 656.568 86.6619 656.568H89.9019C90.4059 656.568 90.8019 656.964 90.8019 657.468V665.334C90.8019 665.838 90.3879 666.234 89.9019 666.234C89.4159 666.234 89.0019 665.82 89.0019 665.334V658.368H86.6619C86.1759 658.368 85.7619 657.954 85.7619 657.468ZM88.2459 653.814V652.986C88.2459 652.482 88.6599 652.086 89.1459 652.086H89.9559C90.4419 652.086 90.8559 652.482 90.8559 652.986V653.814C90.8559 654.318 90.4419 654.714 89.9559 654.714H89.1459C88.6599 654.714 88.2459 654.318 88.2459 653.814ZM97.5457 661.266C97.5457 658.422 99.1117 656.208 102.046 656.208C104.89 656.208 106.546 658.422 106.546 661.266C106.546 664.074 104.926 666.288 102.046 666.288C99.1477 666.288 97.5457 664.11 97.5457 661.266ZM99.3457 661.266C99.3457 663.048 100.192 664.488 102.046 664.488C103.9 664.488 104.746 663.048 104.746 661.266C104.746 659.466 103.864 658.008 102.046 658.008C100.21 658.008 99.3457 659.484 99.3457 661.266ZM110.806 665.334V657.252C110.806 656.766 111.22 656.37 111.706 656.37C112.192 656.37 112.606 656.766 112.606 657.252V657.414C113.362 656.748 114.334 656.298 115.558 656.298C118.258 656.298 119.302 658.17 119.302 660.852V665.334C119.302 665.82 118.87 666.234 118.402 666.234C117.916 666.234 117.502 665.838 117.502 665.334V660.852C117.502 659.232 117.196 658.098 115.558 658.098C114.028 658.098 113.056 659.376 112.606 660.528V665.334C112.606 665.82 112.192 666.234 111.706 666.234C111.22 666.234 110.806 665.82 110.806 665.334ZM123.561 663.948C123.561 663.696 123.651 663.48 123.813 663.3L130.023 659.16L123.813 655.02C123.651 654.84 123.561 654.624 123.561 654.372C123.561 653.868 123.975 653.472 124.461 653.472C124.641 653.472 124.803 653.526 124.965 653.634L132.309 658.512C132.489 658.674 132.561 658.926 132.561 659.16C132.561 659.394 132.507 659.682 132.309 659.808L124.965 664.686C124.803 664.794 124.641 664.848 124.461 664.848C123.975 664.848 123.561 664.452 123.561 663.948Z" fill="black"/>
<rect width="152" height="52" transform="translate(0 716)" fill="#FFD700" fill-opacity="0.75"/>
<path d="M26.2368 741.808C26.0748 741.646 26.0028 741.394 26.0028 741.16C26.0028 740.926 26.0748 740.674 26.2368 740.512L33.5988 735.634C33.7428 735.526 33.9228 735.472 34.1028 735.472C34.5888 735.472 35.0028 735.886 35.0028 736.372C35.0028 736.624 34.9128 736.84 34.7328 737.02L28.5228 741.16L34.7328 745.3C34.9128 745.48 35.0028 745.696 35.0028 745.948C35.0028 746.434 34.5888 746.848 34.1028 746.848C33.9228 746.848 33.7428 746.794 33.5988 746.686L26.2368 741.808ZM39.6226 739.306C39.6226 738.82 40.0366 738.406 40.5226 738.406H42.5026V738.226C42.5026 735.544 43.7806 734.14 46.4446 734.14C46.9306 734.14 47.3446 734.554 47.3446 735.04C47.3446 735.526 46.9306 735.94 46.4446 735.94C45.4906 735.94 44.5906 736.264 44.3746 737.038C44.3026 737.272 44.3026 737.83 44.3026 738.226V738.406H46.4986C46.9666 738.406 47.3986 738.82 47.3986 739.306C47.3986 739.792 46.9846 740.206 46.4986 740.206H44.3026L44.4106 747.334C44.4106 747.82 43.9966 748.234 43.5106 748.234C43.0246 748.234 42.6106 747.838 42.6106 747.334L42.5026 740.206H40.5226C40.0186 740.206 39.6226 739.792 39.6226 739.306ZM52.0184 743.266C52.0184 740.422 53.5844 738.208 56.5184 738.208C59.3624 738.208 61.0184 740.422 61.0184 743.266C61.0184 746.074 59.3984 748.288 56.5184 748.288C53.6204 748.288 52.0184 746.11 52.0184 743.266ZM53.8184 743.266C53.8184 745.048 54.6644 746.488 56.5184 746.488C58.3724 746.488 59.2184 745.048 59.2184 743.266C59.2184 741.466 58.3364 740.008 56.5184 740.008C54.6824 740.008 53.8184 741.484 53.8184 743.266ZM65.0262 743.266C65.0262 740.422 66.5922 738.208 69.5262 738.208C72.3702 738.208 74.0262 740.422 74.0262 743.266C74.0262 746.074 72.4062 748.288 69.5262 748.288C66.6282 748.288 65.0262 746.11 65.0262 743.266ZM66.8262 743.266C66.8262 745.048 67.6722 746.488 69.5262 746.488C71.3802 746.488 72.2262 745.048 72.2262 743.266C72.2262 741.466 71.3442 740.008 69.5262 740.008C67.6902 740.008 66.8262 741.484 66.8262 743.266ZM78.286 739.414C78.286 738.928 78.7 738.514 79.186 738.514H80.572L80.608 736.696C80.608 736.174 81.004 735.796 81.508 735.796C82.012 735.796 82.408 736.21 82.408 736.696L82.372 738.514H85.054C85.54 738.514 85.954 738.928 85.954 739.414C85.954 739.9 85.54 740.314 85.054 740.314H82.336L82.282 744.418C82.282 745.624 82.282 746.434 83.524 746.434C83.92 746.416 84.316 746.326 84.658 746.164C84.784 746.11 84.91 746.074 85.054 746.074C85.54 746.074 85.954 746.488 85.954 746.974C85.954 747.892 84.748 748.234 83.632 748.234C83.092 748.234 82.552 748.144 82.21 748.018C80.896 747.514 80.482 746.308 80.482 744.598V744.382L80.536 740.314H79.186C78.7 740.314 78.286 739.9 78.286 739.414ZM91.2938 743.068C91.2938 740.386 92.8238 738.262 95.5238 738.208H95.6318C98.3678 738.208 99.7898 740.188 99.7898 742.852C99.7898 743.338 99.3758 743.752 98.8898 743.752H93.1298C93.2918 745.372 94.1018 746.488 95.8118 746.488C96.0098 746.488 96.2078 746.488 96.4238 746.452C96.8018 746.362 97.0898 746.254 97.3238 746.02C97.4858 745.858 97.7018 745.768 97.9358 745.768C98.4398 745.768 98.8538 746.164 98.8538 746.668C98.8538 747.856 97.3418 748.27 95.9378 748.27C95.2898 748.27 94.6778 748.18 94.2278 748.036C92.3018 747.388 91.2938 745.534 91.2938 743.068ZM93.2198 741.952H97.8458C97.5938 740.728 97.1258 740.008 95.5598 740.008C94.2818 740.008 93.5258 740.836 93.2198 741.952ZM105.688 747.334V739.252C105.688 738.766 106.102 738.37 106.588 738.37C107.092 738.37 107.488 738.748 107.488 739.252C108.154 738.658 109.018 738.298 110.098 738.298C111.682 738.298 112.726 739.432 112.744 740.8C112.744 741.286 112.33 741.7 111.844 741.7C111.358 741.7 110.944 741.304 110.944 740.8C110.926 740.476 110.71 740.224 110.386 740.152C110.296 740.152 110.188 740.098 110.098 740.098C109.972 740.098 109.846 740.152 109.72 740.152C108.28 740.35 107.488 741.952 107.488 743.302V747.334C107.488 747.838 107.074 748.234 106.588 748.234C106.102 748.234 105.688 747.82 105.688 747.334ZM117.057 745.948C117.057 745.696 117.147 745.48 117.309 745.3L123.519 741.16L117.309 737.02C117.147 736.84 117.057 736.624 117.057 736.372C117.057 735.868 117.471 735.472 117.957 735.472C118.137 735.472 118.299 735.526 118.461 735.634L125.805 740.512C125.985 740.674 126.057 740.926 126.057 741.16C126.057 741.394 126.003 741.682 125.805 741.808L118.461 746.686C118.299 746.794 118.137 746.848 117.957 746.848C117.471 746.848 117.057 746.452 117.057 745.948Z" fill="black"/>
<path d="M268.4 3.70374C268.4 4.1975 268.002 4.60045 267.509 4.60045H263.048V18C263.048 18.4938 262.645 18.8967 262.151 18.8967C261.657 18.8967 261.26 18.4938 261.26 18L261.254 4.59478H256.782C256.283 4.59478 255.885 4.19183 255.885 3.70374V3.69807C255.885 3.20431 256.288 2.80136 256.782 2.80136H267.509C268.002 2.80136 268.4 3.20431 268.4 3.69807V3.70374ZM277.328 11.7571C277.328 10.9625 276.693 10.1566 275.58 10.1566C274.423 10.1566 274.094 10.6163 273.957 10.849C273.867 11.0023 273.787 11.2009 273.73 11.4506C273.639 11.8536 273.282 12.1544 272.856 12.1544C272.363 12.1544 271.96 11.7514 271.96 11.2577C271.96 11.1896 271.965 11.1271 271.982 11.0647C272.153 10.2985 272.777 8.36322 275.58 8.36322C277.646 8.36322 279.111 9.94098 279.111 11.7571V13.0284C279.111 13.0454 279.116 13.0681 279.116 13.0851C279.116 16.4109 279.111 16.4109 279.111 16.4109C279.111 16.5471 279.122 17.0238 279.264 17.2395C279.548 17.2338 279.871 17.1827 279.871 17.1827C279.905 17.1771 279.945 17.1714 280.007 17.1714C280.501 17.1714 280.904 17.5743 280.904 18.0681C280.904 18.5165 280.575 18.8854 280.143 18.9535C280.121 18.9591 279.667 19.0329 279.184 19.0329C278.929 19.0329 278.361 18.9591 277.896 18.3916C277.204 18.8343 276.341 19.0102 275.637 19.0102C275.081 19.0102 274.491 18.9194 273.923 18.7151C273.475 18.5505 273.027 18.3121 272.658 17.9319C272.334 17.597 271.96 17.0352 271.96 16.2123C271.96 15.5653 272.101 14.3507 273.39 13.4427C274.003 13.0114 274.758 12.7276 275.586 12.5062C276.08 12.3757 276.653 12.2849 277.323 12.2338C277.323 11.9387 277.328 11.7571 277.328 11.7571ZM273.753 16.2123C273.753 16.4279 273.827 16.5698 273.94 16.689C274.264 17.0238 274.968 17.2168 275.637 17.2168C275.915 17.2168 276.279 17.1714 276.579 17.0579C277.317 16.7855 277.317 16.3655 277.317 16.2123C277.317 16.2123 277.323 15.1283 277.323 14.0272C276.92 14.0613 276.449 14.1237 276.052 14.2316C274.179 14.731 273.753 15.3496 273.753 16.2123ZM287.154 19.0329C286.649 19.0329 286.064 18.9024 285.485 18.5392C285.321 18.7548 285.065 18.8967 284.77 18.8967C284.277 18.8967 283.874 18.4994 283.874 18.0057V3.69807C283.874 3.20431 284.277 2.80136 284.77 2.80136C285.264 2.80136 285.667 3.20431 285.667 3.69807V8.76617C285.951 8.60159 286.467 8.36322 287.154 8.36322C287.954 8.36322 288.675 8.69239 289.248 9.19183C289.759 9.63451 290.156 10.2247 290.451 10.8831C290.82 11.7117 291.025 12.6708 291.025 13.6981C291.025 14.7253 290.82 15.6844 290.451 16.5131C290.156 17.1714 289.759 17.7616 289.248 18.2043C288.675 18.7037 287.954 19.0329 287.154 19.0329ZM285.667 16.1555C285.894 16.5585 286.388 17.2395 287.154 17.2395C288.232 17.2395 289.243 15.6674 289.243 13.6981C289.243 11.7287 288.232 10.1566 287.154 10.1566C286.53 10.1566 286.013 10.6674 285.667 11.286V16.1555ZM295.499 2.80136C295.998 2.80136 296.39 3.20999 296.39 3.69807V18C296.39 18.4994 295.987 18.8967 295.499 18.8967H295.493C294.999 18.8967 294.596 18.4938 294.596 18V3.69807C294.596 3.20431 294.999 2.80136 295.493 2.80136H295.499ZM301.741 13.9251C301.798 15.7923 302.791 17.2395 303.824 17.2395C304.67 17.2395 305.408 16.479 305.737 15.3042C305.845 14.9296 306.191 14.6459 306.599 14.6459C307.093 14.6459 307.496 15.0488 307.496 15.5426C307.496 15.6277 307.485 15.7015 307.462 15.7809C307.258 16.5187 306.753 17.756 305.595 18.4994C305.067 18.84 304.465 19.0329 303.824 19.0329C301.673 19.0329 299.948 16.689 299.948 13.7548C299.948 13.0114 300.056 11.9501 300.532 10.8831C300.828 10.2247 301.23 9.64586 301.736 9.1975C302.309 8.69807 303.024 8.36322 303.824 8.36322C305.283 8.36322 306.588 9.45857 307.252 11.3485C307.286 11.4506 307.49 12.0352 307.49 12.6197C307.49 13.017 307.388 13.4711 306.991 13.7435C306.872 13.8229 306.673 13.9251 306.406 13.9251H301.741ZM305.623 12.1317C305.453 11.5074 304.834 10.1566 303.824 10.1566C303.523 10.1566 303.223 10.2645 302.916 10.5369C302.593 10.8207 302.218 11.3371 301.974 12.1317H305.623ZM316.033 16.0988C316.033 15.605 316.43 15.2077 316.924 15.2077C317.418 15.2077 317.815 15.605 317.815 16.0988V16.4109C317.815 17.7843 316.708 18.8967 315.335 18.8967C313.961 18.8967 312.855 17.7843 312.855 16.4109V10.2928L311.362 10.2872C310.868 10.2872 310.471 9.8899 310.471 9.39614C310.471 8.90238 310.868 8.49943 311.362 8.49943H312.855V6.87628C312.855 6.38252 313.252 5.97957 313.746 5.97957C314.239 5.97957 314.637 6.38252 314.637 6.87628V8.49943L316.924 8.50511C317.418 8.50511 317.815 8.90238 317.815 9.39614C317.815 9.8899 317.418 10.2928 316.924 10.2928H314.637V16.4109C314.637 16.7968 314.949 17.1033 315.335 17.1033C315.721 17.1033 316.033 16.7968 316.033 16.4109V16.0988Z" fill="black" fill-opacity="0.5"/>
<rect width="393" height="52" transform="translate(255 42)" fill="#DCDCDC" fill-opacity="0.75"/>
<path d="M401.737 67.808C401.575 67.646 401.503 67.394 401.503 67.16C401.503 66.926 401.575 66.674 401.737 66.512L409.099 61.634C409.243 61.526 409.423 61.472 409.603 61.472C410.089 61.472 410.503 61.886 410.503 62.372C410.503 62.624 410.413 62.84 410.233 63.02L404.023 67.16L410.233 71.3C410.413 71.48 410.503 71.696 410.503 71.948C410.503 72.434 410.089 72.848 409.603 72.848C409.423 72.848 409.243 72.794 409.099 72.686L401.737 67.808ZM415.285 73.334V60.986C415.285 60.482 415.699 60.086 416.185 60.086C416.671 60.086 417.085 60.5 417.085 60.986V65.198C417.715 64.676 418.525 64.298 419.623 64.298C421.135 64.298 422.197 65.288 422.557 66.566C422.737 67.232 422.737 68.078 422.737 68.852V73.334C422.737 73.82 422.323 74.234 421.837 74.234C421.351 74.234 420.937 73.82 420.937 73.334V68.852V68.636C420.937 67.34 420.901 66.098 419.623 66.098C418.273 66.098 417.589 67.16 417.085 68.096V73.334C417.085 73.82 416.671 74.234 416.185 74.234C415.699 74.234 415.285 73.838 415.285 73.334ZM427.77 69.068C427.77 66.386 429.3 64.262 432 64.208H432.108C434.844 64.208 436.266 66.188 436.266 68.852C436.266 69.338 435.852 69.752 435.366 69.752H429.606C429.768 71.372 430.578 72.488 432.288 72.488C432.486 72.488 432.684 72.488 432.9 72.452C433.278 72.362 433.566 72.254 433.8 72.02C433.962 71.858 434.178 71.768 434.412 71.768C434.916 71.768 435.33 72.164 435.33 72.668C435.33 73.856 433.818 74.27 432.414 74.27C431.766 74.27 431.154 74.18 430.704 74.036C428.778 73.388 427.77 71.534 427.77 69.068ZM429.696 67.952H434.322C434.07 66.728 433.602 66.008 432.036 66.008C430.758 66.008 430.002 66.836 429.696 67.952ZM440.778 71.228C440.778 68.132 443.928 67.916 447.06 67.898C447.006 67.358 446.916 66.8 446.52 66.44C446.124 66.062 445.566 66.008 445.026 66.008C444.306 66.008 443.622 66.242 443.064 66.692C442.902 66.818 442.704 66.872 442.506 66.872C442.002 66.872 441.606 66.476 441.606 65.972C441.606 65.72 441.732 65.378 441.948 65.27C442.83 64.586 443.91 64.208 445.026 64.208C446.016 64.208 447.024 64.442 447.744 65.108C448.464 65.792 448.86 66.764 448.86 67.754V73.334C448.86 73.82 448.446 74.234 447.96 74.234C447.474 74.234 447.06 73.838 447.06 73.334V73.19C446.286 73.82 445.332 74.288 444.18 74.288H443.928C442.416 74.162 440.778 73.028 440.778 71.228ZM442.578 71.228C442.578 72.002 443.442 72.452 444.054 72.488H444.198C445.548 72.488 446.484 71.336 447.06 70.4V69.68C446.664 69.662 446.25 69.644 445.818 69.644C444.198 69.644 442.578 69.878 442.578 71.228ZM453.534 69.158C453.534 66.692 454.74 64.982 456.774 64.442C457.116 64.334 457.476 64.298 457.8 64.298C458.88 64.298 459.852 64.766 460.518 65.27V60.986C460.518 60.5 460.932 60.086 461.418 60.086C461.904 60.086 462.318 60.482 462.318 60.986V73.352C462.318 73.856 461.904 74.234 461.418 74.234C460.95 74.234 460.536 73.838 460.518 73.352C459.78 73.91 458.862 74.27 457.8 74.27C457.476 74.27 457.116 74.234 456.774 74.162C454.596 73.64 453.534 71.75 453.534 69.158ZM455.334 69.158C455.334 70.832 456.09 72.542 457.638 72.542C457.962 72.542 458.322 72.47 458.7 72.308C459.51 71.966 460.23 71.282 460.518 70.4V68.096C460.05 67.124 458.988 66.08 457.782 66.08C457.35 66.08 456.9 66.224 456.45 66.53C455.64 67.052 455.334 67.97 455.334 69.158ZM466.794 69.068C466.794 66.386 468.324 64.262 471.024 64.208H471.132C473.868 64.208 475.29 66.188 475.29 68.852C475.29 69.338 474.876 69.752 474.39 69.752H468.63C468.792 71.372 469.602 72.488 471.312 72.488C471.51 72.488 471.708 72.488 471.924 72.452C472.302 72.362 472.59 72.254 472.824 72.02C472.986 71.858 473.202 71.768 473.436 71.768C473.94 71.768 474.354 72.164 474.354 72.668C474.354 73.856 472.842 74.27 471.438 74.27C470.79 74.27 470.178 74.18 469.728 74.036C467.802 73.388 466.794 71.534 466.794 69.068ZM468.72 67.952H473.346C473.094 66.728 472.626 66.008 471.06 66.008C469.782 66.008 469.026 66.836 468.72 67.952ZM481.188 73.334V65.252C481.188 64.766 481.602 64.37 482.088 64.37C482.592 64.37 482.988 64.748 482.988 65.252C483.654 64.658 484.518 64.298 485.598 64.298C487.182 64.298 488.226 65.432 488.244 66.8C488.244 67.286 487.83 67.7 487.344 67.7C486.858 67.7 486.444 67.304 486.444 66.8C486.426 66.476 486.21 66.224 485.886 66.152C485.796 66.152 485.688 66.098 485.598 66.098C485.472 66.098 485.346 66.152 485.22 66.152C483.78 66.35 482.988 67.952 482.988 69.302V73.334C482.988 73.838 482.574 74.234 482.088 74.234C481.602 74.234 481.188 73.82 481.188 73.334ZM492.557 71.948C492.557 71.696 492.647 71.48 492.809 71.3L499.019 67.16L492.809 63.02C492.647 62.84 492.557 62.624 492.557 62.372C492.557 61.868 492.971 61.472 493.457 61.472C493.637 61.472 493.799 61.526 493.961 61.634L501.305 66.512C501.485 66.674 501.557 66.926 501.557 67.16C501.557 67.394 501.503 67.682 501.305 67.808L493.961 72.686C493.799 72.794 493.637 72.848 493.457 72.848C492.971 72.848 492.557 72.452 492.557 71.948Z" fill="black"/>
<rect width="261" height="188" transform="translate(255 102)" fill="#6495ED" fill-opacity="0.75"/>
<path d="M348.745 127.808C348.583 127.646 348.511 127.394 348.511 127.16C348.511 126.926 348.583 126.674 348.745 126.512L356.107 121.634C356.251 121.526 356.431 121.472 356.611 121.472C357.097 121.472 357.511 121.886 357.511 122.372C357.511 122.624 357.421 122.84 357.241 123.02L351.031 127.16L357.241 131.3C357.421 131.48 357.511 131.696 357.511 131.948C357.511 132.434 357.097 132.848 356.611 132.848C356.431 132.848 356.251 132.794 356.107 132.686L348.745 127.808ZM361.518 133.334V125.252C361.518 124.748 361.932 124.352 362.418 124.352C362.724 124.352 362.994 124.514 363.156 124.766C363.552 124.478 364.02 124.298 364.578 124.298C365.316 124.298 365.946 124.64 366.36 125.144C366.828 124.64 367.458 124.298 368.178 124.298C369.546 124.298 370.518 125.468 370.518 126.728V133.334C370.518 133.82 370.104 134.234 369.618 134.234C369.132 134.234 368.718 133.838 368.718 133.334V126.872C368.7 126.548 368.574 126.098 368.178 126.098C367.404 126.098 366.918 127.61 366.918 128.33V133.334C366.918 133.82 366.504 134.234 366.018 134.234C365.532 134.234 365.118 133.838 365.118 133.334V126.872C365.1 126.548 364.974 126.098 364.578 126.098C363.786 126.098 363.372 127.628 363.318 128.33V133.334C363.318 133.82 362.904 134.234 362.418 134.234C361.932 134.234 361.518 133.838 361.518 133.334ZM374.778 131.228C374.778 128.132 377.928 127.916 381.06 127.898C381.006 127.358 380.916 126.8 380.52 126.44C380.124 126.062 379.566 126.008 379.026 126.008C378.306 126.008 377.622 126.242 377.064 126.692C376.902 126.818 376.704 126.872 376.506 126.872C376.002 126.872 375.606 126.476 375.606 125.972C375.606 125.72 375.732 125.378 375.948 125.27C376.83 124.586 377.91 124.208 379.026 124.208C380.016 124.208 381.024 124.442 381.744 125.108C382.464 125.792 382.86 126.764 382.86 127.754V133.334C382.86 133.82 382.446 134.234 381.96 134.234C381.474 134.234 381.06 133.838 381.06 133.334V133.19C380.286 133.82 379.332 134.288 378.18 134.288H377.928C376.416 134.162 374.778 133.028 374.778 131.228ZM376.578 131.228C376.578 132.002 377.442 132.452 378.054 132.488H378.198C379.548 132.488 380.484 131.336 381.06 130.4V129.68C380.664 129.662 380.25 129.644 379.818 129.644C378.198 129.644 376.578 129.878 376.578 131.228ZM388.758 125.468C388.758 124.982 389.154 124.568 389.658 124.568H392.898C393.402 124.568 393.798 124.964 393.798 125.468V133.334C393.798 133.838 393.384 134.234 392.898 134.234C392.412 134.234 391.998 133.82 391.998 133.334V126.368H389.658C389.172 126.368 388.758 125.954 388.758 125.468ZM391.242 121.814V120.986C391.242 120.482 391.656 120.086 392.142 120.086H392.952C393.438 120.086 393.852 120.482 393.852 120.986V121.814C393.852 122.318 393.438 122.714 392.952 122.714H392.142C391.656 122.714 391.242 122.318 391.242 121.814ZM400.794 133.334V125.252C400.794 124.766 401.208 124.37 401.694 124.37C402.18 124.37 402.594 124.766 402.594 125.252V125.414C403.35 124.748 404.322 124.298 405.546 124.298C408.246 124.298 409.29 126.17 409.29 128.852V133.334C409.29 133.82 408.858 134.234 408.39 134.234C407.904 134.234 407.49 133.838 407.49 133.334V128.852C407.49 127.232 407.184 126.098 405.546 126.098C404.016 126.098 403.044 127.376 402.594 128.528V133.334C402.594 133.82 402.18 134.234 401.694 134.234C401.208 134.234 400.794 133.82 400.794 133.334ZM413.55 131.948C413.55 131.696 413.64 131.48 413.802 131.3L420.012 127.16L413.802 123.02C413.64 122.84 413.55 122.624 413.55 122.372C413.55 121.868 413.964 121.472 414.45 121.472C414.63 121.472 414.792 121.526 414.954 121.634L422.298 126.512C422.478 126.674 422.55 126.926 422.55 127.16C422.55 127.394 422.496 127.682 422.298 127.808L414.954 132.686C414.792 132.794 414.63 132.848 414.45 132.848C413.964 132.848 413.55 132.452 413.55 131.948Z" fill="black"/>
<rect width="124" height="188" transform="translate(524 102)" fill="#98FB98" fill-opacity="0.75"/>
<path d="M542.741 127.808C542.579 127.646 542.507 127.394 542.507 127.16C542.507 126.926 542.579 126.674 542.741 126.512L550.103 121.634C550.247 121.526 550.427 121.472 550.607 121.472C551.093 121.472 551.507 121.886 551.507 122.372C551.507 122.624 551.417 122.84 551.237 123.02L545.027 127.16L551.237 131.3C551.417 131.48 551.507 131.696 551.507 131.948C551.507 132.434 551.093 132.848 550.607 132.848C550.427 132.848 550.247 132.794 550.103 132.686L542.741 127.808ZM555.766 131.228C555.766 128.132 558.916 127.916 562.048 127.898C561.994 127.358 561.904 126.8 561.508 126.44C561.112 126.062 560.554 126.008 560.014 126.008C559.294 126.008 558.61 126.242 558.052 126.692C557.89 126.818 557.692 126.872 557.494 126.872C556.99 126.872 556.594 126.476 556.594 125.972C556.594 125.72 556.72 125.378 556.936 125.27C557.818 124.586 558.898 124.208 560.014 124.208C561.004 124.208 562.012 124.442 562.732 125.108C563.452 125.792 563.848 126.764 563.848 127.754V133.334C563.848 133.82 563.434 134.234 562.948 134.234C562.462 134.234 562.048 133.838 562.048 133.334V133.19C561.274 133.82 560.32 134.288 559.168 134.288H558.916C557.404 134.162 555.766 133.028 555.766 131.228ZM557.566 131.228C557.566 132.002 558.43 132.452 559.042 132.488H559.186C560.536 132.488 561.472 131.336 562.048 130.4V129.68C561.652 129.662 561.238 129.644 560.806 129.644C559.186 129.644 557.566 129.878 557.566 131.228ZM569.242 132.254C569.242 131.75 569.656 131.354 570.142 131.354C570.79 131.354 570.952 132.02 571.384 132.254C571.834 132.47 572.41 132.488 573.022 132.488C573.94 132.434 575.11 132.308 575.11 131.318C575.11 130.652 574.354 130.472 573.814 130.328C571.834 129.806 569.35 129.5 569.35 126.998C569.35 124.982 571.096 124.208 573.022 124.208H573.58C574.894 124.28 576.19 124.928 576.514 126.152C576.532 126.242 576.55 126.314 576.55 126.386C576.55 126.872 576.136 127.286 575.65 127.286C575.218 127.286 574.858 126.998 574.768 126.62C574.642 126.116 574.03 126.044 573.49 126.008H573.022C572.194 126.008 571.15 126.08 571.15 126.998C571.15 127.682 571.708 127.916 572.248 128.06C574.246 128.582 576.91 128.816 576.91 131.318C576.91 133.442 575.092 134.234 573.022 134.288H572.842C571.168 134.288 570.016 133.802 569.35 132.722C569.26 132.578 569.242 132.416 569.242 132.254ZM582.754 125.468C582.754 124.982 583.15 124.568 583.654 124.568H586.894C587.398 124.568 587.794 124.964 587.794 125.468V133.334C587.794 133.838 587.38 134.234 586.894 134.234C586.408 134.234 585.994 133.82 585.994 133.334V126.368H583.654C583.168 126.368 582.754 125.954 582.754 125.468ZM585.238 121.814V120.986C585.238 120.482 585.652 120.086 586.138 120.086H586.948C587.434 120.086 587.848 120.482 587.848 120.986V121.814C587.848 122.318 587.434 122.714 586.948 122.714H586.138C585.652 122.714 585.238 122.318 585.238 121.814ZM594.538 129.158C594.538 126.692 595.744 124.982 597.778 124.442C598.12 124.334 598.48 124.298 598.804 124.298C599.884 124.298 600.856 124.766 601.522 125.27V120.986C601.522 120.5 601.936 120.086 602.422 120.086C602.908 120.086 603.322 120.482 603.322 120.986V133.352C603.322 133.856 602.908 134.234 602.422 134.234C601.954 134.234 601.54 133.838 601.522 133.352C600.784 133.91 599.866 134.27 598.804 134.27C598.48 134.27 598.12 134.234 597.778 134.162C595.6 133.64 594.538 131.75 594.538 129.158ZM596.338 129.158C596.338 130.832 597.094 132.542 598.642 132.542C598.966 132.542 599.326 132.47 599.704 132.308C600.514 131.966 601.234 131.282 601.522 130.4V128.096C601.054 127.124 599.992 126.08 598.786 126.08C598.354 126.08 597.904 126.224 597.454 126.53C596.644 127.052 596.338 127.97 596.338 129.158ZM607.798 129.068C607.798 126.386 609.328 124.262 612.028 124.208H612.136C614.872 124.208 616.294 126.188 616.294 128.852C616.294 129.338 615.88 129.752 615.394 129.752H609.634C609.796 131.372 610.606 132.488 612.316 132.488C612.514 132.488 612.712 132.488 612.928 132.452C613.306 132.362 613.594 132.254 613.828 132.02C613.99 131.858 614.206 131.768 614.44 131.768C614.944 131.768 615.358 132.164 615.358 132.668C615.358 133.856 613.846 134.27 612.442 134.27C611.794 134.27 611.182 134.18 610.732 134.036C608.806 133.388 607.798 131.534 607.798 129.068ZM609.724 127.952H614.35C614.098 126.728 613.63 126.008 612.064 126.008C610.786 126.008 610.03 126.836 609.724 127.952ZM620.554 131.948C620.554 131.696 620.644 131.48 620.806 131.3L627.016 127.16L620.806 123.02C620.644 122.84 620.554 122.624 620.554 122.372C620.554 121.868 620.968 121.472 621.454 121.472C621.634 121.472 621.796 121.526 621.958 121.634L629.302 126.512C629.482 126.674 629.554 126.926 629.554 127.16C629.554 127.394 629.5 127.682 629.302 127.808L621.958 132.686C621.796 132.794 621.634 132.848 621.454 132.848C620.968 132.848 620.554 132.452 620.554 131.948Z" fill="black"/>
<rect width="393" height="52" transform="translate(255 298)" fill="#FF6347" fill-opacity="0.75"/>
<path d="M395.233 323.808C395.071 323.646 394.999 323.394 394.999 323.16C394.999 322.926 395.071 322.674 395.233 322.512L402.595 317.634C402.739 317.526 402.919 317.472 403.099 317.472C403.585 317.472 403.999 317.886 403.999 318.372C403.999 318.624 403.909 318.84 403.729 319.02L397.519 323.16L403.729 327.3C403.909 327.48 403.999 327.696 403.999 327.948C403.999 328.434 403.585 328.848 403.099 328.848C402.919 328.848 402.739 328.794 402.595 328.686L395.233 323.808ZM408.727 328.254C408.727 327.75 409.141 327.354 409.627 327.354C410.275 327.354 410.437 328.02 410.869 328.254C411.319 328.47 411.895 328.488 412.507 328.488C413.425 328.434 414.595 328.308 414.595 327.318C414.595 326.652 413.839 326.472 413.299 326.328C411.319 325.806 408.835 325.5 408.835 322.998C408.835 320.982 410.581 320.208 412.507 320.208H413.065C414.379 320.28 415.675 320.928 415.999 322.152C416.017 322.242 416.035 322.314 416.035 322.386C416.035 322.872 415.621 323.286 415.135 323.286C414.703 323.286 414.343 322.998 414.253 322.62C414.127 322.116 413.515 322.044 412.975 322.008H412.507C411.679 322.008 410.635 322.08 410.635 322.998C410.635 323.682 411.193 323.916 411.733 324.06C413.731 324.582 416.395 324.816 416.395 327.318C416.395 329.442 414.577 330.234 412.507 330.288H412.327C410.653 330.288 409.501 329.802 408.835 328.722C408.745 328.578 408.727 328.416 408.727 328.254ZM421.266 325.068C421.266 322.386 422.796 320.262 425.496 320.208H425.604C428.34 320.208 429.762 322.188 429.762 324.852C429.762 325.338 429.348 325.752 428.862 325.752H423.102C423.264 327.372 424.074 328.488 425.784 328.488C425.982 328.488 426.18 328.488 426.396 328.452C426.774 328.362 427.062 328.254 427.296 328.02C427.458 327.858 427.674 327.768 427.908 327.768C428.412 327.768 428.826 328.164 428.826 328.668C428.826 329.856 427.314 330.27 425.91 330.27C425.262 330.27 424.65 330.18 424.2 330.036C422.274 329.388 421.266 327.534 421.266 325.068ZM423.192 323.952H427.818C427.566 322.728 427.098 322.008 425.532 322.008C424.254 322.008 423.498 322.836 423.192 323.952ZM434.994 325.068C434.994 322.35 436.146 320.316 438.846 320.316C439.098 320.316 439.368 320.334 439.656 320.37C440.808 320.496 441.798 321.18 442.068 322.278V322.494C442.068 322.998 441.69 323.394 441.186 323.394C440.754 323.394 440.412 323.088 440.322 322.692C440.16 322.278 439.584 322.116 439.008 322.116C438.594 322.116 438.18 322.206 437.874 322.332C437.046 322.728 436.794 323.88 436.794 325.068C436.794 326.76 437.118 328.524 438.756 328.524C438.936 328.524 439.152 328.506 439.368 328.452C439.854 328.344 440.304 328.038 440.412 327.534C440.538 327.174 440.844 326.832 441.294 326.832C441.78 326.832 442.176 327.246 442.176 327.732V327.948C441.834 329.316 440.448 330.324 438.864 330.324C438.27 330.324 437.658 330.18 437.064 329.874C435.57 329.028 434.994 327.354 434.994 325.068ZM447.282 321.414C447.282 320.928 447.696 320.514 448.182 320.514H449.568L449.604 318.696C449.604 318.174 450 317.796 450.504 317.796C451.008 317.796 451.404 318.21 451.404 318.696L451.368 320.514H454.05C454.536 320.514 454.95 320.928 454.95 321.414C454.95 321.9 454.536 322.314 454.05 322.314H451.332L451.278 326.418C451.278 327.624 451.278 328.434 452.52 328.434C452.916 328.416 453.312 328.326 453.654 328.164C453.78 328.11 453.906 328.074 454.05 328.074C454.536 328.074 454.95 328.488 454.95 328.974C454.95 329.892 453.744 330.234 452.628 330.234C452.088 330.234 451.548 330.144 451.206 330.018C449.892 329.514 449.478 328.308 449.478 326.598V326.382L449.532 322.314H448.182C447.696 322.314 447.282 321.9 447.282 321.414ZM461.262 321.468C461.262 320.982 461.658 320.568 462.162 320.568H465.402C465.906 320.568 466.302 320.964 466.302 321.468V329.334C466.302 329.838 465.888 330.234 465.402 330.234C464.916 330.234 464.502 329.82 464.502 329.334V322.368H462.162C461.676 322.368 461.262 321.954 461.262 321.468ZM463.746 317.814V316.986C463.746 316.482 464.16 316.086 464.646 316.086H465.456C465.942 316.086 466.356 316.482 466.356 316.986V317.814C466.356 318.318 465.942 318.714 465.456 318.714H464.646C464.16 318.714 463.746 318.318 463.746 317.814ZM473.046 325.266C473.046 322.422 474.612 320.208 477.546 320.208C480.39 320.208 482.046 322.422 482.046 325.266C482.046 328.074 480.426 330.288 477.546 330.288C474.648 330.288 473.046 328.11 473.046 325.266ZM474.846 325.266C474.846 327.048 475.692 328.488 477.546 328.488C479.4 328.488 480.246 327.048 480.246 325.266C480.246 323.466 479.364 322.008 477.546 322.008C475.71 322.008 474.846 323.484 474.846 325.266ZM486.306 329.334V321.252C486.306 320.766 486.72 320.37 487.206 320.37C487.692 320.37 488.106 320.766 488.106 321.252V321.414C488.862 320.748 489.834 320.298 491.058 320.298C493.758 320.298 494.802 322.17 494.802 324.852V329.334C494.802 329.82 494.37 330.234 493.902 330.234C493.416 330.234 493.002 329.838 493.002 329.334V324.852C493.002 323.232 492.696 322.098 491.058 322.098C489.528 322.098 488.556 323.376 488.106 324.528V329.334C488.106 329.82 487.692 330.234 487.206 330.234C486.72 330.234 486.306 329.82 486.306 329.334ZM499.061 327.948C499.061 327.696 499.151 327.48 499.313 327.3L505.523 323.16L499.313 319.02C499.151 318.84 499.061 318.624 499.061 318.372C499.061 317.868 499.475 317.472 499.961 317.472C500.141 317.472 500.303 317.526 500.465 317.634L507.809 322.512C507.989 322.674 508.061 322.926 508.061 323.16C508.061 323.394 508.007 323.682 507.809 323.808L500.465 328.686C500.303 328.794 500.141 328.848 499.961 328.848C499.475 328.848 499.061 328.452 499.061 327.948Z" fill="black"/>
<rect width="393" height="52" transform="translate(255 358)" fill="#FF6347" fill-opacity="0.75"/>
<path d="M395.233 383.808C395.071 383.646 394.999 383.394 394.999 383.16C394.999 382.926 395.071 382.674 395.233 382.512L402.595 377.634C402.739 377.526 402.919 377.472 403.099 377.472C403.585 377.472 403.999 377.886 403.999 378.372C403.999 378.624 403.909 378.84 403.729 379.02L397.519 383.16L403.729 387.3C403.909 387.48 403.999 387.696 403.999 387.948C403.999 388.434 403.585 388.848 403.099 388.848C402.919 388.848 402.739 388.794 402.595 388.686L395.233 383.808ZM408.727 388.254C408.727 387.75 409.141 387.354 409.627 387.354C410.275 387.354 410.437 388.02 410.869 388.254C411.319 388.47 411.895 388.488 412.507 388.488C413.425 388.434 414.595 388.308 414.595 387.318C414.595 386.652 413.839 386.472 413.299 386.328C411.319 385.806 408.835 385.5 408.835 382.998C408.835 380.982 410.581 380.208 412.507 380.208H413.065C414.379 380.28 415.675 380.928 415.999 382.152C416.017 382.242 416.035 382.314 416.035 382.386C416.035 382.872 415.621 383.286 415.135 383.286C414.703 383.286 414.343 382.998 414.253 382.62C414.127 382.116 413.515 382.044 412.975 382.008H412.507C411.679 382.008 410.635 382.08 410.635 382.998C410.635 383.682 411.193 383.916 411.733 384.06C413.731 384.582 416.395 384.816 416.395 387.318C416.395 389.442 414.577 390.234 412.507 390.288H412.327C410.653 390.288 409.501 389.802 408.835 388.722C408.745 388.578 408.727 388.416 408.727 388.254ZM421.266 385.068C421.266 382.386 422.796 380.262 425.496 380.208H425.604C428.34 380.208 429.762 382.188 429.762 384.852C429.762 385.338 429.348 385.752 428.862 385.752H423.102C423.264 387.372 424.074 388.488 425.784 388.488C425.982 388.488 426.18 388.488 426.396 388.452C426.774 388.362 427.062 388.254 427.296 388.02C427.458 387.858 427.674 387.768 427.908 387.768C428.412 387.768 428.826 388.164 428.826 388.668C428.826 389.856 427.314 390.27 425.91 390.27C425.262 390.27 424.65 390.18 424.2 390.036C422.274 389.388 421.266 387.534 421.266 385.068ZM423.192 383.952H427.818C427.566 382.728 427.098 382.008 425.532 382.008C424.254 382.008 423.498 382.836 423.192 383.952ZM434.994 385.068C434.994 382.35 436.146 380.316 438.846 380.316C439.098 380.316 439.368 380.334 439.656 380.37C440.808 380.496 441.798 381.18 442.068 382.278V382.494C442.068 382.998 441.69 383.394 441.186 383.394C440.754 383.394 440.412 383.088 440.322 382.692C440.16 382.278 439.584 382.116 439.008 382.116C438.594 382.116 438.18 382.206 437.874 382.332C437.046 382.728 436.794 383.88 436.794 385.068C436.794 386.76 437.118 388.524 438.756 388.524C438.936 388.524 439.152 388.506 439.368 388.452C439.854 388.344 440.304 388.038 440.412 387.534C440.538 387.174 440.844 386.832 441.294 386.832C441.78 386.832 442.176 387.246 442.176 387.732V387.948C441.834 389.316 440.448 390.324 438.864 390.324C438.27 390.324 437.658 390.18 437.064 389.874C435.57 389.028 434.994 387.354 434.994 385.068ZM447.282 381.414C447.282 380.928 447.696 380.514 448.182 380.514H449.568L449.604 378.696C449.604 378.174 450 377.796 450.504 377.796C451.008 377.796 451.404 378.21 451.404 378.696L451.368 380.514H454.05C454.536 380.514 454.95 380.928 454.95 381.414C454.95 381.9 454.536 382.314 454.05 382.314H451.332L451.278 386.418C451.278 387.624 451.278 388.434 452.52 388.434C452.916 388.416 453.312 388.326 453.654 388.164C453.78 388.11 453.906 388.074 454.05 388.074C454.536 388.074 454.95 388.488 454.95 388.974C454.95 389.892 453.744 390.234 452.628 390.234C452.088 390.234 451.548 390.144 451.206 390.018C449.892 389.514 449.478 388.308 449.478 386.598V386.382L449.532 382.314H448.182C447.696 382.314 447.282 381.9 447.282 381.414ZM461.262 381.468C461.262 380.982 461.658 380.568 462.162 380.568H465.402C465.906 380.568 466.302 380.964 466.302 381.468V389.334C466.302 389.838 465.888 390.234 465.402 390.234C464.916 390.234 464.502 389.82 464.502 389.334V382.368H462.162C461.676 382.368 461.262 381.954 461.262 381.468ZM463.746 377.814V376.986C463.746 376.482 464.16 376.086 464.646 376.086H465.456C465.942 376.086 466.356 376.482 466.356 376.986V377.814C466.356 378.318 465.942 378.714 465.456 378.714H464.646C464.16 378.714 463.746 378.318 463.746 377.814ZM473.046 385.266C473.046 382.422 474.612 380.208 477.546 380.208C480.39 380.208 482.046 382.422 482.046 385.266C482.046 388.074 480.426 390.288 477.546 390.288C474.648 390.288 473.046 388.11 473.046 385.266ZM474.846 385.266C474.846 387.048 475.692 388.488 477.546 388.488C479.4 388.488 480.246 387.048 480.246 385.266C480.246 383.466 479.364 382.008 477.546 382.008C475.71 382.008 474.846 383.484 474.846 385.266ZM486.306 389.334V381.252C486.306 380.766 486.72 380.37 487.206 380.37C487.692 380.37 488.106 380.766 488.106 381.252V381.414C488.862 380.748 489.834 380.298 491.058 380.298C493.758 380.298 494.802 382.17 494.802 384.852V389.334C494.802 389.82 494.37 390.234 493.902 390.234C493.416 390.234 493.002 389.838 493.002 389.334V384.852C493.002 383.232 492.696 382.098 491.058 382.098C489.528 382.098 488.556 383.376 488.106 384.528V389.334C488.106 389.82 487.692 390.234 487.206 390.234C486.72 390.234 486.306 389.82 486.306 389.334ZM499.061 387.948C499.061 387.696 499.151 387.48 499.313 387.3L505.523 383.16L499.313 379.02C499.151 378.84 499.061 378.624 499.061 378.372C499.061 377.868 499.475 377.472 499.961 377.472C500.141 377.472 500.303 377.526 500.465 377.634L507.809 382.512C507.989 382.674 508.061 382.926 508.061 383.16C508.061 383.394 508.007 383.682 507.809 383.808L500.465 388.686C500.303 388.794 500.141 388.848 499.961 388.848C499.475 388.848 499.061 388.452 499.061 387.948Z" fill="black"/>
<rect width="393" height="52" transform="translate(255 418)" fill="#FF6347" fill-opacity="0.75"/>
<path d="M395.233 443.808C395.071 443.646 394.999 443.394 394.999 443.16C394.999 442.926 395.071 442.674 395.233 442.512L402.595 437.634C402.739 437.526 402.919 437.472 403.099 437.472C403.585 437.472 403.999 437.886 403.999 438.372C403.999 438.624 403.909 438.84 403.729 439.02L397.519 443.16L403.729 447.3C403.909 447.48 403.999 447.696 403.999 447.948C403.999 448.434 403.585 448.848 403.099 448.848C402.919 448.848 402.739 448.794 402.595 448.686L395.233 443.808ZM408.727 448.254C408.727 447.75 409.141 447.354 409.627 447.354C410.275 447.354 410.437 448.02 410.869 448.254C411.319 448.47 411.895 448.488 412.507 448.488C413.425 448.434 414.595 448.308 414.595 447.318C414.595 446.652 413.839 446.472 413.299 446.328C411.319 445.806 408.835 445.5 408.835 442.998C408.835 440.982 410.581 440.208 412.507 440.208H413.065C414.379 440.28 415.675 440.928 415.999 442.152C416.017 442.242 416.035 442.314 416.035 442.386C416.035 442.872 415.621 443.286 415.135 443.286C414.703 443.286 414.343 442.998 414.253 442.62C414.127 442.116 413.515 442.044 412.975 442.008H412.507C411.679 442.008 410.635 442.08 410.635 442.998C410.635 443.682 411.193 443.916 411.733 444.06C413.731 444.582 416.395 444.816 416.395 447.318C416.395 449.442 414.577 450.234 412.507 450.288H412.327C410.653 450.288 409.501 449.802 408.835 448.722C408.745 448.578 408.727 448.416 408.727 448.254ZM421.266 445.068C421.266 442.386 422.796 440.262 425.496 440.208H425.604C428.34 440.208 429.762 442.188 429.762 444.852C429.762 445.338 429.348 445.752 428.862 445.752H423.102C423.264 447.372 424.074 448.488 425.784 448.488C425.982 448.488 426.18 448.488 426.396 448.452C426.774 448.362 427.062 448.254 427.296 448.02C427.458 447.858 427.674 447.768 427.908 447.768C428.412 447.768 428.826 448.164 428.826 448.668C428.826 449.856 427.314 450.27 425.91 450.27C425.262 450.27 424.65 450.18 424.2 450.036C422.274 449.388 421.266 447.534 421.266 445.068ZM423.192 443.952H427.818C427.566 442.728 427.098 442.008 425.532 442.008C424.254 442.008 423.498 442.836 423.192 443.952ZM434.994 445.068C434.994 442.35 436.146 440.316 438.846 440.316C439.098 440.316 439.368 440.334 439.656 440.37C440.808 440.496 441.798 441.18 442.068 442.278V442.494C442.068 442.998 441.69 443.394 441.186 443.394C440.754 443.394 440.412 443.088 440.322 442.692C440.16 442.278 439.584 442.116 439.008 442.116C438.594 442.116 438.18 442.206 437.874 442.332C437.046 442.728 436.794 443.88 436.794 445.068C436.794 446.76 437.118 448.524 438.756 448.524C438.936 448.524 439.152 448.506 439.368 448.452C439.854 448.344 440.304 448.038 440.412 447.534C440.538 447.174 440.844 446.832 441.294 446.832C441.78 446.832 442.176 447.246 442.176 447.732V447.948C441.834 449.316 440.448 450.324 438.864 450.324C438.27 450.324 437.658 450.18 437.064 449.874C435.57 449.028 434.994 447.354 434.994 445.068ZM447.282 441.414C447.282 440.928 447.696 440.514 448.182 440.514H449.568L449.604 438.696C449.604 438.174 450 437.796 450.504 437.796C451.008 437.796 451.404 438.21 451.404 438.696L451.368 440.514H454.05C454.536 440.514 454.95 440.928 454.95 441.414C454.95 441.9 454.536 442.314 454.05 442.314H451.332L451.278 446.418C451.278 447.624 451.278 448.434 452.52 448.434C452.916 448.416 453.312 448.326 453.654 448.164C453.78 448.11 453.906 448.074 454.05 448.074C454.536 448.074 454.95 448.488 454.95 448.974C454.95 449.892 453.744 450.234 452.628 450.234C452.088 450.234 451.548 450.144 451.206 450.018C449.892 449.514 449.478 448.308 449.478 446.598V446.382L449.532 442.314H448.182C447.696 442.314 447.282 441.9 447.282 441.414ZM461.262 441.468C461.262 440.982 461.658 440.568 462.162 440.568H465.402C465.906 440.568 466.302 440.964 466.302 441.468V449.334C466.302 449.838 465.888 450.234 465.402 450.234C464.916 450.234 464.502 449.82 464.502 449.334V442.368H462.162C461.676 442.368 461.262 441.954 461.262 441.468ZM463.746 437.814V436.986C463.746 436.482 464.16 436.086 464.646 436.086H465.456C465.942 436.086 466.356 436.482 466.356 436.986V437.814C466.356 438.318 465.942 438.714 465.456 438.714H464.646C464.16 438.714 463.746 438.318 463.746 437.814ZM473.046 445.266C473.046 442.422 474.612 440.208 477.546 440.208C480.39 440.208 482.046 442.422 482.046 445.266C482.046 448.074 480.426 450.288 477.546 450.288C474.648 450.288 473.046 448.11 473.046 445.266ZM474.846 445.266C474.846 447.048 475.692 448.488 477.546 448.488C479.4 448.488 480.246 447.048 480.246 445.266C480.246 443.466 479.364 442.008 477.546 442.008C475.71 442.008 474.846 443.484 474.846 445.266ZM486.306 449.334V441.252C486.306 440.766 486.72 440.37 487.206 440.37C487.692 440.37 488.106 440.766 488.106 441.252V441.414C488.862 440.748 489.834 440.298 491.058 440.298C493.758 440.298 494.802 442.17 494.802 444.852V449.334C494.802 449.82 494.37 450.234 493.902 450.234C493.416 450.234 493.002 449.838 493.002 449.334V444.852C493.002 443.232 492.696 442.098 491.058 442.098C489.528 442.098 488.556 443.376 488.106 444.528V449.334C488.106 449.82 487.692 450.234 487.206 450.234C486.72 450.234 486.306 449.82 486.306 449.334ZM499.061 447.948C499.061 447.696 499.151 447.48 499.313 447.3L505.523 443.16L499.313 439.02C499.151 438.84 499.061 438.624 499.061 438.372C499.061 437.868 499.475 437.472 499.961 437.472C500.141 437.472 500.303 437.526 500.465 437.634L507.809 442.512C507.989 442.674 508.061 442.926 508.061 443.16C508.061 443.394 508.007 443.682 507.809 443.808L500.465 448.686C500.303 448.794 500.141 448.848 499.961 448.848C499.475 448.848 499.061 448.452 499.061 447.948Z" fill="black"/>
<rect width="393" height="52" transform="translate(255 478)" fill="#FFD700" fill-opacity="0.75"/>
<path d="M401.737 503.808C401.575 503.646 401.503 503.394 401.503 503.16C401.503 502.926 401.575 502.674 401.737 502.512L409.099 497.634C409.243 497.526 409.423 497.472 409.603 497.472C410.089 497.472 410.503 497.886 410.503 498.372C410.503 498.624 410.413 498.84 410.233 499.02L404.023 503.16L410.233 507.3C410.413 507.48 410.503 507.696 410.503 507.948C410.503 508.434 410.089 508.848 409.603 508.848C409.423 508.848 409.243 508.794 409.099 508.686L401.737 503.808ZM415.123 501.306C415.123 500.82 415.537 500.406 416.023 500.406H418.003V500.226C418.003 497.544 419.281 496.14 421.945 496.14C422.431 496.14 422.845 496.554 422.845 497.04C422.845 497.526 422.431 497.94 421.945 497.94C420.991 497.94 420.091 498.264 419.875 499.038C419.803 499.272 419.803 499.83 419.803 500.226V500.406H421.999C422.467 500.406 422.899 500.82 422.899 501.306C422.899 501.792 422.485 502.206 421.999 502.206H419.803L419.911 509.334C419.911 509.82 419.497 510.234 419.011 510.234C418.525 510.234 418.111 509.838 418.111 509.334L418.003 502.206H416.023C415.519 502.206 415.123 501.792 415.123 501.306ZM427.518 505.266C427.518 502.422 429.084 500.208 432.018 500.208C434.862 500.208 436.518 502.422 436.518 505.266C436.518 508.074 434.898 510.288 432.018 510.288C429.12 510.288 427.518 508.11 427.518 505.266ZM429.318 505.266C429.318 507.048 430.164 508.488 432.018 508.488C433.872 508.488 434.718 507.048 434.718 505.266C434.718 503.466 433.836 502.008 432.018 502.008C430.182 502.008 429.318 503.484 429.318 505.266ZM440.526 505.266C440.526 502.422 442.092 500.208 445.026 500.208C447.87 500.208 449.526 502.422 449.526 505.266C449.526 508.074 447.906 510.288 445.026 510.288C442.128 510.288 440.526 508.11 440.526 505.266ZM442.326 505.266C442.326 507.048 443.172 508.488 445.026 508.488C446.88 508.488 447.726 507.048 447.726 505.266C447.726 503.466 446.844 502.008 445.026 502.008C443.19 502.008 442.326 503.484 442.326 505.266ZM453.786 501.414C453.786 500.928 454.2 500.514 454.686 500.514H456.072L456.108 498.696C456.108 498.174 456.504 497.796 457.008 497.796C457.512 497.796 457.908 498.21 457.908 498.696L457.872 500.514H460.554C461.04 500.514 461.454 500.928 461.454 501.414C461.454 501.9 461.04 502.314 460.554 502.314H457.836L457.782 506.418C457.782 507.624 457.782 508.434 459.024 508.434C459.42 508.416 459.816 508.326 460.158 508.164C460.284 508.11 460.41 508.074 460.554 508.074C461.04 508.074 461.454 508.488 461.454 508.974C461.454 509.892 460.248 510.234 459.132 510.234C458.592 510.234 458.052 510.144 457.71 510.018C456.396 509.514 455.982 508.308 455.982 506.598V506.382L456.036 502.314H454.686C454.2 502.314 453.786 501.9 453.786 501.414ZM466.794 505.068C466.794 502.386 468.324 500.262 471.024 500.208H471.132C473.868 500.208 475.29 502.188 475.29 504.852C475.29 505.338 474.876 505.752 474.39 505.752H468.63C468.792 507.372 469.602 508.488 471.312 508.488C471.51 508.488 471.708 508.488 471.924 508.452C472.302 508.362 472.59 508.254 472.824 508.02C472.986 507.858 473.202 507.768 473.436 507.768C473.94 507.768 474.354 508.164 474.354 508.668C474.354 509.856 472.842 510.27 471.438 510.27C470.79 510.27 470.178 510.18 469.728 510.036C467.802 509.388 466.794 507.534 466.794 505.068ZM468.72 503.952H473.346C473.094 502.728 472.626 502.008 471.06 502.008C469.782 502.008 469.026 502.836 468.72 503.952ZM481.188 509.334V501.252C481.188 500.766 481.602 500.37 482.088 500.37C482.592 500.37 482.988 500.748 482.988 501.252C483.654 500.658 484.518 500.298 485.598 500.298C487.182 500.298 488.226 501.432 488.244 502.8C488.244 503.286 487.83 503.7 487.344 503.7C486.858 503.7 486.444 503.304 486.444 502.8C486.426 502.476 486.21 502.224 485.886 502.152C485.796 502.152 485.688 502.098 485.598 502.098C485.472 502.098 485.346 502.152 485.22 502.152C483.78 502.35 482.988 503.952 482.988 505.302V509.334C482.988 509.838 482.574 510.234 482.088 510.234C481.602 510.234 481.188 509.82 481.188 509.334ZM492.557 507.948C492.557 507.696 492.647 507.48 492.809 507.3L499.019 503.16L492.809 499.02C492.647 498.84 492.557 498.624 492.557 498.372C492.557 497.868 492.971 497.472 493.457 497.472C493.637 497.472 493.799 497.526 493.961 497.634L501.305 502.512C501.485 502.674 501.557 502.926 501.557 503.16C501.557 503.394 501.503 503.682 501.305 503.808L493.961 508.686C493.799 508.794 493.637 508.848 493.457 508.848C492.971 508.848 492.557 508.452 492.557 507.948Z" fill="black"/>
</svg>
