<svg fill="none" height="693" viewBox="0 0 558 693" width="558" xmlns="http://www.w3.org/2000/svg"><path d="m4.972 11.684h2.684c.396 0 .77733-.0293 1.144-.088s.68933-.1687.968-.33c.2787-.176.4987-.418.66-.726.176-.308.264-.71133.264-1.21s-.088-.902-.264-1.21c-.1613-.308-.3813-.54267-.66-.704-.27867-.176-.60133-.29333-.968-.352s-.748-.088-1.144-.088h-2.684zm-3.454-7.392h7.084c.98267 0 1.8187.14667 2.508.44.6893.27867 1.2467.65267 1.672 1.122.44.46933.7553 1.00467.946 1.606.2053.60133.308 1.22467.308 1.87 0 .63067-.1027 1.254-.308 1.87-.1907.6013-.506 1.1367-.946 1.606-.4253.4693-.9827.8507-1.672 1.144-.6893.2787-1.52533.418-2.508.418h-3.63v5.632h-3.454zm14.1238 0h3.124v5.918h.066c.396-.66.902-1.13667 1.518-1.43.616-.308 1.2174-.462 1.804-.462.836 0 1.518.11733 2.046.352.5427.22.968.53533 1.276.946.308.396.5207.8873.638 1.474.132.572.198 1.21.198 1.914v6.996h-3.124v-6.424c0-.9387-.1466-1.6353-.44-2.09-.2933-.4693-.814-.704-1.562-.704-.8506 0-1.4666.2567-1.848.77-.3813.4987-.572 1.3273-.572 2.486v5.962h-3.124zm15.593 10.032c0 .4547.044.902.132 1.342.088.4253.2347.814.44 1.166.22.3373.506.6087.858.814s.792.308 1.32.308.968-.1027 1.32-.308c.3667-.2053.6527-.4767.858-.814.22-.352.374-.7407.462-1.166.088-.44.132-.8873.132-1.342s-.044-.902-.132-1.342-.242-.8287-.462-1.166c-.2053-.3373-.4913-.6087-.858-.814-.352-.22-.792-.33-1.32-.33s-.968.11-1.32.33c-.352.2053-.638.4767-.858.814-.2053.3373-.352.726-.44 1.166s-.132.8873-.132 1.342zm-3.124 0c0-.9093.1394-1.7307.418-2.464.2787-.748.6747-1.3787 1.188-1.892.5134-.528 1.1294-.93133 1.848-1.21.7187-.29333 1.5254-.44 2.42-.44.8947 0 1.7014.14667 2.42.44.7334.27867 1.3567.682 1.87 1.21.5134.5133.9094 1.144 1.188 1.892.2787.7333.418 1.5547.418 2.464s-.1393 1.7307-.418 2.464c-.2786.7333-.6746 1.364-1.188 1.892-.5133.5133-1.1366.9093-1.87 1.188-.7186.2787-1.5253.418-2.42.418-.8946 0-1.7013-.1393-2.42-.418-.7186-.2787-1.3346-.6747-1.848-1.188-.5133-.528-.9093-1.1587-1.188-1.892-.2786-.7333-.418-1.5547-.418-2.464zm13.5813-5.698h2.97v1.584h.066c.396-.66.9093-1.13667 1.54-1.43.6306-.308 1.276-.462 1.936-.462.836 0 1.518.11733 2.046.352.5426.22.968.53533 1.276.946.308.396.5206.8873.638 1.474.132.572.198 1.21.198 1.914v6.996h-3.124v-6.424c0-.9387-.1467-1.6353-.44-2.09-.2934-.4693-.814-.704-1.562-.704-.8507 0-1.4667.2567-1.848.77-.3814.4987-.572 1.3273-.572 2.486v5.962h-3.124zm20.477 4.466c-.1467-.792-.4107-1.3933-.792-1.804-.3667-.4107-.9314-.616-1.694-.616-.4987 0-.9167.088-1.254.264-.3227.1613-.5867.3667-.792.616-.1907.2493-.33.5133-.418.792-.0734.2787-.1174.528-.132.748zm-5.082 1.98c.044 1.012.3006 1.7453.77 2.2.4693.4547 1.144.682 2.024.682.6306 0 1.1733-.154 1.628-.462.4546-.3227.7333-.66.836-1.012h2.75c-.44 1.364-1.1147 2.3393-2.024 2.926-.9094.5867-2.0094.88-3.3.88-.8947 0-1.7014-.1393-2.42-.418-.7187-.2933-1.3274-.704-1.826-1.232-.4987-.528-.8874-1.1587-1.166-1.892-.264-.7333-.396-1.54-.396-2.42 0-.8507.1393-1.6427.418-2.376.2786-.7333.6746-1.364 1.188-1.892.5133-.54267 1.122-.968 1.826-1.276.7186-.308 1.5106-.462 2.376-.462.968 0 1.8113.19067 2.53.572.7186.36667 1.3053.86533 1.76 1.496.4693.6307.8066 1.3493 1.012 2.156.2053.8067.2786 1.65.22 2.53zm20.4498-11.154h2.508l-6.138 16.434h-2.486zm9.4691.374h4.862l3.674 10.802h.044l3.476-10.802h4.862v15.708h-3.234v-11.132h-.044l-3.85 11.132h-2.662l-3.85-11.022h-.044v11.022h-3.234zm22.181 10.032c0 .4547.044.902.132 1.342.088.4253.235.814.44 1.166.22.3373.506.6087.858.814s.792.308 1.32.308.968-.1027 1.32-.308c.367-.2053.653-.4767.858-.814.22-.352.374-.7407.462-1.166.088-.44.132-.8873.132-1.342s-.044-.902-.132-1.342-.242-.8287-.462-1.166c-.205-.3373-.491-.6087-.858-.814-.352-.22-.792-.33-1.32-.33s-.968.11-1.32.33c-.352.2053-.638.4767-.858.814-.205.3373-.352.726-.44 1.166s-.132.8873-.132 1.342zm-3.124 0c0-.9093.139-1.7307.418-2.464.279-.748.675-1.3787 1.188-1.892.513-.528 1.129-.93133 1.848-1.21.719-.29333 1.525-.44 2.42-.44s1.701.14667 2.42.44c.733.27867 1.357.682 1.87 1.21.513.5133.909 1.144 1.188 1.892.279.7333.418 1.5547.418 2.464s-.139 1.7307-.418 2.464-.675 1.364-1.188 1.892c-.513.5133-1.137.9093-1.87 1.188-.719.2787-1.525.418-2.42.418s-1.701-.1393-2.42-.418-1.335-.6747-1.848-1.188c-.513-.528-.909-1.1587-1.188-1.892s-.418-1.5547-.418-2.464zm21.919 0c0-.484-.051-.946-.154-1.386-.102-.44-.264-.8287-.484-1.166s-.498-.6013-.836-.792c-.322-.2053-.718-.308-1.188-.308-.454 0-.85.1027-1.188.308-.337.1907-.616.4547-.836.792s-.381.726-.484 1.166c-.102.44-.154.902-.154 1.386 0 .4693.052.924.154 1.364.103.44.264.8287.484 1.166s.499.6087.836.814c.338.1907.734.286 1.188.286.47 0 .866-.0953 1.188-.286.338-.2053.616-.4767.836-.814s.382-.726.484-1.166c.103-.44.154-.8947.154-1.364zm-8.338-10.032h3.124v5.72h.044c.382-.58667.895-1.012 1.54-1.276.66-.27867 1.342-.418 2.046-.418.572 0 1.137.11733 1.694.352.558.23467 1.056.594 1.496 1.078.455.484.822 1.1073 1.1 1.87.279.748.418 1.6427.418 2.684s-.139 1.9433-.418 2.706c-.278.748-.645 1.364-1.1 1.848-.44.484-.938.8433-1.496 1.078-.557.2347-1.122.352-1.694.352-.836 0-1.584-.132-2.244-.396s-1.158-.7113-1.496-1.342h-.044v1.452h-2.97zm16.441 2.574h-3.124v-2.574h3.124zm-3.124 1.76h3.124v11.374h-3.124zm5.452-4.334h3.124v15.708h-3.124zm13.02 8.8c-.146-.792-.41-1.3933-.792-1.804-.366-.4107-.931-.616-1.694-.616-.498 0-.916.088-1.254.264-.322.1613-.586.3667-.792.616-.19.2493-.33.5133-.418.792-.073.2787-.117.528-.132.748zm-5.082 1.98c.044 1.012.301 1.7453.77 2.2.47.4547 1.144.682 2.024.682.631 0 1.174-.154 1.628-.462.455-.3227.734-.66.836-1.012h2.75c-.44 1.364-1.114 2.3393-2.024 2.926-.909.5867-2.009.88-3.3.88-.894 0-1.701-.1393-2.42-.418-.718-.2933-1.327-.704-1.826-1.232-.498-.528-.887-1.1587-1.166-1.892-.264-.7333-.396-1.54-.396-2.42 0-.8507.14-1.6427.418-2.376.279-.7333.675-1.364 1.188-1.892.514-.54267 1.122-.968 1.826-1.276.719-.308 1.511-.462 2.376-.462.968 0 1.812.19067 2.53.572.719.36667 1.306.86533 1.76 1.496.47.6307.807 1.3493 1.012 2.156.206.8067.279 1.65.22 2.53z" fill="#fff"/><path d="m0 44h172v44h-172z" fill="#79c0ff" fill-opacity=".5"/><path d="m50.835 62.9473-6.0469 3.3486v.1582l6.0469 3.3486v1.6787l-7.5586-4.456v-1.3008l7.5586-4.456zm3.4365 9.0527v-13.2803h1.4414v5.4317h.123c.501-1.1866 1.5996-1.8545 3.0586-1.8545 2.0743 0 3.1993 1.248 3.1993 3.5244v6.1787h-1.4942v-5.8008c0-1.7138-.7031-2.5312-2.1973-2.5312-1.5732 0-2.6367 1.0986-2.6367 2.7246v5.6074zm17.6133-2.4609h1.4502c-.2901 1.5732-1.8018 2.6367-3.8057 2.6367-2.6191 0-4.1397-1.5733-4.1397-4.2891v-1.4326c0-2.5137 1.6084-4.166 4.0342-4.166 2.4785 0 3.9375 1.6435 3.9375 4.4033v.9316h-6.4951v.3868c0 1.749 1.0371 2.874 2.6631 2.874 1.2041 0 2.0918-.5098 2.3555-1.3447zm-2.4698-5.9678c-1.5908 0-2.5488 1.0898-2.5488 2.918h5.0186c0-1.8194-.9317-2.918-2.4698-2.918zm10.0547 8.5957c-1.8193 0-3.0322-1.1426-3.0322-2.874 0-1.6875 1.2129-2.6895 3.3838-2.8037l2.6191-.1319v-.8613c0-1.1953-.7295-1.8545-2.0566-1.8545-1.0986 0-1.8721.4658-2.1182 1.2832h-1.4677c.1757-1.5293 1.6523-2.5752 3.6035-2.5752 2.2412 0 3.5244 1.1426 3.5244 3.1289v6.5303h-1.4238v-1.4326h-.1495c-.457 1.0195-1.4941 1.5908-2.8828 1.5908zm.4307-1.3096c1.4414 0 2.54-.958 2.54-2.2324v-1.125l-2.4521.1143c-1.336.0615-2.0391.6328-2.0391 1.6259 0 1.002.7471 1.6172 1.9512 1.6172zm11.0654 1.3008c-2.206 0-3.6474-1.5908-3.6474-4.043v-1.7754c0-2.4433 1.4414-4.0341 3.6474-4.0341 1.3799 0 2.3994.5888 2.8125 1.6347h.1582v-5.2207h1.5205v13.2803h-1.4677v-1.459h-.167c-.4922 1.0547-1.4942 1.6172-2.8565 1.6172zm.4395-1.3623c1.5644 0 2.5752-1.125 2.5752-2.8916v-1.3711c0-1.7578-1.0108-2.8828-2.5752-2.8828-1.5733 0-2.584 1.125-2.584 2.8828v1.3711c0 1.7578 1.0107 2.8916 2.584 2.8916zm13.8607-1.2568h1.45c-.29 1.5732-1.802 2.6367-3.806 2.6367-2.619 0-4.1395-1.5733-4.1395-4.2891v-1.4326c0-2.5137 1.6085-4.166 4.0345-4.166 2.478 0 3.937 1.6435 3.937 4.4033v.9316h-6.495v.3868c0 1.749 1.037 2.874 2.663 2.874 1.204 0 2.092-.5098 2.356-1.3447zm-2.47-5.9678c-1.591 0-2.549 1.0898-2.549 2.918h5.019c0-1.8194-.932-2.918-2.47-2.918zm10.643 4.1572v3.0762h2.954v1.1953h-6.337v-1.1953h1.924v-7.1455h-2.118v-1.1953h3.56v2.4345h.193c.352-1.7666 1.538-2.6806 3.375-2.6806.545 0 1.064.0791 1.38.2109v1.6787c-.439-.1582-1.055-.2636-1.573-.2636-2.109 0-3.358 1.4589-3.358 3.8847zm7.726-4.7812v-1.6787l7.559 4.456v1.3008l-7.559 4.456v-1.6787l6.038-3.3486v-.1582z" fill="#f0f6fb"/><path d="m0 96h172v196h-172z" fill="#7ee687" fill-opacity=".5"/><path d="m61.9619 114.947-6.0469 3.349v.158l6.0469 3.349v1.678l-7.5586-4.456v-1.3l7.5586-4.456zm11.9443 2.031v7.022h-1.3447v-6.583c0-1.16-.4219-1.767-1.2217-1.767-.8349 0-1.3447.73-1.3447 1.916v6.434h-1.3359v-6.592c0-1.151-.4219-1.758-1.2305-1.758-.8437 0-1.3711.73-1.3711 1.916v6.434h-1.3447v-9.536h1.3359v1.345h.1582c.2373-.958.9229-1.521 1.8194-1.521s1.5293.554 1.7314 1.494h.1582c.2461-.914 1.0108-1.494 1.9688-1.494 1.3271 0 2.0214.923 2.0214 2.69zm5.5635 7.189c-1.8193 0-3.0322-1.143-3.0322-2.874 0-1.688 1.2129-2.689 3.3838-2.804l2.6191-.132v-.861c0-1.195-.7295-1.854-2.0566-1.854-1.0986 0-1.8721.465-2.1182 1.283h-1.4677c.1757-1.529 1.6523-2.575 3.6035-2.575 2.2412 0 3.5244 1.142 3.5244 3.129v6.53h-1.4238v-1.433h-.1495c-.457 1.02-1.4941 1.591-2.8828 1.591zm.4307-1.31c1.4414 0 2.54-.958 2.54-2.232v-1.125l-2.4521.114c-1.336.062-2.0391.633-2.0391 1.626 0 1.002.7471 1.617 1.9512 1.617zm11.8301-10.731c-.7032 0-1.2393-.527-1.2393-1.23 0-.695.5361-1.222 1.2393-1.222.7031 0 1.2392.527 1.2392 1.222 0 .703-.5361 1.23-1.2392 1.23zm3.999 11.874h-7.9014v-1.239h3.2696v-7.058h-3.2432v-1.239h4.7197v8.297h3.1553zm3.0586 0v-9.536h1.4329v1.679h.123c.51-1.187 1.599-1.855 3.05-1.855 2.074 0 3.199 1.239 3.199 3.524v6.188h-1.494v-5.81c0-1.722-.703-2.531-2.189-2.531-1.573 0-2.628 1.099-2.628 2.725v5.616zm11.2499-9.053v-1.678l7.559 4.456v1.3l-7.559 4.456v-1.678l6.038-3.349v-.158z" fill="#f0f6fb"/><path d="m0 300h172v92h-172z" fill="#d2a8ff" fill-opacity=".5"/><path d="m56.3984 318.947-6.0468 3.349v.158l6.0468 3.349v1.678l-7.5586-4.456v-1.3l7.5586-4.456zm6.3809 9.22c-1.8193 0-3.0322-1.143-3.0322-2.874 0-1.688 1.2129-2.689 3.3838-2.804l2.6191-.132v-.861c0-1.195-.7295-1.854-2.0566-1.854-1.0987 0-1.8721.465-2.1182 1.283h-1.4678c.1758-1.529 1.6524-2.575 3.6035-2.575 2.2412 0 3.5245 1.142 3.5245 3.129v6.53h-1.4239v-1.433h-.1494c-.457 1.02-1.4941 1.591-2.8828 1.591zm.4307-1.31c1.4414 0 2.54-.958 2.54-2.232v-1.125l-2.4521.114c-1.336.062-2.0391.633-2.0391 1.626 0 1.002.7471 1.617 1.9512 1.617zm8.1914-5.818c0-1.652 1.4062-2.76 3.5068-2.76 1.9863 0 3.3311.993 3.5068 2.584h-1.4414c-.1757-.835-.9756-1.344-2.0918-1.344-1.2129 0-1.9951.562-1.9951 1.432 0 .73.4922 1.143 1.6875 1.406l1.3447.308c1.8545.422 2.6983 1.231 2.6983 2.61 0 1.758-1.4678 2.901-3.7266 2.901-2.1621 0-3.5947-1.011-3.7617-2.646h1.5205c.2197.879 1.0635 1.389 2.294 1.389 1.3007 0 2.1269-.589 2.1269-1.503 0-.756-.4658-1.16-1.6787-1.433l-1.415-.325c-1.7227-.395-2.5752-1.265-2.5752-2.619zm14.7656-4.913c-.7031 0-1.2393-.527-1.2393-1.23 0-.695.5362-1.222 1.2393-1.222s1.2392.527 1.2392 1.222c0 .703-.5361 1.23-1.2392 1.23zm3.999 11.874h-7.9014v-1.239h3.2696v-7.058h-3.2432v-1.239h4.7197v8.297h3.1553zm6.3633.158c-2.2061 0-3.6475-1.591-3.6475-4.043v-1.775c0-2.444 1.4414-4.034 3.6475-4.034 1.3799 0 2.3994.589 2.8125 1.634h.1582v-5.22h1.521v13.28h-1.4683v-1.459h-.167c-.4921 1.055-1.4941 1.617-2.8564 1.617zm.4395-1.362c1.5644 0 2.5751-1.125 2.5751-2.892v-1.371c0-1.758-1.0107-2.883-2.5751-2.883-1.5733 0-2.584 1.125-2.584 2.883v1.371c0 1.758 1.0107 2.892 2.584 2.892zm13.8602-1.257h1.45c-.29 1.573-1.801 2.637-3.805 2.637-2.62 0-4.14-1.573-4.14-4.289v-1.433c0-2.514 1.608-4.166 4.034-4.166 2.479 0 3.938 1.644 3.938 4.403v.932h-6.495v.387c0 1.749 1.037 2.874 2.663 2.874 1.204 0 2.091-.51 2.355-1.345zm-2.47-5.968c-1.59 0-2.548 1.09-2.548 2.918h5.018c0-1.819-.932-2.918-2.47-2.918zm7.243-.624v-1.678l7.558 4.456v1.3l-7.558 4.456v-1.678l6.038-3.349v-.158z" fill="#f0f6fb"/><path d="m0 400h172v60h-172z" fill="#ff7b72" fill-opacity=".5"/><path d="m45.2715 418.947-6.0469 3.349v.158l6.0469 3.349v1.678l-7.5586-4.456v-1.3l7.5586-4.456zm3.876 2.092c0-1.652 1.4062-2.76 3.5068-2.76 1.9863 0 3.3311.993 3.5068 2.584h-1.4414c-.1758-.835-.9756-1.344-2.0918-1.344-1.2129 0-1.9951.562-1.9951 1.432 0 .73.4922 1.143 1.6875 1.406l1.3447.308c1.8545.422 2.6983 1.231 2.6983 2.61 0 1.758-1.4678 2.901-3.7266 2.901-2.1621 0-3.5947-1.011-3.7617-2.646h1.5205c.2197.879 1.0635 1.389 2.294 1.389 1.3007 0 2.1269-.589 2.1269-1.503 0-.756-.4658-1.16-1.6787-1.433l-1.415-.325c-1.7227-.395-2.5752-1.265-2.5752-2.619zm17.1738 4.5h1.4502c-.2901 1.573-1.8018 2.637-3.8057 2.637-2.6191 0-4.1396-1.573-4.1396-4.289v-1.433c0-2.514 1.6084-4.166 4.0342-4.166 2.4785 0 3.9375 1.644 3.9375 4.403v.932h-6.4952v.387c0 1.749 1.0371 2.874 2.6631 2.874 1.2041 0 2.0918-.51 2.3555-1.345zm-2.4697-5.968c-1.5909 0-2.5489 1.09-2.5489 2.918h5.0186c0-1.819-.9317-2.918-2.4697-2.918zm14.9941 1.864h-1.4766c-.1845-1.117-1.1162-1.82-2.3466-1.82-1.6612 0-2.584 1.134-2.584 3.182v.861c0 2.048.9228 3.173 2.584 3.173 1.2304 0 2.1621-.694 2.3466-1.784h1.4766c-.2373 1.942-1.6875 3.129-3.7969 3.129-2.5927 0-4.1045-1.591-4.1045-4.324v-1.248c0-2.734 1.5118-4.325 4.1045-4.325 2.1094 0 3.5508 1.196 3.7969 3.156zm5.5283-5.529h1.4766v2.584h3.8672v1.275h-3.8496v5.379c0 1.037.7295 1.599 2.0742 1.599.5361 0 1.4941-.026 1.749-.053v1.266c-.2373.044-1.3975.088-1.8545.088-2.3642 0-3.4629-.897-3.4629-2.883v-5.396h-2.54v-1.275h2.54zm12.9199.22c-.7031 0-1.2392-.527-1.2392-1.23 0-.695.5361-1.222 1.2392-1.222.7032 0 1.2393.527 1.2393 1.222 0 .703-.5361 1.23-1.2393 1.23zm3.9991 11.874h-7.9014v-1.239h3.2695v-7.058h-3.2431v-1.239h4.7197v8.297h3.1553zm6.961.176c-2.523 0-4.131-1.644-4.131-4.219v-1.441c0-2.576 1.608-4.219 4.131-4.219 2.522 0 4.131 1.643 4.131 4.219v1.441c0 2.575-1.609 4.219-4.131 4.219zm0-8.561c-1.635 0-2.654 1.16-2.654 3.032v1.169c0 1.881 1.019 3.033 2.654 3.033s2.654-1.152 2.654-3.033v-1.169c0-1.872-1.019-3.032-2.654-3.032zm7.225 8.385v-9.536h1.432v1.679h.123c.51-1.187 1.6-1.855 3.05-1.855 2.074 0 3.199 1.239 3.199 3.524v6.188h-1.494v-5.81c0-1.722-.703-2.531-2.188-2.531-1.574 0-2.628 1.099-2.628 2.725v5.616zm11.25-9.053v-1.678l7.558 4.456v1.3l-7.558 4.456v-1.678l6.038-3.349v-.158z" fill="#f0f6fb"/><path d="m0 468h172v60h-172z" fill="#ff7b72" fill-opacity=".5"/><path d="m45.2715 486.947-6.0469 3.349v.158l6.0469 3.349v1.678l-7.5586-4.456v-1.3l7.5586-4.456zm3.876 2.092c0-1.652 1.4062-2.76 3.5068-2.76 1.9863 0 3.3311.993 3.5068 2.584h-1.4414c-.1758-.835-.9756-1.344-2.0918-1.344-1.2129 0-1.9951.562-1.9951 1.432 0 .73.4922 1.143 1.6875 1.406l1.3447.308c1.8545.422 2.6983 1.231 2.6983 2.61 0 1.758-1.4678 2.901-3.7266 2.901-2.1621 0-3.5947-1.011-3.7617-2.646h1.5205c.2197.879 1.0635 1.389 2.294 1.389 1.3007 0 2.1269-.589 2.1269-1.503 0-.756-.4658-1.16-1.6787-1.433l-1.415-.325c-1.7227-.395-2.5752-1.265-2.5752-2.619zm17.1738 4.5h1.4502c-.2901 1.573-1.8018 2.637-3.8057 2.637-2.6191 0-4.1396-1.573-4.1396-4.289v-1.433c0-2.514 1.6084-4.166 4.0342-4.166 2.4785 0 3.9375 1.644 3.9375 4.403v.932h-6.4952v.387c0 1.749 1.0371 2.874 2.6631 2.874 1.2041 0 2.0918-.51 2.3555-1.345zm-2.4697-5.968c-1.5909 0-2.5489 1.09-2.5489 2.918h5.0186c0-1.819-.9317-2.918-2.4697-2.918zm14.9941 1.864h-1.4766c-.1845-1.117-1.1162-1.82-2.3466-1.82-1.6612 0-2.584 1.134-2.584 3.182v.861c0 2.048.9228 3.173 2.584 3.173 1.2304 0 2.1621-.694 2.3466-1.784h1.4766c-.2373 1.942-1.6875 3.129-3.7969 3.129-2.5927 0-4.1045-1.591-4.1045-4.324v-1.248c0-2.734 1.5118-4.325 4.1045-4.325 2.1094 0 3.5508 1.196 3.7969 3.156zm5.5283-5.529h1.4766v2.584h3.8672v1.275h-3.8496v5.379c0 1.037.7295 1.599 2.0742 1.599.5361 0 1.4941-.026 1.749-.053v1.266c-.2373.044-1.3975.088-1.8545.088-2.3642 0-3.4629-.897-3.4629-2.883v-5.396h-2.54v-1.275h2.54zm12.9199.22c-.7031 0-1.2392-.527-1.2392-1.23 0-.695.5361-1.222 1.2392-1.222.7032 0 1.2393.527 1.2393 1.222 0 .703-.5361 1.23-1.2393 1.23zm3.9991 11.874h-7.9014v-1.239h3.2695v-7.058h-3.2431v-1.239h4.7197v8.297h3.1553zm6.961.176c-2.523 0-4.131-1.644-4.131-4.219v-1.441c0-2.576 1.608-4.219 4.131-4.219 2.522 0 4.131 1.643 4.131 4.219v1.441c0 2.575-1.609 4.219-4.131 4.219zm0-8.561c-1.635 0-2.654 1.16-2.654 3.032v1.169c0 1.881 1.019 3.033 2.654 3.033s2.654-1.152 2.654-3.033v-1.169c0-1.872-1.019-3.032-2.654-3.032zm7.225 8.385v-9.536h1.432v1.679h.123c.51-1.187 1.6-1.855 3.05-1.855 2.074 0 3.199 1.239 3.199 3.524v6.188h-1.494v-5.81c0-1.722-.703-2.531-2.188-2.531-1.574 0-2.628 1.099-2.628 2.725v5.616zm11.25-9.053v-1.678l7.558 4.456v1.3l-7.558 4.456v-1.678l6.038-3.349v-.158z" fill="#f0f6fb"/><path d="m0 536h172v60h-172z" fill="#ff7b72" fill-opacity=".5"/><path d="m45.2715 554.947-6.0469 3.349v.158l6.0469 3.349v1.678l-7.5586-4.456v-1.3l7.5586-4.456zm3.876 2.092c0-1.652 1.4062-2.76 3.5068-2.76 1.9863 0 3.3311.993 3.5068 2.584h-1.4414c-.1758-.835-.9756-1.344-2.0918-1.344-1.2129 0-1.9951.562-1.9951 1.432 0 .73.4922 1.143 1.6875 1.406l1.3447.308c1.8545.422 2.6983 1.231 2.6983 2.61 0 1.758-1.4678 2.901-3.7266 2.901-2.1621 0-3.5947-1.011-3.7617-2.646h1.5205c.2197.879 1.0635 1.389 2.294 1.389 1.3007 0 2.1269-.589 2.1269-1.503 0-.756-.4658-1.16-1.6787-1.433l-1.415-.325c-1.7227-.395-2.5752-1.265-2.5752-2.619zm17.1738 4.5h1.4502c-.2901 1.573-1.8018 2.637-3.8057 2.637-2.6191 0-4.1396-1.573-4.1396-4.289v-1.433c0-2.514 1.6084-4.166 4.0342-4.166 2.4785 0 3.9375 1.644 3.9375 4.403v.932h-6.4952v.387c0 1.749 1.0371 2.874 2.6631 2.874 1.2041 0 2.0918-.51 2.3555-1.345zm-2.4697-5.968c-1.5909 0-2.5489 1.09-2.5489 2.918h5.0186c0-1.819-.9317-2.918-2.4697-2.918zm14.9941 1.864h-1.4766c-.1845-1.117-1.1162-1.82-2.3466-1.82-1.6612 0-2.584 1.134-2.584 3.182v.861c0 2.048.9228 3.173 2.584 3.173 1.2304 0 2.1621-.694 2.3466-1.784h1.4766c-.2373 1.942-1.6875 3.129-3.7969 3.129-2.5927 0-4.1045-1.591-4.1045-4.324v-1.248c0-2.734 1.5118-4.325 4.1045-4.325 2.1094 0 3.5508 1.196 3.7969 3.156zm5.5283-5.529h1.4766v2.584h3.8672v1.275h-3.8496v5.379c0 1.037.7295 1.599 2.0742 1.599.5361 0 1.4941-.026 1.749-.053v1.266c-.2373.044-1.3975.088-1.8545.088-2.3642 0-3.4629-.897-3.4629-2.883v-5.396h-2.54v-1.275h2.54zm12.9199.22c-.7031 0-1.2392-.527-1.2392-1.23 0-.695.5361-1.222 1.2392-1.222.7032 0 1.2393.527 1.2393 1.222 0 .703-.5361 1.23-1.2393 1.23zm3.9991 11.874h-7.9014v-1.239h3.2695v-7.058h-3.2431v-1.239h4.7197v8.297h3.1553zm6.961.176c-2.523 0-4.131-1.644-4.131-4.219v-1.441c0-2.576 1.608-4.219 4.131-4.219 2.522 0 4.131 1.643 4.131 4.219v1.441c0 2.575-1.609 4.219-4.131 4.219zm0-8.561c-1.635 0-2.654 1.16-2.654 3.032v1.169c0 1.881 1.019 3.033 2.654 3.033s2.654-1.152 2.654-3.033v-1.169c0-1.872-1.019-3.032-2.654-3.032zm7.225 8.385v-9.536h1.432v1.679h.123c.51-1.187 1.6-1.855 3.05-1.855 2.074 0 3.199 1.239 3.199 3.524v6.188h-1.494v-5.81c0-1.722-.703-2.531-2.188-2.531-1.574 0-2.628 1.099-2.628 2.725v5.616zm11.25-9.053v-1.678l7.558 4.456v1.3l-7.558 4.456v-1.678l6.038-3.349v-.158z" fill="#f0f6fb"/><path d="m0 604h172v44h-172z" fill="#ffa657" fill-opacity=".5"/><path d="m50.835 622.947-6.0469 3.349v.158l6.0469 3.349v1.678l-7.5586-4.456v-1.3l7.5586-4.456zm5.9414 9.053v-8.235h-2.5576v-1.275h2.5576v-.958c0-1.845 1.1425-2.707 3.4892-2.707.5537 0 1.8809.044 2.1973.088v1.222c-.4131-.044-1.6436-.079-2.1797-.079-1.3271 0-2.0303.492-2.0303 1.45v.984h4.21v1.275h-4.1924v8.235zm12.5332.176c-2.5225 0-4.1309-1.644-4.1309-4.219v-1.441c0-2.576 1.6084-4.219 4.1309-4.219 2.5224 0 4.1308 1.643 4.1308 4.219v1.441c0 2.575-1.6084 4.219-4.1308 4.219zm0-8.561c-1.6348 0-2.6543 1.16-2.6543 3.032v1.169c0 1.881 1.0195 3.033 2.6543 3.033 1.6347 0 2.6543-1.152 2.6543-3.033v-1.169c0-1.872-1.0196-3.032-2.6543-3.032zm11.1269 8.561c-2.5224 0-4.1308-1.644-4.1308-4.219v-1.441c0-2.576 1.6084-4.219 4.1308-4.219 2.5225 0 4.1309 1.643 4.1309 4.219v1.441c0 2.575-1.6084 4.219-4.1309 4.219zm0-8.561c-1.6347 0-2.6543 1.16-2.6543 3.032v1.169c0 1.881 1.0196 3.033 2.6543 3.033 1.6348 0 2.6543-1.152 2.6543-3.033v-1.169c0-1.872-1.0195-3.032-2.6543-3.032zm9.501-3.709h1.4766v2.584h3.8671v1.275h-3.8496v5.379c0 1.037.7295 1.599 2.0743 1.599.5361 0 1.4941-.026 1.749-.053v1.266c-.2373.044-1.3975.088-1.8545.088-2.3643 0-3.4629-.897-3.4629-2.883v-5.396h-2.54v-1.275h2.54zm15.3285 9.633h1.45c-.29 1.573-1.802 2.637-3.806 2.637-2.619 0-4.1395-1.573-4.1395-4.289v-1.433c0-2.514 1.6085-4.166 4.0345-4.166 2.478 0 3.937 1.644 3.937 4.403v.932h-6.495v.387c0 1.749 1.037 2.874 2.663 2.874 1.204 0 2.092-.51 2.356-1.345zm-2.47-5.968c-1.591 0-2.549 1.09-2.549 2.918h5.019c0-1.819-.932-2.918-2.47-2.918zm10.643 4.158v3.076h2.954v1.195h-6.337v-1.195h1.924v-7.146h-2.118v-1.195h3.56v2.434h.193c.352-1.766 1.538-2.68 3.375-2.68.545 0 1.064.079 1.38.211v1.678c-.439-.158-1.055-.263-1.573-.263-2.109 0-3.358 1.459-3.358 3.885zm7.726-4.782v-1.678l7.559 4.456v1.3l-7.559 4.456v-1.678l6.038-3.349v-.158z" fill="#f0f6fb"/><path d="m31.9486 679.046h4.18c1.188 0 2.0386-.205 2.552-.616.528-.425.792-1.056.792-1.892 0-.557-.088-.997-.264-1.32s-.418-.572-.726-.748-.6674-.286-1.078-.33c-.396-.059-.8214-.088-1.276-.088h-4.18zm-2.09-6.754h5.698c.3373 0 .6966.007 1.078.022.396 0 .7846.022 1.166.066.3813.029.7333.081 1.056.154.3373.073.6233.183.858.33.5133.308.946.733 1.298 1.276.3666.543.55 1.21.55 2.002 0 .836-.2054 1.562-.616 2.178-.396.601-.968 1.049-1.716 1.342v.044c.968.205 1.7086.645 2.222 1.32.5133.675.77 1.496.77 2.464 0 .572-.1027 1.129-.308 1.672-.2054.543-.5134 1.027-.924 1.452-.396.411-.8947.748-1.496 1.012-.5867.249-1.2687.374-2.046.374h-7.59zm2.09 13.948h5.236c.924 0 1.6426-.249 2.156-.748.528-.499.792-1.188.792-2.068 0-.513-.0954-.939-.286-1.276-.1907-.337-.4474-.601-.77-.792-.308-.205-.6674-.345-1.078-.418-.4107-.088-.836-.132-1.276-.132h-4.774zm22.7385 1.716c-.3226.191-.77.286-1.342.286-.484 0-.8726-.132-1.166-.396-.2786-.279-.418-.726-.418-1.342-.5133.616-1.1146 1.063-1.804 1.342-.6746.264-1.408.396-2.2.396-.5133 0-1.0046-.059-1.474-.176-.4546-.117-.8506-.301-1.188-.55-.3373-.249-.6086-.572-.814-.968-.1906-.411-.286-.902-.286-1.474 0-.645.11-1.173.33-1.584s.506-.741.858-.99c.3667-.264.7774-.462 1.232-.594.4694-.132.946-.242 1.43-.33.5134-.103.9974-.176 1.452-.22.4694-.059.88-.132 1.232-.22.352-.103.6307-.242.836-.418.2054-.191.308-.462.308-.814 0-.411-.0806-.741-.242-.99-.1466-.249-.3446-.44-.594-.572-.2346-.132-.506-.22-.814-.264-.2933-.044-.5866-.066-.88-.066-.792 0-1.452.154-1.98.462-.528.293-.814.858-.858 1.694h-1.87c.0294-.704.176-1.298.44-1.782s.616-.873 1.056-1.166c.44-.308.9387-.528 1.496-.66.572-.132 1.1807-.198 1.826-.198.5134 0 1.0194.037 1.518.11.5134.073.9754.227 1.386.462.4107.22.7407.535.99.946.2494.411.374.946.374 1.606v5.852c0 .44.022.763.066.968.0587.205.2347.308.528.308.1614 0 .352-.037.572-.11zm-3.036-5.83c-.2346.176-.5426.308-.924.396-.3813.073-.7846.139-1.21.198-.4106.044-.8286.103-1.254.176-.4253.059-.8066.161-1.144.308-.3373.147-.616.359-.836.638-.2053.264-.308.631-.308 1.1 0 .308.0587.572.176.792.132.205.2934.374.484.506.2054.132.44.227.704.286s.5427.088.836.088c.616 0 1.144-.081 1.584-.242.44-.176.7994-.389 1.078-.638.2787-.264.484-.543.616-.836.132-.308.198-.594.198-.858zm5.9204 2.288c.0147.411.11.763.286 1.056.176.279.4034.506.682.682.2934.161.616.279.968.352.3667.073.7407.11 1.122.11.2934 0 .6014-.022.924-.066.3227-.044.616-.125.88-.242.2787-.117.506-.286.682-.506.176-.235.264-.528.264-.88 0-.484-.1833-.851-.55-1.1-.3666-.249-.8286-.447-1.386-.594-.5426-.161-1.1366-.301-1.782-.418-.6453-.132-1.2466-.308-1.804-.528-.5426-.235-.9973-.557-1.364-.968-.3666-.411-.55-.983-.55-1.716 0-.572.1247-1.063.374-1.474.264-.411.594-.741.99-.99.4107-.264.8654-.455 1.364-.572.5134-.132 1.0194-.198 1.518-.198.6454 0 1.2394.059 1.782.176.5427.103 1.0194.293 1.43.572.4254.264.7627.631 1.012 1.1.2494.455.396 1.027.44 1.716h-1.87c-.0293-.367-.1246-.667-.286-.902-.1613-.249-.3666-.447-.616-.594-.2493-.147-.528-.249-.836-.308-.2933-.073-.594-.11-.902-.11-.2786 0-.5646.022-.858.066-.2786.044-.5353.125-.77.242-.2346.103-.4253.249-.572.44-.1466.176-.22.411-.22.704 0 .323.11.594.33.814.2347.205.528.381.88.528.352.132.748.249 1.188.352.44.088.88.183 1.32.286.4694.103.924.227 1.364.374.4547.147.8507.345 1.188.594.352.235.6307.535.836.902.22.367.33.821.33 1.364 0 .689-.1466 1.261-.44 1.716-.2786.455-.6526.821-1.122 1.1-.4546.279-.9753.469-1.562.572-.572.117-1.144.176-1.716.176-.6306 0-1.232-.066-1.804-.198s-1.078-.345-1.518-.638c-.44-.308-.792-.704-1.056-1.188-.264-.499-.4106-1.1-.44-1.804zm17.754-3.19c-.0293-.44-.132-.858-.308-1.254-.1613-.396-.3886-.733-.682-1.012-.2786-.293-.616-.521-1.012-.682-.3813-.176-.8066-.264-1.276-.264-.484 0-.924.088-1.32.264-.3813.161-.7113.389-.99.682-.2786.293-.4986.638-.66 1.034-.1613.381-.2566.792-.286 1.232zm1.804 3.168c-.2493 1.276-.7993 2.237-1.65 2.882-.8506.645-1.9213.968-3.212.968-.9093 0-1.7013-.147-2.376-.44-.66-.293-1.2173-.704-1.672-1.232-.4546-.528-.7993-1.159-1.034-1.892-.22-.733-.3446-1.533-.374-2.398 0-.865.132-1.657.396-2.376s.6307-1.342 1.1-1.87c.484-.528 1.0487-.939 1.694-1.232.66-.293 1.3787-.44 2.156-.44 1.012 0 1.848.213 2.508.638.6747.411 1.21.939 1.606 1.584.4107.645.6894 1.349.836 2.112.1614.763.2274 1.489.198 2.178h-8.514c-.0146.499.044.975.176 1.43.132.44.3447.836.638 1.188.2934.337.6674.609 1.122.814.4547.205.99.308 1.606.308.792 0 1.4374-.183 1.936-.55.5134-.367.8507-.924 1.012-1.672zm17.6315-7.502c-.1173-1.129-.528-1.943-1.232-2.442-.6893-.513-1.5767-.77-2.662-.77-.44 0-.8727.044-1.298.132s-.8067.235-1.144.44c-.3227.205-.5867.484-.792.836-.1907.337-.286.763-.286 1.276 0 .484.1393.88.418 1.188.2933.293.6747.535 1.144.726.484.191 1.0267.352 1.628.484.6013.117 1.21.249 1.826.396.6307.147 1.2467.323 1.848.528.6013.191 1.1367.455 1.606.792.484.337.8653.763 1.144 1.276.2933.513.44 1.159.44 1.936 0 .836-.1907 1.555-.572 2.156-.3667.587-.8433 1.071-1.43 1.452-.5867.367-1.2467.631-1.98.792-.7187.176-1.4373.264-2.156.264-.88 0-1.716-.11-2.508-.33-.7773-.22-1.4667-.55-2.068-.99-.5867-.455-1.056-1.027-1.408-1.716-.3373-.704-.506-1.533-.506-2.486h1.98c0 .66.1247 1.232.374 1.716.264.469.6013.858 1.012 1.166.4253.308.9167.535 1.474.682s1.1293.22 1.716.22c.4693 0 .9387-.044 1.408-.132.484-.088.9167-.235 1.298-.44.3813-.22.6893-.513.924-.88s.352-.836.352-1.408c0-.543-.1467-.983-.44-1.32-.2787-.337-.66-.609-1.144-.814-.4693-.22-1.0047-.396-1.606-.528s-1.2173-.264-1.848-.396c-.616-.147-1.2247-.308-1.826-.484-.6013-.191-1.144-.433-1.628-.726-.4693-.308-.8507-.697-1.144-1.166-.2787-.484-.418-1.085-.418-1.804 0-.792.1613-1.474.484-2.046.3227-.587.748-1.063 1.276-1.43.5427-.381 1.1513-.66 1.826-.836.6893-.191 1.3933-.286 2.112-.286.8067 0 1.5547.095 2.244.286s1.2907.491 1.804.902c.528.411.9387.931 1.232 1.562.308.616.4767 1.357.506 2.222zm7.468-.264h2.266v1.65h-2.266v7.062c0 .22.014.396.044.528.044.132.117.235.22.308.102.073.242.125.418.154.19.015.432.022.726.022h.858v1.65h-1.43c-.484 0-.902-.029-1.254-.088-.338-.073-.616-.198-.836-.374-.206-.176-.36-.425-.462-.748-.103-.323-.154-.748-.154-1.276v-7.238h-1.9364v-1.65h1.9364v-3.41h1.87zm8.809 12.892c-.22.557-.44 1.027-.66 1.408-.205.381-.44.689-.704.924-.249.249-.535.425-.858.528-.308.117-.667.176-1.078.176-.22 0-.44-.015-.66-.044s-.433-.081-.638-.154v-1.716c.161.073.345.132.55.176.22.059.403.088.55.088.381 0 .697-.095.946-.286.264-.176.462-.433.594-.77l.77-1.914-4.51-11.308h2.112l3.322 9.306h.044l3.19-9.306h1.98zm6.644-17.226h1.87v15.708h-1.87zm12.665 8.932c-.029-.44-.132-.858-.308-1.254-.161-.396-.389-.733-.682-1.012-.279-.293-.616-.521-1.012-.682-.381-.176-.807-.264-1.276-.264-.484 0-.924.088-1.32.264-.381.161-.711.389-.99.682s-.499.638-.66 1.034c-.161.381-.257.792-.286 1.232zm1.804 3.168c-.249 1.276-.799 2.237-1.65 2.882s-1.921.968-3.212.968c-.909 0-1.701-.147-2.376-.44-.66-.293-1.217-.704-1.672-1.232s-.799-1.159-1.034-1.892c-.22-.733-.345-1.533-.374-2.398 0-.865.132-1.657.396-2.376s.631-1.342 1.1-1.87c.484-.528 1.049-.939 1.694-1.232.66-.293 1.379-.44 2.156-.44 1.012 0 1.848.213 2.508.638.675.411 1.21.939 1.606 1.584.411.645.689 1.349.836 2.112.161.763.227 1.489.198 2.178h-8.514c-.015.499.044.975.176 1.43.132.44.345.836.638 1.188.293.337.667.609 1.122.814s.99.308 1.606.308c.792 0 1.437-.183 1.936-.55.513-.367.851-.924 1.012-1.672zm3.258.022c.015.411.11.763.286 1.056.176.279.404.506.682.682.294.161.616.279.968.352.367.073.741.11 1.122.11.294 0 .602-.022.924-.066.323-.044.616-.125.88-.242.279-.117.506-.286.682-.506.176-.235.264-.528.264-.88 0-.484-.183-.851-.55-1.1-.366-.249-.828-.447-1.386-.594-.542-.161-1.136-.301-1.782-.418-.645-.132-1.246-.308-1.804-.528-.542-.235-.997-.557-1.364-.968-.366-.411-.55-.983-.55-1.716 0-.572.125-1.063.374-1.474.264-.411.594-.741.99-.99.411-.264.866-.455 1.364-.572.514-.132 1.02-.198 1.518-.198.646 0 1.24.059 1.782.176.543.103 1.02.293 1.43.572.426.264.763.631 1.012 1.1.25.455.396 1.027.44 1.716h-1.87c-.029-.367-.124-.667-.286-.902-.161-.249-.366-.447-.616-.594-.249-.147-.528-.249-.836-.308-.293-.073-.594-.11-.902-.11-.278 0-.564.022-.858.066-.278.044-.535.125-.77.242-.234.103-.425.249-.572.44-.146.176-.22.411-.22.704 0 .323.11.594.33.814.235.205.528.381.88.528.352.132.748.249 1.188.352.44.088.88.183 1.32.286.47.103.924.227 1.364.374.455.147.851.345 1.188.594.352.235.631.535.836.902.22.367.33.821.33 1.364 0 .689-.146 1.261-.44 1.716-.278.455-.652.821-1.122 1.1-.454.279-.975.469-1.562.572-.572.117-1.144.176-1.716.176-.63 0-1.232-.066-1.804-.198s-1.078-.345-1.518-.638c-.44-.308-.792-.704-1.056-1.188-.264-.499-.41-1.1-.44-1.804z" fill="#fff" fill-opacity=".333333"/><path d="m254.994 7.196h-4.708v-2.904h12.87v2.904h-4.708v12.804h-3.454zm6.842 4.928c.044-.7333.227-1.342.55-1.826s.733-.87267 1.232-1.166 1.056-.49867 1.672-.616c.631-.132 1.261-.198 1.892-.198.572 0 1.151.044 1.738.132.587.07333 1.122.22733 1.606.462s.88.56467 1.188.99c.308.4107.462.9607.462 1.65v5.918c0 .5133.029 1.0047.088 1.474s.161.8213.308 1.056h-3.168c-.059-.176-.11-.352-.154-.528-.029-.1907-.051-.3813-.066-.572-.499.5133-1.085.8727-1.76 1.078s-1.364.308-2.068.308c-.543 0-1.049-.066-1.518-.198s-.88-.3373-1.232-.616-.631-.6307-.836-1.056c-.191-.4253-.286-.9313-.286-1.518 0-.6453.11-1.1733.33-1.584.235-.4253.528-.7627.88-1.012.367-.2493.777-.4327 1.232-.55.469-.132.939-.2347 1.408-.308s.931-.132 1.386-.176.858-.11 1.21-.198.631-.2127.836-.374c.205-.176.301-.4253.286-.748 0-.3373-.059-.6013-.176-.792-.103-.2053-.249-.3593-.44-.462-.176-.1173-.389-.1907-.638-.22-.235-.044-.491-.066-.77-.066-.616 0-1.1.132-1.452.396s-.557.704-.616 1.32zm7.216 2.31c-.132.1173-.301.2127-.506.286-.191.0587-.403.11-.638.154-.22.044-.455.0807-.704.11s-.499.066-.748.11c-.235.044-.469.1027-.704.176-.22.0733-.418.176-.594.308-.161.1173-.293.2713-.396.462s-.154.4327-.154.726c0 .2787.051.5133.154.704s.242.3447.418.462c.176.1027.381.176.616.22s.477.066.726.066c.616 0 1.093-.1027 1.43-.308s.587-.4473.748-.726c.161-.2933.257-.5867.286-.88.044-.2933.066-.528.066-.704zm13.667-.11c0-.484-.052-.946-.154-1.386-.103-.44-.264-.8287-.484-1.166s-.499-.6013-.836-.792c-.323-.2053-.719-.308-1.188-.308-.455 0-.851.1027-1.188.308-.338.1907-.616.4547-.836.792s-.382.726-.484 1.166c-.103.44-.154.902-.154 1.386 0 .4693.051.924.154 1.364.102.44.264.8287.484 1.166s.498.6087.836.814c.337.1907.733.286 1.188.286.469 0 .865-.0953 1.188-.286.337-.2053.616-.4767.836-.814s.381-.726.484-1.166c.102-.44.154-.8947.154-1.364zm-8.338-10.032h3.124v5.72h.044c.381-.58667.894-1.012 1.54-1.276.66-.27867 1.342-.418 2.046-.418.572 0 1.136.11733 1.694.352.557.23467 1.056.594 1.496 1.078.454.484.821 1.1073 1.1 1.87.278.748.418 1.6427.418 2.684s-.14 1.9433-.418 2.706c-.279.748-.646 1.364-1.1 1.848-.44.484-.939.8433-1.496 1.078-.558.2347-1.122.352-1.694.352-.836 0-1.584-.132-2.244-.396s-1.159-.7113-1.496-1.342h-.044v1.452h-2.97zm13.317 0h3.124v15.708h-3.124zm13.02 8.8c-.147-.792-.411-1.3933-.792-1.804-.367-.4107-.931-.616-1.694-.616-.499 0-.917.088-1.254.264-.323.1613-.587.3667-.792.616-.191.2493-.33.5133-.418.792-.073.2787-.117.528-.132.748zm-5.082 1.98c.044 1.012.301 1.7453.77 2.2s1.144.682 2.024.682c.631 0 1.173-.154 1.628-.462.455-.3227.733-.66.836-1.012h2.75c-.44 1.364-1.115 2.3393-2.024 2.926s-2.009.88-3.3.88c-.895 0-1.701-.1393-2.42-.418-.719-.2933-1.327-.704-1.826-1.232s-.887-1.1587-1.166-1.892c-.264-.7333-.396-1.54-.396-2.42 0-.8507.139-1.6427.418-2.376s.675-1.364 1.188-1.892c.513-.54267 1.122-.968 1.826-1.276.719-.308 1.511-.462 2.376-.462.968 0 1.811.19067 2.53.572.719.36667 1.305.86533 1.76 1.496.469.6307.807 1.3493 1.012 2.156s.279 1.65.22 2.53zm13.799-6.446h2.288v2.09h-2.288v5.632c0 .528.088.88.264 1.056s.528.264 1.056.264c.176 0 .344-.0073.506-.022.161-.0147.315-.0367.462-.066v2.42c-.264.044-.558.0733-.88.088-.323.0147-.638.022-.946.022-.484 0-.946-.0367-1.386-.11-.426-.0587-.807-.1833-1.144-.374-.323-.1907-.58-.462-.77-.814-.191-.352-.286-.814-.286-1.386v-6.71h-1.892v-2.09h1.892v-3.41h3.124z" fill="#fff"/><path d="m250 44h308v44h-308z" fill="#79c0ff" fill-opacity=".5"/><path d="m368.835 62.9473-6.047 3.3486v.1582l6.047 3.3486v1.6787l-7.559-4.456v-1.3008l7.559-4.456zm3.436 9.0527v-13.2803h1.442v5.4317h.123c.501-1.1866 1.6-1.8545 3.059-1.8545 2.074 0 3.199 1.248 3.199 3.5244v6.1787h-1.494v-5.8008c0-1.7138-.704-2.5312-2.198-2.5312-1.573 0-2.636 1.0986-2.636 2.7246v5.6074zm17.614-2.4609h1.45c-.29 1.5732-1.802 2.6367-3.806 2.6367-2.619 0-4.139-1.5733-4.139-4.2891v-1.4326c0-2.5137 1.608-4.166 4.034-4.166 2.478 0 3.937 1.6435 3.937 4.4033v.9316h-6.495v.3868c0 1.749 1.037 2.874 2.663 2.874 1.204 0 2.092-.5098 2.356-1.3447zm-2.47-5.9678c-1.591 0-2.549 1.0898-2.549 2.918h5.019c0-1.8194-.932-2.918-2.47-2.918zm10.055 8.5957c-1.82 0-3.032-1.1426-3.032-2.874 0-1.6875 1.212-2.6895 3.383-2.8037l2.619-.1319v-.8613c0-1.1953-.729-1.8545-2.056-1.8545-1.099 0-1.872.4658-2.118 1.2832h-1.468c.176-1.5293 1.652-2.5752 3.603-2.5752 2.242 0 3.525 1.1426 3.525 3.1289v6.5303h-1.424v-1.4326h-.149c-.457 1.0195-1.495 1.5908-2.883 1.5908zm.43-1.3096c1.442 0 2.54-.958 2.54-2.2324v-1.125l-2.452.1143c-1.336.0615-2.039.6328-2.039 1.6259 0 1.002.747 1.6172 1.951 1.6172zm11.066 1.3008c-2.206 0-3.648-1.5908-3.648-4.043v-1.7754c0-2.4433 1.442-4.0341 3.648-4.0341 1.38 0 2.399.5888 2.812 1.6347h.159v-5.2207h1.52v13.2803h-1.468v-1.459h-.167c-.492 1.0547-1.494 1.6172-2.856 1.6172zm.439-1.3623c1.565 0 2.575-1.125 2.575-2.8916v-1.3711c0-1.7578-1.01-2.8828-2.575-2.8828-1.573 0-2.584 1.125-2.584 2.8828v1.3711c0 1.7578 1.011 2.8916 2.584 2.8916zm13.861-1.2568h1.45c-.29 1.5732-1.802 2.6367-3.806 2.6367-2.619 0-4.139-1.5733-4.139-4.2891v-1.4326c0-2.5137 1.608-4.166 4.034-4.166 2.478 0 3.937 1.6435 3.937 4.4033v.9316h-6.495v.3868c0 1.749 1.037 2.874 2.663 2.874 1.204 0 2.092-.5098 2.356-1.3447zm-2.47-5.9678c-1.591 0-2.549 1.0898-2.549 2.918h5.019c0-1.8194-.932-2.918-2.47-2.918zm10.643 4.1572v3.0762h2.954v1.1953h-6.337v-1.1953h1.924v-7.1455h-2.118v-1.1953h3.56v2.4345h.193c.352-1.7666 1.538-2.6806 3.375-2.6806.545 0 1.064.0791 1.38.2109v1.6787c-.439-.1582-1.055-.2636-1.573-.2636-2.109 0-3.358 1.4589-3.358 3.8847zm7.726-4.7812v-1.6787l7.559 4.456v1.3008l-7.559 4.456v-1.6787l6.038-3.3486v-.1582z" fill="#f0f6fb"/><path d="m250 96h190v168h-190z" fill="#7ee687" fill-opacity=".5"/><path d="m320.962 114.947-6.047 3.349v.158l6.047 3.349v1.678l-7.559-4.456v-1.3l7.559-4.456zm11.944 2.031v7.022h-1.344v-6.583c0-1.16-.422-1.767-1.222-1.767-.835 0-1.345.73-1.345 1.916v6.434h-1.336v-6.592c0-1.151-.422-1.758-1.23-1.758-.844 0-1.371.73-1.371 1.916v6.434h-1.345v-9.536h1.336v1.345h.158c.237-.958.923-1.521 1.819-1.521.897 0 1.53.554 1.732 1.494h.158c.246-.914 1.011-1.494 1.969-1.494 1.327 0 2.021.923 2.021 2.69zm5.564 7.189c-1.82 0-3.032-1.143-3.032-2.874 0-1.688 1.212-2.689 3.383-2.804l2.619-.132v-.861c0-1.195-.729-1.854-2.056-1.854-1.099 0-1.872.465-2.118 1.283h-1.468c.176-1.529 1.652-2.575 3.603-2.575 2.242 0 3.525 1.142 3.525 3.129v6.53h-1.424v-1.433h-.149c-.457 1.02-1.495 1.591-2.883 1.591zm.43-1.31c1.442 0 2.54-.958 2.54-2.232v-1.125l-2.452.114c-1.336.062-2.039.633-2.039 1.626 0 1.002.747 1.617 1.951 1.617zm11.83-10.731c-.703 0-1.239-.527-1.239-1.23 0-.695.536-1.222 1.239-1.222.704 0 1.24.527 1.24 1.222 0 .703-.536 1.23-1.24 1.23zm3.999 11.874h-7.901v-1.239h3.27v-7.058h-3.244v-1.239h4.72v8.297h3.155zm3.059 0v-9.536h1.433v1.679h.123c.51-1.187 1.599-1.855 3.05-1.855 2.074 0 3.199 1.239 3.199 3.524v6.188h-1.494v-5.81c0-1.722-.703-2.531-2.189-2.531-1.573 0-2.628 1.099-2.628 2.725v5.616zm11.25-9.053v-1.678l7.559 4.456v1.3l-7.559 4.456v-1.678l6.038-3.349v-.158z" fill="#f0f6fb"/><path d="m448 96h110v168h-110z" fill="#d2a8ff" fill-opacity=".5"/><path d="m473.398 114.947-6.046 3.349v.158l6.046 3.349v1.678l-7.558-4.456v-1.3l7.558-4.456zm6.381 9.22c-1.819 0-3.032-1.143-3.032-2.874 0-1.688 1.213-2.689 3.384-2.804l2.619-.132v-.861c0-1.195-.729-1.854-2.057-1.854-1.098 0-1.872.465-2.118 1.283h-1.468c.176-1.529 1.653-2.575 3.604-2.575 2.241 0 3.524 1.142 3.524 3.129v6.53h-1.423v-1.433h-.15c-.457 1.02-1.494 1.591-2.883 1.591zm.431-1.31c1.441 0 2.54-.958 2.54-2.232v-1.125l-2.452.114c-1.336.062-2.039.633-2.039 1.626 0 1.002.747 1.617 1.951 1.617zm8.191-5.818c0-1.652 1.407-2.76 3.507-2.76 1.987 0 3.331.993 3.507 2.584h-1.441c-.176-.835-.976-1.344-2.092-1.344-1.213 0-1.995.562-1.995 1.432 0 .73.492 1.143 1.687 1.406l1.345.308c1.854.422 2.698 1.231 2.698 2.61 0 1.758-1.468 2.901-3.726 2.901-2.162 0-3.595-1.011-3.762-2.646h1.52c.22.879 1.064 1.389 2.294 1.389 1.301 0 2.127-.589 2.127-1.503 0-.756-.466-1.16-1.678-1.433l-1.415-.325c-1.723-.395-2.576-1.265-2.576-2.619zm14.766-4.913c-.703 0-1.239-.527-1.239-1.23 0-.695.536-1.222 1.239-1.222s1.239.527 1.239 1.222c0 .703-.536 1.23-1.239 1.23zm3.999 11.874h-7.901v-1.239h3.269v-7.058h-3.243v-1.239h4.72v8.297h3.155zm6.363.158c-2.206 0-3.647-1.591-3.647-4.043v-1.775c0-2.444 1.441-4.034 3.647-4.034 1.38 0 2.4.589 2.813 1.634h.158v-5.22h1.521v13.28h-1.468v-1.459h-.167c-.492 1.055-1.494 1.617-2.857 1.617zm.44-1.362c1.564 0 2.575-1.125 2.575-2.892v-1.371c0-1.758-1.011-2.883-2.575-2.883-1.573 0-2.584 1.125-2.584 2.883v1.371c0 1.758 1.011 2.892 2.584 2.892zm13.86-1.257h1.45c-.29 1.573-1.801 2.637-3.805 2.637-2.62 0-4.14-1.573-4.14-4.289v-1.433c0-2.514 1.608-4.166 4.034-4.166 2.479 0 3.938 1.644 3.938 4.403v.932h-6.495v.387c0 1.749 1.037 2.874 2.663 2.874 1.204 0 2.091-.51 2.355-1.345zm-2.47-5.968c-1.59 0-2.548 1.09-2.548 2.918h5.018c0-1.819-.932-2.918-2.47-2.918zm7.243-.624v-1.678l7.558 4.456v1.3l-7.558 4.456v-1.678l6.038-3.349v-.158z" fill="#f0f6fb"/><path d="m250 272h308v44h-308z" fill="#ff7b72" fill-opacity=".5"/><path d="m363.271 290.947-6.046 3.349v.158l6.046 3.349v1.678l-7.558-4.456v-1.3l7.558-4.456zm3.876 2.092c0-1.652 1.407-2.76 3.507-2.76 1.987 0 3.331.993 3.507 2.584h-1.441c-.176-.835-.976-1.344-2.092-1.344-1.213 0-1.995.562-1.995 1.432 0 .73.492 1.143 1.687 1.406l1.345.308c1.855.422 2.698 1.231 2.698 2.61 0 1.758-1.467 2.901-3.726 2.901-2.162 0-3.595-1.011-3.762-2.646h1.521c.219.879 1.063 1.389 2.293 1.389 1.301 0 2.127-.589 2.127-1.503 0-.756-.465-1.16-1.678-1.433l-1.415-.325c-1.723-.395-2.576-1.265-2.576-2.619zm17.174 4.5h1.45c-.29 1.573-1.801 2.637-3.805 2.637-2.619 0-4.14-1.573-4.14-4.289v-1.433c0-2.514 1.609-4.166 4.034-4.166 2.479 0 3.938 1.644 3.938 4.403v.932h-6.495v.387c0 1.749 1.037 2.874 2.663 2.874 1.204 0 2.092-.51 2.355-1.345zm-2.469-5.968c-1.591 0-2.549 1.09-2.549 2.918h5.018c0-1.819-.931-2.918-2.469-2.918zm14.994 1.864h-1.477c-.184-1.117-1.116-1.82-2.347-1.82-1.661 0-2.584 1.134-2.584 3.182v.861c0 2.048.923 3.173 2.584 3.173 1.231 0 2.163-.694 2.347-1.784h1.477c-.238 1.942-1.688 3.129-3.797 3.129-2.593 0-4.105-1.591-4.105-4.324v-1.248c0-2.734 1.512-4.325 4.105-4.325 2.109 0 3.551 1.196 3.797 3.156zm5.528-5.529h1.477v2.584h3.867v1.275h-3.85v5.379c0 1.037.73 1.599 2.074 1.599.537 0 1.495-.026 1.749-.053v1.266c-.237.044-1.397.088-1.854.088-2.364 0-3.463-.897-3.463-2.883v-5.396h-2.54v-1.275h2.54zm12.92.22c-.703 0-1.239-.527-1.239-1.23 0-.695.536-1.222 1.239-1.222s1.239.527 1.239 1.222c0 .703-.536 1.23-1.239 1.23zm3.999 11.874h-7.901v-1.239h3.269v-7.058h-3.243v-1.239h4.72v8.297h3.155zm6.961.176c-2.523 0-4.131-1.644-4.131-4.219v-1.441c0-2.576 1.608-4.219 4.131-4.219 2.522 0 4.131 1.643 4.131 4.219v1.441c0 2.575-1.609 4.219-4.131 4.219zm0-8.561c-1.635 0-2.654 1.16-2.654 3.032v1.169c0 1.881 1.019 3.033 2.654 3.033s2.654-1.152 2.654-3.033v-1.169c0-1.872-1.019-3.032-2.654-3.032zm7.225 8.385v-9.536h1.432v1.679h.123c.51-1.187 1.6-1.855 3.05-1.855 2.074 0 3.199 1.239 3.199 3.524v6.188h-1.494v-5.81c0-1.722-.703-2.531-2.188-2.531-1.574 0-2.628 1.099-2.628 2.725v5.616zm11.25-9.053v-1.678l7.558 4.456v1.3l-7.558 4.456v-1.678l6.038-3.349v-.158z" fill="#f0f6fb"/><path d="m250 324h308v44h-308z" fill="#ff7b72" fill-opacity=".5"/><path d="m363.271 342.947-6.046 3.349v.158l6.046 3.349v1.678l-7.558-4.456v-1.3l7.558-4.456zm3.876 2.092c0-1.652 1.407-2.76 3.507-2.76 1.987 0 3.331.993 3.507 2.584h-1.441c-.176-.835-.976-1.344-2.092-1.344-1.213 0-1.995.562-1.995 1.432 0 .73.492 1.143 1.687 1.406l1.345.308c1.855.422 2.698 1.231 2.698 2.61 0 1.758-1.467 2.901-3.726 2.901-2.162 0-3.595-1.011-3.762-2.646h1.521c.219.879 1.063 1.389 2.293 1.389 1.301 0 2.127-.589 2.127-1.503 0-.756-.465-1.16-1.678-1.433l-1.415-.325c-1.723-.395-2.576-1.265-2.576-2.619zm17.174 4.5h1.45c-.29 1.573-1.801 2.637-3.805 2.637-2.619 0-4.14-1.573-4.14-4.289v-1.433c0-2.514 1.609-4.166 4.034-4.166 2.479 0 3.938 1.644 3.938 4.403v.932h-6.495v.387c0 1.749 1.037 2.874 2.663 2.874 1.204 0 2.092-.51 2.355-1.345zm-2.469-5.968c-1.591 0-2.549 1.09-2.549 2.918h5.018c0-1.819-.931-2.918-2.469-2.918zm14.994 1.864h-1.477c-.184-1.117-1.116-1.82-2.347-1.82-1.661 0-2.584 1.134-2.584 3.182v.861c0 2.048.923 3.173 2.584 3.173 1.231 0 2.163-.694 2.347-1.784h1.477c-.238 1.942-1.688 3.129-3.797 3.129-2.593 0-4.105-1.591-4.105-4.324v-1.248c0-2.734 1.512-4.325 4.105-4.325 2.109 0 3.551 1.196 3.797 3.156zm5.528-5.529h1.477v2.584h3.867v1.275h-3.85v5.379c0 1.037.73 1.599 2.074 1.599.537 0 1.495-.026 1.749-.053v1.266c-.237.044-1.397.088-1.854.088-2.364 0-3.463-.897-3.463-2.883v-5.396h-2.54v-1.275h2.54zm12.92.22c-.703 0-1.239-.527-1.239-1.23 0-.695.536-1.222 1.239-1.222s1.239.527 1.239 1.222c0 .703-.536 1.23-1.239 1.23zm3.999 11.874h-7.901v-1.239h3.269v-7.058h-3.243v-1.239h4.72v8.297h3.155zm6.961.176c-2.523 0-4.131-1.644-4.131-4.219v-1.441c0-2.576 1.608-4.219 4.131-4.219 2.522 0 4.131 1.643 4.131 4.219v1.441c0 2.575-1.609 4.219-4.131 4.219zm0-8.561c-1.635 0-2.654 1.16-2.654 3.032v1.169c0 1.881 1.019 3.033 2.654 3.033s2.654-1.152 2.654-3.033v-1.169c0-1.872-1.019-3.032-2.654-3.032zm7.225 8.385v-9.536h1.432v1.679h.123c.51-1.187 1.6-1.855 3.05-1.855 2.074 0 3.199 1.239 3.199 3.524v6.188h-1.494v-5.81c0-1.722-.703-2.531-2.188-2.531-1.574 0-2.628 1.099-2.628 2.725v5.616zm11.25-9.053v-1.678l7.558 4.456v1.3l-7.558 4.456v-1.678l6.038-3.349v-.158z" fill="#f0f6fb"/><path d="m250 376h308v44h-308z" fill="#ff7b72" fill-opacity=".5"/><path d="m363.271 394.947-6.046 3.349v.158l6.046 3.349v1.678l-7.558-4.456v-1.3l7.558-4.456zm3.876 2.092c0-1.652 1.407-2.76 3.507-2.76 1.987 0 3.331.993 3.507 2.584h-1.441c-.176-.835-.976-1.344-2.092-1.344-1.213 0-1.995.562-1.995 1.432 0 .73.492 1.143 1.687 1.406l1.345.308c1.855.422 2.698 1.231 2.698 2.61 0 1.758-1.467 2.901-3.726 2.901-2.162 0-3.595-1.011-3.762-2.646h1.521c.219.879 1.063 1.389 2.293 1.389 1.301 0 2.127-.589 2.127-1.503 0-.756-.465-1.16-1.678-1.433l-1.415-.325c-1.723-.395-2.576-1.265-2.576-2.619zm17.174 4.5h1.45c-.29 1.573-1.801 2.637-3.805 2.637-2.619 0-4.14-1.573-4.14-4.289v-1.433c0-2.514 1.609-4.166 4.034-4.166 2.479 0 3.938 1.644 3.938 4.403v.932h-6.495v.387c0 1.749 1.037 2.874 2.663 2.874 1.204 0 2.092-.51 2.355-1.345zm-2.469-5.968c-1.591 0-2.549 1.09-2.549 2.918h5.018c0-1.819-.931-2.918-2.469-2.918zm14.994 1.864h-1.477c-.184-1.117-1.116-1.82-2.347-1.82-1.661 0-2.584 1.134-2.584 3.182v.861c0 2.048.923 3.173 2.584 3.173 1.231 0 2.163-.694 2.347-1.784h1.477c-.238 1.942-1.688 3.129-3.797 3.129-2.593 0-4.105-1.591-4.105-4.324v-1.248c0-2.734 1.512-4.325 4.105-4.325 2.109 0 3.551 1.196 3.797 3.156zm5.528-5.529h1.477v2.584h3.867v1.275h-3.85v5.379c0 1.037.73 1.599 2.074 1.599.537 0 1.495-.026 1.749-.053v1.266c-.237.044-1.397.088-1.854.088-2.364 0-3.463-.897-3.463-2.883v-5.396h-2.54v-1.275h2.54zm12.92.22c-.703 0-1.239-.527-1.239-1.23 0-.695.536-1.222 1.239-1.222s1.239.527 1.239 1.222c0 .703-.536 1.23-1.239 1.23zm3.999 11.874h-7.901v-1.239h3.269v-7.058h-3.243v-1.239h4.72v8.297h3.155zm6.961.176c-2.523 0-4.131-1.644-4.131-4.219v-1.441c0-2.576 1.608-4.219 4.131-4.219 2.522 0 4.131 1.643 4.131 4.219v1.441c0 2.575-1.609 4.219-4.131 4.219zm0-8.561c-1.635 0-2.654 1.16-2.654 3.032v1.169c0 1.881 1.019 3.033 2.654 3.033s2.654-1.152 2.654-3.033v-1.169c0-1.872-1.019-3.032-2.654-3.032zm7.225 8.385v-9.536h1.432v1.679h.123c.51-1.187 1.6-1.855 3.05-1.855 2.074 0 3.199 1.239 3.199 3.524v6.188h-1.494v-5.81c0-1.722-.703-2.531-2.188-2.531-1.574 0-2.628 1.099-2.628 2.725v5.616zm11.25-9.053v-1.678l7.558 4.456v1.3l-7.558 4.456v-1.678l6.038-3.349v-.158z" fill="#f0f6fb"/><path d="m250 428h308v44h-308z" fill="#ffa657" fill-opacity=".5"/><path d="m368.835 446.947-6.047 3.349v.158l6.047 3.349v1.678l-7.559-4.456v-1.3l7.559-4.456zm5.941 9.053v-8.235h-2.557v-1.275h2.557v-.958c0-1.845 1.143-2.707 3.49-2.707.553 0 1.88.044 2.197.088v1.222c-.413-.044-1.644-.079-2.18-.079-1.327 0-2.03.492-2.03 1.45v.984h4.21v1.275h-4.192v8.235zm12.534.176c-2.523 0-4.131-1.644-4.131-4.219v-1.441c0-2.576 1.608-4.219 4.131-4.219 2.522 0 4.13 1.643 4.13 4.219v1.441c0 2.575-1.608 4.219-4.13 4.219zm0-8.561c-1.635 0-2.655 1.16-2.655 3.032v1.169c0 1.881 1.02 3.033 2.655 3.033 1.634 0 2.654-1.152 2.654-3.033v-1.169c0-1.872-1.02-3.032-2.654-3.032zm11.127 8.561c-2.523 0-4.131-1.644-4.131-4.219v-1.441c0-2.576 1.608-4.219 4.131-4.219 2.522 0 4.13 1.643 4.13 4.219v1.441c0 2.575-1.608 4.219-4.13 4.219zm0-8.561c-1.635 0-2.655 1.16-2.655 3.032v1.169c0 1.881 1.02 3.033 2.655 3.033 1.634 0 2.654-1.152 2.654-3.033v-1.169c0-1.872-1.02-3.032-2.654-3.032zm9.501-3.709h1.476v2.584h3.867v1.275h-3.849v5.379c0 1.037.729 1.599 2.074 1.599.536 0 1.494-.026 1.749-.053v1.266c-.237.044-1.398.088-1.855.088-2.364 0-3.462-.897-3.462-2.883v-5.396h-2.541v-1.275h2.541zm15.328 9.633h1.45c-.29 1.573-1.802 2.637-3.806 2.637-2.619 0-4.139-1.573-4.139-4.289v-1.433c0-2.514 1.608-4.166 4.034-4.166 2.478 0 3.937 1.644 3.937 4.403v.932h-6.495v.387c0 1.749 1.037 2.874 2.663 2.874 1.204 0 2.092-.51 2.356-1.345zm-2.47-5.968c-1.591 0-2.549 1.09-2.549 2.918h5.019c0-1.819-.932-2.918-2.47-2.918zm10.643 4.158v3.076h2.954v1.195h-6.337v-1.195h1.924v-7.146h-2.118v-1.195h3.56v2.434h.193c.352-1.766 1.538-2.68 3.375-2.68.545 0 1.064.079 1.38.211v1.678c-.439-.158-1.055-.263-1.573-.263-2.109 0-3.358 1.459-3.358 3.885zm7.726-4.782v-1.678l7.559 4.456v1.3l-7.559 4.456v-1.678l6.038-3.349v-.158z" fill="#f0f6fb"/><path d="m345.501 520.506v-1.496h11.088v1.496zm0-2.332v-1.65l8.932-3.212-8.932-3.278v-1.628l11.088 4.136v1.518zm29.457-11.902c-.792.777-1.533 1.701-2.222 2.772-.69 1.071-1.306 2.215-1.848 3.432-.528 1.217-.961 2.471-1.298 3.762-.338 1.291-.543 2.545-.616 3.762h-2.09c.088-1.32.3-2.603.638-3.85.352-1.261.799-2.464 1.342-3.608.542-1.159 1.166-2.251 1.87-3.278.718-1.027 1.488-1.973 2.31-2.838h-8.184v-1.76h10.098zm10.134 2.112c-.088-.704-.359-1.269-.814-1.694-.454-.425-1.056-.638-1.804-.638-.792 0-1.43.198-1.914.594-.484.381-.865.873-1.144 1.474-.264.587-.447 1.225-.55 1.914-.102.689-.161 1.335-.176 1.936l.044.044c.44-.719.983-1.239 1.628-1.562.66-.323 1.416-.484 2.266-.484.748 0 1.416.132 2.002.396.602.249 1.1.601 1.496 1.056.411.455.726.99.946 1.606s.33 1.283.33 2.002c0 .572-.088 1.166-.264 1.782s-.469 1.181-.88 1.694c-.396.499-.931.917-1.606 1.254-.66.323-1.481.484-2.464.484-1.158 0-2.09-.235-2.794-.704s-1.246-1.071-1.628-1.804c-.381-.733-.638-1.54-.77-2.42-.117-.88-.176-1.731-.176-2.552 0-1.071.088-2.105.264-3.102.191-1.012.506-1.907.946-2.684s1.027-1.401 1.76-1.87c.734-.469 1.658-.704 2.772-.704 1.291 0 2.318.345 3.08 1.034.763.675 1.203 1.657 1.32 2.948zm-2.816 3.234c-.528 0-.99.095-1.386.286-.396.176-.733.425-1.012.748-.278.308-.491.682-.638 1.122-.132.425-.198.88-.198 1.364s.074.939.22 1.364c.147.425.352.792.616 1.1.279.308.616.557 1.012.748.411.176.873.264 1.386.264.514 0 .961-.088 1.342-.264.396-.191.726-.447.99-.77s.462-.689.594-1.1c.147-.425.22-.865.22-1.32 0-.484-.066-.939-.198-1.364-.117-.44-.308-.814-.572-1.122-.264-.323-.594-.579-.99-.77s-.858-.286-1.386-.286zm9.343-3.168c0 .425.073.799.22 1.122.147.308.345.565.594.77s.543.359.88.462.697.154 1.078.154c.748 0 1.364-.22 1.848-.66s.726-1.056.726-1.848-.249-1.386-.748-1.782c-.484-.411-1.107-.616-1.87-.616-.367 0-.719.051-1.056.154s-.631.257-.88.462c-.235.205-.425.455-.572.748s-.22.638-.22 1.034zm-1.98-.066c0-.645.125-1.21.374-1.694.249-.499.587-.917 1.012-1.254s.909-.594 1.452-.77c.557-.176 1.137-.264 1.738-.264.851 0 1.577.117 2.178.352.601.22 1.085.521 1.452.902.381.367.66.792.836 1.276.176.469.264.953.264 1.452 0 .704-.198 1.349-.594 1.936-.381.572-.902 1.005-1.562 1.298.939.293 1.635.777 2.09 1.452.455.66.682 1.474.682 2.442 0 .763-.139 1.437-.418 2.024-.264.587-.631 1.085-1.1 1.496-.455.396-.997.697-1.628.902s-1.305.308-2.024.308c-.748 0-1.445-.095-2.09-.286s-1.21-.484-1.694-.88c-.469-.396-.843-.887-1.122-1.474-.264-.601-.396-1.298-.396-2.09 0-.924.235-1.723.704-2.398.469-.689 1.144-1.188 2.024-1.496-.66-.264-1.188-.689-1.584-1.276-.396-.601-.594-1.254-.594-1.958zm1.43 7.216c0 .939.308 1.679.924 2.222.631.528 1.43.792 2.398.792.469 0 .895-.073 1.276-.22.396-.161.733-.374 1.012-.638.293-.279.513-.601.66-.968.161-.367.242-.77.242-1.21 0-.425-.088-.814-.264-1.166-.161-.367-.389-.682-.682-.946s-.638-.469-1.034-.616c-.381-.161-.792-.242-1.232-.242-.455 0-.887.073-1.298.22-.396.132-.748.33-1.056.594-.293.264-.528.579-.704.946-.161.367-.242.777-.242 1.232zm16.962-6.974h1.87v1.54h.044c.308-.631.792-1.085 1.452-1.364.66-.293 1.386-.44 2.178-.44.88 0 1.642.161 2.288.484.66.323 1.202.763 1.628 1.32.44.543.77 1.173.99 1.892s.33 1.481.33 2.288-.11 1.569-.33 2.288c-.206.719-.528 1.349-.968 1.892-.426.528-.968.946-1.628 1.254-.646.308-1.401.462-2.266.462-.279 0-.594-.029-.946-.088-.338-.059-.675-.154-1.012-.286-.338-.132-.66-.308-.968-.528-.294-.235-.543-.521-.748-.858h-.044v5.852h-1.87zm8.8 5.588c0-.528-.074-1.041-.22-1.54-.132-.513-.345-.968-.638-1.364-.279-.396-.646-.711-1.1-.946-.44-.235-.961-.352-1.562-.352-.631 0-1.166.125-1.606.374s-.8.579-1.078.99c-.279.396-.484.851-.616 1.364-.118.513-.176 1.034-.176 1.562 0 .557.066 1.1.198 1.628.132.513.337.968.616 1.364.293.396.667.719 1.122.968.454.235 1.004.352 1.65.352.645 0 1.18-.125 1.606-.374.44-.249.792-.579 1.056-.99s.454-.88.572-1.408c.117-.528.176-1.071.176-1.628zm6.155-7.634h-1.87v-2.288h1.87zm-1.87 2.046h1.87v11.374h-1.87zm7.825 5.39-3.96-5.39h2.398l2.728 3.982 2.838-3.982h2.244l-3.916 5.236 4.4 6.138h-2.398l-3.168-4.708-3.168 4.708h-2.266zm16.226-.792c-.029-.44-.132-.858-.308-1.254-.161-.396-.388-.733-.682-1.012-.278-.293-.616-.521-1.012-.682-.381-.176-.806-.264-1.276-.264-.484 0-.924.088-1.32.264-.381.161-.711.389-.99.682-.278.293-.498.638-.66 1.034-.161.381-.256.792-.286 1.232zm1.804 3.168c-.249 1.276-.799 2.237-1.65 2.882-.85.645-1.921.968-3.212.968-.909 0-1.701-.147-2.376-.44-.66-.293-1.217-.704-1.672-1.232-.454-.528-.799-1.159-1.034-1.892-.22-.733-.344-1.533-.374-2.398 0-.865.132-1.657.396-2.376s.631-1.342 1.1-1.87c.484-.528 1.049-.939 1.694-1.232.66-.293 1.379-.44 2.156-.44 1.012 0 1.848.213 2.508.638.675.411 1.21.939 1.606 1.584.411.645.69 1.349.836 2.112.162.763.228 1.489.198 2.178h-8.514c-.014.499.044.975.176 1.43.132.44.345.836.638 1.188.294.337.668.609 1.122.814.455.205.99.308 1.606.308.792 0 1.438-.183 1.936-.55.514-.367.851-.924 1.012-1.672zm2.225-12.1h1.87v15.708h-1.87zm5.911 12.122c.014.411.11.763.286 1.056.176.279.403.506.682.682.293.161.616.279.968.352.366.073.74.11 1.122.11.293 0 .601-.022.924-.066.322-.044.616-.125.88-.242.278-.117.506-.286.682-.506.176-.235.264-.528.264-.88 0-.484-.184-.851-.55-1.1-.367-.249-.829-.447-1.386-.594-.543-.161-1.137-.301-1.782-.418-.646-.132-1.247-.308-1.804-.528-.543-.235-.998-.557-1.364-.968-.367-.411-.55-.983-.55-1.716 0-.572.124-1.063.374-1.474.264-.411.594-.741.99-.99.41-.264.865-.455 1.364-.572.513-.132 1.019-.198 1.518-.198.645 0 1.239.059 1.782.176.542.103 1.019.293 1.43.572.425.264.762.631 1.012 1.1.249.455.396 1.027.44 1.716h-1.87c-.03-.367-.125-.667-.286-.902-.162-.249-.367-.447-.616-.594-.25-.147-.528-.249-.836-.308-.294-.073-.594-.11-.902-.11-.279 0-.565.022-.858.066-.279.044-.536.125-.77.242-.235.103-.426.249-.572.44-.147.176-.22.411-.22.704 0 .323.11.594.33.814.234.205.528.381.88.528.352.132.748.249 1.188.352.44.088.88.183 1.32.286.469.103.924.227 1.364.374.454.147.85.345 1.188.594.352.235.63.535.836.902.22.367.33.821.33 1.364 0 .689-.147 1.261-.44 1.716-.279.455-.653.821-1.122 1.1-.455.279-.976.469-1.562.572-.572.117-1.144.176-1.716.176-.631 0-1.232-.066-1.804-.198s-1.078-.345-1.518-.638c-.44-.308-.792-.704-1.056-1.188-.264-.499-.411-1.1-.44-1.804z" fill="#fff" fill-opacity=".333333"/><path d="m250 496h308" stroke="#fff" stroke-opacity=".333333" stroke-width="1.5"/></svg>