<svg fill="none" height="425" viewBox="0 0 558 425" width="558" xmlns="http://www.w3.org/2000/svg"><path d="m4.972 17.096h3.08c.49867 0 .98267-.0807 1.452-.242s.8873-.4253 1.254-.792c.3667-.3813.66-.8727.88-1.474s.33-1.3347.33-2.2c0-.792-.0807-1.5033-.242-2.134-.1467-.64533-.396-1.19533-.748-1.65s-.8213-.79933-1.408-1.034c-.572-.24933-1.28333-.374-2.134-.374h-2.464zm-3.454-12.804h6.776c1.012 0 1.9507.16133 2.816.484.88.32267 1.6353.80667 2.266 1.452.6453.64533 1.144 1.452 1.496 2.42.3667.968.55 2.1047.55 3.41 0 1.144-.1467 2.2-.44 3.168s-.7407 1.804-1.342 2.508c-.5867.704-1.3273 1.2613-2.222 1.672-.88.396-1.92133.594-3.124.594h-6.776zm23.4126 8.8c-.1466-.792-.4106-1.3933-.792-1.804-.3666-.4107-.9313-.616-1.694-.616-.4986 0-.9166.088-1.254.264-.3226.1613-.5866.3667-.792.616-.1906.2493-.33.5133-.418.792-.0733.2787-.1173.528-.132.748zm-5.082 1.98c.044 1.012.3007 1.7453.77 2.2.4694.4547 1.144.682 2.024.682.6307 0 1.1734-.154 1.628-.462.4547-.3227.7334-.66.836-1.012h2.75c-.44 1.364-1.1146 2.3393-2.024 2.926-.9093.5867-2.0093.88-3.3.88-.8946 0-1.7013-.1393-2.42-.418-.7186-.2933-1.3273-.704-1.826-1.232-.4986-.528-.8873-1.1587-1.166-1.892-.264-.7333-.396-1.54-.396-2.42 0-.8507.1394-1.6427.418-2.376.2787-.7333.6747-1.364 1.188-1.892.5134-.54267 1.122-.968 1.826-1.276.7187-.308 1.5107-.462 2.376-.462.968 0 1.8114.19067 2.53.572.7187.36667 1.3054.86533 1.76 1.496.4694.6307.8067 1.3493 1.012 2.156.2054.8067.2787 1.65.22 2.53zm12.2589 1.232c0 .3373.066.6307.198.88.1466.2347.33.4327.55.594.22.1467.4693.2567.748.33.2933.0733.594.11.902.11.22 0 .4473-.022.682-.066.2493-.0587.4693-.1393.66-.242.2053-.1173.374-.264.506-.44.132-.1907.198-.4253.198-.704 0-.4693-.3154-.8213-.946-1.056-.616-.2347-1.4814-.4693-2.596-.704-.4547-.1027-.902-.22-1.342-.352-.4254-.1467-.8067-.33-1.144-.55-.3374-.2347-.6087-.5207-.814-.858-.2054-.352-.308-.7773-.308-1.276 0-.7333.1393-1.3347.418-1.804.2933-.46933.6746-.836 1.144-1.1.4693-.27867.9973-.46933 1.584-.572.5866-.11733 1.188-.176 1.804-.176s1.21.05867 1.782.176c.5866.11733 1.1073.31533 1.562.594.4546.27867.8286.65267 1.122 1.122.308.4547.4913 1.034.55 1.738h-2.97c-.044-.6013-.2714-1.0047-.682-1.21-.4107-.22-.8947-.33-1.452-.33-.176 0-.3667.0147-.572.044-.2054.0147-.396.0587-.572.132-.1614.0733-.3007.1833-.418.33-.1174.132-.176.3153-.176.55 0 .2787.1026.506.308.682.2053.176.4693.3227.792.44.3373.1027.7186.198 1.144.286.4253.088.858.1833 1.298.286.4546.1027.8946.2273 1.32.374.44.1467.8286.3447 1.166.594.3373.2347.6086.5353.814.902.2053.352.308.792.308 1.32 0 .748-.154 1.3787-.462 1.892-.2934.4987-.682.902-1.166 1.21s-1.0414.5207-1.672.638c-.616.132-1.2467.198-1.892.198-.66 0-1.3054-.066-1.936-.198-.6307-.132-1.1954-.352-1.694-.66-.484-.308-.8874-.7113-1.21-1.21-.308-.5133-.4767-1.1513-.506-1.914zm9.4624-12.012h3.124v8.426l3.938-4.092h3.696l-4.29 4.18 4.774 7.194h-3.784l-3.124-5.082-1.21 1.166v3.916h-3.124zm16.0868 4.334h2.288v2.09h-2.288v5.632c0 .528.088.88.264 1.056s.528.264 1.056.264c.176 0 .3446-.0073.506-.022.1613-.0147.3153-.0367.462-.066v2.42c-.264.044-.5574.0733-.88.088-.3227.0147-.638.022-.946.022-.484 0-.946-.0367-1.386-.11-.4254-.0587-.8067-.1833-1.144-.374-.3227-.1907-.5794-.462-.77-.814-.1907-.352-.286-.814-.286-1.386v-6.71h-1.892v-2.09h1.892v-3.41h3.124zm6.3263 5.698c0 .4547.044.902.132 1.342.088.4253.2347.814.44 1.166.22.3373.506.6087.858.814s.792.308 1.32.308.968-.1027 1.32-.308c.3667-.2053.6527-.4767.858-.814.22-.352.374-.7407.462-1.166.088-.44.132-.8873.132-1.342s-.044-.902-.132-1.342-.242-.8287-.462-1.166c-.2053-.3373-.4913-.6087-.858-.814-.352-.22-.792-.33-1.32-.33s-.968.11-1.32.33c-.352.2053-.638.4767-.858.814-.2053.3373-.352.726-.44 1.166s-.132.8873-.132 1.342zm-3.124 0c0-.9093.1394-1.7307.418-2.464.2787-.748.6747-1.3787 1.188-1.892.5134-.528 1.1294-.93133 1.848-1.21.7187-.29333 1.5254-.44 2.42-.44.8947 0 1.7014.14667 2.42.44.7334.27867 1.3567.682 1.87 1.21.5134.5133.9094 1.144 1.188 1.892.2787.7333.418 1.5547.418 2.464s-.1393 1.7307-.418 2.464c-.2786.7333-.6746 1.364-1.188 1.892-.5133.5133-1.1366.9093-1.87 1.188-.7186.2787-1.5253.418-2.42.418-.8946 0-1.7013-.1393-2.42-.418-.7186-.2787-1.3346-.6747-1.848-1.188-.5133-.528-.9093-1.1587-1.188-1.892-.2786-.7333-.418-1.5547-.418-2.464zm19.3233 3.63c.5133 0 .9386-.1027 1.276-.308.352-.2053.6306-.4693.836-.792.22-.3373.374-.726.462-1.166s.132-.8873.132-1.342-.0514-.902-.154-1.342c-.088-.44-.242-.8287-.462-1.166-.22-.352-.506-.6307-.858-.836-.3374-.22-.7554-.33-1.254-.33-.5134 0-.946.11-1.298.33-.3374.2053-.616.4767-.836.814-.2054.3373-.352.726-.44 1.166s-.132.8947-.132 1.364c0 .4547.044.902.132 1.342.1026.44.2566.8287.462 1.166.22.3227.506.5867.858.792s.7773.308 1.276.308zm-5.742-9.328h2.97v1.452h.044c.3813-.616.8653-1.06333 1.452-1.342.5866-.27867 1.232-.418 1.936-.418.8946 0 1.6646.16867 2.31.506.6453.33733 1.1806.78467 1.606 1.342.4253.5573.7406 1.21.946 1.958.2053.7333.308 1.5033.308 2.31 0 .7627-.1027 1.496-.308 2.2-.2054.704-.5207 1.3273-.946 1.87-.4107.5427-.9314.9753-1.562 1.298-.616.3227-1.342.484-2.178.484-.704 0-1.3567-.1393-1.958-.418-.5867-.2933-1.0707-.7187-1.452-1.276h-.044v5.39h-3.124z" fill="#fff"/><path d="m0 44h558v44h-558z" fill="#79c0ff" fill-opacity=".5"/><path d="m243.835 62.9473-6.047 3.3486v.1582l6.047 3.3486v1.6787l-7.559-4.456v-1.3008l7.559-4.456zm3.436 9.0527v-13.2803h1.442v5.4317h.123c.501-1.1866 1.6-1.8545 3.059-1.8545 2.074 0 3.199 1.248 3.199 3.5244v6.1787h-1.494v-5.8008c0-1.7138-.704-2.5312-2.198-2.5312-1.573 0-2.636 1.0986-2.636 2.7246v5.6074zm17.614-2.4609h1.45c-.29 1.5732-1.802 2.6367-3.806 2.6367-2.619 0-4.139-1.5733-4.139-4.2891v-1.4326c0-2.5137 1.608-4.166 4.034-4.166 2.478 0 3.937 1.6435 3.937 4.4033v.9316h-6.495v.3868c0 1.749 1.037 2.874 2.663 2.874 1.204 0 2.092-.5098 2.356-1.3447zm-2.47-5.9678c-1.591 0-2.549 1.0898-2.549 2.918h5.019c0-1.8194-.932-2.918-2.47-2.918zm10.055 8.5957c-1.82 0-3.032-1.1426-3.032-2.874 0-1.6875 1.212-2.6895 3.383-2.8037l2.619-.1319v-.8613c0-1.1953-.729-1.8545-2.056-1.8545-1.099 0-1.872.4658-2.118 1.2832h-1.468c.176-1.5293 1.652-2.5752 3.603-2.5752 2.242 0 3.525 1.1426 3.525 3.1289v6.5303h-1.424v-1.4326h-.149c-.457 1.0195-1.495 1.5908-2.883 1.5908zm.43-1.3096c1.442 0 2.54-.958 2.54-2.2324v-1.125l-2.452.1143c-1.336.0615-2.039.6328-2.039 1.6259 0 1.002.747 1.6172 1.951 1.6172zm11.066 1.3008c-2.206 0-3.648-1.5908-3.648-4.043v-1.7754c0-2.4433 1.442-4.0341 3.648-4.0341 1.38 0 2.399.5888 2.812 1.6347h.159v-5.2207h1.52v13.2803h-1.468v-1.459h-.167c-.492 1.0547-1.494 1.6172-2.856 1.6172zm.439-1.3623c1.565 0 2.575-1.125 2.575-2.8916v-1.3711c0-1.7578-1.01-2.8828-2.575-2.8828-1.573 0-2.584 1.125-2.584 2.8828v1.3711c0 1.7578 1.011 2.8916 2.584 2.8916zm13.861-1.2568h1.45c-.29 1.5732-1.802 2.6367-3.806 2.6367-2.619 0-4.139-1.5733-4.139-4.2891v-1.4326c0-2.5137 1.608-4.166 4.034-4.166 2.478 0 3.937 1.6435 3.937 4.4033v.9316h-6.495v.3868c0 1.749 1.037 2.874 2.663 2.874 1.204 0 2.092-.5098 2.356-1.3447zm-2.47-5.9678c-1.591 0-2.549 1.0898-2.549 2.918h5.019c0-1.8194-.932-2.918-2.47-2.918zm10.643 4.1572v3.0762h2.954v1.1953h-6.337v-1.1953h1.924v-7.1455h-2.118v-1.1953h3.56v2.4345h.193c.352-1.7666 1.538-2.6806 3.375-2.6806.545 0 1.064.0791 1.38.2109v1.6787c-.439-.1582-1.055-.2636-1.573-.2636-2.109 0-3.358 1.4589-3.358 3.8847zm7.726-4.7812v-1.6787l7.559 4.456v1.3008l-7.559 4.456v-1.6787l6.038-3.3486v-.1582z" fill="#f0f6fb"/><path d="m0 96h317v144h-317z" fill="#7ee687" fill-opacity=".5"/><path d="m134.462 114.947-6.047 3.349v.158l6.047 3.349v1.678l-7.559-4.456v-1.3l7.559-4.456zm11.944 2.031v7.022h-1.344v-6.583c0-1.16-.422-1.767-1.222-1.767-.835 0-1.345.73-1.345 1.916v6.434h-1.336v-6.592c0-1.151-.422-1.758-1.23-1.758-.844 0-1.371.73-1.371 1.916v6.434h-1.345v-9.536h1.336v1.345h.158c.237-.958.923-1.521 1.819-1.521.897 0 1.53.554 1.732 1.494h.158c.246-.914 1.011-1.494 1.969-1.494 1.327 0 2.021.923 2.021 2.69zm5.564 7.189c-1.82 0-3.032-1.143-3.032-2.874 0-1.688 1.212-2.689 3.383-2.804l2.619-.132v-.861c0-1.195-.729-1.854-2.056-1.854-1.099 0-1.872.465-2.118 1.283h-1.468c.176-1.529 1.652-2.575 3.603-2.575 2.242 0 3.525 1.142 3.525 3.129v6.53h-1.424v-1.433h-.149c-.457 1.02-1.495 1.591-2.883 1.591zm.43-1.31c1.442 0 2.54-.958 2.54-2.232v-1.125l-2.452.114c-1.336.062-2.039.633-2.039 1.626 0 1.002.747 1.617 1.951 1.617zm11.83-10.731c-.703 0-1.239-.527-1.239-1.23 0-.695.536-1.222 1.239-1.222.704 0 1.24.527 1.24 1.222 0 .703-.536 1.23-1.24 1.23zm3.999 11.874h-7.901v-1.239h3.27v-7.058h-3.244v-1.239h4.72v8.297h3.155zm3.059 0v-9.536h1.433v1.679h.123c.51-1.187 1.599-1.855 3.05-1.855 2.074 0 3.199 1.239 3.199 3.524v6.188h-1.494v-5.81c0-1.722-.703-2.531-2.189-2.531-1.573 0-2.628 1.099-2.628 2.725v5.616zm11.25-9.053v-1.678l7.559 4.456v1.3l-7.559 4.456v-1.678l6.038-3.349v-.158z" fill="#f0f6fb"/><path d="m325 96h233v144h-233z" fill="#d2a8ff" fill-opacity=".5"/><path d="m411.898 114.947-6.046 3.349v.158l6.046 3.349v1.678l-7.558-4.456v-1.3l7.558-4.456zm6.381 9.22c-1.819 0-3.032-1.143-3.032-2.874 0-1.688 1.213-2.689 3.384-2.804l2.619-.132v-.861c0-1.195-.729-1.854-2.057-1.854-1.098 0-1.872.465-2.118 1.283h-1.468c.176-1.529 1.653-2.575 3.604-2.575 2.241 0 3.524 1.142 3.524 3.129v6.53h-1.423v-1.433h-.15c-.457 1.02-1.494 1.591-2.883 1.591zm.431-1.31c1.441 0 2.54-.958 2.54-2.232v-1.125l-2.452.114c-1.336.062-2.039.633-2.039 1.626 0 1.002.747 1.617 1.951 1.617zm8.191-5.818c0-1.652 1.407-2.76 3.507-2.76 1.987 0 3.331.993 3.507 2.584h-1.441c-.176-.835-.976-1.344-2.092-1.344-1.213 0-1.995.562-1.995 1.432 0 .73.492 1.143 1.687 1.406l1.345.308c1.854.422 2.698 1.231 2.698 2.61 0 1.758-1.468 2.901-3.726 2.901-2.162 0-3.595-1.011-3.762-2.646h1.52c.22.879 1.064 1.389 2.294 1.389 1.301 0 2.127-.589 2.127-1.503 0-.756-.466-1.16-1.678-1.433l-1.415-.325c-1.723-.395-2.576-1.265-2.576-2.619zm14.766-4.913c-.703 0-1.239-.527-1.239-1.23 0-.695.536-1.222 1.239-1.222s1.239.527 1.239 1.222c0 .703-.536 1.23-1.239 1.23zm3.999 11.874h-7.901v-1.239h3.269v-7.058h-3.243v-1.239h4.72v8.297h3.155zm6.363.158c-2.206 0-3.647-1.591-3.647-4.043v-1.775c0-2.444 1.441-4.034 3.647-4.034 1.38 0 2.4.589 2.813 1.634h.158v-5.22h1.521v13.28h-1.468v-1.459h-.167c-.492 1.055-1.494 1.617-2.857 1.617zm.44-1.362c1.564 0 2.575-1.125 2.575-2.892v-1.371c0-1.758-1.011-2.883-2.575-2.883-1.573 0-2.584 1.125-2.584 2.883v1.371c0 1.758 1.011 2.892 2.584 2.892zm13.86-1.257h1.45c-.29 1.573-1.801 2.637-3.805 2.637-2.62 0-4.14-1.573-4.14-4.289v-1.433c0-2.514 1.608-4.166 4.034-4.166 2.479 0 3.938 1.644 3.938 4.403v.932h-6.495v.387c0 1.749 1.037 2.874 2.663 2.874 1.204 0 2.091-.51 2.355-1.345zm-2.47-5.968c-1.59 0-2.548 1.09-2.548 2.918h5.018c0-1.819-.932-2.918-2.47-2.918zm7.243-.624v-1.678l7.558 4.456v1.3l-7.558 4.456v-1.678l6.038-3.349v-.158z" fill="#f0f6fb"/><path d="m0 248h180.667v72h-180.667z" fill="#ff7b72" fill-opacity=".5"/><path d="m49.6055 266.947-6.0469 3.349v.158l6.0469 3.349v1.678l-7.5586-4.456v-1.3l7.5586-4.456zm3.8759 2.092c0-1.652 1.4063-2.76 3.5069-2.76 1.9863 0 3.331.993 3.5068 2.584h-1.4414c-.1758-.835-.9756-1.344-2.0918-1.344-1.2129 0-1.9951.562-1.9951 1.432 0 .73.4922 1.143 1.6875 1.406l1.3447.308c1.8545.422 2.6983 1.231 2.6983 2.61 0 1.758-1.4678 2.901-3.7266 2.901-2.1621 0-3.5947-1.011-3.7617-2.646h1.5205c.2197.879 1.0635 1.389 2.2939 1.389 1.3008 0 2.127-.589 2.127-1.503 0-.756-.4658-1.16-1.6787-1.433l-1.4151-.325c-1.7226-.395-2.5752-1.265-2.5752-2.619zm17.1739 4.5h1.4502c-.2901 1.573-1.8018 2.637-3.8057 2.637-2.6191 0-4.1396-1.573-4.1396-4.289v-1.433c0-2.514 1.6084-4.166 4.0341-4.166 2.4786 0 3.9375 1.644 3.9375 4.403v.932h-6.4951v.387c0 1.749 1.0371 2.874 2.6631 2.874 1.2041 0 2.0918-.51 2.3555-1.345zm-2.4698-5.968c-1.5908 0-2.5488 1.09-2.5488 2.918h5.0186c0-1.819-.9317-2.918-2.4698-2.918zm14.9942 1.864h-1.4766c-.1845-1.117-1.1162-1.82-2.3467-1.82-1.6611 0-2.5839 1.134-2.5839 3.182v.861c0 2.048.9228 3.173 2.5839 3.173 1.2305 0 2.1622-.694 2.3467-1.784h1.4766c-.2373 1.942-1.6875 3.129-3.7969 3.129-2.5928 0-4.1045-1.591-4.1045-4.324v-1.248c0-2.734 1.5117-4.325 4.1045-4.325 2.1094 0 3.5508 1.196 3.7969 3.156zm5.5283-5.529h1.4766v2.584h3.8672v1.275h-3.8497v5.379c0 1.037.7295 1.599 2.0743 1.599.5361 0 1.4941-.026 1.749-.053v1.266c-.2373.044-1.3975.088-1.8545.088-2.3643 0-3.4629-.897-3.4629-2.883v-5.396h-2.54v-1.275h2.54zm12.92.22c-.703 0-1.239-.527-1.239-1.23 0-.695.536-1.222 1.239-1.222s1.239.527 1.239 1.222c0 .703-.536 1.23-1.239 1.23zm3.999 11.874h-7.9014v-1.239h3.2694v-7.058h-3.243v-1.239h4.72v8.297h3.155zm6.961.176c-2.523 0-4.131-1.644-4.131-4.219v-1.441c0-2.576 1.608-4.219 4.131-4.219 2.522 0 4.131 1.643 4.131 4.219v1.441c0 2.575-1.609 4.219-4.131 4.219zm0-8.561c-1.635 0-2.654 1.16-2.654 3.032v1.169c0 1.881 1.019 3.033 2.654 3.033s2.654-1.152 2.654-3.033v-1.169c0-1.872-1.019-3.032-2.654-3.032zm7.224 8.385v-9.536h1.433v1.679h.123c.51-1.187 1.6-1.855 3.05-1.855 2.074 0 3.199 1.239 3.199 3.524v6.188h-1.494v-5.81c0-1.722-.703-2.531-2.188-2.531-1.574 0-2.628 1.099-2.628 2.725v5.616zm11.25-9.053v-1.678l7.559 4.456v1.3l-7.559 4.456v-1.678l6.039-3.349v-.158z" fill="#f0f6fb"/><path d="m188.666 248h180.667v72h-180.667z" fill="#ff7b72" fill-opacity=".5"/><path d="m238.271 266.947-6.046 3.349v.158l6.046 3.349v1.678l-7.558-4.456v-1.3l7.558-4.456zm3.876 2.092c0-1.652 1.407-2.76 3.507-2.76 1.987 0 3.331.993 3.507 2.584h-1.441c-.176-.835-.976-1.344-2.092-1.344-1.213 0-1.995.562-1.995 1.432 0 .73.492 1.143 1.687 1.406l1.345.308c1.855.422 2.698 1.231 2.698 2.61 0 1.758-1.467 2.901-3.726 2.901-2.162 0-3.595-1.011-3.762-2.646h1.521c.219.879 1.063 1.389 2.293 1.389 1.301 0 2.127-.589 2.127-1.503 0-.756-.465-1.16-1.678-1.433l-1.415-.325c-1.723-.395-2.576-1.265-2.576-2.619zm17.174 4.5h1.45c-.29 1.573-1.801 2.637-3.805 2.637-2.619 0-4.14-1.573-4.14-4.289v-1.433c0-2.514 1.609-4.166 4.034-4.166 2.479 0 3.938 1.644 3.938 4.403v.932h-6.495v.387c0 1.749 1.037 2.874 2.663 2.874 1.204 0 2.092-.51 2.355-1.345zm-2.469-5.968c-1.591 0-2.549 1.09-2.549 2.918h5.018c0-1.819-.931-2.918-2.469-2.918zm14.994 1.864h-1.477c-.184-1.117-1.116-1.82-2.347-1.82-1.661 0-2.584 1.134-2.584 3.182v.861c0 2.048.923 3.173 2.584 3.173 1.231 0 2.163-.694 2.347-1.784h1.477c-.238 1.942-1.688 3.129-3.797 3.129-2.593 0-4.105-1.591-4.105-4.324v-1.248c0-2.734 1.512-4.325 4.105-4.325 2.109 0 3.551 1.196 3.797 3.156zm5.528-5.529h1.477v2.584h3.867v1.275h-3.85v5.379c0 1.037.73 1.599 2.074 1.599.537 0 1.495-.026 1.749-.053v1.266c-.237.044-1.397.088-1.854.088-2.364 0-3.463-.897-3.463-2.883v-5.396h-2.54v-1.275h2.54zm12.92.22c-.703 0-1.239-.527-1.239-1.23 0-.695.536-1.222 1.239-1.222s1.239.527 1.239 1.222c0 .703-.536 1.23-1.239 1.23zm3.999 11.874h-7.901v-1.239h3.269v-7.058h-3.243v-1.239h4.72v8.297h3.155zm6.961.176c-2.523 0-4.131-1.644-4.131-4.219v-1.441c0-2.576 1.608-4.219 4.131-4.219 2.522 0 4.131 1.643 4.131 4.219v1.441c0 2.575-1.609 4.219-4.131 4.219zm0-8.561c-1.635 0-2.654 1.16-2.654 3.032v1.169c0 1.881 1.019 3.033 2.654 3.033s2.654-1.152 2.654-3.033v-1.169c0-1.872-1.019-3.032-2.654-3.032zm7.225 8.385v-9.536h1.432v1.679h.123c.51-1.187 1.6-1.855 3.05-1.855 2.074 0 3.199 1.239 3.199 3.524v6.188h-1.494v-5.81c0-1.722-.703-2.531-2.188-2.531-1.574 0-2.628 1.099-2.628 2.725v5.616zm11.25-9.053v-1.678l7.558 4.456v1.3l-7.558 4.456v-1.678l6.038-3.349v-.158z" fill="#f0f6fb"/><path d="m377.334 248h180.667v72h-180.667z" fill="#ff7b72" fill-opacity=".5"/><path d="m426.939 266.947-6.046 3.349v.158l6.046 3.349v1.678l-7.558-4.456v-1.3l7.558-4.456zm3.876 2.092c0-1.652 1.407-2.76 3.507-2.76 1.987 0 3.331.993 3.507 2.584h-1.441c-.176-.835-.976-1.344-2.092-1.344-1.213 0-1.995.562-1.995 1.432 0 .73.492 1.143 1.687 1.406l1.345.308c1.855.422 2.698 1.231 2.698 2.61 0 1.758-1.468 2.901-3.726 2.901-2.162 0-3.595-1.011-3.762-2.646h1.52c.22.879 1.064 1.389 2.294 1.389 1.301 0 2.127-.589 2.127-1.503 0-.756-.465-1.16-1.678-1.433l-1.415-.325c-1.723-.395-2.576-1.265-2.576-2.619zm17.174 4.5h1.45c-.29 1.573-1.801 2.637-3.805 2.637-2.619 0-4.14-1.573-4.14-4.289v-1.433c0-2.514 1.609-4.166 4.034-4.166 2.479 0 3.938 1.644 3.938 4.403v.932h-6.495v.387c0 1.749 1.037 2.874 2.663 2.874 1.204 0 2.092-.51 2.355-1.345zm-2.469-5.968c-1.591 0-2.549 1.09-2.549 2.918h5.018c0-1.819-.931-2.918-2.469-2.918zm14.994 1.864h-1.477c-.184-1.117-1.116-1.82-2.347-1.82-1.661 0-2.584 1.134-2.584 3.182v.861c0 2.048.923 3.173 2.584 3.173 1.231 0 2.163-.694 2.347-1.784h1.477c-.238 1.942-1.688 3.129-3.797 3.129-2.593 0-4.105-1.591-4.105-4.324v-1.248c0-2.734 1.512-4.325 4.105-4.325 2.109 0 3.551 1.196 3.797 3.156zm5.528-5.529h1.477v2.584h3.867v1.275h-3.85v5.379c0 1.037.73 1.599 2.074 1.599.536 0 1.494-.026 1.749-.053v1.266c-.237.044-1.397.088-1.854.088-2.364 0-3.463-.897-3.463-2.883v-5.396h-2.54v-1.275h2.54zm12.92.22c-.703 0-1.239-.527-1.239-1.23 0-.695.536-1.222 1.239-1.222s1.239.527 1.239 1.222c0 .703-.536 1.23-1.239 1.23zm3.999 11.874h-7.901v-1.239h3.269v-7.058h-3.243v-1.239h4.72v8.297h3.155zm6.961.176c-2.523 0-4.131-1.644-4.131-4.219v-1.441c0-2.576 1.608-4.219 4.131-4.219 2.522 0 4.131 1.643 4.131 4.219v1.441c0 2.575-1.609 4.219-4.131 4.219zm0-8.561c-1.635 0-2.654 1.16-2.654 3.032v1.169c0 1.881 1.019 3.033 2.654 3.033s2.654-1.152 2.654-3.033v-1.169c0-1.872-1.019-3.032-2.654-3.032zm7.224 8.385v-9.536h1.433v1.679h.123c.51-1.187 1.6-1.855 3.05-1.855 2.074 0 3.199 1.239 3.199 3.524v6.188h-1.494v-5.81c0-1.722-.703-2.531-2.188-2.531-1.574 0-2.628 1.099-2.628 2.725v5.616zm11.25-9.053v-1.678l7.559 4.456v1.3l-7.559 4.456v-1.678l6.039-3.349v-.158z" fill="#f0f6fb"/><path d="m0 328h558v44h-558z" fill="#ffa657" fill-opacity=".5"/><path d="m243.835 346.947-6.047 3.349v.158l6.047 3.349v1.678l-7.559-4.456v-1.3l7.559-4.456zm5.941 9.053v-8.235h-2.557v-1.275h2.557v-.958c0-1.845 1.143-2.707 3.49-2.707.553 0 1.88.044 2.197.088v1.222c-.413-.044-1.644-.079-2.18-.079-1.327 0-2.03.492-2.03 1.45v.984h4.21v1.275h-4.192v8.235zm12.534.176c-2.523 0-4.131-1.644-4.131-4.219v-1.441c0-2.576 1.608-4.219 4.131-4.219 2.522 0 4.13 1.643 4.13 4.219v1.441c0 2.575-1.608 4.219-4.13 4.219zm0-8.561c-1.635 0-2.655 1.16-2.655 3.032v1.169c0 1.881 1.02 3.033 2.655 3.033 1.634 0 2.654-1.152 2.654-3.033v-1.169c0-1.872-1.02-3.032-2.654-3.032zm11.127 8.561c-2.523 0-4.131-1.644-4.131-4.219v-1.441c0-2.576 1.608-4.219 4.131-4.219 2.522 0 4.13 1.643 4.13 4.219v1.441c0 2.575-1.608 4.219-4.13 4.219zm0-8.561c-1.635 0-2.655 1.16-2.655 3.032v1.169c0 1.881 1.02 3.033 2.655 3.033 1.634 0 2.654-1.152 2.654-3.033v-1.169c0-1.872-1.02-3.032-2.654-3.032zm9.501-3.709h1.476v2.584h3.867v1.275h-3.849v5.379c0 1.037.729 1.599 2.074 1.599.536 0 1.494-.026 1.749-.053v1.266c-.237.044-1.398.088-1.855.088-2.364 0-3.462-.897-3.462-2.883v-5.396h-2.541v-1.275h2.541zm15.328 9.633h1.45c-.29 1.573-1.802 2.637-3.806 2.637-2.619 0-4.139-1.573-4.139-4.289v-1.433c0-2.514 1.608-4.166 4.034-4.166 2.478 0 3.937 1.644 3.937 4.403v.932h-6.495v.387c0 1.749 1.037 2.874 2.663 2.874 1.204 0 2.092-.51 2.356-1.345zm-2.47-5.968c-1.591 0-2.549 1.09-2.549 2.918h5.019c0-1.819-.932-2.918-2.47-2.918zm10.643 4.158v3.076h2.954v1.195h-6.337v-1.195h1.924v-7.146h-2.118v-1.195h3.56v2.434h.193c.352-1.766 1.538-2.68 3.375-2.68.545 0 1.064.079 1.38.211v1.678c-.439-.158-1.055-.263-1.573-.263-2.109 0-3.358 1.459-3.358 3.885zm7.726-4.782v-1.678l7.559 4.456v1.3l-7.559 4.456v-1.678l6.038-3.349v-.158z" fill="#f0f6fb"/><path d="m214.389 420.506v-1.496h11.088v1.496zm0-2.332v-1.65l8.932-3.212-8.932-3.278v-1.628l11.088 4.136v1.518zm26.09 1.826h-1.87v-11.176h-4.048v-1.496c.528 0 1.042-.037 1.54-.11.499-.088.946-.242 1.342-.462.411-.22.756-.521 1.034-.902.279-.381.47-.865.572-1.452h1.43zm5.361-10.076c-.044-.792.037-1.525.242-2.2s.521-1.254.946-1.738c.44-.499.983-.887 1.628-1.166s1.379-.418 2.2-.418c.675 0 1.305.103 1.892.308.601.191 1.122.477 1.562.858.44.367.785.829 1.034 1.386.264.557.396 1.203.396 1.936 0 .689-.11 1.298-.33 1.826-.205.528-.484 1.005-.836 1.43-.352.411-.755.785-1.21 1.122s-.924.66-1.408.968c-.484.293-.968.587-1.452.88-.484.279-.931.579-1.342.902-.396.323-.741.675-1.034 1.056-.279.367-.462.792-.55 1.276h8.008v1.65h-10.186c.073-.924.235-1.709.484-2.354.264-.66.594-1.232.99-1.716s.843-.909 1.342-1.276 1.019-.711 1.562-1.034c.66-.411 1.239-.785 1.738-1.122.499-.352.909-.704 1.232-1.056.337-.352.587-.733.748-1.144.176-.411.264-.887.264-1.43 0-.425-.081-.807-.242-1.144-.161-.352-.381-.653-.66-.902-.264-.249-.579-.44-.946-.572s-.755-.198-1.166-.198c-.543 0-1.012.117-1.408.352-.381.22-.697.513-.946.88s-.433.785-.55 1.254c-.103.455-.147.917-.132 1.386zm14.667-1.474c0 .425.073.799.22 1.122.146.308.344.565.594.77.249.205.542.359.88.462.337.103.696.154 1.078.154.748 0 1.364-.22 1.848-.66s.726-1.056.726-1.848-.25-1.386-.748-1.782c-.484-.411-1.108-.616-1.87-.616-.367 0-.719.051-1.056.154-.338.103-.631.257-.88.462-.235.205-.426.455-.572.748-.147.293-.22.638-.22 1.034zm-1.98-.066c0-.645.124-1.21.374-1.694.249-.499.586-.917 1.012-1.254.425-.337.909-.594 1.452-.77.557-.176 1.136-.264 1.738-.264.85 0 1.576.117 2.178.352.601.22 1.085.521 1.452.902.381.367.66.792.836 1.276.176.469.264.953.264 1.452 0 .704-.198 1.349-.594 1.936-.382.572-.902 1.005-1.562 1.298.938.293 1.635.777 2.09 1.452.454.66.682 1.474.682 2.442 0 .763-.14 1.437-.418 2.024-.264.587-.631 1.085-1.1 1.496-.455.396-.998.697-1.628.902-.631.205-1.306.308-2.024.308-.748 0-1.445-.095-2.09-.286-.646-.191-1.21-.484-1.694-.88-.47-.396-.844-.887-1.122-1.474-.264-.601-.396-1.298-.396-2.09 0-.924.234-1.723.704-2.398.469-.689 1.144-1.188 2.024-1.496-.66-.264-1.188-.689-1.584-1.276-.396-.601-.594-1.254-.594-1.958zm1.43 7.216c0 .939.308 1.679.924 2.222.63.528 1.43.792 2.398.792.469 0 .894-.073 1.276-.22.396-.161.733-.374 1.012-.638.293-.279.513-.601.66-.968.161-.367.242-.77.242-1.21 0-.425-.088-.814-.264-1.166-.162-.367-.389-.682-.682-.946-.294-.264-.638-.469-1.034-.616-.382-.161-.792-.242-1.232-.242-.455 0-.888.073-1.298.22-.396.132-.748.33-1.056.594-.294.264-.528.579-.704.946-.162.367-.242.777-.242 1.232zm12.268-3.278c0 .587.015 1.247.044 1.98.044.719.162 1.401.352 2.046.206.631.528 1.166.968 1.606s1.056.66 1.848.66 1.408-.22 1.848-.66.756-.975.946-1.606c.206-.645.323-1.327.352-2.046.044-.733.066-1.393.066-1.98 0-.381-.007-.799-.022-1.254 0-.469-.036-.931-.11-1.386-.058-.469-.154-.924-.286-1.364-.117-.44-.3-.821-.55-1.144-.234-.337-.535-.609-.902-.814-.366-.205-.814-.308-1.342-.308s-.975.103-1.342.308c-.366.205-.674.477-.924.814-.234.323-.418.704-.55 1.144-.117.44-.212.895-.286 1.364-.058.455-.095.917-.11 1.386zm-1.98.022c0-.572.015-1.166.044-1.782.03-.616.103-1.217.22-1.804.118-.587.286-1.144.506-1.672s.521-.99.902-1.386c.382-.396.858-.711 1.43-.946.587-.235 1.284-.352 2.09-.352.807 0 1.496.117 2.068.352.587.235 1.071.55 1.452.946.382.396.682.858.902 1.386s.389 1.085.506 1.672c.118.587.191 1.188.22 1.804.03.616.044 1.21.044 1.782s-.014 1.166-.044 1.782c-.029.616-.102 1.217-.22 1.804-.117.587-.286 1.144-.506 1.672-.22.513-.52.968-.902 1.364-.381.396-.858.711-1.43.946-.572.22-1.268.33-2.09.33-.806 0-1.503-.11-2.09-.33-.572-.235-1.048-.55-1.43-.946-.381-.396-.682-.851-.902-1.364-.22-.528-.388-1.085-.506-1.672-.117-.587-.19-1.188-.22-1.804-.029-.616-.044-1.21-.044-1.782zm18.898-3.718h1.87v1.54h.044c.308-.631.792-1.085 1.452-1.364.66-.293 1.386-.44 2.178-.44.88 0 1.643.161 2.288.484.66.323 1.203.763 1.628 1.32.44.543.77 1.173.99 1.892s.33 1.481.33 2.288-.11 1.569-.33 2.288c-.205.719-.528 1.349-.968 1.892-.425.528-.968.946-1.628 1.254-.645.308-1.401.462-2.266.462-.279 0-.594-.029-.946-.088-.337-.059-.675-.154-1.012-.286s-.66-.308-.968-.528c-.293-.235-.543-.521-.748-.858h-.044v5.852h-1.87zm8.8 5.588c0-.528-.073-1.041-.22-1.54-.132-.513-.345-.968-.638-1.364-.279-.396-.645-.711-1.1-.946-.44-.235-.961-.352-1.562-.352-.631 0-1.166.125-1.606.374s-.799.579-1.078.99c-.279.396-.484.851-.616 1.364-.117.513-.176 1.034-.176 1.562 0 .557.066 1.1.198 1.628.132.513.337.968.616 1.364.293.396.667.719 1.122.968.455.235 1.005.352 1.65.352s1.181-.125 1.606-.374c.44-.249.792-.579 1.056-.99s.455-.88.572-1.408.176-1.071.176-1.628zm6.155-7.634h-1.87v-2.288h1.87zm-1.87 2.046h1.87v11.374h-1.87zm7.825 5.39-3.96-5.39h2.398l2.728 3.982 2.838-3.982h2.244l-3.916 5.236 4.4 6.138h-2.398l-3.168-4.708-3.168 4.708h-2.266zm16.227-.792c-.03-.44-.132-.858-.308-1.254-.162-.396-.389-.733-.682-1.012-.279-.293-.616-.521-1.012-.682-.382-.176-.807-.264-1.276-.264-.484 0-.924.088-1.32.264-.382.161-.712.389-.99.682-.279.293-.499.638-.66 1.034-.162.381-.257.792-.286 1.232zm1.804 3.168c-.25 1.276-.8 2.237-1.65 2.882-.851.645-1.922.968-3.212.968-.91 0-1.702-.147-2.376-.44-.66-.293-1.218-.704-1.672-1.232-.455-.528-.8-1.159-1.034-1.892-.22-.733-.345-1.533-.374-2.398 0-.865.132-1.657.396-2.376s.63-1.342 1.1-1.87c.484-.528 1.048-.939 1.694-1.232.66-.293 1.378-.44 2.156-.44 1.012 0 1.848.213 2.508.638.674.411 1.21.939 1.606 1.584.41.645.689 1.349.836 2.112.161.763.227 1.489.198 2.178h-8.514c-.015.499.044.975.176 1.43.132.44.344.836.638 1.188.293.337.667.609 1.122.814.454.205.99.308 1.606.308.792 0 1.437-.183 1.936-.55.513-.367.85-.924 1.012-1.672zm2.224-12.1h1.87v15.708h-1.87zm5.911 12.122c.015.411.11.763.286 1.056.176.279.403.506.682.682.293.161.616.279.968.352.367.073.741.11 1.122.11.293 0 .601-.022.924-.066s.616-.125.88-.242c.279-.117.506-.286.682-.506.176-.235.264-.528.264-.88 0-.484-.183-.851-.55-1.1s-.829-.447-1.386-.594c-.543-.161-1.137-.301-1.782-.418-.645-.132-1.247-.308-1.804-.528-.543-.235-.997-.557-1.364-.968s-.55-.983-.55-1.716c0-.572.125-1.063.374-1.474.264-.411.594-.741.99-.99.411-.264.865-.455 1.364-.572.513-.132 1.019-.198 1.518-.198.645 0 1.239.059 1.782.176.543.103 1.019.293 1.43.572.425.264.763.631 1.012 1.1.249.455.396 1.027.44 1.716h-1.87c-.029-.367-.125-.667-.286-.902-.161-.249-.367-.447-.616-.594s-.528-.249-.836-.308c-.293-.073-.594-.11-.902-.11-.279 0-.565.022-.858.066-.279.044-.535.125-.77.242-.235.103-.425.249-.572.44-.147.176-.22.411-.22.704 0 .323.11.594.33.814.235.205.528.381.88.528.352.132.748.249 1.188.352.44.088.88.183 1.32.286.469.103.924.227 1.364.374.455.147.851.345 1.188.594.352.235.631.535.836.902.22.367.33.821.33 1.364 0 .689-.147 1.261-.44 1.716-.279.455-.653.821-1.122 1.1-.455.279-.975.469-1.562.572-.572.117-1.144.176-1.716.176-.631 0-1.232-.066-1.804-.198s-1.078-.345-1.518-.638c-.44-.308-.792-.704-1.056-1.188-.264-.499-.411-1.1-.44-1.804z" fill="#fff" fill-opacity=".333333"/><path d="m0 396h558" stroke="#fff" stroke-opacity=".333333" stroke-width="1.5"/></svg>