<svg width="563" height="452" viewBox="0 0 563 452" fill="none" xmlns="http://www.w3.org/2000/svg">
<g opacity="0.5">
<rect x="134" y="33" width="105" height="78" fill="#87CEFA" stroke="#87CEFA" stroke-width="1.5"/>
<path d="M29 111H133.75V189H29V111Z" fill="#FF6347"/>
<path d="M29 111V110.25H28.25V111H29ZM29 189H28.25V189.75H29V189ZM29 111V111.75H133.75V111V110.25H29V111ZM133.75 189V188.25H29V189V189.75H133.75V189ZM29 189H29.75V111H29H28.25V189H29Z" fill="#FF6347"/>
<rect x="133.75" y="111" width="106" height="78" fill="#A56CDF" stroke="#A56CDF"/>
<path d="M239.75 111H344.5V189H239.75V111Z" fill="#FF6347"/>
<path d="M344.5 111H345.25V110.25H344.5V111ZM344.5 189V189.75H345.25V189H344.5ZM239.75 111V111.75H344.5V111V110.25H239.75V111ZM344.5 111H343.75V189H344.5H345.25V111H344.5ZM344.5 189V188.25H239.75V189V189.75H344.5V189Z" fill="#FF6347"/>
<rect x="344.5" y="111" width="104.75" height="78" fill="#FF6347" stroke="#FF6347" stroke-width="1.5"/>
<rect x="449.25" y="111" width="104.75" height="78" fill="#FF6347" stroke="#FF6347" stroke-width="1.5"/>
<path d="M134 189H239V267H134V189Z" fill="#87CEFA"/>
<path d="M239 267V267.75H239.75V267H239ZM134 267H133.25V267.75H134V267ZM239 189H238.25V267H239H239.75V189H239ZM239 267V266.25H134V267V267.75H239V267ZM134 267H134.75V189H134H133.25V267H134Z" fill="#87CEFA"/>
<line x1="133.25" y1="189" x2="238.25" y2="189" stroke="#A56CDF" stroke-width="1.5"/>
<rect x="134" y="267" width="105" height="78" fill="#87CEFA" stroke="#87CEFA" stroke-width="1.5"/>
<rect x="344" y="267" width="105" height="78" fill="#98FB98" stroke="#98FB98" stroke-width="1.5"/>
<rect x="449" y="267" width="105" height="78" fill="#98FB98" stroke="#98FB98" stroke-width="1.5"/>
<rect x="134" y="345" width="105" height="78" fill="#87CEFA" stroke="#87CEFA" stroke-width="1.5"/>
<rect x="344" y="345" width="105" height="78" fill="#98FB98" stroke="#98FB98" stroke-width="1.5"/>
<rect x="449" y="345" width="105" height="78" fill="#98FB98" stroke="#98FB98" stroke-width="1.5"/>
</g>
<g opacity="0.2">
<rect x="29" y="33" width="105" height="78" stroke="black" stroke-width="1.5" stroke-linejoin="round"/>
<rect x="134" y="33" width="105" height="78" stroke="black" stroke-width="1.5" stroke-linejoin="round"/>
<rect x="239" y="33" width="105" height="78" stroke="black" stroke-width="1.5" stroke-linejoin="round"/>
<rect x="344" y="33" width="105" height="78" stroke="black" stroke-width="1.5" stroke-linejoin="round"/>
<rect x="449" y="33" width="105" height="78" stroke="black" stroke-width="1.5" stroke-linejoin="round"/>
<rect x="29" y="111" width="105" height="78" stroke="black" stroke-width="1.5" stroke-linejoin="round"/>
<rect x="134" y="111" width="105" height="78" stroke="black" stroke-width="1.5" stroke-linejoin="round"/>
<rect x="239" y="111" width="105" height="78" stroke="black" stroke-width="1.5" stroke-linejoin="round"/>
<rect x="344" y="111" width="105" height="78" stroke="black" stroke-width="1.5" stroke-linejoin="round"/>
<rect x="449" y="111" width="105" height="78" stroke="black" stroke-width="1.5" stroke-linejoin="round"/>
<rect x="29" y="189" width="105" height="78" stroke="black" stroke-width="1.5" stroke-linejoin="round"/>
<rect x="134" y="189" width="105" height="78" stroke="black" stroke-width="1.5" stroke-linejoin="round"/>
<rect x="239" y="189" width="105" height="78" stroke="black" stroke-width="1.5" stroke-linejoin="round"/>
<rect x="344" y="189" width="105" height="78" stroke="black" stroke-width="1.5" stroke-linejoin="round"/>
<rect x="449" y="189" width="105" height="78" stroke="black" stroke-width="1.5" stroke-linejoin="round"/>
<rect x="29" y="267" width="105" height="78" stroke="black" stroke-width="1.5" stroke-linejoin="round"/>
<rect x="134" y="267" width="105" height="78" stroke="black" stroke-width="1.5" stroke-linejoin="round"/>
<rect x="239" y="267" width="105" height="78" stroke="black" stroke-width="1.5" stroke-linejoin="round"/>
<rect x="344" y="267" width="105" height="78" stroke="black" stroke-width="1.5" stroke-linejoin="round"/>
<rect x="449" y="267" width="105" height="78" stroke="black" stroke-width="1.5" stroke-linejoin="round"/>
<rect x="29" y="345" width="105" height="78" stroke="black" stroke-width="1.5" stroke-linejoin="round"/>
<rect x="134" y="345" width="105" height="78" stroke="black" stroke-width="1.5" stroke-linejoin="round"/>
<rect x="239" y="345" width="105" height="78" stroke="black" stroke-width="1.5" stroke-linejoin="round"/>
<rect x="344" y="345" width="105" height="78" stroke="black" stroke-width="1.5" stroke-linejoin="round"/>
<rect x="449" y="345" width="105" height="78" stroke="black" stroke-width="1.5" stroke-linejoin="round"/>
</g>
<path d="M8.42792 22.807C8.92168 22.807 9.32463 23.2043 9.32463 23.6981V38C9.32463 38.4938 8.92168 38.8967 8.42792 38.8967C7.93417 38.8967 7.53121 38.4938 7.53121 38V25.9739L6.83314 26.723C6.66856 26.899 6.44154 27.0125 6.18048 27.0125C5.68672 27.0125 5.28377 26.6095 5.28377 26.1158C5.28377 25.8831 5.38025 25.6674 5.52781 25.5085L7.77526 23.0908C7.85471 23.0057 8.07605 22.807 8.42792 22.807Z" fill="black" fill-opacity="0.5"/>
<path d="M10.3417 105.248C10.3417 104.011 8.79228 102.989 6.92509 102.989C6.22702 102.989 5.60272 103.131 5.09762 103.358C4.69467 103.54 4.37684 103.773 4.16118 104.017C3.91714 104.289 3.79796 104.567 3.77526 104.817C3.77526 104.817 3.69013 105.81 3.6731 105.98C3.6504 106.451 3.2588 106.832 2.78207 106.832C2.28831 106.832 1.88536 106.429 1.88536 105.935V105.929C1.88536 105.89 1.88536 105.89 1.99319 104.658C2.05562 103.96 2.37344 103.33 2.83314 102.819C3.24177 102.365 3.7639 102.002 4.35982 101.73C5.10897 101.389 5.98297 101.202 6.92509 101.202C9.8252 101.202 12.1294 102.984 12.1294 105.248C12.1294 105.436 12.1124 106.1 11.9137 106.718C11.454 108.137 10.2679 108.818 8.6731 109.738C6.11918 111.207 4.17253 112.348 3.75255 115.504H12.0329C12.5267 115.504 12.9296 115.907 12.9296 116.4C12.9296 116.894 12.5267 117.297 12.0329 117.297H2.78207C2.28831 117.297 1.88536 116.894 1.88536 116.4C1.88536 116.389 1.89103 116.378 1.89103 116.366C2.02157 112.649 3.7412 110.793 5.75028 109.425C6.40863 108.977 7.09535 108.585 7.78207 108.188C8.84904 107.575 9.62656 107.121 9.98978 106.61C10.1657 106.366 10.319 106.026 10.3417 105.299V105.248Z" fill="black" fill-opacity="0.5"/>
<path d="M8.87685 185.056C11.1527 185.3 13.1334 187.253 13.1334 190.056C13.1334 193.189 10.71 195.697 7.24801 195.697C6.05619 195.697 5.02894 195.425 4.19467 194.96C3.14472 194.375 2.42963 193.501 1.9983 192.565C1.99262 192.553 1.98695 192.553 1.45914 191.322C1.41373 191.214 1.38536 191.095 1.38536 190.97C1.38536 190.476 1.78831 190.073 2.28207 190.073C2.65096 190.073 2.96879 190.3 3.10499 190.618C3.62713 191.838 3.62713 191.833 3.62713 191.833C3.88252 192.383 4.72815 193.904 7.24801 193.904C9.68842 193.904 11.3513 192.241 11.3513 190.056C11.3513 187.996 9.83031 186.821 8.39444 186.821C7.53746 186.821 6.91317 186.861 6.36266 187.105C6.24915 187.156 6.12429 187.184 5.99943 187.184C5.50568 187.184 5.1084 186.776 5.1084 186.288C5.1084 186.169 5.13678 185.817 5.46595 185.573C7.7815 183.853 8.78604 182.707 9.3479 181.396H2.63961C2.14586 181.396 1.74858 180.993 1.74858 180.499C1.74858 180.005 2.14586 179.602 2.63961 179.602H10.5851C11.0846 179.602 11.4818 180.011 11.4818 180.499C11.4818 180.544 11.4762 180.629 11.4535 180.726C10.9994 182.474 10.2276 183.739 8.87685 185.056Z" fill="black" fill-opacity="0.5"/>
<path d="M8.63791 259.794H8.23496L2.67877 267.007V267.263H8.63791V259.794ZM9.52895 258.001C10.0227 258.001 10.42 258.404 10.42 258.897V267.263H12.5085C13.0023 267.263 13.4052 267.666 13.4052 268.159C13.4052 268.653 13.0023 269.056 12.5085 269.056L10.42 269.051V273.199C10.42 273.693 10.0227 274.096 9.52895 274.096C9.03519 274.096 8.63791 273.693 8.63791 273.199V269.051H1.78207C1.28263 269.051 0.885358 268.648 0.885358 268.159V266.701C0.885358 266.502 0.953462 266.315 1.07264 266.156L7.08854 258.352C7.2588 258.131 7.51986 258.001 7.79796 258.001H9.52895Z" fill="black" fill-opacity="0.5"/>
<path d="M3.33258 344.988C2.83882 344.988 2.43587 344.591 2.43587 344.097C2.43587 344.057 2.44154 344.012 2.44722 343.972L3.40068 337.173C3.46311 336.736 3.84336 336.401 4.28604 336.401H10.6425C11.1362 336.401 11.5335 336.804 11.5335 337.298C11.5335 337.791 11.1362 338.194 10.6425 338.194H5.06356L4.54711 341.855C5.35301 341.418 6.27242 341.168 7.23723 341.168C10.3644 341.168 12.8956 343.705 12.8956 346.832C12.8956 349.959 10.3644 352.496 7.23723 352.496C5.09762 352.496 3.42906 351.231 2.37344 349.727L2.04994 349.261C1.94779 349.114 1.88536 348.932 1.88536 348.751V348.745C1.88536 348.251 2.28831 347.854 2.78207 347.854C3.11124 347.854 3.40068 348.03 3.55392 348.297C3.63905 348.421 3.84336 348.705 3.84336 348.705C4.67764 349.897 5.84677 350.703 7.23723 350.703C9.37685 350.703 11.1135 348.972 11.1135 346.832C11.1135 344.693 9.37685 342.962 7.23723 342.962C6.67537 342.962 6.11918 343.087 5.61975 343.319C4.99546 343.609 4.45062 344.057 4.0647 344.608C3.97389 344.738 3.84904 344.846 3.69013 344.914C3.57662 344.965 3.45176 344.988 3.33258 344.988Z" fill="black" fill-opacity="0.5"/>
<path d="M7.92395 430.897C4.25766 430.897 1.88536 427.889 1.88536 422.605C1.88536 421.283 2.07832 418.49 4.16118 416.43C5.34733 415.255 6.44835 414.801 8.22475 414.801C9.63791 414.801 10.8127 415.363 11.6129 416.067C11.8627 416.288 12.0726 416.521 12.2429 416.759C12.2713 416.799 12.2713 416.805 12.8275 417.787C12.9012 417.917 12.9467 418.065 12.9467 418.224C12.9467 418.717 12.5437 419.12 12.0499 419.12C11.7151 419.12 11.4257 418.939 11.2724 418.666C10.7616 417.77 10.7616 417.764 10.7616 417.764C10.6481 417.616 10.319 417.225 9.70034 416.924C9.28604 416.725 8.78661 416.583 8.22475 416.583C6.91941 416.583 6.27242 416.862 5.42111 417.701C4.78547 418.331 4.37117 419.058 4.10443 419.824C3.76958 420.778 3.67877 421.776 3.67877 422.605V422.934C5.06924 421.169 6.7605 421.067 7.77072 421.067C10.6992 421.067 13.1339 422.934 13.1339 426.101C13.1339 428.854 10.9376 430.897 7.92395 430.897ZM11.3519 426.101C11.3519 423.74 9.46198 422.86 7.77072 422.86C6.7378 422.86 5.79569 423.025 4.95006 424.217C4.66061 424.625 4.37684 425.17 4.11578 425.908C4.5017 427.174 5.2395 428.439 6.63564 428.91C7.01022 429.035 7.44154 429.103 7.92395 429.103C9.87628 429.103 11.3519 427.923 11.3519 426.101Z" fill="black" fill-opacity="0.5"/>
<path d="M29.4279 4.80704C29.9217 4.80704 30.3246 5.20431 30.3246 5.69807V20C30.3246 20.4938 29.9217 20.8967 29.4279 20.8967C28.9342 20.8967 28.5312 20.4938 28.5312 20V7.97389L27.8331 8.72304C27.6686 8.89898 27.4415 9.01249 27.1805 9.01249C26.6867 9.01249 26.2838 8.60953 26.2838 8.11578C26.2838 7.88309 26.3802 7.66742 26.5278 7.50851L28.7753 5.09081C28.8547 5.00567 29.076 4.80704 29.4279 4.80704Z" fill="black" fill-opacity="0.5"/>
<path d="M132.742 8.8479C132.742 7.61067 131.193 6.5891 129.325 6.5891C128.627 6.5891 128.003 6.73099 127.498 6.958C127.095 7.13961 126.777 7.3723 126.562 7.61634C126.318 7.88876 126.198 8.16686 126.176 8.41657C126.176 8.41657 126.091 9.40976 126.073 9.58002C126.051 10.0511 125.659 10.4313 125.182 10.4313C124.689 10.4313 124.286 10.0284 124.286 9.53462V9.52894C124.286 9.48922 124.286 9.48922 124.394 8.25766C124.456 7.55959 124.774 6.92963 125.234 6.41884C125.642 5.96481 126.164 5.60159 126.76 5.32917C127.509 4.98865 128.383 4.80136 129.325 4.80136C132.226 4.80136 134.53 6.58343 134.53 8.8479C134.53 9.03519 134.513 9.69921 134.314 10.3178C133.854 11.7367 132.668 12.4177 131.073 13.3371C128.52 14.807 126.573 15.9478 126.153 19.1033H134.433C134.927 19.1033 135.33 19.5062 135.33 20C135.33 20.4938 134.927 20.8967 134.433 20.8967H125.182C124.689 20.8967 124.286 20.4938 124.286 20C124.286 19.9886 124.291 19.9773 124.291 19.9659C124.422 16.2486 126.142 14.3927 128.151 13.025C128.809 12.5766 129.496 12.185 130.182 11.7877C131.249 11.1748 132.027 10.7208 132.39 10.21C132.566 9.96595 132.719 9.62543 132.742 8.89898V8.8479Z" fill="black" fill-opacity="0.5"/>
<path d="M237.178 10.2554C239.453 10.4994 241.434 12.4518 241.434 15.2554C241.434 18.3882 239.011 20.8967 235.549 20.8967C234.357 20.8967 233.33 20.6243 232.495 20.1589C231.446 19.5743 230.73 18.7003 230.299 17.7639C230.293 17.7526 230.288 17.7526 229.76 16.521C229.715 16.4132 229.686 16.294 229.686 16.1691C229.686 15.6754 230.089 15.2724 230.583 15.2724C230.952 15.2724 231.27 15.4994 231.406 15.8173C231.928 17.0375 231.928 17.0318 231.928 17.0318C232.183 17.5823 233.029 19.1033 235.549 19.1033C237.989 19.1033 239.652 17.4404 239.652 15.2554C239.652 13.1952 238.131 12.0204 236.695 12.0204C235.838 12.0204 235.214 12.0602 234.663 12.3042C234.55 12.3553 234.425 12.3837 234.3 12.3837C233.806 12.3837 233.409 11.975 233.409 11.4869C233.409 11.3678 233.438 11.0159 233.767 10.7718C236.082 9.05221 237.087 7.90579 237.649 6.59478H230.94C230.447 6.59478 230.049 6.19183 230.049 5.69807C230.049 5.20431 230.447 4.80136 230.94 4.80136H238.886C239.385 4.80136 239.783 5.20999 239.783 5.69807C239.783 5.74347 239.777 5.8286 239.754 5.92508C239.3 7.6731 238.528 8.93871 237.178 10.2554Z" fill="black" fill-opacity="0.5"/>
<path d="M343.837 6.59478H343.434L337.878 13.8082V14.0636H343.837V6.59478ZM344.728 4.80136C345.222 4.80136 345.619 5.20431 345.619 5.69807V14.0636H347.708C348.201 14.0636 348.604 14.4665 348.604 14.9603C348.604 15.454 348.201 15.857 347.708 15.857L345.619 15.8513V20C345.619 20.4938 345.222 20.8967 344.728 20.8967C344.234 20.8967 343.837 20.4938 343.837 20V15.8513H336.981C336.482 15.8513 336.085 15.4484 336.085 14.9603V13.5017C336.085 13.3031 336.153 13.1158 336.272 12.9569L342.288 5.15323C342.458 4.93189 342.719 4.80136 342.997 4.80136H344.728Z" fill="black" fill-opacity="0.5"/>
<path d="M444.932 13.3882C444.438 13.3882 444.035 12.9909 444.035 12.4972C444.035 12.4574 444.041 12.412 444.047 12.3723L445 5.57321C445.063 5.13621 445.443 4.80136 445.886 4.80136H452.242C452.736 4.80136 453.133 5.20431 453.133 5.69807C453.133 6.19183 452.736 6.59478 452.242 6.59478H446.663L446.147 10.2554C446.953 9.81839 447.872 9.56867 448.837 9.56867C451.964 9.56867 454.495 12.1056 454.495 15.2327C454.495 18.3598 451.964 20.8967 448.837 20.8967C446.697 20.8967 445.029 19.6311 443.973 18.1271L443.65 17.6617C443.547 17.5142 443.485 17.3326 443.485 17.151V17.1453C443.485 16.6515 443.888 16.2543 444.382 16.2543C444.711 16.2543 445 16.4302 445.154 16.6969C445.239 16.8218 445.443 17.1056 445.443 17.1056C446.277 18.2974 447.446 19.1033 448.837 19.1033C450.976 19.1033 452.713 17.3723 452.713 15.2327C452.713 13.0931 450.976 11.3621 448.837 11.3621C448.275 11.3621 447.719 11.4869 447.219 11.7196C446.595 12.0091 446.05 12.4574 445.664 13.0079C445.574 13.1385 445.449 13.2463 445.29 13.3144C445.176 13.3655 445.051 13.3882 444.932 13.3882Z" fill="black" fill-opacity="0.5"/>
<path d="M554.924 20.8967C551.258 20.8967 548.885 17.8888 548.885 12.605C548.885 11.2826 549.078 8.49035 551.161 6.43019C552.347 5.25539 553.448 4.80136 555.225 4.80136C556.638 4.80136 557.813 5.36322 558.613 6.06697C558.863 6.28831 559.073 6.521 559.243 6.75936C559.271 6.79909 559.271 6.80477 559.827 7.78661C559.901 7.91714 559.947 8.0647 559.947 8.22361C559.947 8.71737 559.544 9.12032 559.05 9.12032C558.715 9.12032 558.426 8.93871 558.272 8.66629C557.762 7.76958 557.762 7.7639 557.762 7.7639C557.648 7.61634 557.319 7.22474 556.7 6.92395C556.286 6.72531 555.787 6.58343 555.225 6.58343C553.919 6.58343 553.272 6.86152 552.421 7.70147C551.785 8.33144 551.371 9.05789 551.104 9.82406C550.77 10.7775 550.679 11.7764 550.679 12.605V12.9342C552.069 11.1691 553.76 11.067 554.771 11.067C557.699 11.067 560.134 12.9342 560.134 16.101C560.134 18.8536 557.938 20.8967 554.924 20.8967ZM558.352 16.101C558.352 13.7401 556.462 12.8604 554.771 12.8604C553.738 12.8604 552.796 13.025 551.95 14.2168C551.661 14.6254 551.377 15.1703 551.116 15.9081C551.502 17.1737 552.24 18.4393 553.636 18.9103C554.01 19.0352 554.442 19.1033 554.924 19.1033C556.876 19.1033 558.352 17.9228 558.352 16.101Z" fill="black" fill-opacity="0.5"/>
<path d="M226.026 450C226.026 450.658 225.492 451.192 224.834 451.192H215.583C214.97 451.192 214.453 450.726 214.397 450.108C214.391 450.074 214.391 450.034 214.391 450V435.698C214.391 435.034 214.93 434.506 215.583 434.506H215.589C216.247 434.506 216.78 435.04 216.78 435.698V448.802H224.834C225.492 448.802 226.026 449.336 226.026 449.994V450ZM230.798 451.192C230.145 451.192 229.606 450.664 229.606 450V435.698C229.606 435.034 230.145 434.506 230.798 434.506H230.803C231.462 434.506 231.995 435.04 231.995 435.698V450C231.995 450.664 231.456 451.192 230.803 451.192H230.798ZM235.563 435.698C235.563 435.034 236.102 434.506 236.755 434.506H237.351C237.782 434.506 238.179 434.739 238.389 435.114L244.814 446.515V435.698C244.814 435.04 245.347 434.506 246.006 434.506C246.664 434.506 247.197 435.04 247.197 435.698V450C247.197 450.658 246.664 451.192 246.006 451.192H245.41C244.978 451.192 244.581 450.959 244.371 450.585L237.947 439.183V450C237.947 450.658 237.413 451.192 236.755 451.192C236.096 451.192 235.563 450.658 235.563 450V435.698ZM250.778 435.698C250.778 435.034 251.317 434.506 251.97 434.506H260.835C261.493 434.506 262.026 435.04 262.026 435.698V435.704C262.026 436.362 261.493 436.896 260.835 436.896H253.167V441.209H258.264C258.922 441.209 259.455 441.742 259.455 442.401V442.406C259.455 443.059 258.922 443.598 258.264 443.598H253.167V448.802H261.22C261.879 448.802 262.412 449.336 262.412 449.994V450C262.412 450.658 261.879 451.192 261.22 451.192H251.97C251.357 451.192 250.84 450.726 250.783 450.108C250.778 450.074 250.778 450.034 250.778 450V435.698Z" fill="black"/>
<path d="M168.414 151.495C169.072 151.495 169.606 152.028 169.606 152.687C169.606 152.704 169.606 152.743 169.6 152.795C169.515 153.765 169.214 154.679 168.721 155.479C168.284 156.188 167.693 156.807 166.99 157.272C166.11 157.851 165.043 158.192 163.885 158.192C162.631 158.192 161.484 157.715 160.542 156.949C158.738 155.473 157.557 152.84 157.557 149.849C157.557 145.218 160.378 141.506 163.885 141.506C165.009 141.506 166.019 141.835 166.853 142.403C167.517 142.857 168.056 143.447 168.471 144.111C168.919 144.826 169.237 145.661 169.402 146.58C169.413 146.648 169.419 146.711 169.419 146.784C169.419 147.443 168.885 147.976 168.227 147.976C167.642 147.976 167.148 147.556 167.052 146.994C166.944 146.393 166.734 145.831 166.445 145.365C166.03 144.701 165.247 143.89 163.885 143.89C163.249 143.89 162.631 144.123 162.046 144.599C160.815 145.604 159.941 147.573 159.941 149.849C159.941 151.137 160.224 152.323 160.684 153.288C161.053 154.06 161.53 154.679 162.046 155.099C162.631 155.575 163.249 155.808 163.885 155.808C164.577 155.808 165.173 155.61 165.679 155.28C166.57 154.69 167.131 153.68 167.228 152.579C167.279 151.966 167.79 151.495 168.414 151.495ZM173.182 142.698C173.182 142.034 173.721 141.506 174.374 141.506H183.239C183.897 141.506 184.431 142.04 184.431 142.698V142.704C184.431 143.362 183.897 143.896 183.239 143.896H175.571V148.209H180.668C181.326 148.209 181.86 148.742 181.86 149.401V149.406C181.86 150.059 181.326 150.598 180.668 150.598H175.571V155.802H183.625C184.283 155.802 184.817 156.336 184.817 156.994V157C184.817 157.658 184.283 158.192 183.625 158.192H174.374C173.761 158.192 173.244 157.726 173.188 157.108C173.182 157.074 173.182 157.034 173.182 157V142.698ZM200.031 157C200.031 157.658 199.498 158.192 198.84 158.192H189.589C188.976 158.192 188.459 157.726 188.403 157.108C188.397 157.074 188.397 157.034 188.397 157V142.698C188.397 142.034 188.936 141.506 189.589 141.506H189.594C190.253 141.506 190.786 142.04 190.786 142.698V155.802H198.84C199.498 155.802 200.031 156.336 200.031 156.994V157ZM215.246 157C215.246 157.658 214.713 158.192 214.054 158.192H204.804C204.191 158.192 203.674 157.726 203.617 157.108C203.612 157.074 203.612 157.034 203.612 157V142.698C203.612 142.034 204.151 141.506 204.804 141.506H204.809C205.468 141.506 206.001 142.04 206.001 142.698V155.802H214.054C214.713 155.802 215.246 156.336 215.246 156.994V157Z" fill="black"/>
<g filter="url(#filter0_d_392_244)">
<path d="M425.494 340.564L423.661 346.041H427.322L425.494 340.564ZM431.765 352C431.765 352.658 431.232 353.192 430.574 353.192C430.046 353.192 429.603 352.851 429.444 352.38L428.116 348.425H422.866L421.538 352.38C421.38 352.851 420.937 353.192 420.409 353.192C419.751 353.192 419.217 352.658 419.217 352C419.217 351.869 419.24 351.739 419.28 351.62L424.064 337.318C424.229 336.835 424.683 336.506 425.193 336.506H425.789C426.3 336.506 426.754 336.835 426.919 337.318L431.703 351.62C431.743 351.739 431.765 351.869 431.765 352ZM447.251 341.052C447.251 342.982 445.923 344.645 444.039 345.303L447.126 351.467C447.206 351.625 447.251 351.807 447.251 352C447.251 352.658 446.718 353.192 446.059 353.192C445.594 353.192 445.185 352.919 444.992 352.533L441.525 345.604H437.734V352C437.734 352.658 437.2 353.192 436.542 353.192C435.884 353.192 435.35 352.658 435.35 352V337.698C435.35 337.034 435.889 336.506 436.542 336.506H442.263C445.027 336.506 447.251 338.549 447.251 341.052ZM444.868 341.052C444.868 339.86 443.687 338.89 442.263 338.89H437.734V343.215H442.263C443.687 343.215 444.868 342.244 444.868 341.052ZM450.819 337.698C450.819 337.034 451.358 336.506 452.011 336.506H460.876C461.534 336.506 462.067 337.04 462.067 337.698V337.704C462.067 338.362 461.534 338.896 460.876 338.896H453.208V343.209H458.305C458.963 343.209 459.496 343.742 459.496 344.401V344.406C459.496 345.059 458.963 345.598 458.305 345.598H453.208V350.802H461.261C461.92 350.802 462.453 351.336 462.453 351.994V352C462.453 352.658 461.92 353.192 461.261 353.192H452.011C451.398 353.192 450.881 352.726 450.824 352.108C450.819 352.074 450.819 352.034 450.819 352V337.698ZM472.311 340.564L470.477 346.041H474.138L472.311 340.564ZM478.582 352C478.582 352.658 478.048 353.192 477.39 353.192C476.862 353.192 476.42 352.851 476.261 352.38L474.933 348.425H469.683L468.355 352.38C468.196 352.851 467.753 353.192 467.225 353.192C466.567 353.192 466.034 352.658 466.034 352C466.034 351.869 466.056 351.739 466.096 351.62L470.88 337.318C471.045 336.835 471.499 336.506 472.01 336.506H472.606C473.116 336.506 473.571 336.835 473.735 337.318L478.519 351.62C478.559 351.739 478.582 351.869 478.582 352Z" fill="black"/>
</g>
<g filter="url(#filter1_d_392_244)">
<path d="M168.698 344.673C168.034 344.673 167.506 344.134 167.506 343.482L167.506 332.755C167.506 332.102 168.034 331.563 168.698 331.563L168.704 331.563C169.362 331.563 169.896 332.097 169.896 332.755L169.896 336.921L183 336.921C183.658 336.921 184.192 337.454 184.192 338.113C184.192 338.771 183.658 339.305 183 339.305L169.896 339.31L169.896 343.482C169.896 344.14 169.362 344.673 168.704 344.673L168.698 344.673ZM172.052 316.092C173.982 316.092 175.645 317.421 176.303 319.305L182.467 316.217C182.625 316.138 182.807 316.092 183 316.092C183.658 316.092 184.192 316.626 184.192 317.284C184.192 317.75 183.919 318.158 183.533 318.351L176.604 321.819L176.604 325.61L183 325.61C183.658 325.61 184.192 326.144 184.192 326.802C184.192 327.46 183.658 327.994 183 327.994L168.698 327.994C168.034 327.994 167.506 327.455 167.506 326.802L167.506 321.081C167.506 318.317 169.549 316.092 172.052 316.092ZM172.052 318.476C170.86 318.476 169.89 319.657 169.89 321.081L169.89 325.61L174.215 325.61L174.215 321.081C174.215 319.657 173.244 318.476 172.052 318.476ZM171.564 306.248L177.041 308.081L177.041 304.421L171.564 306.248ZM183 299.977C183.658 299.977 184.192 300.51 184.192 301.169C184.192 301.696 183.851 302.139 183.38 302.298L179.425 303.626L179.425 308.876L183.38 310.204C183.851 310.363 184.192 310.805 184.192 311.333C184.192 311.991 183.658 312.525 183 312.525C182.869 312.525 182.739 312.502 182.62 312.463L168.318 307.678C167.835 307.514 167.506 307.06 167.506 306.549L167.506 305.953C167.506 305.442 167.835 304.988 168.318 304.823L182.62 300.039C182.739 299.999 182.869 299.977 183 299.977ZM177.495 285.535C177.495 284.877 178.028 284.343 178.687 284.343C178.704 284.343 178.743 284.343 178.795 284.349C179.765 284.434 180.679 284.735 181.479 285.229C182.188 285.666 182.807 286.256 183.272 286.96C183.851 287.839 184.192 288.906 184.192 290.064C184.192 291.318 183.715 292.465 182.949 293.407C181.473 295.212 178.84 296.392 175.849 296.392C171.218 296.392 167.506 293.571 167.506 290.064C167.506 288.94 167.835 287.93 168.403 287.096C168.857 286.432 169.447 285.893 170.111 285.478C170.826 285.03 171.661 284.712 172.58 284.548C172.648 284.536 172.711 284.531 172.784 284.531C173.443 284.531 173.976 285.064 173.976 285.722C173.976 286.307 173.556 286.801 172.994 286.897C172.393 287.005 171.831 287.215 171.365 287.505C170.701 287.919 169.89 288.702 169.89 290.064C169.89 290.7 170.123 291.318 170.599 291.903C171.604 293.134 173.573 294.009 175.849 294.009C177.137 294.009 178.323 293.725 179.288 293.265C180.06 292.896 180.679 292.419 181.099 291.903C181.575 291.318 181.808 290.7 181.808 290.064C181.808 289.372 181.61 288.776 181.28 288.271C180.69 287.38 179.68 286.818 178.579 286.721C177.966 286.67 177.495 286.159 177.495 285.535ZM167.506 270.71C167.506 270.052 168.04 269.519 168.698 269.519C169.027 269.519 169.322 269.649 169.538 269.865L174.498 274.819L182.319 269.348C182.512 269.212 182.745 269.133 183 269.133C183.658 269.133 184.192 269.666 184.192 270.324C184.192 270.727 183.993 271.085 183.687 271.301C176.212 276.533 176.207 276.533 176.207 276.533L178.062 278.384L183 278.384C183.658 278.384 184.192 278.917 184.192 279.575C184.192 280.234 183.658 280.767 183 280.767L168.698 280.767C168.034 280.767 167.506 280.228 167.506 279.575L167.506 279.57C167.506 278.911 168.04 278.378 168.698 278.378L174.686 278.378L167.858 271.556C167.642 271.34 167.506 271.04 167.506 270.71ZM206.287 356.185C206.946 356.185 207.479 356.718 207.479 357.376C207.479 357.569 207.434 357.751 207.354 357.91C205.748 361.099 201.656 363.336 196.849 363.336C194.233 363.336 191.815 362.677 189.885 361.536C188.342 360.623 187.087 359.391 186.344 357.91C186.264 357.751 186.219 357.569 186.219 357.376C186.219 356.718 186.753 356.185 187.411 356.185C187.859 356.185 188.274 356.434 188.478 356.843C189.664 359.198 192.961 360.952 196.849 360.952C200.725 360.952 204.028 359.215 205.22 356.843C205.413 356.457 205.822 356.185 206.287 356.185ZM198.495 341.756C198.495 341.098 199.028 340.564 199.687 340.564C199.704 340.564 199.743 340.564 199.795 340.57C200.765 340.655 201.679 340.956 202.479 341.449C203.188 341.886 203.807 342.477 204.272 343.18C204.851 344.06 205.192 345.127 205.192 346.285C205.192 347.539 204.715 348.686 203.949 349.628C202.473 351.432 199.84 352.613 196.849 352.613C192.218 352.613 188.506 349.792 188.506 346.285C188.506 345.161 188.835 344.151 189.403 343.317C189.857 342.653 190.447 342.113 191.111 341.699C191.826 341.251 192.661 340.933 193.58 340.768C193.648 340.757 193.711 340.751 193.784 340.751C194.443 340.751 194.976 341.285 194.976 341.943C194.976 342.528 194.556 343.021 193.994 343.118C193.393 343.226 192.831 343.436 192.365 343.725C191.701 344.14 190.89 344.923 190.89 346.285C190.89 346.92 191.123 347.539 191.599 348.124C192.604 349.355 194.573 350.229 196.849 350.229C198.137 350.229 199.323 349.945 200.288 349.486C201.06 349.117 201.679 348.64 202.099 348.124C202.575 347.539 202.808 346.92 202.808 346.285C202.808 345.592 202.61 344.997 202.28 344.491C201.69 343.6 200.68 343.039 199.579 342.942C198.966 342.891 198.495 342.38 198.495 341.756ZM205.192 330.643C205.192 334.156 201.48 336.988 196.849 336.988C192.218 336.988 188.506 334.167 188.506 330.66C188.506 327.147 192.218 324.315 196.849 324.315C201.48 324.315 205.192 327.135 205.192 330.643ZM190.89 330.66C190.89 331.295 191.123 331.914 191.599 332.499C192.604 333.73 194.573 334.604 196.849 334.604C198.132 334.604 199.323 334.326 200.288 333.861C201.06 333.492 201.673 333.009 202.099 332.487C202.575 331.903 202.808 331.278 202.808 330.643C202.808 330.007 202.575 329.389 202.099 328.804C201.094 327.572 199.125 326.698 196.849 326.698C195.566 326.698 194.375 326.977 193.41 327.442C192.638 327.811 192.025 328.293 191.599 328.815C191.123 329.4 190.89 330.024 190.89 330.66ZM204 309.103C204.658 309.103 205.192 309.637 205.192 310.295L205.192 319.546C205.192 320.159 204.726 320.675 204.108 320.732C204.074 320.738 204.034 320.738 204 320.738L189.698 320.738C189.034 320.738 188.506 320.199 188.506 319.546L188.506 319.54C188.506 318.882 189.04 318.349 189.698 318.349L202.802 318.349L202.802 310.295C202.802 309.637 203.336 309.103 203.994 309.103L204 309.103ZM205.192 299.706C205.192 302.935 202.939 305.523 200.169 305.523L189.698 305.523C189.04 305.523 188.506 304.99 188.506 304.331C188.506 303.673 189.04 303.139 189.698 303.139L200.169 303.139C201.616 303.139 202.808 301.584 202.808 299.706C202.808 297.827 201.616 296.272 200.169 296.272L189.698 296.272C189.04 296.272 188.506 295.739 188.506 295.08C188.506 294.422 189.04 293.889 189.698 293.889L200.169 293.889C202.939 293.889 205.192 296.476 205.192 299.706ZM189.698 290.308C189.034 290.308 188.506 289.769 188.506 289.116L188.506 288.52C188.506 288.015 188.835 287.561 189.312 287.397L200.476 283.549L189.312 279.707C188.835 279.542 188.506 279.082 188.506 278.577L188.506 277.987C188.506 277.329 189.04 276.795 189.698 276.795L204 276.789C204.658 276.789 205.192 277.323 205.192 277.981C205.192 278.64 204.658 279.173 204 279.173L195.101 279.179L204.085 282.272C204.562 282.436 204.891 282.896 204.891 283.401L204.891 283.702C204.891 284.207 204.562 284.661 204.085 284.826L195.09 287.925L204 287.925C204.658 287.925 205.192 288.458 205.192 289.116C205.192 289.775 204.658 290.308 204 290.308L189.698 290.308ZM189.698 273.218C189.034 273.218 188.506 272.679 188.506 272.027L188.506 271.431C188.506 270.999 188.739 270.602 189.114 270.392L200.515 263.967L189.698 263.967C189.04 263.967 188.506 263.434 188.506 262.776C188.506 262.117 189.04 261.584 189.698 261.584L204 261.584C204.658 261.584 205.192 262.117 205.192 262.776L205.192 263.372C205.192 263.803 204.959 264.2 204.585 264.41L193.183 270.835L204 270.835C204.658 270.835 205.192 271.368 205.192 272.026C205.192 272.685 204.658 273.218 204 273.218L189.698 273.218ZM207.479 256.812C207.479 257.47 206.946 258.003 206.287 258.003C205.833 258.003 205.425 257.754 205.22 257.345C204.034 254.99 200.737 253.236 196.849 253.236C192.973 253.236 189.67 254.979 188.478 257.351C188.279 257.742 187.876 258.003 187.411 258.003C186.753 258.003 186.219 257.47 186.219 256.812C186.219 256.619 186.264 256.443 186.344 256.278C187.95 253.089 192.042 250.853 196.849 250.853C199.465 250.853 201.883 251.511 203.813 252.652C205.356 253.565 206.611 254.797 207.354 256.278C207.434 256.443 207.479 256.619 207.479 256.812Z" fill="black"/>
</g>
<g filter="url(#filter2_d_392_244)">
<path d="M317.586 142.698C317.586 142.034 318.126 141.506 318.778 141.506H329.505C330.157 141.506 330.696 142.034 330.696 142.698V142.704C330.696 143.362 330.163 143.896 329.505 143.896H325.339V157C325.339 157.658 324.805 158.192 324.147 158.192C323.489 158.192 322.955 157.658 322.955 157L322.95 143.896H318.778C318.12 143.896 317.586 143.362 317.586 142.704V142.698ZM346.167 146.052C346.167 147.982 344.839 149.645 342.955 150.303L346.042 156.467C346.122 156.625 346.167 156.807 346.167 157C346.167 157.658 345.634 158.192 344.975 158.192C344.51 158.192 344.101 157.919 343.908 157.533L340.441 150.604H336.65V157C336.65 157.658 336.116 158.192 335.458 158.192C334.8 158.192 334.266 157.658 334.266 157V142.698C334.266 142.034 334.805 141.506 335.458 141.506H341.179C343.943 141.506 346.167 143.549 346.167 146.052ZM343.784 146.052C343.784 144.86 342.603 143.89 341.179 143.89H336.65V148.215H341.179C342.603 148.215 343.784 147.244 343.784 146.052ZM356.012 145.564L354.179 151.041H357.839L356.012 145.564ZM362.283 157C362.283 157.658 361.75 158.192 361.091 158.192C360.563 158.192 360.121 157.851 359.962 157.38L358.634 153.425H353.384L352.056 157.38C351.897 157.851 351.454 158.192 350.927 158.192C350.268 158.192 349.735 157.658 349.735 157C349.735 156.869 349.757 156.739 349.797 156.62L354.582 142.318C354.746 141.835 355.2 141.506 355.711 141.506H356.307C356.818 141.506 357.272 141.835 357.436 142.318L362.221 156.62C362.26 156.739 362.283 156.869 362.283 157ZM376.725 151.495C377.383 151.495 377.916 152.028 377.916 152.687C377.916 152.704 377.916 152.743 377.911 152.795C377.826 153.765 377.525 154.679 377.031 155.479C376.594 156.188 376.004 156.807 375.3 157.272C374.42 157.851 373.353 158.192 372.196 158.192C370.941 158.192 369.795 157.715 368.853 156.949C367.048 155.473 365.868 152.84 365.868 149.849C365.868 145.218 368.688 141.506 372.196 141.506C373.319 141.506 374.33 141.835 375.164 142.403C375.828 142.857 376.367 143.447 376.781 144.111C377.23 144.826 377.548 145.661 377.712 146.58C377.723 146.648 377.729 146.711 377.729 146.784C377.729 147.443 377.196 147.976 376.537 147.976C375.953 147.976 375.459 147.556 375.363 146.994C375.255 146.393 375.045 145.831 374.755 145.365C374.341 144.701 373.558 143.89 372.196 143.89C371.56 143.89 370.941 144.123 370.357 144.599C369.125 145.604 368.251 147.573 368.251 149.849C368.251 151.137 368.535 152.323 368.995 153.288C369.364 154.06 369.84 154.679 370.357 155.099C370.941 155.575 371.56 155.808 372.196 155.808C372.888 155.808 373.484 155.61 373.989 155.28C374.88 154.69 375.442 153.68 375.538 152.579C375.59 151.966 376.1 151.495 376.725 151.495ZM391.549 141.506C392.208 141.506 392.741 142.04 392.741 142.698C392.741 143.027 392.611 143.322 392.395 143.538L387.44 148.498L392.911 156.319C393.048 156.512 393.127 156.745 393.127 157C393.127 157.658 392.594 158.192 391.935 158.192C391.532 158.192 391.175 157.993 390.959 157.687C385.726 150.212 385.726 150.207 385.726 150.207L383.876 152.062V157C383.876 157.658 383.343 158.192 382.684 158.192C382.026 158.192 381.493 157.658 381.493 157V142.698C381.493 142.034 382.032 141.506 382.684 141.506H382.69C383.348 141.506 383.882 142.04 383.882 142.698V148.686L390.704 141.858C390.919 141.642 391.22 141.506 391.549 141.506ZM412.999 159.287C412.999 159.946 412.466 160.479 411.807 160.479C411.614 160.479 411.433 160.434 411.274 160.354C408.084 158.748 405.848 154.656 405.848 149.849C405.848 147.233 406.506 144.815 407.647 142.885C408.561 141.342 409.792 140.087 411.274 139.344C411.433 139.264 411.614 139.219 411.807 139.219C412.466 139.219 412.999 139.753 412.999 140.411C412.999 140.859 412.749 141.274 412.341 141.478C409.985 142.664 408.232 145.961 408.232 149.849C408.232 153.725 409.968 157.028 412.341 158.22C412.727 158.413 412.999 158.822 412.999 159.287ZM428.472 146.052C428.472 147.982 427.144 149.645 425.26 150.303L428.347 156.467C428.427 156.625 428.472 156.807 428.472 157C428.472 157.658 427.938 158.192 427.28 158.192C426.815 158.192 426.406 157.919 426.213 157.533L422.746 150.604H418.954V157C418.954 157.658 418.421 158.192 417.763 158.192C417.104 158.192 416.571 157.658 416.571 157V142.698C416.571 142.034 417.11 141.506 417.763 141.506H423.483C426.247 141.506 428.472 143.549 428.472 146.052ZM426.088 146.052C426.088 144.86 424.908 143.89 423.483 143.89H418.954V148.215H423.483C424.908 148.215 426.088 147.244 426.088 146.052ZM438.385 158.192C434.871 158.192 432.039 154.48 432.039 149.849C432.039 145.218 434.86 141.506 438.368 141.506C441.881 141.506 444.713 145.218 444.713 149.849C444.713 154.48 441.892 158.192 438.385 158.192ZM438.368 143.89C437.732 143.89 437.113 144.123 436.529 144.599C435.297 145.604 434.423 147.573 434.423 149.849C434.423 151.132 434.701 152.323 435.167 153.288C435.536 154.06 436.018 154.673 436.54 155.099C437.125 155.575 437.749 155.808 438.385 155.808C439.02 155.808 439.639 155.575 440.223 155.099C441.455 154.094 442.329 152.125 442.329 149.849C442.329 148.566 442.051 147.375 441.585 146.41C441.217 145.638 440.734 145.025 440.212 144.599C439.627 144.123 439.003 143.89 438.368 143.89ZM448.289 142.698C448.289 142.04 448.823 141.506 449.481 141.506C450.055 141.506 450.531 141.909 450.645 142.448L452.824 152.67L454.935 142.749C455.055 142.204 455.537 141.807 456.099 141.807H456.695C457.257 141.807 457.739 142.199 457.858 142.749L459.969 152.67L462.143 142.465C462.257 141.926 462.733 141.523 463.307 141.523C463.965 141.523 464.498 142.057 464.498 142.715C464.498 142.8 464.487 142.885 464.47 142.965L461.428 157.25C461.309 157.795 460.826 158.192 460.265 158.192H459.669C459.107 158.192 458.624 157.8 458.505 157.25L456.394 147.329L454.283 157.25C454.163 157.795 453.681 158.192 453.119 158.192H452.523C451.961 158.192 451.479 157.795 451.36 157.25L448.318 142.948C448.301 142.868 448.289 142.783 448.289 142.698ZM469.266 160.479C468.608 160.479 468.075 159.946 468.075 159.287C468.075 158.833 468.324 158.425 468.733 158.22C471.088 157.034 472.842 153.737 472.842 149.849C472.842 145.973 471.1 142.67 468.727 141.478C468.336 141.279 468.075 140.876 468.075 140.411C468.075 139.753 468.608 139.219 469.266 139.219C469.459 139.219 469.635 139.264 469.8 139.344C472.99 140.95 475.226 145.042 475.226 149.849C475.226 152.465 474.567 154.883 473.427 156.813C472.513 158.356 471.281 159.611 469.8 160.354C469.635 160.434 469.459 160.479 469.266 160.479Z" fill="black"/>
</g>
<path d="M239 33L239 423" stroke="black" stroke-width="3" stroke-linecap="round"/>
<defs>
<filter id="filter0_d_392_244" x="411.217" y="328.506" width="75.3652" height="32.6855" filterUnits="userSpaceOnUse" color-interpolation-filters="sRGB">
<feFlood flood-opacity="0" result="BackgroundImageFix"/>
<feColorMatrix in="SourceAlpha" type="matrix" values="0 0 0 0 0 0 0 0 0 0 0 0 0 0 0 0 0 0 127 0" result="hardAlpha"/>
<feOffset/>
<feGaussianBlur stdDeviation="4"/>
<feComposite in2="hardAlpha" operator="out"/>
<feColorMatrix type="matrix" values="0 0 0 0 0.796078 0 0 0 0 0.815686 0 0 0 0 0.298039 0 0 0 1 0"/>
<feBlend mode="normal" in2="BackgroundImageFix" result="effect1_dropShadow_392_244"/>
<feBlend mode="normal" in="SourceGraphic" in2="effect1_dropShadow_392_244" result="shape"/>
</filter>
<filter id="filter1_d_392_244" x="159.506" y="242.852" width="55.9727" height="128.484" filterUnits="userSpaceOnUse" color-interpolation-filters="sRGB">
<feFlood flood-opacity="0" result="BackgroundImageFix"/>
<feColorMatrix in="SourceAlpha" type="matrix" values="0 0 0 0 0 0 0 0 0 0 0 0 0 0 0 0 0 0 127 0" result="hardAlpha"/>
<feOffset/>
<feGaussianBlur stdDeviation="4"/>
<feComposite in2="hardAlpha" operator="out"/>
<feColorMatrix type="matrix" values="0 0 0 0 0.764706 0 0 0 0 0.72549 0 0 0 0 0.490196 0 0 0 1 0"/>
<feBlend mode="normal" in2="BackgroundImageFix" result="effect1_dropShadow_392_244"/>
<feBlend mode="normal" in="SourceGraphic" in2="effect1_dropShadow_392_244" result="shape"/>
</filter>
<filter id="filter2_d_392_244" x="309.586" y="131.219" width="173.641" height="37.2598" filterUnits="userSpaceOnUse" color-interpolation-filters="sRGB">
<feFlood flood-opacity="0" result="BackgroundImageFix"/>
<feColorMatrix in="SourceAlpha" type="matrix" values="0 0 0 0 0 0 0 0 0 0 0 0 0 0 0 0 0 0 127 0" result="hardAlpha"/>
<feOffset/>
<feGaussianBlur stdDeviation="4"/>
<feComposite in2="hardAlpha" operator="out"/>
<feColorMatrix type="matrix" values="0 0 0 0 1 0 0 0 0 0.517647 0 0 0 0 0.141176 0 0 0 1 0"/>
<feBlend mode="normal" in2="BackgroundImageFix" result="effect1_dropShadow_392_244"/>
<feBlend mode="normal" in="SourceGraphic" in2="effect1_dropShadow_392_244" result="shape"/>
</filter>
</defs>
</svg>
