<svg fill="none" height="452" viewBox="0 0 556 452" width="556" xmlns="http://www.w3.org/2000/svg"><g opacity=".5"><path d="m130 29h105v78h-105z" fill="#79c0ff" stroke="#79c0ff" stroke-width="1.5"/><path d="m25 107h105v78h-105z" fill="#ff7b72"/><path d="m25 107v-.75h-.75v.75zm0 78h-.75v.75h.75zm0-77.25h105v-1.5h-105zm105 76.5h-105v1.5h105zm-104.25.75v-78h-1.5v78z" fill="#ff7b72"/><path d="m130 107h105v78h-105z" fill="#d2a8ff" stroke="#d2a8ff" stroke-width="1.5"/><g fill="#ff7b72"><path d="m235 107h105v78h-105z"/><path d="m340 107h.75v-.75h-.75zm0 78v.75h.75v-.75zm-105-77.25h105v-1.5h-105zm104.25-.75v78h1.5v-78zm.75 77.25h-105v1.5h105z"/><path d="m340 107h105v78h-105z" stroke="#ff7b72" stroke-width="1.5"/><path d="m445 107h105v78h-105z" stroke="#ff7b72" stroke-width="1.5"/></g><path d="m130 185h105v78h-105z" fill="#79c0ff"/><path d="m235 263v.75h.75v-.75zm-105 0h-.75v.75h.75zm104.25-78v78h1.5v-78zm.75 77.25h-105v1.5h105zm-104.25.75v-78h-1.5v78z" fill="#79c0ff"/><g stroke-width="1.5"><path d="m129.25 185h105" stroke="#d2a8ff"/><path d="m130 263h105v78h-105z" fill="#79c0ff" stroke="#79c0ff"/><path d="m340 263h105v78h-105z" fill="#7ee687" stroke="#7ee687"/><path d="m445 263h105v78h-105z" fill="#7ee687" stroke="#7ee687"/><path d="m130 341h105v78h-105z" fill="#79c0ff" stroke="#79c0ff"/><g fill="#7ee687" stroke="#7ee687"><path d="m340 341h105v78h-105z"/><path d="m445 341h105v78h-105z"/></g></g></g><g opacity=".33333" stroke="#fff" stroke-width="1.5"><path d="m25 29h105v78h-105z"/><path d="m130 29h105v78h-105z"/><path d="m235 29h105v78h-105z"/><path d="m340 29h105v78h-105z"/><path d="m445 29h105v78h-105z"/><path d="m25 107h105v78h-105z"/><path d="m130 107h105v78h-105z"/><path d="m235 107h105v78h-105z"/><path d="m340 107h105v78h-105z"/><path d="m445 107h105v78h-105z"/><path d="m25 185h105v78h-105z"/><path d="m130 185h105v78h-105z"/><path d="m235 185h105v78h-105z"/><path d="m340 185h105v78h-105z"/><path d="m445 185h105v78h-105z"/><path d="m25 263h105v78h-105z"/><path d="m130 263h105v78h-105z"/><path d="m235 263h105v78h-105z"/><path d="m340 263h105v78h-105z"/><path d="m445 263h105v78h-105z"/><path d="m25 341h105v78h-105z"/><path d="m130 341h105v78h-105z"/><path d="m235 341h105v78h-105z"/><path d="m340 341h105v78h-105z"/><path d="m445 341h105v78h-105z"/></g><path d="m234.789 28v392" stroke="#fff" stroke-width="3"/><g fill="#fff"><g fill-opacity=".333333"><path d="m8.2197 36h-1.87v-11.176h-4.048v-1.496c.528 0 1.04133-.0367 1.54-.11.49866-.088.946-.242 1.342-.462.41066-.22.75533-.5207 1.034-.902.27866-.3813.46933-.8653.572-1.452h1.43z"/><path d="m1.3557 103.924c-.044-.792.03666-1.525.242-2.2.20533-.675.52066-1.254.946-1.738.44-.4987.98266-.8873 1.628-1.166.64533-.2787 1.37866-.418 2.2-.418.67466 0 1.30533.1027 1.892.308.60133.1907 1.122.4767 1.562.858.44.3667.7847.829 1.034 1.386.264.557.396 1.203.396 1.936 0 .689-.11 1.298-.33 1.826-.2053.528-.484 1.005-.836 1.43-.352.411-.75534.785-1.21 1.122-.45467.337-.924.66-1.408.968-.484.293-.968.587-1.452.88-.484.279-.93134.579-1.342.902-.396.323-.74067.675-1.034 1.056-.27867.367-.462.792-.55 1.276h8.008v1.65h-10.186005c.073334-.924.234665-1.709.484005-2.354.264-.66.594-1.232.99-1.716s.84333-.909 1.342-1.276c.49866-.367 1.01933-.711 1.562-1.034.66-.411 1.23933-.785 1.738-1.122.49866-.352.90933-.704 1.232-1.056.33733-.352.58666-.733.748-1.144.176-.411.264-.887.264-1.43 0-.425-.08067-.807-.242-1.144-.16134-.352-.38134-.653-.66-.902-.264-.249-.57934-.44-.946-.572-.36667-.132-.75534-.198-1.166-.198-.54267 0-1.012.117-1.408.352-.38134.22-.69667.513-.946.88-.24934.367-.43267.785-.55 1.254-.10267.455-.14667.917-.132 1.386z"/><path d="m5.1837 183.09c.07333.015.13933.022.198.022h.22.396c.396 0 .77-.051 1.122-.154.36666-.117.682-.279.946-.484.27866-.22.49866-.491.66-.814.16133-.323.242-.689.242-1.1 0-.836-.264-1.459-.792-1.87-.528-.425-1.188-.638-1.98-.638-.49867 0-.93867.095-1.32.286-.36667.176-.67467.418-.924.726-.23467.308-.41067.667-.528 1.078-.11734.411-.176.843-.176 1.298h-1.87c.02933-.748.14666-1.43.352-2.046.22-.616.528-1.144.924-1.584s.88733-.785 1.474-1.034c.60133-.249 1.29066-.374 2.068-.374.67466 0 1.298.088 1.87.264.58666.161 1.09266.411 1.518.748.4253.337.7553.77.99 1.298.2493.528.374 1.151.374 1.87 0 .704-.2053 1.327-.616 1.87-.41067.543-.924.953-1.54 1.232v.044c.95333.205 1.6573.653 2.112 1.342.4693.689.704 1.503.704 2.442 0 .777-.1467 1.467-.44 2.068-.2787.587-.66 1.078-1.144 1.474s-1.056.697-1.716.902c-.64534.191-1.33467.286-2.068.286-.792 0-1.51067-.11-2.156-.33-.64534-.22-1.19534-.543-1.65-.968-.45467-.44-.80667-.975-1.056-1.606-.23467-.631-.34467-1.349-.33-2.156h1.87c.02933 1.012.32266 1.841.88 2.486.55733.631 1.37133.946 2.442.946.45466 0 .88733-.066 1.298-.198.41066-.147.77-.345 1.078-.594.308-.264.55-.579.726-.946.19066-.381.286-.807.286-1.276 0-.484-.088-.909-.264-1.276-.176-.381-.41067-.697-.704-.946-.29334-.264-.64534-.455-1.056-.572-.396-.132-.82867-.198-1.298-.198-.396 0-.77.022-1.122.066z"/><path d="m7.8457 264.698v-7.634h-.044l-5.192 7.634zm1.76 0h2.112v1.65h-2.112v3.652h-1.76v-3.652h-6.842v-1.804l7.106-10.142h1.496z"/><path d="m10.7277 334.316h-6.292l-.836 4.488.044.044c.33733-.381.77-.66 1.298-.836.54266-.191 1.078-.286 1.606-.286.68933 0 1.342.11 1.958.33s1.15133.557 1.606 1.012c.4547.44.814.997 1.078 1.672.264.66.396 1.437.396 2.332 0 .66-.1173 1.305-.352 1.936-.22.616-.5573 1.166-1.012 1.65-.45467.484-1.02667.873-1.716 1.166-.67467.279-1.46667.418-2.376.418-.67467 0-1.31267-.095-1.914-.286-.58667-.205-1.10734-.491-1.562-.858-.45467-.381-.814-.851-1.078-1.408s-.40334-1.188-.418-1.892h1.87c.02933.396.12466.77.286 1.122.176.337.40333.638.682.902.29333.249.63066.447 1.012.594.396.132.82866.198 1.298.198.44 0 .858-.073 1.254-.22.41066-.161.76266-.396 1.056-.704.308-.308.55-.689.726-1.144.176-.469.264-1.012.264-1.628 0-.513-.088-.983-.264-1.408-.16134-.44-.396-.814-.704-1.122-.308-.323-.682-.572-1.122-.748-.42534-.176-.902-.264-1.43-.264-.616 0-1.166.139-1.65.418-.46934.264-.88734.616-1.254 1.056l-1.606-.088 1.452-8.096h7.7z"/><path d="m9.4957 414.384c-.088-.704-.35934-1.269-.814-1.694-.45467-.425-1.056-.638-1.804-.638-.792 0-1.43.198-1.914.594-.484.381-.86534.873-1.144 1.474-.264.587-.44734 1.225-.55 1.914-.10267.689-.16134 1.335-.176 1.936l.044.044c.44-.719.98266-1.239 1.628-1.562.66-.323 1.41533-.484 2.266-.484.748 0 1.41533.132 2.002.396.60133.249 1.1.601 1.496 1.056.4107.455.726.99.946 1.606s.33 1.283.33 2.002c0 .572-.088 1.166-.264 1.782s-.4693 1.181-.88 1.694c-.396.499-.93134.917-1.606 1.254-.66.323-1.48134.484-2.464.484-1.15867 0-2.09-.235-2.794-.704s-1.24667-1.071-1.628-1.804c-.38134-.733-.638-1.54-.77-2.42-.11734-.88-.176-1.731-.176-2.552 0-1.071.088-2.105.264-3.102.19066-1.012.506-1.907.946-2.684s1.02666-1.401 1.76-1.87c.73333-.469 1.65733-.704 2.772-.704 1.29066 0 2.31733.345 3.08 1.034.7627.675 1.2027 1.657 1.32 2.948zm-2.816 3.234c-.528 0-.99.095-1.386.286-.396.176-.73334.425-1.012.748-.27867.308-.49134.682-.638 1.122-.132.425-.198.88-.198 1.364s.07333.939.22 1.364c.14666.425.352.792.616 1.1.27866.308.616.557 1.012.748.41066.176.87266.264 1.386.264.51333 0 .96066-.088 1.342-.264.396-.191.726-.447.99-.77s.462-.689.594-1.1c.14666-.425.22-.865.22-1.32 0-.484-.066-.939-.198-1.364-.11734-.44-.308-.814-.572-1.122-.264-.323-.594-.579-.99-.77s-.858-.286-1.386-.286z"/><path d="m27.2197 16h-1.87v-11.176h-4.048v-1.496c.528 0 1.0413-.03667 1.54-.11.4987-.088.946-.242 1.342-.462.4107-.22.7553-.52067 1.034-.902s.4693-.865334.572-1.452001h1.43z"/><path d="m125.156 5.924c-.044-.792.037-1.52533.242-2.2.206-.67467.521-1.254.946-1.738.44-.49867.983-.88733 1.628-1.166001.646-.278667 1.379-.418 2.2-.418.675 0 1.306.102667 1.892.308.602.190667 1.122.476671 1.562.858001.44.36667.785.82867 1.034 1.386.264.55733.396 1.20267.396 1.936 0 .68933-.11 1.298-.33 1.826-.205.528-.484 1.00467-.836 1.43-.352.41067-.755.78467-1.21 1.122-.454.33733-.924.66-1.408.968-.484.2933-.968.5867-1.452.88-.484.2787-.931.5793-1.342.902-.396.3227-.74.6747-1.034 1.056-.278.3667-.462.792-.55 1.276h8.008v1.65h-10.186c.074-.924.235-1.7087.484-2.354.264-.66.594-1.232.99-1.716s.844-.9093 1.342-1.276c.499-.3667 1.02-.71133 1.562-1.034.66-.41067 1.24-.78467 1.738-1.122.499-.352.91-.704 1.232-1.056.338-.352.587-.73333.748-1.144.176-.41067.264-.88733.264-1.43 0-.42533-.08-.80667-.242-1.144-.161-.352-.381-.65267-.66-.902-.264-.24933-.579-.44-.946-.572-.366-.132-.755-.198-1.166-.198-.542 0-1.012.11733-1.408.352-.381.22-.696.51333-.946.88-.249.36667-.432.78467-.55 1.254-.102.45467-.146.91667-.132 1.386z"/><path d="m233.783 7.09c.074.01467.14.022.198.022h.22.396c.396 0 .77-.05133 1.122-.154.367-.11733.682-.27867.946-.484.279-.22.499-.49133.66-.814.162-.32267.242-.68933.242-1.1 0-.836-.264-1.45933-.792-1.87-.528-.42533-1.188-.638-1.98-.638-.498 0-.938.09533-1.32.286-.366.176-.674.418-.924.726-.234.308-.41.66733-.528 1.078-.117.41067-.176.84333-.176 1.298h-1.87c.03-.748.147-1.43.352-2.046.22-.616.528-1.144.924-1.584s.888-.78467 1.474-1.034001c.602-.249333 1.291-.374 2.068-.374.675 0 1.298.088 1.87.264.587.161333 1.093.410671 1.518.748001.426.33733.756.77.99 1.298.25.528.374 1.15133.374 1.87 0 .704-.205 1.32733-.616 1.87-.41.54267-.924.95333-1.54 1.232v.044c.954.20533 1.658.65267 2.112 1.342.47.68933.704 1.5033.704 2.442 0 .7773-.146 1.4667-.44 2.068-.278.5867-.66 1.078-1.144 1.474s-1.056.6967-1.716.902c-.645.1907-1.334.286-2.068.286-.792 0-1.51-.11-2.156-.33-.645-.22-1.195-.5427-1.65-.968-.454-.44-.806-.9753-1.056-1.606-.234-.6307-.344-1.3493-.33-2.156h1.87c.03 1.012.323 1.8407.88 2.486.558.6307 1.372.946 2.442.946.455 0 .888-.066 1.298-.198.411-.1467.77-.3447 1.078-.594.308-.264.55-.5793.726-.946.191-.3813.286-.8067.286-1.276 0-.484-.088-.9093-.264-1.276-.176-.38133-.41-.69667-.704-.946-.293-.264-.645-.45467-1.056-.572-.396-.132-.828-.198-1.298-.198-.396 0-.77.022-1.122.066z"/><path d="m341.246 10.698v-7.634h-.044l-5.192 7.634zm1.76 0h2.112v1.65h-2.112v3.652h-1.76v-3.652h-6.842v-1.804l7.106-10.142001h1.496z"/><path d="m448.927 2.316h-6.292l-.836 4.488.044.044c.337-.38133.77-.66 1.298-.836.543-.19067 1.078-.286 1.606-.286.689 0 1.342.11 1.958.33s1.151.55733 1.606 1.012c.455.44.814.99733 1.078 1.672.264.66.396 1.4373.396 2.332 0 .66-.117 1.3053-.352 1.936-.22.616-.557 1.166-1.012 1.65s-1.027.8727-1.716 1.166c-.675.2787-1.467.418-2.376.418-.675 0-1.313-.0953-1.914-.286-.587-.2053-1.107-.4913-1.562-.858-.455-.3813-.814-.8507-1.078-1.408s-.403-1.188-.418-1.892h1.87c.029.396.125.77.286 1.122.176.3373.403.638.682.902.293.2493.631.4473 1.012.594.396.132.829.198 1.298.198.44 0 .858-.0733 1.254-.22.411-.1613.763-.396 1.056-.704.308-.308.55-.6893.726-1.144.176-.4693.264-1.012.264-1.628 0-.5133-.088-.98267-.264-1.408-.161-.44-.396-.814-.704-1.122-.308-.32267-.682-.572-1.122-.748-.425-.176-.902-.264-1.43-.264-.616 0-1.166.13933-1.65.418-.469.264-.887.616-1.254 1.056l-1.606-.088 1.452-8.096001h7.7z"/><path d="m552.496 4.384c-.088-.704-.36-1.26867-.814-1.694-.455-.42533-1.056-.638-1.804-.638-.792 0-1.43.198-1.914.594-.484.38133-.866.87267-1.144 1.474-.264.58667-.448 1.22467-.55 1.914-.103.68933-.162 1.33467-.176 1.936l.044.044c.44-.71867.982-1.23933 1.628-1.562.66-.32267 1.415-.484 2.266-.484.748 0 1.415.132 2.002.396.601.24933 1.1.60133 1.496 1.056.41.45467.726.99.946 1.606s.33 1.2833.33 2.002c0 .572-.088 1.166-.264 1.782s-.47 1.1807-.88 1.694c-.396.4987-.932.9167-1.606 1.254-.66.3227-1.482.484-2.464.484-1.159 0-2.09-.2347-2.794-.704s-1.247-1.0707-1.628-1.804c-.382-.7333-.638-1.54-.77-2.42-.118-.88-.176-1.73067-.176-2.552 0-1.07067.088-2.10467.264-3.102.19-1.012.506-1.90667.946-2.684s1.026-1.40067 1.76-1.87c.733-.469334 1.657-.704001 2.772-.704001 1.29 0 2.317.344666 3.08 1.034001.762.67467 1.202 1.65733 1.32 2.948zm-2.816 3.234c-.528 0-.99.09533-1.386.286-.396.176-.734.42533-1.012.748-.279.308-.492.682-.638 1.122-.132.4253-.198.88-.198 1.364s.073.9387.22 1.364c.146.4253.352.792.616 1.1.278.308.616.5573 1.012.748.41.176.872.264 1.386.264.513 0 .96-.088 1.342-.264.396-.1907.726-.4473.99-.77s.462-.6893.594-1.1c.146-.4253.22-.8653.22-1.32 0-.484-.066-.9387-.198-1.364-.118-.44-.308-.814-.572-1.122-.264-.32267-.594-.57933-.99-.77s-.858-.286-1.386-.286z"/></g><path d="m214.655 432.292h3.454v12.804h7.656v2.904h-11.11zm15.703 2.574h-3.124v-2.574h3.124zm-3.124 1.76h3.124v11.374h-3.124zm5.364 0h2.97v1.584h.066c.396-.66.909-1.137 1.54-1.43.63-.308 1.276-.462 1.936-.462.836 0 1.518.117 2.046.352.542.22.968.535 1.276.946.308.396.52.887.638 1.474.132.572.198 1.21.198 1.914v6.996h-3.124v-6.424c0-.939-.147-1.635-.44-2.09-.294-.469-.814-.704-1.562-.704-.851 0-1.467.257-1.848.77-.382.499-.572 1.327-.572 2.486v5.962h-3.124zm20.477 4.466c-.147-.792-.411-1.393-.792-1.804-.367-.411-.932-.616-1.694-.616-.499 0-.917.088-1.254.264-.323.161-.587.367-.792.616-.191.249-.33.513-.418.792-.074.279-.118.528-.132.748zm-5.082 1.98c.044 1.012.3 1.745.77 2.2.469.455 1.144.682 2.024.682.63 0 1.173-.154 1.628-.462.454-.323.733-.66.836-1.012h2.75c-.44 1.364-1.115 2.339-2.024 2.926-.91.587-2.01.88-3.3.88-.895 0-1.702-.139-2.42-.418-.719-.293-1.328-.704-1.826-1.232-.499-.528-.888-1.159-1.166-1.892-.264-.733-.396-1.54-.396-2.42 0-.851.139-1.643.418-2.376.278-.733.674-1.364 1.188-1.892.513-.543 1.122-.968 1.826-1.276.718-.308 1.51-.462 2.376-.462.968 0 1.811.191 2.53.572.718.367 1.305.865 1.76 1.496.469.631.806 1.349 1.012 2.156.205.807.278 1.65.22 2.53z"/><path d="m174.178 141.572c-.058-.396-.19-.755-.396-1.078-.205-.337-.462-.631-.77-.88s-.66-.44-1.056-.572c-.381-.147-.784-.22-1.21-.22-.777 0-1.437.154-1.98.462-.542.293-.982.697-1.32 1.21-.337.499-.586 1.071-.748 1.716-.146.645-.22 1.313-.22 2.002 0 .66.074 1.305.22 1.936.162.616.411 1.173.748 1.672.338.499.778.902 1.32 1.21.543.293 1.203.44 1.98.44 1.056 0 1.878-.323 2.464-.968.602-.645.968-1.496 1.1-2.552h3.344c-.088.983-.315 1.87-.682 2.662-.366.792-.85 1.467-1.452 2.024-.601.557-1.305.983-2.112 1.276-.806.293-1.694.44-2.662.44-1.202 0-2.288-.205-3.256-.616-.953-.425-1.76-1.005-2.42-1.738s-1.166-1.591-1.518-2.574c-.352-.997-.528-2.068-.528-3.212 0-1.173.176-2.259.528-3.256.352-1.012.858-1.892 1.518-2.64s1.467-1.335 2.42-1.76c.968-.425 2.054-.638 3.256-.638.866 0 1.68.125 2.442.374.778.249 1.467.616 2.068 1.1.616.469 1.122 1.056 1.518 1.76s.646 1.511.748 2.42zm12.941 3.52c-.147-.792-.411-1.393-.792-1.804-.367-.411-.931-.616-1.694-.616-.499 0-.917.088-1.254.264-.323.161-.587.367-.792.616-.191.249-.33.513-.418.792-.073.279-.117.528-.132.748zm-5.082 1.98c.044 1.012.301 1.745.77 2.2s1.144.682 2.024.682c.631 0 1.173-.154 1.628-.462.455-.323.733-.66.836-1.012h2.75c-.44 1.364-1.115 2.339-2.024 2.926s-2.009.88-3.3.88c-.895 0-1.701-.139-2.42-.418-.719-.293-1.327-.704-1.826-1.232s-.887-1.159-1.166-1.892c-.264-.733-.396-1.54-.396-2.42 0-.851.139-1.643.418-2.376s.675-1.364 1.188-1.892c.513-.543 1.122-.968 1.826-1.276.719-.308 1.511-.462 2.376-.462.968 0 1.811.191 2.53.572.719.367 1.305.865 1.76 1.496.469.631.807 1.349 1.012 2.156s.279 1.65.22 2.53zm9.927-10.78h3.124v15.708h-3.124zm5.452 0h3.124v15.708h-3.124z"/><path d="m426.563 340.928h4.07l-1.98-5.764h-.044zm.33-9.636h3.542l5.874 15.708h-3.586l-1.188-3.498h-5.874l-1.232 3.498h-3.476zm10.22 4.334h2.97v2.112h.044c.147-.352.345-.675.594-.968.25-.308.536-.565.858-.77.323-.22.668-.389 1.034-.506.367-.117.748-.176 1.144-.176.206 0 .433.037.682.11v2.904c-.146-.029-.322-.051-.528-.066-.205-.029-.403-.044-.594-.044-.572 0-1.056.095-1.452.286s-.718.455-.968.792c-.234.323-.403.704-.506 1.144-.102.44-.154.917-.154 1.43v5.126h-3.124zm15.6 4.466c-.146-.792-.41-1.393-.792-1.804-.366-.411-.931-.616-1.694-.616-.498 0-.916.088-1.254.264-.322.161-.586.367-.792.616-.19.249-.33.513-.418.792-.073.279-.117.528-.132.748zm-5.082 1.98c.044 1.012.301 1.745.77 2.2.47.455 1.144.682 2.024.682.631 0 1.174-.154 1.628-.462.455-.323.734-.66.836-1.012h2.75c-.44 1.364-1.114 2.339-2.024 2.926-.909.587-2.009.88-3.3.88-.894 0-1.701-.139-2.42-.418-.718-.293-1.327-.704-1.826-1.232-.498-.528-.887-1.159-1.166-1.892-.264-.733-.396-1.54-.396-2.42 0-.851.14-1.643.418-2.376.279-.733.675-1.364 1.188-1.892.514-.543 1.122-.968 1.826-1.276.719-.308 1.511-.462 2.376-.462.968 0 1.812.191 2.53.572.719.367 1.306.865 1.76 1.496.47.631.807 1.349 1.012 2.156.206.807.279 1.65.22 2.53zm9.707-2.948c.044-.733.228-1.342.55-1.826.323-.484.734-.873 1.232-1.166.499-.293 1.056-.499 1.672-.616.631-.132 1.262-.198 1.892-.198.572 0 1.152.044 1.738.132.587.073 1.122.227 1.606.462s.88.565 1.188.99c.308.411.462.961.462 1.65v5.918c0 .513.03 1.005.088 1.474.059.469.162.821.308 1.056h-3.168c-.058-.176-.11-.352-.154-.528-.029-.191-.051-.381-.066-.572-.498.513-1.085.873-1.76 1.078-.674.205-1.364.308-2.068.308-.542 0-1.048-.066-1.518-.198-.469-.132-.88-.337-1.232-.616s-.63-.631-.836-1.056c-.19-.425-.286-.931-.286-1.518 0-.645.11-1.173.33-1.584.235-.425.528-.763.88-1.012.367-.249.778-.433 1.232-.55.47-.132.939-.235 1.408-.308.47-.073.932-.132 1.386-.176.455-.044.858-.11 1.21-.198s.631-.213.836-.374c.206-.176.301-.425.286-.748 0-.337-.058-.601-.176-.792-.102-.205-.249-.359-.44-.462-.176-.117-.388-.191-.638-.22-.234-.044-.491-.066-.77-.066-.616 0-1.1.132-1.452.396s-.557.704-.616 1.32zm7.216 2.31c-.132.117-.3.213-.506.286-.19.059-.403.11-.638.154-.22.044-.454.081-.704.11-.249.029-.498.066-.748.11-.234.044-.469.103-.704.176-.22.073-.418.176-.594.308-.161.117-.293.271-.396.462-.102.191-.154.433-.154.726 0 .279.052.513.154.704.103.191.242.345.418.462.176.103.382.176.616.22.235.044.477.066.726.066.616 0 1.093-.103 1.43-.308.338-.205.587-.447.748-.726.162-.293.257-.587.286-.88.044-.293.066-.528.066-.704z"/><path d="m157.995 282.196h-4.708v-2.904h12.87v2.904h-4.708v12.804h-3.454zm7.403 1.43h2.97v2.112h.044c.147-.352.345-.675.594-.968.25-.308.536-.565.858-.77.323-.22.668-.389 1.034-.506.367-.117.748-.176 1.144-.176.206 0 .433.037.682.11v2.904c-.146-.029-.322-.051-.528-.066-.205-.029-.403-.044-.594-.044-.572 0-1.056.095-1.452.286s-.718.455-.968.792c-.234.323-.403.704-.506 1.144-.102.44-.154.917-.154 1.43v5.126h-3.124zm8.199 3.498c.044-.733.227-1.342.55-1.826s.733-.873 1.232-1.166 1.056-.499 1.672-.616c.631-.132 1.261-.198 1.892-.198.572 0 1.151.044 1.738.132.587.073 1.122.227 1.606.462s.88.565 1.188.99c.308.411.462.961.462 1.65v5.918c0 .513.029 1.005.088 1.474s.161.821.308 1.056h-3.168c-.059-.176-.11-.352-.154-.528-.029-.191-.051-.381-.066-.572-.499.513-1.085.873-1.76 1.078s-1.364.308-2.068.308c-.543 0-1.049-.066-1.518-.198s-.88-.337-1.232-.616-.631-.631-.836-1.056c-.191-.425-.286-.931-.286-1.518 0-.645.11-1.173.33-1.584.235-.425.528-.763.88-1.012.367-.249.777-.433 1.232-.55.469-.132.939-.235 1.408-.308s.931-.132 1.386-.176.858-.11 1.21-.198.631-.213.836-.374c.205-.176.301-.425.286-.748 0-.337-.059-.601-.176-.792-.103-.205-.249-.359-.44-.462-.176-.117-.389-.191-.638-.22-.235-.044-.491-.066-.77-.066-.616 0-1.1.132-1.452.396s-.557.704-.616 1.32zm7.216 2.31c-.132.117-.301.213-.506.286-.191.059-.403.11-.638.154-.22.044-.455.081-.704.11s-.499.066-.748.11c-.235.044-.469.103-.704.176-.22.073-.418.176-.594.308-.161.117-.293.271-.396.462s-.154.433-.154.726c0 .279.051.513.154.704s.242.345.418.462c.176.103.381.176.616.22s.477.066.726.066c.616 0 1.093-.103 1.43-.308s.587-.447.748-.726c.161-.293.257-.587.286-.88.044-.293.066-.528.066-.704zm13.073-1.804c-.206-1.305-.976-1.958-2.31-1.958-.499 0-.917.117-1.254.352-.338.22-.616.513-.836.88-.206.352-.352.748-.44 1.188-.088.425-.132.851-.132 1.276 0 .411.044.829.132 1.254s.227.814.418 1.166c.205.337.476.616.814.836.337.22.748.33 1.232.33.748 0 1.32-.205 1.716-.616.41-.425.667-.99.77-1.694h3.014c-.206 1.511-.792 2.662-1.76 3.454s-2.208 1.188-3.718 1.188c-.851 0-1.636-.139-2.354-.418-.704-.293-1.306-.697-1.804-1.21-.499-.513-.888-1.122-1.166-1.826-.279-.719-.418-1.503-.418-2.354 0-.88.124-1.694.374-2.442.264-.763.645-1.415 1.144-1.958.498-.557 1.107-.99 1.826-1.298.718-.308 1.54-.462 2.464-.462.674 0 1.32.088 1.936.264.63.176 1.188.447 1.672.814.498.352.902.799 1.21 1.342.308.528.484 1.159.528 1.892zm4.955-8.338h3.124v8.426l3.938-4.092h3.696l-4.29 4.18 4.774 7.194h-3.784l-3.124-5.082-1.21 1.166v3.916h-3.124zm-59.493 47.674c-.52-.832-1.014-1.69-1.482-2.574-.451-.884-.849-1.811-1.196-2.782-.329-.988-.589-2.028-.78-3.12s-.286-2.262-.286-3.51c0-2.097.321-4.16.962-6.188.659-2.028 1.586-3.961 2.782-5.798h2.418c-1.04 1.872-1.837 3.796-2.392 5.772-.537 1.959-.806 4.03-.806 6.214s.26 4.264.78 6.24 1.326 3.891 2.418 5.746zm13.948-15.394c-.058-.396-.19-.755-.396-1.078-.205-.337-.462-.631-.77-.88s-.66-.44-1.056-.572c-.381-.147-.784-.22-1.21-.22-.777 0-1.437.154-1.98.462-.542.293-.982.697-1.32 1.21-.337.499-.586 1.071-.748 1.716-.146.645-.22 1.313-.22 2.002 0 .66.074 1.305.22 1.936.162.616.411 1.173.748 1.672.338.499.778.902 1.32 1.21.543.293 1.203.44 1.98.44 1.056 0 1.878-.323 2.464-.968.602-.645.968-1.496 1.1-2.552h3.344c-.088.983-.315 1.87-.682 2.662-.366.792-.85 1.467-1.452 2.024-.601.557-1.305.983-2.112 1.276-.806.293-1.694.44-2.662.44-1.202 0-2.288-.205-3.256-.616-.953-.425-1.76-1.005-2.42-1.738s-1.166-1.591-1.518-2.574c-.352-.997-.528-2.068-.528-3.212 0-1.173.176-2.259.528-3.256.352-1.012.858-1.892 1.518-2.64s1.467-1.335 2.42-1.76c.968-.425 2.054-.638 3.256-.638.866 0 1.68.125 2.442.374.778.249 1.467.616 2.068 1.1.616.469 1.122 1.056 1.518 1.76s.646 1.511.748 2.42zm8.057 4.752c0 .455.044.902.132 1.342.088.425.235.814.44 1.166.22.337.506.609.858.814s.792.308 1.32.308.968-.103 1.32-.308c.367-.205.653-.477.858-.814.22-.352.374-.741.462-1.166.088-.44.132-.887.132-1.342s-.044-.902-.132-1.342-.242-.829-.462-1.166c-.205-.337-.491-.609-.858-.814-.352-.22-.792-.33-1.32-.33s-.968.11-1.32.33c-.352.205-.638.477-.858.814-.205.337-.352.726-.44 1.166s-.132.887-.132 1.342zm-3.124 0c0-.909.139-1.731.418-2.464.279-.748.675-1.379 1.188-1.892.513-.528 1.129-.931 1.848-1.21.719-.293 1.525-.44 2.42-.44s1.701.147 2.42.44c.733.279 1.357.682 1.87 1.21.513.513.909 1.144 1.188 1.892.279.733.418 1.555.418 2.464s-.139 1.731-.418 2.464-.675 1.364-1.188 1.892c-.513.513-1.137.909-1.87 1.188-.719.279-1.525.418-2.42.418s-1.701-.139-2.42-.418-1.335-.675-1.848-1.188c-.513-.528-.909-1.159-1.188-1.892s-.418-1.555-.418-2.464zm13.669-10.032h3.124v15.708h-3.124zm16.034 15.708h-2.97v-1.584h-.066c-.396.66-.909 1.137-1.54 1.43s-1.276.44-1.936.44c-.836 0-1.525-.11-2.068-.33-.528-.22-.946-.528-1.254-.924-.308-.411-.528-.902-.66-1.474-.117-.587-.176-1.232-.176-1.936v-6.996h3.124v6.424c0 .939.147 1.643.44 2.112.293.455.814.682 1.562.682.851 0 1.467-.249 1.848-.748.381-.513.572-1.349.572-2.508v-5.962h3.124zm2.239-11.374h2.948v1.54h.044c.411-.587.902-1.041 1.474-1.364.587-.323 1.254-.484 2.002-.484.719 0 1.371.139 1.958.418.601.279 1.056.77 1.364 1.474.337-.499.792-.939 1.364-1.32.587-.381 1.276-.572 2.068-.572.601 0 1.159.073 1.672.22s.953.381 1.32.704.653.748.858 1.276c.205.513.308 1.137.308 1.87v7.612h-3.124v-6.446c0-.381-.015-.741-.044-1.078s-.11-.631-.242-.88-.33-.447-.594-.594c-.249-.147-.594-.22-1.034-.22s-.799.088-1.078.264c-.264.161-.477.381-.638.66-.147.264-.249.572-.308.924-.044.337-.066.682-.066 1.034v6.336h-3.124v-6.38c0-.337-.007-.667-.022-.99-.015-.337-.081-.645-.198-.924-.103-.279-.286-.499-.55-.66-.249-.176-.623-.264-1.122-.264-.147 0-.345.037-.594.11-.235.059-.469.183-.704.374-.22.176-.411.44-.572.792-.161.337-.242.785-.242 1.342v6.6h-3.124zm19.63 0h2.97v1.584h.066c.396-.66.909-1.137 1.54-1.43.63-.308 1.276-.462 1.936-.462.836 0 1.518.117 2.046.352.542.22.968.535 1.276.946.308.396.52.887.638 1.474.132.572.198 1.21.198 1.914v6.996h-3.124v-6.424c0-.939-.147-1.635-.44-2.09-.294-.469-.814-.704-1.562-.704-.851 0-1.467.257-1.848.77-.382.499-.572 1.327-.572 2.486v5.962h-3.124zm13.843-7.632c.52.832 1.005 1.699 1.456 2.6.45.884.84 1.82 1.17 2.808.346.971.615 2.002.806 3.094.208 1.092.312 2.262.312 3.51 0 2.097-.33 4.16-.988 6.188-.642 2.028-1.56 3.952-2.756 5.772h-2.418c1.04-1.855 1.828-3.761 2.366-5.72.554-1.976.832-4.056.832-6.24s-.26-4.264-.78-6.24-1.326-3.9-2.418-5.772z"/><path d="m336.255 139.196h-4.708v-2.904h12.87v2.904h-4.708v12.804h-3.454zm7.403 1.43h2.97v2.112h.044c.147-.352.345-.675.594-.968.25-.308.536-.565.858-.77.323-.22.668-.389 1.034-.506.367-.117.748-.176 1.144-.176.206 0 .433.037.682.11v2.904c-.146-.029-.322-.051-.528-.066-.205-.029-.403-.044-.594-.044-.572 0-1.056.095-1.452.286s-.718.455-.968.792c-.234.323-.403.704-.506 1.144-.102.44-.154.917-.154 1.43v5.126h-3.124zm8.199 3.498c.044-.733.227-1.342.55-1.826s.733-.873 1.232-1.166 1.056-.499 1.672-.616c.631-.132 1.261-.198 1.892-.198.572 0 1.151.044 1.738.132.587.073 1.122.227 1.606.462s.88.565 1.188.99c.308.411.462.961.462 1.65v5.918c0 .513.029 1.005.088 1.474s.161.821.308 1.056h-3.168c-.059-.176-.11-.352-.154-.528-.029-.191-.051-.381-.066-.572-.499.513-1.085.873-1.76 1.078s-1.364.308-2.068.308c-.543 0-1.049-.066-1.518-.198s-.88-.337-1.232-.616-.631-.631-.836-1.056c-.191-.425-.286-.931-.286-1.518 0-.645.11-1.173.33-1.584.235-.425.528-.763.88-1.012.367-.249.777-.433 1.232-.55.469-.132.939-.235 1.408-.308s.931-.132 1.386-.176.858-.11 1.21-.198.631-.213.836-.374c.205-.176.301-.425.286-.748 0-.337-.059-.601-.176-.792-.103-.205-.249-.359-.44-.462-.176-.117-.389-.191-.638-.22-.235-.044-.491-.066-.77-.066-.616 0-1.1.132-1.452.396s-.557.704-.616 1.32zm7.216 2.31c-.132.117-.301.213-.506.286-.191.059-.403.11-.638.154-.22.044-.455.081-.704.11s-.499.066-.748.11c-.235.044-.469.103-.704.176-.22.073-.418.176-.594.308-.161.117-.293.271-.396.462s-.154.433-.154.726c0 .279.051.513.154.704s.242.345.418.462c.176.103.381.176.616.22s.477.066.726.066c.616 0 1.093-.103 1.43-.308s.587-.447.748-.726c.161-.293.257-.587.286-.88.044-.293.066-.528.066-.704zm13.073-1.804c-.205-1.305-.975-1.958-2.31-1.958-.499 0-.917.117-1.254.352-.337.22-.616.513-.836.88-.205.352-.352.748-.44 1.188-.088.425-.132.851-.132 1.276 0 .411.044.829.132 1.254s.227.814.418 1.166c.205.337.477.616.814.836s.748.33 1.232.33c.748 0 1.32-.205 1.716-.616.411-.425.667-.99.77-1.694h3.014c-.205 1.511-.792 2.662-1.76 3.454s-2.207 1.188-3.718 1.188c-.851 0-1.635-.139-2.354-.418-.704-.293-1.305-.697-1.804-1.21s-.887-1.122-1.166-1.826c-.279-.719-.418-1.503-.418-2.354 0-.88.125-1.694.374-2.442.264-.763.645-1.415 1.144-1.958.499-.557 1.107-.99 1.826-1.298s1.54-.462 2.464-.462c.675 0 1.32.088 1.936.264.631.176 1.188.447 1.672.814.499.352.902.799 1.21 1.342.308.528.484 1.159.528 1.892zm4.955-8.338h3.124v8.426l3.938-4.092h3.696l-4.29 4.18 4.774 7.194h-3.784l-3.124-5.082-1.21 1.166v3.916h-3.124zm21.86 20.674c-.52-.832-1.014-1.69-1.482-2.574-.451-.884-.85-1.811-1.196-2.782-.33-.988-.59-2.028-.78-3.12-.191-1.092-.286-2.262-.286-3.51 0-2.097.32-4.16.962-6.188.658-2.028 1.586-3.961 2.782-5.798h2.418c-1.04 1.872-1.838 3.796-2.392 5.772-.538 1.959-.806 4.03-.806 6.214s.26 4.264.78 6.24 1.326 3.891 2.418 5.746zm6.93-13.568h3.784c.792 0 1.386-.176 1.782-.528s.594-.924.594-1.716c0-.763-.198-1.313-.594-1.65-.396-.352-.99-.528-1.782-.528h-3.784zm-3.454-7.106h8.47c.704 0 1.335.117 1.892.352.572.22 1.056.528 1.452.924.411.396.719.858.924 1.386.22.513.33 1.071.33 1.672 0 .924-.198 1.723-.594 2.398-.381.675-1.012 1.188-1.892 1.54v.044c.425.117.777.301 1.056.55.279.235.506.521.682.858.176.323.301.682.374 1.078.088.396.147.792.176 1.188.015.249.029.543.044.88s.037.682.066 1.034c.044.352.103.689.176 1.012.088.308.213.572.374.792h-3.454c-.191-.499-.308-1.093-.352-1.782s-.11-1.349-.198-1.98c-.117-.821-.367-1.423-.748-1.804s-1.005-.572-1.87-.572h-3.454v6.138h-3.454zm18.099 10.032c0 .455.044.902.132 1.342.088.425.235.814.44 1.166.22.337.506.609.858.814s.792.308 1.32.308.968-.103 1.32-.308c.367-.205.653-.477.858-.814.22-.352.374-.741.462-1.166.088-.44.132-.887.132-1.342s-.044-.902-.132-1.342-.242-.829-.462-1.166c-.205-.337-.491-.609-.858-.814-.352-.22-.792-.33-1.32-.33s-.968.11-1.32.33c-.352.205-.638.477-.858.814-.205.337-.352.726-.44 1.166s-.132.887-.132 1.342zm-3.124 0c0-.909.139-1.731.418-2.464.279-.748.675-1.379 1.188-1.892.513-.528 1.129-.931 1.848-1.21.719-.293 1.525-.44 2.42-.44s1.701.147 2.42.44c.733.279 1.357.682 1.87 1.21.513.513.909 1.144 1.188 1.892.279.733.418 1.555.418 2.464s-.139 1.731-.418 2.464-.675 1.364-1.188 1.892c-.513.513-1.137.909-1.87 1.188-.719.279-1.525.418-2.42.418s-1.701-.139-2.42-.418-1.335-.675-1.848-1.188c-.513-.528-.909-1.159-1.188-1.892s-.418-1.555-.418-2.464zm26.583 5.676h-3.212l-2.024-7.634h-.044l-1.936 7.634h-3.234l-3.608-11.374h3.3l2.09 7.722h.044l1.892-7.722h3.036l1.936 7.7h.044l2.09-7.7h3.212zm5.718-19.006c.52.832 1.005 1.699 1.456 2.6.451.884.841 1.82 1.17 2.808.347.971.615 2.002.806 3.094.208 1.092.312 2.262.312 3.51 0 2.097-.329 4.16-.988 6.188-.641 2.028-1.56 3.952-2.756 5.772h-2.418c1.04-1.855 1.829-3.761 2.366-5.72.555-1.976.832-4.056.832-6.24s-.26-4.264-.78-6.24-1.326-3.9-2.418-5.772z"/></g></svg>