<svg width="610" height="361" viewBox="0 0 610 361" fill="none" xmlns="http://www.w3.org/2000/svg">
<path d="M0 44C0 42.8954 0.895431 42 2 42H608C609.105 42 610 42.8954 610 44V279C610 280.105 609.105 281 608 281H1.99999C0.895421 281 0 280.105 0 279V44Z" fill="black" fill-opacity="0.1"/>
<path d="M50.76 87.184C47.512 87.184 44.208 89.928 42.864 93.176V103.536C44.656 107.12 47.624 109.472 51.432 109.472C56.248 109.472 59.048 105.216 59.048 98.44C59.048 90.88 55.856 87.184 50.76 87.184ZM38.384 124.144V85.728C38.384 84.216 39.112 82.928 40.624 82.928C42.136 82.928 42.864 84.16 42.864 85.728V86.512C44.488 84.608 47.736 82.76 51.096 82.76C57.592 82.76 63.528 87.968 63.528 98.44C63.528 107.624 58.656 113.84 51.6 113.84C48.352 113.84 45.328 112.552 42.864 110.2V124.144C42.864 125.712 42.136 126.944 40.624 126.944C39.112 126.944 38.384 125.656 38.384 124.144ZM109.326 91.776C109.326 90.208 110.614 89.48 112.126 89.48C117.39 89.48 118.902 87.8 118.902 82.592C118.902 74.808 123.214 69.712 133.966 69.712C135.478 69.712 136.766 70.44 136.766 71.952C136.766 73.464 135.534 74.192 133.966 74.192C124.782 74.192 123.382 77.888 123.382 82.592C123.382 85.784 123.55 89.928 121.086 91.776C123.27 93.96 123.382 97.152 123.382 100.176C123.382 105.328 126.518 109.248 133.966 109.248C135.478 109.248 136.766 109.976 136.766 111.488C136.766 113 135.478 113.728 133.966 113.728C124.95 113.728 118.902 109.472 118.902 100.176C118.902 95.696 117.39 93.96 112.126 93.96C110.614 93.96 109.326 93.344 109.326 91.776ZM184.189 166.216C184.189 156.08 191.021 150.872 197.405 150.872C203.117 150.872 206.421 154.848 206.421 156.696C206.421 158.264 205.469 158.992 204.293 158.992C201.493 158.992 201.829 155.352 197.293 155.352C192.309 155.352 188.669 159.496 188.669 166.216C188.669 173.16 192.365 177.528 197.013 177.528C202.501 177.528 202.725 172.992 205.525 172.992C206.589 172.992 207.485 173.72 207.485 175.008C207.485 177.584 203.341 182.008 197.293 182.008C190.181 182.008 184.189 176.688 184.189 166.216ZM218.596 166.272C218.596 157.424 224.028 150.536 232.036 150.536C239.764 150.536 245.476 157.424 245.476 166.272C245.476 175.008 239.876 181.896 232.036 181.896C224.14 181.896 218.596 175.12 218.596 166.272ZM223.076 166.272C223.076 172.376 226.268 177.416 232.036 177.416C237.804 177.416 240.996 172.376 240.996 166.272C240.996 159.552 237.692 155.016 232.036 155.016C226.324 155.016 223.076 159.608 223.076 166.272ZM262.299 168.232V140.568C262.299 139 263.027 137.712 264.595 137.712C266.107 137.712 266.779 139 266.779 140.568V168.232C266.779 173.048 268.627 176.912 275.683 176.912C277.979 176.912 279.267 177.64 279.267 179.152C279.267 180.664 277.979 181.392 275.515 181.392C266.331 181.392 262.299 177.36 262.299 168.232ZM291.33 166.272C291.33 157.424 296.762 150.536 304.77 150.536C312.498 150.536 318.21 157.424 318.21 166.272C318.21 175.008 312.61 181.896 304.77 181.896C296.874 181.896 291.33 175.12 291.33 166.272ZM295.81 166.272C295.81 172.376 299.002 177.416 304.77 177.416C310.538 177.416 313.73 172.376 313.73 166.272C313.73 159.552 310.426 155.016 304.77 155.016C299.058 155.016 295.81 159.608 295.81 166.272ZM332.85 178.928V153.784C332.85 152.272 333.578 151.04 335.09 151.04C336.658 151.04 337.329 152.216 337.329 154.904C338.954 152.888 342.65 150.816 345.45 150.816C350.378 150.816 354.186 154.792 354.242 158.544C354.242 160.112 353.514 161.4 352.002 161.4C350.602 161.4 349.986 160.168 349.762 159.216C349.202 157.088 347.858 155.296 344.834 155.296C342.202 155.296 339.122 157.704 337.329 160.336V178.928C337.329 180.496 336.602 181.728 335.09 181.728C333.578 181.728 332.85 180.44 332.85 178.928ZM373.529 157.592V156.08C373.529 154.008 374.817 152.72 376.889 152.72H378.177C380.249 152.72 381.537 153.952 381.537 156.08V157.592C381.537 159.72 380.249 160.952 378.177 160.952H376.889C374.817 160.952 373.529 159.664 373.529 157.592ZM373.529 178.2V176.688C373.529 174.616 374.817 173.328 376.889 173.328H378.177C380.249 173.328 381.537 174.56 381.537 176.688V178.2C381.537 180.328 380.249 181.56 378.177 181.56H376.889C374.817 181.56 373.529 180.272 373.529 178.2ZM441.951 178.928V153.784C441.951 152.272 442.679 151.04 444.191 151.04C445.759 151.04 446.431 152.216 446.431 154.904C448.055 152.888 451.751 150.816 454.551 150.816C459.479 150.816 463.287 154.792 463.343 158.544C463.343 160.112 462.615 161.4 461.103 161.4C459.703 161.4 459.087 160.168 458.863 159.216C458.303 157.088 456.959 155.296 453.935 155.296C451.303 155.296 448.223 157.704 446.431 160.336V178.928C446.431 180.496 445.703 181.728 444.191 181.728C442.679 181.728 441.951 180.44 441.951 178.928ZM474.342 165.656C474.342 157.312 480.558 150.536 487.614 150.536C496.126 150.536 499.654 157.592 499.654 163.528C499.654 165.936 498.87 167.224 496.462 167.224H478.934C479.438 173.888 483.078 177.36 488.342 177.36C493.606 177.36 495.062 174.168 496.966 174.168C498.086 174.168 499.038 174.84 499.038 176.184C499.038 178.816 493.158 181.84 488.79 181.84C479.438 181.84 474.342 175.12 474.342 165.656ZM479.214 162.744H494.726C494.39 158.04 492.318 155.016 487.446 155.016C482.35 155.016 480.166 158.712 479.214 162.744ZM530.253 171.48V161.12C528.461 157.536 525.493 155.184 521.685 155.184C516.869 155.184 514.069 159.44 514.069 166.216C514.069 173.776 517.261 177.472 522.357 177.472C525.605 177.472 528.909 174.728 530.253 171.48ZM534.733 178.928C534.733 180.44 534.005 181.728 532.493 181.728C530.981 181.728 530.253 180.496 530.253 178.928V178.144C528.629 180.048 525.381 181.896 522.021 181.896C515.525 181.896 509.589 176.688 509.589 166.216C509.589 157.032 514.461 150.816 521.517 150.816C524.765 150.816 527.789 152.104 530.253 154.456V140.512C530.253 138.944 530.981 137.712 532.493 137.712C534.005 137.712 534.733 139 534.733 140.512V178.928ZM555.365 157.704V156.192C555.365 154.12 556.653 152.832 558.725 152.832H560.013C562.085 152.832 563.373 154.064 563.373 156.192V157.704C563.373 159.832 562.085 161.064 560.013 161.064H558.725C556.653 161.064 555.365 159.776 555.365 157.704ZM550.213 189.624C550.213 188.56 550.661 187.664 551.053 186.768L556.597 173.832C557.269 172.264 558.557 171.088 560.405 171.088H561.525C563.597 171.088 564.885 172.32 564.885 174.448C564.885 175.792 564.325 176.856 563.261 178.368L555.533 189.232C554.637 190.52 553.573 191.304 552.173 191.304C550.829 191.304 550.213 190.184 550.213 189.624ZM68.904 227.664C68.904 229.232 67.616 229.96 66.104 229.96C60.84 229.96 59.328 231.64 59.328 236.848C59.328 244.632 55.016 249.728 44.264 249.728C42.752 249.728 41.464 249 41.464 247.488C41.464 245.976 42.696 245.248 44.264 245.248C53.448 245.248 54.848 241.552 54.848 236.848C54.848 233.656 54.68 229.512 57.144 227.664C54.96 225.48 54.848 222.288 54.848 219.264C54.848 214.112 51.712 210.192 44.264 210.192C42.752 210.192 41.464 209.464 41.464 207.952C41.464 206.44 42.752 205.712 44.264 205.712C53.28 205.712 59.328 209.968 59.328 219.264C59.328 223.744 60.84 225.48 66.104 225.48C67.616 225.48 68.904 226.096 68.904 227.664Z" fill="black"/>
<path d="M21.3053 14.1748C21.3053 16.7174 18.8308 18.7946 15.5561 18.7946C14.6764 18.7946 13.8876 18.63 13.2065 18.3462C12.3552 17.9886 11.6685 17.4438 11.1577 16.8082C10.2496 15.6788 10.0113 14.4756 9.95452 13.8116C9.95452 13.7889 9.94885 13.7662 9.94885 13.7435C9.94885 13.3065 10.3064 12.9489 10.7434 12.9489C11.1577 12.9489 11.4982 13.2667 11.5323 13.6697C11.5947 14.3734 11.8785 15.168 12.3949 15.8093C12.9398 16.4847 13.9103 17.2054 15.5561 17.2054C17.9 17.2054 19.7162 15.8434 19.7162 14.1748C19.7162 12.9603 19.1373 12.0409 17.1622 11.4904C16.6344 11.3428 16.0499 11.235 15.454 11.1555C14.3643 11.0079 13.337 10.7923 12.4914 10.3553C11.4074 9.78774 10.5391 8.79455 10.5391 7.02951C10.5391 4.75369 12.7752 2.90352 15.5561 2.90352C16.2599 2.90352 16.9806 3.03405 17.6503 3.31782C18.2462 3.56754 18.8081 3.93644 19.2678 4.44722C19.8126 5.05448 20.2326 5.88876 20.3404 6.94438C20.3404 6.97276 20.3461 7.00113 20.3461 7.02951C20.3461 7.46651 19.9886 7.82406 19.5516 7.82406C19.1429 7.82406 18.8024 7.51192 18.7627 7.10897C18.6889 6.4109 18.4392 5.90011 18.0873 5.50851C17.8036 5.19637 17.446 4.95233 17.0374 4.78207C16.5777 4.5891 16.0555 4.49262 15.5561 4.49262C13.6776 4.49262 12.1282 5.64472 12.1282 7.02951C12.1282 8.13053 12.5936 8.61861 13.2235 8.94779C13.8024 9.24858 14.597 9.43587 15.6696 9.58343C17.4914 9.83314 19.4324 10.3155 20.5107 11.7003C20.9704 12.2906 21.3053 13.0965 21.3053 14.1748ZM26.4598 13.8229C26.4825 15.7866 27.5268 17.3417 28.6448 17.3417C29.5359 17.3417 30.3134 16.5528 30.6539 15.3269C30.7447 14.9921 31.0569 14.748 31.4201 14.748C31.8571 14.748 32.2147 15.1056 32.2147 15.5426C32.2147 15.6163 32.2033 15.6901 32.1863 15.7582C32.1011 16.0704 31.6755 17.5687 30.3645 18.4143C29.8537 18.7435 29.2635 18.9308 28.6448 18.9308C26.5506 18.9308 24.8707 16.6322 24.8707 13.7548C24.8707 13.2157 24.9218 12.0919 25.4439 10.9228C25.7334 10.2758 26.1307 9.70829 26.6244 9.27128C27.1806 8.7832 27.873 8.46538 28.6448 8.46538C30.0523 8.46538 31.3179 9.521 31.9763 11.3825C32.0501 11.5982 32.2147 12.109 32.2147 12.6197C32.2147 12.756 32.209 13.1135 31.9933 13.42C31.9366 13.4994 31.8571 13.5846 31.7549 13.6583C31.6017 13.7662 31.4087 13.8229 31.2271 13.8229H26.4598ZM30.5745 12.2338C30.4156 11.5414 29.7459 10.0545 28.6448 10.0545C28.3213 10.0545 27.9922 10.1793 27.6687 10.4631C27.2998 10.7866 26.8968 11.3655 26.6585 12.2338H30.5745ZM36.5889 2.90352C37.0316 2.90352 37.3835 3.26674 37.3835 3.69807V18C37.3835 18.4313 37.0316 18.7946 36.5889 18.7946H36.5832C36.1462 18.7946 35.7887 18.4427 35.7887 18V3.69807C35.7887 3.26107 36.1462 2.90352 36.5832 2.90352H36.5889ZM42.534 13.8229C42.5567 15.7866 43.601 17.3417 44.7191 17.3417C45.6101 17.3417 46.3876 16.5528 46.7281 15.3269C46.8189 14.9921 47.1311 14.748 47.4943 14.748C47.9313 14.748 48.2889 15.1056 48.2889 15.5426C48.2889 15.6163 48.2775 15.6901 48.2605 15.7582C48.1754 16.0704 47.7497 17.5687 46.4387 18.4143C45.9279 18.7435 45.3377 18.9308 44.7191 18.9308C42.6249 18.9308 40.9449 16.6322 40.9449 13.7548C40.9449 13.2157 40.996 12.0919 41.5182 10.9228C41.8076 10.2758 42.2049 9.70829 42.6986 9.27128C43.2548 8.7832 43.9472 8.46538 44.7191 8.46538C46.1266 8.46538 47.3922 9.521 48.0505 11.3825C48.1243 11.5982 48.2889 12.109 48.2889 12.6197C48.2889 12.756 48.2832 13.1135 48.0675 13.42C48.0108 13.4994 47.9313 13.5846 47.8292 13.6583C47.6759 13.7662 47.483 13.8229 47.3014 13.8229H42.534ZM46.6487 12.2338C46.4898 11.5414 45.8201 10.0545 44.7191 10.0545C44.3956 10.0545 44.0664 10.1793 43.7429 10.4631C43.374 10.7866 42.971 11.3655 42.7327 12.2338H46.6487ZM53.452 13.6981C53.452 15.7128 54.519 17.3417 55.6995 17.3417C56.0854 17.3417 56.4146 17.2281 56.6983 17.0352C56.9253 16.8763 57.1183 16.6663 57.2715 16.4052C57.4418 16.1158 57.561 15.7696 57.5894 15.395C57.6234 14.9864 57.9639 14.6629 58.3782 14.6629C58.8152 14.6629 59.1728 15.0204 59.1728 15.4574C59.1728 15.4745 59.1614 16.3371 58.645 17.2111C58.3839 17.6595 58.032 18.0454 57.6007 18.3405C57.0615 18.7094 56.4089 18.9308 55.6995 18.9308C53.5655 18.9308 51.8629 16.6095 51.8629 13.6981C51.8629 10.7866 53.5655 8.46538 55.6995 8.46538C56.3862 8.46538 57.0105 8.67537 57.5099 9.04427C58.8209 10.0091 58.9514 11.6947 58.9514 11.7968C58.9514 12.2338 58.5939 12.5914 58.1569 12.5914C57.7539 12.5914 57.4191 12.2849 57.368 11.8933C57.3283 11.5641 57.1694 10.7639 56.5735 10.3269C56.3408 10.1566 56.0627 10.0545 55.6995 10.0545C54.519 10.0545 53.452 11.6833 53.452 13.6981ZM67.7078 16.0988C67.7078 15.6617 68.0653 15.3042 68.5023 15.3042C68.9393 15.3042 69.2969 15.6617 69.2969 16.0988V16.4109C69.2969 17.7276 68.2299 18.7946 66.9132 18.7946C65.5965 18.7946 64.5296 17.7276 64.5296 16.4109V10.1964L62.9405 10.1907C62.5035 10.1907 62.1459 9.83314 62.1459 9.39614C62.1459 8.95914 62.5035 8.60159 62.9405 8.60159H64.5296V6.87628C64.5296 6.43927 64.8871 6.08172 65.3241 6.08172C65.7611 6.08172 66.1187 6.43927 66.1187 6.87628V8.59591L68.5023 8.60159C68.9393 8.60159 69.2969 8.95914 69.2969 9.39614C69.2969 9.83314 68.9393 10.1907 68.5023 10.1907H66.1187V16.4109C66.1187 16.8536 66.4705 17.2054 66.9132 17.2054C67.3559 17.2054 67.7078 16.8536 67.7078 16.4109V16.0988ZM76.6527 18.9308C74.5584 18.9308 72.8785 16.6322 72.8785 13.7548C72.8785 13.2157 72.9296 12.0919 73.4517 10.9228C73.7412 10.2758 74.1385 9.70829 74.6322 9.27128C75.1884 8.7832 75.8808 8.46538 76.6527 8.46538C78.7582 8.46538 80.4268 10.7866 80.4268 13.6981C80.4268 16.6095 78.7582 18.9308 76.6527 18.9308ZM78.8377 13.6981C78.8377 11.6833 77.7991 10.0545 76.6527 10.0545C75.4949 10.0545 74.4676 11.723 74.4676 13.7548C74.4676 15.7469 75.5176 17.3417 76.6527 17.3417C77.7991 17.3417 78.8377 15.7185 78.8377 13.6981ZM87.2091 8.46538C88.9628 8.46538 90.3873 9.8899 90.3873 11.6436V11.9557C90.3873 12.3927 90.0297 12.7503 89.5927 12.7503C89.1557 12.7503 88.7982 12.3927 88.7982 11.9557V11.6436C88.7982 10.7639 88.0888 10.0545 87.2091 10.0545C86.3351 10.0545 85.6257 10.7639 85.6257 11.6436C85.6257 11.6776 85.6257 11.706 85.62 11.7401V18C85.62 18.437 85.2624 18.7946 84.8254 18.7946C84.3884 18.7946 84.0309 18.437 84.0309 18V9.39614C84.0309 8.95914 84.3884 8.60159 84.8254 8.60159C85.1092 8.60159 85.3532 8.74915 85.4951 8.97049C85.9889 8.65267 86.5791 8.46538 87.2091 8.46538Z" fill="black" fill-opacity="0.5"/>
<path d="M38.5 26H63.5" stroke="black" stroke-opacity="0.5" stroke-width="1.5" stroke-linecap="round"/>
<path d="M183 297H382" stroke="black" stroke-opacity="0.5" stroke-width="1.5" stroke-linecap="round"/>
<path d="M192.62 308.495C192.62 306.855 191.439 305.493 189.981 305.493H185.384V311.497H189.981C191.439 311.497 192.62 310.135 192.62 308.495ZM194.209 308.495C194.209 311.043 192.302 313.086 189.981 313.086H185.384V319C185.384 319.437 185.026 319.795 184.589 319.795C184.152 319.795 183.795 319.437 183.795 319V304.698C183.795 304.261 184.152 303.904 184.589 303.904H189.981C192.302 303.904 194.209 305.947 194.209 308.495ZM200.957 309.465C202.711 309.465 204.135 310.89 204.135 312.644V312.956C204.135 313.393 203.778 313.75 203.341 313.75C202.904 313.75 202.546 313.393 202.546 312.956V312.644C202.546 311.764 201.837 311.054 200.957 311.054C200.083 311.054 199.374 311.764 199.374 312.644C199.374 312.678 199.374 312.706 199.368 312.74V319C199.368 319.437 199.01 319.795 198.573 319.795C198.136 319.795 197.779 319.437 197.779 319V310.396C197.779 309.959 198.136 309.602 198.573 309.602C198.857 309.602 199.101 309.749 199.243 309.97C199.737 309.653 200.327 309.465 200.957 309.465ZM211.162 319.931C209.068 319.931 207.388 317.632 207.388 314.755C207.388 314.216 207.439 313.092 207.962 311.923C208.251 311.276 208.648 310.708 209.142 310.271C209.698 309.783 210.391 309.465 211.162 309.465C213.268 309.465 214.937 311.787 214.937 314.698C214.937 317.61 213.268 319.931 211.162 319.931ZM213.347 314.698C213.347 312.683 212.309 311.054 211.162 311.054C210.005 311.054 208.977 312.723 208.977 314.755C208.977 316.747 210.027 318.342 211.162 318.342C212.309 318.342 213.347 316.719 213.347 314.698ZM220.022 309.993C220.277 309.823 220.873 309.465 221.719 309.465C223.824 309.465 225.493 311.787 225.493 314.698C225.493 317.61 223.824 319.931 221.719 319.931C221.129 319.931 220.595 319.755 220.13 319.454V324.698C220.13 325.135 219.772 325.493 219.335 325.493C218.898 325.493 218.541 325.135 218.541 324.698V310.396C218.541 309.959 218.898 309.602 219.335 309.602C219.625 309.602 219.886 309.76 220.022 309.993ZM221.719 311.054C221.009 311.054 220.47 311.599 220.13 312.212V317.138C220.584 317.967 221.18 318.342 221.719 318.342C222.865 318.342 223.904 316.719 223.904 314.698C223.904 312.683 222.865 311.054 221.719 311.054ZM230.657 314.823C230.68 316.787 231.724 318.342 232.842 318.342C233.733 318.342 234.511 317.553 234.851 316.327C234.942 315.992 235.254 315.748 235.617 315.748C236.054 315.748 236.412 316.106 236.412 316.543C236.412 316.616 236.401 316.69 236.384 316.758C236.298 317.07 235.873 318.569 234.562 319.414C234.051 319.743 233.461 319.931 232.842 319.931C230.748 319.931 229.068 317.632 229.068 314.755C229.068 314.216 229.119 313.092 229.641 311.923C229.931 311.276 230.328 310.708 230.822 310.271C231.378 309.783 232.07 309.465 232.842 309.465C234.25 309.465 235.515 310.521 236.174 312.383C236.247 312.598 236.412 313.109 236.412 313.62C236.412 313.756 236.406 314.114 236.191 314.42C236.134 314.499 236.054 314.585 235.952 314.658C235.799 314.766 235.606 314.823 235.424 314.823H230.657ZM234.772 313.234C234.613 312.541 233.943 311.054 232.842 311.054C232.519 311.054 232.189 311.179 231.866 311.463C231.497 311.787 231.094 312.365 230.856 313.234H234.772ZM243.164 309.465C244.918 309.465 246.342 310.89 246.342 312.644V312.956C246.342 313.393 245.985 313.75 245.548 313.75C245.111 313.75 244.753 313.393 244.753 312.956V312.644C244.753 311.764 244.044 311.054 243.164 311.054C242.29 311.054 241.581 311.764 241.581 312.644C241.581 312.678 241.581 312.706 241.575 312.74V319C241.575 319.437 241.218 319.795 240.781 319.795C240.344 319.795 239.986 319.437 239.986 319V310.396C239.986 309.959 240.344 309.602 240.781 309.602C241.064 309.602 241.308 309.749 241.45 309.97C241.944 309.653 242.534 309.465 243.164 309.465ZM254.561 317.099C254.561 316.662 254.919 316.304 255.356 316.304C255.793 316.304 256.15 316.662 256.15 317.099V317.411C256.15 318.728 255.083 319.795 253.767 319.795C252.45 319.795 251.383 318.728 251.383 317.411V311.196L249.794 311.191C249.357 311.191 248.999 310.833 248.999 310.396C248.999 309.959 249.357 309.602 249.794 309.602H251.383V307.876C251.383 307.439 251.741 307.082 252.178 307.082C252.615 307.082 252.972 307.439 252.972 307.876V309.596L255.356 309.602C255.793 309.602 256.15 309.959 256.15 310.396C256.15 310.833 255.793 311.191 255.356 311.191H252.972V317.411C252.972 317.854 253.324 318.205 253.767 318.205C254.209 318.205 254.561 317.854 254.561 317.411V317.099ZM259.726 310.396C259.726 309.959 260.084 309.602 260.521 309.602C260.861 309.602 261.157 309.817 261.27 310.124C263.813 317.104 263.813 317.11 263.813 317.11L266.355 310.124C266.469 309.817 266.764 309.602 267.104 309.602C267.541 309.602 267.899 309.959 267.899 310.396C267.899 310.493 267.888 310.583 267.854 310.669L264.721 319.272C264.312 320.39 263.722 321.594 262.666 322.059C262.377 322.184 262.059 322.252 261.735 322.252C260.419 322.252 259.352 321.185 259.352 319.868C259.352 319.431 259.709 319.074 260.146 319.074C260.583 319.074 260.941 319.431 260.941 319.868C260.941 320.311 261.293 320.663 261.735 320.663C261.985 320.663 262.411 320.578 262.956 319.386C262.933 319.352 262.922 319.312 262.905 319.272L259.772 310.669C259.738 310.583 259.726 310.493 259.726 310.396Z" fill="black" fill-opacity="0.5"/>
<path d="M442 297H535" stroke="black" stroke-opacity="0.5" stroke-width="1.5" stroke-linecap="round"/>
<path d="M442.795 304.698C442.795 304.261 443.152 303.904 443.589 303.904C443.941 303.904 444.236 304.131 444.344 304.448L448.674 317.388L452.999 304.448C453.107 304.131 453.402 303.904 453.754 303.904C454.191 303.904 454.548 304.261 454.548 304.698C454.548 304.789 454.537 304.868 454.509 304.948L449.724 319.255C449.616 319.579 449.31 319.795 448.969 319.795H448.373C448.033 319.795 447.726 319.573 447.619 319.25L442.834 304.948C442.806 304.868 442.795 304.789 442.795 304.698ZM463.49 312.757C463.49 311.906 462.809 311.054 461.645 311.054C460.453 311.054 460.09 311.531 459.931 311.798C459.835 311.963 459.755 312.167 459.699 312.428C459.619 312.785 459.301 313.052 458.921 313.052C458.484 313.052 458.127 312.695 458.127 312.258C458.127 312.201 458.132 312.144 458.144 312.087C458.456 310.686 459.438 309.465 461.645 309.465C463.66 309.465 465.079 310.998 465.079 312.757V314.034V314.085V317.411C465.079 317.825 465.141 318.075 465.198 318.205C465.215 318.245 465.249 318.308 465.283 318.342C465.584 318.336 465.953 318.285 465.953 318.285C465.981 318.279 466.021 318.274 466.072 318.274C466.509 318.274 466.867 318.631 466.867 319.068C466.867 319.465 466.572 319.795 466.191 319.851C466.169 319.857 465.72 319.931 465.249 319.931C465.016 319.931 464.432 319.863 463.978 319.255C463.728 319.426 463.308 319.658 462.673 319.8C462.338 319.874 462.009 319.908 461.702 319.908C461.157 319.908 460.573 319.823 460.022 319.624C459.443 319.414 458.609 318.966 458.268 318.041C458.172 317.785 458.127 317.502 458.127 317.212C458.127 316.543 458.285 315.396 459.511 314.528C460.073 314.131 460.783 313.841 461.679 313.603C462.179 313.467 462.78 313.376 463.49 313.325V312.757ZM459.716 317.212C459.716 317.456 459.806 317.621 459.937 317.757C460.068 317.893 460.283 318.03 460.561 318.132C460.908 318.257 461.327 318.319 461.702 318.319C461.992 318.319 462.366 318.262 462.678 318.149C463.473 317.854 463.484 317.388 463.484 317.212C463.484 317.212 463.49 316.054 463.49 314.919C463.064 314.953 462.531 315.016 462.088 315.135C460.221 315.635 459.716 316.27 459.716 317.212ZM470.646 303.904C471.088 303.904 471.44 304.267 471.44 304.698V319C471.44 319.431 471.088 319.795 470.646 319.795H470.64C470.203 319.795 469.845 319.443 469.845 319V304.698C469.845 304.261 470.203 303.904 470.64 303.904H470.646ZM481.948 319C481.948 319.437 481.591 319.795 481.154 319.795C480.83 319.795 480.552 319.602 480.427 319.329C479.871 319.709 479.201 319.931 478.475 319.931C476.557 319.931 475.002 318.376 475.002 316.457V310.396C475.002 309.959 475.359 309.602 475.796 309.602C476.233 309.602 476.591 309.959 476.591 310.396V316.457C476.591 317.502 477.431 318.342 478.475 318.342C479.519 318.342 480.353 317.502 480.353 316.457L480.359 310.396C480.359 309.959 480.717 309.602 481.154 309.602C481.591 309.602 481.948 309.959 481.948 310.396V319ZM487.118 314.823C487.141 316.787 488.185 318.342 489.303 318.342C490.194 318.342 490.972 317.553 491.312 316.327C491.403 315.992 491.715 315.748 492.078 315.748C492.515 315.748 492.873 316.106 492.873 316.543C492.873 316.616 492.862 316.69 492.844 316.758C492.759 317.07 492.334 318.569 491.023 319.414C490.512 319.743 489.922 319.931 489.303 319.931C487.209 319.931 485.529 317.632 485.529 314.755C485.529 314.216 485.58 313.092 486.102 311.923C486.392 311.276 486.789 310.708 487.283 310.271C487.839 309.783 488.531 309.465 489.303 309.465C490.711 309.465 491.976 310.521 492.634 312.383C492.708 312.598 492.873 313.109 492.873 313.62C492.873 313.756 492.867 314.114 492.652 314.42C492.595 314.499 492.515 314.585 492.413 314.658C492.26 314.766 492.067 314.823 491.885 314.823H487.118ZM491.233 313.234C491.074 312.541 490.404 311.054 489.303 311.054C488.98 311.054 488.65 311.179 488.327 311.463C487.958 311.787 487.555 312.365 487.317 313.234H491.233Z" fill="black" fill-opacity="0.5"/>
<path d="M192.892 10.849C192.892 7.35301 190.911 4.49262 188.551 4.49262C187.041 4.49262 186.014 4.48695 185.384 4.48695V17.2054H188.551C190.911 17.2054 192.892 14.3451 192.892 10.849ZM184.589 18.7946C184.152 18.7946 183.795 18.437 183.795 18V3.69239C183.795 3.25539 184.152 2.89784 184.589 2.89784H184.595C184.595 2.89784 185.719 2.90352 188.551 2.90352C191.837 2.90352 194.481 6.44495 194.481 10.849C194.481 15.2531 191.837 18.7946 188.551 18.7946H184.589ZM199.641 13.8229C199.664 15.7866 200.708 17.3417 201.826 17.3417C202.718 17.3417 203.495 16.5528 203.836 15.3269C203.926 14.9921 204.239 14.748 204.602 14.748C205.039 14.748 205.396 15.1056 205.396 15.5426C205.396 15.6163 205.385 15.6901 205.368 15.7582C205.283 16.0704 204.857 17.5687 203.546 18.4143C203.035 18.7435 202.445 18.9308 201.826 18.9308C199.732 18.9308 198.052 16.6322 198.052 13.7548C198.052 13.2157 198.103 12.0919 198.626 10.9228C198.915 10.2758 199.312 9.70829 199.806 9.27128C200.362 8.7832 201.055 8.46538 201.826 8.46538C203.234 8.46538 204.5 9.521 205.158 11.3825C205.232 11.5982 205.396 12.109 205.396 12.6197C205.396 12.756 205.391 13.1135 205.175 13.42C205.118 13.4994 205.039 13.5846 204.937 13.6583C204.783 13.7662 204.59 13.8229 204.409 13.8229H199.641ZM203.756 12.2338C203.597 11.5414 202.928 10.0545 201.826 10.0545C201.503 10.0545 201.174 10.1793 200.85 10.4631C200.481 10.7866 200.078 11.3655 199.84 12.2338H203.756ZM210.559 13.6981C210.559 15.7128 211.626 17.3417 212.807 17.3417C213.193 17.3417 213.522 17.2281 213.806 17.0352C214.033 16.8763 214.226 16.6663 214.379 16.4052C214.549 16.1158 214.668 15.7696 214.697 15.395C214.731 14.9864 215.071 14.6629 215.486 14.6629C215.923 14.6629 216.28 15.0204 216.28 15.4574C216.28 15.4745 216.269 16.3371 215.752 17.2111C215.491 17.6595 215.139 18.0454 214.708 18.3405C214.169 18.7094 213.516 18.9308 212.807 18.9308C210.673 18.9308 208.97 16.6095 208.97 13.6981C208.97 10.7866 210.673 8.46538 212.807 8.46538C213.494 8.46538 214.118 8.67537 214.617 9.04427C215.928 10.0091 216.059 11.6947 216.059 11.7968C216.059 12.2338 215.701 12.5914 215.264 12.5914C214.861 12.5914 214.527 12.2849 214.475 11.8933C214.436 11.5641 214.277 10.7639 213.681 10.3269C213.448 10.1566 213.17 10.0545 212.807 10.0545C211.626 10.0545 210.559 11.6833 210.559 13.6981ZM220.649 2.90352C221.092 2.90352 221.444 3.26674 221.444 3.69807V18C221.444 18.4313 221.092 18.7946 220.649 18.7946H220.644C220.207 18.7946 219.849 18.4427 219.849 18V3.69807C219.849 3.26107 220.207 2.90352 220.644 2.90352H220.649ZM230.369 11.7571C230.369 10.9058 229.688 10.0545 228.524 10.0545C227.332 10.0545 226.969 10.5312 226.81 10.798C226.714 10.9625 226.634 11.1669 226.578 11.4279C226.498 11.7855 226.18 12.0522 225.8 12.0522C225.363 12.0522 225.005 11.6947 225.005 11.2577C225.005 11.2009 225.011 11.1442 225.023 11.0874C225.335 9.68558 226.316 8.46538 228.524 8.46538C230.539 8.46538 231.958 9.99773 231.958 11.7571V13.0341V13.0851V16.4109C231.958 16.8252 232.02 17.0749 232.077 17.2054C232.094 17.2452 232.128 17.3076 232.162 17.3417C232.463 17.336 232.832 17.2849 232.832 17.2849C232.86 17.2792 232.9 17.2736 232.951 17.2736C233.388 17.2736 233.746 17.6311 233.746 18.0681C233.746 18.4654 233.45 18.7946 233.07 18.8513C233.047 18.857 232.599 18.9308 232.128 18.9308C231.895 18.9308 231.311 18.8627 230.857 18.2554C230.607 18.4257 230.187 18.6583 229.551 18.8002C229.217 18.874 228.887 18.9081 228.581 18.9081C228.036 18.9081 227.452 18.8229 226.901 18.6243C226.322 18.4143 225.488 17.9659 225.147 17.0409C225.051 16.7855 225.005 16.5017 225.005 16.2123C225.005 15.5426 225.164 14.3961 226.39 13.5278C226.952 13.1305 227.662 12.8411 228.558 12.6027C229.058 12.4665 229.659 12.3757 230.369 12.3246V11.7571ZM226.595 16.2123C226.595 16.4563 226.685 16.6209 226.816 16.7571C226.946 16.8933 227.162 17.0295 227.44 17.1317C227.786 17.2565 228.206 17.319 228.581 17.319C228.87 17.319 229.245 17.2622 229.557 17.1487C230.352 16.8536 230.363 16.3882 230.363 16.2123C230.363 16.2123 230.369 15.0545 230.369 13.9194C229.943 13.9535 229.41 14.0159 228.967 14.1351C227.1 14.6345 226.595 15.2701 226.595 16.2123ZM239.902 8.46538C241.656 8.46538 243.081 9.8899 243.081 11.6436V11.9557C243.081 12.3927 242.723 12.7503 242.286 12.7503C241.849 12.7503 241.492 12.3927 241.492 11.9557V11.6436C241.492 10.7639 240.782 10.0545 239.902 10.0545C239.028 10.0545 238.319 10.7639 238.319 11.6436C238.319 11.6776 238.319 11.706 238.313 11.7401V18C238.313 18.437 237.956 18.7946 237.519 18.7946C237.082 18.7946 236.724 18.437 236.724 18V9.39614C236.724 8.95914 237.082 8.60159 237.519 8.60159C237.803 8.60159 238.047 8.74915 238.188 8.97049C238.682 8.65267 239.272 8.46538 239.902 8.46538ZM251.697 11.7571C251.697 10.9058 251.016 10.0545 249.852 10.0545C248.661 10.0545 248.297 10.5312 248.138 10.798C248.042 10.9625 247.962 11.1669 247.906 11.4279C247.826 11.7855 247.508 12.0522 247.128 12.0522C246.691 12.0522 246.334 11.6947 246.334 11.2577C246.334 11.2009 246.339 11.1442 246.351 11.0874C246.663 9.68558 247.645 8.46538 249.852 8.46538C251.867 8.46538 253.286 9.99773 253.286 11.7571V13.0341V13.0851V16.4109C253.286 16.8252 253.348 17.0749 253.405 17.2054C253.422 17.2452 253.456 17.3076 253.49 17.3417C253.791 17.336 254.16 17.2849 254.16 17.2849C254.188 17.2792 254.228 17.2736 254.279 17.2736C254.716 17.2736 255.074 17.6311 255.074 18.0681C255.074 18.4654 254.779 18.7946 254.398 18.8513C254.376 18.857 253.927 18.9308 253.456 18.9308C253.224 18.9308 252.639 18.8627 252.185 18.2554C251.935 18.4257 251.515 18.6583 250.88 18.8002C250.545 18.874 250.216 18.9081 249.909 18.9081C249.364 18.9081 248.78 18.8229 248.229 18.6243C247.65 18.4143 246.816 17.9659 246.475 17.0409C246.379 16.7855 246.334 16.5017 246.334 16.2123C246.334 15.5426 246.493 14.3961 247.718 13.5278C248.28 13.1305 248.99 12.8411 249.886 12.6027C250.386 12.4665 250.987 12.3757 251.697 12.3246V11.7571ZM247.923 16.2123C247.923 16.4563 248.014 16.6209 248.144 16.7571C248.275 16.8933 248.49 17.0295 248.768 17.1317C249.115 17.2565 249.535 17.319 249.909 17.319C250.199 17.319 250.573 17.2622 250.885 17.1487C251.68 16.8536 251.691 16.3882 251.691 16.2123C251.691 16.2123 251.697 15.0545 251.697 13.9194C251.271 13.9535 250.738 14.0159 250.295 14.1351C248.428 14.6345 247.923 15.2701 247.923 16.2123ZM263.018 16.0988C263.018 15.6617 263.376 15.3042 263.813 15.3042C264.25 15.3042 264.607 15.6617 264.607 16.0988V16.4109C264.607 17.7276 263.54 18.7946 262.224 18.7946C260.907 18.7946 259.84 17.7276 259.84 16.4109V10.1964L258.251 10.1907C257.814 10.1907 257.456 9.83314 257.456 9.39614C257.456 8.95914 257.814 8.60159 258.251 8.60159H259.84V6.87628C259.84 6.43927 260.198 6.08172 260.635 6.08172C261.072 6.08172 261.429 6.43927 261.429 6.87628V8.59591L263.813 8.60159C264.25 8.60159 264.607 8.95914 264.607 9.39614C264.607 9.83314 264.25 10.1907 263.813 10.1907H261.429V16.4109C261.429 16.8536 261.781 17.2054 262.224 17.2054C262.666 17.2054 263.018 16.8536 263.018 16.4109V16.0988ZM267.894 4.69126C267.894 4.084 268.382 3.59591 268.984 3.59591C269.358 3.59591 269.693 3.78888 269.892 4.084C269.971 4.1975 270.079 4.40749 270.079 4.69126C270.079 5.29285 269.591 5.78661 268.984 5.78661C268.382 5.78661 267.894 5.29852 267.894 4.69126ZM269.778 18C269.778 18.437 269.421 18.7946 268.984 18.7946C268.547 18.7946 268.189 18.437 268.189 18V9.39614C268.189 8.95914 268.547 8.60159 268.984 8.60159C269.421 8.60159 269.778 8.95914 269.778 9.39614V18ZM277.119 18.9308C275.025 18.9308 273.345 16.6322 273.345 13.7548C273.345 13.2157 273.396 12.0919 273.919 10.9228C274.208 10.2758 274.605 9.70829 275.099 9.27128C275.655 8.7832 276.348 8.46538 277.119 8.46538C279.225 8.46538 280.894 10.7866 280.894 13.6981C280.894 16.6095 279.225 18.9308 277.119 18.9308ZM279.304 13.6981C279.304 11.6833 278.266 10.0545 277.119 10.0545C275.962 10.0545 274.934 11.723 274.934 13.7548C274.934 15.7469 275.984 17.3417 277.119 17.3417C278.266 17.3417 279.304 15.7185 279.304 13.6981ZM284.498 9.39614C284.498 8.95914 284.855 8.60159 285.292 8.60159C285.616 8.60159 285.894 8.79455 286.019 9.06697C286.575 8.68672 287.245 8.46538 287.971 8.46538C289.889 8.46538 291.444 10.0204 291.444 11.9387V18C291.444 18.437 291.087 18.7946 290.65 18.7946C290.213 18.7946 289.855 18.437 289.855 18V11.9387C289.855 10.8944 289.015 10.0545 287.971 10.0545C286.927 10.0545 286.092 10.8944 286.092 11.9387L286.087 18C286.087 18.437 285.729 18.7946 285.292 18.7946C284.855 18.7946 284.498 18.437 284.498 18V9.39614Z" fill="black" fill-opacity="0.5"/>
<path d="M183 26H535" stroke="black" stroke-opacity="0.5" stroke-width="1.5" stroke-linecap="round"/>
<path d="M39 335H535" stroke="black" stroke-opacity="0.5" stroke-width="1.5" stroke-linecap="round"/>
<path d="M50.9012 346.052C50.9012 347.948 49.4881 349.571 47.5187 350.053L50.8161 356.642C50.8672 356.75 50.9012 356.875 50.9012 357C50.9012 357.437 50.5437 357.795 50.1067 357.795C49.7946 357.795 49.5278 357.619 49.3973 357.358L45.8161 350.207H41.3837V357C41.3837 357.437 41.0261 357.795 40.5891 357.795C40.1521 357.795 39.7946 357.437 39.7946 357V342.698C39.7946 342.261 40.1521 341.904 40.5891 341.904H46.3099C48.8638 341.904 50.9012 343.776 50.9012 346.052ZM49.3121 346.052C49.3121 344.633 47.9501 343.493 46.3099 343.493H41.3837V348.612H46.3099C47.9501 348.612 49.3121 347.471 49.3121 346.052ZM61.4287 357C61.4287 357.437 61.0712 357.795 60.6342 357.795C60.3107 357.795 60.0326 357.602 59.9077 357.329C59.3515 357.709 58.6818 357.931 57.9554 357.931C56.0371 357.931 54.4821 356.376 54.4821 354.457V348.396C54.4821 347.959 54.8396 347.602 55.2766 347.602C55.7136 347.602 56.0712 347.959 56.0712 348.396V354.457C56.0712 355.502 56.9111 356.342 57.9554 356.342C58.9996 356.342 59.8339 355.502 59.8339 354.457L59.8396 348.396C59.8396 347.959 60.1971 347.602 60.6342 347.602C61.0712 347.602 61.4287 347.959 61.4287 348.396V357ZM65.8096 341.904C66.2523 341.904 66.6042 342.267 66.6042 342.698V357C66.6042 357.431 66.2523 357.795 65.8096 357.795H65.8039C65.3669 357.795 65.0094 357.443 65.0094 357V342.698C65.0094 342.261 65.3669 341.904 65.8039 341.904H65.8096ZM71.7547 352.823C71.7775 354.787 72.8217 356.342 73.9398 356.342C74.8308 356.342 75.6083 355.553 75.9488 354.327C76.0397 353.992 76.3518 353.748 76.715 353.748C77.152 353.748 77.5096 354.106 77.5096 354.543C77.5096 354.616 77.4982 354.69 77.4812 354.758C77.3961 355.07 76.9704 356.569 75.6594 357.414C75.1486 357.743 74.5584 357.931 73.9398 357.931C71.8456 357.931 70.1656 355.632 70.1656 352.755C70.1656 352.216 70.2167 351.092 70.7389 349.923C71.0283 349.276 71.4256 348.708 71.9193 348.271C72.4755 347.783 73.1679 347.465 73.9398 347.465C75.3473 347.465 76.6129 348.521 77.2712 350.383C77.345 350.598 77.5096 351.109 77.5096 351.62C77.5096 351.756 77.5039 352.114 77.2882 352.42C77.2315 352.499 77.152 352.585 77.0499 352.658C76.8966 352.766 76.7037 352.823 76.5221 352.823H71.7547ZM75.8694 351.234C75.7105 350.541 75.0408 349.054 73.9398 349.054C73.6163 349.054 73.2871 349.179 72.9636 349.463C72.5947 349.787 72.1918 350.365 71.9534 351.234H75.8694Z" fill="black" fill-opacity="0.5"/>
</svg>
