<svg fill="none" height="280" viewBox="0 0 462 280" width="462" xmlns="http://www.w3.org/2000/svg"><path d="m40.4297 68.1484c5.8828 0 9.7265 4.2422 9.7265 10.7813v4.7344c0 6.5156-3.8437 10.7578-9.7265 10.7578-3.6797 0-6.375-1.5703-7.4766-4.3594h-.4453v12.5155h-4.0547v-34.0077h3.9375v3.8906h.4219c1.3359-2.8125 3.9844-4.3125 7.6172-4.3125zm-1.1485 3.6563c-4.1953 0-6.8671 3-6.8671 7.6875v3.6562c0 4.711 2.6718 7.711 6.8671 7.711 4.1954 0 6.8672-3.0235 6.8672-7.711v-3.6562c0-4.6875-2.6718-7.6875-6.8672-7.6875z" fill="#7ee687"/><path d="m107.32 97.2109h-3.187c-5.6955 0-7.5002-1.8047-7.5002-7.5937v-5.25c0-3.6094-2.1094-5.7188-7.5937-5.1563v-4.2421c5.4843.5624 7.5937-1.5235 7.5937-5.1563v-5.25c0-5.7891 1.8047-7.5937 7.5002-7.5937h3.187v3.2109h-2.554c-3.516 0-4.196.8203-4.196 4.8984v6.2578c0 3.2813-2.4606 5.461-7.2184 5.5782v.375c4.7578.0937 7.2184 2.2734 7.2184 5.5547v6.2578c0 4.0781.68 4.8984 4.196 4.8984h2.554zm198.563 35.9301c-2.321 0-4.242-1.969-4.242-4.336s1.921-4.336 4.242-4.336c2.32 0 4.242 1.969 4.242 4.336s-1.922 4.336-4.242 4.336zm0 18c-2.321 0-4.242-1.946-4.242-4.336 0-2.367 1.921-4.313 4.242-4.313 2.32 0 4.242 1.946 4.242 4.313 0 2.39-1.922 4.336-4.242 4.336zm58.336-11.532v8.203h7.875v3.188h-16.899v-3.188h5.133v-19.054h-5.648v-3.188h9.492v6.492h.516c.937-4.71 4.101-7.148 9-7.148 1.453 0 2.835.211 3.679.563v4.476c-1.172-.422-2.812-.703-4.195-.703-5.625 0-8.953 3.891-8.953 10.359zm37.547 4.829h3.867c-.774 4.195-4.805 7.031-10.149 7.031-6.984 0-11.039-4.196-11.039-11.438v-3.82c0-6.703 4.289-11.109 10.758-11.109 6.609 0 10.5 4.382 10.5 11.742v2.484h-17.32v1.031c0 4.664 2.765 7.664 7.101 7.664 3.211 0 5.578-1.359 6.282-3.585zm-6.586-15.915c-4.242 0-6.797 2.907-6.797 7.782h13.383c0-4.852-2.485-7.782-6.586-7.782zm27.797 22.899c-5.883 0-9.727-4.242-9.727-10.781v-4.735c0-6.515 3.844-10.758 9.727-10.758 3.679 0 6.398 1.571 7.5 4.36h.421v-13.922h4.055v35.414h-3.914v-3.891h-.445c-1.313 2.813-3.985 4.313-7.617 4.313zm1.171-3.633c4.172 0 6.868-3 6.868-7.711v-3.656c0-4.688-2.696-7.688-6.868-7.688-4.195 0-6.89 3-6.89 7.688v3.656c0 4.688 2.695 7.711 6.89 7.711zm30.094-14.648c-2.32 0-4.242-1.969-4.242-4.336s1.922-4.336 4.242-4.336 4.242 1.969 4.242 4.336-1.922 4.336-4.242 4.336zm-2.039 25.664h-3.773l2.906-15.258h5.273zm-422.5077 52.406v-3.211h2.5547c3.5156 0 4.1953-.82 4.1953-4.898v-6.258c0-3.282 2.4609-5.461 7.2188-5.555v-.375c-4.7579-.117-7.2188-2.297-7.2188-5.578v-6.258c0-4.078-.6797-4.898-4.1953-4.898h-2.5547v-3.211h3.1875c5.6953 0 7.5 1.804 7.5 7.593v5.25c0 3.633 2.1094 5.719 7.5938 5.157v4.242c-5.4844-.563-7.5938 1.547-7.5938 5.156v5.25c0 5.789-1.8047 7.594-7.5 7.594z" fill="#f0f6fb"/><path d="m168.117 133.492h-3.937c-.492-2.976-2.977-4.851-6.258-4.851-4.43 0-6.891 3.023-6.891 8.484v2.297c0 5.461 2.461 8.461 6.891 8.461 3.281 0 5.766-1.852 6.258-4.758h3.937c-.633 5.18-4.5 8.344-10.125 8.344-6.914 0-10.945-4.242-10.945-11.531v-3.329c0-7.289 4.031-11.531 10.945-11.531 5.625 0 9.469 3.188 10.125 8.414zm19.078 17.977c-6.726 0-11.015-4.383-11.015-11.25v-3.844c0-6.867 4.289-11.25 11.015-11.25 6.727 0 11.016 4.383 11.016 11.25v3.844c0 6.867-4.289 11.25-11.016 11.25zm0-22.828c-4.359 0-7.078 3.093-7.078 8.086v3.117c0 5.015 2.719 8.086 7.078 8.086 4.36 0 7.078-3.071 7.078-8.086v-3.117c0-4.993-2.718-8.086-7.078-8.086zm40.782 22.359h-21.071v-3.305h8.696v-28.804h-8.625v-3.305h12.609v32.109h8.391zm18.562.469c-6.727 0-11.016-4.383-11.016-11.25v-3.844c0-6.867 4.289-11.25 11.016-11.25s11.016 4.383 11.016 11.25v3.844c0 6.867-4.289 11.25-11.016 11.25zm0-22.828c-4.359 0-7.078 3.093-7.078 8.086v3.117c0 5.015 2.719 8.086 7.078 8.086s7.078-3.071 7.078-8.086v-3.117c0-4.993-2.719-8.086-7.078-8.086zm28.664 10.968v8.203h7.875v3.188h-16.898v-3.188h5.132v-19.054h-5.648v-3.188h9.492v6.492h.516c.937-4.71 4.101-7.148 9-7.148 1.453 0 2.836.211 3.68.563v4.476c-1.172-.422-2.813-.703-4.196-.703-5.625 0-8.953 3.891-8.953 10.359z" fill="#79c0ff"/><path d="m10.802 8.89c-.1173-1.12933-.528-1.94333-1.232-2.442-.68933-.51333-1.57667-.77-2.662-.77-.44 0-.87267.044-1.298.132s-.80667.23467-1.144.44c-.32267.20533-.58667.484-.792.836-.19067.33733-.286.76267-.286 1.276 0 .484.13933.88.418 1.188.29333.29333.67467.5353 1.144.726.484.1907 1.02667.352 1.628.484.60133.1173 1.21.2493 1.826.396.63067.1467 1.24667.3227 1.848.528.6013.1907 1.1367.4547 1.606.792.484.3373.8653.7627 1.144 1.276.2933.5133.44 1.1587.44 1.936 0 .836-.1907 1.5547-.572 2.156-.3667.5867-.8433 1.0707-1.43 1.452-.5867.3667-1.2467.6307-1.98.792-.71867.176-1.43733.264-2.156.264-.88 0-1.716-.11-2.508-.33-.77733-.22-1.46667-.55-2.068-.99-.58667-.4547-1.056-1.0267-1.408-1.716-.337333-.704-.506-1.5327-.506-2.486h1.98c0 .66.12467 1.232.374 1.716.264.4693.60133.858 1.012 1.166.42533.308.91667.5353 1.474.682s1.12933.22 1.716.22c.46933 0 .93867-.044 1.408-.132.484-.088.91667-.2347 1.298-.44.3813-.22.6893-.5133.924-.88s.352-.836.352-1.408c0-.5427-.1467-.9827-.44-1.32-.2787-.3373-.66-.6087-1.144-.814-.46933-.22-1.00467-.396-1.606-.528s-1.21733-.264-1.848-.396c-.616-.1467-1.22467-.308-1.826-.484-.60133-.1907-1.144-.4327-1.628-.726-.46933-.308-.85067-.6967-1.144-1.166-.27867-.484-.418-1.08533-.418-1.804 0-.792.16133-1.474.484-2.046.32267-.58667.748-1.06333 1.276-1.43.54267-.38133 1.15133-.66 1.826-.836.68933-.19067 1.39333-.286 2.112-.286.80667 0 1.55467.09533 2.244.286s1.2907.49133 1.804.902c.528.41067.9387.93133 1.232 1.562.308.616.4767 1.35667.506 2.222zm12.7696 4.334c-.0293-.44-.132-.858-.308-1.254-.1613-.396-.3886-.7333-.682-1.012-.2786-.2933-.616-.5207-1.012-.682-.3813-.176-.8066-.264-1.276-.264-.484 0-.924.088-1.32.264-.3813.1613-.7113.3887-.99.682-.2786.2933-.4986.638-.66 1.034-.1613.3813-.2566.792-.286 1.232zm1.804 3.168c-.2493 1.276-.7993 2.2367-1.65 2.882-.8506.6453-1.9213.968-3.212.968-.9093 0-1.7013-.1467-2.376-.44-.66-.2933-1.2173-.704-1.672-1.232-.4546-.528-.7993-1.1587-1.034-1.892-.22-.7333-.3446-1.5327-.374-2.398 0-.8653.132-1.6573.396-2.376s.6307-1.342 1.1-1.87c.484-.528 1.0487-.93867 1.694-1.232.66-.29333 1.3787-.44 2.156-.44 1.012 0 1.848.21267 2.508.638.6747.41067 1.21.93867 1.606 1.584.4107.6453.6894 1.3493.836 2.112.1614.7627.2274 1.4887.198 2.178h-8.514c-.0146.4987.044.9753.176 1.43.132.44.3447.836.638 1.188.2934.3373.6674.6087 1.122.814.4547.2053.99.308 1.606.308.792 0 1.4374-.1833 1.936-.55.5134-.3667.8507-.924 1.012-1.672zm2.2244-12.1h1.87v15.708h-1.87zm12.665 8.932c-.0293-.44-.132-.858-.308-1.254-.1613-.396-.3887-.7333-.682-1.012-.2787-.2933-.616-.5207-1.012-.682-.3813-.176-.8067-.264-1.276-.264-.484 0-.924.088-1.32.264-.3813.1613-.7113.3887-.99.682s-.4987.638-.66 1.034c-.1613.3813-.2567.792-.286 1.232zm1.804 3.168c-.2493 1.276-.7993 2.2367-1.65 2.882s-1.9213.968-3.212.968c-.9093 0-1.7013-.1467-2.376-.44-.66-.2933-1.2173-.704-1.672-1.232s-.7993-1.1587-1.034-1.892c-.22-.7333-.3447-1.5327-.374-2.398 0-.8653.132-1.6573.396-2.376s.6307-1.342 1.1-1.87c.484-.528 1.0487-.93867 1.694-1.232.66-.29333 1.3787-.44 2.156-.44 1.012 0 1.848.21267 2.508.638.6747.41067 1.21.93867 1.606 1.584.4107.6453.6893 1.3493.836 2.112.1613.7627.2273 1.4887.198 2.178h-8.514c-.0147.4987.044.9753.176 1.43.132.44.3447.836.638 1.188.2933.3373.6673.6087 1.122.814s.99.308 1.606.308c.792 0 1.4373-.1833 1.936-.55.5133-.3667.8507-.924 1.012-1.672zm9.8364-4.114c-.1467-.7187-.4547-1.276-.924-1.672s-1.1-.594-1.892-.594c-.6747 0-1.2393.1247-1.694.374s-.8213.5793-1.1.99c-.264.4107-.4547.8873-.572 1.43-.1173.528-.176 1.078-.176 1.65 0 .528.0587 1.0413.176 1.54.132.4987.33.946.594 1.342.264.3813.6087.6893 1.034.924s.9313.352 1.518.352c.924 0 1.6427-.242 2.156-.726.528-.484.8507-1.166.968-2.046h1.914c-.2053 1.408-.7333 2.4933-1.584 3.256-.836.7627-1.98 1.144-3.432 1.144-.8653 0-1.6353-.1393-2.31-.418-.66-.2787-1.2173-.6747-1.672-1.188-.44-.5133-.7773-1.122-1.012-1.826-.22-.7187-.33-1.5033-.33-2.354s.11-1.6427.33-2.376c.22-.748.55-1.3933.99-1.936.4547-.55733 1.0193-.99 1.694-1.298.6747-.32267 1.4593-.484 2.354-.484.6453 0 1.2467.08067 1.804.242.572.14667 1.0707.38133 1.496.704.44.32267.7993.7333 1.078 1.232.2787.484.4547 1.0633.528 1.738zm6.6904-3.652h2.266v1.65h-2.266v7.062c0 .22.0147.396.044.528.044.132.1173.2347.22.308s.242.1247.418.154c.1907.0147.4327.022.726.022h.858v1.65h-1.43c-.484 0-.902-.0293-1.254-.088-.3373-.0733-.616-.198-.836-.374-.2053-.176-.3593-.4253-.462-.748s-.154-.748-.154-1.276v-7.238h-1.936v-1.65h1.936v-3.41h1.87zm5.7075 5.698c0 .6893.088 1.3053.264 1.848.1906.528.4473.9753.77 1.342.3226.352.6966.6233 1.122.814.44.1907.902.286 1.386.286s.9386-.0953 1.364-.286c.44-.1907.8213-.462 1.144-.814.3226-.3667.572-.814.748-1.342.1906-.5427.286-1.1587.286-1.848s-.0954-1.298-.286-1.826c-.176-.5427-.4254-.9973-.748-1.364-.3227-.3667-.704-.6453-1.144-.836-.4254-.1907-.88-.286-1.364-.286s-.946.0953-1.386.286c-.4254.1907-.7994.4693-1.122.836-.3227.3667-.5794.8213-.77 1.364-.176.528-.264 1.1367-.264 1.826zm-1.98 0c0-.836.1173-1.6133.352-2.332.2346-.7333.5866-1.364 1.056-1.892.4693-.54267 1.0486-.968 1.738-1.276.6893-.308 1.4813-.462 2.376-.462.9093 0 1.7013.154 2.376.462.6893.308 1.2686.73333 1.738 1.276.4693.528.8213 1.1587 1.056 1.892.2346.7187.352 1.496.352 2.332s-.1174 1.6133-.352 2.332c-.2347.7187-.5867 1.3493-1.056 1.892-.4694.528-1.0487.946-1.738 1.254-.6747.2933-1.4667.44-2.376.44-.8947 0-1.6867-.1467-2.376-.44-.6894-.308-1.2687-.726-1.738-1.254-.4694-.5427-.8214-1.1733-1.056-1.892-.2347-.7187-.352-1.496-.352-2.332zm13.1828-5.698h1.76v2.398h.044c.4546-.924 1.012-1.606 1.672-2.046s1.496-.64533 2.508-.616v1.98c-.748 0-1.386.1027-1.914.308s-.9534.506-1.276.902c-.3227.396-.5574.88-.704 1.452-.1467.5573-.22 1.2027-.22 1.936v5.06h-1.87z" fill="#fff" fill-opacity=".333333"/><path d="m28.5 28h25" stroke="#fff" stroke-opacity=".333333" stroke-width="1.5"/><path d="m150.806 75.24h3.476c.235 0 .528-.0147.88-.044.352-.044.726-.132 1.122-.264.396-.1467.785-.352 1.166-.616.396-.264.748-.6233 1.056-1.078s.557-1.0193.748-1.694c.205-.6893.308-1.518.308-2.486 0-.9387-.095-1.7747-.286-2.508-.176-.748-.477-1.3787-.902-1.892-.411-.528-.946-.924-1.606-1.188-.66-.2787-1.474-.418-2.442-.418h-3.52zm-2.09-13.948h5.39c2.42 0 4.283.616 5.588 1.848s1.958 3.1093 1.958 5.632c0 1.32-.147 2.4933-.44 3.52-.293 1.012-.748 1.87-1.364 2.574-.616.6893-1.401 1.2173-2.354 1.584s-2.083.55-3.388.55h-5.39zm23.08 8.932c-.029-.44-.132-.858-.308-1.254-.161-.396-.388-.7333-.682-1.012-.278-.2933-.616-.5207-1.012-.682-.381-.176-.806-.264-1.276-.264-.484 0-.924.088-1.32.264-.381.1613-.711.3887-.99.682-.278.2933-.498.638-.66 1.034-.161.3813-.256.792-.286 1.232zm1.804 3.168c-.249 1.276-.799 2.2367-1.65 2.882-.85.6453-1.921.968-3.212.968-.909 0-1.701-.1467-2.376-.44-.66-.2933-1.217-.704-1.672-1.232-.454-.528-.799-1.1587-1.034-1.892-.22-.7333-.344-1.5327-.374-2.398 0-.8653.132-1.6573.396-2.376s.631-1.342 1.1-1.87c.484-.528 1.049-.9387 1.694-1.232.66-.2933 1.379-.44 2.156-.44 1.012 0 1.848.2127 2.508.638.675.4107 1.21.9387 1.606 1.584.411.6453.69 1.3493.836 2.112.162.7627.228 1.4887.198 2.178h-8.514c-.014.4987.044.9753.176 1.43.132.44.345.836.638 1.188.294.3373.668.6087 1.122.814.455.2053.99.308 1.606.308.792 0 1.438-.1833 1.936-.55.514-.3667.851-.924 1.012-1.672zm9.837-4.114c-.147-.7187-.455-1.276-.924-1.672-.47-.396-1.1-.594-1.892-.594-.675 0-1.24.1247-1.694.374-.455.2493-.822.5793-1.1.99-.264.4107-.455.8873-.572 1.43-.118.528-.176 1.078-.176 1.65 0 .528.058 1.0413.176 1.54.132.4987.33.946.594 1.342.264.3813.608.6893 1.034.924.425.2347.931.352 1.518.352.924 0 1.642-.242 2.156-.726.528-.484.85-1.166.968-2.046h1.914c-.206 1.408-.734 2.4933-1.584 3.256-.836.7627-1.98 1.144-3.432 1.144-.866 0-1.636-.1393-2.31-.418-.66-.2787-1.218-.6747-1.672-1.188-.44-.5133-.778-1.122-1.012-1.826-.22-.7187-.33-1.5033-.33-2.354s.11-1.6427.33-2.376c.22-.748.55-1.3933.99-1.936.454-.5573 1.019-.99 1.694-1.298.674-.3227 1.459-.484 2.354-.484.645 0 1.246.0807 1.804.242.572.1467 1.07.3813 1.496.704.44.3227.799.7333 1.078 1.232.278.484.454 1.0633.528 1.738zm4.204-7.986h1.87v15.708h-1.87zm14.843 15.664c-.323.1907-.77.286-1.342.286-.484 0-.873-.132-1.166-.396-.279-.2787-.418-.726-.418-1.342-.513.616-1.115 1.0633-1.804 1.342-.675.264-1.408.396-2.2.396-.513 0-1.005-.0587-1.474-.176-.455-.1173-.851-.3007-1.188-.55s-.609-.572-.814-.968c-.191-.4107-.286-.902-.286-1.474 0-.6453.11-1.1733.33-1.584s.506-.7407.858-.99c.367-.264.777-.462 1.232-.594.469-.132.946-.242 1.43-.33.513-.1027.997-.176 1.452-.22.469-.0587.88-.132 1.232-.22.352-.1027.631-.242.836-.418.205-.1907.308-.462.308-.814 0-.4107-.081-.7407-.242-.99-.147-.2493-.345-.44-.594-.572-.235-.132-.506-.22-.814-.264-.293-.044-.587-.066-.88-.066-.792 0-1.452.154-1.98.462-.528.2933-.814.858-.858 1.694h-1.87c.029-.704.176-1.298.44-1.782s.616-.8727 1.056-1.166c.44-.308.939-.528 1.496-.66.572-.132 1.181-.198 1.826-.198.513 0 1.019.0367 1.518.11.513.0733.975.2273 1.386.462.411.22.741.5353.99.946s.374.946.374 1.606v5.852c0 .44.022.7627.066.968.059.2053.235.308.528.308.161 0 .352-.0367.572-.11zm-3.036-5.83c-.235.176-.543.308-.924.396-.381.0733-.785.1393-1.21.198-.411.044-.829.1027-1.254.176-.425.0587-.807.1613-1.144.308s-.616.3593-.836.638c-.205.264-.308.6307-.308 1.1 0 .308.059.572.176.792.132.2053.293.374.484.506.205.132.44.2273.704.286s.543.088.836.088c.616 0 1.144-.0807 1.584-.242.44-.176.799-.3887 1.078-.638.279-.264.484-.5427.616-.836.132-.308.198-.594.198-.858zm4.71-5.5h1.76v2.398h.044c.455-.924 1.012-1.606 1.672-2.046s1.496-.6453 2.508-.616v1.98c-.748 0-1.386.1027-1.914.308s-.953.506-1.276.902c-.322.396-.557.88-.704 1.452-.146.5573-.22 1.2027-.22 1.936v5.06h-1.87zm17.469 11.33c-.323.1907-.77.286-1.342.286-.484 0-.873-.132-1.166-.396-.279-.2787-.418-.726-.418-1.342-.514.616-1.115 1.0633-1.804 1.342-.675.264-1.408.396-2.2.396-.514 0-1.005-.0587-1.474-.176-.455-.1173-.851-.3007-1.188-.55-.338-.2493-.609-.572-.814-.968-.191-.4107-.286-.902-.286-1.474 0-.6453.11-1.1733.33-1.584s.506-.7407.858-.99c.366-.264.777-.462 1.232-.594.469-.132.946-.242 1.43-.33.513-.1027.997-.176 1.452-.22.469-.0587.88-.132 1.232-.22.352-.1027.63-.242.836-.418.205-.1907.308-.462.308-.814 0-.4107-.081-.7407-.242-.99-.147-.2493-.345-.44-.594-.572-.235-.132-.506-.22-.814-.264-.294-.044-.587-.066-.88-.066-.792 0-1.452.154-1.98.462-.528.2933-.814.858-.858 1.694h-1.87c.029-.704.176-1.298.44-1.782s.616-.8727 1.056-1.166c.44-.308.938-.528 1.496-.66.572-.132 1.18-.198 1.826-.198.513 0 1.019.0367 1.518.11.513.0733.975.2273 1.386.462.41.22.74.5353.99.946.249.4107.374.946.374 1.606v5.852c0 .44.022.7627.066.968.058.2053.234.308.528.308.161 0 .352-.0367.572-.11zm-3.036-5.83c-.235.176-.543.308-.924.396-.382.0733-.785.1393-1.21.198-.411.044-.829.1027-1.254.176-.426.0587-.807.1613-1.144.308-.338.1467-.616.3593-.836.638-.206.264-.308.6307-.308 1.1 0 .308.058.572.176.792.132.2053.293.374.484.506.205.132.44.2273.704.286s.542.088.836.088c.616 0 1.144-.0807 1.584-.242.44-.176.799-.3887 1.078-.638.278-.264.484-.5427.616-.836.132-.308.198-.594.198-.858zm7.372-5.5h2.266v1.65h-2.266v7.062c0 .22.015.396.044.528.044.132.117.2347.22.308s.242.1247.418.154c.191.0147.433.022.726.022h.858v1.65h-1.43c-.484 0-.902-.0293-1.254-.088-.337-.0733-.616-.198-.836-.374-.205-.176-.359-.4253-.462-.748s-.154-.748-.154-1.276v-7.238h-1.936v-1.65h1.936v-3.41h1.87zm6.323-2.046h-1.87v-2.288h1.87zm-1.87 2.046h1.87v11.374h-1.87zm6.131 5.698c0 .6893.088 1.3053.264 1.848.191.528.448.9753.77 1.342.323.352.697.6233 1.122.814.44.1907.902.286 1.386.286s.939-.0953 1.364-.286c.44-.1907.822-.462 1.144-.814.323-.3667.572-.814.748-1.342.191-.5427.286-1.1587.286-1.848s-.095-1.298-.286-1.826c-.176-.5427-.425-.9973-.748-1.364-.322-.3667-.704-.6453-1.144-.836-.425-.1907-.88-.286-1.364-.286s-.946.0953-1.386.286c-.425.1907-.799.4693-1.122.836-.322.3667-.579.8213-.77 1.364-.176.528-.264 1.1367-.264 1.826zm-1.98 0c0-.836.118-1.6133.352-2.332.235-.7333.587-1.364 1.056-1.892.47-.5427 1.049-.968 1.738-1.276.69-.308 1.482-.462 2.376-.462.91 0 1.702.154 2.376.462.69.308 1.269.7333 1.738 1.276.47.528.822 1.1587 1.056 1.892.235.7187.352 1.496.352 2.332s-.117 1.6133-.352 2.332c-.234.7187-.586 1.3493-1.056 1.892-.469.528-1.048.946-1.738 1.254-.674.2933-1.466.44-2.376.44-.894 0-1.686-.1467-2.376-.44-.689-.308-1.268-.726-1.738-1.254-.469-.5427-.821-1.1733-1.056-1.892-.234-.7187-.352-1.496-.352-2.332zm13.249-5.698h1.76v1.804h.044c.778-1.3787 2.01-2.068 3.696-2.068.748 0 1.372.1027 1.87.308.499.2053.902.4913 1.21.858s.521.8067.638 1.32c.132.4987.198 1.056.198 1.672v7.48h-1.87v-7.7c0-.704-.205-1.2613-.616-1.672-.41-.4107-.975-.616-1.694-.616-.572 0-1.07.088-1.496.264-.41.176-.755.4253-1.034.748-.278.3227-.491.704-.638 1.144-.132.4253-.198.8947-.198 1.408v6.424h-1.87z" fill="#fff" fill-opacity=".333333"/><path d="m147 85h284" stroke="#fff" stroke-opacity=".333333" stroke-width="1.5"/><path d="m147 191h138" stroke="#fff" stroke-opacity=".333333" stroke-width="1.5"/><path d="m150.806 206.816h4.092c1.188.015 2.053-.227 2.596-.726.557-.499.836-1.217.836-2.156s-.279-1.65-.836-2.134c-.543-.499-1.408-.748-2.596-.748h-4.092zm-2.09-7.524h6.886c1.584 0 2.779.411 3.586 1.232.821.807 1.232 1.943 1.232 3.41s-.411 2.611-1.232 3.432c-.807.821-2.002 1.225-3.586 1.21h-4.796v6.424h-2.09zm13.892 4.334h1.76v2.398h.044c.454-.924 1.012-1.606 1.672-2.046s1.496-.645 2.508-.616v1.98c-.748 0-1.386.103-1.914.308s-.954.506-1.276.902c-.323.396-.558.88-.704 1.452-.147.557-.22 1.203-.22 1.936v5.06h-1.87zm8.369 5.698c0 .689.088 1.305.264 1.848.191.528.447.975.77 1.342.323.352.697.623 1.122.814.44.191.902.286 1.386.286s.939-.095 1.364-.286c.44-.191.821-.462 1.144-.814.323-.367.572-.814.748-1.342.191-.543.286-1.159.286-1.848s-.095-1.298-.286-1.826c-.176-.543-.425-.997-.748-1.364s-.704-.645-1.144-.836c-.425-.191-.88-.286-1.364-.286s-.946.095-1.386.286c-.425.191-.799.469-1.122.836s-.579.821-.77 1.364c-.176.528-.264 1.137-.264 1.826zm-1.98 0c0-.836.117-1.613.352-2.332.235-.733.587-1.364 1.056-1.892.469-.543 1.049-.968 1.738-1.276s1.481-.462 2.376-.462c.909 0 1.701.154 2.376.462.689.308 1.269.733 1.738 1.276.469.528.821 1.159 1.056 1.892.235.719.352 1.496.352 2.332s-.117 1.613-.352 2.332-.587 1.349-1.056 1.892c-.469.528-1.049.946-1.738 1.254-.675.293-1.467.44-2.376.44-.895 0-1.687-.147-2.376-.44-.689-.308-1.269-.726-1.738-1.254-.469-.543-.821-1.173-1.056-1.892s-.352-1.496-.352-2.332zm13.315-5.698h1.87v1.54h.044c.308-.631.792-1.085 1.452-1.364.66-.293 1.386-.44 2.178-.44.88 0 1.643.161 2.288.484.66.323 1.203.763 1.628 1.32.44.543.77 1.173.99 1.892s.33 1.481.33 2.288-.11 1.569-.33 2.288c-.205.719-.528 1.349-.968 1.892-.425.528-.968.946-1.628 1.254-.645.308-1.401.462-2.266.462-.279 0-.594-.029-.946-.088-.337-.059-.675-.154-1.012-.286s-.66-.308-.968-.528c-.293-.235-.543-.521-.748-.858h-.044v5.852h-1.87zm8.8 5.588c0-.528-.073-1.041-.22-1.54-.132-.513-.345-.968-.638-1.364-.279-.396-.645-.711-1.1-.946-.44-.235-.961-.352-1.562-.352-.631 0-1.166.125-1.606.374s-.799.579-1.078.99c-.279.396-.484.851-.616 1.364-.117.513-.176 1.034-.176 1.562 0 .557.066 1.1.198 1.628.132.513.337.968.616 1.364.293.396.667.719 1.122.968.455.235 1.005.352 1.65.352s1.181-.125 1.606-.374c.44-.249.792-.579 1.056-.99s.455-.88.572-1.408.176-1.071.176-1.628zm12.073-.99c-.029-.44-.132-.858-.308-1.254-.161-.396-.389-.733-.682-1.012-.279-.293-.616-.521-1.012-.682-.381-.176-.807-.264-1.276-.264-.484 0-.924.088-1.32.264-.381.161-.711.389-.99.682s-.499.638-.66 1.034c-.161.381-.257.792-.286 1.232zm1.804 3.168c-.249 1.276-.799 2.237-1.65 2.882s-1.921.968-3.212.968c-.909 0-1.701-.147-2.376-.44-.66-.293-1.217-.704-1.672-1.232s-.799-1.159-1.034-1.892c-.22-.733-.345-1.533-.374-2.398 0-.865.132-1.657.396-2.376s.631-1.342 1.1-1.87c.484-.528 1.049-.939 1.694-1.232.66-.293 1.379-.44 2.156-.44 1.012 0 1.848.213 2.508.638.675.411 1.21.939 1.606 1.584.411.645.689 1.349.836 2.112.161.763.227 1.489.198 2.178h-8.514c-.015.499.044.975.176 1.43.132.44.345.836.638 1.188.293.337.667.609 1.122.814s.99.308 1.606.308c.792 0 1.437-.183 1.936-.55.513-.367.851-.924 1.012-1.672zm2.048-7.766h1.76v2.398h.044c.455-.924 1.012-1.606 1.672-2.046s1.496-.645 2.508-.616v1.98c-.748 0-1.386.103-1.914.308s-.953.506-1.276.902c-.322.396-.557.88-.704 1.452-.146.557-.22 1.203-.22 1.936v5.06h-1.87zm9.988 0h2.266v1.65h-2.266v7.062c0 .22.015.396.044.528.044.132.118.235.22.308.103.073.242.125.418.154.191.015.433.022.726.022h.858v1.65h-1.43c-.484 0-.902-.029-1.254-.088-.337-.073-.616-.198-.836-.374-.205-.176-.359-.425-.462-.748-.102-.323-.154-.748-.154-1.276v-7.238h-1.936v-1.65h1.936v-3.41h1.87zm8.81 12.892c-.22.557-.44 1.027-.66 1.408-.205.381-.44.689-.704.924-.249.249-.535.425-.858.528-.308.117-.667.176-1.078.176-.22 0-.44-.015-.66-.044s-.433-.081-.638-.154v-1.716c.161.073.345.132.55.176.22.059.403.088.55.088.381 0 .697-.095.946-.286.264-.176.462-.433.594-.77l.77-1.914-4.51-11.308h2.112l3.322 9.306h.044l3.19-9.306h1.98z" fill="#fff" fill-opacity=".333333"/><path d="m25 248h434" stroke="#fff" stroke-opacity=".333333" stroke-width="1.5"/><path d="m26.716 256.292h7.392c1.496 0 2.662.367 3.498 1.1.8507.733 1.276 1.738 1.276 3.014 0 .953-.22 1.789-.66 2.508-.4253.719-1.1147 1.21-2.068 1.474v.044c.4547.088.8213.235 1.1.44.2933.205.5207.455.682.748.176.279.3007.594.374.946.088.352.154.719.198 1.1.0293.381.0513.77.066 1.166s.0513.785.11 1.166.1393.748.242 1.1c.1173.337.286.638.506.902h-2.332c-.1467-.161-.2493-.381-.308-.66-.044-.279-.0733-.587-.088-.924-.0147-.352-.0293-.726-.044-1.122s-.0587-.785-.132-1.166c-.0587-.381-.132-.741-.22-1.078-.088-.352-.2273-.653-.418-.902-.1907-.264-.44-.469-.748-.616-.308-.161-.7187-.242-1.232-.242h-5.104v6.71h-2.09zm6.446 7.238c.484 0 .946-.037 1.386-.11s.8213-.213 1.144-.418c.3373-.22.6013-.506.792-.858.2053-.367.308-.836.308-1.408 0-.792-.22-1.437-.66-1.936s-1.1513-.748-2.134-.748h-5.192v5.478zm17.7225 8.47h-1.76v-1.804h-.044c-.396.704-.902 1.225-1.518 1.562-.616.323-1.342.484-2.178.484-.748 0-1.3713-.095-1.87-.286-.4986-.205-.902-.491-1.21-.858s-.528-.799-.66-1.298c-.1173-.513-.176-1.078-.176-1.694v-7.48h1.87v7.7c0 .704.2054 1.261.616 1.672.4107.411.9754.616 1.694.616.572 0 1.0634-.088 1.474-.264.4254-.176.7774-.425 1.056-.748.2787-.323.484-.697.616-1.122.1467-.44.22-.917.22-1.43v-6.424h1.87zm2.9187-15.708h1.87v15.708h-1.87zm12.6649 8.932c-.0293-.44-.132-.858-.308-1.254-.1613-.396-.3887-.733-.682-1.012-.2787-.293-.616-.521-1.012-.682-.3813-.176-.8067-.264-1.276-.264-.484 0-.924.088-1.32.264-.3813.161-.7113.389-.99.682s-.4987.638-.66 1.034c-.1613.381-.2567.792-.286 1.232zm1.804 3.168c-.2493 1.276-.7993 2.237-1.65 2.882s-1.9213.968-3.212.968c-.9093 0-1.7013-.147-2.376-.44-.66-.293-1.2173-.704-1.672-1.232s-.7993-1.159-1.034-1.892c-.22-.733-.3447-1.533-.374-2.398 0-.865.132-1.657.396-2.376s.6307-1.342 1.1-1.87c.484-.528 1.0487-.939 1.694-1.232.66-.293 1.3787-.44 2.156-.44 1.012 0 1.848.213 2.508.638.6747.411 1.21.939 1.606 1.584.4107.645.6893 1.349.836 2.112.1613.763.2273 1.489.198 2.178h-8.514c-.0147.499.044.975.176 1.43.132.44.3447.836.638 1.188.2933.337.6673.609 1.122.814s.99.308 1.606.308c.792 0 1.4373-.183 1.936-.55.5133-.367.8507-.924 1.012-1.672z" fill="#fff" fill-opacity=".333333"/><path d="m349 191h82" stroke="#fff" stroke-opacity=".333333" stroke-width="1.5"/><path d="m356.898 215h-2.376l-5.522-15.708h2.244l4.488 13.618h.044l4.532-13.618h2.178zm15.832-.044c-.323.191-.77.286-1.342.286-.484 0-.873-.132-1.166-.396-.279-.279-.418-.726-.418-1.342-.513.616-1.115 1.063-1.804 1.342-.675.264-1.408.396-2.2.396-.513 0-1.005-.059-1.474-.176-.455-.117-.851-.301-1.188-.55s-.609-.572-.814-.968c-.191-.411-.286-.902-.286-1.474 0-.645.11-1.173.33-1.584s.506-.741.858-.99c.367-.264.777-.462 1.232-.594.469-.132.946-.242 1.43-.33.513-.103.997-.176 1.452-.22.469-.059.88-.132 1.232-.22.352-.103.631-.242.836-.418.205-.191.308-.462.308-.814 0-.411-.081-.741-.242-.99-.147-.249-.345-.44-.594-.572-.235-.132-.506-.22-.814-.264-.293-.044-.587-.066-.88-.066-.792 0-1.452.154-1.98.462-.528.293-.814.858-.858 1.694h-1.87c.029-.704.176-1.298.44-1.782s.616-.873 1.056-1.166c.44-.308.939-.528 1.496-.66.572-.132 1.181-.198 1.826-.198.513 0 1.019.037 1.518.11.513.073.975.227 1.386.462.411.22.741.535.99.946s.374.946.374 1.606v5.852c0 .44.022.763.066.968.059.205.235.308.528.308.161 0 .352-.037.572-.11zm-3.036-5.83c-.235.176-.543.308-.924.396-.381.073-.785.139-1.21.198-.411.044-.829.103-1.254.176-.425.059-.807.161-1.144.308s-.616.359-.836.638c-.205.264-.308.631-.308 1.1 0 .308.059.572.176.792.132.205.293.374.484.506.205.132.44.227.704.286s.543.088.836.088c.616 0 1.144-.081 1.584-.242.44-.176.799-.389 1.078-.638.279-.264.484-.543.616-.836.132-.308.198-.594.198-.858zm4.887-9.834h1.87v15.708h-1.87zm14.182 15.708h-1.76v-1.804h-.044c-.396.704-.902 1.225-1.518 1.562-.616.323-1.342.484-2.178.484-.748 0-1.371-.095-1.87-.286-.498-.205-.902-.491-1.21-.858s-.528-.799-.66-1.298c-.117-.513-.176-1.078-.176-1.694v-7.48h1.87v7.7c0 .704.206 1.261.616 1.672.411.411.976.616 1.694.616.572 0 1.064-.088 1.474-.264.426-.176.778-.425 1.056-.748.279-.323.484-.697.616-1.122.147-.44.22-.917.22-1.43v-6.424h1.87zm10.707-6.776c-.029-.44-.132-.858-.308-1.254-.161-.396-.389-.733-.682-1.012-.279-.293-.616-.521-1.012-.682-.381-.176-.807-.264-1.276-.264-.484 0-.924.088-1.32.264-.381.161-.711.389-.99.682s-.499.638-.66 1.034c-.161.381-.257.792-.286 1.232zm1.804 3.168c-.249 1.276-.799 2.237-1.65 2.882s-1.921.968-3.212.968c-.909 0-1.701-.147-2.376-.44-.66-.293-1.217-.704-1.672-1.232s-.799-1.159-1.034-1.892c-.22-.733-.345-1.533-.374-2.398 0-.865.132-1.657.396-2.376s.631-1.342 1.1-1.87c.484-.528 1.049-.939 1.694-1.232.66-.293 1.379-.44 2.156-.44 1.012 0 1.848.213 2.508.638.675.411 1.21.939 1.606 1.584.411.645.689 1.349.836 2.112.161.763.227 1.489.198 2.178h-8.514c-.015.499.044.975.176 1.43.132.44.345.836.638 1.188.293.337.667.609 1.122.814s.99.308 1.606.308c.792 0 1.437-.183 1.936-.55.513-.367.851-.924 1.012-1.672z" fill="#fff" fill-opacity=".333333"/></svg>