<svg width="650" height="428" viewBox="0 0 650 428" fill="none" xmlns="http://www.w3.org/2000/svg">
<path d="M541 218V156" stroke="black" stroke-width="1.5" stroke-linecap="round"/>
<path d="M551.07 184.295C550.633 184.295 550.275 183.937 550.275 183.5V169.198C550.275 168.761 550.633 168.404 551.07 168.404H556.45C558.737 168.404 560.599 170.265 560.599 172.552C560.599 173.897 559.957 175.095 558.958 175.855C560.213 176.678 561.041 178.097 561.041 179.703C561.041 182.234 558.981 184.295 556.45 184.295H551.07ZM559.452 179.703C559.452 178.046 558.107 176.701 556.45 176.701H551.864V182.705H556.45C558.107 182.705 559.452 181.36 559.452 179.703ZM551.864 169.993V175.112H556.45C557.863 175.112 559.009 173.965 559.009 172.552C559.009 171.139 557.863 169.993 556.45 169.993H551.864ZM565.411 168.404C565.854 168.404 566.206 168.767 566.206 169.198V183.5C566.206 183.931 565.854 184.295 565.411 184.295H565.406C564.969 184.295 564.611 183.943 564.611 183.5V169.198C564.611 168.761 564.969 168.404 565.406 168.404H565.411ZM573.541 184.431C571.447 184.431 569.767 182.132 569.767 179.255C569.767 178.716 569.818 177.592 570.34 176.423C570.63 175.776 571.027 175.208 571.521 174.771C572.077 174.283 572.769 173.965 573.541 173.965C575.647 173.965 577.315 176.287 577.315 179.198C577.315 182.11 575.647 184.431 573.541 184.431ZM575.726 179.198C575.726 177.183 574.688 175.554 573.541 175.554C572.384 175.554 571.356 177.223 571.356 179.255C571.356 181.247 572.406 182.842 573.541 182.842C574.688 182.842 575.726 181.219 575.726 179.198ZM582.509 179.198C582.509 181.213 583.576 182.842 584.756 182.842C585.142 182.842 585.471 182.728 585.755 182.535C585.982 182.376 586.175 182.166 586.328 181.905C586.498 181.616 586.618 181.27 586.646 180.895C586.68 180.486 587.021 180.163 587.435 180.163C587.872 180.163 588.229 180.52 588.229 180.957C588.229 180.974 588.218 181.837 587.702 182.711C587.441 183.159 587.089 183.545 586.657 183.841C586.118 184.209 585.466 184.431 584.756 184.431C582.622 184.431 580.92 182.11 580.92 179.198C580.92 176.287 582.622 173.965 584.756 173.965C585.443 173.965 586.067 174.175 586.567 174.544C587.878 175.509 588.008 177.195 588.008 177.297C588.008 177.734 587.651 178.091 587.214 178.091C586.811 178.091 586.476 177.785 586.425 177.393C586.385 177.064 586.226 176.264 585.63 175.827C585.397 175.657 585.119 175.554 584.756 175.554C583.576 175.554 582.509 177.183 582.509 179.198ZM592.593 184.295C592.156 184.295 591.798 183.937 591.798 183.5V179.794V169.198C591.798 168.761 592.156 168.404 592.593 168.404C593.03 168.404 593.388 168.761 593.388 169.198V178.682L594.926 177.144C594.943 177.127 594.937 177.127 597.729 174.334C597.871 174.192 598.07 174.102 598.291 174.102C598.728 174.102 599.086 174.459 599.086 174.896C599.086 175.117 598.995 175.316 598.853 175.458L596.509 177.802L599.568 183.103C599.636 183.222 599.676 183.358 599.676 183.5C599.676 183.937 599.318 184.295 598.881 184.295C598.586 184.295 598.331 184.136 598.195 183.897L595.346 178.965L593.393 180.923L593.388 183.506C593.388 183.943 593.03 184.295 592.593 184.295ZM612.427 176.979C612.427 175.333 613.954 173.965 615.668 173.965C616.332 173.965 616.911 174.158 617.382 174.465C617.796 174.737 618.12 175.078 618.364 175.441C618.659 175.872 618.863 176.349 618.96 176.814C618.971 176.865 618.977 176.922 618.977 176.979C618.977 177.416 618.619 177.774 618.182 177.774C617.802 177.774 617.479 177.501 617.405 177.144C617.32 176.752 617.042 176.139 616.519 175.799C616.287 175.645 616.014 175.554 615.668 175.554C614.828 175.554 614.017 176.23 614.017 176.979C614.017 177.138 614.051 177.337 614.221 177.552C614.346 177.711 614.539 177.864 614.783 177.995C615.089 178.159 615.464 178.284 615.827 178.347C616.548 178.472 618.404 178.886 619.068 180.299C619.215 180.611 619.3 180.969 619.3 181.349C619.3 182.898 618.052 184.431 615.668 184.431C614.981 184.431 614.38 184.215 613.892 183.897C613.46 183.614 613.12 183.256 612.853 182.881C612.626 182.564 612.337 182.058 612.206 181.457C612.195 181.406 612.189 181.349 612.189 181.292C612.189 180.855 612.547 180.498 612.984 180.498C613.364 180.498 613.687 180.77 613.761 181.128C613.88 181.678 614.522 182.842 615.668 182.842C616.372 182.842 616.849 182.66 617.155 182.427C617.535 182.144 617.711 181.746 617.711 181.349C617.711 181.156 617.66 180.946 617.456 180.725C617.098 180.344 616.378 180.061 615.555 179.913C614.601 179.743 613.585 179.306 612.978 178.54C612.791 178.301 612.427 177.774 612.427 176.979ZM622.578 170.191C622.578 169.584 623.066 169.096 623.667 169.096C624.042 169.096 624.377 169.289 624.575 169.584C624.655 169.698 624.763 169.907 624.763 170.191C624.763 170.793 624.274 171.287 623.667 171.287C623.066 171.287 622.578 170.799 622.578 170.191ZM624.462 183.5C624.462 183.937 624.104 184.295 623.667 184.295C623.23 184.295 622.873 183.937 622.873 183.5V174.896C622.873 174.459 623.23 174.102 623.667 174.102C624.104 174.102 624.462 174.459 624.462 174.896V183.5ZM634.845 174.102C635.288 174.102 635.64 174.459 635.64 174.896C635.64 174.947 635.634 175.146 635.492 175.35L630.35 182.705H635.021C635.458 182.705 635.816 183.063 635.816 183.5C635.816 183.937 635.458 184.295 635.021 184.295H628.823C628.381 184.295 628.029 183.937 628.029 183.5C628.029 183.449 628.029 183.25 628.171 183.046L633.318 175.691H629.005C628.568 175.691 628.211 175.333 628.211 174.896C628.211 174.459 628.568 174.102 629.005 174.102H634.845ZM640.985 179.323C641.008 181.287 642.052 182.842 643.17 182.842C644.061 182.842 644.839 182.053 645.179 180.827C645.27 180.492 645.582 180.248 645.945 180.248C646.382 180.248 646.74 180.606 646.74 181.043C646.74 181.116 646.729 181.19 646.712 181.258C646.627 181.57 646.201 183.069 644.89 183.914C644.379 184.243 643.789 184.431 643.17 184.431C641.076 184.431 639.396 182.132 639.396 179.255C639.396 178.716 639.447 177.592 639.969 176.423C640.259 175.776 640.656 175.208 641.15 174.771C641.706 174.283 642.398 173.965 643.17 173.965C644.578 173.965 645.843 175.021 646.502 176.883C646.575 177.098 646.74 177.609 646.74 178.12C646.74 178.256 646.734 178.614 646.519 178.92C646.462 178.999 646.382 179.085 646.28 179.158C646.127 179.266 645.934 179.323 645.753 179.323H640.985ZM645.1 177.734C644.941 177.041 644.271 175.554 643.17 175.554C642.847 175.554 642.518 175.679 642.194 175.963C641.825 176.287 641.422 176.865 641.184 177.734H645.1ZM567.774 206.787C567.774 207.224 567.416 207.582 566.979 207.582C566.849 207.582 566.73 207.548 566.622 207.497C563.563 205.959 561.418 201.997 561.418 197.349C561.418 192.701 563.569 188.739 566.622 187.201C566.73 187.15 566.849 187.116 566.979 187.116C567.416 187.116 567.774 187.474 567.774 187.911C567.774 188.212 567.609 188.484 567.337 188.62C564.834 189.875 563.007 193.314 563.007 197.349C563.007 199.625 563.591 201.708 564.533 203.302C565.044 204.171 565.958 205.385 567.337 206.078C567.598 206.208 567.774 206.475 567.774 206.787ZM571.359 190.198C571.359 189.761 571.717 189.404 572.154 189.404C572.591 189.404 572.948 189.761 572.948 190.198V195.522C573.487 195.17 574.134 194.965 574.832 194.965C576.751 194.965 578.306 196.52 578.306 198.439V204.5C578.306 204.937 577.948 205.295 577.511 205.295C577.074 205.295 576.717 204.937 576.717 204.5V198.439C576.717 197.394 575.877 196.554 574.832 196.554C573.788 196.554 572.954 197.394 572.954 198.439L572.948 204.5C572.948 204.937 572.591 205.295 572.154 205.295C571.717 205.295 571.359 204.937 571.359 204.5V190.198ZM583.475 200.323C583.498 202.287 584.542 203.842 585.66 203.842C586.552 203.842 587.329 203.053 587.67 201.827C587.76 201.492 588.073 201.248 588.436 201.248C588.873 201.248 589.23 201.606 589.23 202.043C589.23 202.116 589.219 202.19 589.202 202.258C589.117 202.57 588.691 204.069 587.38 204.914C586.869 205.243 586.279 205.431 585.66 205.431C583.566 205.431 581.886 203.132 581.886 200.255C581.886 199.716 581.937 198.592 582.46 197.423C582.749 196.776 583.146 196.208 583.64 195.771C584.196 195.283 584.889 194.965 585.66 194.965C587.068 194.965 588.334 196.021 588.992 197.883C589.066 198.098 589.23 198.609 589.23 199.12C589.23 199.256 589.225 199.614 589.009 199.92C588.952 199.999 588.873 200.085 588.771 200.158C588.617 200.266 588.424 200.323 588.243 200.323H583.475ZM587.59 198.734C587.431 198.041 586.761 196.554 585.66 196.554C585.337 196.554 585.008 196.679 584.684 196.963C584.315 197.287 583.912 197.865 583.674 198.734H587.59ZM592.509 191.191C592.509 190.584 592.997 190.096 593.599 190.096C593.973 190.096 594.308 190.289 594.507 190.584C594.586 190.698 594.694 190.907 594.694 191.191C594.694 191.793 594.206 192.287 593.599 192.287C592.997 192.287 592.509 191.799 592.509 191.191ZM594.393 204.5C594.393 204.937 594.036 205.295 593.599 205.295C593.162 205.295 592.804 204.937 592.804 204.5V195.896C592.804 195.459 593.162 195.102 593.599 195.102C594.036 195.102 594.393 195.459 594.393 195.896V204.5ZM603.982 198.592C603.982 200.306 602.745 201.651 601.19 201.651C600.787 201.651 600.407 201.554 600.055 201.396C599.754 201.589 599.55 201.929 599.55 202.309C599.55 202.593 599.663 202.848 599.839 203.041C600.265 202.945 600.719 202.894 601.207 202.894C601.933 202.894 602.875 203.007 603.755 203.376C604.209 203.564 604.606 203.808 604.93 204.12C605.287 204.46 605.583 204.926 605.583 205.499C605.583 206.186 605.129 207.026 603.766 207.451C603.25 207.616 602.665 207.695 602.035 207.695C601.309 207.695 600.367 207.582 599.487 207.213C599.033 207.026 598.636 206.781 598.312 206.469C597.955 206.129 597.66 205.663 597.66 205.09C597.66 204.784 597.751 204.211 598.358 203.711C598.102 203.302 597.961 202.826 597.961 202.309C597.961 201.537 598.29 200.839 598.818 200.351C598.574 200.005 598.205 199.313 598.205 198.371C598.205 196.781 599.277 195.488 600.702 195.329C600.969 194.551 601.712 193.989 602.58 193.989C602.756 193.989 602.927 194.012 603.091 194.057C603.432 194.148 603.681 194.455 603.681 194.823C603.681 195.26 603.324 195.618 602.887 195.618C602.728 195.618 602.682 195.578 602.58 195.578C602.49 195.578 602.399 195.612 602.331 195.663C602.336 195.669 602.348 195.669 602.353 195.675C603.369 196.254 603.982 197.389 603.982 198.592ZM601.207 204.483C600.724 204.483 600.293 204.545 599.953 204.653C599.89 204.676 599.408 204.835 599.266 205.051C599.26 205.062 599.249 205.079 599.249 205.09C599.249 205.09 599.266 205.249 599.606 205.482C599.799 205.618 600.435 205.987 601.553 206.083C601.718 206.1 601.877 206.106 602.035 206.106C602.518 206.106 602.949 206.044 603.29 205.936C603.352 205.913 603.835 205.754 603.976 205.539C603.982 205.527 603.993 205.51 603.993 205.499C603.993 205.499 603.976 205.34 603.636 205.107C603.443 204.971 602.807 204.602 601.689 204.506C601.525 204.489 601.366 204.483 601.207 204.483ZM600.997 196.901C600.287 196.901 599.794 197.593 599.794 198.371C599.794 199.296 600.463 200.062 601.19 200.062C601.899 200.062 602.393 199.369 602.393 198.592C602.393 197.667 601.723 196.901 600.997 196.901ZM608.566 190.198C608.566 189.761 608.924 189.404 609.361 189.404C609.798 189.404 610.155 189.761 610.155 190.198V195.522C610.694 195.17 611.341 194.965 612.039 194.965C613.958 194.965 615.513 196.52 615.513 198.439V204.5C615.513 204.937 615.155 205.295 614.718 205.295C614.281 205.295 613.924 204.937 613.924 204.5V198.439C613.924 197.394 613.084 196.554 612.039 196.554C610.995 196.554 610.161 197.394 610.161 198.439L610.155 204.5C610.155 204.937 609.798 205.295 609.361 205.295C608.924 205.295 608.566 204.937 608.566 204.5V190.198ZM624.059 202.599C624.059 202.162 624.417 201.804 624.854 201.804C625.291 201.804 625.648 202.162 625.648 202.599V202.911C625.648 204.228 624.581 205.295 623.265 205.295C621.948 205.295 620.881 204.228 620.881 202.911V196.696L619.292 196.691C618.855 196.691 618.497 196.333 618.497 195.896C618.497 195.459 618.855 195.102 619.292 195.102H620.881V193.376C620.881 192.939 621.239 192.582 621.676 192.582C622.113 192.582 622.47 192.939 622.47 193.376V195.096L624.854 195.102C625.291 195.102 625.648 195.459 625.648 195.896C625.648 196.333 625.291 196.691 624.854 196.691H622.47V202.911C622.47 203.354 622.822 203.705 623.265 203.705C623.707 203.705 624.059 203.354 624.059 202.911V202.599ZM630.025 207.582C629.588 207.582 629.23 207.224 629.23 206.787C629.23 206.486 629.395 206.214 629.667 206.078C632.17 204.823 633.997 201.384 633.997 197.349C633.997 195.073 633.413 192.99 632.471 191.396C631.96 190.527 631.046 189.313 629.667 188.62C629.406 188.49 629.23 188.223 629.23 187.911C629.23 187.474 629.588 187.116 630.025 187.116C630.155 187.116 630.274 187.145 630.382 187.201C633.441 188.739 635.587 192.701 635.587 197.349C635.587 201.997 633.436 205.959 630.382 207.497C630.274 207.553 630.155 207.582 630.025 207.582Z" fill="black"/>
<path d="M16.8892 176.675C16.8892 179.217 14.4148 181.295 11.1401 181.295C10.2604 181.295 9.47154 181.13 8.79049 180.846C7.93919 180.489 7.25247 179.944 6.74169 179.308C5.83363 178.179 5.59526 176.976 5.53851 176.312C5.53851 176.289 5.53283 176.266 5.53283 176.243C5.53283 175.806 5.89038 175.449 6.32738 175.449C6.74169 175.449 7.08221 175.767 7.11626 176.17C7.17869 176.873 7.46246 177.668 7.97892 178.309C8.52375 178.985 9.49424 179.705 11.1401 179.705C13.484 179.705 15.3001 178.343 15.3001 176.675C15.3001 175.46 14.7213 174.541 12.7462 173.99C12.2184 173.843 11.6339 173.735 11.0379 173.656C9.94827 173.508 8.92103 173.292 8.0754 172.855C6.9914 172.288 6.12307 171.295 6.12307 169.53C6.12307 167.254 8.35917 165.404 11.1401 165.404C11.8438 165.404 12.5646 165.534 13.2343 165.818C13.8302 166.068 14.3921 166.436 14.8518 166.947C15.3966 167.554 15.8166 168.389 15.9244 169.444C15.9244 169.473 15.9301 169.501 15.9301 169.53C15.9301 169.967 15.5726 170.324 15.1356 170.324C14.7269 170.324 14.3864 170.012 14.3467 169.609C14.2729 168.911 14.0232 168.4 13.6713 168.009C13.3875 167.696 13.03 167.452 12.6214 167.282C12.1617 167.089 11.6395 166.993 11.1401 166.993C9.26155 166.993 7.71217 168.145 7.71217 169.53C7.71217 170.631 8.17756 171.119 8.80752 171.448C9.38641 171.749 10.181 171.936 11.2536 172.083C13.0754 172.333 15.0164 172.816 16.0947 174.2C16.5544 174.791 16.8892 175.596 16.8892 176.675ZM25.4207 178.599C25.4207 178.162 25.7782 177.804 26.2152 177.804C26.6522 177.804 27.0098 178.162 27.0098 178.599V178.911C27.0098 180.228 25.9428 181.295 24.6261 181.295C23.3094 181.295 22.2424 180.228 22.2424 178.911V172.696L20.6533 172.691C20.2163 172.691 19.8588 172.333 19.8588 171.896C19.8588 171.459 20.2163 171.102 20.6533 171.102H22.2424V169.376C22.2424 168.939 22.6 168.582 23.037 168.582C23.474 168.582 23.8316 168.939 23.8316 169.376V171.096L26.2152 171.102C26.6522 171.102 27.0098 171.459 27.0098 171.896C27.0098 172.333 26.6522 172.691 26.2152 172.691H23.8316V178.911C23.8316 179.354 24.1834 179.705 24.6261 179.705C25.0688 179.705 25.4207 179.354 25.4207 178.911V178.599ZM35.9547 174.257C35.9547 173.406 35.2736 172.554 34.1102 172.554C32.9183 172.554 32.5551 173.031 32.3962 173.298C32.2997 173.463 32.2203 173.667 32.1635 173.928C32.084 174.285 31.7662 174.552 31.386 174.552C30.949 174.552 30.5914 174.195 30.5914 173.758C30.5914 173.701 30.5971 173.644 30.6085 173.587C30.9206 172.186 31.9024 170.965 34.1102 170.965C36.1249 170.965 37.5438 172.498 37.5438 174.257V175.534V175.585V178.911C37.5438 179.325 37.6062 179.575 37.6629 179.705C37.68 179.745 37.714 179.808 37.7481 179.842C38.0489 179.836 38.4178 179.785 38.4178 179.785C38.4461 179.779 38.4859 179.774 38.5369 179.774C38.9739 179.774 39.3315 180.131 39.3315 180.568C39.3315 180.965 39.0364 181.295 38.6561 181.351C38.6334 181.357 38.1851 181.431 37.714 181.431C37.4813 181.431 36.8968 181.363 36.4427 180.755C36.193 180.926 35.773 181.158 35.1374 181.3C34.8026 181.374 34.4734 181.408 34.1669 181.408C33.6221 181.408 33.0375 181.323 32.487 181.124C31.9081 180.914 31.0738 180.466 30.7333 179.541C30.6368 179.285 30.5914 179.002 30.5914 178.712C30.5914 178.043 30.7503 176.896 31.9762 176.028C32.5381 175.631 33.2475 175.341 34.1442 175.103C34.6436 174.967 35.2452 174.876 35.9547 174.825V174.257ZM32.1805 178.712C32.1805 178.956 32.2713 179.121 32.4019 179.257C32.5324 179.393 32.7481 179.53 33.0262 179.632C33.3724 179.757 33.7923 179.819 34.1669 179.819C34.4564 179.819 34.8309 179.762 35.1431 179.649C35.9376 179.354 35.949 178.888 35.949 178.712C35.949 178.712 35.9547 177.554 35.9547 176.419C35.529 176.453 34.9955 176.516 34.5528 176.635C32.6856 177.135 32.1805 177.77 32.1805 178.712ZM45.4884 170.965C47.2421 170.965 48.6666 172.39 48.6666 174.144V174.456C48.6666 174.893 48.309 175.25 47.872 175.25C47.435 175.25 47.0775 174.893 47.0775 174.456V174.144C47.0775 173.264 46.3681 172.554 45.4884 172.554C44.6144 172.554 43.905 173.264 43.905 174.144C43.905 174.178 43.905 174.206 43.8993 174.24V180.5C43.8993 180.937 43.5417 181.295 43.1047 181.295C42.6677 181.295 42.3102 180.937 42.3102 180.5V171.896C42.3102 171.459 42.6677 171.102 43.1047 171.102C43.3885 171.102 43.6325 171.249 43.7744 171.47C44.2682 171.153 44.8584 170.965 45.4884 170.965ZM56.8855 178.599C56.8855 178.162 57.243 177.804 57.6801 177.804C58.1171 177.804 58.4746 178.162 58.4746 178.599V178.911C58.4746 180.228 57.4076 181.295 56.0909 181.295C54.7743 181.295 53.7073 180.228 53.7073 178.911V172.696L52.1182 172.691C51.6812 172.691 51.3236 172.333 51.3236 171.896C51.3236 171.459 51.6812 171.102 52.1182 171.102H53.7073V169.376C53.7073 168.939 54.0648 168.582 54.5018 168.582C54.9388 168.582 55.2964 168.939 55.2964 169.376V171.096L57.6801 171.102C58.1171 171.102 58.4746 171.459 58.4746 171.896C58.4746 172.333 58.1171 172.691 57.6801 172.691H55.2964V178.911C55.2964 179.354 55.6483 179.705 56.0909 179.705C56.5336 179.705 56.8855 179.354 56.8855 178.911V178.599ZM11.5474 203.787C11.5474 204.224 11.1899 204.582 10.7529 204.582C10.6224 204.582 10.5032 204.548 10.3953 204.497C7.33633 202.959 5.19104 198.997 5.19104 194.349C5.19104 189.701 7.342 185.739 10.3953 184.201C10.5032 184.15 10.6224 184.116 10.7529 184.116C11.1899 184.116 11.5474 184.474 11.5474 184.911C11.5474 185.212 11.3829 185.484 11.1104 185.62C8.60761 186.875 6.78014 190.314 6.78014 194.349C6.78014 196.625 7.3647 198.708 8.30681 200.302C8.8176 201.171 9.73133 202.385 11.1104 203.078C11.3715 203.208 11.5474 203.475 11.5474 203.787ZM15.9327 186.404C16.3753 186.404 16.7272 186.767 16.7272 187.198V201.5C16.7272 201.931 16.3753 202.295 15.9327 202.295H15.927C15.49 202.295 15.1324 201.943 15.1324 201.5V187.198C15.1324 186.761 15.49 186.404 15.927 186.404H15.9327ZM21.8778 197.323C21.9005 199.287 22.9448 200.842 24.0628 200.842C24.9538 200.842 25.7314 200.053 26.0719 198.827C26.1627 198.492 26.4748 198.248 26.8381 198.248C27.2751 198.248 27.6326 198.606 27.6326 199.043C27.6326 199.116 27.6213 199.19 27.6042 199.258C27.5191 199.57 27.0935 201.069 25.7824 201.914C25.2717 202.243 24.6814 202.431 24.0628 202.431C21.9686 202.431 20.2887 200.132 20.2887 197.255C20.2887 196.716 20.3398 195.592 20.8619 194.423C21.1513 193.776 21.5486 193.208 22.0424 192.771C22.5986 192.283 23.291 191.965 24.0628 191.965C25.4703 191.965 26.7359 193.021 27.3943 194.883C27.468 195.098 27.6326 195.609 27.6326 196.12C27.6326 196.256 27.6269 196.614 27.4113 196.92C27.3545 196.999 27.2751 197.085 27.1729 197.158C27.0197 197.266 26.8267 197.323 26.6451 197.323H21.8778ZM25.9924 195.734C25.8335 195.041 25.1638 193.554 24.0628 193.554C23.7393 193.554 23.4101 193.679 23.0866 193.963C22.7178 194.287 22.3148 194.865 22.0764 195.734H25.9924ZM36.9615 193.271H34.5778V201.494C34.5778 201.931 34.2203 202.289 33.7833 202.289C33.3463 202.289 32.9887 201.931 32.9887 201.494V193.271H31.3996C30.9626 193.271 30.6051 192.913 30.6051 192.476C30.6051 192.039 30.9626 191.682 31.3996 191.682L32.9887 191.676L32.9944 189.576C32.9944 187.822 34.4076 186.398 36.1669 186.398C37.9206 186.398 39.3451 187.822 39.3451 189.576V189.888C39.3451 190.325 38.9876 190.683 38.5506 190.683C38.1136 190.683 37.756 190.325 37.756 189.888V189.576C37.756 188.696 37.0466 187.987 36.1669 187.987C35.2929 187.987 34.5835 188.696 34.5835 189.576L34.5778 191.676L36.9615 191.682C37.3985 191.682 37.756 192.039 37.756 192.476C37.756 192.913 37.3985 193.271 36.9615 193.271ZM47.2859 199.599C47.2859 199.162 47.6434 198.804 48.0804 198.804C48.5174 198.804 48.875 199.162 48.875 199.599V199.911C48.875 201.228 47.808 202.295 46.4913 202.295C45.1747 202.295 44.1077 201.228 44.1077 199.911V193.696L42.5186 193.691C42.0816 193.691 41.724 193.333 41.724 192.896C41.724 192.459 42.0816 192.102 42.5186 192.102H44.1077V190.376C44.1077 189.939 44.4652 189.582 44.9022 189.582C45.3392 189.582 45.6968 189.939 45.6968 190.376V192.096L48.0804 192.102C48.5174 192.102 48.875 192.459 48.875 192.896C48.875 193.333 48.5174 193.691 48.0804 193.691H45.6968V199.911C45.6968 200.354 46.0487 200.705 46.4913 200.705C46.934 200.705 47.2859 200.354 47.2859 199.911V199.599ZM53.2512 204.582C52.8142 204.582 52.4567 204.224 52.4567 203.787C52.4567 203.486 52.6212 203.214 52.8937 203.078C55.3965 201.823 57.224 198.384 57.224 194.349C57.224 192.073 56.6394 189.99 55.6973 188.396C55.1865 187.527 54.2728 186.313 52.8937 185.62C52.6326 185.49 52.4567 185.223 52.4567 184.911C52.4567 184.474 52.8142 184.116 53.2512 184.116C53.3817 184.116 53.5009 184.145 53.6088 184.201C56.6678 185.739 58.8131 189.701 58.8131 194.349C58.8131 198.997 56.6621 202.959 53.6088 204.497C53.5009 204.553 53.3817 204.582 53.2512 204.582Z" fill="black" fill-opacity="0.5"/>
<path d="M210.774 20.1748C210.774 22.7174 208.3 24.7946 205.025 24.7946C204.145 24.7946 203.356 24.63 202.675 24.3462C201.824 23.9886 201.137 23.4438 200.626 22.8082C199.718 21.6788 199.48 20.4756 199.423 19.8116C199.423 19.7889 199.418 19.7662 199.418 19.7435C199.418 19.3065 199.775 18.9489 200.212 18.9489C200.626 18.9489 200.967 19.2667 201.001 19.6697C201.063 20.3734 201.347 21.168 201.864 21.8093C202.409 22.4847 203.379 23.2054 205.025 23.2054C207.369 23.2054 209.185 21.8434 209.185 20.1748C209.185 18.9603 208.606 18.0409 206.631 17.4904C206.103 17.3428 205.519 17.235 204.923 17.1555C203.833 17.0079 202.806 16.7923 201.96 16.3553C200.876 15.7877 200.008 14.7946 200.008 13.0295C200.008 10.7537 202.244 8.90352 205.025 8.90352C205.729 8.90352 206.449 9.03405 207.119 9.31782C207.715 9.56754 208.277 9.93644 208.737 10.4472C209.281 11.0545 209.701 11.8888 209.809 12.9444C209.809 12.9728 209.815 13.0011 209.815 13.0295C209.815 13.4665 209.457 13.8241 209.02 13.8241C208.612 13.8241 208.271 13.5119 208.231 13.109C208.158 12.4109 207.908 11.9001 207.556 11.5085C207.272 11.1964 206.915 10.9523 206.506 10.7821C206.046 10.5891 205.524 10.4926 205.025 10.4926C203.146 10.4926 201.597 11.6447 201.597 13.0295C201.597 14.1305 202.062 14.6186 202.692 14.9478C203.271 15.2486 204.066 15.4359 205.138 15.5834C206.96 15.8331 208.901 16.3155 209.979 17.7003C210.439 18.2906 210.774 19.0965 210.774 20.1748ZM219.305 22.0988C219.305 21.6617 219.663 21.3042 220.1 21.3042C220.537 21.3042 220.895 21.6617 220.895 22.0988V22.4109C220.895 23.7276 219.828 24.7946 218.511 24.7946C217.194 24.7946 216.127 23.7276 216.127 22.4109V16.1964L214.538 16.1907C214.101 16.1907 213.744 15.8331 213.744 15.3961C213.744 14.9591 214.101 14.6016 214.538 14.6016H216.127V12.8763C216.127 12.4393 216.485 12.0817 216.922 12.0817C217.359 12.0817 217.716 12.4393 217.716 12.8763V14.5959L220.1 14.6016C220.537 14.6016 220.895 14.9591 220.895 15.3961C220.895 15.8331 220.537 16.1907 220.1 16.1907H217.716V22.4109C217.716 22.8536 218.068 23.2054 218.511 23.2054C218.954 23.2054 219.305 22.8536 219.305 22.4109V22.0988ZM229.839 17.7571C229.839 16.9058 229.158 16.0545 227.995 16.0545C226.803 16.0545 226.44 16.5312 226.281 16.798C226.184 16.9625 226.105 17.1669 226.048 17.4279C225.969 17.7855 225.651 18.0522 225.271 18.0522C224.834 18.0522 224.476 17.6947 224.476 17.2577C224.476 17.2009 224.482 17.1442 224.493 17.0874C224.805 15.6856 225.787 14.4654 227.995 14.4654C230.01 14.4654 231.429 15.9977 231.429 17.7571V19.0341V19.0851V22.4109C231.429 22.8252 231.491 23.0749 231.548 23.2054C231.565 23.2452 231.599 23.3076 231.633 23.3417C231.934 23.336 232.303 23.2849 232.303 23.2849C232.331 23.2792 232.371 23.2736 232.422 23.2736C232.859 23.2736 233.216 23.6311 233.216 24.0681C233.216 24.4654 232.921 24.7946 232.541 24.8513C232.518 24.857 232.07 24.9308 231.599 24.9308C231.366 24.9308 230.782 24.8627 230.327 24.2554C230.078 24.4257 229.658 24.6583 229.022 24.8002C228.687 24.874 228.358 24.9081 228.052 24.9081C227.507 24.9081 226.922 24.8229 226.372 24.6243C225.793 24.4143 224.959 23.9659 224.618 23.0409C224.522 22.7855 224.476 22.5017 224.476 22.2123C224.476 21.5426 224.635 20.3961 225.861 19.5278C226.423 19.1305 227.132 18.8411 228.029 18.6027C228.528 18.4665 229.13 18.3757 229.839 18.3246V17.7571ZM226.065 22.2123C226.065 22.4563 226.156 22.6209 226.287 22.7571C226.417 22.8933 226.633 23.0295 226.911 23.1317C227.257 23.2565 227.677 23.319 228.052 23.319C228.341 23.319 228.716 23.2622 229.028 23.1487C229.822 22.8536 229.834 22.3882 229.834 22.2123C229.834 22.2123 229.839 21.0545 229.839 19.9194C229.414 19.9535 228.88 20.0159 228.438 20.1351C226.57 20.6345 226.065 21.2701 226.065 22.2123ZM239.373 14.4654C241.127 14.4654 242.551 15.8899 242.551 17.6436V17.9557C242.551 18.3927 242.194 18.7503 241.757 18.7503C241.32 18.7503 240.962 18.3927 240.962 17.9557V17.6436C240.962 16.7639 240.253 16.0545 239.373 16.0545C238.499 16.0545 237.79 16.7639 237.79 17.6436C237.79 17.6776 237.79 17.706 237.784 17.7401V24C237.784 24.437 237.426 24.7946 236.989 24.7946C236.552 24.7946 236.195 24.437 236.195 24V15.3961C236.195 14.9591 236.552 14.6016 236.989 14.6016C237.273 14.6016 237.517 14.7491 237.659 14.9705C238.153 14.6527 238.743 14.4654 239.373 14.4654ZM250.77 22.0988C250.77 21.6617 251.128 21.3042 251.565 21.3042C252.002 21.3042 252.359 21.6617 252.359 22.0988V22.4109C252.359 23.7276 251.292 24.7946 249.976 24.7946C248.659 24.7946 247.592 23.7276 247.592 22.4109V16.1964L246.003 16.1907C245.566 16.1907 245.208 15.8331 245.208 15.3961C245.208 14.9591 245.566 14.6016 246.003 14.6016H247.592V12.8763C247.592 12.4393 247.95 12.0817 248.387 12.0817C248.824 12.0817 249.181 12.4393 249.181 12.8763V14.5959L251.565 14.6016C252.002 14.6016 252.359 14.9591 252.359 15.3961C252.359 15.8331 252.002 16.1907 251.565 16.1907H249.181V22.4109C249.181 22.8536 249.533 23.2054 249.976 23.2054C250.418 23.2054 250.77 22.8536 250.77 22.4109V22.0988ZM271.829 26.2872C271.829 26.7242 271.471 27.0817 271.034 27.0817C270.904 27.0817 270.784 27.0477 270.677 26.9966C267.618 25.4586 265.472 21.4972 265.472 16.849C265.472 12.2009 267.623 8.2395 270.677 6.70147C270.784 6.6504 270.904 6.61634 271.034 6.61634C271.471 6.61634 271.829 6.97389 271.829 7.4109C271.829 7.71169 271.664 7.98411 271.392 8.12032C268.889 9.37457 267.061 12.8138 267.061 16.849C267.061 19.1249 267.646 21.2077 268.588 22.8025C269.099 23.6708 270.013 24.8854 271.392 25.5778C271.653 25.7083 271.829 25.975 271.829 26.2872ZM280.38 22.0988C280.38 21.6617 280.737 21.3042 281.174 21.3042C281.611 21.3042 281.969 21.6617 281.969 22.0988V22.4109C281.969 23.7276 280.902 24.7946 279.585 24.7946C278.268 24.7946 277.201 23.7276 277.201 22.4109V16.1964L275.612 16.1907C275.175 16.1907 274.818 15.8331 274.818 15.3961C274.818 14.9591 275.175 14.6016 275.612 14.6016H277.201V12.8763C277.201 12.4393 277.559 12.0817 277.996 12.0817C278.433 12.0817 278.791 12.4393 278.791 12.8763V14.5959L281.174 14.6016C281.611 14.6016 281.969 14.9591 281.969 15.3961C281.969 15.8331 281.611 16.1907 281.174 16.1907H278.791V22.4109C278.791 22.8536 279.142 23.2054 279.585 23.2054C280.028 23.2054 280.38 22.8536 280.38 22.4109V22.0988ZM289.325 24.9308C287.23 24.9308 285.55 22.6322 285.55 19.7548C285.55 19.2157 285.601 18.0919 286.124 16.9228C286.413 16.2758 286.81 15.7083 287.304 15.2713C287.86 14.7832 288.553 14.4654 289.325 14.4654C291.43 14.4654 293.099 16.7866 293.099 19.6981C293.099 22.6095 291.43 24.9308 289.325 24.9308ZM291.51 19.6981C291.51 17.6833 290.471 16.0545 289.325 16.0545C288.167 16.0545 287.14 17.723 287.14 19.7548C287.14 21.7469 288.189 23.3417 289.325 23.3417C290.471 23.3417 291.51 21.7185 291.51 19.6981ZM298.184 14.9932C298.439 14.8229 299.035 14.4654 299.881 14.4654C301.987 14.4654 303.655 16.7866 303.655 19.6981C303.655 22.6095 301.987 24.9308 299.881 24.9308C299.291 24.9308 298.757 24.7548 298.292 24.454V29.6981C298.292 30.1351 297.934 30.4926 297.497 30.4926C297.06 30.4926 296.703 30.1351 296.703 29.6981V15.3961C296.703 14.9591 297.06 14.6016 297.497 14.6016C297.787 14.6016 298.048 14.7605 298.184 14.9932ZM299.881 16.0545C299.172 16.0545 298.632 16.5993 298.292 17.2123V22.1385C298.746 22.9671 299.342 23.3417 299.881 23.3417C301.027 23.3417 302.066 21.7185 302.066 19.6981C302.066 17.6833 301.027 16.0545 299.881 16.0545ZM308.025 27.0817C307.588 27.0817 307.23 26.7242 307.23 26.2872C307.23 25.9864 307.395 25.714 307.667 25.5778C310.17 24.3235 311.997 20.8842 311.997 16.849C311.997 14.5732 311.413 12.4904 310.471 10.8956C309.96 10.0272 309.046 8.81271 307.667 8.12032C307.406 7.98978 307.23 7.72304 307.23 7.4109C307.23 6.97389 307.588 6.61634 308.025 6.61634C308.155 6.61634 308.274 6.64472 308.382 6.70147C311.441 8.2395 313.587 12.2009 313.587 16.849C313.587 21.4972 311.436 25.4586 308.382 26.9966C308.274 27.0533 308.155 27.0817 308.025 27.0817Z" fill="black" fill-opacity="0.5"/>
<g filter="url(#filter0_d_305_2)">
<rect width="367" height="296" transform="translate(74 36)" fill="#F6B26B" fill-opacity="0.66"/>
<rect width="287" height="218" transform="translate(114 76)" fill="#FFE599" fill-opacity="0.66"/>
<rect width="207" height="140" transform="translate(154 116)" fill="#93C47D" fill-opacity="0.55"/>
<rect x="194" y="156" width="127" height="62" fill="#6FA8DC" fill-opacity="0.66"/>
<rect x="194" y="156" width="127" height="62" stroke="black" stroke-width="1.5"/>
<path d="M220.772 186.849C220.772 190.345 222.753 193.205 225.114 193.205C227.208 193.205 228.684 191.565 228.854 189.619C228.888 189.21 229.229 188.892 229.643 188.892C230.08 188.892 230.437 189.25 230.437 189.687C230.437 189.698 230.437 189.721 230.432 189.755C230.352 190.669 230.069 191.531 229.609 192.275C229.2 192.939 228.655 193.512 228.003 193.943C227.185 194.482 226.198 194.795 225.114 194.795C221.828 194.795 219.183 191.253 219.183 186.849C219.183 182.445 221.828 178.904 225.114 178.904C226.158 178.904 227.095 179.21 227.861 179.732C228.474 180.152 228.979 180.697 229.365 181.321C229.785 181.991 230.086 182.78 230.239 183.648C230.245 183.694 230.25 183.739 230.25 183.784C230.25 184.221 229.893 184.579 229.456 184.579C229.064 184.579 228.741 184.295 228.672 183.921C228.366 182.167 227.18 180.493 225.114 180.493C222.753 180.493 220.772 183.353 220.772 186.849ZM237.782 194.931C235.687 194.931 234.007 192.632 234.007 189.755C234.007 189.216 234.059 188.092 234.581 186.923C234.87 186.276 235.267 185.708 235.761 185.271C236.317 184.783 237.01 184.465 237.782 184.465C239.887 184.465 241.556 186.787 241.556 189.698C241.556 192.61 239.887 194.931 237.782 194.931ZM239.967 189.698C239.967 187.683 238.928 186.054 237.782 186.054C236.624 186.054 235.597 187.723 235.597 189.755C235.597 191.747 236.646 193.342 237.782 193.342C238.928 193.342 239.967 191.719 239.967 189.698ZM245.16 185.396C245.16 184.959 245.517 184.602 245.954 184.602C246.278 184.602 246.556 184.795 246.681 185.067C247.237 184.687 247.907 184.465 248.633 184.465C250.551 184.465 252.106 186.02 252.106 187.939V194C252.106 194.437 251.749 194.795 251.312 194.795C250.875 194.795 250.517 194.437 250.517 194V187.939C250.517 186.894 249.677 186.054 248.633 186.054C247.589 186.054 246.755 186.894 246.755 187.939L246.749 194C246.749 194.437 246.391 194.795 245.954 194.795C245.517 194.795 245.16 194.437 245.16 194V185.396ZM260.653 192.099C260.653 191.662 261.011 191.304 261.448 191.304C261.885 191.304 262.242 191.662 262.242 192.099V192.411C262.242 193.728 261.175 194.795 259.859 194.795C258.542 194.795 257.475 193.728 257.475 192.411V186.196L255.886 186.191C255.449 186.191 255.091 185.833 255.091 185.396C255.091 184.959 255.449 184.602 255.886 184.602H257.475V182.876C257.475 182.439 257.832 182.082 258.269 182.082C258.706 182.082 259.064 182.439 259.064 182.876V184.596L261.448 184.602C261.885 184.602 262.242 184.959 262.242 185.396C262.242 185.833 261.885 186.191 261.448 186.191H259.064V192.411C259.064 192.854 259.416 193.205 259.859 193.205C260.301 193.205 260.653 192.854 260.653 192.411V192.099ZM267.413 189.823C267.436 191.787 268.48 193.342 269.598 193.342C270.489 193.342 271.267 192.553 271.607 191.327C271.698 190.992 272.01 190.748 272.373 190.748C272.81 190.748 273.168 191.106 273.168 191.543C273.168 191.616 273.156 191.69 273.139 191.758C273.054 192.07 272.629 193.569 271.318 194.414C270.807 194.743 270.217 194.931 269.598 194.931C267.504 194.931 265.824 192.632 265.824 189.755C265.824 189.216 265.875 188.092 266.397 186.923C266.687 186.276 267.084 185.708 267.578 185.271C268.134 184.783 268.826 184.465 269.598 184.465C271.005 184.465 272.271 185.521 272.929 187.383C273.003 187.598 273.168 188.109 273.168 188.62C273.168 188.756 273.162 189.114 272.946 189.42C272.89 189.499 272.81 189.585 272.708 189.658C272.555 189.766 272.362 189.823 272.18 189.823H267.413ZM271.528 188.234C271.369 187.541 270.699 186.054 269.598 186.054C269.274 186.054 268.945 186.179 268.622 186.463C268.253 186.787 267.85 187.365 267.612 188.234H271.528ZM276.742 185.396C276.742 184.959 277.099 184.602 277.536 184.602C277.86 184.602 278.138 184.795 278.263 185.067C278.819 184.687 279.489 184.465 280.215 184.465C282.133 184.465 283.688 186.02 283.688 187.939V194C283.688 194.437 283.331 194.795 282.894 194.795C282.457 194.795 282.099 194.437 282.099 194V187.939C282.099 186.894 281.259 186.054 280.215 186.054C279.171 186.054 278.337 186.894 278.337 187.939L278.331 194C278.331 194.437 277.973 194.795 277.536 194.795C277.099 194.795 276.742 194.437 276.742 194V185.396ZM292.235 192.099C292.235 191.662 292.593 191.304 293.03 191.304C293.467 191.304 293.824 191.662 293.824 192.099V192.411C293.824 193.728 292.757 194.795 291.441 194.795C290.124 194.795 289.057 193.728 289.057 192.411V186.196L287.468 186.191C287.031 186.191 286.673 185.833 286.673 185.396C286.673 184.959 287.031 184.602 287.468 184.602H289.057V182.876C289.057 182.439 289.414 182.082 289.851 182.082C290.288 182.082 290.646 182.439 290.646 182.876V184.596L293.03 184.602C293.467 184.602 293.824 184.959 293.824 185.396C293.824 185.833 293.467 186.191 293.03 186.191H290.646V192.411C290.646 192.854 290.998 193.205 291.441 193.205C291.883 193.205 292.235 192.854 292.235 192.411V192.099Z" fill="black"/>
<path d="M230.596 233.495C230.596 231.855 229.416 230.493 227.957 230.493H223.36V236.497H227.957C229.416 236.497 230.596 235.135 230.596 233.495ZM232.185 233.495C232.185 236.043 230.278 238.086 227.957 238.086H223.36V244C223.36 244.437 223.003 244.795 222.566 244.795C222.129 244.795 221.771 244.437 221.771 244V229.698C221.771 229.261 222.129 228.904 222.566 228.904H227.957C230.278 228.904 232.185 230.947 232.185 233.495ZM241.119 237.757C241.119 236.906 240.438 236.054 239.274 236.054C238.082 236.054 237.719 236.531 237.56 236.798C237.464 236.963 237.384 237.167 237.328 237.428C237.248 237.785 236.93 238.052 236.55 238.052C236.113 238.052 235.755 237.695 235.755 237.258C235.755 237.201 235.761 237.144 235.773 237.087C236.085 235.686 237.066 234.465 239.274 234.465C241.289 234.465 242.708 235.998 242.708 237.757V239.034V239.085V242.411C242.708 242.825 242.77 243.075 242.827 243.205C242.844 243.245 242.878 243.308 242.912 243.342C243.213 243.336 243.582 243.285 243.582 243.285C243.61 243.279 243.65 243.274 243.701 243.274C244.138 243.274 244.496 243.631 244.496 244.068C244.496 244.465 244.2 244.795 243.82 244.851C243.797 244.857 243.349 244.931 242.878 244.931C242.645 244.931 242.061 244.863 241.607 244.255C241.357 244.426 240.937 244.658 240.301 244.8C239.967 244.874 239.637 244.908 239.331 244.908C238.786 244.908 238.202 244.823 237.651 244.624C237.072 244.414 236.238 243.966 235.897 243.041C235.801 242.785 235.755 242.502 235.755 242.212C235.755 241.543 235.914 240.396 237.14 239.528C237.702 239.131 238.412 238.841 239.308 238.603C239.808 238.467 240.409 238.376 241.119 238.325V237.757ZM237.345 242.212C237.345 242.456 237.435 242.621 237.566 242.757C237.696 242.893 237.912 243.03 238.19 243.132C238.536 243.257 238.956 243.319 239.331 243.319C239.62 243.319 239.995 243.262 240.307 243.149C241.102 242.854 241.113 242.388 241.113 242.212C241.113 242.212 241.119 241.054 241.119 239.919C240.693 239.953 240.16 240.016 239.717 240.135C237.85 240.635 237.345 241.27 237.345 242.212ZM252.945 244.403C252.69 244.573 252.094 244.931 251.248 244.931C249.143 244.931 247.474 242.61 247.474 239.698C247.474 236.787 249.143 234.465 251.248 234.465C251.839 234.465 252.372 234.641 252.837 234.942V229.698C252.837 229.261 253.195 228.904 253.632 228.904C254.069 228.904 254.427 229.261 254.427 229.698V244.006C254.427 244.443 254.069 244.8 253.632 244.8C253.337 244.8 253.082 244.641 252.945 244.403ZM251.248 243.342C251.958 243.342 252.497 242.797 252.837 242.184V237.258C252.383 236.429 251.788 236.054 251.248 236.054C250.102 236.054 249.063 237.678 249.063 239.698C249.063 241.713 250.102 243.342 251.248 243.342ZM263.473 244.403C263.217 244.573 262.621 244.931 261.776 244.931C259.67 244.931 258.002 242.61 258.002 239.698C258.002 236.787 259.67 234.465 261.776 234.465C262.366 234.465 262.899 234.641 263.365 234.942V229.698C263.365 229.261 263.722 228.904 264.159 228.904C264.596 228.904 264.954 229.261 264.954 229.698V244.006C264.954 244.443 264.596 244.8 264.159 244.8C263.864 244.8 263.609 244.641 263.473 244.403ZM261.776 243.342C262.485 243.342 263.024 242.797 263.365 242.184V237.258C262.911 236.429 262.315 236.054 261.776 236.054C260.629 236.054 259.591 237.678 259.591 239.698C259.591 241.713 260.629 243.342 261.776 243.342ZM268.234 230.691C268.234 230.084 268.722 229.596 269.323 229.596C269.698 229.596 270.033 229.789 270.232 230.084C270.311 230.198 270.419 230.407 270.419 230.691C270.419 231.293 269.931 231.787 269.323 231.787C268.722 231.787 268.234 231.299 268.234 230.691ZM270.118 244C270.118 244.437 269.76 244.795 269.323 244.795C268.886 244.795 268.529 244.437 268.529 244V235.396C268.529 234.959 268.886 234.602 269.323 234.602C269.76 234.602 270.118 234.959 270.118 235.396V244ZM273.685 235.396C273.685 234.959 274.043 234.602 274.48 234.602C274.803 234.602 275.081 234.795 275.206 235.067C275.762 234.687 276.432 234.465 277.159 234.465C279.077 234.465 280.632 236.02 280.632 237.939V244C280.632 244.437 280.274 244.795 279.837 244.795C279.4 244.795 279.043 244.437 279.043 244V237.939C279.043 236.894 278.203 236.054 277.159 236.054C276.114 236.054 275.28 236.894 275.28 237.939L275.274 244C275.274 244.437 274.917 244.795 274.48 244.795C274.043 244.795 273.685 244.437 273.685 244V235.396ZM290.234 238.092C290.234 239.806 288.997 241.151 287.442 241.151C287.039 241.151 286.659 241.054 286.307 240.896C286.006 241.089 285.802 241.429 285.802 241.809C285.802 242.093 285.915 242.348 286.091 242.541C286.517 242.445 286.971 242.394 287.459 242.394C288.185 242.394 289.127 242.507 290.007 242.876C290.461 243.064 290.858 243.308 291.182 243.62C291.539 243.96 291.835 244.426 291.835 244.999C291.835 245.686 291.381 246.526 290.018 246.951C289.502 247.116 288.917 247.195 288.287 247.195C287.561 247.195 286.619 247.082 285.739 246.713C285.285 246.526 284.888 246.281 284.564 245.969C284.207 245.629 283.912 245.163 283.912 244.59C283.912 244.284 284.003 243.711 284.61 243.211C284.354 242.802 284.213 242.326 284.213 241.809C284.213 241.037 284.542 240.339 285.07 239.851C284.825 239.505 284.457 238.813 284.457 237.871C284.457 236.281 285.529 234.988 286.954 234.829C287.22 234.051 287.964 233.489 288.832 233.489C289.008 233.489 289.178 233.512 289.343 233.557C289.684 233.648 289.933 233.955 289.933 234.323C289.933 234.76 289.576 235.118 289.139 235.118C288.98 235.118 288.934 235.078 288.832 235.078C288.741 235.078 288.651 235.112 288.583 235.163C288.588 235.169 288.6 235.169 288.605 235.175C289.621 235.754 290.234 236.889 290.234 238.092ZM287.459 243.983C286.976 243.983 286.545 244.045 286.205 244.153C286.142 244.176 285.66 244.335 285.518 244.551C285.512 244.562 285.501 244.579 285.501 244.59C285.501 244.59 285.518 244.749 285.858 244.982C286.051 245.118 286.687 245.487 287.805 245.583C287.97 245.6 288.129 245.606 288.287 245.606C288.77 245.606 289.201 245.544 289.542 245.436C289.604 245.413 290.087 245.254 290.228 245.039C290.234 245.027 290.245 245.01 290.245 244.999C290.245 244.999 290.228 244.84 289.888 244.607C289.695 244.471 289.059 244.102 287.941 244.006C287.777 243.989 287.618 243.983 287.459 243.983ZM287.249 236.401C286.539 236.401 286.046 237.093 286.046 237.871C286.046 238.796 286.715 239.562 287.442 239.562C288.151 239.562 288.645 238.869 288.645 238.092C288.645 237.167 287.975 236.401 287.249 236.401Z" fill="black"/>
<path d="M226.013 282.795C225.576 282.795 225.218 282.437 225.218 282V267.698C225.218 267.261 225.576 266.904 226.013 266.904H231.393C233.68 266.904 235.542 268.765 235.542 271.052C235.542 272.397 234.901 273.595 233.902 274.355C235.156 275.178 235.985 276.597 235.985 278.203C235.985 280.734 233.924 282.795 231.393 282.795H226.013ZM234.395 278.203C234.395 276.546 233.05 275.201 231.393 275.201H226.807V281.205H231.393C233.05 281.205 234.395 279.86 234.395 278.203ZM226.807 268.493V273.612H231.393C232.806 273.612 233.953 272.465 233.953 271.052C233.953 269.639 232.806 268.493 231.393 268.493H226.807ZM243.328 282.931C241.234 282.931 239.554 280.632 239.554 277.755C239.554 277.216 239.605 276.092 240.128 274.923C240.417 274.276 240.814 273.708 241.308 273.271C241.864 272.783 242.557 272.465 243.328 272.465C245.434 272.465 247.103 274.787 247.103 277.698C247.103 280.61 245.434 282.931 243.328 282.931ZM245.513 277.698C245.513 275.683 244.475 274.054 243.328 274.054C242.171 274.054 241.143 275.723 241.143 277.755C241.143 279.747 242.193 281.342 243.328 281.342C244.475 281.342 245.513 279.719 245.513 277.698ZM253.885 272.465C255.639 272.465 257.063 273.89 257.063 275.644V275.956C257.063 276.393 256.706 276.75 256.269 276.75C255.832 276.75 255.474 276.393 255.474 275.956V275.644C255.474 274.764 254.765 274.054 253.885 274.054C253.011 274.054 252.301 274.764 252.301 275.644C252.301 275.678 252.301 275.706 252.296 275.74V282C252.296 282.437 251.938 282.795 251.501 282.795C251.064 282.795 250.707 282.437 250.707 282V273.396C250.707 272.959 251.064 272.602 251.501 272.602C251.785 272.602 252.029 272.749 252.171 272.97C252.665 272.653 253.255 272.465 253.885 272.465ZM265.787 282.403C265.532 282.573 264.936 282.931 264.09 282.931C261.985 282.931 260.316 280.61 260.316 277.698C260.316 274.787 261.985 272.465 264.09 272.465C264.68 272.465 265.214 272.641 265.679 272.942V267.698C265.679 267.261 266.037 266.904 266.474 266.904C266.911 266.904 267.268 267.261 267.268 267.698V282.006C267.268 282.443 266.911 282.8 266.474 282.8C266.179 282.8 265.923 282.641 265.787 282.403ZM264.09 281.342C264.8 281.342 265.339 280.797 265.679 280.184V275.258C265.225 274.429 264.629 274.054 264.09 274.054C262.944 274.054 261.905 275.678 261.905 277.698C261.905 279.713 262.944 281.342 264.09 281.342ZM272.432 277.823C272.455 279.787 273.499 281.342 274.618 281.342C275.509 281.342 276.286 280.553 276.627 279.327C276.717 278.992 277.03 278.748 277.393 278.748C277.83 278.748 278.187 279.106 278.187 279.543C278.187 279.616 278.176 279.69 278.159 279.758C278.074 280.07 277.648 281.569 276.337 282.414C275.826 282.743 275.236 282.931 274.618 282.931C272.523 282.931 270.843 280.632 270.843 277.755C270.843 277.216 270.894 276.092 271.417 274.923C271.706 274.276 272.103 273.708 272.597 273.271C273.153 272.783 273.846 272.465 274.618 272.465C276.025 272.465 277.291 273.521 277.949 275.383C278.023 275.598 278.187 276.109 278.187 276.62C278.187 276.756 278.182 277.114 277.966 277.42C277.909 277.499 277.83 277.585 277.728 277.658C277.574 277.766 277.381 277.823 277.2 277.823H272.432ZM276.547 276.234C276.388 275.541 275.719 274.054 274.618 274.054C274.294 274.054 273.965 274.179 273.641 274.463C273.272 274.787 272.869 275.365 272.631 276.234H276.547ZM284.94 272.465C286.693 272.465 288.118 273.89 288.118 275.644V275.956C288.118 276.393 287.76 276.75 287.323 276.75C286.886 276.75 286.529 276.393 286.529 275.956V275.644C286.529 274.764 285.819 274.054 284.94 274.054C284.066 274.054 283.356 274.764 283.356 275.644C283.356 275.678 283.356 275.706 283.35 275.74V282C283.35 282.437 282.993 282.795 282.556 282.795C282.119 282.795 281.761 282.437 281.761 282V273.396C281.761 272.959 282.119 272.602 282.556 272.602C282.84 272.602 283.084 272.749 283.226 272.97C283.719 272.653 284.31 272.465 284.94 272.465Z" fill="black"/>
<path d="M238.271 320.795C237.834 320.795 237.477 320.437 237.477 320L237.471 308.729L233.606 319.96C233.498 320.278 233.186 320.494 232.851 320.494H232.55C232.215 320.494 231.909 320.278 231.801 319.96L227.931 308.717V320C227.931 320.437 227.573 320.795 227.136 320.795C226.699 320.795 226.341 320.437 226.341 320V305.698C226.341 305.261 226.699 304.904 227.136 304.904H227.732C228.067 304.904 228.373 305.119 228.481 305.437L232.704 317.696L236.92 305.437C237.028 305.119 237.34 304.904 237.675 304.904H238.265C238.702 304.904 239.06 305.261 239.06 305.698L239.066 320C239.066 320.437 238.708 320.795 238.271 320.795ZM247.994 313.757C247.994 312.906 247.313 312.054 246.149 312.054C244.957 312.054 244.594 312.531 244.435 312.798C244.339 312.963 244.259 313.167 244.203 313.428C244.123 313.785 243.805 314.052 243.425 314.052C242.988 314.052 242.63 313.695 242.63 313.258C242.63 313.201 242.636 313.144 242.648 313.087C242.96 311.686 243.941 310.465 246.149 310.465C248.164 310.465 249.583 311.998 249.583 313.757V315.034V315.085V318.411C249.583 318.825 249.645 319.075 249.702 319.205C249.719 319.245 249.753 319.308 249.787 319.342C250.088 319.336 250.457 319.285 250.457 319.285C250.485 319.279 250.525 319.274 250.576 319.274C251.013 319.274 251.371 319.631 251.371 320.068C251.371 320.465 251.075 320.795 250.695 320.851C250.672 320.857 250.224 320.931 249.753 320.931C249.52 320.931 248.936 320.863 248.482 320.255C248.232 320.426 247.812 320.658 247.176 320.8C246.842 320.874 246.512 320.908 246.206 320.908C245.661 320.908 245.077 320.823 244.526 320.624C243.947 320.414 243.113 319.966 242.772 319.041C242.676 318.785 242.63 318.502 242.63 318.212C242.63 317.543 242.789 316.396 244.015 315.528C244.577 315.131 245.287 314.841 246.183 314.603C246.683 314.467 247.284 314.376 247.994 314.325V313.757ZM244.22 318.212C244.22 318.456 244.31 318.621 244.441 318.757C244.571 318.893 244.787 319.03 245.065 319.132C245.411 319.257 245.831 319.319 246.206 319.319C246.495 319.319 246.87 319.262 247.182 319.149C247.977 318.854 247.988 318.388 247.988 318.212C247.988 318.212 247.994 317.054 247.994 315.919C247.568 315.953 247.035 316.016 246.592 316.135C244.725 316.635 244.22 317.27 244.22 318.212ZM257.527 310.465C259.281 310.465 260.706 311.89 260.706 313.644V313.956C260.706 314.393 260.348 314.75 259.911 314.75C259.474 314.75 259.117 314.393 259.117 313.956V313.644C259.117 312.764 258.407 312.054 257.527 312.054C256.653 312.054 255.944 312.764 255.944 313.644C255.944 313.678 255.944 313.706 255.938 313.74V320C255.938 320.437 255.581 320.795 255.144 320.795C254.707 320.795 254.349 320.437 254.349 320V311.396C254.349 310.959 254.707 310.602 255.144 310.602C255.428 310.602 255.672 310.749 255.813 310.97C256.307 310.653 256.897 310.465 257.527 310.465ZM269.98 314.092C269.98 315.806 268.743 317.151 267.188 317.151C266.785 317.151 266.405 317.054 266.053 316.896C265.752 317.089 265.548 317.429 265.548 317.809C265.548 318.093 265.661 318.348 265.837 318.541C266.263 318.445 266.717 318.394 267.205 318.394C267.931 318.394 268.873 318.507 269.753 318.876C270.207 319.064 270.604 319.308 270.928 319.62C271.286 319.96 271.581 320.426 271.581 320.999C271.581 321.686 271.127 322.526 269.765 322.951C269.248 323.116 268.663 323.195 268.034 323.195C267.307 323.195 266.365 323.082 265.485 322.713C265.031 322.526 264.634 322.281 264.31 321.969C263.953 321.629 263.658 321.163 263.658 320.59C263.658 320.284 263.749 319.711 264.356 319.211C264.1 318.802 263.959 318.326 263.959 317.809C263.959 317.037 264.288 316.339 264.816 315.851C264.572 315.505 264.203 314.813 264.203 313.871C264.203 312.281 265.275 310.988 266.7 310.829C266.967 310.051 267.71 309.489 268.578 309.489C268.754 309.489 268.925 309.512 269.089 309.557C269.43 309.648 269.679 309.955 269.679 310.323C269.679 310.76 269.322 311.118 268.885 311.118C268.726 311.118 268.681 311.078 268.578 311.078C268.488 311.078 268.397 311.112 268.329 311.163C268.334 311.169 268.346 311.169 268.351 311.175C269.367 311.754 269.98 312.889 269.98 314.092ZM267.205 319.983C266.723 319.983 266.291 320.045 265.951 320.153C265.888 320.176 265.406 320.335 265.264 320.551C265.258 320.562 265.247 320.579 265.247 320.59C265.247 320.59 265.264 320.749 265.604 320.982C265.797 321.118 266.433 321.487 267.551 321.583C267.716 321.6 267.875 321.606 268.034 321.606C268.516 321.606 268.947 321.544 269.288 321.436C269.35 321.413 269.833 321.254 269.975 321.039C269.98 321.027 269.992 321.01 269.992 320.999C269.992 320.999 269.975 320.84 269.634 320.607C269.441 320.471 268.805 320.102 267.687 320.006C267.523 319.989 267.364 319.983 267.205 319.983ZM266.995 312.401C266.286 312.401 265.792 313.093 265.792 313.871C265.792 314.796 266.461 315.562 267.188 315.562C267.897 315.562 268.391 314.869 268.391 314.092C268.391 313.167 267.721 312.401 266.995 312.401ZM274.269 306.691C274.269 306.084 274.757 305.596 275.359 305.596C275.733 305.596 276.068 305.789 276.267 306.084C276.346 306.198 276.454 306.407 276.454 306.691C276.454 307.293 275.966 307.787 275.359 307.787C274.757 307.787 274.269 307.299 274.269 306.691ZM276.153 320C276.153 320.437 275.796 320.795 275.359 320.795C274.922 320.795 274.564 320.437 274.564 320V311.396C274.564 310.959 274.922 310.602 275.359 310.602C275.796 310.602 276.153 310.959 276.153 311.396V320ZM279.72 311.396C279.72 310.959 280.078 310.602 280.515 310.602C280.838 310.602 281.116 310.795 281.241 311.067C281.798 310.687 282.467 310.465 283.194 310.465C285.112 310.465 286.667 312.02 286.667 313.939V320C286.667 320.437 286.309 320.795 285.872 320.795C285.435 320.795 285.078 320.437 285.078 320V313.939C285.078 312.894 284.238 312.054 283.194 312.054C282.149 312.054 281.315 312.894 281.315 313.939L281.309 320C281.309 320.437 280.952 320.795 280.515 320.795C280.078 320.795 279.72 320.437 279.72 320V311.396Z" fill="black"/>
</g>
<path d="M192.956 358.795C192.519 358.795 192.162 358.437 192.162 358V343.698C192.162 343.261 192.519 342.904 192.956 342.904H201.821C202.258 342.904 202.616 343.261 202.616 343.698V343.704C202.616 344.141 202.258 344.498 201.821 344.498H193.757V349.606H199.25C199.687 349.606 200.045 349.964 200.045 350.401V350.406C200.045 350.849 199.687 351.201 199.25 351.201H193.757V357.2H202.207C202.644 357.2 203.002 357.557 203.002 357.994V358C203.002 358.437 202.644 358.795 202.207 358.795H192.956ZM206.576 349.396C206.576 348.959 206.933 348.602 207.37 348.602C207.694 348.602 207.972 348.795 208.097 349.067C208.653 348.687 209.323 348.465 210.049 348.465C211.967 348.465 213.522 350.02 213.522 351.939V358C213.522 358.437 213.165 358.795 212.728 358.795C212.291 358.795 211.933 358.437 211.933 358V351.939C211.933 350.894 211.093 350.054 210.049 350.054C209.005 350.054 208.171 350.894 208.171 351.939L208.165 358C208.165 358.437 207.807 358.795 207.37 358.795C206.933 358.795 206.576 358.437 206.576 358V349.396ZM222.574 358.403C222.319 358.573 221.723 358.931 220.877 358.931C218.772 358.931 217.103 356.61 217.103 353.698C217.103 350.787 218.772 348.465 220.877 348.465C221.468 348.465 222.001 348.641 222.466 348.942V343.698C222.466 343.261 222.824 342.904 223.261 342.904C223.698 342.904 224.055 343.261 224.055 343.698V358.006C224.055 358.443 223.698 358.8 223.261 358.8C222.966 358.8 222.71 358.641 222.574 358.403ZM220.877 357.342C221.587 357.342 222.126 356.797 222.466 356.184V351.258C222.012 350.429 221.416 350.054 220.877 350.054C219.731 350.054 218.692 351.678 218.692 353.698C218.692 355.713 219.731 357.342 220.877 357.342ZM243.518 360.287C243.518 360.724 243.161 361.082 242.724 361.082C242.593 361.082 242.474 361.048 242.366 360.997C239.307 359.459 237.162 355.497 237.162 350.849C237.162 346.201 239.313 342.239 242.366 340.701C242.474 340.65 242.593 340.616 242.724 340.616C243.161 340.616 243.518 340.974 243.518 341.411C243.518 341.712 243.354 341.984 243.081 342.12C240.578 343.375 238.751 346.814 238.751 350.849C238.751 353.125 239.335 355.208 240.278 356.802C240.788 357.671 241.702 358.885 243.081 359.578C243.342 359.708 243.518 359.975 243.518 360.287ZM250.281 358.931C249.89 358.931 249.254 358.851 248.584 358.403C248.448 358.641 248.193 358.8 247.898 358.8C247.461 358.8 247.103 358.443 247.103 358.006V343.698C247.103 343.261 247.461 342.904 247.898 342.904C248.335 342.904 248.692 343.261 248.692 343.698V348.942C249.158 348.641 249.691 348.465 250.281 348.465C252.387 348.465 254.055 350.787 254.055 353.698C254.055 356.61 252.387 358.931 250.281 358.931ZM248.692 356.184C249.033 356.797 249.572 357.342 250.281 357.342C251.428 357.342 252.466 355.719 252.466 353.698C252.466 351.683 251.428 350.054 250.281 350.054C249.742 350.054 249.146 350.429 248.692 351.258V356.184ZM261.405 358.931C259.31 358.931 257.63 356.632 257.63 353.755C257.63 353.216 257.682 352.092 258.204 350.923C258.493 350.276 258.89 349.708 259.384 349.271C259.94 348.783 260.633 348.465 261.405 348.465C263.51 348.465 265.179 350.787 265.179 353.698C265.179 356.61 263.51 358.931 261.405 358.931ZM263.59 353.698C263.59 351.683 262.551 350.054 261.405 350.054C260.247 350.054 259.22 351.723 259.22 353.755C259.22 355.747 260.27 357.342 261.405 357.342C262.551 357.342 263.59 355.719 263.59 353.698ZM273.749 356.099C273.749 355.662 274.106 355.304 274.543 355.304C274.98 355.304 275.338 355.662 275.338 356.099V356.411C275.338 357.728 274.271 358.795 272.954 358.795C271.638 358.795 270.571 357.728 270.571 356.411V350.196L268.981 350.191C268.544 350.191 268.187 349.833 268.187 349.396C268.187 348.959 268.544 348.602 268.981 348.602H270.571V346.876C270.571 346.439 270.928 346.082 271.365 346.082C271.802 346.082 272.16 346.439 272.16 346.876V348.596L274.543 348.602C274.98 348.602 275.338 348.959 275.338 349.396C275.338 349.833 274.98 350.191 274.543 350.191H272.16V356.411C272.16 356.854 272.512 357.205 272.954 357.205C273.397 357.205 273.749 356.854 273.749 356.411V356.099ZM283.885 356.099C283.885 355.662 284.243 355.304 284.68 355.304C285.117 355.304 285.475 355.662 285.475 356.099V356.411C285.475 357.728 284.408 358.795 283.091 358.795C281.774 358.795 280.707 357.728 280.707 356.411V350.196L279.118 350.191C278.681 350.191 278.324 349.833 278.324 349.396C278.324 348.959 278.681 348.602 279.118 348.602H280.707V346.876C280.707 346.439 281.065 346.082 281.502 346.082C281.939 346.082 282.296 346.439 282.296 346.876V348.596L284.68 348.602C285.117 348.602 285.475 348.959 285.475 349.396C285.475 349.833 285.117 350.191 284.68 350.191H282.296V356.411C282.296 356.854 282.648 357.205 283.091 357.205C283.534 357.205 283.885 356.854 283.885 356.411V356.099ZM292.83 358.931C290.736 358.931 289.056 356.632 289.056 353.755C289.056 353.216 289.107 352.092 289.629 350.923C289.919 350.276 290.316 349.708 290.81 349.271C291.366 348.783 292.059 348.465 292.83 348.465C294.936 348.465 296.605 350.787 296.605 353.698C296.605 356.61 294.936 358.931 292.83 358.931ZM295.015 353.698C295.015 351.683 293.977 350.054 292.83 350.054C291.673 350.054 290.645 351.723 290.645 353.755C290.645 355.747 291.695 357.342 292.83 357.342C293.977 357.342 295.015 355.719 295.015 353.698ZM303.279 350.054C302.462 350.054 301.803 350.906 301.803 351.939L301.798 358C301.798 358.437 301.44 358.795 301.003 358.795C300.566 358.795 300.209 358.437 300.209 358V349.396C300.209 348.959 300.566 348.602 301.003 348.602C301.287 348.602 301.537 348.755 301.679 348.976C302.013 348.743 302.564 348.465 303.279 348.465C303.869 348.465 304.42 348.653 304.879 348.97C305.135 349.146 305.368 349.362 305.56 349.606C305.753 349.362 305.986 349.146 306.242 348.97C306.701 348.653 307.252 348.465 307.842 348.465C309.533 348.465 310.907 350.003 310.907 351.939L310.901 358C310.901 358.437 310.543 358.795 310.106 358.795C309.669 358.795 309.312 358.437 309.312 358L309.318 351.939C309.318 350.906 308.659 350.054 307.842 350.054C307.025 350.054 306.355 350.906 306.355 351.939L306.349 358C306.349 358.437 305.992 358.795 305.555 358.795C305.118 358.795 304.76 358.437 304.76 358V351.939C304.76 350.906 304.096 350.054 303.279 350.054ZM315.281 361.082C314.844 361.082 314.486 360.724 314.486 360.287C314.486 359.986 314.651 359.714 314.923 359.578C317.426 358.323 319.253 354.884 319.253 350.849C319.253 348.573 318.669 346.49 317.727 344.896C317.216 344.027 316.302 342.813 314.923 342.12C314.662 341.99 314.486 341.723 314.486 341.411C314.486 340.974 314.844 340.616 315.281 340.616C315.411 340.616 315.53 340.645 315.638 340.701C318.697 342.239 320.842 346.201 320.842 350.849C320.842 355.497 318.691 359.459 315.638 360.997C315.53 361.053 315.411 361.082 315.281 361.082Z" fill="black" fill-opacity="0.5"/>
<path d="M469.855 181.295C469.418 181.295 469.06 180.937 469.06 180.5V166.198C469.06 165.761 469.418 165.404 469.855 165.404H478.72C479.157 165.404 479.514 165.761 479.514 166.198V166.204C479.514 166.641 479.157 166.998 478.72 166.998H470.655V172.106H476.149C476.586 172.106 476.943 172.464 476.943 172.901V172.906C476.943 173.349 476.586 173.701 476.149 173.701H470.655V179.7H479.106C479.543 179.7 479.9 180.057 479.9 180.494V180.5C479.9 180.937 479.543 181.295 479.106 181.295H469.855ZM483.474 171.896C483.474 171.459 483.832 171.102 484.269 171.102C484.592 171.102 484.87 171.295 484.995 171.567C485.551 171.187 486.221 170.965 486.948 170.965C488.866 170.965 490.421 172.52 490.421 174.439V180.5C490.421 180.937 490.063 181.295 489.626 181.295C489.189 181.295 488.832 180.937 488.832 180.5V174.439C488.832 173.394 487.992 172.554 486.948 172.554C485.903 172.554 485.069 173.394 485.069 174.439L485.063 180.5C485.063 180.937 484.706 181.295 484.269 181.295C483.832 181.295 483.474 180.937 483.474 180.5V171.896ZM499.473 180.903C499.217 181.073 498.621 181.431 497.776 181.431C495.67 181.431 494.002 179.11 494.002 176.198C494.002 173.287 495.67 170.965 497.776 170.965C498.366 170.965 498.899 171.141 499.365 171.442V166.198C499.365 165.761 499.722 165.404 500.159 165.404C500.596 165.404 500.954 165.761 500.954 166.198V180.506C500.954 180.943 500.596 181.3 500.159 181.3C499.864 181.3 499.609 181.141 499.473 180.903ZM497.776 179.842C498.485 179.842 499.024 179.297 499.365 178.684V173.758C498.911 172.929 498.315 172.554 497.776 172.554C496.629 172.554 495.591 174.178 495.591 176.198C495.591 178.213 496.629 179.842 497.776 179.842ZM460.192 203.787C460.192 204.224 459.834 204.582 459.397 204.582C459.267 204.582 459.148 204.548 459.04 204.497C455.981 202.959 453.836 198.997 453.836 194.349C453.836 189.701 455.987 185.739 459.04 184.201C459.148 184.15 459.267 184.116 459.397 184.116C459.834 184.116 460.192 184.474 460.192 184.911C460.192 185.212 460.027 185.484 459.755 185.62C457.252 186.875 455.425 190.314 455.425 194.349C455.425 196.625 456.009 198.708 456.951 200.302C457.462 201.171 458.376 202.385 459.755 203.078C460.016 203.208 460.192 203.475 460.192 203.787ZM466.955 191.965C468.709 191.965 470.133 193.39 470.133 195.144V195.456C470.133 195.893 469.776 196.25 469.339 196.25C468.902 196.25 468.544 195.893 468.544 195.456V195.144C468.544 194.264 467.835 193.554 466.955 193.554C466.081 193.554 465.372 194.264 465.372 195.144C465.372 195.178 465.372 195.206 465.366 195.24V201.5C465.366 201.937 465.009 202.295 464.572 202.295C464.135 202.295 463.777 201.937 463.777 201.5V192.896C463.777 192.459 464.135 192.102 464.572 192.102C464.855 192.102 465.099 192.249 465.241 192.47C465.735 192.153 466.325 191.965 466.955 191.965ZM473.091 188.191C473.091 187.584 473.579 187.096 474.181 187.096C474.555 187.096 474.89 187.289 475.089 187.584C475.168 187.698 475.276 187.907 475.276 188.191C475.276 188.793 474.788 189.287 474.181 189.287C473.579 189.287 473.091 188.799 473.091 188.191ZM474.975 201.5C474.975 201.937 474.618 202.295 474.181 202.295C473.744 202.295 473.386 201.937 473.386 201.5V192.896C473.386 192.459 473.744 192.102 474.181 192.102C474.618 192.102 474.975 192.459 474.975 192.896V201.5ZM484.564 195.592C484.564 197.306 483.327 198.651 481.772 198.651C481.369 198.651 480.989 198.554 480.637 198.396C480.336 198.589 480.132 198.929 480.132 199.309C480.132 199.593 480.245 199.848 480.421 200.041C480.847 199.945 481.301 199.894 481.789 199.894C482.515 199.894 483.457 200.007 484.337 200.376C484.791 200.564 485.188 200.808 485.512 201.12C485.87 201.46 486.165 201.926 486.165 202.499C486.165 203.186 485.711 204.026 484.349 204.451C483.832 204.616 483.247 204.695 482.618 204.695C481.891 204.695 480.949 204.582 480.069 204.213C479.615 204.026 479.218 203.781 478.894 203.469C478.537 203.129 478.242 202.663 478.242 202.09C478.242 201.784 478.333 201.211 478.94 200.711C478.684 200.302 478.543 199.826 478.543 199.309C478.543 198.537 478.872 197.839 479.4 197.351C479.156 197.005 478.787 196.313 478.787 195.371C478.787 193.781 479.859 192.488 481.284 192.329C481.551 191.551 482.294 190.989 483.162 190.989C483.338 190.989 483.509 191.012 483.673 191.057C484.014 191.148 484.263 191.455 484.263 191.823C484.263 192.26 483.906 192.618 483.469 192.618C483.31 192.618 483.265 192.578 483.162 192.578C483.072 192.578 482.981 192.612 482.913 192.663C482.918 192.669 482.93 192.669 482.935 192.675C483.951 193.254 484.564 194.389 484.564 195.592ZM481.789 201.483C481.307 201.483 480.875 201.545 480.535 201.653C480.472 201.676 479.99 201.835 479.848 202.051C479.842 202.062 479.831 202.079 479.831 202.09C479.831 202.09 479.848 202.249 480.188 202.482C480.381 202.618 481.017 202.987 482.135 203.083C482.3 203.1 482.459 203.106 482.618 203.106C483.1 203.106 483.531 203.044 483.872 202.936C483.934 202.913 484.417 202.754 484.558 202.539C484.564 202.527 484.576 202.51 484.576 202.499C484.576 202.499 484.558 202.34 484.218 202.107C484.025 201.971 483.389 201.602 482.271 201.506C482.107 201.489 481.948 201.483 481.789 201.483ZM481.579 193.901C480.869 193.901 480.376 194.593 480.376 195.371C480.376 196.296 481.045 197.062 481.772 197.062C482.481 197.062 482.975 196.369 482.975 195.592C482.975 194.667 482.305 193.901 481.579 193.901ZM489.148 187.198C489.148 186.761 489.506 186.404 489.943 186.404C490.38 186.404 490.737 186.761 490.737 187.198V192.522C491.276 192.17 491.923 191.965 492.621 191.965C494.54 191.965 496.095 193.52 496.095 195.439V201.5C496.095 201.937 495.737 202.295 495.3 202.295C494.863 202.295 494.506 201.937 494.506 201.5V195.439C494.506 194.394 493.666 193.554 492.621 193.554C491.577 193.554 490.743 194.394 490.743 195.439L490.737 201.5C490.737 201.937 490.38 202.295 489.943 202.295C489.506 202.295 489.148 201.937 489.148 201.5V187.198ZM504.641 199.599C504.641 199.162 504.999 198.804 505.436 198.804C505.873 198.804 506.23 199.162 506.23 199.599V199.911C506.23 201.228 505.163 202.295 503.847 202.295C502.53 202.295 501.463 201.228 501.463 199.911V193.696L499.874 193.691C499.437 193.691 499.079 193.333 499.079 192.896C499.079 192.459 499.437 192.102 499.874 192.102H501.463V190.376C501.463 189.939 501.821 189.582 502.258 189.582C502.695 189.582 503.052 189.939 503.052 190.376V192.096L505.436 192.102C505.873 192.102 506.23 192.459 506.23 192.896C506.23 193.333 505.873 193.691 505.436 193.691H503.052V199.911C503.052 200.354 503.404 200.705 503.847 200.705C504.289 200.705 504.641 200.354 504.641 199.911V199.599ZM510.607 204.582C510.17 204.582 509.812 204.224 509.812 203.787C509.812 203.486 509.977 203.214 510.249 203.078C512.752 201.823 514.579 198.384 514.579 194.349C514.579 192.073 513.995 189.99 513.053 188.396C512.542 187.527 511.628 186.313 510.249 185.62C509.988 185.49 509.812 185.223 509.812 184.911C509.812 184.474 510.17 184.116 510.607 184.116C510.737 184.116 510.856 184.145 510.964 184.201C514.023 185.739 516.169 189.701 516.169 194.349C516.169 198.997 514.018 202.959 510.964 204.497C510.856 204.553 510.737 204.582 510.607 204.582Z" fill="black" fill-opacity="0.5"/>
<path d="M193 382H320" stroke="black" stroke-width="1.5" stroke-linecap="round"/>
<path d="M170.282 388.904C170.725 388.904 171.077 389.267 171.077 389.698V404C171.077 404.431 170.725 404.795 170.282 404.795H170.277C169.84 404.795 169.482 404.443 169.482 404V389.698C169.482 389.261 169.84 388.904 170.277 388.904H170.282ZM174.638 395.396C174.638 394.959 174.996 394.602 175.433 394.602C175.756 394.602 176.034 394.795 176.159 395.067C176.715 394.687 177.385 394.465 178.112 394.465C180.03 394.465 181.585 396.02 181.585 397.939V404C181.585 404.437 181.227 404.795 180.79 404.795C180.353 404.795 179.996 404.437 179.996 404V397.939C179.996 396.894 179.156 396.054 178.112 396.054C177.067 396.054 176.233 396.894 176.233 397.939L176.227 404C176.227 404.437 175.87 404.795 175.433 404.795C174.996 404.795 174.638 404.437 174.638 404V395.396ZM185.966 388.904C186.409 388.904 186.76 389.267 186.76 389.698V404C186.76 404.431 186.409 404.795 185.966 404.795H185.96C185.523 404.795 185.166 404.443 185.166 404V389.698C185.166 389.261 185.523 388.904 185.96 388.904H185.966ZM190.027 390.691C190.027 390.084 190.515 389.596 191.116 389.596C191.491 389.596 191.826 389.789 192.025 390.084C192.104 390.198 192.212 390.407 192.212 390.691C192.212 391.293 191.724 391.787 191.116 391.787C190.515 391.787 190.027 391.299 190.027 390.691ZM191.911 404C191.911 404.437 191.553 404.795 191.116 404.795C190.679 404.795 190.322 404.437 190.322 404V395.396C190.322 394.959 190.679 394.602 191.116 394.602C191.553 394.602 191.911 394.959 191.911 395.396V404ZM195.478 395.396C195.478 394.959 195.836 394.602 196.273 394.602C196.596 394.602 196.874 394.795 196.999 395.067C197.555 394.687 198.225 394.465 198.951 394.465C200.87 394.465 202.425 396.02 202.425 397.939V404C202.425 404.437 202.067 404.795 201.63 404.795C201.193 404.795 200.836 404.437 200.836 404V397.939C200.836 396.894 199.996 396.054 198.951 396.054C197.907 396.054 197.073 396.894 197.073 397.939L197.067 404C197.067 404.437 196.71 404.795 196.273 404.795C195.836 404.795 195.478 404.437 195.478 404V395.396ZM207.595 399.823C207.617 401.787 208.662 403.342 209.78 403.342C210.671 403.342 211.448 402.553 211.789 401.327C211.879 400.992 212.192 400.748 212.555 400.748C212.992 400.748 213.349 401.106 213.349 401.543C213.349 401.616 213.338 401.69 213.321 401.758C213.236 402.07 212.81 403.569 211.499 404.414C210.988 404.743 210.398 404.931 209.78 404.931C207.685 404.931 206.005 402.632 206.005 399.755C206.005 399.216 206.057 398.092 206.579 396.923C206.868 396.276 207.265 395.708 207.759 395.271C208.315 394.783 209.008 394.465 209.78 394.465C211.187 394.465 212.453 395.521 213.111 397.383C213.185 397.598 213.349 398.109 213.349 398.62C213.349 398.756 213.344 399.114 213.128 399.42C213.071 399.499 212.992 399.585 212.89 399.658C212.736 399.766 212.544 399.823 212.362 399.823H207.595ZM211.709 398.234C211.55 397.541 210.881 396.054 209.78 396.054C209.456 396.054 209.127 396.179 208.803 396.463C208.435 396.787 208.032 397.365 207.793 398.234H211.709ZM226.693 397.479C226.693 395.833 228.22 394.465 229.934 394.465C230.598 394.465 231.177 394.658 231.648 394.965C232.062 395.237 232.385 395.578 232.63 395.941C232.925 396.372 233.129 396.849 233.225 397.314C233.237 397.365 233.242 397.422 233.242 397.479C233.242 397.916 232.885 398.274 232.448 398.274C232.068 398.274 231.744 398.001 231.67 397.644C231.585 397.252 231.307 396.639 230.785 396.299C230.552 396.145 230.28 396.054 229.934 396.054C229.094 396.054 228.282 396.73 228.282 397.479C228.282 397.638 228.316 397.837 228.486 398.052C228.611 398.211 228.804 398.364 229.048 398.495C229.355 398.659 229.729 398.784 230.093 398.847C230.813 398.972 232.669 399.386 233.333 400.799C233.481 401.111 233.566 401.469 233.566 401.849C233.566 403.398 232.317 404.931 229.934 404.931C229.247 404.931 228.645 404.715 228.157 404.397C227.726 404.114 227.385 403.756 227.119 403.381C226.892 403.064 226.602 402.558 226.472 401.957C226.46 401.906 226.455 401.849 226.455 401.792C226.455 401.355 226.812 400.998 227.249 400.998C227.63 400.998 227.953 401.27 228.027 401.628C228.146 402.178 228.787 403.342 229.934 403.342C230.637 403.342 231.114 403.16 231.421 402.927C231.801 402.644 231.977 402.246 231.977 401.849C231.977 401.656 231.926 401.446 231.721 401.225C231.364 400.844 230.643 400.561 229.82 400.413C228.867 400.243 227.851 399.806 227.244 399.04C227.056 398.801 226.693 398.274 226.693 397.479ZM236.843 390.691C236.843 390.084 237.331 389.596 237.933 389.596C238.307 389.596 238.642 389.789 238.841 390.084C238.92 390.198 239.028 390.407 239.028 390.691C239.028 391.293 238.54 391.787 237.933 391.787C237.331 391.787 236.843 391.299 236.843 390.691ZM238.727 404C238.727 404.437 238.37 404.795 237.933 404.795C237.496 404.795 237.138 404.437 237.138 404V395.396C237.138 394.959 237.496 394.602 237.933 394.602C238.37 394.602 238.727 394.959 238.727 395.396V404ZM249.111 394.602C249.553 394.602 249.905 394.959 249.905 395.396C249.905 395.447 249.9 395.646 249.758 395.85L244.616 403.205H249.287C249.724 403.205 250.081 403.563 250.081 404C250.081 404.437 249.724 404.795 249.287 404.795H243.089C242.646 404.795 242.295 404.437 242.295 404C242.295 403.949 242.295 403.75 242.436 403.546L247.584 396.191H243.271C242.834 396.191 242.476 395.833 242.476 395.396C242.476 394.959 242.834 394.602 243.271 394.602H249.111ZM255.251 399.823C255.274 401.787 256.318 403.342 257.436 403.342C258.327 403.342 259.104 402.553 259.445 401.327C259.536 400.992 259.848 400.748 260.211 400.748C260.648 400.748 261.006 401.106 261.006 401.543C261.006 401.616 260.994 401.69 260.977 401.758C260.892 402.07 260.467 403.569 259.155 404.414C258.645 404.743 258.054 404.931 257.436 404.931C255.342 404.931 253.662 402.632 253.662 399.755C253.662 399.216 253.713 398.092 254.235 396.923C254.524 396.276 254.922 395.708 255.415 395.271C255.972 394.783 256.664 394.465 257.436 394.465C258.843 394.465 260.109 395.521 260.767 397.383C260.841 397.598 261.006 398.109 261.006 398.62C261.006 398.756 261 399.114 260.784 399.42C260.728 399.499 260.648 399.585 260.546 399.658C260.393 399.766 260.2 399.823 260.018 399.823H255.251ZM259.365 398.234C259.207 397.541 258.537 396.054 257.436 396.054C257.112 396.054 256.783 396.179 256.46 396.463C256.091 396.787 255.688 397.365 255.449 398.234H259.365ZM280.467 406.287C280.467 406.724 280.11 407.082 279.673 407.082C279.542 407.082 279.423 407.048 279.315 406.997C276.256 405.459 274.111 401.497 274.111 396.849C274.111 392.201 276.262 388.239 279.315 386.701C279.423 386.65 279.542 386.616 279.673 386.616C280.11 386.616 280.467 386.974 280.467 387.411C280.467 387.712 280.303 387.984 280.03 388.12C277.528 389.375 275.7 392.814 275.7 396.849C275.7 399.125 276.285 401.208 277.227 402.802C277.738 403.671 278.651 404.885 280.03 405.578C280.291 405.708 280.467 405.975 280.467 406.287ZM284.052 395.396C284.052 394.959 284.41 394.602 284.847 394.602C285.216 394.602 285.522 394.851 285.613 395.192L287.242 401.264L288.791 395.493C288.882 395.146 289.2 394.902 289.557 394.902H289.739C290.097 394.902 290.414 395.141 290.505 395.487L292.055 401.264L293.683 395.192C293.774 394.851 294.081 394.602 294.45 394.602C294.887 394.602 295.244 394.959 295.244 395.396C295.244 395.47 295.239 395.532 295.221 395.6L292.912 404.204C292.821 404.551 292.503 404.795 292.145 404.795H291.964C291.606 404.795 291.288 404.551 291.198 404.204L289.648 398.432L288.105 404.204C288.014 404.551 287.69 404.795 287.333 404.795H287.157C286.799 404.795 286.476 404.551 286.385 404.204L284.081 395.6C284.064 395.532 284.052 395.47 284.052 395.396ZM298.523 390.691C298.523 390.084 299.011 389.596 299.613 389.596C299.987 389.596 300.322 389.789 300.521 390.084C300.6 390.198 300.708 390.407 300.708 390.691C300.708 391.293 300.22 391.787 299.613 391.787C299.011 391.787 298.523 391.299 298.523 390.691ZM300.407 404C300.407 404.437 300.05 404.795 299.613 404.795C299.176 404.795 298.818 404.437 298.818 404V395.396C298.818 394.959 299.176 394.602 299.613 394.602C300.05 394.602 300.407 394.959 300.407 395.396V404ZM309.445 404.403C309.19 404.573 308.594 404.931 307.748 404.931C305.643 404.931 303.974 402.61 303.974 399.698C303.974 396.787 305.643 394.465 307.748 394.465C308.339 394.465 308.872 394.641 309.337 394.942V389.698C309.337 389.261 309.695 388.904 310.132 388.904C310.569 388.904 310.927 389.261 310.927 389.698V404.006C310.927 404.443 310.569 404.8 310.132 404.8C309.837 404.8 309.582 404.641 309.445 404.403ZM307.748 403.342C308.458 403.342 308.997 402.797 309.337 402.184V397.258C308.883 396.429 308.288 396.054 307.748 396.054C306.602 396.054 305.563 397.678 305.563 399.698C305.563 401.713 306.602 403.342 307.748 403.342ZM319.468 402.099C319.468 401.662 319.825 401.304 320.262 401.304C320.699 401.304 321.057 401.662 321.057 402.099V402.411C321.057 403.728 319.99 404.795 318.673 404.795C317.356 404.795 316.289 403.728 316.289 402.411V396.196L314.7 396.191C314.263 396.191 313.906 395.833 313.906 395.396C313.906 394.959 314.263 394.602 314.7 394.602H316.289V392.876C316.289 392.439 316.647 392.082 317.084 392.082C317.521 392.082 317.878 392.439 317.878 392.876V394.596L320.262 394.602C320.699 394.602 321.057 394.959 321.057 395.396C321.057 395.833 320.699 396.191 320.262 396.191H317.878V402.411C317.878 402.854 318.23 403.205 318.673 403.205C319.116 403.205 319.468 402.854 319.468 402.411V402.099ZM324.638 389.698C324.638 389.261 324.996 388.904 325.433 388.904C325.87 388.904 326.227 389.261 326.227 389.698V395.022C326.767 394.67 327.414 394.465 328.112 394.465C330.03 394.465 331.585 396.02 331.585 397.939V404C331.585 404.437 331.227 404.795 330.79 404.795C330.353 404.795 329.996 404.437 329.996 404V397.939C329.996 396.894 329.156 396.054 328.112 396.054C327.067 396.054 326.233 396.894 326.233 397.939L326.227 404C326.227 404.437 325.87 404.795 325.433 404.795C324.996 404.795 324.638 404.437 324.638 404V389.698ZM335.96 407.082C335.523 407.082 335.166 406.724 335.166 406.287C335.166 405.986 335.33 405.714 335.603 405.578C338.105 404.323 339.933 400.884 339.933 396.849C339.933 394.573 339.348 392.49 338.406 390.896C337.895 390.027 336.982 388.813 335.603 388.12C335.342 387.99 335.166 387.723 335.166 387.411C335.166 386.974 335.523 386.616 335.96 386.616C336.091 386.616 336.21 386.645 336.318 386.701C339.377 388.239 341.522 392.201 341.522 396.849C341.522 401.497 339.371 405.459 336.318 406.997C336.21 407.053 336.091 407.082 335.96 407.082Z" fill="black"/>
<defs>
<filter id="filter0_d_305_2" x="38" y="0" width="439" height="368" filterUnits="userSpaceOnUse" color-interpolation-filters="sRGB">
<feFlood flood-opacity="0" result="BackgroundImageFix"/>
<feColorMatrix in="SourceAlpha" type="matrix" values="0 0 0 0 0 0 0 0 0 0 0 0 0 0 0 0 0 0 127 0" result="hardAlpha"/>
<feOffset/>
<feGaussianBlur stdDeviation="18"/>
<feComposite in2="hardAlpha" operator="out"/>
<feColorMatrix type="matrix" values="0 0 0 0 0 0 0 0 0 0 0 0 0 0 0 0 0 0 0.1 0"/>
<feBlend mode="normal" in2="BackgroundImageFix" result="effect1_dropShadow_305_2"/>
<feBlend mode="normal" in="SourceGraphic" in2="effect1_dropShadow_305_2" result="shape"/>
</filter>
</defs>
</svg>
