<svg fill="none" height="413" viewBox="0 0 582 413" width="582" xmlns="http://www.w3.org/2000/svg"><path d="m505 212v-64" stroke="#fff" stroke-linecap="square" stroke-width="3"/><path d="m514.518 172.292h3.454v6.028h6.358v-6.028h3.454v15.708h-3.454v-6.776h-6.358v6.776h-3.454zm23.413 8.8c-.147-.792-.411-1.393-.792-1.804-.367-.411-.932-.616-1.694-.616-.499 0-.917.088-1.254.264-.323.161-.587.367-.792.616-.191.249-.33.513-.418.792-.074.279-.118.528-.132.748zm-5.082 1.98c.044 1.012.3 1.745.77 2.2.469.455 1.144.682 2.024.682.63 0 1.173-.154 1.628-.462.454-.323.733-.66.836-1.012h2.75c-.44 1.364-1.115 2.339-2.024 2.926-.91.587-2.01.88-3.3.88-.895 0-1.702-.139-2.42-.418-.719-.293-1.328-.704-1.826-1.232-.499-.528-.888-1.159-1.166-1.892-.264-.733-.396-1.54-.396-2.42 0-.851.139-1.643.418-2.376.278-.733.674-1.364 1.188-1.892.513-.543 1.122-.968 1.826-1.276.718-.308 1.51-.462 2.376-.462.968 0 1.811.191 2.53.572.718.367 1.305.865 1.76 1.496.469.631.806 1.349 1.012 2.156.205.807.278 1.65.22 2.53zm13.05-8.206h-3.124v-2.574h3.124zm-3.124 1.76h3.124v11.374h-3.124zm10.666 8.69c.44 0 .829-.088 1.166-.264.338-.176.616-.411.836-.704s.382-.623.484-.99c.118-.381.176-.777.176-1.188 0-.469-.044-.909-.132-1.32-.088-.425-.234-.799-.44-1.122-.205-.323-.476-.579-.814-.77-.337-.191-.762-.286-1.276-.286-.44 0-.821.088-1.144.264-.308.176-.572.418-.792.726-.205.293-.359.638-.462 1.034-.088.381-.132.785-.132 1.21 0 .411.037.821.11 1.232.088.396.228.755.418 1.078.206.323.47.587.792.792.323.205.726.308 1.21.308zm5.632 1.958c0 .455-.066.975-.198 1.562-.117.587-.381 1.129-.792 1.628-.41.513-1.004.946-1.782 1.298-.777.352-1.818.528-3.124.528-.557 0-1.129-.073-1.716-.22-.572-.132-1.1-.345-1.584-.638-.469-.293-.865-.675-1.188-1.144-.308-.455-.484-1.005-.528-1.65h3.102c.147.587.433.99.858 1.21.426.235.917.352 1.474.352.88 0 1.518-.264 1.914-.792.411-.528.609-1.195.594-2.002v-1.496h-.044c-.337.601-.821 1.049-1.452 1.342-.616.279-1.268.418-1.958.418-.85 0-1.584-.147-2.2-.44-.616-.308-1.122-.719-1.518-1.232-.396-.528-.689-1.137-.88-1.826-.176-.704-.264-1.445-.264-2.222 0-.733.103-1.437.308-2.112.22-.689.536-1.291.946-1.804.411-.528.917-.946 1.518-1.254.616-.308 1.32-.462 2.112-.462.748 0 1.401.139 1.958.418.572.279 1.049.748 1.43 1.408h.044v-1.518h2.97zm2.296-14.982h3.124v5.918h.066c.396-.66.902-1.137 1.518-1.43.616-.308 1.217-.462 1.804-.462.836 0 1.518.117 2.046.352.542.22.968.535 1.276.946.308.396.52.887.638 1.474.132.572.198 1.21.198 1.914v6.996h-3.124v-6.424c0-.939-.147-1.635-.44-2.09-.294-.469-.814-.704-1.562-.704-.851 0-1.467.257-1.848.77-.382.499-.572 1.327-.572 2.486v5.962h-3.124zm16.781 4.334h2.288v2.09h-2.288v5.632c0 .528.088.88.264 1.056s.528.264 1.056.264c.176 0 .344-.007.506-.022.161-.015.315-.037.462-.066v2.42c-.264.044-.558.073-.88.088-.323.015-.638.022-.946.022-.484 0-.946-.037-1.386-.11-.426-.059-.807-.183-1.144-.374-.323-.191-.58-.462-.77-.814-.191-.352-.286-.814-.286-1.386v-6.71h-1.892v-2.09h1.892v-3.41h3.124z" fill="#fff"/><path d="m2.22577 172.292h2.09v13.948h8.31603v1.76h-10.40603zm19.81463 8.932c-.0294-.44-.132-.858-.308-1.254-.1614-.396-.3887-.733-.682-1.012-.2787-.293-.616-.521-1.012-.682-.3814-.176-.8067-.264-1.276-.264-.484 0-.924.088-1.32.264-.3814.161-.7114.389-.99.682-.2787.293-.4987.638-.66 1.034-.1614.381-.2567.792-.286 1.232zm1.804 3.168c-.2494 1.276-.7994 2.237-1.65 2.882-.8507.645-1.9214.968-3.212.968-.9094 0-1.7014-.147-2.376-.44-.66-.293-1.2174-.704-1.672-1.232-.4547-.528-.7994-1.159-1.034-1.892-.22-.733-.3447-1.533-.374-2.398 0-.865.132-1.657.396-2.376s.6306-1.342 1.1-1.87c.484-.528 1.0486-.939 1.694-1.232.66-.293 1.3786-.44 2.156-.44 1.012 0 1.848.213 2.508.638.6746.411 1.21.939 1.606 1.584.4106.645.6893 1.349.836 2.112.1613.763.2273 1.489.198 2.178h-8.514c-.0147.499.044.975.176 1.43.132.44.3446.836.638 1.188.2933.337.6673.609 1.122.814.4546.205.99.308 1.606.308.792 0 1.4373-.183 1.936-.55.5133-.367.8506-.924 1.012-1.672zm2.8844-6.116h-1.914v-1.65h1.914v-1.694c0-.924.264-1.621.792-2.09.5426-.484 1.3273-.726 2.354-.726.176 0 .374.015.594.044.2346.029.44.073.616.132v1.628c-.1614-.059-.3374-.095-.528-.11-.1907-.029-.3667-.044-.528-.044-.4547 0-.8067.088-1.056.264-.2494.176-.374.513-.374 1.012v1.584h2.2v1.65h-2.2v9.724h-1.87zm8.3357-1.65h2.266v1.65h-2.266v7.062c0 .22.0147.396.044.528.044.132.1174.235.22.308.1027.073.242.125.418.154.1907.015.4327.022.726.022h.858v1.65h-1.43c-.484 0-.902-.029-1.254-.088-.3373-.073-.616-.198-.836-.374-.2053-.176-.3593-.425-.462-.748-.1026-.323-.154-.748-.154-1.276v-7.238h-1.936v-1.65h1.936v-3.41h1.87z" fill="#fff" fill-opacity=".333333"/><path d="m220.851 2.052h-5.236v-1.760001h12.562v1.760001h-5.236v13.948h-2.09zm7.676 8.272c0 .6893.088 1.3053.264 1.848.191.528.447.9753.77 1.342.323.352.697.6233 1.122.814.44.1907.902.286 1.386.286s.939-.0953 1.364-.286c.44-.1907.821-.462 1.144-.814.323-.3667.572-.814.748-1.342.191-.5427.286-1.1587.286-1.848 0-.68933-.095-1.298-.286-1.826-.176-.54267-.425-.99733-.748-1.364s-.704-.64533-1.144-.836c-.425-.19067-.88-.286-1.364-.286s-.946.09533-1.386.286c-.425.19067-.799.46933-1.122.836s-.579.82133-.77 1.364c-.176.528-.264 1.13667-.264 1.826zm-1.98 0c0-.836.117-1.61333.352-2.332.235-.73333.587-1.364 1.056-1.892.469-.54267 1.049-.968 1.738-1.276s1.481-.462 2.376-.462c.909 0 1.701.154 2.376.462.689.308 1.269.73333 1.738 1.276.469.528.821 1.15867 1.056 1.892.235.71867.352 1.496.352 2.332s-.117 1.6133-.352 2.332-.587 1.3493-1.056 1.892c-.469.528-1.049.946-1.738 1.254-.675.2933-1.467.44-2.376.44-.895 0-1.687-.1467-2.376-.44-.689-.308-1.269-.726-1.738-1.254-.469-.5427-.821-1.1733-1.056-1.892s-.352-1.496-.352-2.332zm13.315-5.698h1.87v1.54h.044c.308-.63067.792-1.08533 1.452-1.364.66-.29333 1.386-.44 2.178-.44.88 0 1.642.16133 2.288.484.66.32267 1.202.76267 1.628 1.32.44.54267.77 1.17333.99 1.892s.33 1.48133.33 2.288c0 .8067-.11 1.5693-.33 2.288-.206.7187-.528 1.3493-.968 1.892-.426.528-.968.946-1.628 1.254-.646.308-1.401.462-2.266.462-.279 0-.594-.0293-.946-.088-.338-.0587-.675-.154-1.012-.286-.338-.132-.66-.308-.968-.528-.294-.2347-.543-.5207-.748-.858h-.044v5.852h-1.87zm8.8 5.588c0-.528-.074-1.04133-.22-1.54-.132-.51333-.345-.968-.638-1.364-.279-.396-.646-.71133-1.1-.946-.44-.23467-.961-.352-1.562-.352-.631 0-1.166.12467-1.606.374s-.8.57933-1.078.99c-.279.396-.484.85067-.616 1.364-.118.51333-.176 1.034-.176 1.562 0 .5573.066 1.1.198 1.628.132.5133.337.968.616 1.364.293.396.667.7187 1.122.968.454.2347 1.004.352 1.65.352.645 0 1.18-.1247 1.606-.374.44-.2493.792-.5793 1.056-.99s.454-.88.572-1.408c.117-.528.176-1.0707.176-1.628z" fill="#fff" fill-opacity=".333333"/><path d="m50 28h367v304h-367z" fill="#f6b26b" fill-opacity=".66"/><path d="m88 68h291v224h-291z" fill="#ffe599" fill-opacity=".66"/><path d="m128 108h211v144h-211z" fill="#93c47d" fill-opacity=".55"/><path d="m168 148h131v64h-131z" fill="#6fa8dc" fill-opacity=".66"/><path d="m168 148h131v64h-131z" stroke="#fff" stroke-width="3"/><g fill="#fff"><path d="m204.18 177.572c-.058-.396-.19-.755-.396-1.078-.205-.337-.462-.631-.77-.88s-.66-.44-1.056-.572c-.381-.147-.784-.22-1.21-.22-.777 0-1.437.154-1.98.462-.542.293-.982.697-1.32 1.21-.337.499-.586 1.071-.748 1.716-.146.645-.22 1.313-.22 2.002 0 .66.074 1.305.22 1.936.162.616.411 1.173.748 1.672.338.499.778.902 1.32 1.21.543.293 1.203.44 1.98.44 1.056 0 1.878-.323 2.464-.968.602-.645.968-1.496 1.1-2.552h3.344c-.088.983-.315 1.87-.682 2.662-.366.792-.85 1.467-1.452 2.024-.601.557-1.305.983-2.112 1.276-.806.293-1.694.44-2.662.44-1.202 0-2.288-.205-3.256-.616-.953-.425-1.76-1.005-2.42-1.738s-1.166-1.591-1.518-2.574c-.352-.997-.528-2.068-.528-3.212 0-1.173.176-2.259.528-3.256.352-1.012.858-1.892 1.518-2.64s1.467-1.335 2.42-1.76c.968-.425 2.054-.638 3.256-.638.866 0 1.68.125 2.442.374.778.249 1.467.616 2.068 1.1.616.469 1.122 1.056 1.518 1.76s.646 1.511.748 2.42zm8.057 4.752c0 .455.044.902.132 1.342.088.425.235.814.44 1.166.22.337.506.609.858.814s.792.308 1.32.308.968-.103 1.32-.308c.367-.205.653-.477.858-.814.22-.352.374-.741.462-1.166.088-.44.132-.887.132-1.342s-.044-.902-.132-1.342-.242-.829-.462-1.166c-.205-.337-.491-.609-.858-.814-.352-.22-.792-.33-1.32-.33s-.968.11-1.32.33c-.352.205-.638.477-.858.814-.205.337-.352.726-.44 1.166s-.132.887-.132 1.342zm-3.124 0c0-.909.139-1.731.418-2.464.279-.748.675-1.379 1.188-1.892.513-.528 1.129-.931 1.848-1.21.719-.293 1.525-.44 2.42-.44s1.701.147 2.42.44c.733.279 1.357.682 1.87 1.21.513.513.909 1.144 1.188 1.892.279.733.418 1.555.418 2.464s-.139 1.731-.418 2.464-.675 1.364-1.188 1.892c-.513.513-1.137.909-1.87 1.188-.719.279-1.525.418-2.42.418s-1.701-.139-2.42-.418-1.335-.675-1.848-1.188c-.513-.528-.909-1.159-1.188-1.892s-.418-1.555-.418-2.464zm13.581-5.698h2.97v1.584h.066c.396-.66.909-1.137 1.54-1.43.631-.308 1.276-.462 1.936-.462.836 0 1.518.117 2.046.352.543.22.968.535 1.276.946.308.396.521.887.638 1.474.132.572.198 1.21.198 1.914v6.996h-3.124v-6.424c0-.939-.147-1.635-.44-2.09-.293-.469-.814-.704-1.562-.704-.851 0-1.467.257-1.848.77-.381.499-.572 1.327-.572 2.486v5.962h-3.124zm16.781 0h2.288v2.09h-2.288v5.632c0 .528.088.88.264 1.056s.528.264 1.056.264c.176 0 .345-.007.506-.022s.315-.037.462-.066v2.42c-.264.044-.557.073-.88.088s-.638.022-.946.022c-.484 0-.946-.037-1.386-.11-.425-.059-.807-.183-1.144-.374-.323-.191-.579-.462-.77-.814s-.286-.814-.286-1.386v-6.71h-1.892v-2.09h1.892v-3.41h3.124zm11.211 4.466c-.147-.792-.411-1.393-.792-1.804-.367-.411-.932-.616-1.694-.616-.499 0-.917.088-1.254.264-.323.161-.587.367-.792.616-.191.249-.33.513-.418.792-.074.279-.118.528-.132.748zm-5.082 1.98c.044 1.012.3 1.745.77 2.2.469.455 1.144.682 2.024.682.63 0 1.173-.154 1.628-.462.454-.323.733-.66.836-1.012h2.75c-.44 1.364-1.115 2.339-2.024 2.926-.91.587-2.01.88-3.3.88-.895 0-1.702-.139-2.42-.418-.719-.293-1.328-.704-1.826-1.232-.499-.528-.888-1.159-1.166-1.892-.264-.733-.396-1.54-.396-2.42 0-.851.139-1.643.418-2.376.278-.733.674-1.364 1.188-1.892.513-.543 1.122-.968 1.826-1.276.718-.308 1.51-.462 2.376-.462.968 0 1.811.191 2.53.572.718.367 1.305.865 1.76 1.496.469.631.806 1.349 1.012 2.156.205.807.278 1.65.22 2.53zm9.838-6.446h2.97v1.584h.066c.396-.66.91-1.137 1.54-1.43.631-.308 1.276-.462 1.936-.462.836 0 1.518.117 2.046.352.543.22.968.535 1.276.946.308.396.521.887.638 1.474.132.572.198 1.21.198 1.914v6.996h-3.124v-6.424c0-.939-.146-1.635-.44-2.09-.293-.469-.814-.704-1.562-.704-.85 0-1.466.257-1.848.77-.381.499-.572 1.327-.572 2.486v5.962h-3.124zm16.781 0h2.288v2.09h-2.288v5.632c0 .528.088.88.264 1.056s.528.264 1.056.264c.176 0 .345-.007.506-.022.162-.015.316-.037.462-.066v2.42c-.264.044-.557.073-.88.088-.322.015-.638.022-.946.022-.484 0-.946-.037-1.386-.11-.425-.059-.806-.183-1.144-.374-.322-.191-.579-.462-.77-.814-.19-.352-.286-.814-.286-1.386v-6.71h-1.892v-2.09h1.892v-3.41h3.124z"/><path d="m195.948 231.684h2.684c.396 0 .778-.029 1.144-.088.367-.059.69-.169.968-.33.279-.176.499-.418.66-.726.176-.308.264-.711.264-1.21s-.088-.902-.264-1.21c-.161-.308-.381-.543-.66-.704-.278-.176-.601-.293-.968-.352-.366-.059-.748-.088-1.144-.088h-2.684zm-3.454-7.392h7.084c.983 0 1.819.147 2.508.44.69.279 1.247.653 1.672 1.122.44.469.756 1.005.946 1.606.206.601.308 1.225.308 1.87 0 .631-.102 1.254-.308 1.87-.19.601-.506 1.137-.946 1.606-.425.469-.982.851-1.672 1.144-.689.279-1.525.418-2.508.418h-3.63v5.632h-3.454zm13.992 7.832c.044-.733.228-1.342.55-1.826.323-.484.734-.873 1.232-1.166.499-.293 1.056-.499 1.672-.616.631-.132 1.262-.198 1.892-.198.572 0 1.152.044 1.738.132.587.073 1.122.227 1.606.462s.88.565 1.188.99c.308.411.462.961.462 1.65v5.918c0 .513.03 1.005.088 1.474.059.469.162.821.308 1.056h-3.168c-.058-.176-.11-.352-.154-.528-.029-.191-.051-.381-.066-.572-.498.513-1.085.873-1.76 1.078-.674.205-1.364.308-2.068.308-.542 0-1.048-.066-1.518-.198-.469-.132-.88-.337-1.232-.616s-.63-.631-.836-1.056c-.19-.425-.286-.931-.286-1.518 0-.645.11-1.173.33-1.584.235-.425.528-.763.88-1.012.367-.249.778-.433 1.232-.55.47-.132.939-.235 1.408-.308.47-.073.932-.132 1.386-.176.455-.044.858-.11 1.21-.198s.631-.213.836-.374c.206-.176.301-.425.286-.748 0-.337-.058-.601-.176-.792-.102-.205-.249-.359-.44-.462-.176-.117-.388-.191-.638-.22-.234-.044-.491-.066-.77-.066-.616 0-1.1.132-1.452.396s-.557.704-.616 1.32zm7.216 2.31c-.132.117-.3.213-.506.286-.19.059-.403.11-.638.154-.22.044-.454.081-.704.11-.249.029-.498.066-.748.11-.234.044-.469.103-.704.176-.22.073-.418.176-.594.308-.161.117-.293.271-.396.462-.102.191-.154.433-.154.726 0 .279.052.513.154.704.103.191.242.345.418.462.176.103.382.176.616.22.235.044.477.066.726.066.616 0 1.093-.103 1.43-.308.338-.205.587-.447.748-.726.162-.293.257-.587.286-.88.044-.293.066-.528.066-.704zm13.403-.154c0-.469-.044-.917-.132-1.342-.088-.44-.242-.821-.462-1.144-.205-.337-.477-.609-.814-.814s-.763-.308-1.276-.308-.946.103-1.298.308-.638.477-.858.814c-.205.337-.359.726-.462 1.166-.088.425-.132.873-.132 1.342 0 .44.051.88.154 1.32s.264.836.484 1.188c.235.337.521.616.858.836.352.205.77.308 1.254.308.513 0 .939-.103 1.276-.308.352-.205.631-.477.836-.814.205-.352.352-.748.44-1.188s.132-.895.132-1.364zm.044 4.268h-.044c-.367.616-.851 1.063-1.452 1.342-.587.264-1.254.396-2.002.396-.851 0-1.599-.161-2.244-.484-.645-.337-1.181-.785-1.606-1.342-.411-.572-.726-1.225-.946-1.958-.205-.733-.308-1.496-.308-2.288 0-.763.103-1.496.308-2.2.22-.719.535-1.349.946-1.892.425-.543.953-.975 1.584-1.298.631-.337 1.364-.506 2.2-.506.675 0 1.313.147 1.914.44.616.279 1.1.697 1.452 1.254h.044v-5.72h3.124v15.708h-2.97zm13.185-4.268c0-.469-.044-.917-.132-1.342-.088-.44-.242-.821-.462-1.144-.205-.337-.476-.609-.814-.814-.337-.205-.762-.308-1.276-.308-.513 0-.946.103-1.298.308s-.638.477-.858.814c-.205.337-.359.726-.462 1.166-.088.425-.132.873-.132 1.342 0 .44.052.88.154 1.32.103.44.264.836.484 1.188.235.337.521.616.858.836.352.205.77.308 1.254.308.514 0 .939-.103 1.276-.308.352-.205.631-.477.836-.814.206-.352.352-.748.44-1.188s.132-.895.132-1.364zm.044 4.268h-.044c-.366.616-.85 1.063-1.452 1.342-.586.264-1.254.396-2.002.396-.85 0-1.598-.161-2.244-.484-.645-.337-1.18-.785-1.606-1.342-.41-.572-.726-1.225-.946-1.958-.205-.733-.308-1.496-.308-2.288 0-.763.103-1.496.308-2.2.22-.719.536-1.349.946-1.892.426-.543.954-.975 1.584-1.298.631-.337 1.364-.506 2.2-.506.675 0 1.313.147 1.914.44.616.279 1.1.697 1.452 1.254h.044v-5.72h3.124v15.708h-2.97zm8.323-11.682h-3.124v-2.574h3.124zm-3.124 1.76h3.124v11.374h-3.124zm5.364 0h2.97v1.584h.066c.396-.66.91-1.137 1.54-1.43.631-.308 1.276-.462 1.936-.462.836 0 1.518.117 2.046.352.543.22.968.535 1.276.946.308.396.521.887.638 1.474.132.572.198 1.21.198 1.914v6.996h-3.124v-6.424c0-.939-.146-1.635-.44-2.09-.293-.469-.814-.704-1.562-.704-.85 0-1.466.257-1.848.77-.381.499-.572 1.327-.572 2.486v5.962h-3.124zm18.123 8.69c.44 0 .829-.088 1.166-.264.338-.176.616-.411.836-.704s.382-.623.484-.99c.118-.381.176-.777.176-1.188 0-.469-.044-.909-.132-1.32-.088-.425-.234-.799-.44-1.122-.205-.323-.476-.579-.814-.77-.337-.191-.762-.286-1.276-.286-.44 0-.821.088-1.144.264-.308.176-.572.418-.792.726-.205.293-.359.638-.462 1.034-.088.381-.132.785-.132 1.21 0 .411.037.821.11 1.232.088.396.228.755.418 1.078.206.323.47.587.792.792.323.205.726.308 1.21.308zm5.632 1.958c0 .455-.066.975-.198 1.562-.117.587-.381 1.129-.792 1.628-.41.513-1.004.946-1.782 1.298-.777.352-1.818.528-3.124.528-.557 0-1.129-.073-1.716-.22-.572-.132-1.1-.345-1.584-.638-.469-.293-.865-.675-1.188-1.144-.308-.455-.484-1.005-.528-1.65h3.102c.147.587.433.99.858 1.21.426.235.917.352 1.474.352.88 0 1.518-.264 1.914-.792.411-.528.609-1.195.594-2.002v-1.496h-.044c-.337.601-.821 1.049-1.452 1.342-.616.279-1.268.418-1.958.418-.85 0-1.584-.147-2.2-.44-.616-.308-1.122-.719-1.518-1.232-.396-.528-.689-1.137-.88-1.826-.176-.704-.264-1.445-.264-2.222 0-.733.103-1.437.308-2.112.22-.689.536-1.291.946-1.804.411-.528.917-.946 1.518-1.254.616-.308 1.32-.462 2.112-.462.748 0 1.401.139 1.958.418.572.279 1.049.748 1.43 1.408h.044v-1.518h2.97z"/><path d="m203.154 270.65h3.498c.616 0 1.122-.147 1.518-.44s.594-.77.594-1.43c0-.367-.066-.667-.198-.902s-.308-.418-.528-.55-.477-.22-.77-.264c-.279-.059-.572-.088-.88-.088h-3.234zm-3.454-6.358h7.392c.748 0 1.43.066 2.046.198s1.144.352 1.584.66c.44.293.777.689 1.012 1.188.249.499.374 1.115.374 1.848 0 .792-.183 1.452-.55 1.98-.352.528-.88.961-1.584 1.298.968.279 1.687.77 2.156 1.474.484.689.726 1.525.726 2.508 0 .792-.154 1.481-.462 2.068-.308.572-.726 1.041-1.254 1.408-.513.367-1.107.638-1.782.814-.66.176-1.342.264-2.046.264h-7.612zm3.454 13.024h3.696c.337 0 .66-.029.968-.088.308-.073.579-.183.814-.33.235-.161.418-.374.55-.638.147-.264.22-.601.22-1.012 0-.807-.227-1.379-.682-1.716-.455-.352-1.056-.528-1.804-.528h-3.762zm14.258-2.992c0 .455.044.902.132 1.342.088.425.235.814.44 1.166.22.337.506.609.858.814s.792.308 1.32.308.968-.103 1.32-.308c.367-.205.653-.477.858-.814.22-.352.374-.741.462-1.166.088-.44.132-.887.132-1.342s-.044-.902-.132-1.342-.242-.829-.462-1.166c-.205-.337-.491-.609-.858-.814-.352-.22-.792-.33-1.32-.33s-.968.11-1.32.33c-.352.205-.638.477-.858.814-.205.337-.352.726-.44 1.166s-.132.887-.132 1.342zm-3.124 0c0-.909.139-1.731.418-2.464.279-.748.675-1.379 1.188-1.892.513-.528 1.129-.931 1.848-1.21.719-.293 1.525-.44 2.42-.44s1.701.147 2.42.44c.733.279 1.357.682 1.87 1.21.513.513.909 1.144 1.188 1.892.279.733.418 1.555.418 2.464s-.139 1.731-.418 2.464-.675 1.364-1.188 1.892c-.513.513-1.137.909-1.87 1.188-.719.279-1.525.418-2.42.418s-1.701-.139-2.42-.418-1.335-.675-1.848-1.188c-.513-.528-.909-1.159-1.188-1.892s-.418-1.555-.418-2.464zm13.581-5.698h2.97v2.112h.044c.147-.352.345-.675.594-.968.25-.308.536-.565.858-.77.323-.22.668-.389 1.034-.506.367-.117.748-.176 1.144-.176.206 0 .433.037.682.11v2.904c-.146-.029-.322-.051-.528-.066-.205-.029-.403-.044-.594-.044-.572 0-1.056.095-1.452.286s-.718.455-.968.792c-.234.323-.403.704-.506 1.144-.102.44-.154.917-.154 1.43v5.126h-3.124zm16.018 5.654c0-.469-.044-.917-.132-1.342-.088-.44-.242-.821-.462-1.144-.205-.337-.476-.609-.814-.814-.337-.205-.762-.308-1.276-.308-.513 0-.946.103-1.298.308s-.638.477-.858.814c-.205.337-.359.726-.462 1.166-.088.425-.132.873-.132 1.342 0 .44.052.88.154 1.32.103.44.264.836.484 1.188.235.337.521.616.858.836.352.205.77.308 1.254.308.514 0 .939-.103 1.276-.308.352-.205.631-.477.836-.814.206-.352.352-.748.44-1.188s.132-.895.132-1.364zm.044 4.268h-.044c-.366.616-.85 1.063-1.452 1.342-.586.264-1.254.396-2.002.396-.85 0-1.598-.161-2.244-.484-.645-.337-1.18-.785-1.606-1.342-.41-.572-.726-1.225-.946-1.958-.205-.733-.308-1.496-.308-2.288 0-.763.103-1.496.308-2.2.22-.719.536-1.349.946-1.892.426-.543.954-.975 1.584-1.298.631-.337 1.364-.506 2.2-.506.675 0 1.313.147 1.914.44.616.279 1.1.697 1.452 1.254h.044v-5.72h3.124v15.708h-2.97zm12.768-5.456c-.147-.792-.411-1.393-.792-1.804-.367-.411-.932-.616-1.694-.616-.499 0-.917.088-1.254.264-.323.161-.587.367-.792.616-.191.249-.33.513-.418.792-.074.279-.118.528-.132.748zm-5.082 1.98c.044 1.012.3 1.745.77 2.2.469.455 1.144.682 2.024.682.63 0 1.173-.154 1.628-.462.454-.323.733-.66.836-1.012h2.75c-.44 1.364-1.115 2.339-2.024 2.926-.91.587-2.01.88-3.3.88-.895 0-1.702-.139-2.42-.418-.719-.293-1.328-.704-1.826-1.232-.499-.528-.888-1.159-1.166-1.892-.264-.733-.396-1.54-.396-2.42 0-.851.139-1.643.418-2.376.278-.733.674-1.364 1.188-1.892.513-.543 1.122-.968 1.826-1.276.718-.308 1.51-.462 2.376-.462.968 0 1.811.191 2.53.572.718.367 1.305.865 1.76 1.496.469.631.806 1.349 1.012 2.156.205.807.278 1.65.22 2.53zm9.838-6.446h2.97v2.112h.044c.147-.352.345-.675.594-.968.25-.308.536-.565.858-.77.323-.22.668-.389 1.034-.506.367-.117.748-.176 1.144-.176.206 0 .433.037.682.11v2.904c-.146-.029-.322-.051-.528-.066-.205-.029-.403-.044-.594-.044-.572 0-1.056.095-1.452.286s-.718.455-.968.792c-.234.323-.403.704-.506 1.144-.102.44-.154.917-.154 1.43v5.126h-3.124z"/><path d="m199.227 304.292h4.862l3.674 10.802h.044l3.476-10.802h4.862v15.708h-3.234v-11.132h-.044l-3.85 11.132h-2.662l-3.85-11.022h-.044v11.022h-3.234zm19.277 7.832c.044-.733.227-1.342.55-1.826s.733-.873 1.232-1.166 1.056-.499 1.672-.616c.631-.132 1.261-.198 1.892-.198.572 0 1.151.044 1.738.132.587.073 1.122.227 1.606.462s.88.565 1.188.99c.308.411.462.961.462 1.65v5.918c0 .513.029 1.005.088 1.474s.161.821.308 1.056h-3.168c-.059-.176-.11-.352-.154-.528-.029-.191-.051-.381-.066-.572-.499.513-1.085.873-1.76 1.078s-1.364.308-2.068.308c-.543 0-1.049-.066-1.518-.198s-.88-.337-1.232-.616-.631-.631-.836-1.056c-.191-.425-.286-.931-.286-1.518 0-.645.11-1.173.33-1.584.235-.425.528-.763.88-1.012.367-.249.777-.433 1.232-.55.469-.132.939-.235 1.408-.308s.931-.132 1.386-.176.858-.11 1.21-.198.631-.213.836-.374c.205-.176.301-.425.286-.748 0-.337-.059-.601-.176-.792-.103-.205-.249-.359-.44-.462-.176-.117-.389-.191-.638-.22-.235-.044-.491-.066-.77-.066-.616 0-1.1.132-1.452.396s-.557.704-.616 1.32zm7.216 2.31c-.132.117-.301.213-.506.286-.191.059-.403.11-.638.154-.22.044-.455.081-.704.11s-.499.066-.748.11c-.235.044-.469.103-.704.176-.22.073-.418.176-.594.308-.161.117-.293.271-.396.462s-.154.433-.154.726c0 .279.051.513.154.704s.242.345.418.462c.176.103.381.176.616.22s.477.066.726.066c.616 0 1.093-.103 1.43-.308s.587-.447.748-.726c.161-.293.257-.587.286-.88.044-.293.066-.528.066-.704zm5.329-5.808h2.97v2.112h.044c.147-.352.345-.675.594-.968.249-.308.535-.565.858-.77.323-.22.667-.389 1.034-.506s.748-.176 1.144-.176c.205 0 .433.037.682.11v2.904c-.147-.029-.323-.051-.528-.066-.205-.029-.403-.044-.594-.044-.572 0-1.056.095-1.452.286s-.719.455-.968.792c-.235.323-.403.704-.506 1.144s-.154.917-.154 1.43v5.126h-3.124zm13.01 8.69c.44 0 .828-.088 1.166-.264.337-.176.616-.411.836-.704s.381-.623.484-.99c.117-.381.176-.777.176-1.188 0-.469-.044-.909-.132-1.32-.088-.425-.235-.799-.44-1.122-.206-.323-.477-.579-.814-.77-.338-.191-.763-.286-1.276-.286-.44 0-.822.088-1.144.264-.308.176-.572.418-.792.726-.206.293-.36.638-.462 1.034-.088.381-.132.785-.132 1.21 0 .411.036.821.11 1.232.088.396.227.755.418 1.078.205.323.469.587.792.792.322.205.726.308 1.21.308zm5.632 1.958c0 .455-.066.975-.198 1.562-.118.587-.382 1.129-.792 1.628-.411.513-1.005.946-1.782 1.298-.778.352-1.819.528-3.124.528-.558 0-1.13-.073-1.716-.22-.572-.132-1.1-.345-1.584-.638-.47-.293-.866-.675-1.188-1.144-.308-.455-.484-1.005-.528-1.65h3.102c.146.587.432.99.858 1.21.425.235.916.352 1.474.352.88 0 1.518-.264 1.914-.792.41-.528.608-1.195.594-2.002v-1.496h-.044c-.338.601-.822 1.049-1.452 1.342-.616.279-1.269.418-1.958.418-.851 0-1.584-.147-2.2-.44-.616-.308-1.122-.719-1.518-1.232-.396-.528-.69-1.137-.88-1.826-.176-.704-.264-1.445-.264-2.222 0-.733.102-1.437.308-2.112.22-.689.535-1.291.946-1.804.41-.528.916-.946 1.518-1.254.616-.308 1.32-.462 2.112-.462.748 0 1.4.139 1.958.418.572.279 1.048.748 1.43 1.408h.044v-1.518h2.97zm5.507-12.408h-3.124v-2.574h3.124zm-3.124 1.76h3.124v11.374h-3.124zm5.364 0h2.97v1.584h.066c.396-.66.909-1.137 1.54-1.43.63-.308 1.276-.462 1.936-.462.836 0 1.518.117 2.046.352.542.22.968.535 1.276.946.308.396.52.887.638 1.474.132.572.198 1.21.198 1.914v6.996h-3.124v-6.424c0-.939-.147-1.635-.44-2.09-.294-.469-.814-.704-1.562-.704-.851 0-1.467.257-1.848.77-.382.499-.572 1.327-.572 2.486v5.962h-3.124z"/><path d="m200.826 351.046h4.18c1.188 0 2.038-.205 2.552-.616.528-.425.792-1.056.792-1.892 0-.557-.088-.997-.264-1.32s-.418-.572-.726-.748-.668-.286-1.078-.33c-.396-.059-.822-.088-1.276-.088h-4.18zm-2.09-6.754h5.698c.337 0 .696.007 1.078.022.396 0 .784.022 1.166.066.381.029.733.081 1.056.154.337.073.623.183.858.33.513.308.946.733 1.298 1.276.366.543.55 1.21.55 2.002 0 .836-.206 1.562-.616 2.178-.396.601-.968 1.049-1.716 1.342v.044c.968.205 1.708.645 2.222 1.32.513.675.77 1.496.77 2.464 0 .572-.103 1.129-.308 1.672-.206.543-.514 1.027-.924 1.452-.396.411-.895.748-1.496 1.012-.587.249-1.269.374-2.046.374h-7.59zm2.09 13.948h5.236c.924 0 1.642-.249 2.156-.748.528-.499.792-1.188.792-2.068 0-.513-.096-.939-.286-1.276-.191-.337-.448-.601-.77-.792-.308-.205-.668-.345-1.078-.418-.411-.088-.836-.132-1.276-.132h-4.774zm14.026-3.916c0 .689.088 1.305.264 1.848.191.528.447.975.77 1.342.323.352.697.623 1.122.814.44.191.902.286 1.386.286s.939-.095 1.364-.286c.44-.191.821-.462 1.144-.814.323-.367.572-.814.748-1.342.191-.543.286-1.159.286-1.848s-.095-1.298-.286-1.826c-.176-.543-.425-.997-.748-1.364s-.704-.645-1.144-.836c-.425-.191-.88-.286-1.364-.286s-.946.095-1.386.286c-.425.191-.799.469-1.122.836s-.579.821-.77 1.364c-.176.528-.264 1.137-.264 1.826zm-1.98 0c0-.836.117-1.613.352-2.332.235-.733.587-1.364 1.056-1.892.469-.543 1.049-.968 1.738-1.276s1.481-.462 2.376-.462c.909 0 1.701.154 2.376.462.689.308 1.269.733 1.738 1.276.469.528.821 1.159 1.056 1.892.235.719.352 1.496.352 2.332s-.117 1.613-.352 2.332-.587 1.349-1.056 1.892c-.469.528-1.049.946-1.738 1.254-.675.293-1.467.44-2.376.44-.895 0-1.687-.147-2.376-.44-.689-.308-1.269-.726-1.738-1.254-.469-.543-.821-1.173-1.056-1.892s-.352-1.496-.352-2.332zm15.845-5.698h2.266v1.65h-2.266v7.062c0 .22.015.396.044.528.044.132.117.235.22.308s.242.125.418.154c.191.015.433.022.726.022h.858v1.65h-1.43c-.484 0-.902-.029-1.254-.088-.337-.073-.616-.198-.836-.374-.205-.176-.359-.425-.462-.748s-.154-.748-.154-1.276v-7.238h-1.936v-1.65h1.936v-3.41h1.87zm6.939 0h2.266v1.65h-2.266v7.062c0 .22.015.396.044.528.044.132.118.235.22.308.103.073.242.125.418.154.191.015.433.022.726.022h.858v1.65h-1.43c-.484 0-.902-.029-1.254-.088-.337-.073-.616-.198-.836-.374-.205-.176-.359-.425-.462-.748-.102-.323-.154-.748-.154-1.276v-7.238h-1.936v-1.65h1.936v-3.41h1.87zm5.708 5.698c0 .689.088 1.305.264 1.848.19.528.447.975.77 1.342.322.352.696.623 1.122.814.44.191.902.286 1.386.286s.938-.095 1.364-.286c.44-.191.821-.462 1.144-.814.322-.367.572-.814.748-1.342.19-.543.286-1.159.286-1.848s-.096-1.298-.286-1.826c-.176-.543-.426-.997-.748-1.364-.323-.367-.704-.645-1.144-.836-.426-.191-.88-.286-1.364-.286s-.946.095-1.386.286c-.426.191-.8.469-1.122.836-.323.367-.58.821-.77 1.364-.176.528-.264 1.137-.264 1.826zm-1.98 0c0-.836.117-1.613.352-2.332.234-.733.586-1.364 1.056-1.892.469-.543 1.048-.968 1.738-1.276.689-.308 1.481-.462 2.376-.462.909 0 1.701.154 2.376.462.689.308 1.268.733 1.738 1.276.469.528.821 1.159 1.056 1.892.234.719.352 1.496.352 2.332s-.118 1.613-.352 2.332c-.235.719-.587 1.349-1.056 1.892-.47.528-1.049.946-1.738 1.254-.675.293-1.467.44-2.376.44-.895 0-1.687-.147-2.376-.44-.69-.308-1.269-.726-1.738-1.254-.47-.543-.822-1.173-1.056-1.892-.235-.719-.352-1.496-.352-2.332zm13.249-5.698h1.76v1.672h.044c.85-1.291 2.075-1.936 3.674-1.936.704 0 1.342.147 1.914.44s.975.792 1.21 1.496c.381-.616.88-1.093 1.496-1.43.63-.337 1.32-.506 2.068-.506.572 0 1.085.066 1.54.198.469.117.865.308 1.188.572.337.264.594.609.77 1.034.19.411.286.909.286 1.496v8.338h-1.87v-7.458c0-.352-.03-.682-.088-.99-.059-.308-.169-.572-.33-.792-.162-.235-.389-.418-.682-.55-.279-.132-.646-.198-1.1-.198-.924 0-1.65.264-2.178.792s-.792 1.232-.792 2.112v7.084h-1.87v-7.458c0-.367-.037-.704-.11-1.012-.059-.308-.169-.572-.33-.792-.162-.235-.382-.411-.66-.528-.264-.132-.609-.198-1.034-.198-.543 0-1.012.11-1.408.33-.382.22-.697.484-.946.792-.235.308-.411.631-.528.968-.103.323-.154.594-.154.814v7.084h-1.87z" fill-opacity=".333333"/><path d="m430.716 172.292h7.392c1.496 0 2.662.367 3.498 1.1.851.733 1.276 1.738 1.276 3.014 0 .953-.22 1.789-.66 2.508-.425.719-1.115 1.21-2.068 1.474v.044c.455.088.821.235 1.1.44.293.205.521.455.682.748.176.279.301.594.374.946.088.352.154.719.198 1.1.029.381.051.77.066 1.166s.051.785.11 1.166.139.748.242 1.1c.117.337.286.638.506.902h-2.332c-.147-.161-.249-.381-.308-.66-.044-.279-.073-.587-.088-.924-.015-.352-.029-.726-.044-1.122s-.059-.785-.132-1.166c-.059-.381-.132-.741-.22-1.078-.088-.352-.227-.653-.418-.902-.191-.264-.44-.469-.748-.616-.308-.161-.719-.242-1.232-.242h-5.104v6.71h-2.09zm6.446 7.238c.484 0 .946-.037 1.386-.11s.821-.213 1.144-.418c.337-.22.601-.506.792-.858.205-.367.308-.836.308-1.408 0-.792-.22-1.437-.66-1.936s-1.151-.748-2.134-.748h-5.192v5.478zm10.287-4.95h-1.87v-2.288h1.87zm-1.87 2.046h1.87v11.374h-1.87zm14.579 10.406c0 1.863-.426 3.256-1.276 4.18-.851.924-2.186 1.386-4.004 1.386-.528 0-1.071-.059-1.628-.176-.543-.117-1.042-.308-1.496-.572-.44-.264-.807-.609-1.1-1.034-.294-.425-.455-.946-.484-1.562h1.87c.014.337.117.623.308.858.205.235.447.425.726.572.293.147.608.249.946.308.337.073.66.11.968.11.616 0 1.136-.11 1.562-.33.425-.205.777-.499 1.056-.88.278-.367.476-.814.594-1.342.132-.528.198-1.107.198-1.738v-.748h-.044c-.323.704-.814 1.225-1.474 1.562-.646.323-1.335.484-2.068.484-.851 0-1.592-.154-2.222-.462-.631-.308-1.159-.719-1.584-1.232-.426-.528-.748-1.137-.968-1.826-.206-.704-.308-1.445-.308-2.222 0-.675.088-1.364.264-2.068.176-.719.469-1.364.88-1.936.41-.587.953-1.063 1.628-1.43.674-.381 1.503-.572 2.486-.572.718 0 1.378.161 1.98.484.601.308 1.07.777 1.408 1.408h.022v-1.628h1.76zm-5.236-.55c.616 0 1.136-.125 1.562-.374.44-.264.792-.601 1.056-1.012.264-.425.454-.902.572-1.43.132-.528.198-1.056.198-1.584 0-.499-.059-.99-.176-1.474-.118-.484-.308-.917-.572-1.298-.25-.396-.58-.711-.99-.946-.411-.235-.91-.352-1.496-.352-.602 0-1.115.117-1.54.352-.426.22-.778.521-1.056.902-.264.381-.462.821-.594 1.32-.118.499-.176 1.019-.176 1.562 0 .513.051 1.027.154 1.54.102.513.278.983.528 1.408.249.411.579.748.99 1.012.41.249.924.374 1.54.374zm8.056-14.19h1.87v6.006h.044c.147-.352.352-.645.616-.88.264-.249.558-.447.88-.594.338-.161.682-.279 1.034-.352.367-.073.719-.11 1.056-.11.748 0 1.372.103 1.87.308.499.205.902.491 1.21.858s.521.807.638 1.32c.132.499.198 1.056.198 1.672v7.48h-1.87v-7.7c0-.704-.205-1.261-.616-1.672-.41-.411-.975-.616-1.694-.616-.572 0-1.07.088-1.496.264-.41.176-.755.425-1.034.748-.278.323-.491.704-.638 1.144-.132.425-.198.895-.198 1.408v6.424h-1.87zm14.821 4.334h2.266v1.65h-2.266v7.062c0 .22.015.396.044.528.044.132.117.235.22.308s.242.125.418.154c.191.015.433.022.726.022h.858v1.65h-1.43c-.484 0-.902-.029-1.254-.088-.337-.073-.616-.198-.836-.374-.205-.176-.359-.425-.462-.748s-.154-.748-.154-1.276v-7.238h-1.936v-1.65h1.936v-3.41h1.87z" fill-opacity=".333333"/></g><path d="m168 384h131" stroke="#fff" stroke-linecap="square" stroke-width="3"/><path d="m220.082 408h-3.432l-2.662-10.692h-.044l-2.618 10.692h-3.498l-4.158-15.708h3.454l2.486 10.692h.044l2.728-10.692h3.234l2.684 10.824h.044l2.574-10.824h3.388zm8.477-13.134h-3.124v-2.574h3.124zm-3.124 1.76h3.124v11.374h-3.124zm13.438 5.654c0-.469-.044-.917-.132-1.342-.088-.44-.242-.821-.462-1.144-.205-.337-.476-.609-.814-.814-.337-.205-.762-.308-1.276-.308-.513 0-.946.103-1.298.308s-.638.477-.858.814c-.205.337-.359.726-.462 1.166-.088.425-.132.873-.132 1.342 0 .44.052.88.154 1.32.103.44.264.836.484 1.188.235.337.521.616.858.836.352.205.77.308 1.254.308.514 0 .939-.103 1.276-.308.352-.205.631-.477.836-.814.206-.352.352-.748.44-1.188s.132-.895.132-1.364zm.044 4.268h-.044c-.366.616-.85 1.063-1.452 1.342-.586.264-1.254.396-2.002.396-.85 0-1.598-.161-2.244-.484-.645-.337-1.18-.785-1.606-1.342-.41-.572-.726-1.225-.946-1.958-.205-.733-.308-1.496-.308-2.288 0-.763.103-1.496.308-2.2.22-.719.536-1.349.946-1.892.426-.543.954-.975 1.584-1.298.631-.337 1.364-.506 2.2-.506.675 0 1.313.147 1.914.44.616.279 1.1.697 1.452 1.254h.044v-5.72h3.124v15.708h-2.97zm9.072-9.922h2.288v2.09h-2.288v5.632c0 .528.088.88.264 1.056s.528.264 1.056.264c.176 0 .344-.007.506-.022.161-.015.315-.037.462-.066v2.42c-.264.044-.558.073-.88.088-.323.015-.638.022-.946.022-.484 0-.946-.037-1.386-.11-.426-.059-.807-.183-1.144-.374-.323-.191-.58-.462-.77-.814-.191-.352-.286-.814-.286-1.386v-6.71h-1.892v-2.09h1.892v-3.41h3.124zm3.554-4.334h3.124v5.918h.066c.396-.66.902-1.137 1.518-1.43.616-.308 1.217-.462 1.804-.462.836 0 1.518.117 2.046.352.543.22.968.535 1.276.946.308.396.521.887.638 1.474.132.572.198 1.21.198 1.914v6.996h-3.124v-6.424c0-.939-.147-1.635-.44-2.09-.293-.469-.814-.704-1.562-.704-.851 0-1.467.257-1.848.77-.381.499-.572 1.327-.572 2.486v5.962h-3.124z" fill="#fff"/></svg>