<svg viewBox="0 0 32 32" xmlns="http://www.w3.org/2000/svg">
	<rect width="32" height="32" rx="2" fill="orange"/>
	<path d="M12.544 15.769C9.79325 17.6473 8.76829 19.3139 8.76829 20.9894C8.76829 23.6702 11.3 25.2222 13.3763 25.2222C14.5151 25.2222 16.2234 24.8519 17.9229 22.5767C15.7591 20.3721 13.8931 18.0441 12.544 15.769ZM19.9203 24.5079C18.5712 26.2275 16.4424 28 13.3763 28C9.70565 28 6 25.1781 6 20.9894C6 17.1799 9.17127 14.6755 11.2738 13.2822C10.5729 11.6508 10.1174 9.96649 10.1174 8.32628C10.1174 5.29277 11.9483 3 14.3925 3C17.187 3 19.4034 5.12522 19.4034 7.81481C19.4034 10.4691 17.0731 12.7972 14.883 14.2787C15.7328 15.7337 17.1257 17.7178 19.3596 20.0723C19.4998 19.7549 19.6312 19.4462 19.7451 19.1552C20.1831 18.0265 20.3408 17.3033 20.3408 17.3033C20.4809 16.6861 21.0241 16.2275 21.6811 16.2275C22.4433 16.2275 23.0653 16.8536 23.0653 17.6208C23.0653 17.7354 23.0477 17.8413 23.0215 17.9383C22.9426 18.291 22.4608 20.1429 21.4358 22.127C22.6886 23.291 24.0464 24.4286 25.4569 25.5044C25.7898 25.7601 26 26.1658 26 26.6155C26 27.3827 25.3868 28 24.6246 28C24.3092 28 24.0201 27.903 23.7924 27.7266C22.4433 26.7037 21.138 25.619 19.9203 24.5079ZM16.6351 7.81481C16.6351 6.63316 15.6364 5.7866 14.3925 5.7866C14.0596 5.7866 13.7442 5.93651 13.4639 6.30688C13.2887 6.53616 12.8769 7.18871 12.8769 8.32628C12.8769 9.13757 13.0521 10.284 13.6391 11.7743C14.3837 11.2363 15.9431 9.99295 16.4774 8.61728C16.5913 8.31746 16.6351 8.05291 16.6351 7.81481Z" fill="black"/>
</svg>
